M48
;DRILL file {KiCad 4.0.2-stable} date 9/2/2016 11:22:14 AM
;FORMAT={3:3/ absolute / metric / suppress leading zeros}
FMAT,2
METRIC,TZ
T1C0.400
T2C0.762
T3C0.800
T4C0.800
T5C0.813
T6C0.900
T7C1.001
T8C1.016
T9C1.300
%
G90
G05
M71
T1
X13655Y16708
X14036Y63571
X22164Y41854
X26736Y63571
X26736Y60396
X30038Y16581
X36896Y63571
X43246Y19121
X43754Y29281
X47310Y12517
X49596Y63571
X49596Y60396
X54930Y29281
X55438Y34361
X59756Y63571
X61026Y14041
X63566Y26741
X63566Y14041
X66106Y26741
X72456Y63571
X81346Y26233
X82616Y63571
X95316Y63571
X105476Y63571
X114366Y35631
X114366Y33091
X118176Y63571
X128336Y63571
X134178Y26233
X135956Y78811
X138496Y68651
X141036Y35631
X141036Y33091
X144846Y62301
T2
X3876Y82621
X3876Y69921
X6416Y82621
X6416Y69921
X8702Y54681
X8956Y82621
X8956Y69921
X11242Y54681
X11496Y82621
X11496Y69921
X12766Y6421
X13782Y54681
X14036Y82621
X14036Y69921
X15306Y6421
X16322Y54681
X16576Y82621
X16576Y69921
X17846Y6421
X18862Y54681
X19116Y82621
X19116Y69921
X20386Y6421
X21402Y54681
X21656Y82621
X21656Y69921
X22926Y6421
X23942Y54681
X25466Y6421
X26482Y54681
X26736Y82621
X26736Y69921
X28006Y6421
X29276Y82621
X29276Y69921
X30546Y54681
X30546Y6421
X31816Y82621
X31816Y69921
X33086Y54681
X34356Y82621
X34356Y69921
X35626Y54681
X35626Y6421
X36896Y82621
X36896Y69921
X38166Y54681
X38166Y6421
X39436Y82621
X39436Y69921
X40706Y54681
X40706Y6421
X41976Y82621
X41976Y69921
X43246Y54681
X43246Y6421
X44516Y82621
X44516Y69921
X45786Y54681
X45786Y6421
X48326Y54681
X48326Y34361
X48326Y31821
X48326Y29281
X48326Y6421
X49596Y82621
X49596Y69921
X50866Y34361
X50866Y31821
X50866Y29281
X52136Y82621
X52136Y69921
X54676Y82621
X54676Y69921
X57216Y82621
X57216Y69921
X59756Y82621
X59756Y69921
X62296Y82621
X62296Y69921
X64836Y82621
X64836Y69921
X67376Y82621
X67376Y69921
X72456Y82621
X72456Y69921
X74996Y82621
X74996Y69921
X77536Y82621
X77536Y69921
X80076Y82621
X80076Y69921
X82616Y82621
X82616Y69921
X85156Y82621
X85156Y69921
X87696Y82621
X87696Y69921
X90236Y82621
X90236Y69921
X95316Y82621
X95316Y69921
X97856Y82621
X97856Y69921
X100396Y82621
X100396Y69921
X102936Y82621
X102936Y69921
X105476Y82621
X105476Y69921
X108016Y82621
X108016Y69921
X110556Y82621
X110556Y69921
X113096Y82621
X113096Y69921
X118176Y82621
X118176Y69921
X120716Y82621
X120716Y69921
X123256Y82621
X123256Y69921
X125796Y82621
X125796Y69921
X128336Y82621
X128336Y69921
X130876Y82621
X130876Y69921
X133416Y82621
X133416Y69921
X135956Y82621
X135956Y69921
X144846Y43251
X144846Y40711
X144846Y38171
X144846Y35631
X144846Y33091
X144846Y30551
T3
X19116Y77501
X19116Y75001
X28006Y77501
X28006Y75001
X50866Y77501
X50866Y75001
X61026Y44521
X61026Y29281
X63566Y44521
X63566Y29281
X66106Y44521
X66106Y29281
X68646Y44521
X68646Y29281
X71186Y44521
X71186Y29281
X73726Y77501
X73726Y75001
X73726Y44521
X73726Y29281
X76266Y44521
X76266Y29281
X78806Y44521
X78806Y29281
X81346Y44521
X81346Y29281
X83886Y44521
X83886Y29281
X86426Y44521
X86426Y29281
X88966Y44521
X88966Y29281
X91506Y44521
X91506Y29281
X94046Y44521
X94046Y29281
X96586Y77501
X96586Y75001
X96586Y44521
X96586Y29281
X99126Y44521
X99126Y29281
X101666Y44521
X101666Y29281
X104206Y44521
X104206Y29281
X106746Y44521
X106746Y29281
X109286Y44521
X109286Y29281
X119446Y77501
X119446Y75001
X138790Y24709
X141290Y24709
T4
X87668Y19756
X92550Y19756
T5
X135956Y16073
X135956Y10993
X143576Y16073
X143576Y10993
T6
X87061Y14596
X87061Y9596
X92268Y14596
X92268Y9596
T7
X134051Y39441
X134051Y29281
X137226Y48331
X137226Y38171
X142306Y54046
X144846Y54046
T8
X6416Y66111
X6416Y63571
X8956Y66111
X8956Y63571
X11496Y66111
X11496Y63571
X29276Y66111
X29276Y63571
X31816Y66111
X31816Y63571
X34356Y66111
X34356Y63571
X52136Y66111
X52136Y63571
X54676Y66111
X54676Y63571
X57216Y66111
X57216Y63571
X58486Y11501
X61026Y11501
X63566Y11501
X66106Y11501
X74996Y66111
X74996Y63571
X77536Y66111
X77536Y63571
X80076Y66111
X80076Y63571
X96586Y11501
X96586Y8961
X97856Y66111
X97856Y63571
X99126Y11501
X99126Y8961
X100396Y66111
X100396Y63571
X101666Y11501
X101666Y8961
X102936Y66111
X102936Y63571
X104206Y11501
X104206Y8961
X106746Y11501
X106746Y8961
X109286Y11501
X109286Y8961
X111826Y11501
X111826Y8961
X114366Y11501
X114366Y8961
X120716Y66111
X120716Y63571
X121986Y11501
X123256Y66111
X123256Y63571
X124526Y11501
X125796Y66111
X125796Y63571
X127066Y11501
T9
X6416Y94051
X11416Y94051
X16416Y94051
X21416Y94051
X29276Y94051
X34276Y94051
X39276Y94051
X44276Y94051
X52136Y94051
X57136Y94051
X62136Y94051
X67136Y94051
X74234Y10993
X74996Y94051
X79234Y10993
X79996Y94051
X84996Y94051
X89996Y94051
X97856Y94051
X102856Y94051
X107856Y94051
X112856Y94051
X120716Y94051
X125716Y94051
X130716Y94051
X135716Y94051
X144846Y81271
X144846Y76271
X144846Y71111
X144846Y66111
T0
M30
