<?xml version="1.0" standalone="no"?>
 <!DOCTYPE svg PUBLIC "-//W3C//DTD SVG 1.1//EN" 
 "http://www.w3.org/Graphics/SVG/1.1/DTD/svg11.dtd"> 
<svg xmlns="http://www.w3.org/2000/svg" version="1.1" 
    width="29.7002cm" height="21.0007cm" viewBox="0 0 116930 82680 ">
<title>SVG Picture created as copis_electronics-F.CrtYd.svg date 2019/02/13 13:30:31 </title>
  <desc>Picture generated by PCBNEW </desc>
<g style="fill:#000000; fill-opacity:1;stroke:#000000; stroke-opacity:1;
stroke-linecap:round; stroke-linejoin:round; "
 transform="translate(0 0) scale(1 1)">
</g>
<g style="fill:#000000; fill-opacity:0.0; 
stroke:#000000; stroke-width:-0.000393701; stroke-opacity:1; 
stroke-linecap:round; stroke-linejoin:round;">
</g>
<g style="fill:#000000; fill-opacity:0.0; 
stroke:#000000; stroke-width:59.0551; stroke-opacity:1; 
stroke-linecap:round; stroke-linejoin:round;">
<circle cx="30118.1" cy="21425.6" r="590.551" /> 
<circle cx="87007.9" cy="17429.1" r="590.551" /> 
<circle cx="31102.4" cy="50459.1" r="590.551" /> 
<circle cx="87007.9" cy="53452.8" r="622.496" /> 
<path d="M29000 55500
L29000 15500
" />
<path d="M89000 55500
L29000 55500
" />
<path d="M89000 15500
L89000 55500
" />
<path d="M29000 15500
L89000 15500
" />
</g>
<g style="fill:#000000; fill-opacity:0.0; 
stroke:#000000; stroke-width:19.685; stroke-opacity:1; 
stroke-linecap:round; stroke-linejoin:round;">
<path d="M62265 52124
L62265 49407
" />
<path d="M62265 49407
L64234 49407
" />
<path d="M64234 49407
L64234 52124
" />
<path d="M64234 52124
L62265 52124
" />
<path d="M64315 52124
L64315 49407
" />
<path d="M64315 49407
L66284 49407
" />
<path d="M66284 49407
L66284 52124
" />
<path d="M66284 52124
L64315 52124
" />
<circle cx="84107.9" cy="45800" r="1102.36" /> 
<circle cx="49000" cy="25507.9" r="1102.36" /> 
<circle cx="36500" cy="25507.9" r="1102.36" /> 
<circle cx="76000" cy="25507.9" r="1102.36" /> 
<circle cx="58000" cy="25507.9" r="1102.36" /> 
<circle cx="40000" cy="25507.9" r="1102.36" /> 
<circle cx="67000" cy="25507.9" r="1102.36" /> 
<path d="M86590 34860
L86590 33639
" />
<path d="M86590.6 33639.8 A1260 1260 0.0 1 0 86589.9 34861.5 " />
<path d="M52035 44551
L72980 44551
" />
<path d="M52035 37444
L72980 37444
" />
<path d="M52035 44551
L52035 37444
" />
<path d="M72980 44551
L72980 37444
" />
<path d="M32188 31188
L32188 28807
" />
<path d="M30811 31188
L30811 28807
" />
<path d="M32188 31188
L30811 31188
" />
<path d="M32188 28807
L30811 28807
" />
<path d="M33188 31188
L33188 28807
" />
<path d="M31811 31188
L31811 28807
" />
<path d="M33188 31188
L31811 31188
" />
<path d="M33188 28807
L31811 28807
" />
<path d="M34188 31188
L34188 28807
" />
<path d="M32811 31188
L32811 28807
" />
<path d="M34188 31188
L32811 31188
" />
<path d="M34188 28807
L32811 28807
" />
<path d="M50188 31188
L50188 28807
" />
<path d="M48811 31188
L48811 28807
" />
<path d="M50188 31188
L48811 31188
" />
<path d="M50188 28807
L48811 28807
" />
<path d="M51188 31188
L51188 28807
" />
<path d="M49811 31188
L49811 28807
" />
<path d="M51188 31188
L49811 31188
" />
<path d="M51188 28807
L49811 28807
" />
<path d="M52188 31188
L52188 28807
" />
<path d="M50811 31188
L50811 28807
" />
<path d="M52188 31188
L50811 31188
" />
<path d="M52188 28807
L50811 28807
" />
<path d="M41188 31188
L41188 28807
" />
<path d="M39811 31188
L39811 28807
" />
<path d="M41188 31188
L39811 31188
" />
<path d="M41188 28807
L39811 28807
" />
<path d="M42188 31188
L42188 28807
" />
<path d="M40811 31188
L40811 28807
" />
<path d="M42188 31188
L40811 31188
" />
<path d="M42188 28807
L40811 28807
" />
<path d="M43188 31188
L43188 28807
" />
<path d="M41811 31188
L41811 28807
" />
<path d="M43188 31188
L41811 31188
" />
<path d="M43188 28807
L41811 28807
" />
<path d="M68188 31188
L68188 28807
" />
<path d="M66811 31188
L66811 28807
" />
<path d="M68188 31188
L66811 31188
" />
<path d="M68188 28807
L66811 28807
" />
<path d="M69188 31188
L69188 28807
" />
<path d="M67811 31188
L67811 28807
" />
<path d="M69188 31188
L67811 31188
" />
<path d="M69188 28807
L67811 28807
" />
<path d="M70188 31188
L70188 28807
" />
<path d="M68811 31188
L68811 28807
" />
<path d="M70188 31188
L68811 31188
" />
<path d="M70188 28807
L68811 28807
" />
<path d="M59188 31188
L59188 28807
" />
<path d="M57811 31188
L57811 28807
" />
<path d="M59188 31188
L57811 31188
" />
<path d="M59188 28807
L57811 28807
" />
<path d="M60188 31188
L60188 28807
" />
<path d="M58811 31188
L58811 28807
" />
<path d="M60188 31188
L58811 31188
" />
<path d="M60188 28807
L58811 28807
" />
<path d="M61188 31188
L61188 28807
" />
<path d="M59811 31188
L59811 28807
" />
<path d="M61188 31188
L59811 31188
" />
<path d="M61188 28807
L59811 28807
" />
<path d="M67688 52688
L67688 50307
" />
<path d="M66311 52688
L66311 50307
" />
<path d="M67688 52688
L66311 52688
" />
<path d="M67688 50307
L66311 50307
" />
<path d="M68688 52688
L68688 50307
" />
<path d="M67311 52688
L67311 50307
" />
<path d="M68688 52688
L67311 52688
" />
<path d="M68688 50307
L67311 50307
" />
<path d="M69688 52688
L69688 50307
" />
<path d="M68311 52688
L68311 50307
" />
<path d="M69688 52688
L68311 52688
" />
<path d="M69688 50307
L68311 50307
" />
<path d="M70688 52688
L70688 50307
" />
<path d="M69311 52688
L69311 50307
" />
<path d="M70688 52688
L69311 52688
" />
<path d="M70688 50307
L69311 50307
" />
<path d="M71688 52688
L71688 50307
" />
<path d="M70311 52688
L70311 50307
" />
<path d="M71688 52688
L70311 52688
" />
<path d="M71688 50307
L70311 50307
" />
<path d="M76311 51688
L79696 51688
" />
<path d="M76311 50311
L79696 50311
" />
<path d="M76311 51688
L76311 50311
" />
<path d="M79696 51688
L79696 50311
" />
<path d="M73688 52688
L73688 50307
" />
<path d="M72311 52688
L72311 50307
" />
<path d="M73688 52688
L72311 52688
" />
<path d="M73688 50307
L72311 50307
" />
<path d="M72688 52688
L72688 50307
" />
<path d="M71311 52688
L71311 50307
" />
<path d="M72688 52688
L71311 52688
" />
<path d="M72688 50307
L71311 50307
" />
<path d="M74688 52688
L74688 50307
" />
<path d="M73311 52688
L73311 50307
" />
<path d="M74688 52688
L73311 52688
" />
<path d="M74688 50307
L73311 50307
" />
<path d="M83874 30562
L83874 26468
" />
<path d="M87889 30562
L83874 30562
" />
<path d="M87889 26468
L87889 30562
" />
<path d="M83874 26468
L87889 26468
" />
<path d="M83874 26562
L83874 22468
" />
<path d="M87889 26562
L83874 26562
" />
<path d="M87889 22468
L87889 26562
" />
<path d="M83874 22468
L87889 22468
" />
<path d="M30437 16374
L38468 16374
" />
<path d="M30437 20389
L30437 16374
" />
<path d="M38468 20389
L30437 20389
" />
<path d="M38468 16374
L38468 20389
" />
<path d="M39437 16374
L47468 16374
" />
<path d="M39437 20389
L39437 16374
" />
<path d="M47468 20389
L39437 20389
" />
<path d="M47468 16374
L47468 20389
" />
<path d="M48437 16374
L56468 16374
" />
<path d="M48437 20389
L48437 16374
" />
<path d="M56468 20389
L48437 20389
" />
<path d="M56468 16374
L56468 20389
" />
<path d="M66437 16374
L74468 16374
" />
<path d="M66437 20389
L66437 16374
" />
<path d="M74468 20389
L66437 20389
" />
<path d="M74468 16374
L74468 20389
" />
<path d="M75437 16374
L83468 16374
" />
<path d="M75437 20389
L75437 16374
" />
<path d="M83468 20389
L75437 20389
" />
<path d="M83468 16374
L83468 20389
" />
<path d="M57437 16374
L65468 16374
" />
<path d="M57437 20389
L57437 16374
" />
<path d="M65468 20389
L57437 20389
" />
<path d="M65468 16374
L65468 20389
" />
<path d="M77188 31188
L77188 28807
" />
<path d="M75811 31188
L75811 28807
" />
<path d="M77188 31188
L75811 31188
" />
<path d="M77188 28807
L75811 28807
" />
<path d="M78188 31188
L78188 28807
" />
<path d="M76811 31188
L76811 28807
" />
<path d="M78188 31188
L76811 31188
" />
<path d="M78188 28807
L76811 28807
" />
<path d="M79188 31188
L79188 28807
" />
<path d="M77811 31188
L77811 28807
" />
<path d="M79188 31188
L77811 31188
" />
<path d="M79188 28807
L77811 28807
" />
<path d="M57137 49074
L61231 49074
" />
<path d="M57137 53089
L57137 49074
" />
<path d="M61231 53089
L57137 53089
" />
<path d="M61231 49074
L61231 53089
" />
<path d="M46907 35909
L51888 35909
" />
<path d="M46907 37090
L46907 35909
" />
<path d="M51888 35909
L51888 37090
" />
<path d="M46907 37090
L51888 37090
" />
<path d="M39921 43937
L44902 43937
" />
<path d="M39921 45118
L39921 43937
" />
<path d="M44902 43937
L44902 45118
" />
<path d="M39921 45118
L44902 45118
" />
<path d="M35407 35709
L40388 35709
" />
<path d="M35407 36890
L35407 35709
" />
<path d="M40388 35709
L40388 36890
" />
<path d="M35407 36890
L40388 36890
" />
<path d="M35407 40509
L40388 40509
" />
<path d="M35407 41690
L35407 40509
" />
<path d="M40388 40509
L40388 41690
" />
<path d="M35407 41690
L40388 41690
" />
<path d="M45351 38264
L45351 35331
" />
<path d="M41256 38264
L41256 35331
" />
<path d="M45351 38264
L41256 38264
" />
<path d="M45351 35331
L41256 35331
" />
<path d="M45351 43064
L45351 40131
" />
<path d="M41256 43064
L41256 40131
" />
<path d="M45351 43064
L41256 43064
" />
<path d="M45351 40131
L41256 40131
" />
<path d="M34090 43988
L34090 40603
" />
<path d="M29307 43988
L29307 40603
" />
<path d="M34090 43988
L29307 43988
" />
<path d="M34090 40603
L29307 40603
" />
</g> 
</svg>
