solid m8NutBlock
facet normal -1.2345415211558084e-25 1.0 1.1939883437173304e-09
  outer loop
    vertex 334.06112172628787 21.767138739506475 32.79159999999997
    vertex 346.57112172628786 21.767138754463303 23.791599999999985
    vertex 334.06112172628787 21.767138748480555 23.791599999999985
  endloop
endfacet
facet normal -1.2345415211558084e-25 1.0 1.1939883437173304e-09
  outer loop
    vertex 346.57112172628786 21.767138754463303 23.791599999999985
    vertex 334.06112172628787 21.767138739506475 32.79159999999997
    vertex 346.9129026253122 21.767138754463303 25.50984861131926
  endloop
endfacet
facet normal -1.2345415211558084e-25 1.0 1.1939883437173304e-09
  outer loop
    vertex 346.9129026253122 21.767138754463303 25.50984861131926
    vertex 334.06112172628787 21.767138739506475 32.79159999999997
    vertex 347.8862122787603 21.767138754463303 26.9665094475276
  endloop
endfacet
facet normal -1.2345415211558084e-25 1.0 1.1939883437173304e-09
  outer loop
    vertex 347.8862122787603 21.767138754463303 26.9665094475276
    vertex 334.06112172628787 21.767138739506475 32.79159999999997
    vertex 349.3428731149686 21.767138754463303 27.9398191009757
  endloop
endfacet
facet normal -1.2345415211558084e-25 1.0 1.1939883437173304e-09
  outer loop
    vertex 349.3428731149686 21.767138754463303 27.9398191009757
    vertex 334.06112172628787 21.767138739506475 32.79159999999997
    vertex 351.06112172628787 21.767138754463303 28.281599999999983
  endloop
endfacet
facet normal -1.2345415211558084e-25 1.0 1.1939883437173304e-09
  outer loop
    vertex 355.20934082726353 21.767138754463303 25.50984861131926
    vertex 368.06112172628787 21.767138748480555 23.791599999999985
    vertex 355.55112172628793 21.767138754463303 23.791599999999985
  endloop
endfacet
facet normal -1.2345415211558084e-25 1.0 1.1939883437173304e-09
  outer loop
    vertex 368.06112172628787 21.767138748480555 23.791599999999985
    vertex 355.20934082726353 21.767138754463303 25.50984861131926
    vertex 368.06112172628787 21.767138739506475 32.79159999999997
  endloop
endfacet
facet normal -1.2345415211558084e-25 1.0 1.1939883437173304e-09
  outer loop
    vertex 368.06112172628787 21.767138739506475 32.79159999999997
    vertex 355.20934082726353 21.767138754463303 25.50984861131926
    vertex 354.2360311738155 21.767138754463303 26.9665094475276
  endloop
endfacet
facet normal -1.2345415211558084e-25 1.0 1.1939883437173304e-09
  outer loop
    vertex 368.06112172628787 21.767138739506475 32.79159999999997
    vertex 354.2360311738155 21.767138754463303 26.9665094475276
    vertex 352.77937033760713 21.767138754463303 27.9398191009757
  endloop
endfacet
facet normal -1.2345415211558084e-25 1.0 1.1939883437173304e-09
  outer loop
    vertex 368.06112172628787 21.767138739506475 32.79159999999997
    vertex 352.77937033760713 21.767138754463303 27.9398191009757
    vertex 351.06112172628787 21.767138754463303 28.281599999999983
  endloop
endfacet
facet normal -1.2345415211558084e-25 1.0 1.1939883437173304e-09
  outer loop
    vertex 368.06112172628787 21.767138739506475 32.79159999999997
    vertex 351.06112172628787 21.767138754463303 28.281599999999983
    vertex 334.06112172628787 21.767138739506475 32.79159999999997
  endloop
endfacet
facet normal 0.9807852804032302 0.0 -0.19509032201612925
  outer loop
    vertex 346.57112172628786 21.767138754463303 23.791599999999985
    vertex 346.9129026253122 15.392138754463328 25.50984861131926
    vertex 346.57112172628786 15.392138754463328 23.791599999999985
  endloop
endfacet
facet normal 0.9807852804032302 0.0 -0.19509032201612925
  outer loop
    vertex 346.9129026253122 15.392138754463328 25.50984861131926
    vertex 346.57112172628786 21.767138754463303 23.791599999999985
    vertex 346.9129026253122 21.767138754463303 25.50984861131926
  endloop
endfacet
facet normal -0.5555702330196123 0.0 -0.8314696123025385
  outer loop
    vertex 354.2360311738155 21.767138754463303 26.9665094475276
    vertex 352.77937033760713 15.392138754463328 27.9398191009757
    vertex 352.77937033760713 21.767138754463303 27.9398191009757
  endloop
endfacet
facet normal -0.5555702330196123 0.0 -0.8314696123025385
  outer loop
    vertex 352.77937033760713 15.392138754463328 27.9398191009757
    vertex 354.2360311738155 21.767138754463303 26.9665094475276
    vertex 354.2360311738155 15.392138754463328 26.9665094475276
  endloop
endfacet
facet normal 0.5555702330196242 0.0 -0.8314696123025305
  outer loop
    vertex 349.3428731149686 21.767138754463303 27.9398191009757
    vertex 347.8862122787603 15.392138754463328 26.9665094475276
    vertex 347.8862122787603 21.767138754463303 26.9665094475276
  endloop
endfacet
facet normal 0.5555702330196242 0.0 -0.8314696123025305
  outer loop
    vertex 347.8862122787603 15.392138754463328 26.9665094475276
    vertex 349.3428731149686 21.767138754463303 27.9398191009757
    vertex 349.3428731149686 15.392138754463328 27.9398191009757
  endloop
endfacet
facet normal -0.8314696123025505 0.0 -0.5555702330195945
  outer loop
    vertex 354.2360311738155 21.767138754463303 26.9665094475276
    vertex 355.20934082726353 15.392138754463328 25.50984861131926
    vertex 354.2360311738155 15.392138754463328 26.9665094475276
  endloop
endfacet
facet normal -0.8314696123025505 0.0 -0.5555702330195945
  outer loop
    vertex 355.20934082726353 15.392138754463328 25.50984861131926
    vertex 354.2360311738155 21.767138754463303 26.9665094475276
    vertex 355.20934082726353 21.767138754463303 25.50984861131926
  endloop
endfacet
facet normal 1.0 0.0 0.0
  outer loop
    vertex 368.06112172628787 1.7671387544632964 23.791599999999985
    vertex 368.06112172628787 21.767138739506475 32.79159999999997
    vertex 368.06112172628787 1.7671387395064648 32.79159999999997
  endloop
endfacet
facet normal 1.0 0.0 0.0
  outer loop
    vertex 368.06112172628787 21.767138739506475 32.79159999999997
    vertex 368.06112172628787 1.7671387544632964 23.791599999999985
    vertex 368.06112172628787 21.767138748480555 23.791599999999985
  endloop
endfacet
facet normal -1.0 0.0 0.0
  outer loop
    vertex 334.06112172628787 21.767138739506475 32.79159999999997
    vertex 334.06112172628787 1.767138751471921 23.791599999999985
    vertex 334.06112172628787 1.7671387395064648 32.79159999999997
  endloop
endfacet
facet normal -1.0 0.0 0.0
  outer loop
    vertex 334.06112172628787 1.767138751471921 23.791599999999985
    vertex 334.06112172628787 21.767138739506475 32.79159999999997
    vertex 334.06112172628787 21.767138748480555 23.791599999999985
  endloop
endfacet
facet normal 0.8314696123025385 0.0 -0.5555702330196123
  outer loop
    vertex 346.9129026253122 21.767138754463303 25.50984861131926
    vertex 347.8862122787603 15.392138754463328 26.9665094475276
    vertex 346.9129026253122 15.392138754463328 25.50984861131926
  endloop
endfacet
facet normal 0.8314696123025385 0.0 -0.5555702330196123
  outer loop
    vertex 347.8862122787603 15.392138754463328 26.9665094475276
    vertex 346.9129026253122 21.767138754463303 25.50984861131926
    vertex 347.8862122787603 21.767138754463303 26.9665094475276
  endloop
endfacet
facet normal -0.9807852804032253 0.0 -0.19509032201615403
  outer loop
    vertex 355.20934082726353 21.767138754463303 25.50984861131926
    vertex 355.55112172628793 15.392138754463328 23.791599999999985
    vertex 355.20934082726353 15.392138754463328 25.50984861131926
  endloop
endfacet
facet normal -0.9807852804032253 0.0 -0.19509032201615403
  outer loop
    vertex 355.55112172628793 15.392138754463328 23.791599999999985
    vertex 355.20934082726353 21.767138754463303 25.50984861131926
    vertex 355.55112172628793 21.767138754463303 23.791599999999985
  endloop
endfacet
facet normal -0.19509032201610452 0.0 -0.9807852804032353
  outer loop
    vertex 352.77937033760713 21.767138754463303 27.9398191009757
    vertex 351.06112172628787 15.392138754463328 28.281599999999983
    vertex 351.06112172628787 21.767138754463303 28.281599999999983
  endloop
endfacet
facet normal -0.19509032201610452 0.0 -0.9807852804032353
  outer loop
    vertex 351.06112172628787 15.392138754463328 28.281599999999983
    vertex 352.77937033760713 21.767138754463303 27.9398191009757
    vertex 352.77937033760713 15.392138754463328 27.9398191009757
  endloop
endfacet
facet normal 0.19509032201610452 0.0 -0.9807852804032353
  outer loop
    vertex 351.06112172628787 21.767138754463303 28.281599999999983
    vertex 349.3428731149686 15.392138754463328 27.9398191009757
    vertex 349.3428731149686 21.767138754463303 27.9398191009757
  endloop
endfacet
facet normal 0.19509032201610452 0.0 -0.9807852804032353
  outer loop
    vertex 349.3428731149686 15.392138754463328 27.9398191009757
    vertex 351.06112172628787 21.767138754463303 28.281599999999983
    vertex 351.06112172628787 15.392138754463328 28.281599999999983
  endloop
endfacet
facet normal 0.5877852522924741 -0.8090169943749468 6.437918370920071e-18
  outer loop
    vertex 360.1649724426006 14.525202636762383 27.791600000000024
    vertex 358.7149724426005 13.471715971154584 23.79939999999998
    vertex 360.1649724426006 14.525202636762383 23.791599999999985
  endloop
endfacet
facet normal 0.5877852522924741 -0.8090169943749468 6.437918370920071e-18
  outer loop
    vertex 358.7149724426005 13.471715971154584 23.79939999999998
    vertex 360.1649724426006 14.525202636762383 27.791600000000024
    vertex 358.7149724426005 13.471715971154584 27.791600000000024
  endloop
endfacet
facet normal 0.5877852522924741 0.8090169943749467 0.0
  outer loop
    vertex 358.7149724426005 10.062561507858309 27.791600000000024
    vertex 360.1649724426006 9.00907484225051 23.79939999999998
    vertex 358.7149724426005 10.062561507858309 23.79939999999998
  endloop
endfacet
facet normal 0.5877852522924741 0.8090169943749467 0.0
  outer loop
    vertex 360.1649724426006 9.00907484225051 23.79939999999998
    vertex 358.7149724426005 10.062561507858309 27.791600000000024
    vertex 360.1649724426006 9.00907484225051 27.791600000000024
  endloop
endfacet
facet normal -0.5877852522924802 -0.8090169943749425 -3.320006413835354e-15
  outer loop
    vertex 363.4072710099752 13.471715971154584 27.791600000000024
    vertex 361.9572710099752 14.525202636762383 23.791599999999985
    vertex 363.40727100997526 13.471715971154584 23.791599999999985
  endloop
endfacet
facet normal -0.5877852522924802 -0.8090169943749425 -3.320006413835354e-15
  outer loop
    vertex 361.9572710099752 14.525202636762383 23.791599999999985
    vertex 363.4072710099752 13.471715971154584 27.791600000000024
    vertex 361.9572710099752 14.525202636762383 27.791600000000024
  endloop
endfacet
facet normal -0.9510565162951546 0.3090169943749442 0.0
  outer loop
    vertex 363.9611217262879 11.76713873950649 27.791600000000024
    vertex 363.40727100997526 10.062561507858309 23.79939999999998
    vertex 363.40727100997526 10.062561507858309 27.791600000000024
  endloop
endfacet
facet normal -0.9510565162951546 0.3090169943749442 0.0
  outer loop
    vertex 363.40727100997526 10.062561507858309 23.79939999999998
    vertex 363.9611217262879 11.76713873950649 27.791600000000024
    vertex 363.9611217262879 11.76713873950649 23.79939999999998
  endloop
endfacet
facet normal -0.5877852522924741 0.8090169943749467 0.0
  outer loop
    vertex 361.9572710099752 9.00907484225051 27.791600000000024
    vertex 363.40727100997526 10.062561507858309 23.79939999999998
    vertex 361.9572710099752 9.00907484225051 23.79939999999998
  endloop
endfacet
facet normal -0.5877852522924741 0.8090169943749467 0.0
  outer loop
    vertex 363.40727100997526 10.062561507858309 23.79939999999998
    vertex 361.9572710099752 9.00907484225051 27.791600000000024
    vertex 363.40727100997526 10.062561507858309 27.791600000000024
  endloop
endfacet
facet normal 0.0 -1.0 0.0
  outer loop
    vertex 361.9572710099752 14.525202636762383 27.791600000000024
    vertex 360.1649724426006 14.525202636762383 23.791599999999985
    vertex 361.9572710099752 14.525202636762383 23.791599999999985
  endloop
endfacet
facet normal 0.0 -1.0 0.0
  outer loop
    vertex 360.1649724426006 14.525202636762383 23.791599999999985
    vertex 361.9572710099752 14.525202636762383 27.791600000000024
    vertex 360.1649724426006 14.525202636762383 27.791600000000024
  endloop
endfacet
facet normal 0.0 1.0 0.0
  outer loop
    vertex 347.3470202262879 8.142138754463312 29.791599800575554
    vertex 346.57112172628786 8.142138754463312 23.791599999999985
    vertex 343.88291872628787 8.142138754463312 23.791599999999985
  endloop
endfacet
facet normal 0.0 1.0 0.0
  outer loop
    vertex 346.57112172628786 8.142138754463312 23.791599999999985
    vertex 347.3470202262879 8.142138754463312 29.791599800575554
    vertex 346.9129026253122 8.142138754463312 25.50984861131926
  endloop
endfacet
facet normal 0.0 1.0 0.0
  outer loop
    vertex 346.9129026253122 8.142138754463312 25.50984861131926
    vertex 347.3470202262879 8.142138754463312 29.791599800575554
    vertex 347.8862122787603 8.142138754463312 26.9665094475276
  endloop
endfacet
facet normal 0.0 1.0 0.0
  outer loop
    vertex 347.8862122787603 8.142138754463312 26.9665094475276
    vertex 347.3470202262879 8.142138754463312 29.791599800575554
    vertex 349.3428731149686 8.142138754463312 27.9398191009757
  endloop
endfacet
facet normal 0.0 1.0 0.0
  outer loop
    vertex 349.3428731149686 8.142138754463312 27.9398191009757
    vertex 347.3470202262879 8.142138754463312 29.791599800575554
    vertex 351.06112172628787 8.142138754463312 28.281599999999983
  endloop
endfacet
facet normal 0.0 1.0 0.0
  outer loop
    vertex 355.20934082726353 8.142138754463312 25.50984861131926
    vertex 358.2393247262878 8.142138754463312 23.791599999999985
    vertex 355.55112172628793 8.142138754463312 23.791599999999985
  endloop
endfacet
facet normal 0.0 1.0 0.0
  outer loop
    vertex 358.2393247262878 8.142138754463312 23.791599999999985
    vertex 355.20934082726353 8.142138754463312 25.50984861131926
    vertex 354.77522322628784 8.142138754463312 29.791599800575554
  endloop
endfacet
facet normal 0.0 1.0 0.0
  outer loop
    vertex 354.77522322628784 8.142138754463312 29.791599800575554
    vertex 355.20934082726353 8.142138754463312 25.50984861131926
    vertex 354.2360311738155 8.142138754463312 26.9665094475276
  endloop
endfacet
facet normal 0.0 1.0 0.0
  outer loop
    vertex 354.77522322628784 8.142138754463312 29.791599800575554
    vertex 354.2360311738155 8.142138754463312 26.9665094475276
    vertex 352.77937033760713 8.142138754463312 27.9398191009757
  endloop
endfacet
facet normal 0.0 1.0 0.0
  outer loop
    vertex 354.77522322628784 8.142138754463312 29.791599800575554
    vertex 352.77937033760713 8.142138754463312 27.9398191009757
    vertex 351.06112172628787 8.142138754463312 28.281599999999983
  endloop
endfacet
facet normal 0.0 1.0 0.0
  outer loop
    vertex 354.77522322628784 8.142138754463312 29.791599800575554
    vertex 351.06112172628787 8.142138754463312 28.281599999999983
    vertex 347.3470202262879 8.142138754463312 29.791599800575554
  endloop
endfacet
facet normal -0.9510565162951468 -0.30901699437496866 -8.609945697038237e-15
  outer loop
    vertex 363.4072710099752 13.471715971154584 27.791600000000024
    vertex 363.9611217262879 11.76713873950649 23.79939999999998
    vertex 363.9611217262879 11.76713873950649 27.791600000000024
  endloop
endfacet
facet normal -0.9510565162951468 -0.30901699437496866 -8.609945697038237e-15
  outer loop
    vertex 363.9611217262879 11.76713873950649 23.79939999999998
    vertex 363.4072710099752 13.471715971154584 27.791600000000024
    vertex 363.6131695556521 12.838025406796769 23.794499713964374
  endloop
endfacet
facet normal -0.9510565162951468 -0.30901699437496866 -8.609945697038237e-15
  outer loop
    vertex 363.6131695556521 12.838025406796769 23.794499713964374
    vertex 363.4072710099752 13.471715971154584 27.791600000000024
    vertex 363.40727100997526 13.471715971154584 23.791599999999985
  endloop
endfacet
facet normal 0.0 0.0 -1.0
  outer loop
    vertex 334.06112172628787 21.767138748480555 23.791599999999985
    vertex 338.7149724426005 13.471715971154584 23.791599999999985
    vertex 334.06112172628787 1.767138751471921 23.791599999999985
  endloop
endfacet
facet normal 0.0 0.0 -1.0
  outer loop
    vertex 338.7149724426005 13.471715971154584 23.791599999999985
    vertex 334.06112172628787 21.767138748480555 23.791599999999985
    vertex 346.57112172628786 21.767138754463303 23.791599999999985
  endloop
endfacet
facet normal 0.0 0.0 -1.0
  outer loop
    vertex 334.06112172628787 1.767138751471921 23.791599999999985
    vertex 338.7149724426005 13.471715971154584 23.791599999999985
    vertex 338.1611217262879 11.76713873950649 23.791599999999985
  endloop
endfacet
facet normal 0.0 0.0 -1.0
  outer loop
    vertex 338.7149724426005 13.471715971154584 23.791599999999985
    vertex 346.57112172628786 21.767138754463303 23.791599999999985
    vertex 340.1649724426005 14.525202636762383 23.791599999999985
  endloop
endfacet
facet normal 0.0 0.0 -1.0
  outer loop
    vertex 340.1649724426005 14.525202636762383 23.791599999999985
    vertex 346.57112172628786 21.767138754463303 23.791599999999985
    vertex 341.9572710099752 14.525202636762383 23.791599999999985
  endloop
endfacet
facet normal 0.0 0.0 -1.0
  outer loop
    vertex 341.9572710099752 14.525202636762383 23.791599999999985
    vertex 346.57112172628786 21.767138754463303 23.791599999999985
    vertex 343.88291872628787 15.392138754463328 23.791599999999985
  endloop
endfacet
facet normal 0.0 0.0 -1.0
  outer loop
    vertex 341.9572710099752 14.525202636762383 23.791599999999985
    vertex 343.88291872628787 15.392138754463328 23.791599999999985
    vertex 343.40727100997526 13.471715971154584 23.791599999999985
  endloop
endfacet
facet normal 0.0 0.0 -1.0
  outer loop
    vertex 343.88291872628787 15.392138754463328 23.791599999999985
    vertex 346.57112172628786 21.767138754463303 23.791599999999985
    vertex 346.57112172628786 15.392138754463328 23.791599999999985
  endloop
endfacet
facet normal 0.0 0.0 -1.0
  outer loop
    vertex 343.88291872628787 12.007822825164224 23.791599999999985
    vertex 343.40727100997526 13.471715971154584 23.791599999999985
    vertex 343.88291872628787 15.392138754463328 23.791599999999985
  endloop
endfacet
facet normal 0.0 0.0 -1.0
  outer loop
    vertex 334.06112172628787 1.767138751471921 23.791599999999985
    vertex 338.7149724426005 10.062561507858309 23.791599999999985
    vertex 346.57112172628786 1.76713875436268 23.791599999999985
  endloop
endfacet
facet normal 0.0 0.0 -1.0
  outer loop
    vertex 338.7149724426005 10.062561507858309 23.791599999999985
    vertex 334.06112172628787 1.767138751471921 23.791599999999985
    vertex 338.1611217262879 11.76713873950649 23.791599999999985
  endloop
endfacet
facet normal 0.0 0.0 -1.0
  outer loop
    vertex 346.57112172628786 1.76713875436268 23.791599999999985
    vertex 338.7149724426005 10.062561507858309 23.791599999999985
    vertex 340.1649724426005 9.00907484225051 23.791599999999985
  endloop
endfacet
facet normal 0.0 0.0 -1.0
  outer loop
    vertex 346.57112172628786 1.76713875436268 23.791599999999985
    vertex 340.1649724426005 9.00907484225051 23.791599999999985
    vertex 341.9572710099752 9.00907484225051 23.791599999999985
  endloop
endfacet
facet normal 0.0 0.0 -1.0
  outer loop
    vertex 346.57112172628786 1.76713875436268 23.791599999999985
    vertex 341.9572710099752 9.00907484225051 23.791599999999985
    vertex 343.88291872628787 8.142138754463312 23.791599999999985
  endloop
endfacet
facet normal 0.0 0.0 -1.0
  outer loop
    vertex 343.88291872628787 8.142138754463312 23.791599999999985
    vertex 341.9572710099752 9.00907484225051 23.791599999999985
    vertex 343.40727100997526 10.062561507858309 23.791599999999985
  endloop
endfacet
facet normal 0.0 0.0 -1.0
  outer loop
    vertex 343.88291872628787 8.142138754463312 23.791599999999985
    vertex 343.40727100997526 10.062561507858309 23.791599999999985
    vertex 343.88291872628787 11.526454653848749 23.791599999999985
  endloop
endfacet
facet normal 0.0 0.0 -1.0
  outer loop
    vertex 346.57112172628786 1.76713875436268 23.791599999999985
    vertex 343.88291872628787 8.142138754463312 23.791599999999985
    vertex 346.57112172628786 8.142138754463312 23.791599999999985
  endloop
endfacet
facet normal 0.0 1.0 0.0
  outer loop
    vertex 360.1649724426006 9.00907484225051 27.791600000000024
    vertex 361.9572710099752 9.00907484225051 23.79939999999998
    vertex 360.1649724426006 9.00907484225051 23.79939999999998
  endloop
endfacet
facet normal 0.0 1.0 0.0
  outer loop
    vertex 361.9572710099752 9.00907484225051 23.79939999999998
    vertex 360.1649724426006 9.00907484225051 27.791600000000024
    vertex 361.9572710099752 9.00907484225051 27.791600000000024
  endloop
endfacet
facet normal 0.5555702330196242 0.0 -0.8314696123025305
  outer loop
    vertex 349.3428731149686 8.142138754463312 27.9398191009757
    vertex 347.8862122787603 1.76713875436268 26.9665094475276
    vertex 347.8862122787603 8.142138754463312 26.9665094475276
  endloop
endfacet
facet normal 0.5555702330196242 0.0 -0.8314696123025305
  outer loop
    vertex 347.8862122787603 1.76713875436268 26.9665094475276
    vertex 349.3428731149686 8.142138754463312 27.9398191009757
    vertex 349.3428731149686 1.76713875436268 27.9398191009757
  endloop
endfacet
facet normal -0.5555702330196123 0.0 -0.8314696123025385
  outer loop
    vertex 354.2360311738155 8.142138754463312 26.9665094475276
    vertex 352.77937033760713 1.76713875436268 27.9398191009757
    vertex 352.77937033760713 8.142138754463312 27.9398191009757
  endloop
endfacet
facet normal -0.5555702330196123 0.0 -0.8314696123025385
  outer loop
    vertex 352.77937033760713 1.76713875436268 27.9398191009757
    vertex 354.2360311738155 8.142138754463312 26.9665094475276
    vertex 354.2360311738155 1.76713875436268 26.9665094475276
  endloop
endfacet
facet normal -0.19509032201610452 0.0 -0.9807852804032353
  outer loop
    vertex 352.77937033760713 8.142138754463312 27.9398191009757
    vertex 351.06112172628787 1.76713875436268 28.281599999999983
    vertex 351.06112172628787 8.142138754463312 28.281599999999983
  endloop
endfacet
facet normal -0.19509032201610452 0.0 -0.9807852804032353
  outer loop
    vertex 351.06112172628787 1.76713875436268 28.281599999999983
    vertex 352.77937033760713 8.142138754463312 27.9398191009757
    vertex 352.77937033760713 1.76713875436268 27.9398191009757
  endloop
endfacet
facet normal -0.9807852804032253 0.0 -0.195090322016154
  outer loop
    vertex 355.20934082726353 8.142138754463312 25.50984861131926
    vertex 355.55112172628793 1.76713875436268 23.791599999999985
    vertex 355.20934082726353 1.76713875436268 25.50984861131926
  endloop
endfacet
facet normal -0.9807852804032253 0.0 -0.195090322016154
  outer loop
    vertex 355.55112172628793 1.76713875436268 23.791599999999985
    vertex 355.20934082726353 8.142138754463312 25.50984861131926
    vertex 355.55112172628793 8.142138754463312 23.791599999999985
  endloop
endfacet
facet normal -0.8314696123025505 0.0 -0.5555702330195945
  outer loop
    vertex 354.2360311738155 8.142138754463312 26.9665094475276
    vertex 355.20934082726353 1.76713875436268 25.50984861131926
    vertex 354.2360311738155 1.76713875436268 26.9665094475276
  endloop
endfacet
facet normal -0.8314696123025505 0.0 -0.5555702330195945
  outer loop
    vertex 355.20934082726353 1.76713875436268 25.50984861131926
    vertex 354.2360311738155 8.142138754463312 26.9665094475276
    vertex 355.20934082726353 8.142138754463312 25.50984861131926
  endloop
endfacet
facet normal 0.8314696123025385 0.0 -0.5555702330196123
  outer loop
    vertex 346.9129026253122 8.142138754463312 25.50984861131926
    vertex 347.8862122787603 1.76713875436268 26.9665094475276
    vertex 346.9129026253122 1.76713875436268 25.50984861131926
  endloop
endfacet
facet normal 0.8314696123025385 0.0 -0.5555702330196123
  outer loop
    vertex 347.8862122787603 1.76713875436268 26.9665094475276
    vertex 346.9129026253122 8.142138754463312 25.50984861131926
    vertex 347.8862122787603 8.142138754463312 26.9665094475276
  endloop
endfacet
facet normal 0.5000000000000068 -0.8660254037844347 0.0
  outer loop
    vertex 361.06112172628787 16.963291162213093 32.79159999999997
    vertex 356.56112172628787 14.365214950859746 27.791600000000024
    vertex 361.06112172628787 16.963291162213093 27.791600000000024
  endloop
endfacet
facet normal 0.5000000000000068 -0.8660254037844347 0.0
  outer loop
    vertex 356.56112172628787 14.365214950859746 27.791600000000024
    vertex 361.06112172628787 16.963291162213093 32.79159999999997
    vertex 356.56112172628787 14.365214950859746 32.79159999999997
  endloop
endfacet
facet normal 3.75911901042939e-11 -1.0 -1.3547435068567318e-09
  outer loop
    vertex 368.06112172628787 1.7671387395064648 32.79159999999997
    vertex 355.55112172628793 1.76713875436268 23.791599999999985
    vertex 368.06112172628787 1.7671387544632964 23.791599999999985
  endloop
endfacet
facet normal 3.75911901042939e-11 -1.0 -1.3547435068567318e-09
  outer loop
    vertex 355.55112172628793 1.76713875436268 23.791599999999985
    vertex 368.06112172628787 1.7671387395064648 32.79159999999997
    vertex 355.20934082726353 1.76713875436268 25.50984861131926
  endloop
endfacet
facet normal 3.75911901042939e-11 -1.0 -1.3547435068567318e-09
  outer loop
    vertex 355.20934082726353 1.76713875436268 25.50984861131926
    vertex 368.06112172628787 1.7671387395064648 32.79159999999997
    vertex 354.2360311738155 1.76713875436268 26.9665094475276
  endloop
endfacet
facet normal 3.75911901042939e-11 -1.0 -1.3547435068567318e-09
  outer loop
    vertex 354.2360311738155 1.76713875436268 26.9665094475276
    vertex 368.06112172628787 1.7671387395064648 32.79159999999997
    vertex 352.77937033760713 1.76713875436268 27.9398191009757
  endloop
endfacet
facet normal 3.75911901042939e-11 -1.0 -1.3547435068567318e-09
  outer loop
    vertex 352.77937033760713 1.76713875436268 27.9398191009757
    vertex 368.06112172628787 1.7671387395064648 32.79159999999997
    vertex 351.06112172628787 1.76713875436268 28.281599999999983
  endloop
endfacet
facet normal 3.75911901042939e-11 -1.0 -1.3547435068567318e-09
  outer loop
    vertex 346.9129026253122 1.76713875436268 25.50984861131926
    vertex 334.06112172628787 1.767138751471921 23.791599999999985
    vertex 346.57112172628786 1.76713875436268 23.791599999999985
  endloop
endfacet
facet normal 3.75911901042939e-11 -1.0 -1.3547435068567318e-09
  outer loop
    vertex 334.06112172628787 1.767138751471921 23.791599999999985
    vertex 346.9129026253122 1.76713875436268 25.50984861131926
    vertex 334.06112172628787 1.7671387395064648 32.79159999999997
  endloop
endfacet
facet normal 3.75911901042939e-11 -1.0 -1.3547435068567318e-09
  outer loop
    vertex 334.06112172628787 1.7671387395064648 32.79159999999997
    vertex 346.9129026253122 1.76713875436268 25.50984861131926
    vertex 347.8862122787603 1.76713875436268 26.9665094475276
  endloop
endfacet
facet normal 3.75911901042939e-11 -1.0 -1.3547435068567318e-09
  outer loop
    vertex 334.06112172628787 1.7671387395064648 32.79159999999997
    vertex 347.8862122787603 1.76713875436268 26.9665094475276
    vertex 349.3428731149686 1.76713875436268 27.9398191009757
  endloop
endfacet
facet normal 3.75911901042939e-11 -1.0 -1.3547435068567318e-09
  outer loop
    vertex 334.06112172628787 1.7671387395064648 32.79159999999997
    vertex 349.3428731149686 1.76713875436268 27.9398191009757
    vertex 351.06112172628787 1.76713875436268 28.281599999999983
  endloop
endfacet
facet normal 3.75911901042939e-11 -1.0 -1.3547435068567318e-09
  outer loop
    vertex 334.06112172628787 1.7671387395064648 32.79159999999997
    vertex 351.06112172628787 1.76713875436268 28.281599999999983
    vertex 368.06112172628787 1.7671387395064648 32.79159999999997
  endloop
endfacet
facet normal 0.19509032201610452 0.0 -0.9807852804032353
  outer loop
    vertex 351.06112172628787 8.142138754463312 28.281599999999983
    vertex 349.3428731149686 1.76713875436268 27.9398191009757
    vertex 349.3428731149686 8.142138754463312 27.9398191009757
  endloop
endfacet
facet normal 0.19509032201610452 0.0 -0.9807852804032353
  outer loop
    vertex 349.3428731149686 1.76713875436268 27.9398191009757
    vertex 351.06112172628787 8.142138754463312 28.281599999999983
    vertex 351.06112172628787 1.76713875436268 28.281599999999983
  endloop
endfacet
facet normal 0.9807852804032302 0.0 -0.19509032201612925
  outer loop
    vertex 346.57112172628786 8.142138754463312 23.791599999999985
    vertex 346.9129026253122 1.76713875436268 25.50984861131926
    vertex 346.57112172628786 1.76713875436268 23.791599999999985
  endloop
endfacet
facet normal 0.9807852804032302 0.0 -0.19509032201612925
  outer loop
    vertex 346.9129026253122 1.76713875436268 25.50984861131926
    vertex 346.57112172628786 8.142138754463312 23.791599999999985
    vertex 346.9129026253122 8.142138754463312 25.50984861131926
  endloop
endfacet
facet normal -0.4999999999999967 0.8660254037844407 0.0
  outer loop
    vertex 341.0611217262878 6.5709863167998455 32.79159999999997
    vertex 345.56112172628787 9.169062528153146 27.791600000000024
    vertex 341.0611217262878 6.5709863167998455 27.791600000000024
  endloop
endfacet
facet normal -0.4999999999999967 0.8660254037844407 0.0
  outer loop
    vertex 345.56112172628787 9.169062528153146 27.791600000000024
    vertex 341.0611217262878 6.5709863167998455 32.79159999999997
    vertex 345.56112172628787 9.169062528153146 32.79159999999997
  endloop
endfacet
facet normal 0.5000000000000003 0.8660254037844385 0.0
  outer loop
    vertex 336.56112172628787 9.169062528153146 32.79159999999997
    vertex 341.0611217262878 6.5709863167998455 27.791600000000024
    vertex 336.56112172628787 9.169062528153146 27.791600000000024
  endloop
endfacet
facet normal 0.5000000000000003 0.8660254037844385 0.0
  outer loop
    vertex 341.0611217262878 6.5709863167998455 27.791600000000024
    vertex 336.56112172628787 9.169062528153146 32.79159999999997
    vertex 341.0611217262878 6.5709863167998455 32.79159999999997
  endloop
endfacet
facet normal 0.5000000000000068 -0.8660254037844347 0.0
  outer loop
    vertex 341.0611217262878 16.963291162213093 32.79159999999997
    vertex 336.56112172628787 14.365214950859746 27.791600000000024
    vertex 341.0611217262878 16.963291162213093 27.791600000000024
  endloop
endfacet
facet normal 0.5000000000000068 -0.8660254037844347 0.0
  outer loop
    vertex 336.56112172628787 14.365214950859746 27.791600000000024
    vertex 341.0611217262878 16.963291162213093 32.79159999999997
    vertex 336.56112172628787 14.365214950859746 32.79159999999997
  endloop
endfacet
facet normal -1.0 0.0 0.0
  outer loop
    vertex 345.56112172628787 14.365214950859746 32.79159999999997
    vertex 345.56112172628787 9.169062528153146 27.791600000000024
    vertex 345.56112172628787 9.169062528153146 32.79159999999997
  endloop
endfacet
facet normal -1.0 0.0 0.0
  outer loop
    vertex 345.56112172628787 9.169062528153146 27.791600000000024
    vertex 345.56112172628787 14.365214950859746 32.79159999999997
    vertex 345.56112172628787 14.365214950859746 27.791600000000024
  endloop
endfacet
facet normal 1.0 0.0 0.0
  outer loop
    vertex 336.56112172628787 14.365214950859746 27.791600000000024
    vertex 336.56112172628787 9.169062528153146 32.79159999999997
    vertex 336.56112172628787 9.169062528153146 27.791600000000024
  endloop
endfacet
facet normal 1.0 0.0 0.0
  outer loop
    vertex 336.56112172628787 9.169062528153146 32.79159999999997
    vertex 336.56112172628787 14.365214950859746 27.791600000000024
    vertex 336.56112172628787 14.365214950859746 32.79159999999997
  endloop
endfacet
facet normal -0.4999999999999929 0.8660254037844428 0.0
  outer loop
    vertex 361.06112172628787 6.5709863167998455 32.79159999999997
    vertex 365.5611217262879 9.169062528153146 27.791600000000024
    vertex 361.06112172628787 6.5709863167998455 27.791600000000024
  endloop
endfacet
facet normal -0.4999999999999929 0.8660254037844428 0.0
  outer loop
    vertex 365.5611217262879 9.169062528153146 27.791600000000024
    vertex 361.06112172628787 6.5709863167998455 32.79159999999997
    vertex 365.5611217262879 9.169062528153146 32.79159999999997
  endloop
endfacet
facet normal -0.5000000000000032 -0.8660254037844368 0.0
  outer loop
    vertex 345.56112172628787 14.365214950859746 32.79159999999997
    vertex 341.0611217262878 16.963291162213093 27.791600000000024
    vertex 345.56112172628787 14.365214950859746 27.791600000000024
  endloop
endfacet
facet normal -0.5000000000000032 -0.8660254037844368 0.0
  outer loop
    vertex 341.0611217262878 16.963291162213093 27.791600000000024
    vertex 345.56112172628787 14.365214950859746 32.79159999999997
    vertex 341.0611217262878 16.963291162213093 32.79159999999997
  endloop
endfacet
facet normal -0.49999999999999944 -0.866025403784439 0.0
  outer loop
    vertex 365.5611217262879 14.365214950859746 32.79159999999997
    vertex 361.06112172628787 16.963291162213093 27.791600000000024
    vertex 365.5611217262879 14.365214950859746 27.791600000000024
  endloop
endfacet
facet normal -0.49999999999999944 -0.866025403784439 0.0
  outer loop
    vertex 361.06112172628787 16.963291162213093 27.791600000000024
    vertex 365.5611217262879 14.365214950859746 32.79159999999997
    vertex 361.06112172628787 16.963291162213093 32.79159999999997
  endloop
endfacet
facet normal 0.0 0.0 1.0
  outer loop
    vertex 336.56112172628787 9.169062528153146 27.791600000000024
    vertex 338.7149724426005 10.062561507858309 27.791600000000024
    vertex 336.56112172628787 14.365214950859746 27.791600000000024
  endloop
endfacet
facet normal 0.0 0.0 1.0
  outer loop
    vertex 338.7149724426005 10.062561507858309 27.791600000000024
    vertex 336.56112172628787 9.169062528153146 27.791600000000024
    vertex 341.0611217262878 6.5709863167998455 27.791600000000024
  endloop
endfacet
facet normal 0.0 0.0 1.0
  outer loop
    vertex 336.56112172628787 14.365214950859746 27.791600000000024
    vertex 338.7149724426005 10.062561507858309 27.791600000000024
    vertex 338.1611217262879 11.76713873950649 27.791600000000024
  endloop
endfacet
facet normal 0.0 0.0 1.0
  outer loop
    vertex 338.7149724426005 10.062561507858309 27.791600000000024
    vertex 341.0611217262878 6.5709863167998455 27.791600000000024
    vertex 340.1649724426005 9.00907484225051 27.791600000000024
  endloop
endfacet
facet normal 0.0 0.0 1.0
  outer loop
    vertex 340.1649724426005 9.00907484225051 27.791600000000024
    vertex 341.0611217262878 6.5709863167998455 27.791600000000024
    vertex 341.9572710099752 9.00907484225051 27.791600000000024
  endloop
endfacet
facet normal 0.0 0.0 1.0
  outer loop
    vertex 341.9572710099752 9.00907484225051 27.791600000000024
    vertex 341.0611217262878 6.5709863167998455 27.791600000000024
    vertex 345.56112172628787 9.169062528153146 27.791600000000024
  endloop
endfacet
facet normal 0.0 0.0 1.0
  outer loop
    vertex 341.9572710099752 9.00907484225051 27.791600000000024
    vertex 345.56112172628787 9.169062528153146 27.791600000000024
    vertex 343.40727100997526 10.062561507858309 27.791600000000024
  endloop
endfacet
facet normal 0.0 0.0 1.0
  outer loop
    vertex 343.40727100997526 10.062561507858309 27.791600000000024
    vertex 345.56112172628787 9.169062528153146 27.791600000000024
    vertex 343.88291872628787 11.526454653848749 27.791600000000024
  endloop
endfacet
facet normal 0.0 0.0 1.0
  outer loop
    vertex 343.88291872628787 11.526454653848749 27.791600000000024
    vertex 345.56112172628787 9.169062528153146 27.791600000000024
    vertex 343.88291872628787 12.007822825164224 27.791600000000024
  endloop
endfacet
facet normal 0.0 0.0 1.0
  outer loop
    vertex 336.56112172628787 14.365214950859746 27.791600000000024
    vertex 338.7149724426005 13.471715971154584 27.791600000000024
    vertex 341.0611217262878 16.963291162213093 27.791600000000024
  endloop
endfacet
facet normal 0.0 0.0 1.0
  outer loop
    vertex 338.7149724426005 13.471715971154584 27.791600000000024
    vertex 336.56112172628787 14.365214950859746 27.791600000000024
    vertex 338.1611217262879 11.76713873950649 27.791600000000024
  endloop
endfacet
facet normal 0.0 0.0 1.0
  outer loop
    vertex 341.0611217262878 16.963291162213093 27.791600000000024
    vertex 338.7149724426005 13.471715971154584 27.791600000000024
    vertex 340.1649724426005 14.525202636762383 27.791600000000024
  endloop
endfacet
facet normal 0.0 0.0 1.0
  outer loop
    vertex 341.0611217262878 16.963291162213093 27.791600000000024
    vertex 340.1649724426005 14.525202636762383 27.791600000000024
    vertex 341.9572710099752 14.525202636762383 27.791600000000024
  endloop
endfacet
facet normal 0.0 0.0 1.0
  outer loop
    vertex 341.0611217262878 16.963291162213093 27.791600000000024
    vertex 341.9572710099752 14.525202636762383 27.791600000000024
    vertex 345.56112172628787 14.365214950859746 27.791600000000024
  endloop
endfacet
facet normal 0.0 0.0 1.0
  outer loop
    vertex 345.56112172628787 14.365214950859746 27.791600000000024
    vertex 341.9572710099752 14.525202636762383 27.791600000000024
    vertex 343.40727100997526 13.471715971154584 27.791600000000024
  endloop
endfacet
facet normal 0.0 0.0 1.0
  outer loop
    vertex 345.56112172628787 14.365214950859746 27.791600000000024
    vertex 343.40727100997526 13.471715971154584 27.791600000000024
    vertex 343.88291872628787 12.007822825164224 27.791600000000024
  endloop
endfacet
facet normal 0.0 0.0 1.0
  outer loop
    vertex 345.56112172628787 14.365214950859746 27.791600000000024
    vertex 343.88291872628787 12.007822825164224 27.791600000000024
    vertex 345.56112172628787 9.169062528153146 27.791600000000024
  endloop
endfacet
facet normal 1.0 0.0 0.0
  outer loop
    vertex 356.56112172628787 14.365214950859746 27.791600000000024
    vertex 356.56112172628787 9.169062528153146 32.79159999999997
    vertex 356.56112172628787 9.169062528153146 27.791600000000024
  endloop
endfacet
facet normal 1.0 0.0 0.0
  outer loop
    vertex 356.56112172628787 9.169062528153146 32.79159999999997
    vertex 356.56112172628787 14.365214950859746 27.791600000000024
    vertex 356.56112172628787 14.365214950859746 32.79159999999997
  endloop
endfacet
facet normal 0.0 0.0 1.0
  outer loop
    vertex 334.06112172628787 1.7671387395064648 32.79159999999997
    vertex 336.56112172628787 9.169062528153146 32.79159999999997
    vertex 334.06112172628787 21.767138739506475 32.79159999999997
  endloop
endfacet
facet normal 0.0 0.0 1.0
  outer loop
    vertex 336.56112172628787 9.169062528153146 32.79159999999997
    vertex 334.06112172628787 1.7671387395064648 32.79159999999997
    vertex 341.0611217262878 6.5709863167998455 32.79159999999997
  endloop
endfacet
facet normal 0.0 0.0 1.0
  outer loop
    vertex 341.0611217262878 6.5709863167998455 32.79159999999997
    vertex 334.06112172628787 1.7671387395064648 32.79159999999997
    vertex 368.06112172628787 1.7671387395064648 32.79159999999997
  endloop
endfacet
facet normal 0.0 0.0 1.0
  outer loop
    vertex 341.0611217262878 6.5709863167998455 32.79159999999997
    vertex 368.06112172628787 1.7671387395064648 32.79159999999997
    vertex 345.56112172628787 9.169062528153146 32.79159999999997
  endloop
endfacet
facet normal 0.0 0.0 1.0
  outer loop
    vertex 345.56112172628787 9.169062528153146 32.79159999999997
    vertex 368.06112172628787 1.7671387395064648 32.79159999999997
    vertex 345.56112172628787 14.365214950859746 32.79159999999997
  endloop
endfacet
facet normal 0.0 0.0 1.0
  outer loop
    vertex 345.56112172628787 14.365214950859746 32.79159999999997
    vertex 368.06112172628787 1.7671387395064648 32.79159999999997
    vertex 356.56112172628787 9.169062528153146 32.79159999999997
  endloop
endfacet
facet normal 0.0 0.0 1.0
  outer loop
    vertex 356.56112172628787 9.169062528153146 32.79159999999997
    vertex 368.06112172628787 1.7671387395064648 32.79159999999997
    vertex 361.06112172628787 6.5709863167998455 32.79159999999997
  endloop
endfacet
facet normal 0.0 0.0 1.0
  outer loop
    vertex 361.06112172628787 6.5709863167998455 32.79159999999997
    vertex 368.06112172628787 1.7671387395064648 32.79159999999997
    vertex 365.5611217262879 9.169062528153146 32.79159999999997
  endloop
endfacet
facet normal 0.0 0.0 1.0
  outer loop
    vertex 365.5611217262879 9.169062528153146 32.79159999999997
    vertex 368.06112172628787 1.7671387395064648 32.79159999999997
    vertex 365.5611217262879 14.365214950859746 32.79159999999997
  endloop
endfacet
facet normal 0.0 0.0 1.0
  outer loop
    vertex 334.06112172628787 21.767138739506475 32.79159999999997
    vertex 341.0611217262878 16.963291162213093 32.79159999999997
    vertex 368.06112172628787 21.767138739506475 32.79159999999997
  endloop
endfacet
facet normal 0.0 0.0 1.0
  outer loop
    vertex 341.0611217262878 16.963291162213093 32.79159999999997
    vertex 334.06112172628787 21.767138739506475 32.79159999999997
    vertex 336.56112172628787 14.365214950859746 32.79159999999997
  endloop
endfacet
facet normal 0.0 0.0 1.0
  outer loop
    vertex 336.56112172628787 14.365214950859746 32.79159999999997
    vertex 334.06112172628787 21.767138739506475 32.79159999999997
    vertex 336.56112172628787 9.169062528153146 32.79159999999997
  endloop
endfacet
facet normal 0.0 0.0 1.0
  outer loop
    vertex 368.06112172628787 21.767138739506475 32.79159999999997
    vertex 341.0611217262878 16.963291162213093 32.79159999999997
    vertex 345.56112172628787 14.365214950859746 32.79159999999997
  endloop
endfacet
facet normal 0.0 0.0 1.0
  outer loop
    vertex 368.06112172628787 21.767138739506475 32.79159999999997
    vertex 345.56112172628787 14.365214950859746 32.79159999999997
    vertex 356.56112172628787 14.365214950859746 32.79159999999997
  endloop
endfacet
facet normal 0.0 0.0 1.0
  outer loop
    vertex 356.56112172628787 14.365214950859746 32.79159999999997
    vertex 345.56112172628787 14.365214950859746 32.79159999999997
    vertex 356.56112172628787 9.169062528153146 32.79159999999997
  endloop
endfacet
facet normal 0.0 0.0 1.0
  outer loop
    vertex 368.06112172628787 21.767138739506475 32.79159999999997
    vertex 356.56112172628787 14.365214950859746 32.79159999999997
    vertex 361.06112172628787 16.963291162213093 32.79159999999997
  endloop
endfacet
facet normal 0.0 0.0 1.0
  outer loop
    vertex 368.06112172628787 21.767138739506475 32.79159999999997
    vertex 361.06112172628787 16.963291162213093 32.79159999999997
    vertex 365.5611217262879 14.365214950859746 32.79159999999997
  endloop
endfacet
facet normal 0.0 0.0 1.0
  outer loop
    vertex 368.06112172628787 21.767138739506475 32.79159999999997
    vertex 365.5611217262879 14.365214950859746 32.79159999999997
    vertex 368.06112172628787 1.7671387395064648 32.79159999999997
  endloop
endfacet
facet normal 0.0 0.0 1.0
  outer loop
    vertex 356.56112172628787 9.169062528153146 27.791600000000024
    vertex 358.7149724426005 10.062561507858309 27.791600000000024
    vertex 356.56112172628787 14.365214950859746 27.791600000000024
  endloop
endfacet
facet normal 0.0 0.0 1.0
  outer loop
    vertex 358.7149724426005 10.062561507858309 27.791600000000024
    vertex 356.56112172628787 9.169062528153146 27.791600000000024
    vertex 361.06112172628787 6.5709863167998455 27.791600000000024
  endloop
endfacet
facet normal 0.0 0.0 1.0
  outer loop
    vertex 356.56112172628787 14.365214950859746 27.791600000000024
    vertex 358.7149724426005 10.062561507858309 27.791600000000024
    vertex 358.23931238777806 11.526500891261618 27.791600000001473
  endloop
endfacet
facet normal 0.0 0.0 1.0
  outer loop
    vertex 358.7149724426005 10.062561507858309 27.791600000000024
    vertex 361.06112172628787 6.5709863167998455 27.791600000000024
    vertex 360.1649724426006 9.00907484225051 27.791600000000024
  endloop
endfacet
facet normal 0.0 0.0 1.0
  outer loop
    vertex 360.1649724426006 9.00907484225051 27.791600000000024
    vertex 361.06112172628787 6.5709863167998455 27.791600000000024
    vertex 361.9572710099752 9.00907484225051 27.791600000000024
  endloop
endfacet
facet normal 0.0 0.0 1.0
  outer loop
    vertex 361.9572710099752 9.00907484225051 27.791600000000024
    vertex 361.06112172628787 6.5709863167998455 27.791600000000024
    vertex 365.5611217262879 9.169062528153146 27.791600000000024
  endloop
endfacet
facet normal 0.0 0.0 1.0
  outer loop
    vertex 361.9572710099752 9.00907484225051 27.791600000000024
    vertex 365.5611217262879 9.169062528153146 27.791600000000024
    vertex 363.40727100997526 10.062561507858309 27.791600000000024
  endloop
endfacet
facet normal 0.0 0.0 1.0
  outer loop
    vertex 363.40727100997526 10.062561507858309 27.791600000000024
    vertex 365.5611217262879 9.169062528153146 27.791600000000024
    vertex 363.9611217262879 11.76713873950649 27.791600000000024
  endloop
endfacet
facet normal 0.0 0.0 1.0
  outer loop
    vertex 356.56112172628787 14.365214950859746 27.791600000000024
    vertex 358.7149724426005 13.471715971154584 27.791600000000024
    vertex 361.06112172628787 16.963291162213093 27.791600000000024
  endloop
endfacet
facet normal 0.0 0.0 1.0
  outer loop
    vertex 358.7149724426005 13.471715971154584 27.791600000000024
    vertex 356.56112172628787 14.365214950859746 27.791600000000024
    vertex 358.2393134658907 12.00777623745117 27.791600000000024
  endloop
endfacet
facet normal 0.0 0.0 1.0
  outer loop
    vertex 358.2393134658907 12.00777623745117 27.791600000000024
    vertex 356.56112172628787 14.365214950859746 27.791600000000024
    vertex 358.23931238777806 11.526500891261618 27.791600000001473
  endloop
endfacet
facet normal 0.0 0.0 1.0
  outer loop
    vertex 361.06112172628787 16.963291162213093 27.791600000000024
    vertex 358.7149724426005 13.471715971154584 27.791600000000024
    vertex 360.1649724426006 14.525202636762383 27.791600000000024
  endloop
endfacet
facet normal 0.0 0.0 1.0
  outer loop
    vertex 361.06112172628787 16.963291162213093 27.791600000000024
    vertex 360.1649724426006 14.525202636762383 27.791600000000024
    vertex 361.9572710099752 14.525202636762383 27.791600000000024
  endloop
endfacet
facet normal 0.0 0.0 1.0
  outer loop
    vertex 361.06112172628787 16.963291162213093 27.791600000000024
    vertex 361.9572710099752 14.525202636762383 27.791600000000024
    vertex 365.5611217262879 14.365214950859746 27.791600000000024
  endloop
endfacet
facet normal 0.0 0.0 1.0
  outer loop
    vertex 365.5611217262879 14.365214950859746 27.791600000000024
    vertex 361.9572710099752 14.525202636762383 27.791600000000024
    vertex 363.4072710099752 13.471715971154584 27.791600000000024
  endloop
endfacet
facet normal 0.0 0.0 1.0
  outer loop
    vertex 365.5611217262879 14.365214950859746 27.791600000000024
    vertex 363.4072710099752 13.471715971154584 27.791600000000024
    vertex 363.9611217262879 11.76713873950649 27.791600000000024
  endloop
endfacet
facet normal 0.0 0.0 1.0
  outer loop
    vertex 365.5611217262879 14.365214950859746 27.791600000000024
    vertex 363.9611217262879 11.76713873950649 27.791600000000024
    vertex 365.5611217262879 9.169062528153146 27.791600000000024
  endloop
endfacet
facet normal 0.5000000000000003 0.8660254037844385 0.0
  outer loop
    vertex 356.56112172628787 9.169062528153146 32.79159999999997
    vertex 361.06112172628787 6.5709863167998455 27.791600000000024
    vertex 356.56112172628787 9.169062528153146 27.791600000000024
  endloop
endfacet
facet normal 0.5000000000000003 0.8660254037844385 0.0
  outer loop
    vertex 361.06112172628787 6.5709863167998455 27.791600000000024
    vertex 356.56112172628787 9.169062528153146 32.79159999999997
    vertex 361.06112172628787 6.5709863167998455 32.79159999999997
  endloop
endfacet
facet normal 0.8660254037844397 2.5472467198474458e-17 -0.4999999999999985
  outer loop
    vertex 343.88291872628787 11.526454653848749 23.791599999999985
    vertex 347.3470202262879 8.142138754463312 29.791599800575554
    vertex 343.88291872628787 8.142138754463312 23.791599999999985
  endloop
endfacet
facet normal 0.8660254037844397 2.5472467198474458e-17 -0.4999999999999985
  outer loop
    vertex 347.3470202262879 8.142138754463312 29.791599800575554
    vertex 343.88291872628787 11.526454653848749 23.791599999999985
    vertex 347.3470202262879 15.392138754463328 29.791599800575554
  endloop
endfacet
facet normal 0.8660254037844397 2.5472467198474458e-17 -0.4999999999999985
  outer loop
    vertex 347.3470202262879 15.392138754463328 29.791599800575554
    vertex 343.88291872628787 11.526454653848749 23.791599999999985
    vertex 343.88291872628787 12.007822825164224 23.791599999999985
  endloop
endfacet
facet normal 0.8660254037844397 2.5472467198474458e-17 -0.4999999999999985
  outer loop
    vertex 347.3470202262879 15.392138754463328 29.791599800575554
    vertex 343.88291872628787 12.007822825164224 23.791599999999985
    vertex 343.88291872628787 15.392138754463328 23.791599999999985
  endloop
endfacet
facet normal -1.0 0.0 0.0
  outer loop
    vertex 365.5611217262879 14.365214950859746 32.79159999999997
    vertex 365.5611217262879 9.169062528153146 27.791600000000024
    vertex 365.5611217262879 9.169062528153146 32.79159999999997
  endloop
endfacet
facet normal -1.0 0.0 0.0
  outer loop
    vertex 365.5611217262879 9.169062528153146 27.791600000000024
    vertex 365.5611217262879 14.365214950859746 32.79159999999997
    vertex 365.5611217262879 14.365214950859746 27.791600000000024
  endloop
endfacet
facet normal 0.9510575123742302 0.3090139287413701 6.037658064074685e-07
  outer loop
    vertex 358.2393169725511 11.52650238094468 23.792150565724416
    vertex 358.7149724426005 10.062561507858309 27.791600000000024
    vertex 358.7149724426005 10.062561507858309 23.79939999999998
  endloop
endfacet
facet normal 0.9510575123742302 0.3090139287413701 6.037658064074685e-07
  outer loop
    vertex 358.7149724426005 10.062561507858309 27.791600000000024
    vertex 358.2393169725511 11.52650238094468 23.792150565724416
    vertex 358.23931238777806 11.526500891261618 27.791600000001473
  endloop
endfacet
facet normal -0.8660157135089478 -7.125486669646245e-14 -0.5000167836738963
  outer loop
    vertex 354.77522322628784 15.392138754463328 29.791599800575554
    vertex 358.2393247262878 8.142138754463312 23.791599999999985
    vertex 354.77522322628784 8.142138754463312 29.791599800575554
  endloop
endfacet
facet normal -0.8660157135089478 -7.125486669646245e-14 -0.5000167836738963
  outer loop
    vertex 358.2393247262878 8.142138754463312 23.791599999999985
    vertex 354.77522322628784 15.392138754463328 29.791599800575554
    vertex 358.2393169725511 11.52650238094468 23.792150565724416
  endloop
endfacet
facet normal -0.8660157135089478 -7.125486669646245e-14 -0.5000167836738963
  outer loop
    vertex 358.2393169725511 11.52650238094468 23.792150565724416
    vertex 354.77522322628784 15.392138754463328 29.791599800575554
    vertex 358.2393169725511 12.007775098068134 23.792150565724416
  endloop
endfacet
facet normal -0.8660157135089478 -7.125486669646245e-14 -0.5000167836738963
  outer loop
    vertex 358.2393169725511 12.007775098068134 23.792150565724416
    vertex 354.77522322628784 15.392138754463328 29.791599800575554
    vertex 358.2393247262878 15.392138754463328 23.791599999999985
  endloop
endfacet
facet normal 0.9510575096403477 -0.3090139371559864 2.3722011781099977e-07
  outer loop
    vertex 358.3228673165262 12.264932057385733 23.793423998607835
    vertex 358.2393134658907 12.00777623745117 27.791600000000024
    vertex 358.2393169725511 12.007775098068134 23.792150565724416
  endloop
endfacet
facet normal 0.9510575096403477 -0.3090139371559864 2.3722011781099977e-07
  outer loop
    vertex 358.2393134658907 12.00777623745117 27.791600000000024
    vertex 358.3228673165262 12.264932057385733 23.793423998607835
    vertex 358.7149724426005 13.471715971154584 27.791600000000024
  endloop
endfacet
facet normal 0.9510575096403477 -0.3090139371559864 2.3722011781099977e-07
  outer loop
    vertex 358.7149724426005 13.471715971154584 27.791600000000024
    vertex 358.3228673165262 12.264932057385733 23.793423998607835
    vertex 358.7149724426005 13.471715971154584 23.79939999999998
  endloop
endfacet
facet normal 0.9999999999988611 -1.120064136519525e-06 1.011568362503869e-06
  outer loop
    vertex 358.2393169725511 11.52650238094468 23.792150565724416
    vertex 358.2393134658907 12.00777623745117 27.791600000000024
    vertex 358.23931238777806 11.526500891261618 27.791600000001473
  endloop
endfacet
facet normal 0.9999999999988611 -1.120064136519525e-06 1.011568362503869e-06
  outer loop
    vertex 358.2393134658907 12.00777623745117 27.791600000000024
    vertex 358.2393169725511 11.52650238094468 23.792150565724416
    vertex 358.2393169725511 12.007775098068134 23.792150565724416
  endloop
endfacet
facet normal 0.0 -1.0 0.0
  outer loop
    vertex 354.77522322628784 15.392138754463328 29.791599800575554
    vertex 355.55112172628793 15.392138754463328 23.791599999999985
    vertex 358.2393247262878 15.392138754463328 23.791599999999985
  endloop
endfacet
facet normal 0.0 -1.0 0.0
  outer loop
    vertex 355.55112172628793 15.392138754463328 23.791599999999985
    vertex 354.77522322628784 15.392138754463328 29.791599800575554
    vertex 355.20934082726353 15.392138754463328 25.50984861131926
  endloop
endfacet
facet normal 0.0 -1.0 0.0
  outer loop
    vertex 355.20934082726353 15.392138754463328 25.50984861131926
    vertex 354.77522322628784 15.392138754463328 29.791599800575554
    vertex 354.2360311738155 15.392138754463328 26.9665094475276
  endloop
endfacet
facet normal 0.0 -1.0 0.0
  outer loop
    vertex 354.2360311738155 15.392138754463328 26.9665094475276
    vertex 354.77522322628784 15.392138754463328 29.791599800575554
    vertex 352.77937033760713 15.392138754463328 27.9398191009757
  endloop
endfacet
facet normal 0.0 -1.0 0.0
  outer loop
    vertex 352.77937033760713 15.392138754463328 27.9398191009757
    vertex 354.77522322628784 15.392138754463328 29.791599800575554
    vertex 351.06112172628787 15.392138754463328 28.281599999999983
  endloop
endfacet
facet normal 0.0 -1.0 0.0
  outer loop
    vertex 346.9129026253122 15.392138754463328 25.50984861131926
    vertex 343.88291872628787 15.392138754463328 23.791599999999985
    vertex 346.57112172628786 15.392138754463328 23.791599999999985
  endloop
endfacet
facet normal 0.0 -1.0 0.0
  outer loop
    vertex 343.88291872628787 15.392138754463328 23.791599999999985
    vertex 346.9129026253122 15.392138754463328 25.50984861131926
    vertex 347.3470202262879 15.392138754463328 29.791599800575554
  endloop
endfacet
facet normal 0.0 -1.0 0.0
  outer loop
    vertex 347.3470202262879 15.392138754463328 29.791599800575554
    vertex 346.9129026253122 15.392138754463328 25.50984861131926
    vertex 347.8862122787603 15.392138754463328 26.9665094475276
  endloop
endfacet
facet normal 0.0 -1.0 0.0
  outer loop
    vertex 347.3470202262879 15.392138754463328 29.791599800575554
    vertex 347.8862122787603 15.392138754463328 26.9665094475276
    vertex 349.3428731149686 15.392138754463328 27.9398191009757
  endloop
endfacet
facet normal 0.0 -1.0 0.0
  outer loop
    vertex 347.3470202262879 15.392138754463328 29.791599800575554
    vertex 349.3428731149686 15.392138754463328 27.9398191009757
    vertex 351.06112172628787 15.392138754463328 28.281599999999983
  endloop
endfacet
facet normal 0.0 -1.0 0.0
  outer loop
    vertex 347.3470202262879 15.392138754463328 29.791599800575554
    vertex 351.06112172628787 15.392138754463328 28.281599999999983
    vertex 354.77522322628784 15.392138754463328 29.791599800575554
  endloop
endfacet
facet normal 0.0 1.0 0.0
  outer loop
    vertex 340.1649724426005 9.00907484225051 27.791600000000024
    vertex 341.9572710099752 9.00907484225051 23.791599999999985
    vertex 340.1649724426005 9.00907484225051 23.791599999999985
  endloop
endfacet
facet normal 0.0 1.0 0.0
  outer loop
    vertex 341.9572710099752 9.00907484225051 23.791599999999985
    vertex 340.1649724426005 9.00907484225051 27.791600000000024
    vertex 341.9572710099752 9.00907484225051 27.791600000000024
  endloop
endfacet
facet normal 0.5877852522924741 0.8090169943749467 0.0
  outer loop
    vertex 338.7149724426005 10.062561507858309 27.791600000000024
    vertex 340.1649724426005 9.00907484225051 23.791599999999985
    vertex 338.7149724426005 10.062561507858309 23.791599999999985
  endloop
endfacet
facet normal 0.5877852522924741 0.8090169943749467 0.0
  outer loop
    vertex 340.1649724426005 9.00907484225051 23.791599999999985
    vertex 338.7149724426005 10.062561507858309 27.791600000000024
    vertex 340.1649724426005 9.00907484225051 27.791600000000024
  endloop
endfacet
facet normal 0.9510565162951548 0.30901699437494423 0.0
  outer loop
    vertex 338.1611217262879 11.76713873950649 23.791599999999985
    vertex 338.7149724426005 10.062561507858309 27.791600000000024
    vertex 338.7149724426005 10.062561507858309 23.791599999999985
  endloop
endfacet
facet normal 0.9510565162951548 0.30901699437494423 0.0
  outer loop
    vertex 338.7149724426005 10.062561507858309 27.791600000000024
    vertex 338.1611217262879 11.76713873950649 23.791599999999985
    vertex 338.1611217262879 11.76713873950649 27.791600000000024
  endloop
endfacet
facet normal 0.9510565162951499 -0.309016994374959 0.0
  outer loop
    vertex 338.7149724426005 13.471715971154584 23.791599999999985
    vertex 338.1611217262879 11.76713873950649 27.791600000000024
    vertex 338.1611217262879 11.76713873950649 23.791599999999985
  endloop
endfacet
facet normal 0.9510565162951499 -0.309016994374959 0.0
  outer loop
    vertex 338.1611217262879 11.76713873950649 27.791600000000024
    vertex 338.7149724426005 13.471715971154584 23.791599999999985
    vertex 338.7149724426005 13.471715971154584 27.791600000000024
  endloop
endfacet
facet normal 0.5877852522924741 -0.8090169943749467 0.0
  outer loop
    vertex 340.1649724426005 14.525202636762383 27.791600000000024
    vertex 338.7149724426005 13.471715971154584 23.791599999999985
    vertex 340.1649724426005 14.525202636762383 23.791599999999985
  endloop
endfacet
facet normal 0.5877852522924741 -0.8090169943749467 0.0
  outer loop
    vertex 338.7149724426005 13.471715971154584 23.791599999999985
    vertex 340.1649724426005 14.525202636762383 27.791600000000024
    vertex 338.7149724426005 13.471715971154584 27.791600000000024
  endloop
endfacet
facet normal 0.0 -1.0 0.0
  outer loop
    vertex 341.9572710099752 14.525202636762383 27.791600000000024
    vertex 340.1649724426005 14.525202636762383 23.791599999999985
    vertex 341.9572710099752 14.525202636762383 23.791599999999985
  endloop
endfacet
facet normal 0.0 -1.0 0.0
  outer loop
    vertex 340.1649724426005 14.525202636762383 23.791599999999985
    vertex 341.9572710099752 14.525202636762383 27.791600000000024
    vertex 340.1649724426005 14.525202636762383 27.791600000000024
  endloop
endfacet
facet normal -0.5877852522924741 -0.8090169943749467 -0.0
  outer loop
    vertex 343.40727100997526 13.471715971154584 27.791600000000024
    vertex 341.9572710099752 14.525202636762383 23.791599999999985
    vertex 343.40727100997526 13.471715971154584 23.791599999999985
  endloop
endfacet
facet normal -0.5877852522924741 -0.8090169943749467 -0.0
  outer loop
    vertex 341.9572710099752 14.525202636762383 23.791599999999985
    vertex 343.40727100997526 13.471715971154584 27.791600000000024
    vertex 341.9572710099752 14.525202636762383 27.791600000000024
  endloop
endfacet
facet normal -0.9510565162951495 -0.3090169943749597 -0.0
  outer loop
    vertex 343.40727100997526 13.471715971154584 27.791600000000024
    vertex 343.88291872628787 12.007822825164224 23.791599999999985
    vertex 343.88291872628787 12.007822825164224 27.791600000000024
  endloop
endfacet
facet normal -0.9510565162951495 -0.3090169943749597 -0.0
  outer loop
    vertex 343.88291872628787 12.007822825164224 23.791599999999985
    vertex 343.40727100997526 13.471715971154584 27.791600000000024
    vertex 343.40727100997526 13.471715971154584 23.791599999999985
  endloop
endfacet
facet normal -1.0 -0.0 -0.0
  outer loop
    vertex 343.88291872628787 12.007822825164224 27.791600000000024
    vertex 343.88291872628787 11.526454653848749 23.791599999999985
    vertex 343.88291872628787 11.526454653848749 27.791600000000024
  endloop
endfacet
facet normal -1.0 -0.0 -0.0
  outer loop
    vertex 343.88291872628787 11.526454653848749 23.791599999999985
    vertex 343.88291872628787 12.007822825164224 27.791600000000024
    vertex 343.88291872628787 12.007822825164224 23.791599999999985
  endloop
endfacet
facet normal -0.9510565162951546 0.30901699437494473 0.0
  outer loop
    vertex 343.88291872628787 11.526454653848749 27.791600000000024
    vertex 343.40727100997526 10.062561507858309 23.791599999999985
    vertex 343.40727100997526 10.062561507858309 27.791600000000024
  endloop
endfacet
facet normal -0.9510565162951546 0.30901699437494473 0.0
  outer loop
    vertex 343.40727100997526 10.062561507858309 23.791599999999985
    vertex 343.88291872628787 11.526454653848749 27.791600000000024
    vertex 343.88291872628787 11.526454653848749 23.791599999999985
  endloop
endfacet
facet normal -0.5877852522924741 0.8090169943749467 0.0
  outer loop
    vertex 341.9572710099752 9.00907484225051 27.791600000000024
    vertex 343.40727100997526 10.062561507858309 23.791599999999985
    vertex 341.9572710099752 9.00907484225051 23.791599999999985
  endloop
endfacet
facet normal -0.5877852522924741 0.8090169943749467 0.0
  outer loop
    vertex 343.40727100997526 10.062561507858309 23.791599999999985
    vertex 341.9572710099752 9.00907484225051 27.791600000000024
    vertex 343.40727100997526 10.062561507858309 27.791600000000024
  endloop
endfacet
facet normal 0.0 0.0 -1.0
  outer loop
    vertex 354.77522322628784 15.392138754463328 29.791599800575554
    vertex 347.3470202262879 8.142138754463312 29.791599800575554
    vertex 347.3470202262879 15.392138754463328 29.791599800575554
  endloop
endfacet
facet normal 0.0 0.0 -1.0
  outer loop
    vertex 347.3470202262879 8.142138754463312 29.791599800575554
    vertex 354.77522322628784 15.392138754463328 29.791599800575554
    vertex 354.77522322628784 8.142138754463312 29.791599800575554
  endloop
endfacet
facet normal 0.00015936684173202632 -0.00011338030688155771 -0.9999999808735577
  outer loop
    vertex 358.7149724426005 10.062561507858309 23.79939999999998
    vertex 358.2393247262878 8.142138754463312 23.791599999999985
    vertex 358.2393169725511 11.52650238094468 23.792150565724416
  endloop
endfacet
facet normal 0.00015936684173202632 -0.00011338030688155771 -0.9999999808735577
  outer loop
    vertex 368.06112172628787 21.767138748480555 23.791599999999985
    vertex 355.55112172628793 15.392138754463328 23.791599999999985
    vertex 355.55112172628793 21.767138754463303 23.791599999999985
  endloop
endfacet
facet normal 0.00015936684173202632 -0.00011338030688155771 -0.9999999808735577
  outer loop
    vertex 355.55112172628793 15.392138754463328 23.791599999999985
    vertex 368.06112172628787 21.767138748480555 23.791599999999985
    vertex 358.2393247262878 15.392138754463328 23.791599999999985
  endloop
endfacet
facet normal 0.00015936684173202632 -0.00011338030688155771 -0.9999999808735577
  outer loop
    vertex 358.2393247262878 15.392138754463328 23.791599999999985
    vertex 368.06112172628787 21.767138748480555 23.791599999999985
    vertex 358.7149724426005 13.471715971154584 23.79939999999998
  endloop
endfacet
facet normal 0.00015936684173202632 -0.00011338030688155771 -0.9999999808735577
  outer loop
    vertex 358.2393247262878 15.392138754463328 23.791599999999985
    vertex 358.7149724426005 13.471715971154584 23.79939999999998
    vertex 358.3228673165262 12.264932057385733 23.793423998607835
  endloop
endfacet
facet normal 0.00015936684173202632 -0.00011338030688155771 -0.9999999808735577
  outer loop
    vertex 358.7149724426005 13.471715971154584 23.79939999999998
    vertex 368.06112172628787 21.767138748480555 23.791599999999985
    vertex 360.1649724426006 14.525202636762383 23.791599999999985
  endloop
endfacet
facet normal 0.00015936684173202632 -0.00011338030688155771 -0.9999999808735577
  outer loop
    vertex 360.1649724426006 14.525202636762383 23.791599999999985
    vertex 368.06112172628787 21.767138748480555 23.791599999999985
    vertex 361.9572710099752 14.525202636762383 23.791599999999985
  endloop
endfacet
facet normal 0.00015936684173202632 -0.00011338030688155771 -0.9999999808735577
  outer loop
    vertex 361.9572710099752 14.525202636762383 23.791599999999985
    vertex 368.06112172628787 21.767138748480555 23.791599999999985
    vertex 363.40727100997526 13.471715971154584 23.791599999999985
  endloop
endfacet
facet normal 0.00015936684173202632 -0.00011338030688155771 -0.9999999808735577
  outer loop
    vertex 363.40727100997526 13.471715971154584 23.791599999999985
    vertex 368.06112172628787 21.767138748480555 23.791599999999985
    vertex 363.6131695556521 12.838025406796769 23.794499713964374
  endloop
endfacet
facet normal 0.00015936684173202632 -0.00011338030688155771 -0.9999999808735577
  outer loop
    vertex 363.6131695556521 12.838025406796769 23.794499713964374
    vertex 368.06112172628787 21.767138748480555 23.791599999999985
    vertex 363.9611217262879 11.76713873950649 23.79939999999998
  endloop
endfacet
facet normal 0.00015936684173202632 -0.00011338030688155771 -0.9999999808735577
  outer loop
    vertex 358.2393247262878 8.142138754463312 23.791599999999985
    vertex 355.55112172628793 1.76713875436268 23.791599999999985
    vertex 355.55112172628793 8.142138754463312 23.791599999999985
  endloop
endfacet
facet normal 0.00015936684173202632 -0.00011338030688155771 -0.9999999808735577
  outer loop
    vertex 355.55112172628793 1.76713875436268 23.791599999999985
    vertex 358.2393247262878 8.142138754463312 23.791599999999985
    vertex 368.06112172628787 1.7671387544632964 23.791599999999985
  endloop
endfacet
facet normal 0.00015936684173202632 -0.00011338030688155771 -0.9999999808735577
  outer loop
    vertex 368.06112172628787 1.7671387544632964 23.791599999999985
    vertex 358.2393247262878 8.142138754463312 23.791599999999985
    vertex 358.7149724426005 10.062561507858309 23.79939999999998
  endloop
endfacet
facet normal 0.00015936684173202632 -0.00011338030688155771 -0.9999999808735577
  outer loop
    vertex 368.06112172628787 1.7671387544632964 23.791599999999985
    vertex 358.7149724426005 10.062561507858309 23.79939999999998
    vertex 360.1649724426006 9.00907484225051 23.79939999999998
  endloop
endfacet
facet normal 0.00015936684173202632 -0.00011338030688155771 -0.9999999808735577
  outer loop
    vertex 368.06112172628787 1.7671387544632964 23.791599999999985
    vertex 360.1649724426006 9.00907484225051 23.79939999999998
    vertex 361.9572710099752 9.00907484225051 23.79939999999998
  endloop
endfacet
facet normal 0.00015936684173202632 -0.00011338030688155771 -0.9999999808735577
  outer loop
    vertex 368.06112172628787 1.7671387544632964 23.791599999999985
    vertex 361.9572710099752 9.00907484225051 23.79939999999998
    vertex 363.40727100997526 10.062561507858309 23.79939999999998
  endloop
endfacet
facet normal 0.00015936684173202632 -0.00011338030688155771 -0.9999999808735577
  outer loop
    vertex 368.06112172628787 1.7671387544632964 23.791599999999985
    vertex 363.40727100997526 10.062561507858309 23.79939999999998
    vertex 363.9611217262879 11.76713873950649 23.79939999999998
  endloop
endfacet
facet normal 0.00015936684173202632 -0.00011338030688155771 -0.9999999808735577
  outer loop
    vertex 368.06112172628787 1.7671387544632964 23.791599999999985
    vertex 363.9611217262879 11.76713873950649 23.79939999999998
    vertex 368.06112172628787 21.767138748480555 23.791599999999985
  endloop
endfacet
facet normal 0.00015936684173202632 -0.00011338030688155771 -0.9999999808735577
  outer loop
    vertex 358.3228673165262 12.264932057385733 23.793423998607835
    vertex 358.2393169725511 12.007775098068134 23.792150565724416
    vertex 358.2393247262878 15.392138754463328 23.791599999999985
  endloop
endfacet
endsolid m8NutBlock
