solid m8NutBlock
facet normal -0.5555702330196004 0.0 0.8314696123025465
  outer loop
    vertex 354.2360311738154 1.7671387423972689 2.82509055247242
    vertex 352.779370337607 8.142138742497902 1.8517808990243187
    vertex 352.779370337607 1.7671387423972689 1.8517808990243187
  endloop
endfacet
facet normal -0.5555702330196004 0.0 0.8314696123025465
  outer loop
    vertex 352.779370337607 8.142138742497902 1.8517808990243187
    vertex 354.2360311738154 1.7671387423972689 2.82509055247242
    vertex 354.2360311738154 8.142138742497902 2.82509055247242
  endloop
endfacet
facet normal 0.5877852522924981 0.8090169943749294 0.0
  outer loop
    vertex 358.71497244260047 10.062561495892853 5.999999999999989
    vertex 360.1649724426004 9.009074830285053 0.0
    vertex 358.71497244260047 10.062561495892853 0.0
  endloop
endfacet
facet normal 0.5877852522924981 0.8090169943749294 0.0
  outer loop
    vertex 360.1649724426004 9.009074830285053 0.0
    vertex 358.71497244260047 10.062561495892853 5.999999999999989
    vertex 360.1649724426004 9.009074830285053 5.999999999999989
  endloop
endfacet
facet normal 0.9807852804032253 0.0 0.195090322016154
  outer loop
    vertex 346.91290262531214 8.142138742497902 4.281751388680715
    vertex 346.5711217262878 1.7671387423972689 5.999999999999989
    vertex 346.91290262531214 1.7671387423972689 4.281751388680715
  endloop
endfacet
facet normal 0.9807852804032253 0.0 0.195090322016154
  outer loop
    vertex 346.5711217262878 1.7671387423972689 5.999999999999989
    vertex 346.91290262531214 8.142138742497902 4.281751388680715
    vertex 346.5711217262878 8.142138742497902 5.999999999999989
  endloop
endfacet
facet normal -1.0 0.0 0.0
  outer loop
    vertex 334.06112172628787 21.767138736515097 5.999999999999989
    vertex 334.06112172628787 1.7671387424978853 0.0
    vertex 334.06112172628787 1.7671387395064648 5.999999999999989
  endloop
endfacet
facet normal -1.0 0.0 0.0
  outer loop
    vertex 334.06112172628787 1.7671387424978853 0.0
    vertex 334.06112172628787 21.767138736515097 5.999999999999989
    vertex 334.06112172628787 21.76713874249785 0.0
  endloop
endfacet
facet normal -0.5555702330196004 0.0 0.8314696123025465
  outer loop
    vertex 354.2360311738154 15.392138742497865 2.82509055247242
    vertex 352.779370337607 21.76713874249785 1.8517808990243187
    vertex 352.779370337607 15.392138742497865 1.8517808990243187
  endloop
endfacet
facet normal -0.5555702330196004 0.0 0.8314696123025465
  outer loop
    vertex 352.779370337607 21.76713874249785 1.8517808990243187
    vertex 354.2360311738154 15.392138742497865 2.82509055247242
    vertex 354.2360311738154 21.76713874249785 2.82509055247242
  endloop
endfacet
facet normal 0.0 -1.0 0.0
  outer loop
    vertex 361.9572710099751 14.525202624796927 5.999999999999989
    vertex 360.1649724426004 14.525202624796927 0.0
    vertex 361.9572710099751 14.525202624796927 0.0
  endloop
endfacet
facet normal 0.0 -1.0 0.0
  outer loop
    vertex 360.1649724426004 14.525202624796927 0.0
    vertex 361.9572710099751 14.525202624796927 5.999999999999989
    vertex 360.1649724426004 14.525202624796927 5.999999999999989
  endloop
endfacet
facet normal -0.5877852522924578 -0.8090169943749587 0.0
  outer loop
    vertex 363.4072710099751 13.471715959189174 5.999999999999989
    vertex 361.9572710099751 14.525202624796927 0.0
    vertex 363.4072710099751 13.471715959189174 0.0
  endloop
endfacet
facet normal -0.5877852522924578 -0.8090169943749587 0.0
  outer loop
    vertex 361.9572710099751 14.525202624796927 0.0
    vertex 363.4072710099751 13.471715959189174 5.999999999999989
    vertex 361.9572710099751 14.525202624796927 5.999999999999989
  endloop
endfacet
facet normal 0.9510565162951546 0.3090169943749443 -7.344165976877748e-19
  outer loop
    vertex 358.2393247262878 11.526454641883433 2.8199664825478975e-15
    vertex 358.71497244260047 10.062561495892853 5.999999999999989
    vertex 358.71497244260047 10.062561495892853 0.0
  endloop
endfacet
facet normal 0.9510565162951546 0.3090169943749443 -7.344165976877748e-19
  outer loop
    vertex 358.71497244260047 10.062561495892853 5.999999999999989
    vertex 358.2393247262878 11.526454641883433 2.8199664825478975e-15
    vertex 358.2393247262878 11.526454641883433 5.999999999999989
  endloop
endfacet
facet normal -0.9510565162951546 0.3090169943749442 0.0
  outer loop
    vertex 363.9611217262878 11.767138727541035 5.999999999999989
    vertex 363.4072710099751 10.062561495892853 0.0
    vertex 363.4072710099751 10.062561495892853 5.999999999999989
  endloop
endfacet
facet normal -0.9510565162951546 0.3090169943749442 0.0
  outer loop
    vertex 363.4072710099751 10.062561495892853 0.0
    vertex 363.9611217262878 11.767138727541035 5.999999999999989
    vertex 363.9611217262878 11.767138727541035 0.0
  endloop
endfacet
facet normal -0.9510565162951524 -0.3090169943749516 0.0
  outer loop
    vertex 363.4072710099751 13.471715959189174 5.999999999999989
    vertex 363.9611217262878 11.767138727541035 0.0
    vertex 363.9611217262878 11.767138727541035 5.999999999999989
  endloop
endfacet
facet normal -0.9510565162951524 -0.3090169943749516 0.0
  outer loop
    vertex 363.9611217262878 11.767138727541035 0.0
    vertex 363.4072710099751 13.471715959189174 5.999999999999989
    vertex 363.4072710099751 13.471715959189174 0.0
  endloop
endfacet
facet normal 0.9510565162951522 -0.3090169943749518 1.667276782687849e-18
  outer loop
    vertex 358.71497244260047 13.471715959189174 0.0
    vertex 358.2393247262878 12.007822813198631 5.999999999999989
    vertex 358.2393247262878 12.007822813198631 2.8199664825478975e-15
  endloop
endfacet
facet normal 0.9510565162951522 -0.3090169943749518 1.667276782687849e-18
  outer loop
    vertex 358.2393247262878 12.007822813198631 5.999999999999989
    vertex 358.71497244260047 13.471715959189174 0.0
    vertex 358.71497244260047 13.471715959189174 5.999999999999989
  endloop
endfacet
facet normal 0.5877852522924816 -0.8090169943749412 0.0
  outer loop
    vertex 360.1649724426004 14.525202624796927 5.999999999999989
    vertex 358.71497244260047 13.471715959189174 0.0
    vertex 360.1649724426004 14.525202624796927 0.0
  endloop
endfacet
facet normal 0.5877852522924816 -0.8090169943749412 0.0
  outer loop
    vertex 358.71497244260047 13.471715959189174 0.0
    vertex 360.1649724426004 14.525202624796927 5.999999999999989
    vertex 358.71497244260047 13.471715959189174 5.999999999999989
  endloop
endfacet
facet normal -0.5877852522924741 0.8090169943749467 0.0
  outer loop
    vertex 361.9572710099751 9.009074830285053 5.999999999999989
    vertex 363.4072710099751 10.062561495892853 0.0
    vertex 361.9572710099751 9.009074830285053 0.0
  endloop
endfacet
facet normal -0.5877852522924741 0.8090169943749467 0.0
  outer loop
    vertex 363.4072710099751 10.062561495892853 0.0
    vertex 361.9572710099751 9.009074830285053 5.999999999999989
    vertex 363.4072710099751 10.062561495892853 5.999999999999989
  endloop
endfacet
facet normal 0.0 1.0 0.0
  outer loop
    vertex 347.34702022628784 8.142138742497902 1.9942442008868966e-07
    vertex 349.34287311496854 8.142138742497902 1.8517808990243187
    vertex 354.7752232262878 8.142138742497902 1.9942442008868966e-07
  endloop
endfacet
facet normal 0.0 1.0 0.0
  outer loop
    vertex 349.34287311496854 8.142138742497902 1.8517808990243187
    vertex 347.34702022628784 8.142138742497902 1.9942442008868966e-07
    vertex 347.8862122787602 8.142138742497902 2.82509055247242
  endloop
endfacet
facet normal 0.0 1.0 0.0
  outer loop
    vertex 347.8862122787602 8.142138742497902 2.82509055247242
    vertex 347.34702022628784 8.142138742497902 1.9942442008868966e-07
    vertex 343.88291872628787 8.142138742497902 5.999999999999989
  endloop
endfacet
facet normal 0.0 1.0 0.0
  outer loop
    vertex 354.7752232262878 8.142138742497902 1.9942442008868966e-07
    vertex 349.34287311496854 8.142138742497902 1.8517808990243187
    vertex 351.0611217262878 8.142138742497902 1.5099999999999905
  endloop
endfacet
facet normal 0.0 1.0 0.0
  outer loop
    vertex 347.8862122787602 8.142138742497902 2.82509055247242
    vertex 343.88291872628787 8.142138742497902 5.999999999999989
    vertex 346.91290262531214 8.142138742497902 4.281751388680715
  endloop
endfacet
facet normal 0.0 1.0 0.0
  outer loop
    vertex 346.91290262531214 8.142138742497902 4.281751388680715
    vertex 343.88291872628787 8.142138742497902 5.999999999999989
    vertex 346.5711217262878 8.142138742497902 5.999999999999989
  endloop
endfacet
facet normal 0.0 1.0 0.0
  outer loop
    vertex 354.7752232262878 8.142138742497902 1.9942442008868966e-07
    vertex 354.2360311738154 8.142138742497902 2.82509055247242
    vertex 358.2393247262878 8.142138742497902 5.999999999999989
  endloop
endfacet
facet normal 0.0 1.0 0.0
  outer loop
    vertex 354.2360311738154 8.142138742497902 2.82509055247242
    vertex 354.7752232262878 8.142138742497902 1.9942442008868966e-07
    vertex 352.779370337607 8.142138742497902 1.8517808990243187
  endloop
endfacet
facet normal 0.0 1.0 0.0
  outer loop
    vertex 352.779370337607 8.142138742497902 1.8517808990243187
    vertex 354.7752232262878 8.142138742497902 1.9942442008868966e-07
    vertex 351.0611217262878 8.142138742497902 1.5099999999999905
  endloop
endfacet
facet normal 0.0 1.0 0.0
  outer loop
    vertex 358.2393247262878 8.142138742497902 5.999999999999989
    vertex 354.2360311738154 8.142138742497902 2.82509055247242
    vertex 355.2093408272635 8.142138742497902 4.28175138868076
  endloop
endfacet
facet normal 0.0 1.0 0.0
  outer loop
    vertex 358.2393247262878 8.142138742497902 5.999999999999989
    vertex 355.2093408272635 8.142138742497902 4.28175138868076
    vertex 355.55112172628776 8.142138742497902 5.999999999999989
  endloop
endfacet
facet normal 0.0 1.0 0.0
  outer loop
    vertex 360.1649724426004 9.009074830285053 5.999999999999989
    vertex 361.9572710099751 9.009074830285053 0.0
    vertex 360.1649724426004 9.009074830285053 0.0
  endloop
endfacet
facet normal 0.0 1.0 0.0
  outer loop
    vertex 361.9572710099751 9.009074830285053 0.0
    vertex 360.1649724426004 9.009074830285053 5.999999999999989
    vertex 361.9572710099751 9.009074830285053 5.999999999999989
  endloop
endfacet
facet normal 0.0 -1.0 0.0
  outer loop
    vertex 354.7752232262878 15.392138742497865 1.9942442008868966e-07
    vertex 352.779370337607 15.392138742497865 1.8517808990243187
    vertex 347.34702022628784 15.392138742497865 1.9942442008868966e-07
  endloop
endfacet
facet normal 0.0 -1.0 0.0
  outer loop
    vertex 352.779370337607 15.392138742497865 1.8517808990243187
    vertex 354.7752232262878 15.392138742497865 1.9942442008868966e-07
    vertex 354.2360311738154 15.392138742497865 2.82509055247242
  endloop
endfacet
facet normal 0.0 -1.0 0.0
  outer loop
    vertex 354.2360311738154 15.392138742497865 2.82509055247242
    vertex 354.7752232262878 15.392138742497865 1.9942442008868966e-07
    vertex 358.2393247262878 15.392138742497865 5.999999999999989
  endloop
endfacet
facet normal 0.0 -1.0 0.0
  outer loop
    vertex 347.34702022628784 15.392138742497865 1.9942442008868966e-07
    vertex 352.779370337607 15.392138742497865 1.8517808990243187
    vertex 351.0611217262878 15.392138742497865 1.5099999999999905
  endloop
endfacet
facet normal 0.0 -1.0 0.0
  outer loop
    vertex 354.2360311738154 15.392138742497865 2.82509055247242
    vertex 358.2393247262878 15.392138742497865 5.999999999999989
    vertex 355.2093408272635 15.392138742497865 4.28175138868076
  endloop
endfacet
facet normal 0.0 -1.0 0.0
  outer loop
    vertex 355.2093408272635 15.392138742497865 4.28175138868076
    vertex 358.2393247262878 15.392138742497865 5.999999999999989
    vertex 355.55112172628776 15.392138742497865 5.999999999999989
  endloop
endfacet
facet normal 0.0 -1.0 0.0
  outer loop
    vertex 347.34702022628784 15.392138742497865 1.9942442008868966e-07
    vertex 347.8862122787602 15.392138742497865 2.82509055247242
    vertex 343.88291872628787 15.392138742497865 5.999999999999989
  endloop
endfacet
facet normal 0.0 -1.0 0.0
  outer loop
    vertex 347.8862122787602 15.392138742497865 2.82509055247242
    vertex 347.34702022628784 15.392138742497865 1.9942442008868966e-07
    vertex 349.34287311496854 15.392138742497865 1.8517808990243187
  endloop
endfacet
facet normal 0.0 -1.0 0.0
  outer loop
    vertex 349.34287311496854 15.392138742497865 1.8517808990243187
    vertex 347.34702022628784 15.392138742497865 1.9942442008868966e-07
    vertex 351.0611217262878 15.392138742497865 1.5099999999999905
  endloop
endfacet
facet normal 0.0 -1.0 0.0
  outer loop
    vertex 343.88291872628787 15.392138742497865 5.999999999999989
    vertex 347.8862122787602 15.392138742497865 2.82509055247242
    vertex 346.91290262531214 15.392138742497865 4.281751388680715
  endloop
endfacet
facet normal 0.0 -1.0 0.0
  outer loop
    vertex 343.88291872628787 15.392138742497865 5.999999999999989
    vertex 346.91290262531214 15.392138742497865 4.281751388680715
    vertex 346.5711217262878 15.392138742497865 5.999999999999989
  endloop
endfacet
facet normal 1.8201650749463417e-33 2.6858508948818575e-32 1.0
  outer loop
    vertex 358.71497244260047 13.471715959189174 5.999999999999989
    vertex 358.2393247262878 15.392138742497865 5.999999999999989
    vertex 358.2393247262878 12.007822813198631 5.999999999999989
  endloop
endfacet
facet normal 1.8201650749463417e-33 2.6858508948818575e-32 1.0
  outer loop
    vertex 368.06112172628775 1.7671387424978853 5.999999999999989
    vertex 355.55112172628776 8.142138742497902 5.999999999999989
    vertex 355.55112172628776 1.7671387423972689 5.999999999999989
  endloop
endfacet
facet normal 1.8201650749463417e-33 2.6858508948818575e-32 1.0
  outer loop
    vertex 355.55112172628776 8.142138742497902 5.999999999999989
    vertex 368.06112172628775 1.7671387424978853 5.999999999999989
    vertex 358.2393247262878 8.142138742497902 5.999999999999989
  endloop
endfacet
facet normal 1.8201650749463417e-33 2.6858508948818575e-32 1.0
  outer loop
    vertex 358.2393247262878 8.142138742497902 5.999999999999989
    vertex 368.06112172628775 1.7671387424978853 5.999999999999989
    vertex 358.71497244260047 10.062561495892853 5.999999999999989
  endloop
endfacet
facet normal 1.8201650749463417e-33 2.6858508948818575e-32 1.0
  outer loop
    vertex 358.2393247262878 8.142138742497902 5.999999999999989
    vertex 358.71497244260047 10.062561495892853 5.999999999999989
    vertex 358.2393247262878 11.526454641883433 5.999999999999989
  endloop
endfacet
facet normal 1.8201650749463417e-33 2.6858508948818575e-32 1.0
  outer loop
    vertex 358.71497244260047 10.062561495892853 5.999999999999989
    vertex 368.06112172628775 1.7671387424978853 5.999999999999989
    vertex 360.1649724426004 9.009074830285053 5.999999999999989
  endloop
endfacet
facet normal 1.8201650749463417e-33 2.6858508948818575e-32 1.0
  outer loop
    vertex 360.1649724426004 9.009074830285053 5.999999999999989
    vertex 368.06112172628775 1.7671387424978853 5.999999999999989
    vertex 361.9572710099751 9.009074830285053 5.999999999999989
  endloop
endfacet
facet normal 1.8201650749463417e-33 2.6858508948818575e-32 1.0
  outer loop
    vertex 361.9572710099751 9.009074830285053 5.999999999999989
    vertex 368.06112172628775 1.7671387424978853 5.999999999999989
    vertex 363.4072710099751 10.062561495892853 5.999999999999989
  endloop
endfacet
facet normal 1.8201650749463417e-33 2.6858508948818575e-32 1.0
  outer loop
    vertex 363.4072710099751 10.062561495892853 5.999999999999989
    vertex 368.06112172628775 1.7671387424978853 5.999999999999989
    vertex 363.9611217262878 11.767138727541035 5.999999999999989
  endloop
endfacet
facet normal 1.8201650749463417e-33 2.6858508948818575e-32 1.0
  outer loop
    vertex 358.2393247262878 15.392138742497865 5.999999999999989
    vertex 355.55112172628776 21.76713874249785 5.999999999999989
    vertex 355.55112172628776 15.392138742497865 5.999999999999989
  endloop
endfacet
facet normal 1.8201650749463417e-33 2.6858508948818575e-32 1.0
  outer loop
    vertex 355.55112172628776 21.76713874249785 5.999999999999989
    vertex 358.2393247262878 15.392138742497865 5.999999999999989
    vertex 368.06112172628775 21.767138736515097 5.999999999999989
  endloop
endfacet
facet normal 1.8201650749463417e-33 2.6858508948818575e-32 1.0
  outer loop
    vertex 368.06112172628775 21.767138736515097 5.999999999999989
    vertex 358.2393247262878 15.392138742497865 5.999999999999989
    vertex 358.71497244260047 13.471715959189174 5.999999999999989
  endloop
endfacet
facet normal 1.8201650749463417e-33 2.6858508948818575e-32 1.0
  outer loop
    vertex 368.06112172628775 21.767138736515097 5.999999999999989
    vertex 358.71497244260047 13.471715959189174 5.999999999999989
    vertex 360.1649724426004 14.525202624796927 5.999999999999989
  endloop
endfacet
facet normal 1.8201650749463417e-33 2.6858508948818575e-32 1.0
  outer loop
    vertex 368.06112172628775 21.767138736515097 5.999999999999989
    vertex 360.1649724426004 14.525202624796927 5.999999999999989
    vertex 361.9572710099751 14.525202624796927 5.999999999999989
  endloop
endfacet
facet normal 1.8201650749463417e-33 2.6858508948818575e-32 1.0
  outer loop
    vertex 368.06112172628775 21.767138736515097 5.999999999999989
    vertex 361.9572710099751 14.525202624796927 5.999999999999989
    vertex 363.4072710099751 13.471715959189174 5.999999999999989
  endloop
endfacet
facet normal 1.8201650749463417e-33 2.6858508948818575e-32 1.0
  outer loop
    vertex 368.06112172628775 21.767138736515097 5.999999999999989
    vertex 363.4072710099751 13.471715959189174 5.999999999999989
    vertex 363.9611217262878 11.767138727541035 5.999999999999989
  endloop
endfacet
facet normal 1.8201650749463417e-33 2.6858508948818575e-32 1.0
  outer loop
    vertex 368.06112172628775 21.767138736515097 5.999999999999989
    vertex 363.9611217262878 11.767138727541035 5.999999999999989
    vertex 368.06112172628775 1.7671387424978853 5.999999999999989
  endloop
endfacet
facet normal 0.8314696123025546 0.0 0.5555702330195886
  outer loop
    vertex 347.8862122787602 8.142138742497902 2.82509055247242
    vertex 346.91290262531214 1.7671387423972689 4.281751388680715
    vertex 347.8862122787602 1.7671387423972689 2.82509055247242
  endloop
endfacet
facet normal 0.8314696123025546 0.0 0.5555702330195886
  outer loop
    vertex 346.91290262531214 1.7671387423972689 4.281751388680715
    vertex 347.8862122787602 8.142138742497902 2.82509055247242
    vertex 346.91290262531214 8.142138742497902 4.281751388680715
  endloop
endfacet
facet normal 0.1950903220161293 0.0 0.9807852804032304
  outer loop
    vertex 351.0611217262878 1.7671387423972689 1.5099999999999905
    vertex 349.34287311496854 8.142138742497902 1.8517808990243187
    vertex 349.34287311496854 1.7671387423972689 1.8517808990243187
  endloop
endfacet
facet normal 0.1950903220161293 0.0 0.9807852804032304
  outer loop
    vertex 349.34287311496854 8.142138742497902 1.8517808990243187
    vertex 351.0611217262878 1.7671387423972689 1.5099999999999905
    vertex 351.0611217262878 8.142138742497902 1.5099999999999905
  endloop
endfacet
facet normal 0.5555702330196004 0.0 0.8314696123025465
  outer loop
    vertex 349.34287311496854 1.7671387423972689 1.8517808990243187
    vertex 347.8862122787602 8.142138742497902 2.82509055247242
    vertex 347.8862122787602 1.7671387423972689 2.82509055247242
  endloop
endfacet
facet normal 0.5555702330196004 0.0 0.8314696123025465
  outer loop
    vertex 347.8862122787602 8.142138742497902 2.82509055247242
    vertex 349.34287311496854 1.7671387423972689 1.8517808990243187
    vertex 349.34287311496854 8.142138742497902 1.8517808990243187
  endloop
endfacet
facet normal -0.8314696123025387 0.0 0.5555702330196124
  outer loop
    vertex 355.2093408272635 8.142138742497902 4.28175138868076
    vertex 354.2360311738154 1.7671387423972689 2.82509055247242
    vertex 355.2093408272635 1.7671387423972689 4.28175138868076
  endloop
endfacet
facet normal -0.8314696123025387 0.0 0.5555702330196124
  outer loop
    vertex 354.2360311738154 1.7671387423972689 2.82509055247242
    vertex 355.2093408272635 8.142138742497902 4.28175138868076
    vertex 354.2360311738154 8.142138742497902 2.82509055247242
  endloop
endfacet
facet normal -0.1950903220161391 0.0 0.9807852804032283
  outer loop
    vertex 352.779370337607 1.7671387423972689 1.8517808990243187
    vertex 351.0611217262878 8.142138742497902 1.5099999999999905
    vertex 351.0611217262878 1.7671387423972689 1.5099999999999905
  endloop
endfacet
facet normal -0.1950903220161391 0.0 0.9807852804032283
  outer loop
    vertex 351.0611217262878 8.142138742497902 1.5099999999999905
    vertex 352.779370337607 1.7671387423972689 1.8517808990243187
    vertex 352.779370337607 8.142138742497902 1.8517808990243187
  endloop
endfacet
facet normal -0.9807852804032343 0.0 0.1950903220161094
  outer loop
    vertex 355.55112172628776 8.142138742497902 5.999999999999989
    vertex 355.2093408272635 1.7671387423972689 4.28175138868076
    vertex 355.55112172628776 1.7671387423972689 5.999999999999989
  endloop
endfacet
facet normal -0.9807852804032343 0.0 0.1950903220161094
  outer loop
    vertex 355.2093408272635 1.7671387423972689 4.28175138868076
    vertex 355.55112172628776 8.142138742497902 5.999999999999989
    vertex 355.2093408272635 8.142138742497902 4.28175138868076
  endloop
endfacet
facet normal 0.5555702330196004 0.0 0.8314696123025465
  outer loop
    vertex 349.34287311496854 15.392138742497865 1.8517808990243187
    vertex 347.8862122787602 21.76713874249785 2.82509055247242
    vertex 347.8862122787602 15.392138742497865 2.82509055247242
  endloop
endfacet
facet normal 0.5555702330196004 0.0 0.8314696123025465
  outer loop
    vertex 347.8862122787602 21.76713874249785 2.82509055247242
    vertex 349.34287311496854 15.392138742497865 1.8517808990243187
    vertex 349.34287311496854 21.76713874249785 1.8517808990243187
  endloop
endfacet
facet normal 0.1950903220161293 0.0 0.9807852804032304
  outer loop
    vertex 351.0611217262878 15.392138742497865 1.5099999999999905
    vertex 349.34287311496854 21.76713874249785 1.8517808990243187
    vertex 349.34287311496854 15.392138742497865 1.8517808990243187
  endloop
endfacet
facet normal 0.1950903220161293 0.0 0.9807852804032304
  outer loop
    vertex 349.34287311496854 21.76713874249785 1.8517808990243187
    vertex 351.0611217262878 15.392138742497865 1.5099999999999905
    vertex 351.0611217262878 21.76713874249785 1.5099999999999905
  endloop
endfacet
facet normal -0.8314696123025387 0.0 0.5555702330196124
  outer loop
    vertex 355.2093408272635 21.76713874249785 4.28175138868076
    vertex 354.2360311738154 15.392138742497865 2.82509055247242
    vertex 355.2093408272635 15.392138742497865 4.28175138868076
  endloop
endfacet
facet normal -0.8314696123025387 0.0 0.5555702330196124
  outer loop
    vertex 354.2360311738154 15.392138742497865 2.82509055247242
    vertex 355.2093408272635 21.76713874249785 4.28175138868076
    vertex 354.2360311738154 21.76713874249785 2.82509055247242
  endloop
endfacet
facet normal 3.3995403771910454e-11 -1.0 -7.100545377182424e-11
  outer loop
    vertex 368.06112172628775 1.7671387424978853 0.0
    vertex 351.0611217262878 1.7671387423972689 1.5099999999999905
    vertex 334.06112172628787 1.7671387424978853 0.0
  endloop
endfacet
facet normal 3.3995403771910454e-11 -1.0 -7.100545377182424e-11
  outer loop
    vertex 351.0611217262878 1.7671387423972689 1.5099999999999905
    vertex 368.06112172628775 1.7671387424978853 0.0
    vertex 352.779370337607 1.7671387423972689 1.8517808990243187
  endloop
endfacet
facet normal 3.3995403771910454e-11 -1.0 -7.100545377182424e-11
  outer loop
    vertex 352.779370337607 1.7671387423972689 1.8517808990243187
    vertex 368.06112172628775 1.7671387424978853 0.0
    vertex 368.06112172628775 1.7671387424978853 5.999999999999989
  endloop
endfacet
facet normal 3.3995403771910454e-11 -1.0 -7.100545377182424e-11
  outer loop
    vertex 352.779370337607 1.7671387423972689 1.8517808990243187
    vertex 368.06112172628775 1.7671387424978853 5.999999999999989
    vertex 354.2360311738154 1.7671387423972689 2.82509055247242
  endloop
endfacet
facet normal 3.3995403771910454e-11 -1.0 -7.100545377182424e-11
  outer loop
    vertex 354.2360311738154 1.7671387423972689 2.82509055247242
    vertex 368.06112172628775 1.7671387424978853 5.999999999999989
    vertex 355.2093408272635 1.7671387423972689 4.28175138868076
  endloop
endfacet
facet normal 3.3995403771910454e-11 -1.0 -7.100545377182424e-11
  outer loop
    vertex 355.2093408272635 1.7671387423972689 4.28175138868076
    vertex 368.06112172628775 1.7671387424978853 5.999999999999989
    vertex 355.55112172628776 1.7671387423972689 5.999999999999989
  endloop
endfacet
facet normal 3.3995403771910454e-11 -1.0 -7.100545377182424e-11
  outer loop
    vertex 334.06112172628787 1.7671387424978853 0.0
    vertex 349.34287311496854 1.7671387423972689 1.8517808990243187
    vertex 334.06112172628787 1.7671387395064648 5.999999999999989
  endloop
endfacet
facet normal 3.3995403771910454e-11 -1.0 -7.100545377182424e-11
  outer loop
    vertex 349.34287311496854 1.7671387423972689 1.8517808990243187
    vertex 334.06112172628787 1.7671387424978853 0.0
    vertex 351.0611217262878 1.7671387423972689 1.5099999999999905
  endloop
endfacet
facet normal 3.3995403771910454e-11 -1.0 -7.100545377182424e-11
  outer loop
    vertex 334.06112172628787 1.7671387395064648 5.999999999999989
    vertex 349.34287311496854 1.7671387423972689 1.8517808990243187
    vertex 347.8862122787602 1.7671387423972689 2.82509055247242
  endloop
endfacet
facet normal 3.3995403771910454e-11 -1.0 -7.100545377182424e-11
  outer loop
    vertex 334.06112172628787 1.7671387395064648 5.999999999999989
    vertex 347.8862122787602 1.7671387423972689 2.82509055247242
    vertex 346.91290262531214 1.7671387423972689 4.281751388680715
  endloop
endfacet
facet normal 3.3995403771910454e-11 -1.0 -7.100545377182424e-11
  outer loop
    vertex 334.06112172628787 1.7671387395064648 5.999999999999989
    vertex 346.91290262531214 1.7671387423972689 4.281751388680715
    vertex 346.5711217262878 1.7671387423972689 5.999999999999989
  endloop
endfacet
facet normal 0.8314696123025546 0.0 0.5555702330195886
  outer loop
    vertex 347.8862122787602 21.76713874249785 2.82509055247242
    vertex 346.91290262531214 15.392138742497865 4.281751388680715
    vertex 347.8862122787602 15.392138742497865 2.82509055247242
  endloop
endfacet
facet normal 0.8314696123025546 0.0 0.5555702330195886
  outer loop
    vertex 346.91290262531214 15.392138742497865 4.281751388680715
    vertex 347.8862122787602 21.76713874249785 2.82509055247242
    vertex 346.91290262531214 21.76713874249785 4.281751388680715
  endloop
endfacet
facet normal 0.9807852804032253 0.0 0.19509032201615403
  outer loop
    vertex 346.91290262531214 21.76713874249785 4.281751388680715
    vertex 346.5711217262878 15.392138742497865 5.999999999999989
    vertex 346.91290262531214 15.392138742497865 4.281751388680715
  endloop
endfacet
facet normal 0.9807852804032253 0.0 0.19509032201615403
  outer loop
    vertex 346.5711217262878 15.392138742497865 5.999999999999989
    vertex 346.91290262531214 21.76713874249785 4.281751388680715
    vertex 346.5711217262878 21.76713874249785 5.999999999999989
  endloop
endfacet
facet normal -0.19509032201613913 0.0 0.9807852804032283
  outer loop
    vertex 352.779370337607 15.392138742497865 1.8517808990243187
    vertex 351.0611217262878 21.76713874249785 1.5099999999999905
    vertex 351.0611217262878 15.392138742497865 1.5099999999999905
  endloop
endfacet
facet normal -0.19509032201613913 0.0 0.9807852804032283
  outer loop
    vertex 351.0611217262878 21.76713874249785 1.5099999999999905
    vertex 352.779370337607 15.392138742497865 1.8517808990243187
    vertex 352.779370337607 21.76713874249785 1.8517808990243187
  endloop
endfacet
facet normal -2.3481730527717826e-10 -3.462811742854618e-09 -1.0
  outer loop
    vertex 334.06112172628787 21.76713874249785 0.0
    vertex 338.71497244260047 13.471715959189174 0.0
    vertex 334.06112172628787 1.7671387424978853 0.0
  endloop
endfacet
facet normal -2.3481730527717826e-10 -3.462811742854618e-09 -1.0
  outer loop
    vertex 338.71497244260047 13.471715959189174 0.0
    vertex 334.06112172628787 21.76713874249785 0.0
    vertex 340.1649724426005 14.525202624796927 0.0
  endloop
endfacet
facet normal -2.3481730527717826e-10 -3.462811742854618e-09 -1.0
  outer loop
    vertex 340.1649724426005 14.525202624796927 0.0
    vertex 334.06112172628787 21.76713874249785 0.0
    vertex 368.06112172628775 21.76713874249785 0.0
  endloop
endfacet
facet normal -2.3481730527717826e-10 -3.462811742854618e-09 -1.0
  outer loop
    vertex 334.06112172628787 1.7671387424978853 0.0
    vertex 338.71497244260047 13.471715959189174 0.0
    vertex 338.16112172628783 11.767138727541035 0.0
  endloop
endfacet
facet normal -2.3481730527717826e-10 -3.462811742854618e-09 -1.0
  outer loop
    vertex 340.1649724426005 14.525202624796927 0.0
    vertex 368.06112172628775 21.76713874249785 0.0
    vertex 341.95727100997516 14.525202624796927 0.0
  endloop
endfacet
facet normal -2.3481730527717826e-10 -3.462811742854618e-09 -1.0
  outer loop
    vertex 341.95727100997516 14.525202624796927 0.0
    vertex 368.06112172628775 21.76713874249785 0.0
    vertex 347.34702022628784 15.392138742497865 1.9942442008868966e-07
  endloop
endfacet
facet normal -2.3481730527717826e-10 -3.462811742854618e-09 -1.0
  outer loop
    vertex 341.95727100997516 14.525202624796927 0.0
    vertex 347.34702022628784 15.392138742497865 1.9942442008868966e-07
    vertex 343.40727100997515 13.471715959189174 0.0
  endloop
endfacet
facet normal -2.3481730527717826e-10 -3.462811742854618e-09 -1.0
  outer loop
    vertex 343.40727100997515 13.471715959189174 0.0
    vertex 347.34702022628784 15.392138742497865 1.9942442008868966e-07
    vertex 343.88291872628787 12.007822813198631 0.0
  endloop
endfacet
facet normal -2.3481730527717826e-10 -3.462811742854618e-09 -1.0
  outer loop
    vertex 343.88291872628787 12.007822813198631 0.0
    vertex 347.34702022628784 15.392138742497865 1.9942442008868966e-07
    vertex 343.9611217262878 11.767138727541035 0.0
  endloop
endfacet
facet normal -2.3481730527717826e-10 -3.462811742854618e-09 -1.0
  outer loop
    vertex 347.34702022628784 15.392138742497865 1.9942442008868966e-07
    vertex 368.06112172628775 21.76713874249785 0.0
    vertex 354.7752232262878 15.392138742497865 1.9942442008868966e-07
  endloop
endfacet
facet normal -2.3481730527717826e-10 -3.462811742854618e-09 -1.0
  outer loop
    vertex 354.7752232262878 15.392138742497865 1.9942442008868966e-07
    vertex 368.06112172628775 21.76713874249785 0.0
    vertex 358.71497244260047 13.471715959189174 0.0
  endloop
endfacet
facet normal -2.3481730527717826e-10 -3.462811742854618e-09 -1.0
  outer loop
    vertex 354.7752232262878 15.392138742497865 1.9942442008868966e-07
    vertex 358.71497244260047 13.471715959189174 0.0
    vertex 354.7752232262878 8.142138742497902 1.9942442008868966e-07
  endloop
endfacet
facet normal -2.3481730527717826e-10 -3.462811742854618e-09 -1.0
  outer loop
    vertex 354.7752232262878 8.142138742497902 1.9942442008868966e-07
    vertex 358.71497244260047 13.471715959189174 0.0
    vertex 358.2393247262878 12.007822813198631 2.8199664825478975e-15
  endloop
endfacet
facet normal -2.3481730527717826e-10 -3.462811742854618e-09 -1.0
  outer loop
    vertex 354.7752232262878 8.142138742497902 1.9942442008868966e-07
    vertex 358.2393247262878 12.007822813198631 2.8199664825478975e-15
    vertex 358.16112172628783 11.767138727541035 0.0
  endloop
endfacet
facet normal -2.3481730527717826e-10 -3.462811742854618e-09 -1.0
  outer loop
    vertex 358.71497244260047 13.471715959189174 0.0
    vertex 368.06112172628775 21.76713874249785 0.0
    vertex 360.1649724426004 14.525202624796927 0.0
  endloop
endfacet
facet normal -2.3481730527717826e-10 -3.462811742854618e-09 -1.0
  outer loop
    vertex 360.1649724426004 14.525202624796927 0.0
    vertex 368.06112172628775 21.76713874249785 0.0
    vertex 361.9572710099751 14.525202624796927 0.0
  endloop
endfacet
facet normal -2.3481730527717826e-10 -3.462811742854618e-09 -1.0
  outer loop
    vertex 361.9572710099751 14.525202624796927 0.0
    vertex 368.06112172628775 21.76713874249785 0.0
    vertex 363.4072710099751 13.471715959189174 0.0
  endloop
endfacet
facet normal -2.3481730527717826e-10 -3.462811742854618e-09 -1.0
  outer loop
    vertex 363.4072710099751 13.471715959189174 0.0
    vertex 368.06112172628775 21.76713874249785 0.0
    vertex 363.9611217262878 11.767138727541035 0.0
  endloop
endfacet
facet normal -2.3481730527717826e-10 -3.462811742854618e-09 -1.0
  outer loop
    vertex 334.06112172628787 1.7671387424978853 0.0
    vertex 340.1649724426005 9.009074830285053 0.0
    vertex 368.06112172628775 1.7671387424978853 0.0
  endloop
endfacet
facet normal -2.3481730527717826e-10 -3.462811742854618e-09 -1.0
  outer loop
    vertex 340.1649724426005 9.009074830285053 0.0
    vertex 334.06112172628787 1.7671387424978853 0.0
    vertex 338.71497244260047 10.062561495892853 0.0
  endloop
endfacet
facet normal -2.3481730527717826e-10 -3.462811742854618e-09 -1.0
  outer loop
    vertex 338.71497244260047 10.062561495892853 0.0
    vertex 334.06112172628787 1.7671387424978853 0.0
    vertex 338.16112172628783 11.767138727541035 0.0
  endloop
endfacet
facet normal -2.3481730527717826e-10 -3.462811742854618e-09 -1.0
  outer loop
    vertex 368.06112172628775 1.7671387424978853 0.0
    vertex 340.1649724426005 9.009074830285053 0.0
    vertex 341.95727100997516 9.009074830285053 0.0
  endloop
endfacet
facet normal -2.3481730527717826e-10 -3.462811742854618e-09 -1.0
  outer loop
    vertex 368.06112172628775 1.7671387424978853 0.0
    vertex 341.95727100997516 9.009074830285053 0.0
    vertex 347.34702022628784 8.142138742497902 1.9942442008868966e-07
  endloop
endfacet
facet normal -2.3481730527717826e-10 -3.462811742854618e-09 -1.0
  outer loop
    vertex 347.34702022628784 8.142138742497902 1.9942442008868966e-07
    vertex 341.95727100997516 9.009074830285053 0.0
    vertex 343.40727100997515 10.062561495892853 0.0
  endloop
endfacet
facet normal -2.3481730527717826e-10 -3.462811742854618e-09 -1.0
  outer loop
    vertex 347.34702022628784 8.142138742497902 1.9942442008868966e-07
    vertex 343.40727100997515 10.062561495892853 0.0
    vertex 343.88291872628787 11.526454641883433 0.0
  endloop
endfacet
facet normal -2.3481730527717826e-10 -3.462811742854618e-09 -1.0
  outer loop
    vertex 347.34702022628784 8.142138742497902 1.9942442008868966e-07
    vertex 343.88291872628787 11.526454641883433 0.0
    vertex 343.9611217262878 11.767138727541035 0.0
  endloop
endfacet
facet normal -2.3481730527717826e-10 -3.462811742854618e-09 -1.0
  outer loop
    vertex 347.34702022628784 8.142138742497902 1.9942442008868966e-07
    vertex 343.9611217262878 11.767138727541035 0.0
    vertex 347.34702022628784 15.392138742497865 1.9942442008868966e-07
  endloop
endfacet
facet normal -2.3481730527717826e-10 -3.462811742854618e-09 -1.0
  outer loop
    vertex 368.06112172628775 1.7671387424978853 0.0
    vertex 347.34702022628784 8.142138742497902 1.9942442008868966e-07
    vertex 354.7752232262878 8.142138742497902 1.9942442008868966e-07
  endloop
endfacet
facet normal -2.3481730527717826e-10 -3.462811742854618e-09 -1.0
  outer loop
    vertex 368.06112172628775 1.7671387424978853 0.0
    vertex 354.7752232262878 8.142138742497902 1.9942442008868966e-07
    vertex 358.71497244260047 10.062561495892853 0.0
  endloop
endfacet
facet normal -2.3481730527717826e-10 -3.462811742854618e-09 -1.0
  outer loop
    vertex 358.71497244260047 10.062561495892853 0.0
    vertex 354.7752232262878 8.142138742497902 1.9942442008868966e-07
    vertex 358.2393247262878 11.526454641883433 2.8199664825478975e-15
  endloop
endfacet
facet normal -2.3481730527717826e-10 -3.462811742854618e-09 -1.0
  outer loop
    vertex 358.2393247262878 11.526454641883433 2.8199664825478975e-15
    vertex 354.7752232262878 8.142138742497902 1.9942442008868966e-07
    vertex 358.16112172628783 11.767138727541035 0.0
  endloop
endfacet
facet normal -2.3481730527717826e-10 -3.462811742854618e-09 -1.0
  outer loop
    vertex 368.06112172628775 1.7671387424978853 0.0
    vertex 358.71497244260047 10.062561495892853 0.0
    vertex 360.1649724426004 9.009074830285053 0.0
  endloop
endfacet
facet normal -2.3481730527717826e-10 -3.462811742854618e-09 -1.0
  outer loop
    vertex 368.06112172628775 1.7671387424978853 0.0
    vertex 360.1649724426004 9.009074830285053 0.0
    vertex 361.9572710099751 9.009074830285053 0.0
  endloop
endfacet
facet normal -2.3481730527717826e-10 -3.462811742854618e-09 -1.0
  outer loop
    vertex 368.06112172628775 1.7671387424978853 0.0
    vertex 361.9572710099751 9.009074830285053 0.0
    vertex 363.4072710099751 10.062561495892853 0.0
  endloop
endfacet
facet normal -2.3481730527717826e-10 -3.462811742854618e-09 -1.0
  outer loop
    vertex 368.06112172628775 1.7671387424978853 0.0
    vertex 363.4072710099751 10.062561495892853 0.0
    vertex 363.9611217262878 11.767138727541035 0.0
  endloop
endfacet
facet normal -2.3481730527717826e-10 -3.462811742854618e-09 -1.0
  outer loop
    vertex 368.06112172628775 1.7671387424978853 0.0
    vertex 363.9611217262878 11.767138727541035 0.0
    vertex 368.06112172628775 21.76713874249785 0.0
  endloop
endfacet
facet normal -0.9807852804032343 0.0 0.19509032201610943
  outer loop
    vertex 355.55112172628776 21.76713874249785 5.999999999999989
    vertex 355.2093408272635 15.392138742497865 4.28175138868076
    vertex 355.55112172628776 15.392138742497865 5.999999999999989
  endloop
endfacet
facet normal -0.9807852804032343 0.0 0.19509032201610943
  outer loop
    vertex 355.2093408272635 15.392138742497865 4.28175138868076
    vertex 355.55112172628776 21.76713874249785 5.999999999999989
    vertex 355.2093408272635 21.76713874249785 4.28175138868076
  endloop
endfacet
facet normal 1.0 0.0 0.0
  outer loop
    vertex 368.06112172628775 21.76713874249785 0.0
    vertex 368.06112172628775 1.7671387424978853 5.999999999999989
    vertex 368.06112172628775 1.7671387424978853 0.0
  endloop
endfacet
facet normal 1.0 0.0 0.0
  outer loop
    vertex 368.06112172628775 1.7671387424978853 5.999999999999989
    vertex 368.06112172628775 21.76713874249785 0.0
    vertex 368.06112172628775 21.767138736515097 5.999999999999989
  endloop
endfacet
facet normal 0.5877852522924741 0.8090169943749467 0.0
  outer loop
    vertex 338.71497244260047 10.062561495892853 5.999999999999989
    vertex 340.1649724426005 9.009074830285053 0.0
    vertex 338.71497244260047 10.062561495892853 0.0
  endloop
endfacet
facet normal 0.5877852522924741 0.8090169943749467 0.0
  outer loop
    vertex 340.1649724426005 9.009074830285053 0.0
    vertex 338.71497244260047 10.062561495892853 5.999999999999989
    vertex 340.1649724426005 9.009074830285053 5.999999999999989
  endloop
endfacet
facet normal -0.9510565162951546 0.30901699437494423 0.0
  outer loop
    vertex 343.88291872628787 11.526454641883433 5.999999999999989
    vertex 343.40727100997515 10.062561495892853 0.0
    vertex 343.40727100997515 10.062561495892853 5.999999999999989
  endloop
endfacet
facet normal -0.9510565162951546 0.30901699437494423 0.0
  outer loop
    vertex 343.40727100997515 10.062561495892853 0.0
    vertex 343.88291872628787 11.526454641883433 5.999999999999989
    vertex 343.88291872628787 11.526454641883433 0.0
  endloop
endfacet
facet normal -0.5877852522924697 -0.80901699437495 0.0
  outer loop
    vertex 343.40727100997515 13.471715959189174 5.999999999999989
    vertex 341.95727100997516 14.525202624796927 0.0
    vertex 343.40727100997515 13.471715959189174 0.0
  endloop
endfacet
facet normal -0.5877852522924697 -0.80901699437495 0.0
  outer loop
    vertex 341.95727100997516 14.525202624796927 0.0
    vertex 343.40727100997515 13.471715959189174 5.999999999999989
    vertex 341.95727100997516 14.525202624796927 5.999999999999989
  endloop
endfacet
facet normal 0.0 1.0 0.0
  outer loop
    vertex 340.1649724426005 9.009074830285053 5.999999999999989
    vertex 341.95727100997516 9.009074830285053 0.0
    vertex 340.1649724426005 9.009074830285053 0.0
  endloop
endfacet
facet normal 0.0 1.0 0.0
  outer loop
    vertex 341.95727100997516 9.009074830285053 0.0
    vertex 340.1649724426005 9.009074830285053 5.999999999999989
    vertex 341.95727100997516 9.009074830285053 5.999999999999989
  endloop
endfacet
facet normal 0.9510565162951546 0.3090169943749442 0.0
  outer loop
    vertex 338.16112172628783 11.767138727541035 0.0
    vertex 338.71497244260047 10.062561495892853 5.999999999999989
    vertex 338.71497244260047 10.062561495892853 0.0
  endloop
endfacet
facet normal 0.9510565162951546 0.3090169943749442 0.0
  outer loop
    vertex 338.71497244260047 10.062561495892853 5.999999999999989
    vertex 338.16112172628783 11.767138727541035 0.0
    vertex 338.16112172628783 11.767138727541035 5.999999999999989
  endloop
endfacet
facet normal -0.5877852522924861 0.809016994374938 0.0
  outer loop
    vertex 341.95727100997516 9.009074830285053 5.999999999999989
    vertex 343.40727100997515 10.062561495892853 0.0
    vertex 341.95727100997516 9.009074830285053 0.0
  endloop
endfacet
facet normal -0.5877852522924861 0.809016994374938 0.0
  outer loop
    vertex 343.40727100997515 10.062561495892853 0.0
    vertex 341.95727100997516 9.009074830285053 5.999999999999989
    vertex 343.40727100997515 10.062561495892853 5.999999999999989
  endloop
endfacet
facet normal 0.0 -1.0 0.0
  outer loop
    vertex 341.95727100997516 14.525202624796927 5.999999999999989
    vertex 340.1649724426005 14.525202624796927 0.0
    vertex 341.95727100997516 14.525202624796927 0.0
  endloop
endfacet
facet normal 0.0 -1.0 0.0
  outer loop
    vertex 340.1649724426005 14.525202624796927 0.0
    vertex 341.95727100997516 14.525202624796927 5.999999999999989
    vertex 340.1649724426005 14.525202624796927 5.999999999999989
  endloop
endfacet
facet normal -0.9510565162951522 -0.3090169943749518 0.0
  outer loop
    vertex 343.40727100997515 13.471715959189174 5.999999999999989
    vertex 343.88291872628787 12.007822813198631 0.0
    vertex 343.88291872628787 12.007822813198631 5.999999999999989
  endloop
endfacet
facet normal -0.9510565162951522 -0.3090169943749518 0.0
  outer loop
    vertex 343.88291872628787 12.007822813198631 0.0
    vertex 343.40727100997515 13.471715959189174 5.999999999999989
    vertex 343.40727100997515 13.471715959189174 0.0
  endloop
endfacet
facet normal 0.9510565162951524 -0.3090169943749516 0.0
  outer loop
    vertex 338.71497244260047 13.471715959189174 0.0
    vertex 338.16112172628783 11.767138727541035 5.999999999999989
    vertex 338.16112172628783 11.767138727541035 0.0
  endloop
endfacet
facet normal 0.9510565162951524 -0.3090169943749516 0.0
  outer loop
    vertex 338.16112172628783 11.767138727541035 5.999999999999989
    vertex 338.71497244260047 13.471715959189174 0.0
    vertex 338.71497244260047 13.471715959189174 5.999999999999989
  endloop
endfacet
facet normal 0.5877852522924578 -0.8090169943749587 0.0
  outer loop
    vertex 340.1649724426005 14.525202624796927 5.999999999999989
    vertex 338.71497244260047 13.471715959189174 0.0
    vertex 340.1649724426005 14.525202624796927 0.0
  endloop
endfacet
facet normal 0.5877852522924578 -0.8090169943749587 0.0
  outer loop
    vertex 338.71497244260047 13.471715959189174 0.0
    vertex 340.1649724426005 14.525202624796927 5.999999999999989
    vertex 338.71497244260047 13.471715959189174 5.999999999999989
  endloop
endfacet
facet normal -1.2877528231091059e-32 -1.880056826805749e-31 1.0
  outer loop
    vertex 334.06112172628787 1.7671387395064648 5.999999999999989
    vertex 338.71497244260047 10.062561495892853 5.999999999999989
    vertex 334.06112172628787 21.767138736515097 5.999999999999989
  endloop
endfacet
facet normal -1.2877528231091059e-32 -1.880056826805749e-31 1.0
  outer loop
    vertex 338.71497244260047 10.062561495892853 5.999999999999989
    vertex 334.06112172628787 1.7671387395064648 5.999999999999989
    vertex 346.5711217262878 1.7671387423972689 5.999999999999989
  endloop
endfacet
facet normal -1.2877528231091059e-32 -1.880056826805749e-31 1.0
  outer loop
    vertex 334.06112172628787 21.767138736515097 5.999999999999989
    vertex 338.71497244260047 10.062561495892853 5.999999999999989
    vertex 338.16112172628783 11.767138727541035 5.999999999999989
  endloop
endfacet
facet normal -1.2877528231091059e-32 -1.880056826805749e-31 1.0
  outer loop
    vertex 338.71497244260047 10.062561495892853 5.999999999999989
    vertex 346.5711217262878 1.7671387423972689 5.999999999999989
    vertex 340.1649724426005 9.009074830285053 5.999999999999989
  endloop
endfacet
facet normal -1.2877528231091059e-32 -1.880056826805749e-31 1.0
  outer loop
    vertex 340.1649724426005 9.009074830285053 5.999999999999989
    vertex 346.5711217262878 1.7671387423972689 5.999999999999989
    vertex 341.95727100997516 9.009074830285053 5.999999999999989
  endloop
endfacet
facet normal -1.2877528231091059e-32 -1.880056826805749e-31 1.0
  outer loop
    vertex 341.95727100997516 9.009074830285053 5.999999999999989
    vertex 346.5711217262878 1.7671387423972689 5.999999999999989
    vertex 343.88291872628787 8.142138742497902 5.999999999999989
  endloop
endfacet
facet normal -1.2877528231091059e-32 -1.880056826805749e-31 1.0
  outer loop
    vertex 341.95727100997516 9.009074830285053 5.999999999999989
    vertex 343.88291872628787 8.142138742497902 5.999999999999989
    vertex 343.40727100997515 10.062561495892853 5.999999999999989
  endloop
endfacet
facet normal -1.2877528231091059e-32 -1.880056826805749e-31 1.0
  outer loop
    vertex 343.88291872628787 8.142138742497902 5.999999999999989
    vertex 346.5711217262878 1.7671387423972689 5.999999999999989
    vertex 346.5711217262878 8.142138742497902 5.999999999999989
  endloop
endfacet
facet normal -1.2877528231091059e-32 -1.880056826805749e-31 1.0
  outer loop
    vertex 343.88291872628787 8.142138742497902 5.999999999999989
    vertex 343.88291872628787 11.526454641883433 5.999999999999989
    vertex 343.40727100997515 10.062561495892853 5.999999999999989
  endloop
endfacet
facet normal -1.2877528231091059e-32 -1.880056826805749e-31 1.0
  outer loop
    vertex 343.88291872628787 11.526454641883433 5.999999999999989
    vertex 343.88291872628787 8.142138742497902 5.999999999999989
    vertex 343.88291872628787 11.027177822507587 5.999999999999989
  endloop
endfacet
facet normal -1.2877528231091059e-32 -1.880056826805749e-31 1.0
  outer loop
    vertex 334.06112172628787 21.767138736515097 5.999999999999989
    vertex 338.71497244260047 13.471715959189174 5.999999999999989
    vertex 346.5711217262878 21.76713874249785 5.999999999999989
  endloop
endfacet
facet normal -1.2877528231091059e-32 -1.880056826805749e-31 1.0
  outer loop
    vertex 338.71497244260047 13.471715959189174 5.999999999999989
    vertex 334.06112172628787 21.767138736515097 5.999999999999989
    vertex 338.16112172628783 11.767138727541035 5.999999999999989
  endloop
endfacet
facet normal -1.2877528231091059e-32 -1.880056826805749e-31 1.0
  outer loop
    vertex 346.5711217262878 21.76713874249785 5.999999999999989
    vertex 338.71497244260047 13.471715959189174 5.999999999999989
    vertex 340.1649724426005 14.525202624796927 5.999999999999989
  endloop
endfacet
facet normal -1.2877528231091059e-32 -1.880056826805749e-31 1.0
  outer loop
    vertex 346.5711217262878 21.76713874249785 5.999999999999989
    vertex 340.1649724426005 14.525202624796927 5.999999999999989
    vertex 341.95727100997516 14.525202624796927 5.999999999999989
  endloop
endfacet
facet normal -1.2877528231091059e-32 -1.880056826805749e-31 1.0
  outer loop
    vertex 346.5711217262878 21.76713874249785 5.999999999999989
    vertex 341.95727100997516 14.525202624796927 5.999999999999989
    vertex 343.88291872628787 15.392138742497865 5.999999999999989
  endloop
endfacet
facet normal -1.2877528231091059e-32 -1.880056826805749e-31 1.0
  outer loop
    vertex 343.88291872628787 15.392138742497865 5.999999999999989
    vertex 341.95727100997516 14.525202624796927 5.999999999999989
    vertex 343.40727100997515 13.471715959189174 5.999999999999989
  endloop
endfacet
facet normal -1.2877528231091059e-32 -1.880056826805749e-31 1.0
  outer loop
    vertex 343.88291872628787 15.392138742497865 5.999999999999989
    vertex 343.40727100997515 13.471715959189174 5.999999999999989
    vertex 343.88291872628787 12.007822813198631 5.999999999999989
  endloop
endfacet
facet normal -1.2877528231091059e-32 -1.880056826805749e-31 1.0
  outer loop
    vertex 346.5711217262878 21.76713874249785 5.999999999999989
    vertex 343.88291872628787 15.392138742497865 5.999999999999989
    vertex 346.5711217262878 15.392138742497865 5.999999999999989
  endloop
endfacet
facet normal 0.8660254037844397 0.0 0.4999999999999984
  outer loop
    vertex 347.34702022628784 15.392138742497865 1.9942442008868966e-07
    vertex 343.88291872628787 8.142138742497902 5.999999999999989
    vertex 347.34702022628784 8.142138742497902 1.9942442008868966e-07
  endloop
endfacet
facet normal 0.8660254037844397 0.0 0.4999999999999984
  outer loop
    vertex 343.88291872628787 8.142138742497902 5.999999999999989
    vertex 347.34702022628784 15.392138742497865 1.9942442008868966e-07
    vertex 343.88291872628787 11.027177822507587 5.999999999999989
  endloop
endfacet
facet normal 0.8660254037844397 0.0 0.4999999999999984
  outer loop
    vertex 343.88291872628787 11.027177822507587 5.999999999999989
    vertex 347.34702022628784 15.392138742497865 1.9942442008868966e-07
    vertex 343.88291872628787 11.526454641883433 5.999999999999989
  endloop
endfacet
facet normal 0.8660254037844397 0.0 0.4999999999999984
  outer loop
    vertex 343.88291872628787 11.526454641883433 5.999999999999989
    vertex 347.34702022628784 15.392138742497865 1.9942442008868966e-07
    vertex 343.88291872628787 12.007822813198631 5.999999999999989
  endloop
endfacet
facet normal 0.8660254037844397 0.0 0.4999999999999984
  outer loop
    vertex 343.88291872628787 12.007822813198631 5.999999999999989
    vertex 347.34702022628784 15.392138742497865 1.9942442008868966e-07
    vertex 343.88291872628787 15.392138742497865 5.999999999999989
  endloop
endfacet
facet normal -0.0 -0.0 -1.0
  outer loop
    vertex 343.9611217262878 11.767138727541035 0.0
    vertex 343.88291872628787 11.526454641883433 0.0
    vertex 343.88291872628787 12.007822813198631 0.0
  endloop
endfacet
facet normal -1.0 -0.0 -0.0
  outer loop
    vertex 343.88291872628787 12.007822813198631 5.999999999999989
    vertex 343.88291872628787 11.526454641883433 0.0
    vertex 343.88291872628787 11.526454641883433 5.999999999999989
  endloop
endfacet
facet normal -1.0 -0.0 -0.0
  outer loop
    vertex 343.88291872628787 11.526454641883433 0.0
    vertex 343.88291872628787 12.007822813198631 5.999999999999989
    vertex 343.88291872628787 12.007822813198631 0.0
  endloop
endfacet
facet normal -0.8660254037844395 5.0944934396949624e-17 0.4999999999999984
  outer loop
    vertex 358.2393247262878 11.526454641883433 5.999999999999989
    vertex 354.7752232262878 8.142138742497902 1.9942442008868966e-07
    vertex 358.2393247262878 8.142138742497902 5.999999999999989
  endloop
endfacet
facet normal -0.8660254037844395 5.0944934396949624e-17 0.4999999999999984
  outer loop
    vertex 354.7752232262878 8.142138742497902 1.9942442008868966e-07
    vertex 358.2393247262878 11.526454641883433 5.999999999999989
    vertex 354.7752232262878 15.392138742497865 1.9942442008868966e-07
  endloop
endfacet
facet normal -0.8660254037844395 5.0944934396949624e-17 0.4999999999999984
  outer loop
    vertex 354.7752232262878 15.392138742497865 1.9942442008868966e-07
    vertex 358.2393247262878 11.526454641883433 5.999999999999989
    vertex 358.2393247262878 12.007822813198631 5.999999999999989
  endloop
endfacet
facet normal -0.8660254037844395 5.0944934396949624e-17 0.4999999999999984
  outer loop
    vertex 354.7752232262878 15.392138742497865 1.9942442008868966e-07
    vertex 358.2393247262878 12.007822813198631 5.999999999999989
    vertex 358.2393247262878 15.392138742497865 5.999999999999989
  endloop
endfacet
facet normal 3.60595691028384e-14 -1.8399469910267458e-44 -1.0
  outer loop
    vertex 358.2393247262878 11.526454641883433 2.8199664825478975e-15
    vertex 358.16112172628783 11.767138727541035 0.0
    vertex 358.2393247262878 12.007822813198631 2.8199664825478975e-15
  endloop
endfacet
facet normal 1.0 0.0 0.0
  outer loop
    vertex 358.2393247262878 12.007822813198631 2.8199664825478975e-15
    vertex 358.2393247262878 11.526454641883433 5.999999999999989
    vertex 358.2393247262878 11.526454641883433 2.8199664825478975e-15
  endloop
endfacet
facet normal 1.0 0.0 0.0
  outer loop
    vertex 358.2393247262878 11.526454641883433 5.999999999999989
    vertex 358.2393247262878 12.007822813198631 2.8199664825478975e-15
    vertex 358.2393247262878 12.007822813198631 5.999999999999989
  endloop
endfacet
facet normal -1.5809218586121485e-26 1.0 5.242765488110915e-10
  outer loop
    vertex 334.06112172628787 21.76713874249785 0.0
    vertex 351.0611217262878 21.76713874249785 1.5099999999999905
    vertex 368.06112172628775 21.76713874249785 0.0
  endloop
endfacet
facet normal -1.5809218586121485e-26 1.0 5.242765488110915e-10
  outer loop
    vertex 351.0611217262878 21.76713874249785 1.5099999999999905
    vertex 334.06112172628787 21.76713874249785 0.0
    vertex 349.34287311496854 21.76713874249785 1.8517808990243187
  endloop
endfacet
facet normal -1.5809218586121485e-26 1.0 5.242765488110915e-10
  outer loop
    vertex 349.34287311496854 21.76713874249785 1.8517808990243187
    vertex 334.06112172628787 21.76713874249785 0.0
    vertex 334.06112172628787 21.767138736515097 5.999999999999989
  endloop
endfacet
facet normal -1.5809218586121485e-26 1.0 5.242765488110915e-10
  outer loop
    vertex 349.34287311496854 21.76713874249785 1.8517808990243187
    vertex 334.06112172628787 21.767138736515097 5.999999999999989
    vertex 347.8862122787602 21.76713874249785 2.82509055247242
  endloop
endfacet
facet normal -1.5809218586121485e-26 1.0 5.242765488110915e-10
  outer loop
    vertex 347.8862122787602 21.76713874249785 2.82509055247242
    vertex 334.06112172628787 21.767138736515097 5.999999999999989
    vertex 346.91290262531214 21.76713874249785 4.281751388680715
  endloop
endfacet
facet normal -1.5809218586121485e-26 1.0 5.242765488110915e-10
  outer loop
    vertex 346.91290262531214 21.76713874249785 4.281751388680715
    vertex 334.06112172628787 21.767138736515097 5.999999999999989
    vertex 346.5711217262878 21.76713874249785 5.999999999999989
  endloop
endfacet
facet normal -1.5809218586121485e-26 1.0 5.242765488110915e-10
  outer loop
    vertex 368.06112172628775 21.76713874249785 0.0
    vertex 352.779370337607 21.76713874249785 1.8517808990243187
    vertex 368.06112172628775 21.767138736515097 5.999999999999989
  endloop
endfacet
facet normal -1.5809218586121485e-26 1.0 5.242765488110915e-10
  outer loop
    vertex 352.779370337607 21.76713874249785 1.8517808990243187
    vertex 368.06112172628775 21.76713874249785 0.0
    vertex 351.0611217262878 21.76713874249785 1.5099999999999905
  endloop
endfacet
facet normal -1.5809218586121485e-26 1.0 5.242765488110915e-10
  outer loop
    vertex 368.06112172628775 21.767138736515097 5.999999999999989
    vertex 352.779370337607 21.76713874249785 1.8517808990243187
    vertex 354.2360311738154 21.76713874249785 2.82509055247242
  endloop
endfacet
facet normal -1.5809218586121485e-26 1.0 5.242765488110915e-10
  outer loop
    vertex 368.06112172628775 21.767138736515097 5.999999999999989
    vertex 354.2360311738154 21.76713874249785 2.82509055247242
    vertex 355.2093408272635 21.76713874249785 4.28175138868076
  endloop
endfacet
facet normal -1.5809218586121485e-26 1.0 5.242765488110915e-10
  outer loop
    vertex 368.06112172628775 21.767138736515097 5.999999999999989
    vertex 355.2093408272635 21.76713874249785 4.28175138868076
    vertex 355.55112172628776 21.76713874249785 5.999999999999989
  endloop
endfacet
endsolid m8NutBlock
