solid m8NutBlock
facet normal 0.0 1.0 0.0
  outer loop
    vertex 40.4248262369476 21.070391820970084 0.0
    vertex 57.42482623694761 21.070391820970087 1.5100000000000002
    vertex 74.4248262369476 21.070391820970084 0.0
  endloop
endfacet
facet normal 0.0 1.0 0.0
  outer loop
    vertex 57.42482623694761 21.070391820970087 1.5100000000000002
    vertex 40.4248262369476 21.070391820970084 0.0
    vertex 55.706577625628356 21.070391820970087 1.851780899024323
  endloop
endfacet
facet normal 0.0 1.0 0.0
  outer loop
    vertex 55.706577625628356 21.070391820970087 1.851780899024323
    vertex 40.4248262369476 21.070391820970084 0.0
    vertex 54.249916789420006 21.070391820970087 2.825090552472401
  endloop
endfacet
facet normal 0.0 1.0 0.0
  outer loop
    vertex 54.249916789420006 21.070391820970087 2.825090552472401
    vertex 40.4248262369476 21.070391820970084 0.0
    vertex 40.4248262369476 21.070391806013248 15.0
  endloop
endfacet
facet normal 0.0 1.0 0.0
  outer loop
    vertex 54.249916789420006 21.070391820970087 2.825090552472401
    vertex 40.4248262369476 21.070391806013248 15.0
    vertex 53.27660713597193 21.070391820970087 4.281751388680745
  endloop
endfacet
facet normal 0.0 1.0 0.0
  outer loop
    vertex 53.27660713597193 21.070391820970087 4.281751388680745
    vertex 40.4248262369476 21.070391806013248 15.0
    vertex 52.93482623694761 21.070391820970087 6.0
  endloop
endfacet
facet normal 0.0 1.0 0.0
  outer loop
    vertex 52.93482623694761 21.070391820970087 6.0
    vertex 40.4248262369476 21.070391806013248 15.0
    vertex 53.27660713597193 21.070391820970087 7.718248611319254
  endloop
endfacet
facet normal 0.0 1.0 0.0
  outer loop
    vertex 53.27660713597193 21.070391820970087 7.718248611319254
    vertex 40.4248262369476 21.070391806013248 15.0
    vertex 54.249916789420006 21.070391820970087 9.174909447527599
  endloop
endfacet
facet normal 0.0 1.0 0.0
  outer loop
    vertex 54.249916789420006 21.070391820970087 9.174909447527599
    vertex 40.4248262369476 21.070391806013248 15.0
    vertex 55.706577625628356 21.070391820970087 10.148219100975677
  endloop
endfacet
facet normal 0.0 1.0 0.0
  outer loop
    vertex 55.706577625628356 21.070391820970087 10.148219100975677
    vertex 40.4248262369476 21.070391806013248 15.0
    vertex 57.42482623694761 21.070391820970087 10.49
  endloop
endfacet
facet normal 0.0 1.0 0.0
  outer loop
    vertex 74.4248262369476 21.070391820970084 0.0
    vertex 60.5997356844752 21.070391820970087 2.8250905524724024
    vertex 74.4248262369476 21.070391806013248 15.0
  endloop
endfacet
facet normal 0.0 1.0 0.0
  outer loop
    vertex 60.5997356844752 21.070391820970087 2.8250905524724024
    vertex 74.4248262369476 21.070391820970084 0.0
    vertex 59.143074848266856 21.070391820970087 1.8517808990243239
  endloop
endfacet
facet normal 0.0 1.0 0.0
  outer loop
    vertex 59.143074848266856 21.070391820970087 1.8517808990243239
    vertex 74.4248262369476 21.070391820970084 0.0
    vertex 57.42482623694761 21.070391820970087 1.5100000000000002
  endloop
endfacet
facet normal 0.0 1.0 0.0
  outer loop
    vertex 74.4248262369476 21.070391806013248 15.0
    vertex 60.5997356844752 21.070391820970087 2.8250905524724024
    vertex 61.573045337923276 21.070391820970087 4.281751388680748
  endloop
endfacet
facet normal 0.0 1.0 0.0
  outer loop
    vertex 74.4248262369476 21.070391806013248 15.0
    vertex 61.573045337923276 21.070391820970087 4.281751388680748
    vertex 61.914826236947604 21.070391820970087 6.000000000000001
  endloop
endfacet
facet normal 0.0 1.0 0.0
  outer loop
    vertex 74.4248262369476 21.070391806013248 15.0
    vertex 61.914826236947604 21.070391820970087 6.000000000000001
    vertex 61.573045337923276 21.070391820970087 7.718248611319254
  endloop
endfacet
facet normal 0.0 1.0 0.0
  outer loop
    vertex 74.4248262369476 21.070391806013248 15.0
    vertex 61.573045337923276 21.070391820970087 7.718248611319254
    vertex 60.5997356844752 21.070391820970087 9.174909447527599
  endloop
endfacet
facet normal 0.0 1.0 0.0
  outer loop
    vertex 74.4248262369476 21.070391806013248 15.0
    vertex 60.5997356844752 21.070391820970087 9.174909447527599
    vertex 59.143074848266856 21.070391820970087 10.148219100975677
  endloop
endfacet
facet normal 0.0 1.0 0.0
  outer loop
    vertex 74.4248262369476 21.070391806013248 15.0
    vertex 59.143074848266856 21.070391820970087 10.148219100975677
    vertex 57.42482623694761 21.070391820970087 10.49
  endloop
endfacet
facet normal 0.0 1.0 0.0
  outer loop
    vertex 74.4248262369476 21.070391806013248 15.0
    vertex 57.42482623694761 21.070391820970087 10.49
    vertex 40.4248262369476 21.070391806013248 15.0
  endloop
endfacet
facet normal 1.0 0.0 0.0
  outer loop
    vertex 74.42482623670105 14.570391821301715 9.106620951053434e-09
    vertex 74.4248262369476 21.070391806013248 15.0
    vertex 74.42482623670105 14.570391806344885 15.00000000910662
  endloop
endfacet
facet normal 1.0 0.0 0.0
  outer loop
    vertex 74.4248262369476 21.070391806013248 15.0
    vertex 74.42482623670105 14.570391821301715 9.106620951053434e-09
    vertex 74.4248262369476 21.070391820970084 0.0
  endloop
endfacet
facet normal -2.3933601423801233e-11 -1.0 -1.381807121941927e-11
  outer loop
    vertex 60.88892773669177 11.070391821301717 2.061671943860582e-07
    vertex 59.143074848266856 11.070391820970082 1.8517808990243239
    vertex 57.42482623694761 11.070391820970082 1.5100000000000002
  endloop
endfacet
facet normal -2.3933601423801233e-11 -1.0 -1.381807121941927e-11
  outer loop
    vertex 59.143074848266856 11.070391820970082 1.8517808990243239
    vertex 60.88892773669177 11.070391821301717 2.061671943860582e-07
    vertex 60.5997356844752 11.070391820970082 2.8250905524724024
  endloop
endfacet
facet normal -2.3933601423801233e-11 -1.0 -1.381807121941927e-11
  outer loop
    vertex 60.5997356844752 11.070391820970082 2.8250905524724024
    vertex 60.88892773669177 11.070391821301717 2.061671943860582e-07
    vertex 64.3530292369476 11.070391820970082 6.0
  endloop
endfacet
facet normal -2.3933601423801233e-11 -1.0 -1.381807121941927e-11
  outer loop
    vertex 60.5997356844752 11.070391820970082 2.8250905524724024
    vertex 64.3530292369476 11.070391820970082 6.0
    vertex 61.573045337923276 11.070391820970082 4.281751388680748
  endloop
endfacet
facet normal -2.3933601423801233e-11 -1.0 -1.381807121941927e-11
  outer loop
    vertex 61.573045337923276 11.070391820970082 4.281751388680748
    vertex 64.3530292369476 11.070391820970082 6.0
    vertex 61.914826236947604 11.070391820970082 6.000000000000001
  endloop
endfacet
facet normal -2.3933601423801233e-11 -1.0 -1.381807121941927e-11
  outer loop
    vertex 61.914826236947604 11.070391820970082 6.000000000000001
    vertex 64.3530292369476 11.070391820970082 6.0
    vertex 60.8889277369476 11.070391820970082 11.99999980057556
  endloop
endfacet
facet normal -2.3933601423801233e-11 -1.0 -1.381807121941927e-11
  outer loop
    vertex 61.914826236947604 11.070391820970082 6.000000000000001
    vertex 60.8889277369476 11.070391820970082 11.99999980057556
    vertex 61.573045337923276 11.070391820970082 7.718248611319254
  endloop
endfacet
facet normal -2.3933601423801233e-11 -1.0 -1.381807121941927e-11
  outer loop
    vertex 61.573045337923276 11.070391820970082 7.718248611319254
    vertex 60.8889277369476 11.070391820970082 11.99999980057556
    vertex 60.5997356844752 11.070391820970082 9.174909447527599
  endloop
endfacet
facet normal -2.3933601423801233e-11 -1.0 -1.381807121941927e-11
  outer loop
    vertex 60.5997356844752 11.070391820970082 9.174909447527599
    vertex 60.8889277369476 11.070391820970082 11.99999980057556
    vertex 59.143074848266856 11.070391820970082 10.148219100975677
  endloop
endfacet
facet normal -2.3933601423801233e-11 -1.0 -1.381807121941927e-11
  outer loop
    vertex 59.143074848266856 11.070391820970082 10.148219100975677
    vertex 60.8889277369476 11.070391820970082 11.99999980057556
    vertex 57.42482623694761 11.070391820970082 10.49
  endloop
endfacet
facet normal -2.3933601423801233e-11 -1.0 -1.381807121941927e-11
  outer loop
    vertex 53.96072473669178 11.070391821301717 2.061671936810666e-07
    vertex 54.249916789420006 11.070391820970082 2.825090552472401
    vertex 50.49662323669177 11.070391821301717 6.000000006742752
  endloop
endfacet
facet normal -2.3933601423801233e-11 -1.0 -1.381807121941927e-11
  outer loop
    vertex 54.249916789420006 11.070391820970082 2.825090552472401
    vertex 53.96072473669178 11.070391821301717 2.061671936810666e-07
    vertex 55.706577625628356 11.070391820970082 1.851780899024323
  endloop
endfacet
facet normal -2.3933601423801233e-11 -1.0 -1.381807121941927e-11
  outer loop
    vertex 55.706577625628356 11.070391820970082 1.851780899024323
    vertex 53.96072473669178 11.070391821301717 2.061671936810666e-07
    vertex 60.88892773669177 11.070391821301717 2.061671943860582e-07
  endloop
endfacet
facet normal -2.3933601423801233e-11 -1.0 -1.381807121941927e-11
  outer loop
    vertex 55.706577625628356 11.070391820970082 1.851780899024323
    vertex 60.88892773669177 11.070391821301717 2.061671943860582e-07
    vertex 57.42482623694761 11.070391820970082 1.5100000000000002
  endloop
endfacet
facet normal -2.3933601423801233e-11 -1.0 -1.381807121941927e-11
  outer loop
    vertex 50.49662323669177 11.070391821301717 6.000000006742752
    vertex 54.249916789420006 11.070391820970082 2.825090552472401
    vertex 53.27660713597193 11.070391820970082 4.281751388680745
  endloop
endfacet
facet normal -2.3933601423801233e-11 -1.0 -1.381807121941927e-11
  outer loop
    vertex 50.49662323669177 11.070391821301717 6.000000006742752
    vertex 53.27660713597193 11.070391820970082 4.281751388680745
    vertex 52.93482623694761 11.070391820970082 6.0
  endloop
endfacet
facet normal -2.3933601423801233e-11 -1.0 -1.381807121941927e-11
  outer loop
    vertex 50.49662323669177 11.070391821301717 6.000000006742752
    vertex 52.93482623694761 11.070391820970082 6.0
    vertex 53.27660713597193 11.070391820970082 7.718248611319254
  endloop
endfacet
facet normal -2.3933601423801233e-11 -1.0 -1.381807121941927e-11
  outer loop
    vertex 50.49662323669177 11.070391821301717 6.000000006742752
    vertex 53.27660713597193 11.070391820970082 7.718248611319254
    vertex 53.96072473669178 11.070391821301717 11.999999807318302
  endloop
endfacet
facet normal -2.3933601423801233e-11 -1.0 -1.381807121941927e-11
  outer loop
    vertex 53.96072473669178 11.070391821301717 11.999999807318302
    vertex 53.27660713597193 11.070391820970082 7.718248611319254
    vertex 54.249916789420006 11.070391820970082 9.174909447527599
  endloop
endfacet
facet normal -2.3933601423801233e-11 -1.0 -1.381807121941927e-11
  outer loop
    vertex 53.96072473669178 11.070391821301717 11.999999807318302
    vertex 54.249916789420006 11.070391820970082 9.174909447527599
    vertex 55.706577625628356 11.070391820970082 10.148219100975677
  endloop
endfacet
facet normal -2.3933601423801233e-11 -1.0 -1.381807121941927e-11
  outer loop
    vertex 53.96072473669178 11.070391821301717 11.999999807318302
    vertex 55.706577625628356 11.070391820970082 10.148219100975677
    vertex 57.42482623694761 11.070391820970082 10.49
  endloop
endfacet
facet normal -2.3933601423801233e-11 -1.0 -1.381807121941927e-11
  outer loop
    vertex 53.96072473669178 11.070391821301717 11.999999807318302
    vertex 57.42482623694761 11.070391820970082 10.49
    vertex 60.8889277369476 11.070391820970082 11.99999980057556
  endloop
endfacet
facet normal 2.0696302815906364e-18 -1.0645497218413835e-08 -1.0
  outer loop
    vertex 40.4248262369476 21.070391820970084 0.0
    vertex 53.96072473670106 14.570391821301715 2.0853106430446652e-07
    vertex 40.424826236701044 14.570391821301715 9.106620951053434e-09
  endloop
endfacet
facet normal 2.0696302815906364e-18 -1.0645497218413835e-08 -1.0
  outer loop
    vertex 53.96072473670106 14.570391821301715 2.0853106430446652e-07
    vertex 40.4248262369476 21.070391820970084 0.0
    vertex 74.4248262369476 21.070391820970084 0.0
  endloop
endfacet
facet normal 2.0696302815906364e-18 -1.0645497218413835e-08 -1.0
  outer loop
    vertex 53.96072473670106 14.570391821301715 2.0853106430446652e-07
    vertex 74.4248262369476 21.070391820970084 0.0
    vertex 60.888927736701056 14.570391821301715 2.0853106500945816e-07
  endloop
endfacet
facet normal 2.0696302815906364e-18 -1.0645497218413835e-08 -1.0
  outer loop
    vertex 53.96072473670106 14.570391821301715 2.0853106430446652e-07
    vertex 60.888927736701056 14.570391821301715 2.0853106500945816e-07
    vertex 60.88892773669177 11.070391821301717 2.061671943860582e-07
  endloop
endfacet
facet normal 2.0696302815906364e-18 -1.0645497218413835e-08 -1.0
  outer loop
    vertex 60.888927736701056 14.570391821301715 2.0853106500945816e-07
    vertex 74.4248262369476 21.070391820970084 0.0
    vertex 74.42482623670105 14.570391821301715 9.106620951053434e-09
  endloop
endfacet
facet normal 2.0696302815906364e-18 -1.0645497218413835e-08 -1.0
  outer loop
    vertex 60.88892773669177 11.070391821301717 2.061671943860582e-07
    vertex 53.96072473669178 11.070391821301717 2.061671936810666e-07
    vertex 53.96072473670106 14.570391821301715 2.0853106430446652e-07
  endloop
endfacet
facet normal -0.8314696123025453 0.0 0.555570233019602
  outer loop
    vertex 61.573045337923276 21.070391820970087 4.281751388680748
    vertex 60.5997356844752 11.070391820970082 2.8250905524724024
    vertex 61.573045337923276 11.070391820970082 4.281751388680748
  endloop
endfacet
facet normal -0.8314696123025453 0.0 0.555570233019602
  outer loop
    vertex 60.5997356844752 11.070391820970082 2.8250905524724024
    vertex 61.573045337923276 21.070391820970087 4.281751388680748
    vertex 60.5997356844752 21.070391820970087 2.8250905524724024
  endloop
endfacet
facet normal -1.0 0.0 0.0
  outer loop
    vertex 40.4248262369476 21.070391806013248 15.0
    vertex 40.424826236701044 14.570391821301715 9.106620951053434e-09
    vertex 40.424826236701044 14.570391806344885 15.00000000910662
  endloop
endfacet
facet normal -1.0 0.0 0.0
  outer loop
    vertex 40.424826236701044 14.570391821301715 9.106620951053434e-09
    vertex 40.4248262369476 21.070391806013248 15.0
    vertex 40.4248262369476 21.070391820970084 0.0
  endloop
endfacet
facet normal -0.9807852804032305 0.0 0.19509032201612841
  outer loop
    vertex 61.914826236947604 21.070391820970087 6.000000000000001
    vertex 61.573045337923276 11.070391820970082 4.281751388680748
    vertex 61.914826236947604 11.070391820970082 6.000000000000001
  endloop
endfacet
facet normal -0.9807852804032305 0.0 0.19509032201612841
  outer loop
    vertex 61.573045337923276 11.070391820970082 4.281751388680748
    vertex 61.914826236947604 21.070391820970087 6.000000000000001
    vertex 61.573045337923276 21.070391820970087 4.281751388680748
  endloop
endfacet
facet normal -0.19509032201612833 -0.0 -0.9807852804032305
  outer loop
    vertex 59.143074848266856 21.070391820970087 10.148219100975677
    vertex 57.42482623694761 11.070391820970082 10.49
    vertex 57.42482623694761 21.070391820970087 10.49
  endloop
endfacet
facet normal -0.19509032201612833 -0.0 -0.9807852804032305
  outer loop
    vertex 57.42482623694761 11.070391820970082 10.49
    vertex 59.143074848266856 21.070391820970087 10.148219100975677
    vertex 59.143074848266856 11.070391820970082 10.148219100975677
  endloop
endfacet
facet normal -0.8314696123025445 -0.0 -0.5555702330196034
  outer loop
    vertex 60.5997356844752 21.070391820970087 9.174909447527599
    vertex 61.573045337923276 11.070391820970082 7.718248611319254
    vertex 60.5997356844752 11.070391820970082 9.174909447527599
  endloop
endfacet
facet normal -0.8314696123025445 -0.0 -0.5555702330196034
  outer loop
    vertex 61.573045337923276 11.070391820970082 7.718248611319254
    vertex 60.5997356844752 21.070391820970087 9.174909447527599
    vertex 61.573045337923276 21.070391820970087 7.718248611319254
  endloop
endfacet
facet normal 0.8660254035251411 3.3539987807275084e-10 -0.5000000004491166
  outer loop
    vertex 60.88892773669177 11.070391821301717 2.061671943860582e-07
    vertex 64.35302923695689 14.570391820970082 6.000000002363871
    vertex 64.3530292369476 11.070391820970082 6.0
  endloop
endfacet
facet normal 0.8660254035251411 3.3539987807275084e-10 -0.5000000004491166
  outer loop
    vertex 64.35302923695689 14.570391820970082 6.000000002363871
    vertex 60.88892773669177 11.070391821301717 2.061671943860582e-07
    vertex 60.888927736701056 14.570391821301715 2.0853106500945816e-07
  endloop
endfacet
facet normal 0.5555702330196023 0.0 0.8314696123025451
  outer loop
    vertex 55.706577625628356 11.070391820970082 1.851780899024323
    vertex 54.249916789420006 21.070391820970087 2.825090552472401
    vertex 54.249916789420006 11.070391820970082 2.825090552472401
  endloop
endfacet
facet normal 0.5555702330196023 0.0 0.8314696123025451
  outer loop
    vertex 54.249916789420006 21.070391820970087 2.825090552472401
    vertex 55.706577625628356 11.070391820970082 1.851780899024323
    vertex 55.706577625628356 21.070391820970087 1.851780899024323
  endloop
endfacet
facet normal 0.9807852804032305 0.0 -0.19509032201612753
  outer loop
    vertex 52.93482623694761 21.070391820970087 6.0
    vertex 53.27660713597193 11.070391820970082 7.718248611319254
    vertex 52.93482623694761 11.070391820970082 6.0
  endloop
endfacet
facet normal 0.9807852804032305 0.0 -0.19509032201612753
  outer loop
    vertex 53.27660713597193 11.070391820970082 7.718248611319254
    vertex 52.93482623694761 21.070391820970087 6.0
    vertex 53.27660713597193 21.070391820970087 7.718248611319254
  endloop
endfacet
facet normal 0.555570233019602 0.0 -0.8314696123025456
  outer loop
    vertex 55.706577625628356 21.070391820970087 10.148219100975677
    vertex 54.249916789420006 11.070391820970082 9.174909447527599
    vertex 54.249916789420006 21.070391820970087 9.174909447527599
  endloop
endfacet
facet normal 0.555570233019602 0.0 -0.8314696123025456
  outer loop
    vertex 54.249916789420006 11.070391820970082 9.174909447527599
    vertex 55.706577625628356 21.070391820970087 10.148219100975677
    vertex 55.706577625628356 11.070391820970082 10.148219100975677
  endloop
endfacet
facet normal -2.6511064965066684e-12 -1.0 -6.753916066856932e-10
  outer loop
    vertex 74.42482623670105 14.570391806344885 15.00000000910662
    vertex 60.888927736701056 14.570391821301715 2.0853106500945816e-07
    vertex 74.42482623670105 14.570391821301715 9.106620951053434e-09
  endloop
endfacet
facet normal -2.6511064965066684e-12 -1.0 -6.753916066856932e-10
  outer loop
    vertex 60.888927736701056 14.570391821301715 2.0853106500945816e-07
    vertex 74.42482623670105 14.570391806344885 15.00000000910662
    vertex 64.35302923695689 14.570391820970082 6.000000002363871
  endloop
endfacet
facet normal -2.6511064965066684e-12 -1.0 -6.753916066856932e-10
  outer loop
    vertex 64.35302923695689 14.570391820970082 6.000000002363871
    vertex 74.42482623670105 14.570391806344885 15.00000000910662
    vertex 60.88892773695688 14.570391820970082 11.999999802939431
  endloop
endfacet
facet normal -2.6511064965066684e-12 -1.0 -6.753916066856932e-10
  outer loop
    vertex 60.88892773695688 14.570391820970082 11.999999802939431
    vertex 74.42482623670105 14.570391806344885 15.00000000910662
    vertex 53.96072473670106 14.570391821301715 11.999999809682173
  endloop
endfacet
facet normal -2.6511064965066684e-12 -1.0 -6.753916066856932e-10
  outer loop
    vertex 53.96072473670106 14.570391821301715 2.0853106430446652e-07
    vertex 40.424826236701044 14.570391806344885 15.00000000910662
    vertex 40.424826236701044 14.570391821301715 9.106620951053434e-09
  endloop
endfacet
facet normal -2.6511064965066684e-12 -1.0 -6.753916066856932e-10
  outer loop
    vertex 40.424826236701044 14.570391806344885 15.00000000910662
    vertex 53.96072473670106 14.570391821301715 2.0853106430446652e-07
    vertex 50.49662323670105 14.570391821301715 6.000000009106623
  endloop
endfacet
facet normal -2.6511064965066684e-12 -1.0 -6.753916066856932e-10
  outer loop
    vertex 40.424826236701044 14.570391806344885 15.00000000910662
    vertex 50.49662323670105 14.570391821301715 6.000000009106623
    vertex 53.96072473670106 14.570391821301715 11.999999809682173
  endloop
endfacet
facet normal -2.6511064965066684e-12 -1.0 -6.753916066856932e-10
  outer loop
    vertex 40.424826236701044 14.570391806344885 15.00000000910662
    vertex 53.96072473670106 14.570391821301715 11.999999809682173
    vertex 74.42482623670105 14.570391806344885 15.00000000910662
  endloop
endfacet
facet normal 0.19509032201612833 0.0 -0.9807852804032305
  outer loop
    vertex 57.42482623694761 21.070391820970087 10.49
    vertex 55.706577625628356 11.070391820970082 10.148219100975677
    vertex 55.706577625628356 21.070391820970087 10.148219100975677
  endloop
endfacet
facet normal 0.19509032201612833 0.0 -0.9807852804032305
  outer loop
    vertex 55.706577625628356 11.070391820970082 10.148219100975677
    vertex 57.42482623694761 21.070391820970087 10.49
    vertex 57.42482623694761 11.070391820970082 10.49
  endloop
endfacet
facet normal 9.732309354824865e-10 -6.753916066882734e-10 1.0
  outer loop
    vertex 60.8889277369476 11.070391820970082 11.99999980057556
    vertex 53.96072473670106 14.570391821301715 11.999999809682173
    vertex 53.96072473669178 11.070391821301717 11.999999807318302
  endloop
endfacet
facet normal 9.732309354824865e-10 -6.753916066882734e-10 1.0
  outer loop
    vertex 53.96072473670106 14.570391821301715 11.999999809682173
    vertex 60.8889277369476 11.070391820970082 11.99999980057556
    vertex 60.88892773695688 14.570391820970082 11.999999802939431
  endloop
endfacet
facet normal 0.19509032201612833 0.0 0.9807852804032305
  outer loop
    vertex 57.42482623694761 11.070391820970082 1.5100000000000002
    vertex 55.706577625628356 21.070391820970087 1.851780899024323
    vertex 55.706577625628356 11.070391820970082 1.851780899024323
  endloop
endfacet
facet normal 0.19509032201612833 0.0 0.9807852804032305
  outer loop
    vertex 55.706577625628356 21.070391820970087 1.851780899024323
    vertex 57.42482623694761 11.070391820970082 1.5100000000000002
    vertex 57.42482623694761 21.070391820970087 1.5100000000000002
  endloop
endfacet
facet normal 0.9807852804032303 0.0 0.19509032201612891
  outer loop
    vertex 53.27660713597193 21.070391820970087 4.281751388680745
    vertex 52.93482623694761 11.070391820970082 6.0
    vertex 53.27660713597193 11.070391820970082 4.281751388680745
  endloop
endfacet
facet normal 0.9807852804032303 0.0 0.19509032201612891
  outer loop
    vertex 52.93482623694761 11.070391820970082 6.0
    vertex 53.27660713597193 21.070391820970087 4.281751388680745
    vertex 52.93482623694761 21.070391820970087 6.0
  endloop
endfacet
facet normal 0.8314696123025452 0.0 -0.5555702330196023
  outer loop
    vertex 53.27660713597193 21.070391820970087 7.718248611319254
    vertex 54.249916789420006 11.070391820970082 9.174909447527599
    vertex 53.27660713597193 11.070391820970082 7.718248611319254
  endloop
endfacet
facet normal 0.8314696123025452 0.0 -0.5555702330196023
  outer loop
    vertex 54.249916789420006 11.070391820970082 9.174909447527599
    vertex 53.27660713597193 21.070391820970087 7.718248611319254
    vertex 54.249916789420006 21.070391820970087 9.174909447527599
  endloop
endfacet
facet normal -0.9807852804032305 -0.0 -0.19509032201612841
  outer loop
    vertex 61.573045337923276 21.070391820970087 7.718248611319254
    vertex 61.914826236947604 11.070391820970082 6.000000000000001
    vertex 61.573045337923276 11.070391820970082 7.718248611319254
  endloop
endfacet
facet normal -0.9807852804032305 -0.0 -0.19509032201612841
  outer loop
    vertex 61.914826236947604 11.070391820970082 6.000000000000001
    vertex 61.573045337923276 21.070391820970087 7.718248611319254
    vertex 61.914826236947604 21.070391820970087 6.000000000000001
  endloop
endfacet
facet normal 0.0 0.0 1.0
  outer loop
    vertex 74.42482623670105 14.570391806344885 15.00000000910662
    vertex 40.4248262369476 21.070391806013248 15.0
    vertex 40.424826236701044 14.570391806344885 15.00000000910662
  endloop
endfacet
facet normal 0.0 0.0 1.0
  outer loop
    vertex 40.4248262369476 21.070391806013248 15.0
    vertex 74.42482623670105 14.570391806344885 15.00000000910662
    vertex 74.4248262369476 21.070391806013248 15.0
  endloop
endfacet
facet normal 0.8660254037844387 -3.3999172891695954e-10 0.5000000000000003
  outer loop
    vertex 64.35302923695689 14.570391820970082 6.000000002363871
    vertex 60.8889277369476 11.070391820970082 11.99999980057556
    vertex 64.3530292369476 11.070391820970082 6.0
  endloop
endfacet
facet normal 0.8660254037844387 -3.3999172891695954e-10 0.5000000000000003
  outer loop
    vertex 60.8889277369476 11.070391820970082 11.99999980057556
    vertex 64.35302923695689 14.570391820970082 6.000000002363871
    vertex 60.88892773695688 14.570391820970082 11.999999802939431
  endloop
endfacet
facet normal -0.8660254037844382 3.3999172891696e-10 -0.500000000000001
  outer loop
    vertex 50.49662323670105 14.570391821301715 6.000000009106623
    vertex 53.96072473669178 11.070391821301717 2.061671936810666e-07
    vertex 50.49662323669177 11.070391821301717 6.000000006742752
  endloop
endfacet
facet normal -0.8660254037844382 3.3999172891696e-10 -0.500000000000001
  outer loop
    vertex 53.96072473669178 11.070391821301717 2.061671936810666e-07
    vertex 50.49662323670105 14.570391821301715 6.000000009106623
    vertex 53.96072473670106 14.570391821301715 2.0853106430446652e-07
  endloop
endfacet
facet normal -0.5555702330196026 -0.0 -0.831469612302545
  outer loop
    vertex 60.5997356844752 21.070391820970087 9.174909447527599
    vertex 59.143074848266856 11.070391820970082 10.148219100975677
    vertex 59.143074848266856 21.070391820970087 10.148219100975677
  endloop
endfacet
facet normal -0.5555702330196026 -0.0 -0.831469612302545
  outer loop
    vertex 59.143074848266856 11.070391820970082 10.148219100975677
    vertex 60.5997356844752 21.070391820970087 9.174909447527599
    vertex 60.5997356844752 11.070391820970082 9.174909447527599
  endloop
endfacet
facet normal 0.831469612302545 0.0 0.5555702330196024
  outer loop
    vertex 54.249916789420006 21.070391820970087 2.825090552472401
    vertex 53.27660713597193 11.070391820970082 4.281751388680745
    vertex 54.249916789420006 11.070391820970082 2.825090552472401
  endloop
endfacet
facet normal 0.831469612302545 0.0 0.5555702330196024
  outer loop
    vertex 53.27660713597193 11.070391820970082 4.281751388680745
    vertex 54.249916789420006 21.070391820970087 2.825090552472401
    vertex 53.27660713597193 21.070391820970087 4.281751388680745
  endloop
endfacet
facet normal -0.5555702330196025 0.0 0.8314696123025451
  outer loop
    vertex 60.5997356844752 11.070391820970082 2.8250905524724024
    vertex 59.143074848266856 21.070391820970087 1.8517808990243239
    vertex 59.143074848266856 11.070391820970082 1.8517808990243239
  endloop
endfacet
facet normal -0.5555702330196025 0.0 0.8314696123025451
  outer loop
    vertex 59.143074848266856 21.070391820970087 1.8517808990243239
    vertex 60.5997356844752 11.070391820970082 2.8250905524724024
    vertex 60.5997356844752 21.070391820970087 2.8250905524724024
  endloop
endfacet
facet normal -0.8660254037844378 -3.353998777687348e-10 0.5000000000000016
  outer loop
    vertex 53.96072473670106 14.570391821301715 11.999999809682173
    vertex 50.49662323669177 11.070391821301717 6.000000006742752
    vertex 53.96072473669178 11.070391821301717 11.999999807318302
  endloop
endfacet
facet normal -0.8660254037844378 -3.353998777687348e-10 0.5000000000000016
  outer loop
    vertex 50.49662323669177 11.070391821301717 6.000000006742752
    vertex 53.96072473670106 14.570391821301715 11.999999809682173
    vertex 50.49662323670105 14.570391821301715 6.000000009106623
  endloop
endfacet
facet normal -0.19509032201612844 0.0 0.9807852804032305
  outer loop
    vertex 59.143074848266856 11.070391820970082 1.8517808990243239
    vertex 57.42482623694761 21.070391820970087 1.5100000000000002
    vertex 57.42482623694761 11.070391820970082 1.5100000000000002
  endloop
endfacet
facet normal -0.19509032201612844 0.0 0.9807852804032305
  outer loop
    vertex 57.42482623694761 21.070391820970087 1.5100000000000002
    vertex 59.143074848266856 11.070391820970082 1.8517808990243239
    vertex 59.143074848266856 21.070391820970087 1.8517808990243239
  endloop
endfacet
endsolid m8NutBlock
