solid boardspacer
facet normal -0.0 -1.0 -0.0
  outer loop
    vertex -147.7433663276988 -110.87609119194195 9.0
    vertex -148.7433663276988 -110.87609119194195 0.0
    vertex -147.7433663276988 -110.87609119194195 0.0
  endloop
endfacet
facet normal -0.0 -1.0 -0.0
  outer loop
    vertex -148.7433663276988 -110.87609119194195 0.0
    vertex -147.7433663276988 -110.87609119194195 9.0
    vertex -148.7433663276988 -110.87609119194195 9.0
  endloop
endfacet
facet normal 0.0 1.0 0.0
  outer loop
    vertex -148.7433663276988 -100.87609119194195 9.0
    vertex -137.7433663276988 -100.87609119194195 0.0
    vertex -148.7433663276988 -100.87609119194195 0.0
  endloop
endfacet
facet normal 0.0 1.0 0.0
  outer loop
    vertex -137.7433663276988 -100.87609119194195 0.0
    vertex -148.7433663276988 -100.87609119194195 9.0
    vertex -137.7433663276988 -100.87609119194195 9.0
  endloop
endfacet
facet normal -1.0 -0.0 -0.0
  outer loop
    vertex -147.7433663276988 -110.87609119194195 9.0
    vertex -147.7433663276988 -115.37609119194197 0.0
    vertex -147.7433663276988 -115.37609119194197 9.0
  endloop
endfacet
facet normal -1.0 -0.0 -0.0
  outer loop
    vertex -147.7433663276988 -115.37609119194197 0.0
    vertex -147.7433663276988 -110.87609119194195 9.0
    vertex -147.7433663276988 -110.87609119194195 0.0
  endloop
endfacet
facet normal 1.0 0.0 0.0
  outer loop
    vertex -138.7433663276988 -115.37609119194197 0.0
    vertex -138.7433663276988 -124.37609119194198 9.0
    vertex -138.7433663276988 -124.37609119194198 0.0
  endloop
endfacet
facet normal 1.0 0.0 0.0
  outer loop
    vertex -138.7433663276988 -124.37609119194198 9.0
    vertex -138.7433663276988 -115.37609119194197 0.0
    vertex -138.7433663276988 -115.37609119194197 9.0
  endloop
endfacet
facet normal -0.0 -1.0 -0.0
  outer loop
    vertex -137.7433663276988 -110.87609119194195 9.0
    vertex -138.7433663276988 -110.87609119194195 0.0
    vertex -137.7433663276988 -110.87609119194195 0.0
  endloop
endfacet
facet normal -0.0 -1.0 -0.0
  outer loop
    vertex -138.7433663276988 -110.87609119194195 0.0
    vertex -137.7433663276988 -110.87609119194195 9.0
    vertex -138.7433663276988 -110.87609119194195 9.0
  endloop
endfacet
facet normal -1.0 -0.0 -0.0
  outer loop
    vertex -147.7433663276988 -115.37609119194197 9.0
    vertex -147.7433663276988 -124.37609119194198 0.0
    vertex -147.7433663276988 -124.37609119194198 9.0
  endloop
endfacet
facet normal -1.0 -0.0 -0.0
  outer loop
    vertex -147.7433663276988 -124.37609119194198 0.0
    vertex -147.7433663276988 -115.37609119194197 9.0
    vertex -147.7433663276988 -115.37609119194197 0.0
  endloop
endfacet
facet normal -0.0 -1.0 -0.0
  outer loop
    vertex -138.7433663276988 -124.37609119194198 9.0
    vertex -147.7433663276988 -124.37609119194198 0.0
    vertex -138.7433663276988 -124.37609119194198 0.0
  endloop
endfacet
facet normal -0.0 -1.0 -0.0
  outer loop
    vertex -147.7433663276988 -124.37609119194198 0.0
    vertex -138.7433663276988 -124.37609119194198 9.0
    vertex -147.7433663276988 -124.37609119194198 9.0
  endloop
endfacet
facet normal 1.0 0.0 0.0
  outer loop
    vertex -137.7433663276988 -100.87609119194195 0.0
    vertex -137.7433663276988 -110.87609119194195 9.0
    vertex -137.7433663276988 -110.87609119194195 0.0
  endloop
endfacet
facet normal 1.0 0.0 0.0
  outer loop
    vertex -137.7433663276988 -110.87609119194195 9.0
    vertex -137.7433663276988 -100.87609119194195 0.0
    vertex -137.7433663276988 -100.87609119194195 9.0
  endloop
endfacet
facet normal -0.0 -0.0 -1.0
  outer loop
    vertex -144.00471393998254 -110.28259215997844 0.0
    vertex -145.20635724294354 -119.87609119194197 0.0
    vertex -145.85596318506538 -109.37854646402818 0.0
  endloop
endfacet
facet normal -0.0 -0.0 -1.0
  outer loop
    vertex -145.20635724294354 -119.87609119194197 0.0
    vertex -144.00471393998254 -110.28259215997844 0.0
    vertex -144.22486178532117 -118.17609119194196 0.0
  endloop
endfacet
facet normal -0.0 -0.0 -1.0
  outer loop
    vertex -144.22486178532117 -118.17609119194196 0.0
    vertex -144.00471393998254 -110.28259215997844 0.0
    vertex -142.26187087007642 -118.17609119194196 0.0
  endloop
endfacet
facet normal -0.0 -0.0 -1.0
  outer loop
    vertex -142.26187087007642 -118.17609119194196 0.0
    vertex -144.00471393998254 -110.28259215997844 0.0
    vertex -141.94946221702892 -110.1398940763119 0.0
  endloop
endfacet
facet normal -0.0 -0.0 -1.0
  outer loop
    vertex -142.26187087007642 -118.17609119194196 0.0
    vertex -141.94946221702892 -110.1398940763119 0.0
    vertex -141.28037541245405 -119.87609119194197 0.0
  endloop
endfacet
facet normal -0.0 -0.0 -1.0
  outer loop
    vertex -141.28037541245405 -119.87609119194197 0.0
    vertex -141.94946221702892 -110.1398940763119 0.0
    vertex -140.2409110556126 -108.98868804930854 0.0
  endloop
endfacet
facet normal -0.0 -0.0 -1.0
  outer loop
    vertex -148.7433663276988 -100.87609119194195 0.0
    vertex -147.14986729573525 -105.61474357965822 0.0
    vertex -148.7433663276988 -110.87609119194195 0.0
  endloop
endfacet
facet normal -0.0 -0.0 -1.0
  outer loop
    vertex -147.14986729573525 -105.61474357965822 0.0
    vertex -148.7433663276988 -100.87609119194195 0.0
    vertex -146.24582159978502 -103.7634943345754 0.0
  endloop
endfacet
facet normal -0.0 -0.0 -1.0
  outer loop
    vertex -146.24582159978502 -103.7634943345754 0.0
    vertex -148.7433663276988 -100.87609119194195 0.0
    vertex -144.53727043836867 -102.61228830757202 0.0
  endloop
endfacet
facet normal -0.0 -0.0 -1.0
  outer loop
    vertex -144.53727043836867 -102.61228830757202 0.0
    vertex -148.7433663276988 -100.87609119194195 0.0
    vertex -137.7433663276988 -100.87609119194195 0.0
  endloop
endfacet
facet normal -0.0 -0.0 -1.0
  outer loop
    vertex -148.7433663276988 -110.87609119194195 0.0
    vertex -147.14986729573525 -105.61474357965822 0.0
    vertex -147.7433663276988 -110.87609119194195 0.0
  endloop
endfacet
facet normal -0.0 -0.0 -1.0
  outer loop
    vertex -147.7433663276988 -110.87609119194195 0.0
    vertex -147.14986729573525 -105.61474357965822 0.0
    vertex -147.7433663276988 -115.37609119194197 0.0
  endloop
endfacet
facet normal -0.0 -0.0 -1.0
  outer loop
    vertex -147.7433663276988 -115.37609119194197 0.0
    vertex -147.14986729573525 -105.61474357965822 0.0
    vertex -147.7433663276988 -124.37609119194198 0.0
  endloop
endfacet
facet normal -0.0 -0.0 -1.0
  outer loop
    vertex -144.53727043836867 -102.61228830757202 0.0
    vertex -137.7433663276988 -100.87609119194195 0.0
    vertex -142.48201871541505 -102.46959022390551 0.0
  endloop
endfacet
facet normal -0.0 -0.0 -1.0
  outer loop
    vertex -142.48201871541505 -102.46959022390551 0.0
    vertex -137.7433663276988 -100.87609119194195 0.0
    vertex -140.63076947033224 -103.37363591985576 0.0
  endloop
endfacet
facet normal -0.0 -0.0 -1.0
  outer loop
    vertex -140.63076947033224 -103.37363591985576 0.0
    vertex -137.7433663276988 -100.87609119194195 0.0
    vertex -139.47956344332886 -105.08218708127208 0.0
  endloop
endfacet
facet normal -0.0 -0.0 -1.0
  outer loop
    vertex -139.47956344332886 -105.08218708127208 0.0
    vertex -137.7433663276988 -100.87609119194195 0.0
    vertex -139.33686535966234 -107.1374388042257 0.0
  endloop
endfacet
facet normal -0.0 -0.0 -1.0
  outer loop
    vertex -139.33686535966234 -107.1374388042257 0.0
    vertex -137.7433663276988 -100.87609119194195 0.0
    vertex -138.7433663276988 -110.87609119194195 0.0
  endloop
endfacet
facet normal -0.0 -0.0 -1.0
  outer loop
    vertex -138.7433663276988 -110.87609119194195 0.0
    vertex -137.7433663276988 -100.87609119194195 0.0
    vertex -137.7433663276988 -110.87609119194195 0.0
  endloop
endfacet
facet normal -0.0 -0.0 -1.0
  outer loop
    vertex -147.7433663276988 -124.37609119194198 0.0
    vertex -144.22486178532117 -121.57609119194196 0.0
    vertex -138.7433663276988 -124.37609119194198 0.0
  endloop
endfacet
facet normal -0.0 -0.0 -1.0
  outer loop
    vertex -144.22486178532117 -121.57609119194196 0.0
    vertex -147.7433663276988 -124.37609119194198 0.0
    vertex -145.20635724294354 -119.87609119194197 0.0
  endloop
endfacet
facet normal -0.0 -0.0 -1.0
  outer loop
    vertex -145.20635724294354 -119.87609119194197 0.0
    vertex -147.7433663276988 -124.37609119194198 0.0
    vertex -147.00716921206873 -107.66999530261185 0.0
  endloop
endfacet
facet normal -0.0 -0.0 -1.0
  outer loop
    vertex -147.00716921206873 -107.66999530261185 0.0
    vertex -147.7433663276988 -124.37609119194198 0.0
    vertex -147.14986729573525 -105.61474357965822 0.0
  endloop
endfacet
facet normal -0.0 -0.0 -1.0
  outer loop
    vertex -145.20635724294354 -119.87609119194197 0.0
    vertex -147.00716921206873 -107.66999530261185 0.0
    vertex -145.85596318506538 -109.37854646402818 0.0
  endloop
endfacet
facet normal -0.0 -0.0 -1.0
  outer loop
    vertex -138.7433663276988 -124.37609119194198 0.0
    vertex -144.22486178532117 -121.57609119194196 0.0
    vertex -142.26187087007642 -121.57609119194196 0.0
  endloop
endfacet
facet normal -0.0 -0.0 -1.0
  outer loop
    vertex -138.7433663276988 -124.37609119194198 0.0
    vertex -142.26187087007642 -121.57609119194196 0.0
    vertex -141.28037541245405 -119.87609119194197 0.0
  endloop
endfacet
facet normal -0.0 -0.0 -1.0
  outer loop
    vertex -138.7433663276988 -124.37609119194198 0.0
    vertex -141.28037541245405 -119.87609119194197 0.0
    vertex -140.2409110556126 -108.98868804930854 0.0
  endloop
endfacet
facet normal -0.0 -0.0 -1.0
  outer loop
    vertex -138.7433663276988 -124.37609119194198 0.0
    vertex -140.2409110556126 -108.98868804930854 0.0
    vertex -139.33686535966234 -107.1374388042257 0.0
  endloop
endfacet
facet normal -0.0 -0.0 -1.0
  outer loop
    vertex -138.7433663276988 -124.37609119194198 0.0
    vertex -139.33686535966234 -107.1374388042257 0.0
    vertex -138.7433663276988 -110.87609119194195 0.0
  endloop
endfacet
facet normal -0.0 -0.0 -1.0
  outer loop
    vertex -138.7433663276988 -124.37609119194198 0.0
    vertex -138.7433663276988 -110.87609119194195 0.0
    vertex -138.7433663276988 -115.37609119194197 0.0
  endloop
endfacet
facet normal 1.0 0.0 0.0
  outer loop
    vertex -138.7433663276988 -110.87609119194195 0.0
    vertex -138.7433663276988 -115.37609119194197 9.0
    vertex -138.7433663276988 -115.37609119194197 0.0
  endloop
endfacet
facet normal 1.0 0.0 0.0
  outer loop
    vertex -138.7433663276988 -115.37609119194197 9.0
    vertex -138.7433663276988 -110.87609119194195 0.0
    vertex -138.7433663276988 -110.87609119194195 9.0
  endloop
endfacet
facet normal -1.0 -0.0 -0.0
  outer loop
    vertex -148.7433663276988 -100.87609119194195 9.0
    vertex -148.7433663276988 -110.87609119194195 0.0
    vertex -148.7433663276988 -110.87609119194195 9.0
  endloop
endfacet
facet normal -1.0 -0.0 -0.0
  outer loop
    vertex -148.7433663276988 -110.87609119194195 0.0
    vertex -148.7433663276988 -100.87609119194195 9.0
    vertex -148.7433663276988 -100.87609119194195 0.0
  endloop
endfacet
facet normal 0.5587837351066269 -0.8293134132403063 0.0
  outer loop
    vertex -144.53727043836867 -102.61228830757202 5.0
    vertex -146.24582159978502 -103.7634943345754 0.0
    vertex -144.53727043836867 -102.61228830757202 0.0
  endloop
endfacet
facet normal 0.5587837351066269 -0.8293134132403063 0.0
  outer loop
    vertex -146.24582159978502 -103.7634943345754 0.0
    vertex -144.53727043836867 -102.61228830757202 5.0
    vertex -146.24582159978502 -103.7634943345754 5.0
  endloop
endfacet
facet normal -0.5587837351066269 0.8293134132403063 0.0
  outer loop
    vertex -141.94946221702892 -110.1398940763119 5.0
    vertex -140.2409110556126 -108.98868804930854 0.0
    vertex -141.94946221702892 -110.1398940763119 0.0
  endloop
endfacet
facet normal -0.5587837351066269 0.8293134132403063 0.0
  outer loop
    vertex -140.2409110556126 -108.98868804930854 0.0
    vertex -141.94946221702892 -110.1398940763119 5.0
    vertex -140.2409110556126 -108.98868804930854 5.0
  endloop
endfacet
facet normal 0.0 0.0 1.0
  outer loop
    vertex -147.7433663276988 -110.87609119194195 9.0
    vertex -144.22486178532117 -108.07609119194196 9.0
    vertex -145.20635724294354 -106.37609119194197 9.0
  endloop
endfacet
facet normal 0.0 0.0 1.0
  outer loop
    vertex -144.22486178532117 -108.07609119194196 9.0
    vertex -147.7433663276988 -110.87609119194195 9.0
    vertex -138.7433663276988 -110.87609119194195 9.0
  endloop
endfacet
facet normal 0.0 0.0 1.0
  outer loop
    vertex -144.22486178532117 -108.07609119194196 9.0
    vertex -138.7433663276988 -110.87609119194195 9.0
    vertex -142.26187087007642 -108.07609119194196 9.0
  endloop
endfacet
facet normal 0.0 0.0 1.0
  outer loop
    vertex -142.26187087007642 -108.07609119194196 9.0
    vertex -138.7433663276988 -110.87609119194195 9.0
    vertex -141.28037541245405 -106.37609119194197 9.0
  endloop
endfacet
facet normal 0.0 0.0 1.0
  outer loop
    vertex -147.7433663276988 -110.87609119194195 9.0
    vertex -148.7433663276988 -100.87609119194195 9.0
    vertex -148.7433663276988 -110.87609119194195 9.0
  endloop
endfacet
facet normal 0.0 0.0 1.0
  outer loop
    vertex -148.7433663276988 -100.87609119194195 9.0
    vertex -147.7433663276988 -110.87609119194195 9.0
    vertex -145.20635724294354 -106.37609119194197 9.0
  endloop
endfacet
facet normal 0.0 0.0 1.0
  outer loop
    vertex -148.7433663276988 -100.87609119194195 9.0
    vertex -145.20635724294354 -106.37609119194197 9.0
    vertex -144.22486178532117 -104.67609119194196 9.0
  endloop
endfacet
facet normal 0.0 0.0 1.0
  outer loop
    vertex -148.7433663276988 -100.87609119194195 9.0
    vertex -144.22486178532117 -104.67609119194196 9.0
    vertex -137.7433663276988 -100.87609119194195 9.0
  endloop
endfacet
facet normal 0.0 0.0 1.0
  outer loop
    vertex -137.7433663276988 -100.87609119194195 9.0
    vertex -144.22486178532117 -104.67609119194196 9.0
    vertex -142.26187087007642 -104.67609119194196 9.0
  endloop
endfacet
facet normal 0.0 0.0 1.0
  outer loop
    vertex -137.7433663276988 -100.87609119194195 9.0
    vertex -142.26187087007642 -104.67609119194196 9.0
    vertex -141.28037541245405 -106.37609119194197 9.0
  endloop
endfacet
facet normal 0.0 0.0 1.0
  outer loop
    vertex -137.7433663276988 -100.87609119194195 9.0
    vertex -141.28037541245405 -106.37609119194197 9.0
    vertex -138.7433663276988 -110.87609119194195 9.0
  endloop
endfacet
facet normal 0.0 0.0 1.0
  outer loop
    vertex -137.7433663276988 -100.87609119194195 9.0
    vertex -138.7433663276988 -110.87609119194195 9.0
    vertex -137.7433663276988 -110.87609119194195 9.0
  endloop
endfacet
facet normal -0.4388146160119678 -0.8985776164440497 -0.0
  outer loop
    vertex -140.63076947033224 -103.37363591985576 5.0
    vertex -142.48201871541505 -102.46959022390551 0.0
    vertex -140.63076947033224 -103.37363591985576 0.0
  endloop
endfacet
facet normal -0.4388146160119678 -0.8985776164440497 -0.0
  outer loop
    vertex -142.48201871541505 -102.46959022390551 0.0
    vertex -140.63076947033224 -103.37363591985576 5.0
    vertex -142.48201871541505 -102.46959022390551 5.0
  endloop
endfacet
facet normal 0.06926420320373679 -0.997598351118601 0.0
  outer loop
    vertex -142.48201871541505 -102.46959022390551 5.0
    vertex -144.53727043836867 -102.61228830757202 0.0
    vertex -142.48201871541505 -102.46959022390551 0.0
  endloop
endfacet
facet normal 0.06926420320373679 -0.997598351118601 0.0
  outer loop
    vertex -144.53727043836867 -102.61228830757202 0.0
    vertex -142.48201871541505 -102.46959022390551 5.0
    vertex -144.53727043836867 -102.61228830757202 5.0
  endloop
endfacet
facet normal 0.8985776164440497 -0.4388146160119678 0.0
  outer loop
    vertex -146.24582159978502 -103.7634943345754 0.0
    vertex -147.14986729573525 -105.61474357965822 5.0
    vertex -147.14986729573525 -105.61474357965822 0.0
  endloop
endfacet
facet normal 0.8985776164440497 -0.4388146160119678 0.0
  outer loop
    vertex -147.14986729573525 -105.61474357965822 5.0
    vertex -146.24582159978502 -103.7634943345754 0.0
    vertex -146.24582159978502 -103.7634943345754 5.0
  endloop
endfacet
facet normal 0.8293134132403063 0.5587837351066269 0.0
  outer loop
    vertex -147.00716921206873 -107.66999530261185 0.0
    vertex -145.85596318506538 -109.37854646402818 5.0
    vertex -145.85596318506538 -109.37854646402818 0.0
  endloop
endfacet
facet normal 0.8293134132403063 0.5587837351066269 0.0
  outer loop
    vertex -145.85596318506538 -109.37854646402818 5.0
    vertex -147.00716921206873 -107.66999530261185 0.0
    vertex -147.00716921206873 -107.66999530261185 5.0
  endloop
endfacet
facet normal -0.0692642032037477 0.9975983511186004 0.0
  outer loop
    vertex -144.00471393998254 -110.28259215997844 5.0
    vertex -141.94946221702892 -110.1398940763119 0.0
    vertex -144.00471393998254 -110.28259215997844 0.0
  endloop
endfacet
facet normal -0.0692642032037477 0.9975983511186004 0.0
  outer loop
    vertex -141.94946221702892 -110.1398940763119 0.0
    vertex -144.00471393998254 -110.28259215997844 5.0
    vertex -141.94946221702892 -110.1398940763119 5.0
  endloop
endfacet
facet normal -0.8293134132403063 -0.5587837351066269 -0.0
  outer loop
    vertex -140.63076947033224 -103.37363591985576 5.0
    vertex -139.47956344332886 -105.08218708127208 0.0
    vertex -139.47956344332886 -105.08218708127208 5.0
  endloop
endfacet
facet normal -0.8293134132403063 -0.5587837351066269 -0.0
  outer loop
    vertex -139.47956344332886 -105.08218708127208 0.0
    vertex -140.63076947033224 -103.37363591985576 5.0
    vertex -140.63076947033224 -103.37363591985576 0.0
  endloop
endfacet
facet normal 0.997598351118601 0.06926420320373679 0.0
  outer loop
    vertex -147.14986729573525 -105.61474357965822 0.0
    vertex -147.00716921206873 -107.66999530261185 5.0
    vertex -147.00716921206873 -107.66999530261185 0.0
  endloop
endfacet
facet normal 0.997598351118601 0.06926420320373679 0.0
  outer loop
    vertex -147.00716921206873 -107.66999530261185 5.0
    vertex -147.14986729573525 -105.61474357965822 0.0
    vertex -147.14986729573525 -105.61474357965822 5.0
  endloop
endfacet
facet normal 0.0 0.0 1.0
  outer loop
    vertex -138.7433663276988 -115.37609119194197 9.0
    vertex -147.7433663276988 -110.87609119194195 9.0
    vertex -147.7433663276988 -115.37609119194197 9.0
  endloop
endfacet
facet normal 0.0 0.0 1.0
  outer loop
    vertex -147.7433663276988 -110.87609119194195 9.0
    vertex -138.7433663276988 -115.37609119194197 9.0
    vertex -138.7433663276988 -110.87609119194195 9.0
  endloop
endfacet
facet normal 0.43881461601197663 0.8985776164440452 0.0
  outer loop
    vertex -145.85596318506538 -109.37854646402818 5.0
    vertex -144.00471393998254 -110.28259215997844 0.0
    vertex -145.85596318506538 -109.37854646402818 0.0
  endloop
endfacet
facet normal 0.43881461601197663 0.8985776164440452 0.0
  outer loop
    vertex -144.00471393998254 -110.28259215997844 0.0
    vertex -145.85596318506538 -109.37854646402818 5.0
    vertex -144.00471393998254 -110.28259215997844 5.0
  endloop
endfacet
facet normal -0.997598351118601 -0.06926420320373679 -0.0
  outer loop
    vertex -139.47956344332886 -105.08218708127208 5.0
    vertex -139.33686535966234 -107.1374388042257 0.0
    vertex -139.33686535966234 -107.1374388042257 5.0
  endloop
endfacet
facet normal -0.997598351118601 -0.06926420320373679 -0.0
  outer loop
    vertex -139.33686535966234 -107.1374388042257 0.0
    vertex -139.47956344332886 -105.08218708127208 5.0
    vertex -139.47956344332886 -105.08218708127208 0.0
  endloop
endfacet
facet normal -0.8985776164440497 0.4388146160119678 0.0
  outer loop
    vertex -139.33686535966234 -107.1374388042257 5.0
    vertex -140.2409110556126 -108.98868804930854 0.0
    vertex -140.2409110556126 -108.98868804930854 5.0
  endloop
endfacet
facet normal -0.8985776164440497 0.4388146160119678 0.0
  outer loop
    vertex -140.2409110556126 -108.98868804930854 0.0
    vertex -139.33686535966234 -107.1374388042257 5.0
    vertex -139.33686535966234 -107.1374388042257 0.0
  endloop
endfacet
facet normal -0.0 -1.0 -0.0
  outer loop
    vertex -142.26187087007642 -104.67609119194196 9.0
    vertex -144.22486178532117 -104.67609119194196 5.000000000000001
    vertex -142.26187087007642 -104.67609119194196 5.000000000000001
  endloop
endfacet
facet normal -0.0 -1.0 -0.0
  outer loop
    vertex -144.22486178532117 -104.67609119194196 5.000000000000001
    vertex -142.26187087007642 -104.67609119194196 9.0
    vertex -144.22486178532117 -104.67609119194196 9.0
  endloop
endfacet
facet normal 0.8660254037844372 -0.5000000000000024 0.0
  outer loop
    vertex -144.22486178532117 -104.67609119194196 5.000000000000001
    vertex -145.20635724294354 -106.37609119194197 9.0
    vertex -145.20635724294354 -106.37609119194197 5.000000000000001
  endloop
endfacet
facet normal 0.8660254037844372 -0.5000000000000024 0.0
  outer loop
    vertex -145.20635724294354 -106.37609119194197 9.0
    vertex -144.22486178532117 -104.67609119194196 5.000000000000001
    vertex -144.22486178532117 -104.67609119194196 9.0
  endloop
endfacet
facet normal -0.8660254037844372 -0.5000000000000024 -0.0
  outer loop
    vertex -142.26187087007642 -104.67609119194196 9.0
    vertex -141.28037541245405 -106.37609119194197 5.000000000000001
    vertex -141.28037541245405 -106.37609119194197 9.0
  endloop
endfacet
facet normal -0.8660254037844372 -0.5000000000000024 -0.0
  outer loop
    vertex -141.28037541245405 -106.37609119194197 5.000000000000001
    vertex -142.26187087007642 -104.67609119194196 9.0
    vertex -142.26187087007642 -104.67609119194196 5.000000000000001
  endloop
endfacet
facet normal -0.8660254037844372 -0.5000000000000024 -0.0
  outer loop
    vertex -142.26187087007642 -118.17609119194196 9.0
    vertex -141.28037541245405 -119.87609119194197 0.0
    vertex -141.28037541245405 -119.87609119194197 9.0
  endloop
endfacet
facet normal -0.8660254037844372 -0.5000000000000024 -0.0
  outer loop
    vertex -141.28037541245405 -119.87609119194197 0.0
    vertex -142.26187087007642 -118.17609119194196 9.0
    vertex -142.26187087007642 -118.17609119194196 0.0
  endloop
endfacet
facet normal 0.8660254037844372 -0.5000000000000024 0.0
  outer loop
    vertex -144.22486178532117 -118.17609119194196 0.0
    vertex -145.20635724294354 -119.87609119194197 9.0
    vertex -145.20635724294354 -119.87609119194197 0.0
  endloop
endfacet
facet normal 0.8660254037844372 -0.5000000000000024 0.0
  outer loop
    vertex -145.20635724294354 -119.87609119194197 9.0
    vertex -144.22486178532117 -118.17609119194196 0.0
    vertex -144.22486178532117 -118.17609119194196 9.0
  endloop
endfacet
facet normal 0.0 -1.0 0.0
  outer loop
    vertex -142.26187087007642 -118.17609119194196 9.0
    vertex -144.22486178532117 -118.17609119194196 0.0
    vertex -142.26187087007642 -118.17609119194196 0.0
  endloop
endfacet
facet normal 0.0 -1.0 0.0
  outer loop
    vertex -144.22486178532117 -118.17609119194196 0.0
    vertex -142.26187087007642 -118.17609119194196 9.0
    vertex -144.22486178532117 -118.17609119194196 9.0
  endloop
endfacet
facet normal -0.8660254037844372 0.5000000000000024 0.0
  outer loop
    vertex -141.28037541245405 -106.37609119194197 9.0
    vertex -142.26187087007642 -108.07609119194196 5.000000000000001
    vertex -142.26187087007642 -108.07609119194196 9.0
  endloop
endfacet
facet normal -0.8660254037844372 0.5000000000000024 0.0
  outer loop
    vertex -142.26187087007642 -108.07609119194196 5.000000000000001
    vertex -141.28037541245405 -106.37609119194197 9.0
    vertex -141.28037541245405 -106.37609119194197 5.000000000000001
  endloop
endfacet
facet normal 0.8660254037844372 0.5000000000000024 0.0
  outer loop
    vertex -145.20635724294354 -106.37609119194197 5.000000000000001
    vertex -144.22486178532117 -108.07609119194196 9.0
    vertex -144.22486178532117 -108.07609119194196 5.000000000000001
  endloop
endfacet
facet normal 0.8660254037844372 0.5000000000000024 0.0
  outer loop
    vertex -144.22486178532117 -108.07609119194196 9.0
    vertex -145.20635724294354 -106.37609119194197 5.000000000000001
    vertex -145.20635724294354 -106.37609119194197 9.0
  endloop
endfacet
facet normal 0.0 1.0 0.0
  outer loop
    vertex -144.22486178532117 -108.07609119194196 9.0
    vertex -142.26187087007642 -108.07609119194196 5.000000000000001
    vertex -144.22486178532117 -108.07609119194196 5.000000000000001
  endloop
endfacet
facet normal 0.0 1.0 0.0
  outer loop
    vertex -142.26187087007642 -108.07609119194196 5.000000000000001
    vertex -144.22486178532117 -108.07609119194196 9.0
    vertex -142.26187087007642 -108.07609119194196 9.0
  endloop
endfacet
facet normal -0.8660254037844372 0.5000000000000024 0.0
  outer loop
    vertex -141.28037541245405 -119.87609119194197 9.0
    vertex -142.26187087007642 -121.57609119194196 0.0
    vertex -142.26187087007642 -121.57609119194196 9.0
  endloop
endfacet
facet normal -0.8660254037844372 0.5000000000000024 0.0
  outer loop
    vertex -142.26187087007642 -121.57609119194196 0.0
    vertex -141.28037541245405 -119.87609119194197 9.0
    vertex -141.28037541245405 -119.87609119194197 0.0
  endloop
endfacet
facet normal 0.0 1.0 0.0
  outer loop
    vertex -144.22486178532117 -121.57609119194196 9.0
    vertex -142.26187087007642 -121.57609119194196 0.0
    vertex -144.22486178532117 -121.57609119194196 0.0
  endloop
endfacet
facet normal 0.0 1.0 0.0
  outer loop
    vertex -142.26187087007642 -121.57609119194196 0.0
    vertex -144.22486178532117 -121.57609119194196 9.0
    vertex -142.26187087007642 -121.57609119194196 9.0
  endloop
endfacet
facet normal 0.8660254037844372 0.5000000000000024 0.0
  outer loop
    vertex -145.20635724294354 -119.87609119194197 0.0
    vertex -144.22486178532117 -121.57609119194196 9.0
    vertex -144.22486178532117 -121.57609119194196 0.0
  endloop
endfacet
facet normal 0.8660254037844372 0.5000000000000024 0.0
  outer loop
    vertex -144.22486178532117 -121.57609119194196 9.0
    vertex -145.20635724294354 -119.87609119194197 0.0
    vertex -145.20635724294354 -119.87609119194197 9.0
  endloop
endfacet
facet normal 0.0 0.0 -1.0
  outer loop
    vertex -146.24582159978502 -103.7634943345754 5.0
    vertex -147.00716921206873 -107.66999530261185 5.0
    vertex -147.14986729573525 -105.61474357965822 5.0
  endloop
endfacet
facet normal 0.0 0.0 -1.0
  outer loop
    vertex -147.00716921206873 -107.66999530261185 5.0
    vertex -146.24582159978502 -103.7634943345754 5.0
    vertex -145.85596318506538 -109.37854646402818 5.0
  endloop
endfacet
facet normal 0.0 0.0 -1.0
  outer loop
    vertex -145.85596318506538 -109.37854646402818 5.0
    vertex -146.24582159978502 -103.7634943345754 5.0
    vertex -144.53727043836867 -102.61228830757202 5.0
  endloop
endfacet
facet normal 0.0 0.0 -1.0
  outer loop
    vertex -145.85596318506538 -109.37854646402818 5.0
    vertex -144.53727043836867 -102.61228830757202 5.0
    vertex -145.20635724294354 -106.37609119194197 5.000000000000001
  endloop
endfacet
facet normal 0.0 0.0 -1.0
  outer loop
    vertex -145.20635724294354 -106.37609119194197 5.000000000000001
    vertex -144.53727043836867 -102.61228830757202 5.0
    vertex -144.22486178532117 -104.67609119194196 5.000000000000001
  endloop
endfacet
facet normal 0.0 0.0 -1.0
  outer loop
    vertex -144.22486178532117 -104.67609119194196 5.000000000000001
    vertex -144.53727043836867 -102.61228830757202 5.0
    vertex -142.48201871541505 -102.46959022390551 5.0
  endloop
endfacet
facet normal 0.0 0.0 -1.0
  outer loop
    vertex -144.22486178532117 -104.67609119194196 5.000000000000001
    vertex -142.48201871541505 -102.46959022390551 5.0
    vertex -142.26187087007642 -104.67609119194196 5.000000000000001
  endloop
endfacet
facet normal 0.0 0.0 -1.0
  outer loop
    vertex -142.26187087007642 -104.67609119194196 5.000000000000001
    vertex -142.48201871541505 -102.46959022390551 5.0
    vertex -140.63076947033224 -103.37363591985576 5.0
  endloop
endfacet
facet normal 0.0 0.0 -1.0
  outer loop
    vertex -142.26187087007642 -104.67609119194196 5.000000000000001
    vertex -140.63076947033224 -103.37363591985576 5.0
    vertex -141.28037541245405 -106.37609119194197 5.000000000000001
  endloop
endfacet
facet normal 0.0 0.0 -1.0
  outer loop
    vertex -145.20635724294354 -106.37609119194197 5.000000000000001
    vertex -144.00471393998254 -110.28259215997844 5.0
    vertex -145.85596318506538 -109.37854646402818 5.0
  endloop
endfacet
facet normal 0.0 0.0 -1.0
  outer loop
    vertex -144.00471393998254 -110.28259215997844 5.0
    vertex -145.20635724294354 -106.37609119194197 5.000000000000001
    vertex -144.22486178532117 -108.07609119194196 5.000000000000001
  endloop
endfacet
facet normal 0.0 0.0 -1.0
  outer loop
    vertex -144.00471393998254 -110.28259215997844 5.0
    vertex -144.22486178532117 -108.07609119194196 5.000000000000001
    vertex -142.26187087007642 -108.07609119194196 5.000000000000001
  endloop
endfacet
facet normal 0.0 0.0 -1.0
  outer loop
    vertex -144.00471393998254 -110.28259215997844 5.0
    vertex -142.26187087007642 -108.07609119194196 5.000000000000001
    vertex -141.94946221702892 -110.1398940763119 5.0
  endloop
endfacet
facet normal 0.0 0.0 -1.0
  outer loop
    vertex -141.94946221702892 -110.1398940763119 5.0
    vertex -142.26187087007642 -108.07609119194196 5.000000000000001
    vertex -141.28037541245405 -106.37609119194197 5.000000000000001
  endloop
endfacet
facet normal 0.0 0.0 -1.0
  outer loop
    vertex -141.94946221702892 -110.1398940763119 5.0
    vertex -141.28037541245405 -106.37609119194197 5.000000000000001
    vertex -140.2409110556126 -108.98868804930854 5.0
  endloop
endfacet
facet normal 0.0 0.0 -1.0
  outer loop
    vertex -140.2409110556126 -108.98868804930854 5.0
    vertex -141.28037541245405 -106.37609119194197 5.000000000000001
    vertex -140.63076947033224 -103.37363591985576 5.0
  endloop
endfacet
facet normal 0.0 0.0 -1.0
  outer loop
    vertex -140.2409110556126 -108.98868804930854 5.0
    vertex -140.63076947033224 -103.37363591985576 5.0
    vertex -139.47956344332886 -105.08218708127208 5.0
  endloop
endfacet
facet normal 0.0 0.0 -1.0
  outer loop
    vertex -140.2409110556126 -108.98868804930854 5.0
    vertex -139.47956344332886 -105.08218708127208 5.0
    vertex -139.33686535966234 -107.1374388042257 5.0
  endloop
endfacet
facet normal 0.0 0.0 1.0
  outer loop
    vertex -147.7433663276988 -124.37609119194198 9.0
    vertex -145.20635724294354 -119.87609119194197 9.0
    vertex -147.7433663276988 -115.37609119194197 9.0
  endloop
endfacet
facet normal 0.0 0.0 1.0
  outer loop
    vertex -145.20635724294354 -119.87609119194197 9.0
    vertex -147.7433663276988 -124.37609119194198 9.0
    vertex -144.22486178532117 -121.57609119194196 9.0
  endloop
endfacet
facet normal 0.0 0.0 1.0
  outer loop
    vertex -144.22486178532117 -121.57609119194196 9.0
    vertex -147.7433663276988 -124.37609119194198 9.0
    vertex -138.7433663276988 -124.37609119194198 9.0
  endloop
endfacet
facet normal 0.0 0.0 1.0
  outer loop
    vertex -144.22486178532117 -121.57609119194196 9.0
    vertex -138.7433663276988 -124.37609119194198 9.0
    vertex -142.26187087007642 -121.57609119194196 9.0
  endloop
endfacet
facet normal 0.0 0.0 1.0
  outer loop
    vertex -142.26187087007642 -121.57609119194196 9.0
    vertex -138.7433663276988 -124.37609119194198 9.0
    vertex -141.28037541245405 -119.87609119194197 9.0
  endloop
endfacet
facet normal 0.0 0.0 1.0
  outer loop
    vertex -147.7433663276988 -115.37609119194197 9.0
    vertex -144.22486178532117 -118.17609119194196 9.0
    vertex -138.7433663276988 -115.37609119194197 9.0
  endloop
endfacet
facet normal 0.0 0.0 1.0
  outer loop
    vertex -144.22486178532117 -118.17609119194196 9.0
    vertex -147.7433663276988 -115.37609119194197 9.0
    vertex -145.20635724294354 -119.87609119194197 9.0
  endloop
endfacet
facet normal 0.0 0.0 1.0
  outer loop
    vertex -138.7433663276988 -115.37609119194197 9.0
    vertex -144.22486178532117 -118.17609119194196 9.0
    vertex -142.26187087007642 -118.17609119194196 9.0
  endloop
endfacet
facet normal 0.0 0.0 1.0
  outer loop
    vertex -138.7433663276988 -115.37609119194197 9.0
    vertex -142.26187087007642 -118.17609119194196 9.0
    vertex -141.28037541245405 -119.87609119194197 9.0
  endloop
endfacet
facet normal 0.0 0.0 1.0
  outer loop
    vertex -138.7433663276988 -115.37609119194197 9.0
    vertex -141.28037541245405 -119.87609119194197 9.0
    vertex -138.7433663276988 -124.37609119194198 9.0
  endloop
endfacet
endsolid boardspacer
