solid boardspacer
facet normal 0.0 1.0 1.4365662421806637e-15
  outer loop
    vertex -3.0 20.27497677383101 99.47507651125429
    vertex -7.049916206369744e-16 20.274976773831014 97.51208559600957
    vertex -3.0 20.274976773831014 97.51208559600957
  endloop
endfacet
facet normal 0.0 1.0 1.4365662421806637e-15
  outer loop
    vertex -7.049916206369744e-16 20.274976773831014 97.51208559600957
    vertex -3.0 20.27497677383101 99.47507651125429
    vertex -7.049916206369744e-16 20.27497677383101 99.47507651125429
  endloop
endfacet
facet normal 0.0 -0.4999999999999982 0.8660254037844397
  outer loop
    vertex 7.049916206369744e-16 185.274976773831 96.53059013838721
    vertex -3.0 186.974976773831 97.51208559600957
    vertex -3.0 185.274976773831 96.53059013838721
  endloop
endfacet
facet normal 0.0 -0.4999999999999982 0.8660254037844397
  outer loop
    vertex -3.0 186.974976773831 97.51208559600957
    vertex 7.049916206369744e-16 185.274976773831 96.53059013838721
    vertex 7.049916206369744e-16 186.974976773831 97.51208559600957
  endloop
endfacet
facet normal 0.0 0.5000000000000024 0.8660254037844372
  outer loop
    vertex 7.049916206369744e-16 183.57497677383103 97.51208559600957
    vertex -3.0 185.274976773831 96.53059013838721
    vertex -3.0 183.57497677383103 97.51208559600957
  endloop
endfacet
facet normal 0.0 0.5000000000000024 0.8660254037844372
  outer loop
    vertex -3.0 185.274976773831 96.53059013838721
    vertex 7.049916206369744e-16 183.57497677383103 97.51208559600957
    vertex 7.049916206369744e-16 185.274976773831 96.53059013838721
  endloop
endfacet
facet normal 0.0 1.0 0.0
  outer loop
    vertex -3.0 183.57497677383103 99.4750765112543
    vertex 7.049916206369744e-16 183.57497677383103 97.51208559600957
    vertex -3.0 183.57497677383103 97.51208559600957
  endloop
endfacet
facet normal 0.0 1.0 0.0
  outer loop
    vertex 7.049916206369744e-16 183.57497677383103 97.51208559600957
    vertex -3.0 183.57497677383103 99.4750765112543
    vertex 7.049916206369744e-16 183.57497677383103 99.4750765112543
  endloop
endfacet
facet normal 0.0 -0.5000000000000012 0.8660254037844379
  outer loop
    vertex -7.049916206369744e-16 25.374976773831015 96.53059013838721
    vertex -3.0 27.07497677383102 97.51208559600957
    vertex -3.0 25.374976773831015 96.53059013838721
  endloop
endfacet
facet normal 0.0 -0.5000000000000012 0.8660254037844379
  outer loop
    vertex -3.0 27.07497677383102 97.51208559600957
    vertex -7.049916206369744e-16 25.374976773831015 96.53059013838721
    vertex -7.049916206369744e-16 27.07497677383102 97.51208559600957
  endloop
endfacet
facet normal 0.0 0.0 1.0
  outer loop
    vertex -7.049916206369744e-16 21.974976773831017 96.53059013838721
    vertex -3.0 25.374976773831015 96.53059013838721
    vertex -3.0 21.974976773831017 96.53059013838721
  endloop
endfacet
facet normal 0.0 0.0 1.0
  outer loop
    vertex -3.0 25.374976773831015 96.53059013838721
    vertex -7.049916206369744e-16 21.974976773831017 96.53059013838721
    vertex -7.049916206369744e-16 25.374976773831015 96.53059013838721
  endloop
endfacet
facet normal -0.0 -0.49999999999999695 -0.8660254037844405
  outer loop
    vertex -7.049916206369744e-16 27.07497677383101 99.4750765112543
    vertex -3.0 25.37497677383101 100.45657196887666
    vertex -3.0 27.07497677383101 99.4750765112543
  endloop
endfacet
facet normal -0.0 -0.49999999999999695 -0.8660254037844405
  outer loop
    vertex -3.0 25.37497677383101 100.45657196887666
    vertex -7.049916206369744e-16 27.07497677383101 99.4750765112543
    vertex -7.049916206369744e-16 25.37497677383101 100.45657196887666
  endloop
endfacet
facet normal 0.0 0.49999999999999695 0.8660254037844405
  outer loop
    vertex -7.049916206369744e-16 20.274976773831014 97.51208559600957
    vertex -3.0 21.974976773831017 96.53059013838721
    vertex -3.0 20.274976773831014 97.51208559600957
  endloop
endfacet
facet normal 0.0 0.49999999999999695 0.8660254037844405
  outer loop
    vertex -3.0 21.974976773831017 96.53059013838721
    vertex -7.049916206369744e-16 20.274976773831014 97.51208559600957
    vertex -7.049916206369744e-16 21.974976773831017 96.53059013838721
  endloop
endfacet
facet normal -0.0 -1.0 -2.8731324843613273e-15
  outer loop
    vertex -7.049916206369744e-16 27.07497677383101 99.4750765112543
    vertex -3.0 27.07497677383102 97.51208559600957
    vertex -7.049916206369744e-16 27.07497677383102 97.51208559600957
  endloop
endfacet
facet normal -0.0 -1.0 -2.8731324843613273e-15
  outer loop
    vertex -3.0 27.07497677383102 97.51208559600957
    vertex -7.049916206369744e-16 27.07497677383101 99.4750765112543
    vertex -3.0 27.07497677383101 99.4750765112543
  endloop
endfacet
facet normal 0.0 -1.0 0.0
  outer loop
    vertex 7.049916206369744e-16 186.974976773831 98.49358105363193
    vertex -3.0 186.974976773831 97.51208559600957
    vertex 7.049916206369744e-16 186.974976773831 97.51208559600957
  endloop
endfacet
facet normal 0.0 -1.0 0.0
  outer loop
    vertex -3.0 186.974976773831 97.51208559600957
    vertex 7.049916206369744e-16 186.974976773831 98.49358105363193
    vertex -3.0 186.974976773831 98.49358105363193
  endloop
endfacet
facet normal 0.0 -1.0 0.0
  outer loop
    vertex -3.0 186.974976773831 98.49358105363193
    vertex 7.049916206369744e-16 186.974976773831 98.49358105363193
    vertex 7.049916206369744e-16 186.974976773831 99.49358105363193
  endloop
endfacet
facet normal 0.0 -1.0 0.0
  outer loop
    vertex -3.0 186.974976773831 98.49358105363193
    vertex 7.049916206369744e-16 186.974976773831 99.49358105363193
    vertex -3.0 186.974976773831 99.49358105363193
  endloop
endfacet
facet normal 0.0 0.0 -1.0
  outer loop
    vertex -7.049916206369744e-16 25.37497677383101 100.45657196887666
    vertex -3.0 21.97497677383101 100.45657196887666
    vertex -3.0 25.37497677383101 100.45657196887666
  endloop
endfacet
facet normal 0.0 0.0 -1.0
  outer loop
    vertex -3.0 21.97497677383101 100.45657196887666
    vertex -7.049916206369744e-16 25.37497677383101 100.45657196887666
    vertex -7.049916206369744e-16 21.97497677383101 100.45657196887666
  endloop
endfacet
facet normal 0.0 0.5000000000000019 -0.8660254037844376
  outer loop
    vertex -7.049916206369744e-16 21.97497677383101 100.45657196887666
    vertex -3.0 20.27497677383101 99.47507651125429
    vertex -3.0 21.97497677383101 100.45657196887666
  endloop
endfacet
facet normal 0.0 0.5000000000000019 -0.8660254037844376
  outer loop
    vertex -3.0 20.27497677383101 99.47507651125429
    vertex -7.049916206369744e-16 21.97497677383101 100.45657196887666
    vertex -7.049916206369744e-16 20.27497677383101 99.47507651125429
  endloop
endfacet
facet normal 0.0 0.0 -1.0
  outer loop
    vertex 0.0 187.974976773831 94.99358105363193
    vertex -3.0 19.274976773831014 94.99358105363193
    vertex -3.0 187.974976773831 94.99358105363193
  endloop
endfacet
facet normal 0.0 0.0 -1.0
  outer loop
    vertex -3.0 19.274976773831014 94.99358105363193
    vertex 0.0 187.974976773831 94.99358105363193
    vertex 0.0 19.274976773831014 94.99358105363193
  endloop
endfacet
facet normal -1.0 0.0 0.0
  outer loop
    vertex -3.0 19.274976773831007 101.99358105363194
    vertex -3.0 20.27497677383101 99.47507651125429
    vertex -3.0 19.274976773831014 94.99358105363193
  endloop
endfacet
facet normal -1.0 0.0 0.0
  outer loop
    vertex -3.0 20.27497677383101 99.47507651125429
    vertex -3.0 19.274976773831007 101.99358105363194
    vertex -3.0 20.974976773831006 101.99358105363194
  endloop
endfacet
facet normal -1.0 0.0 0.0
  outer loop
    vertex -3.0 20.27497677383101 99.47507651125429
    vertex -3.0 20.974976773831006 101.99358105363194
    vertex -3.0 21.97497677383101 100.45657196887666
  endloop
endfacet
facet normal -1.0 0.0 0.0
  outer loop
    vertex -3.0 21.97497677383101 100.45657196887666
    vertex -3.0 20.974976773831006 101.99358105363194
    vertex -3.0 187.974976773831 101.99358105363194
  endloop
endfacet
facet normal -1.0 0.0 0.0
  outer loop
    vertex -3.0 21.97497677383101 100.45657196887666
    vertex -3.0 187.974976773831 101.99358105363194
    vertex -3.0 25.37497677383101 100.45657196887666
  endloop
endfacet
facet normal -1.0 0.0 0.0
  outer loop
    vertex -3.0 25.37497677383101 100.45657196887666
    vertex -3.0 187.974976773831 101.99358105363194
    vertex -3.0 27.07497677383101 99.4750765112543
  endloop
endfacet
facet normal -1.0 0.0 0.0
  outer loop
    vertex -3.0 27.07497677383101 99.4750765112543
    vertex -3.0 187.974976773831 101.99358105363194
    vertex -3.0 27.07497677383102 97.51208559600957
  endloop
endfacet
facet normal -1.0 0.0 0.0
  outer loop
    vertex -3.0 27.07497677383102 97.51208559600957
    vertex -3.0 187.974976773831 101.99358105363194
    vertex -3.0 185.274976773831 100.45657196887666
  endloop
endfacet
facet normal -1.0 0.0 0.0
  outer loop
    vertex -3.0 27.07497677383102 97.51208559600957
    vertex -3.0 185.274976773831 100.45657196887666
    vertex -3.0 183.57497677383103 99.4750765112543
  endloop
endfacet
facet normal -1.0 0.0 0.0
  outer loop
    vertex -3.0 185.274976773831 100.45657196887666
    vertex -3.0 187.974976773831 101.99358105363194
    vertex -3.0 186.974976773831 99.49358105363193
  endloop
endfacet
facet normal -1.0 0.0 0.0
  outer loop
    vertex -3.0 186.974976773831 99.49358105363193
    vertex -3.0 187.974976773831 101.99358105363194
    vertex -3.0 186.974976773831 98.49358105363193
  endloop
endfacet
facet normal -1.0 0.0 0.0
  outer loop
    vertex -3.0 186.974976773831 98.49358105363193
    vertex -3.0 187.974976773831 101.99358105363194
    vertex -3.0 186.974976773831 97.51208559600957
  endloop
endfacet
facet normal -1.0 0.0 0.0
  outer loop
    vertex -3.0 19.274976773831014 94.99358105363193
    vertex -3.0 21.974976773831017 96.53059013838721
    vertex -3.0 187.974976773831 94.99358105363193
  endloop
endfacet
facet normal -1.0 0.0 0.0
  outer loop
    vertex -3.0 21.974976773831017 96.53059013838721
    vertex -3.0 19.274976773831014 94.99358105363193
    vertex -3.0 20.274976773831014 97.51208559600957
  endloop
endfacet
facet normal -1.0 0.0 0.0
  outer loop
    vertex -3.0 20.274976773831014 97.51208559600957
    vertex -3.0 19.274976773831014 94.99358105363193
    vertex -3.0 20.27497677383101 99.47507651125429
  endloop
endfacet
facet normal -1.0 0.0 0.0
  outer loop
    vertex -3.0 187.974976773831 94.99358105363193
    vertex -3.0 21.974976773831017 96.53059013838721
    vertex -3.0 25.374976773831015 96.53059013838721
  endloop
endfacet
facet normal -1.0 0.0 0.0
  outer loop
    vertex -3.0 187.974976773831 94.99358105363193
    vertex -3.0 25.374976773831015 96.53059013838721
    vertex -3.0 27.07497677383102 97.51208559600957
  endloop
endfacet
facet normal -1.0 0.0 0.0
  outer loop
    vertex -3.0 187.974976773831 94.99358105363193
    vertex -3.0 27.07497677383102 97.51208559600957
    vertex -3.0 185.274976773831 96.53059013838721
  endloop
endfacet
facet normal -1.0 0.0 0.0
  outer loop
    vertex -3.0 185.274976773831 96.53059013838721
    vertex -3.0 27.07497677383102 97.51208559600957
    vertex -3.0 183.57497677383103 97.51208559600957
  endloop
endfacet
facet normal -1.0 0.0 0.0
  outer loop
    vertex -3.0 183.57497677383103 97.51208559600957
    vertex -3.0 27.07497677383102 97.51208559600957
    vertex -3.0 183.57497677383103 99.4750765112543
  endloop
endfacet
facet normal -1.0 0.0 0.0
  outer loop
    vertex -3.0 187.974976773831 94.99358105363193
    vertex -3.0 185.274976773831 96.53059013838721
    vertex -3.0 186.974976773831 97.51208559600957
  endloop
endfacet
facet normal -1.0 0.0 0.0
  outer loop
    vertex -3.0 187.974976773831 94.99358105363193
    vertex -3.0 186.974976773831 97.51208559600957
    vertex -3.0 187.974976773831 101.99358105363194
  endloop
endfacet
facet normal 0.0 1.0 0.0
  outer loop
    vertex -3.0 187.974976773831 101.99358105363194
    vertex 0.0 187.974976773831 94.99358105363193
    vertex -3.0 187.974976773831 94.99358105363193
  endloop
endfacet
facet normal 0.0 1.0 0.0
  outer loop
    vertex 0.0 187.974976773831 94.99358105363193
    vertex -3.0 187.974976773831 101.99358105363194
    vertex 0.0 187.974976773831 101.99358105363194
  endloop
endfacet
facet normal 0.0 0.0 1.0
  outer loop
    vertex 0.0 20.974976773831003 101.99358105363194
    vertex -3.0 187.974976773831 101.99358105363194
    vertex -3.0 20.974976773831006 101.99358105363194
  endloop
endfacet
facet normal 0.0 0.0 1.0
  outer loop
    vertex -3.0 187.974976773831 101.99358105363194
    vertex 0.0 20.974976773831003 101.99358105363194
    vertex 0.0 187.974976773831 101.99358105363194
  endloop
endfacet
facet normal 1.0 0.0 0.0
  outer loop
    vertex 0.0 19.274976773831014 94.99358105363193
    vertex -7.049916206369744e-16 20.274976773831014 97.51208559600957
    vertex -7.049916206369744e-16 20.27497677383101 99.47507651125429
  endloop
endfacet
facet normal 1.0 0.0 0.0
  outer loop
    vertex -7.049916206369744e-16 20.274976773831014 97.51208559600957
    vertex 0.0 19.274976773831014 94.99358105363193
    vertex -7.049916206369744e-16 21.974976773831017 96.53059013838721
  endloop
endfacet
facet normal 1.0 0.0 0.0
  outer loop
    vertex -7.049916206369744e-16 21.974976773831017 96.53059013838721
    vertex 0.0 19.274976773831014 94.99358105363193
    vertex 0.0 187.974976773831 94.99358105363193
  endloop
endfacet
facet normal 1.0 0.0 0.0
  outer loop
    vertex -7.049916206369744e-16 21.974976773831017 96.53059013838721
    vertex 0.0 187.974976773831 94.99358105363193
    vertex -7.049916206369744e-16 25.374976773831015 96.53059013838721
  endloop
endfacet
facet normal 1.0 0.0 0.0
  outer loop
    vertex -7.049916206369744e-16 25.374976773831015 96.53059013838721
    vertex 0.0 187.974976773831 94.99358105363193
    vertex -7.049916206369744e-16 27.07497677383102 97.51208559600957
  endloop
endfacet
facet normal 1.0 0.0 0.0
  outer loop
    vertex -7.049916206369744e-16 27.07497677383102 97.51208559600957
    vertex 0.0 187.974976773831 94.99358105363193
    vertex 7.049916206369744e-16 185.274976773831 96.53059013838721
  endloop
endfacet
facet normal 1.0 0.0 0.0
  outer loop
    vertex -7.049916206369744e-16 27.07497677383102 97.51208559600957
    vertex 7.049916206369744e-16 185.274976773831 96.53059013838721
    vertex 7.049916206369744e-16 183.57497677383103 97.51208559600957
  endloop
endfacet
facet normal 1.0 0.0 0.0
  outer loop
    vertex 7.049916206369744e-16 185.274976773831 96.53059013838721
    vertex 0.0 187.974976773831 94.99358105363193
    vertex 7.049916206369744e-16 186.974976773831 97.51208559600957
  endloop
endfacet
facet normal 1.0 0.0 0.0
  outer loop
    vertex 7.049916206369744e-16 186.974976773831 97.51208559600957
    vertex 0.0 187.974976773831 94.99358105363193
    vertex 7.049916206369744e-16 186.974976773831 98.49358105363193
  endloop
endfacet
facet normal 1.0 0.0 0.0
  outer loop
    vertex 7.049916206369744e-16 186.974976773831 98.49358105363193
    vertex 0.0 187.974976773831 94.99358105363193
    vertex 7.049916206369744e-16 186.974976773831 99.49358105363193
  endloop
endfacet
facet normal 1.0 0.0 0.0
  outer loop
    vertex 0.0 19.274976773831007 101.99358105363194
    vertex -7.049916206369744e-16 20.27497677383101 99.47507651125429
    vertex 0.0 20.974976773831003 101.99358105363194
  endloop
endfacet
facet normal 1.0 0.0 0.0
  outer loop
    vertex -7.049916206369744e-16 20.27497677383101 99.47507651125429
    vertex 0.0 19.274976773831007 101.99358105363194
    vertex 0.0 19.274976773831014 94.99358105363193
  endloop
endfacet
facet normal 1.0 0.0 0.0
  outer loop
    vertex 0.0 20.974976773831003 101.99358105363194
    vertex -7.049916206369744e-16 20.27497677383101 99.47507651125429
    vertex -7.049916206369744e-16 21.97497677383101 100.45657196887666
  endloop
endfacet
facet normal 1.0 0.0 0.0
  outer loop
    vertex 0.0 20.974976773831003 101.99358105363194
    vertex -7.049916206369744e-16 21.97497677383101 100.45657196887666
    vertex 0.0 187.974976773831 101.99358105363194
  endloop
endfacet
facet normal 1.0 0.0 0.0
  outer loop
    vertex 0.0 187.974976773831 101.99358105363194
    vertex -7.049916206369744e-16 21.97497677383101 100.45657196887666
    vertex -7.049916206369744e-16 25.37497677383101 100.45657196887666
  endloop
endfacet
facet normal 1.0 0.0 0.0
  outer loop
    vertex 0.0 187.974976773831 101.99358105363194
    vertex -7.049916206369744e-16 25.37497677383101 100.45657196887666
    vertex -7.049916206369744e-16 27.07497677383101 99.4750765112543
  endloop
endfacet
facet normal 1.0 0.0 0.0
  outer loop
    vertex 0.0 187.974976773831 101.99358105363194
    vertex -7.049916206369744e-16 27.07497677383101 99.4750765112543
    vertex -7.049916206369744e-16 27.07497677383102 97.51208559600957
  endloop
endfacet
facet normal 1.0 0.0 0.0
  outer loop
    vertex 0.0 187.974976773831 101.99358105363194
    vertex -7.049916206369744e-16 27.07497677383102 97.51208559600957
    vertex 7.049916206369744e-16 185.274976773831 100.45657196887666
  endloop
endfacet
facet normal 1.0 0.0 0.0
  outer loop
    vertex 7.049916206369744e-16 185.274976773831 100.45657196887666
    vertex -7.049916206369744e-16 27.07497677383102 97.51208559600957
    vertex 7.049916206369744e-16 183.57497677383103 99.4750765112543
  endloop
endfacet
facet normal 1.0 0.0 0.0
  outer loop
    vertex 7.049916206369744e-16 183.57497677383103 99.4750765112543
    vertex -7.049916206369744e-16 27.07497677383102 97.51208559600957
    vertex 7.049916206369744e-16 183.57497677383103 97.51208559600957
  endloop
endfacet
facet normal 1.0 0.0 0.0
  outer loop
    vertex 0.0 187.974976773831 101.99358105363194
    vertex 7.049916206369744e-16 185.274976773831 100.45657196887666
    vertex 7.049916206369744e-16 186.974976773831 99.49358105363193
  endloop
endfacet
facet normal 1.0 0.0 0.0
  outer loop
    vertex 0.0 187.974976773831 101.99358105363194
    vertex 7.049916206369744e-16 186.974976773831 99.49358105363193
    vertex 0.0 187.974976773831 94.99358105363193
  endloop
endfacet
facet normal 0.0 0.0 1.0
  outer loop
    vertex 0.0 19.274976773831007 101.99358105363194
    vertex -3.0 20.974976773831006 101.99358105363194
    vertex -3.0 19.274976773831007 101.99358105363194
  endloop
endfacet
facet normal 0.0 0.0 1.0
  outer loop
    vertex -3.0 20.974976773831006 101.99358105363194
    vertex 0.0 19.274976773831007 101.99358105363194
    vertex 0.0 20.974976773831003 101.99358105363194
  endloop
endfacet
facet normal -0.0 -0.4928799073846396 -0.8700973490917606
  outer loop
    vertex 7.049916206369744e-16 186.974976773831 99.49358105363193
    vertex -3.0 185.274976773831 100.45657196887666
    vertex -3.0 186.974976773831 99.49358105363193
  endloop
endfacet
facet normal -0.0 -0.4928799073846396 -0.8700973490917606
  outer loop
    vertex -3.0 185.274976773831 100.45657196887666
    vertex 7.049916206369744e-16 186.974976773831 99.49358105363193
    vertex 7.049916206369744e-16 185.274976773831 100.45657196887666
  endloop
endfacet
facet normal 0.0 0.4999999999999982 -0.8660254037844397
  outer loop
    vertex 7.049916206369744e-16 185.274976773831 100.45657196887666
    vertex -3.0 183.57497677383103 99.4750765112543
    vertex -3.0 185.274976773831 100.45657196887666
  endloop
endfacet
facet normal 0.0 0.4999999999999982 -0.8660254037844397
  outer loop
    vertex -3.0 183.57497677383103 99.4750765112543
    vertex 7.049916206369744e-16 185.274976773831 100.45657196887666
    vertex 7.049916206369744e-16 183.57497677383103 99.4750765112543
  endloop
endfacet
facet normal -0.0 -1.0 -1.2085570639490972e-15
  outer loop
    vertex 0.0 19.274976773831007 101.99358105363194
    vertex -3.0 19.274976773831014 94.99358105363193
    vertex 0.0 19.274976773831014 94.99358105363193
  endloop
endfacet
facet normal -0.0 -1.0 -1.2085570639490972e-15
  outer loop
    vertex -3.0 19.274976773831014 94.99358105363193
    vertex 0.0 19.274976773831007 101.99358105363194
    vertex -3.0 19.274976773831007 101.99358105363194
  endloop
endfacet
endsolid boardspacer
