solid boardspacer
facet normal -0.49999999999999983 0.0 0.8660254037844389
  outer loop
    vertex -81.15349364998409 -161.68112227220664 3.5185045423776375
    vertex -82.85349364998407 -157.68112227220672 2.537009084755276
    vertex -82.85349364998407 -161.68112227220664 2.537009084755276
  endloop
endfacet
facet normal -0.49999999999999983 0.0 0.8660254037844389
  outer loop
    vertex -82.85349364998407 -157.68112227220672 2.537009084755276
    vertex -81.15349364998409 -161.68112227220664 3.5185045423776375
    vertex -81.15349364998409 -157.68112227220672 3.5185045423776375
  endloop
endfacet
facet normal 0.5000000000000001 0.0 0.8660254037844387
  outer loop
    vertex -82.85349364998407 -161.68112227220664 2.537009084755276
    vertex -84.55349364998408 -157.68112227220672 3.518504542377638
    vertex -84.55349364998408 -161.68112227220664 3.518504542377638
  endloop
endfacet
facet normal 0.5000000000000001 0.0 0.8660254037844387
  outer loop
    vertex -84.55349364998408 -157.68112227220672 3.518504542377638
    vertex -82.85349364998407 -161.68112227220664 2.537009084755276
    vertex -82.85349364998407 -157.68112227220672 2.537009084755276
  endloop
endfacet
facet normal -0.5000000000000001 -0.0 -0.8660254037844387
  outer loop
    vertex -81.15349364998409 -157.68112227220672 5.481495457622362
    vertex -82.85349364998407 -161.68112227220664 6.462990915244725
    vertex -82.85349364998407 -157.68112227220672 6.462990915244725
  endloop
endfacet
facet normal -0.5000000000000001 -0.0 -0.8660254037844387
  outer loop
    vertex -82.85349364998407 -161.68112227220664 6.462990915244725
    vertex -81.15349364998409 -157.68112227220672 5.481495457622362
    vertex -81.15349364998409 -161.68112227220664 5.481495457622362
  endloop
endfacet
facet normal 1.0 0.0 0.0
  outer loop
    vertex -84.81648456522882 -147.68112227220672 14.0
    vertex -84.81648456522882 -149.68112227220672 17.999999999999996
    vertex -84.81648456522882 -149.68112227220672 14.0
  endloop
endfacet
facet normal 1.0 0.0 0.0
  outer loop
    vertex -84.81648456522882 -149.68112227220672 17.999999999999996
    vertex -84.81648456522882 -147.68112227220672 14.0
    vertex -84.81648456522882 -147.68112227220672 17.999999999999996
  endloop
endfacet
facet normal 0.8660254037844374 -0.5000000000000026 0.0
  outer loop
    vertex -83.83498910760645 -145.98112227220673 14.0
    vertex -84.81648456522882 -147.68112227220672 17.999999999999996
    vertex -84.81648456522882 -147.68112227220672 14.0
  endloop
endfacet
facet normal 0.8660254037844374 -0.5000000000000026 0.0
  outer loop
    vertex -84.81648456522882 -147.68112227220672 17.999999999999996
    vertex -83.83498910760645 -145.98112227220673 14.0
    vertex -83.83498910760645 -145.98112227220673 17.999999999999996
  endloop
endfacet
facet normal 0.0 -1.0 0.0
  outer loop
    vertex -81.87199819236172 -145.98112227220673 17.999999999999996
    vertex -83.83498910760645 -145.98112227220673 14.0
    vertex -81.87199819236172 -145.98112227220673 14.0
  endloop
endfacet
facet normal 0.0 -1.0 0.0
  outer loop
    vertex -83.83498910760645 -145.98112227220673 14.0
    vertex -81.87199819236172 -145.98112227220673 17.999999999999996
    vertex -83.83498910760645 -145.98112227220673 17.999999999999996
  endloop
endfacet
facet normal -1.2020703329364756e-30 5.835850813846352e-16 1.0
  outer loop
    vertex -78.35349364998406 -157.68112227220672 18.0
    vertex -87.35349364998407 -153.18112227220672 18.0
    vertex -87.35349364998407 -157.68112227220672 18.0
  endloop
endfacet
facet normal -1.2020703329364756e-30 5.835850813846352e-16 1.0
  outer loop
    vertex -87.35349364998407 -153.18112227220672 18.0
    vertex -78.35349364998406 -157.68112227220672 18.0
    vertex -83.83498910760645 -154.8811222722067 17.999999999999996
  endloop
endfacet
facet normal -1.2020703329364756e-30 5.835850813846352e-16 1.0
  outer loop
    vertex -87.35349364998407 -153.18112227220672 18.0
    vertex -83.83498910760645 -154.8811222722067 17.999999999999996
    vertex -84.81648456522882 -153.18112227220672 17.999999999999996
  endloop
endfacet
facet normal -1.2020703329364756e-30 5.835850813846352e-16 1.0
  outer loop
    vertex -83.83498910760645 -154.8811222722067 17.999999999999996
    vertex -78.35349364998406 -157.68112227220672 18.0
    vertex -81.87199819236172 -154.8811222722067 17.999999999999996
  endloop
endfacet
facet normal -1.2020703329364756e-30 5.835850813846352e-16 1.0
  outer loop
    vertex -81.87199819236172 -154.8811222722067 17.999999999999996
    vertex -78.35349364998406 -157.68112227220672 18.0
    vertex -80.89050273473934 -153.18112227220672 17.999999999999996
  endloop
endfacet
facet normal -1.2020703329364756e-30 5.835850813846352e-16 1.0
  outer loop
    vertex -80.89050273473934 -153.18112227220672 17.999999999999996
    vertex -78.35349364998406 -157.68112227220672 18.0
    vertex -78.35349364998406 -153.18112227220672 18.0
  endloop
endfacet
facet normal 1.0 0.0 0.0
  outer loop
    vertex -84.55349364998408 -157.68112227220672 3.518504542377638
    vertex -84.55349364998408 -161.68112227220664 5.481495457622362
    vertex -84.55349364998408 -161.68112227220664 3.518504542377638
  endloop
endfacet
facet normal 1.0 0.0 0.0
  outer loop
    vertex -84.55349364998408 -161.68112227220664 5.481495457622362
    vertex -84.55349364998408 -157.68112227220672 3.518504542377638
    vertex -84.55349364998408 -157.68112227220672 5.481495457622362
  endloop
endfacet
facet normal 0.5000000000000001 0.0 -0.8660254037844387
  outer loop
    vertex -82.85349364998407 -157.68112227220672 6.462990915244725
    vertex -84.55349364998408 -161.68112227220664 5.481495457622362
    vertex -84.55349364998408 -157.68112227220672 5.481495457622362
  endloop
endfacet
facet normal 0.5000000000000001 0.0 -0.8660254037844387
  outer loop
    vertex -84.55349364998408 -161.68112227220664 5.481495457622362
    vertex -82.85349364998407 -157.68112227220672 6.462990915244725
    vertex -82.85349364998407 -161.68112227220664 6.462990915244725
  endloop
endfacet
facet normal -1.0 -0.0 -0.0
  outer loop
    vertex -81.15349364998409 -157.68112227220672 5.481495457622362
    vertex -81.15349364998409 -161.68112227220664 3.5185045423776375
    vertex -81.15349364998409 -161.68112227220664 5.481495457622362
  endloop
endfacet
facet normal -1.0 -0.0 -0.0
  outer loop
    vertex -81.15349364998409 -161.68112227220664 3.5185045423776375
    vertex -81.15349364998409 -157.68112227220672 5.481495457622362
    vertex -81.15349364998409 -157.68112227220672 3.5185045423776375
  endloop
endfacet
facet normal 0.25881904510251735 -0.9659258262890693 0.0
  outer loop
    vertex -82.85349364998407 -143.70112227220673 14.0
    vertex -84.84349364998408 -144.23434116514466 9.0
    vertex -82.85349364998407 -143.70112227220673 9.0
  endloop
endfacet
facet normal 0.25881904510251735 -0.9659258262890693 0.0
  outer loop
    vertex -84.84349364998408 -144.23434116514466 9.0
    vertex -82.85349364998407 -143.70112227220673 14.0
    vertex -84.84349364998408 -144.23434116514466 14.0
  endloop
endfacet
facet normal -1.6785514777070801e-16 3.555814816224484e-46 -1.0
  outer loop
    vertex -87.05349364998408 -142.18112227220672 9.000000000000002
    vertex -86.83349364998408 -147.68112227220672 9.0
    vertex -87.05349364998408 -157.68112227220672 9.000000000000002
  endloop
endfacet
facet normal -1.6785514777070801e-16 3.555814816224484e-46 -1.0
  outer loop
    vertex -86.83349364998408 -147.68112227220672 9.0
    vertex -87.05349364998408 -142.18112227220672 9.000000000000002
    vertex -86.7724123553399 -147.4531637772025 9.0
  endloop
endfacet
facet normal -1.6785514777070801e-16 3.555814816224484e-46 -1.0
  outer loop
    vertex -86.7724123553399 -147.4531637772025 9.0
    vertex -87.05349364998408 -142.18112227220672 9.000000000000002
    vertex -86.30027475704615 -145.6911222722067 9.0
  endloop
endfacet
facet normal -1.6785514777070801e-16 3.555814816224484e-46 -1.0
  outer loop
    vertex -86.30027475704615 -145.6911222722067 9.0
    vertex -87.05349364998408 -142.18112227220672 9.000000000000002
    vertex -84.84349364998408 -144.23434116514466 9.0
  endloop
endfacet
facet normal -1.6785514777070801e-16 3.555814816224484e-46 -1.0
  outer loop
    vertex -84.84349364998408 -144.23434116514466 9.0
    vertex -87.05349364998408 -142.18112227220672 9.000000000000002
    vertex -78.65349364998406 -142.18112227220672 9.0
  endloop
endfacet
facet normal -1.6785514777070801e-16 3.555814816224484e-46 -1.0
  outer loop
    vertex -84.84349364998408 -144.23434116514466 9.0
    vertex -78.65349364998406 -142.18112227220672 9.0
    vertex -82.85349364998407 -143.70112227220673 9.0
  endloop
endfacet
facet normal -1.6785514777070801e-16 3.555814816224484e-46 -1.0
  outer loop
    vertex -82.85349364998407 -143.70112227220673 9.0
    vertex -78.65349364998406 -142.18112227220672 9.0
    vertex -80.86349364998408 -144.23434116514466 9.0
  endloop
endfacet
facet normal -1.6785514777070801e-16 3.555814816224484e-46 -1.0
  outer loop
    vertex -80.86349364998408 -144.23434116514466 9.0
    vertex -78.65349364998406 -142.18112227220672 9.0
    vertex -79.406712542922 -145.6911222722067 9.0
  endloop
endfacet
facet normal -1.6785514777070801e-16 3.555814816224484e-46 -1.0
  outer loop
    vertex -79.406712542922 -145.6911222722067 9.0
    vertex -78.65349364998406 -142.18112227220672 9.0
    vertex -78.87349364998407 -147.68112227220672 9.0
  endloop
endfacet
facet normal -1.6785514777070801e-16 3.555814816224484e-46 -1.0
  outer loop
    vertex -78.87349364998407 -147.68112227220672 9.0
    vertex -78.65349364998406 -142.18112227220672 9.0
    vertex -78.87349364998407 -149.68112227220672 9.0
  endloop
endfacet
facet normal -1.6785514777070801e-16 3.555814816224484e-46 -1.0
  outer loop
    vertex -78.87349364998407 -149.68112227220672 9.0
    vertex -78.65349364998406 -142.18112227220672 9.0
    vertex -78.87349364998407 -153.18112227220672 9.0
  endloop
endfacet
facet normal -1.6785514777070801e-16 3.555814816224484e-46 -1.0
  outer loop
    vertex -87.05349364998408 -157.68112227220672 9.000000000000002
    vertex -82.85349364998407 -157.1611222722067 9.0
    vertex -78.65349364998406 -157.68112227220672 9.0
  endloop
endfacet
facet normal -1.6785514777070801e-16 3.555814816224484e-46 -1.0
  outer loop
    vertex -82.85349364998407 -157.1611222722067 9.0
    vertex -87.05349364998408 -157.68112227220672 9.000000000000002
    vertex -84.84349364998408 -156.6279033792688 9.0
  endloop
endfacet
facet normal -1.6785514777070801e-16 3.555814816224484e-46 -1.0
  outer loop
    vertex -84.84349364998408 -156.6279033792688 9.0
    vertex -87.05349364998408 -157.68112227220672 9.000000000000002
    vertex -86.30027475704615 -155.17112227220673 9.0
  endloop
endfacet
facet normal -1.6785514777070801e-16 3.555814816224484e-46 -1.0
  outer loop
    vertex -86.30027475704615 -155.17112227220673 9.0
    vertex -87.05349364998408 -157.68112227220672 9.000000000000002
    vertex -86.83349364998408 -153.18112227220672 9.0
  endloop
endfacet
facet normal -1.6785514777070801e-16 3.555814816224484e-46 -1.0
  outer loop
    vertex -86.83349364998408 -153.18112227220672 9.0
    vertex -87.05349364998408 -157.68112227220672 9.000000000000002
    vertex -86.83349364998408 -147.68112227220672 9.0
  endloop
endfacet
facet normal -1.6785514777070801e-16 3.555814816224484e-46 -1.0
  outer loop
    vertex -86.83349364998408 -153.18112227220672 9.0
    vertex -86.83349364998408 -147.68112227220672 9.0
    vertex -86.83349364998408 -147.85712227220674 9.0
  endloop
endfacet
facet normal -1.6785514777070801e-16 3.555814816224484e-46 -1.0
  outer loop
    vertex -86.83349364998408 -153.18112227220672 9.0
    vertex -86.83349364998408 -147.85712227220674 9.0
    vertex -86.83349364998408 -149.68112227220672 9.0
  endloop
endfacet
facet normal -1.6785514777070801e-16 3.555814816224484e-46 -1.0
  outer loop
    vertex -78.65349364998406 -157.68112227220672 9.0
    vertex -82.85349364998407 -157.1611222722067 9.0
    vertex -80.86349364998408 -156.6279033792688 9.0
  endloop
endfacet
facet normal -1.6785514777070801e-16 3.555814816224484e-46 -1.0
  outer loop
    vertex -78.65349364998406 -157.68112227220672 9.0
    vertex -80.86349364998408 -156.6279033792688 9.0
    vertex -79.406712542922 -155.17112227220673 9.0
  endloop
endfacet
facet normal -1.6785514777070801e-16 3.555814816224484e-46 -1.0
  outer loop
    vertex -78.65349364998406 -157.68112227220672 9.0
    vertex -79.406712542922 -155.17112227220673 9.0
    vertex -78.87349364998407 -153.18112227220672 9.0
  endloop
endfacet
facet normal -1.6785514777070801e-16 3.555814816224484e-46 -1.0
  outer loop
    vertex -78.65349364998406 -157.68112227220672 9.0
    vertex -78.87349364998407 -153.18112227220672 9.0
    vertex -78.65349364998406 -142.18112227220672 9.0
  endloop
endfacet
facet normal 1.0 0.0 0.0
  outer loop
    vertex -86.83349364998408 -147.85712227220674 9.0
    vertex -86.83349364998408 -149.68112227220672 14.0
    vertex -86.83349364998408 -149.68112227220672 9.0
  endloop
endfacet
facet normal 1.0 0.0 0.0
  outer loop
    vertex -86.83349364998408 -149.68112227220672 14.0
    vertex -86.83349364998408 -147.85712227220674 9.0
    vertex -86.83349364998408 -147.85712227220674 14.0
  endloop
endfacet
facet normal 0.7071067811865476 -0.7071067811865476 0.0
  outer loop
    vertex -84.84349364998408 -144.23434116514466 9.0
    vertex -86.30027475704615 -145.6911222722067 14.0
    vertex -86.30027475704615 -145.6911222722067 9.0
  endloop
endfacet
facet normal 0.7071067811865476 -0.7071067811865476 0.0
  outer loop
    vertex -86.30027475704615 -145.6911222722067 14.0
    vertex -84.84349364998408 -144.23434116514466 9.0
    vertex -84.84349364998408 -144.23434116514466 14.0
  endloop
endfacet
facet normal -1.0 0.0 0.0
  outer loop
    vertex -78.87349364998407 -147.68112227220672 14.0
    vertex -78.87349364998407 -149.68112227220672 9.0
    vertex -78.87349364998407 -149.68112227220672 14.0
  endloop
endfacet
facet normal -1.0 0.0 0.0
  outer loop
    vertex -78.87349364998407 -149.68112227220672 9.0
    vertex -78.87349364998407 -147.68112227220672 14.0
    vertex -78.87349364998407 -147.68112227220672 9.0
  endloop
endfacet
facet normal 1.0 0.0 0.0
  outer loop
    vertex -86.83349364998408 -147.68112227220672 9.0
    vertex -86.83349364998408 -147.85712227220674 14.0
    vertex -86.83349364998408 -147.85712227220674 9.0
  endloop
endfacet
facet normal 1.0 0.0 0.0
  outer loop
    vertex -86.83349364998408 -147.85712227220674 14.0
    vertex -86.83349364998408 -147.68112227220672 9.0
    vertex -86.83349364998408 -147.68112227220672 14.0
  endloop
endfacet
facet normal 1.0 0.0 2.506636873375909e-15
  outer loop
    vertex -87.05349364998408 -142.18112227220672 9.000000000000002
    vertex -87.05349364998408 -157.68112227220672 9.000000000000002
    vertex -87.05349364998405 -157.68112227220672 1.4099832412739487e-15
  endloop
endfacet
facet normal 1.0 0.0 0.0
  outer loop
    vertex -77.35349364998406 -142.18112227220672 9.0
    vertex -77.35349364998406 -157.68112227220672 9.0
    vertex -77.35349364998406 -157.68112227220672 0.0
  endloop
endfacet
facet normal -0.8660254037844374 -0.5000000000000026 -0.0
  outer loop
    vertex -81.87199819236172 -145.98112227220673 17.999999999999996
    vertex -80.89050273473934 -147.68112227220672 14.0
    vertex -80.89050273473934 -147.68112227220672 17.999999999999996
  endloop
endfacet
facet normal -0.8660254037844374 -0.5000000000000026 -0.0
  outer loop
    vertex -80.89050273473934 -147.68112227220672 14.0
    vertex -81.87199819236172 -145.98112227220673 17.999999999999996
    vertex -81.87199819236172 -145.98112227220673 14.0
  endloop
endfacet
facet normal 0.9659258262890679 -0.2588190451025226 0.0
  outer loop
    vertex -86.30027475704615 -145.6911222722067 9.0
    vertex -86.7724123553399 -147.4531637772025 14.0
    vertex -86.7724123553399 -147.4531637772025 9.0
  endloop
endfacet
facet normal 0.9659258262890679 -0.2588190451025226 0.0
  outer loop
    vertex -86.7724123553399 -147.4531637772025 14.0
    vertex -86.30027475704615 -145.6911222722067 9.0
    vertex -86.30027475704615 -145.6911222722067 14.0
  endloop
endfacet
facet normal -0.25881904510251735 -0.9659258262890693 -0.0
  outer loop
    vertex -80.86349364998408 -144.23434116514466 14.0
    vertex -82.85349364998407 -143.70112227220673 9.0
    vertex -80.86349364998408 -144.23434116514466 9.0
  endloop
endfacet
facet normal -0.25881904510251735 -0.9659258262890693 -0.0
  outer loop
    vertex -82.85349364998407 -143.70112227220673 9.0
    vertex -80.86349364998408 -144.23434116514466 14.0
    vertex -82.85349364998407 -143.70112227220673 14.0
  endloop
endfacet
facet normal -1.0 -0.0 -0.0
  outer loop
    vertex -78.65349364998406 -142.18112227220672 9.0
    vertex -78.65349364998406 -157.68112227220672 0.0
    vertex -78.65349364998406 -157.68112227220672 9.0
  endloop
endfacet
facet normal -0.7071067811865476 -0.7071067811865476 -0.0
  outer loop
    vertex -80.86349364998408 -144.23434116514466 14.0
    vertex -79.406712542922 -145.6911222722067 9.0
    vertex -79.406712542922 -145.6911222722067 14.0
  endloop
endfacet
facet normal -0.7071067811865476 -0.7071067811865476 -0.0
  outer loop
    vertex -79.406712542922 -145.6911222722067 9.0
    vertex -80.86349364998408 -144.23434116514466 14.0
    vertex -80.86349364998408 -144.23434116514466 9.0
  endloop
endfacet
facet normal -1.0 0.0 0.0
  outer loop
    vertex -80.89050273473934 -147.68112227220672 17.999999999999996
    vertex -80.89050273473934 -149.68112227220672 14.0
    vertex -80.89050273473934 -149.68112227220672 17.999999999999996
  endloop
endfacet
facet normal -1.0 0.0 0.0
  outer loop
    vertex -80.89050273473934 -149.68112227220672 14.0
    vertex -80.89050273473934 -147.68112227220672 17.999999999999996
    vertex -80.89050273473934 -147.68112227220672 14.0
  endloop
endfacet
facet normal 0.9659258262890803 -0.2588190451024765 0.0
  outer loop
    vertex -86.7724123553399 -147.4531637772025 9.0
    vertex -86.83349364998408 -147.68112227220672 14.0
    vertex -86.83349364998408 -147.68112227220672 9.0
  endloop
endfacet
facet normal 0.9659258262890803 -0.2588190451024765 0.0
  outer loop
    vertex -86.83349364998408 -147.68112227220672 14.0
    vertex -86.7724123553399 -147.4531637772025 9.0
    vertex -86.7724123553399 -147.4531637772025 14.0
  endloop
endfacet
facet normal -0.9659258262890693 -0.25881904510251735 -0.0
  outer loop
    vertex -79.406712542922 -145.6911222722067 14.0
    vertex -78.87349364998407 -147.68112227220672 9.0
    vertex -78.87349364998407 -147.68112227220672 14.0
  endloop
endfacet
facet normal -0.9659258262890693 -0.25881904510251735 -0.0
  outer loop
    vertex -78.87349364998407 -147.68112227220672 9.0
    vertex -79.406712542922 -145.6911222722067 14.0
    vertex -79.406712542922 -145.6911222722067 9.0
  endloop
endfacet
facet normal -0.9659258262890692 0.2588190451025173 6.586187673017977e-31
  outer loop
    vertex -78.87349364998407 -153.18112227220672 14.0
    vertex -79.406712542922 -155.17112227220673 9.0
    vertex -79.406712542922 -155.17112227220673 14.0
  endloop
endfacet
facet normal -0.9659258262890692 0.2588190451025173 6.586187673017977e-31
  outer loop
    vertex -79.406712542922 -155.17112227220673 9.0
    vertex -78.87349364998407 -153.18112227220672 14.0
    vertex -78.87349364998407 -153.18112227220672 9.0
  endloop
endfacet
facet normal -0.7071067811865476 0.7071067811865476 0.0
  outer loop
    vertex -79.406712542922 -155.17112227220673 14.0
    vertex -80.86349364998408 -156.6279033792688 9.0
    vertex -80.86349364998408 -156.6279033792688 14.0
  endloop
endfacet
facet normal -0.7071067811865476 0.7071067811865476 0.0
  outer loop
    vertex -80.86349364998408 -156.6279033792688 9.0
    vertex -79.406712542922 -155.17112227220673 14.0
    vertex -79.406712542922 -155.17112227220673 9.0
  endloop
endfacet
facet normal -0.25881904510251735 0.9659258262890693 0.0
  outer loop
    vertex -82.85349364998407 -157.1611222722067 14.0
    vertex -80.86349364998408 -156.6279033792688 9.0
    vertex -82.85349364998407 -157.1611222722067 9.0
  endloop
endfacet
facet normal -0.25881904510251735 0.9659258262890693 0.0
  outer loop
    vertex -80.86349364998408 -156.6279033792688 9.0
    vertex -82.85349364998407 -157.1611222722067 14.0
    vertex -80.86349364998408 -156.6279033792688 14.0
  endloop
endfacet
facet normal 0.25881904510251735 0.9659258262890693 0.0
  outer loop
    vertex -84.84349364998408 -156.6279033792688 14.0
    vertex -82.85349364998407 -157.1611222722067 9.0
    vertex -84.84349364998408 -156.6279033792688 9.0
  endloop
endfacet
facet normal 0.25881904510251735 0.9659258262890693 0.0
  outer loop
    vertex -82.85349364998407 -157.1611222722067 9.0
    vertex -84.84349364998408 -156.6279033792688 14.0
    vertex -82.85349364998407 -157.1611222722067 14.0
  endloop
endfacet
facet normal 0.7071067811865476 0.7071067811865476 0.0
  outer loop
    vertex -86.30027475704615 -155.17112227220673 9.0
    vertex -84.84349364998408 -156.6279033792688 14.0
    vertex -84.84349364998408 -156.6279033792688 9.0
  endloop
endfacet
facet normal 0.7071067811865476 0.7071067811865476 0.0
  outer loop
    vertex -84.84349364998408 -156.6279033792688 14.0
    vertex -86.30027475704615 -155.17112227220673 9.0
    vertex -86.30027475704615 -155.17112227220673 14.0
  endloop
endfacet
facet normal 0.9659258262890692 0.2588190451025173 6.586187673017977e-31
  outer loop
    vertex -86.83349364998408 -153.18112227220672 9.0
    vertex -86.30027475704615 -155.17112227220673 14.0
    vertex -86.30027475704615 -155.17112227220673 9.0
  endloop
endfacet
facet normal 0.9659258262890692 0.2588190451025173 6.586187673017977e-31
  outer loop
    vertex -86.30027475704615 -155.17112227220673 14.0
    vertex -86.83349364998408 -153.18112227220672 9.0
    vertex -86.83349364998408 -153.18112227220672 14.0
  endloop
endfacet
facet normal -1.0 0.0 0.0
  outer loop
    vertex -80.89050273473934 -149.68112227220672 17.999999999999996
    vertex -80.89050273473934 -153.18112227220672 14.0
    vertex -80.89050273473934 -153.18112227220672 17.999999999999996
  endloop
endfacet
facet normal -1.0 0.0 0.0
  outer loop
    vertex -80.89050273473934 -153.18112227220672 14.0
    vertex -80.89050273473934 -149.68112227220672 17.999999999999996
    vertex -80.89050273473934 -149.68112227220672 14.0
  endloop
endfacet
facet normal -0.8660254037844372 0.5000000000000026 1.4553556142994623e-30
  outer loop
    vertex -80.89050273473934 -153.18112227220672 17.999999999999996
    vertex -81.87199819236172 -154.8811222722067 14.0
    vertex -81.87199819236172 -154.8811222722067 17.999999999999996
  endloop
endfacet
facet normal -0.8660254037844372 0.5000000000000026 1.4553556142994623e-30
  outer loop
    vertex -81.87199819236172 -154.8811222722067 14.0
    vertex -80.89050273473934 -153.18112227220672 17.999999999999996
    vertex -80.89050273473934 -153.18112227220672 14.0
  endloop
endfacet
facet normal 0.0 1.0 0.0
  outer loop
    vertex -83.83498910760645 -154.8811222722067 17.999999999999996
    vertex -81.87199819236172 -154.8811222722067 14.0
    vertex -83.83498910760645 -154.8811222722067 14.0
  endloop
endfacet
facet normal 0.0 1.0 0.0
  outer loop
    vertex -81.87199819236172 -154.8811222722067 14.0
    vertex -83.83498910760645 -154.8811222722067 17.999999999999996
    vertex -81.87199819236172 -154.8811222722067 17.999999999999996
  endloop
endfacet
facet normal 0.8660254037844372 0.5000000000000026 1.4553556142994623e-30
  outer loop
    vertex -84.81648456522882 -153.18112227220672 14.0
    vertex -83.83498910760645 -154.8811222722067 17.999999999999996
    vertex -83.83498910760645 -154.8811222722067 14.0
  endloop
endfacet
facet normal 0.8660254037844372 0.5000000000000026 1.4553556142994623e-30
  outer loop
    vertex -83.83498910760645 -154.8811222722067 17.999999999999996
    vertex -84.81648456522882 -153.18112227220672 14.0
    vertex -84.81648456522882 -153.18112227220672 17.999999999999996
  endloop
endfacet
facet normal 1.0 0.0 0.0
  outer loop
    vertex -84.81648456522882 -149.68112227220672 14.0
    vertex -84.81648456522882 -153.18112227220672 17.999999999999996
    vertex -84.81648456522882 -153.18112227220672 14.0
  endloop
endfacet
facet normal 1.0 0.0 0.0
  outer loop
    vertex -84.81648456522882 -153.18112227220672 17.999999999999996
    vertex -84.81648456522882 -149.68112227220672 14.0
    vertex -84.81648456522882 -149.68112227220672 17.999999999999996
  endloop
endfacet
facet normal 1.0 0.0 0.0
  outer loop
    vertex -86.83349364998408 -149.68112227220672 9.0
    vertex -86.83349364998408 -153.18112227220672 14.0
    vertex -86.83349364998408 -153.18112227220672 9.0
  endloop
endfacet
facet normal 1.0 0.0 0.0
  outer loop
    vertex -86.83349364998408 -153.18112227220672 14.0
    vertex -86.83349364998408 -149.68112227220672 9.0
    vertex -86.83349364998408 -149.68112227220672 14.0
  endloop
endfacet
facet normal 0.0 0.0 -1.0
  outer loop
    vertex -86.7724123553399 -147.4531637772025 14.0
    vertex -86.83349364998408 -147.85712227220674 14.0
    vertex -86.83349364998408 -147.68112227220672 14.0
  endloop
endfacet
facet normal 0.0 0.0 -1.0
  outer loop
    vertex -86.83349364998408 -147.85712227220674 14.0
    vertex -86.7724123553399 -147.4531637772025 14.0
    vertex -86.83349364998408 -149.68112227220672 14.0
  endloop
endfacet
facet normal 0.0 0.0 -1.0
  outer loop
    vertex -86.83349364998408 -149.68112227220672 14.0
    vertex -86.7724123553399 -147.4531637772025 14.0
    vertex -86.83349364998408 -153.18112227220672 14.0
  endloop
endfacet
facet normal 0.0 0.0 -1.0
  outer loop
    vertex -86.83349364998408 -153.18112227220672 14.0
    vertex -86.7724123553399 -147.4531637772025 14.0
    vertex -86.30027475704615 -155.17112227220673 14.0
  endloop
endfacet
facet normal 0.0 0.0 -1.0
  outer loop
    vertex -86.30027475704615 -155.17112227220673 14.0
    vertex -86.7724123553399 -147.4531637772025 14.0
    vertex -86.30027475704615 -145.6911222722067 14.0
  endloop
endfacet
facet normal 0.0 0.0 -1.0
  outer loop
    vertex -86.30027475704615 -155.17112227220673 14.0
    vertex -86.30027475704615 -145.6911222722067 14.0
    vertex -84.84349364998408 -144.23434116514466 14.0
  endloop
endfacet
facet normal 0.0 0.0 -1.0
  outer loop
    vertex -86.30027475704615 -155.17112227220673 14.0
    vertex -84.84349364998408 -144.23434116514466 14.0
    vertex -84.84349364998408 -156.6279033792688 14.0
  endloop
endfacet
facet normal 0.0 0.0 -1.0
  outer loop
    vertex -84.84349364998408 -156.6279033792688 14.0
    vertex -84.84349364998408 -144.23434116514466 14.0
    vertex -84.81648456522882 -147.68112227220672 14.0
  endloop
endfacet
facet normal 0.0 0.0 -1.0
  outer loop
    vertex -84.81648456522882 -147.68112227220672 14.0
    vertex -84.84349364998408 -144.23434116514466 14.0
    vertex -82.85349364998407 -143.70112227220673 14.0
  endloop
endfacet
facet normal 0.0 0.0 -1.0
  outer loop
    vertex -84.81648456522882 -147.68112227220672 14.0
    vertex -82.85349364998407 -143.70112227220673 14.0
    vertex -83.83498910760645 -145.98112227220673 14.0
  endloop
endfacet
facet normal 0.0 0.0 -1.0
  outer loop
    vertex -83.83498910760645 -145.98112227220673 14.0
    vertex -82.85349364998407 -143.70112227220673 14.0
    vertex -81.87199819236172 -145.98112227220673 14.0
  endloop
endfacet
facet normal 0.0 0.0 -1.0
  outer loop
    vertex -81.87199819236172 -145.98112227220673 14.0
    vertex -82.85349364998407 -143.70112227220673 14.0
    vertex -80.86349364998408 -144.23434116514466 14.0
  endloop
endfacet
facet normal 0.0 0.0 -1.0
  outer loop
    vertex -81.87199819236172 -145.98112227220673 14.0
    vertex -80.86349364998408 -144.23434116514466 14.0
    vertex -80.89050273473934 -147.68112227220672 14.0
  endloop
endfacet
facet normal 0.0 0.0 -1.0
  outer loop
    vertex -80.89050273473934 -147.68112227220672 14.0
    vertex -80.86349364998408 -144.23434116514466 14.0
    vertex -80.89050273473934 -149.68112227220672 14.0
  endloop
endfacet
facet normal 0.0 0.0 -1.0
  outer loop
    vertex -80.89050273473934 -149.68112227220672 14.0
    vertex -80.86349364998408 -144.23434116514466 14.0
    vertex -80.89050273473934 -153.18112227220672 14.0
  endloop
endfacet
facet normal 0.0 0.0 -1.0
  outer loop
    vertex -84.84349364998408 -156.6279033792688 14.0
    vertex -84.81648456522882 -153.18112227220672 14.0
    vertex -82.85349364998407 -157.1611222722067 14.0
  endloop
endfacet
facet normal 0.0 0.0 -1.0
  outer loop
    vertex -84.81648456522882 -153.18112227220672 14.0
    vertex -84.84349364998408 -156.6279033792688 14.0
    vertex -84.81648456522882 -147.68112227220672 14.0
  endloop
endfacet
facet normal 0.0 0.0 -1.0
  outer loop
    vertex -84.81648456522882 -153.18112227220672 14.0
    vertex -84.81648456522882 -147.68112227220672 14.0
    vertex -84.81648456522882 -149.68112227220672 14.0
  endloop
endfacet
facet normal 0.0 0.0 -1.0
  outer loop
    vertex -82.85349364998407 -157.1611222722067 14.0
    vertex -84.81648456522882 -153.18112227220672 14.0
    vertex -83.83498910760645 -154.8811222722067 14.0
  endloop
endfacet
facet normal 0.0 0.0 -1.0
  outer loop
    vertex -82.85349364998407 -157.1611222722067 14.0
    vertex -83.83498910760645 -154.8811222722067 14.0
    vertex -81.87199819236172 -154.8811222722067 14.0
  endloop
endfacet
facet normal 0.0 0.0 -1.0
  outer loop
    vertex -82.85349364998407 -157.1611222722067 14.0
    vertex -81.87199819236172 -154.8811222722067 14.0
    vertex -80.86349364998408 -156.6279033792688 14.0
  endloop
endfacet
facet normal 0.0 0.0 -1.0
  outer loop
    vertex -80.86349364998408 -156.6279033792688 14.0
    vertex -81.87199819236172 -154.8811222722067 14.0
    vertex -80.89050273473934 -153.18112227220672 14.0
  endloop
endfacet
facet normal 0.0 0.0 -1.0
  outer loop
    vertex -80.86349364998408 -156.6279033792688 14.0
    vertex -80.89050273473934 -153.18112227220672 14.0
    vertex -80.86349364998408 -144.23434116514466 14.0
  endloop
endfacet
facet normal 0.0 0.0 -1.0
  outer loop
    vertex -80.86349364998408 -156.6279033792688 14.0
    vertex -80.86349364998408 -144.23434116514466 14.0
    vertex -79.406712542922 -145.6911222722067 14.0
  endloop
endfacet
facet normal 0.0 0.0 -1.0
  outer loop
    vertex -80.86349364998408 -156.6279033792688 14.0
    vertex -79.406712542922 -145.6911222722067 14.0
    vertex -79.406712542922 -155.17112227220673 14.0
  endloop
endfacet
facet normal 0.0 0.0 -1.0
  outer loop
    vertex -79.406712542922 -155.17112227220673 14.0
    vertex -79.406712542922 -145.6911222722067 14.0
    vertex -78.87349364998407 -147.68112227220672 14.0
  endloop
endfacet
facet normal 0.0 0.0 -1.0
  outer loop
    vertex -79.406712542922 -155.17112227220673 14.0
    vertex -78.87349364998407 -147.68112227220672 14.0
    vertex -78.87349364998407 -153.18112227220672 14.0
  endloop
endfacet
facet normal 0.0 0.0 -1.0
  outer loop
    vertex -78.87349364998407 -153.18112227220672 14.0
    vertex -78.87349364998407 -147.68112227220672 14.0
    vertex -78.87349364998407 -149.68112227220672 14.0
  endloop
endfacet
facet normal -1.0 0.0 0.0
  outer loop
    vertex -78.87349364998407 -149.68112227220672 14.0
    vertex -78.87349364998407 -153.18112227220672 9.0
    vertex -78.87349364998407 -153.18112227220672 14.0
  endloop
endfacet
facet normal -1.0 0.0 0.0
  outer loop
    vertex -78.87349364998407 -153.18112227220672 9.0
    vertex -78.87349364998407 -149.68112227220672 14.0
    vertex -78.87349364998407 -149.68112227220672 9.0
  endloop
endfacet
facet normal 0.0 1.0 0.0
  outer loop
    vertex -87.05349364998405 -157.68112227220672 1.4099832412739487e-15
    vertex -84.55349364998408 -157.68112227220672 3.518504542377638
    vertex -82.85349364998407 -157.68112227220672 2.537009084755276
  endloop
endfacet
facet normal 0.0 1.0 0.0
  outer loop
    vertex -84.55349364998408 -157.68112227220672 3.518504542377638
    vertex -87.05349364998405 -157.68112227220672 1.4099832412739487e-15
    vertex -87.05349364998408 -157.68112227220672 9.000000000000002
  endloop
endfacet
facet normal 0.0 1.0 0.0
  outer loop
    vertex -84.55349364998408 -157.68112227220672 3.518504542377638
    vertex -87.05349364998408 -157.68112227220672 9.000000000000002
    vertex -84.55349364998408 -157.68112227220672 5.481495457622362
  endloop
endfacet
facet normal 0.0 1.0 0.0
  outer loop
    vertex -84.55349364998408 -157.68112227220672 5.481495457622362
    vertex -87.05349364998408 -157.68112227220672 9.000000000000002
    vertex -82.85349364998407 -157.68112227220672 6.462990915244725
  endloop
endfacet
facet normal 0.0 1.0 0.0
  outer loop
    vertex -82.85349364998407 -157.68112227220672 6.462990915244725
    vertex -87.05349364998408 -157.68112227220672 9.000000000000002
    vertex -78.65349364998406 -157.68112227220672 9.0
  endloop
endfacet
facet normal 0.0 1.0 0.0
  outer loop
    vertex -78.65349364998406 -157.68112227220672 0.0
    vertex -81.15349364998409 -157.68112227220672 3.5185045423776375
    vertex -78.65349364998406 -157.68112227220672 9.0
  endloop
endfacet
facet normal 0.0 1.0 0.0
  outer loop
    vertex -81.15349364998409 -157.68112227220672 3.5185045423776375
    vertex -78.65349364998406 -157.68112227220672 0.0
    vertex -87.05349364998405 -157.68112227220672 1.4099832412739487e-15
  endloop
endfacet
facet normal 0.0 1.0 0.0
  outer loop
    vertex -81.15349364998409 -157.68112227220672 3.5185045423776375
    vertex -87.05349364998405 -157.68112227220672 1.4099832412739487e-15
    vertex -82.85349364998407 -157.68112227220672 2.537009084755276
  endloop
endfacet
facet normal 0.0 1.0 0.0
  outer loop
    vertex -78.65349364998406 -157.68112227220672 9.0
    vertex -81.15349364998409 -157.68112227220672 3.5185045423776375
    vertex -81.15349364998409 -157.68112227220672 5.481495457622362
  endloop
endfacet
facet normal 0.0 1.0 0.0
  outer loop
    vertex -78.65349364998406 -157.68112227220672 9.0
    vertex -81.15349364998409 -157.68112227220672 5.481495457622362
    vertex -82.85349364998407 -157.68112227220672 6.462990915244725
  endloop
endfacet
facet normal 1.0 0.0 0.0
  outer loop
    vertex -77.35349364998406 -126.6811222722067 18.0
    vertex -77.35349364998406 -142.18112227220672 18.0
    vertex -77.35349364998406 -142.18112227220672 9.0
  endloop
endfacet
facet normal -1.0 -1.4554665716376232e-15 0.0
  outer loop
    vertex -88.35349364998409 -126.6811222722067 18.0
    vertex -88.35349364998407 -142.18112227220672 9.0
    vertex -88.35349364998407 -142.18112227220672 18.0
  endloop
endfacet
facet normal 0.0 0.0 1.0
  outer loop
    vertex -88.35349364998407 -142.18112227220672 18.0
    vertex -77.35349364998406 -126.6811222722067 18.0
    vertex -88.35349364998409 -126.6811222722067 18.0
  endloop
endfacet
facet normal 0.0 0.0 1.0
  outer loop
    vertex -77.35349364998406 -126.6811222722067 18.0
    vertex -88.35349364998407 -142.18112227220672 18.0
    vertex -77.35349364998406 -142.18112227220672 18.0
  endloop
endfacet
facet normal 0.0 -1.0 0.0
  outer loop
    vertex -68.95349364998407 -161.68112227220675 0.0
    vertex -81.15349364998409 -161.68112227220664 3.5185045423776375
    vertex -82.85349364998407 -161.68112227220664 2.537009084755276
  endloop
endfacet
facet normal 0.0 -1.0 0.0
  outer loop
    vertex -81.15349364998409 -161.68112227220664 3.5185045423776375
    vertex -68.95349364998407 -161.68112227220675 0.0
    vertex -71.45349364998407 -161.68112227220678 12.518504542377638
  endloop
endfacet
facet normal 0.0 -1.0 0.0
  outer loop
    vertex -71.45349364998407 -161.68112227220678 12.518504542377638
    vertex -68.95349364998407 -161.68112227220675 0.0
    vertex -68.95349364998407 -161.68112227220675 18.0
  endloop
endfacet
facet normal 0.0 -1.0 0.0
  outer loop
    vertex -81.15349364998409 -161.68112227220664 3.5185045423776375
    vertex -71.45349364998407 -161.68112227220678 12.518504542377638
    vertex -81.15349364998409 -161.68112227220664 5.481495457622362
  endloop
endfacet
facet normal 0.0 -1.0 0.0
  outer loop
    vertex -81.15349364998409 -161.68112227220664 5.481495457622362
    vertex -71.45349364998407 -161.68112227220678 12.518504542377638
    vertex -73.15349364998406 -161.68112227220678 11.537009084755276
  endloop
endfacet
facet normal 0.0 -1.0 0.0
  outer loop
    vertex -81.15349364998409 -161.68112227220664 5.481495457622362
    vertex -73.15349364998406 -161.68112227220678 11.537009084755276
    vertex -82.85349364998407 -161.68112227220664 6.462990915244725
  endloop
endfacet
facet normal 0.0 -1.0 0.0
  outer loop
    vertex -82.85349364998407 -161.68112227220664 6.462990915244725
    vertex -73.15349364998406 -161.68112227220678 11.537009084755276
    vertex -92.55349364998408 -161.68112227220666 11.537009084755274
  endloop
endfacet
facet normal 0.0 -1.0 0.0
  outer loop
    vertex -71.45349364998407 -161.68112227220678 12.518504542377638
    vertex -68.95349364998407 -161.68112227220675 18.0
    vertex -71.45349364998407 -161.68112227220678 14.481495457622364
  endloop
endfacet
facet normal 0.0 -1.0 0.0
  outer loop
    vertex -71.45349364998407 -161.68112227220678 14.481495457622364
    vertex -68.95349364998407 -161.68112227220675 18.0
    vertex -73.15349364998406 -161.68112227220678 15.462990915244724
  endloop
endfacet
facet normal 0.0 -1.0 0.0
  outer loop
    vertex -73.15349364998406 -161.68112227220678 15.462990915244724
    vertex -68.95349364998407 -161.68112227220675 18.0
    vertex -92.55349364998408 -161.68112227220666 15.462990915244724
  endloop
endfacet
facet normal 0.0 -1.0 0.0
  outer loop
    vertex -92.55349364998408 -161.68112227220666 15.462990915244724
    vertex -68.95349364998407 -161.68112227220675 18.0
    vertex -96.75349364998404 -161.68112227220678 17.999999999999996
  endloop
endfacet
facet normal 0.0 -1.0 0.0
  outer loop
    vertex -96.75349364998404 -161.68112227220678 -5.263937434089409e-15
    vertex -94.25349364998407 -161.68112227220672 12.518504542377636
    vertex -96.75349364998404 -161.68112227220678 17.999999999999996
  endloop
endfacet
facet normal 0.0 -1.0 0.0
  outer loop
    vertex -94.25349364998407 -161.68112227220672 12.518504542377636
    vertex -96.75349364998404 -161.68112227220678 -5.263937434089409e-15
    vertex -84.55349364998408 -161.68112227220664 3.518504542377638
  endloop
endfacet
facet normal 0.0 -1.0 0.0
  outer loop
    vertex -84.55349364998408 -161.68112227220664 3.518504542377638
    vertex -96.75349364998404 -161.68112227220678 -5.263937434089409e-15
    vertex -82.85349364998407 -161.68112227220664 2.537009084755276
  endloop
endfacet
facet normal 0.0 -1.0 0.0
  outer loop
    vertex -82.85349364998407 -161.68112227220664 2.537009084755276
    vertex -96.75349364998404 -161.68112227220678 -5.263937434089409e-15
    vertex -68.95349364998407 -161.68112227220675 0.0
  endloop
endfacet
facet normal 0.0 -1.0 0.0
  outer loop
    vertex -94.25349364998407 -161.68112227220672 12.518504542377636
    vertex -84.55349364998408 -161.68112227220664 3.518504542377638
    vertex -84.55349364998408 -161.68112227220664 5.481495457622362
  endloop
endfacet
facet normal 0.0 -1.0 0.0
  outer loop
    vertex -94.25349364998407 -161.68112227220672 12.518504542377636
    vertex -84.55349364998408 -161.68112227220664 5.481495457622362
    vertex -92.55349364998408 -161.68112227220666 11.537009084755274
  endloop
endfacet
facet normal 0.0 -1.0 0.0
  outer loop
    vertex -92.55349364998408 -161.68112227220666 11.537009084755274
    vertex -84.55349364998408 -161.68112227220664 5.481495457622362
    vertex -82.85349364998407 -161.68112227220664 6.462990915244725
  endloop
endfacet
facet normal 0.0 -1.0 0.0
  outer loop
    vertex -96.75349364998404 -161.68112227220678 17.999999999999996
    vertex -94.25349364998407 -161.68112227220672 12.518504542377636
    vertex -94.25349364998407 -161.68112227220672 14.48149545762236
  endloop
endfacet
facet normal 0.0 -1.0 0.0
  outer loop
    vertex -96.75349364998404 -161.68112227220678 17.999999999999996
    vertex -94.25349364998407 -161.68112227220672 14.48149545762236
    vertex -92.55349364998408 -161.68112227220666 15.462990915244724
  endloop
endfacet
facet normal 0.0 -1.0 0.0
  outer loop
    vertex -73.15349364998406 -161.68112227220678 11.537009084755276
    vertex -90.85349364998407 -161.68112227220666 12.518504542377634
    vertex -92.55349364998408 -161.68112227220666 11.537009084755274
  endloop
endfacet
facet normal 0.0 -1.0 0.0
  outer loop
    vertex -90.85349364998407 -161.68112227220666 12.518504542377634
    vertex -73.15349364998406 -161.68112227220678 11.537009084755276
    vertex -74.85349364998406 -161.68112227220678 12.518504542377638
  endloop
endfacet
facet normal 0.0 -1.0 0.0
  outer loop
    vertex -90.85349364998407 -161.68112227220666 12.518504542377634
    vertex -74.85349364998406 -161.68112227220678 12.518504542377638
    vertex -90.85349364998407 -161.68112227220666 14.481495457622358
  endloop
endfacet
facet normal 0.0 -1.0 0.0
  outer loop
    vertex -90.85349364998407 -161.68112227220666 14.481495457622358
    vertex -74.85349364998406 -161.68112227220678 12.518504542377638
    vertex -74.85349364998406 -161.68112227220678 14.481495457622364
  endloop
endfacet
facet normal 0.0 -1.0 0.0
  outer loop
    vertex -90.85349364998407 -161.68112227220666 14.481495457622358
    vertex -74.85349364998406 -161.68112227220678 14.481495457622364
    vertex -92.55349364998408 -161.68112227220666 15.462990915244724
  endloop
endfacet
facet normal 0.0 -1.0 0.0
  outer loop
    vertex -92.55349364998408 -161.68112227220666 15.462990915244724
    vertex -74.85349364998406 -161.68112227220678 14.481495457622364
    vertex -73.15349364998406 -161.68112227220678 15.462990915244724
  endloop
endfacet
facet normal 0.0 0.0 1.0
  outer loop
    vertex -96.75349364998404 -161.68112227220678 17.999999999999996
    vertex -88.35349364998407 -157.68112227220672 18.0
    vertex -96.75349364998407 -157.68112227220675 17.999999999999996
  endloop
endfacet
facet normal 0.0 0.0 1.0
  outer loop
    vertex -88.35349364998407 -157.68112227220672 18.0
    vertex -96.75349364998404 -161.68112227220678 17.999999999999996
    vertex -68.95349364998407 -161.68112227220675 18.0
  endloop
endfacet
facet normal 0.0 0.0 1.0
  outer loop
    vertex -88.35349364998407 -157.68112227220672 18.0
    vertex -68.95349364998407 -161.68112227220675 18.0
    vertex -87.35349364998407 -157.68112227220672 18.0
  endloop
endfacet
facet normal 0.0 0.0 1.0
  outer loop
    vertex -87.35349364998407 -157.68112227220672 18.0
    vertex -68.95349364998407 -161.68112227220675 18.0
    vertex -78.35349364998406 -157.68112227220672 18.0
  endloop
endfacet
facet normal 0.0 0.0 1.0
  outer loop
    vertex -78.35349364998406 -157.68112227220672 18.0
    vertex -68.95349364998407 -161.68112227220675 18.0
    vertex -77.35349364998406 -157.68112227220672 18.0
  endloop
endfacet
facet normal 0.0 0.0 1.0
  outer loop
    vertex -77.35349364998406 -157.68112227220672 18.0
    vertex -68.95349364998407 -161.68112227220675 18.0
    vertex -68.95349364998407 -157.68112227220672 18.0
  endloop
endfacet
facet normal -1.0 -1.3530462758809859e-16 -2.4503064323387545e-15
  outer loop
    vertex -88.35349364998407 -157.68112227220672 9.0
    vertex -88.35349364998407 -145.19859769998908 7.247917493545728
    vertex -88.35349364998405 -157.68112227220672 0.0
  endloop
endfacet
facet normal -1.0 -1.3530462758809859e-16 -2.4503064323387545e-15
  outer loop
    vertex -88.35349364998407 -145.19859769998908 7.247917493545728
    vertex -88.35349364998407 -157.68112227220672 9.0
    vertex -88.35349364998407 -142.18112227220672 9.0
  endloop
endfacet
facet normal -6.565468253958382e-31 6.34520403772407e-17 1.0
  outer loop
    vertex -78.35349364998406 -153.18112227220672 18.0
    vertex -80.89050273473934 -149.68112227220672 17.999999999999996
    vertex -80.89050273473934 -153.18112227220672 17.999999999999996
  endloop
endfacet
facet normal -6.565468253958382e-31 6.34520403772407e-17 1.0
  outer loop
    vertex -80.89050273473934 -149.68112227220672 17.999999999999996
    vertex -78.35349364998406 -153.18112227220672 18.0
    vertex -80.89050273473934 -147.68112227220672 17.999999999999996
  endloop
endfacet
facet normal -6.565468253958382e-31 6.34520403772407e-17 1.0
  outer loop
    vertex -77.35349364998406 -157.68112227220672 18.0
    vertex -78.35349364998406 -153.18112227220672 18.0
    vertex -78.35349364998406 -157.68112227220672 18.0
  endloop
endfacet
facet normal -6.565468253958382e-31 6.34520403772407e-17 1.0
  outer loop
    vertex -87.35349364998407 -157.68112227220672 18.0
    vertex -88.35349364998407 -142.18112227220672 18.0
    vertex -88.35349364998407 -157.68112227220672 18.0
  endloop
endfacet
facet normal -6.565468253958382e-31 6.34520403772407e-17 1.0
  outer loop
    vertex -88.35349364998407 -142.18112227220672 18.0
    vertex -87.35349364998407 -157.68112227220672 18.0
    vertex -87.35349364998407 -153.18112227220672 18.0
  endloop
endfacet
facet normal -6.565468253958382e-31 6.34520403772407e-17 1.0
  outer loop
    vertex -88.35349364998407 -142.18112227220672 18.0
    vertex -87.35349364998407 -153.18112227220672 18.0
    vertex -84.81648456522882 -147.68112227220672 17.999999999999996
  endloop
endfacet
facet normal -6.565468253958382e-31 6.34520403772407e-17 1.0
  outer loop
    vertex -88.35349364998407 -142.18112227220672 18.0
    vertex -84.81648456522882 -147.68112227220672 17.999999999999996
    vertex -83.83498910760645 -145.98112227220673 17.999999999999996
  endloop
endfacet
facet normal -6.565468253958382e-31 6.34520403772407e-17 1.0
  outer loop
    vertex -88.35349364998407 -142.18112227220672 18.0
    vertex -83.83498910760645 -145.98112227220673 17.999999999999996
    vertex -77.35349364998406 -142.18112227220672 18.0
  endloop
endfacet
facet normal -6.565468253958382e-31 6.34520403772407e-17 1.0
  outer loop
    vertex -84.81648456522882 -147.68112227220672 17.999999999999996
    vertex -87.35349364998407 -153.18112227220672 18.0
    vertex -84.81648456522882 -153.18112227220672 17.999999999999996
  endloop
endfacet
facet normal -6.565468253958382e-31 6.34520403772407e-17 1.0
  outer loop
    vertex -84.81648456522882 -147.68112227220672 17.999999999999996
    vertex -84.81648456522882 -153.18112227220672 17.999999999999996
    vertex -84.81648456522882 -149.68112227220672 17.999999999999996
  endloop
endfacet
facet normal -6.565468253958382e-31 6.34520403772407e-17 1.0
  outer loop
    vertex -77.35349364998406 -142.18112227220672 18.0
    vertex -83.83498910760645 -145.98112227220673 17.999999999999996
    vertex -81.87199819236172 -145.98112227220673 17.999999999999996
  endloop
endfacet
facet normal -6.565468253958382e-31 6.34520403772407e-17 1.0
  outer loop
    vertex -77.35349364998406 -142.18112227220672 18.0
    vertex -81.87199819236172 -145.98112227220673 17.999999999999996
    vertex -80.89050273473934 -147.68112227220672 17.999999999999996
  endloop
endfacet
facet normal -6.565468253958382e-31 6.34520403772407e-17 1.0
  outer loop
    vertex -77.35349364998406 -142.18112227220672 18.0
    vertex -80.89050273473934 -147.68112227220672 17.999999999999996
    vertex -78.35349364998406 -153.18112227220672 18.0
  endloop
endfacet
facet normal -6.565468253958382e-31 6.34520403772407e-17 1.0
  outer loop
    vertex -77.35349364998406 -142.18112227220672 18.0
    vertex -78.35349364998406 -153.18112227220672 18.0
    vertex -77.35349364998406 -157.68112227220672 18.0
  endloop
endfacet
facet normal -1.0 0.0 0.0
  outer loop
    vertex -88.35349364998407 -142.18112227220672 18.0
    vertex -88.35349364998407 -157.68112227220672 9.0
    vertex -88.35349364998407 -157.68112227220672 18.0
  endloop
endfacet
facet normal -1.0 0.0 0.0
  outer loop
    vertex -88.35349364998407 -157.68112227220672 9.0
    vertex -88.35349364998407 -142.18112227220672 18.0
    vertex -88.35349364998407 -142.18112227220672 9.0
  endloop
endfacet
facet normal 6.787051829649372e-16 0.5021355173865033 -0.8647889466100898
  outer loop
    vertex -87.05349364998408 -142.18112227220672 9.000000000000002
    vertex -88.35349364998407 -145.19859769998908 7.247917493545728
    vertex -88.35349364998407 -142.18112227220672 9.0
  endloop
endfacet
facet normal 6.787051829649372e-16 0.5021355173865033 -0.8647889466100898
  outer loop
    vertex -88.35349364998407 -145.19859769998908 7.247917493545728
    vertex -87.05349364998408 -142.18112227220672 9.000000000000002
    vertex -88.35349364998405 -157.68112227220672 0.0
  endloop
endfacet
facet normal 6.787051829649372e-16 0.5021355173865033 -0.8647889466100898
  outer loop
    vertex -88.35349364998405 -157.68112227220672 0.0
    vertex -87.05349364998408 -142.18112227220672 9.000000000000002
    vertex -87.05349364998405 -157.68112227220672 1.4099832412739487e-15
  endloop
endfacet
facet normal 0.0 0.0 -1.0
  outer loop
    vertex -88.35349364998405 -157.68112227220672 0.0
    vertex -96.75349364998404 -161.68112227220678 -5.263937434089409e-15
    vertex -96.75349364998404 -157.68112227220675 -5.263937434089409e-15
  endloop
endfacet
facet normal 0.0 0.0 -1.0
  outer loop
    vertex -96.75349364998404 -161.68112227220678 -5.263937434089409e-15
    vertex -88.35349364998405 -157.68112227220672 0.0
    vertex -68.95349364998407 -161.68112227220675 0.0
  endloop
endfacet
facet normal 0.0 0.0 -1.0
  outer loop
    vertex -68.95349364998407 -161.68112227220675 0.0
    vertex -88.35349364998405 -157.68112227220672 0.0
    vertex -87.05349364998405 -157.68112227220672 1.4099832412739487e-15
  endloop
endfacet
facet normal 0.0 0.0 -1.0
  outer loop
    vertex -68.95349364998407 -161.68112227220675 0.0
    vertex -87.05349364998405 -157.68112227220672 1.4099832412739487e-15
    vertex -78.65349364998406 -157.68112227220672 0.0
  endloop
endfacet
facet normal 0.0 0.0 -1.0
  outer loop
    vertex -68.95349364998407 -161.68112227220675 0.0
    vertex -78.65349364998406 -157.68112227220672 0.0
    vertex -77.35349364998406 -157.68112227220672 0.0
  endloop
endfacet
facet normal 0.0 0.0 -1.0
  outer loop
    vertex -68.95349364998407 -161.68112227220675 0.0
    vertex -77.35349364998406 -157.68112227220672 0.0
    vertex -68.95349364998407 -157.68112227220672 0.0
  endloop
endfacet
facet normal 1.0 0.0 0.0
  outer loop
    vertex -77.35349364998406 -142.18112227220672 9.0
    vertex -77.35349364998406 -157.68112227220672 18.0
    vertex -77.35349364998406 -157.68112227220672 9.0
  endloop
endfacet
facet normal 1.0 0.0 0.0
  outer loop
    vertex -77.35349364998406 -157.68112227220672 18.0
    vertex -77.35349364998406 -142.18112227220672 9.0
    vertex -77.35349364998406 -142.18112227220672 18.0
  endloop
endfacet
facet normal -1.662654185911048e-16 0.5021355173865032 -0.8647889466100898
  outer loop
    vertex -77.35349364998406 -142.18112227220672 9.0
    vertex -78.65349364998406 -157.68112227220672 0.0
    vertex -78.65349364998406 -142.18112227220672 9.0
  endloop
endfacet
facet normal -1.662654185911048e-16 0.5021355173865032 -0.8647889466100898
  outer loop
    vertex -78.65349364998406 -157.68112227220672 0.0
    vertex -77.35349364998406 -142.18112227220672 9.0
    vertex -77.35349364998406 -157.68112227220672 0.0
  endloop
endfacet
facet normal -5.593720393412513e-18 0.5021355173865031 -0.86478894661009
  outer loop
    vertex -77.35349364998406 -126.6811222722067 18.0
    vertex -88.35349364998407 -142.18112227220672 9.0
    vertex -88.35349364998409 -126.6811222722067 18.0
  endloop
endfacet
facet normal -5.593720393412513e-18 0.5021355173865031 -0.86478894661009
  outer loop
    vertex -88.35349364998407 -142.18112227220672 9.0
    vertex -77.35349364998406 -126.6811222722067 18.0
    vertex -87.05349364998408 -142.18112227220672 9.000000000000002
  endloop
endfacet
facet normal -5.593720393412513e-18 0.5021355173865031 -0.86478894661009
  outer loop
    vertex -87.05349364998408 -142.18112227220672 9.000000000000002
    vertex -77.35349364998406 -126.6811222722067 18.0
    vertex -78.65349364998406 -142.18112227220672 9.0
  endloop
endfacet
facet normal -5.593720393412513e-18 0.5021355173865031 -0.86478894661009
  outer loop
    vertex -78.65349364998406 -142.18112227220672 9.0
    vertex -77.35349364998406 -126.6811222722067 18.0
    vertex -77.35349364998406 -142.18112227220672 9.0
  endloop
endfacet
facet normal 1.0 0.0 0.0
  outer loop
    vertex -68.95349364998407 -157.68112227220672 0.0
    vertex -68.95349364998407 -161.68112227220675 18.0
    vertex -68.95349364998407 -161.68112227220675 0.0
  endloop
endfacet
facet normal 1.0 0.0 0.0
  outer loop
    vertex -68.95349364998407 -161.68112227220675 18.0
    vertex -68.95349364998407 -157.68112227220672 0.0
    vertex -68.95349364998407 -157.68112227220672 18.0
  endloop
endfacet
facet normal 1.0 0.0 0.0
  outer loop
    vertex -68.95349364998407 -157.68112227220672 18.0
    vertex -68.95349364998407 -157.68112227220672 0.0
    vertex -68.95349364998407 -157.68112227220672 9.0
  endloop
endfacet
facet normal 0.0 1.0 0.0
  outer loop
    vertex -77.35349364998406 -157.68112227220672 9.0
    vertex -68.95349364998407 -157.68112227220672 0.0
    vertex -77.35349364998406 -157.68112227220672 0.0
  endloop
endfacet
facet normal 0.0 1.0 0.0
  outer loop
    vertex -68.95349364998407 -157.68112227220672 0.0
    vertex -77.35349364998406 -157.68112227220672 9.0
    vertex -68.95349364998407 -157.68112227220672 9.0
  endloop
endfacet
facet normal -1.0 -3.7599553100638485e-15 -6.266592183439772e-16
  outer loop
    vertex -96.75349364998407 -157.68112227220675 17.999999999999996
    vertex -96.75349364998404 -161.68112227220678 -5.263937434089409e-15
    vertex -96.75349364998404 -161.68112227220678 17.999999999999996
  endloop
endfacet
facet normal -1.0 -3.7599553100638485e-15 -6.266592183439772e-16
  outer loop
    vertex -96.75349364998404 -161.68112227220678 -5.263937434089409e-15
    vertex -96.75349364998407 -157.68112227220675 17.999999999999996
    vertex -96.75349364998404 -157.68112227220675 -5.263937434089409e-15
  endloop
endfacet
facet normal -1.0 -3.7599553100638485e-15 -6.266592183439772e-16
  outer loop
    vertex -96.75349364998404 -157.68112227220675 -5.263937434089409e-15
    vertex -96.75349364998407 -157.68112227220675 17.999999999999996
    vertex -96.75349364998407 -157.68112227220675 8.999999999999995
  endloop
endfacet
facet normal -3.7599553100638485e-15 1.0 0.0
  outer loop
    vertex -96.75349364998407 -157.68112227220675 8.999999999999995
    vertex -94.25349364998407 -157.68112227220675 12.518504542377636
    vertex -88.35349364998407 -157.68112227220672 9.0
  endloop
endfacet
facet normal -3.7599553100638485e-15 1.0 0.0
  outer loop
    vertex -94.25349364998407 -157.68112227220675 12.518504542377636
    vertex -96.75349364998407 -157.68112227220675 8.999999999999995
    vertex -96.75349364998407 -157.68112227220675 17.999999999999996
  endloop
endfacet
facet normal -3.7599553100638485e-15 1.0 0.0
  outer loop
    vertex -88.35349364998407 -157.68112227220672 9.0
    vertex -94.25349364998407 -157.68112227220675 12.518504542377636
    vertex -92.55349364998408 -157.68112227220672 11.537009084755274
  endloop
endfacet
facet normal -3.7599553100638485e-15 1.0 0.0
  outer loop
    vertex -94.25349364998407 -157.68112227220675 12.518504542377636
    vertex -96.75349364998407 -157.68112227220675 17.999999999999996
    vertex -94.25349364998407 -157.68112227220675 14.48149545762236
  endloop
endfacet
facet normal -3.7599553100638485e-15 1.0 0.0
  outer loop
    vertex -94.25349364998407 -157.68112227220675 14.48149545762236
    vertex -96.75349364998407 -157.68112227220675 17.999999999999996
    vertex -92.55349364998408 -157.68112227220672 15.462990915244724
  endloop
endfacet
facet normal -3.7599553100638485e-15 1.0 0.0
  outer loop
    vertex -88.35349364998407 -157.68112227220672 9.0
    vertex -90.85349364998407 -157.68112227220672 12.518504542377634
    vertex -88.35349364998407 -157.68112227220672 18.0
  endloop
endfacet
facet normal -3.7599553100638485e-15 1.0 0.0
  outer loop
    vertex -90.85349364998407 -157.68112227220672 12.518504542377634
    vertex -88.35349364998407 -157.68112227220672 9.0
    vertex -92.55349364998408 -157.68112227220672 11.537009084755274
  endloop
endfacet
facet normal -3.7599553100638485e-15 1.0 0.0
  outer loop
    vertex -88.35349364998407 -157.68112227220672 18.0
    vertex -90.85349364998407 -157.68112227220672 12.518504542377634
    vertex -90.85349364998407 -157.68112227220672 14.481495457622358
  endloop
endfacet
facet normal -3.7599553100638485e-15 1.0 0.0
  outer loop
    vertex -88.35349364998407 -157.68112227220672 18.0
    vertex -90.85349364998407 -157.68112227220672 14.481495457622358
    vertex -92.55349364998408 -157.68112227220672 15.462990915244724
  endloop
endfacet
facet normal -3.7599553100638485e-15 1.0 0.0
  outer loop
    vertex -88.35349364998407 -157.68112227220672 18.0
    vertex -92.55349364998408 -157.68112227220672 15.462990915244724
    vertex -96.75349364998407 -157.68112227220675 17.999999999999996
  endloop
endfacet
facet normal -3.7599553100638485e-15 1.0 -9.424842622451591e-30
  outer loop
    vertex -96.75349364998407 -157.68112227220675 8.999999999999995
    vertex -88.35349364998405 -157.68112227220672 0.0
    vertex -96.75349364998404 -157.68112227220675 -5.263937434089409e-15
  endloop
endfacet
facet normal -3.7599553100638485e-15 1.0 -9.424842622451591e-30
  outer loop
    vertex -88.35349364998405 -157.68112227220672 0.0
    vertex -96.75349364998407 -157.68112227220675 8.999999999999995
    vertex -88.35349364998407 -157.68112227220672 9.0
  endloop
endfacet
facet normal 0.0 1.0 0.0
  outer loop
    vertex -77.35349364998406 -157.68112227220672 9.0
    vertex -74.85349364998406 -157.68112227220672 12.518504542377638
    vertex -68.95349364998407 -157.68112227220672 9.0
  endloop
endfacet
facet normal 0.0 1.0 0.0
  outer loop
    vertex -74.85349364998406 -157.68112227220672 12.518504542377638
    vertex -77.35349364998406 -157.68112227220672 9.0
    vertex -77.35349364998406 -157.68112227220672 18.0
  endloop
endfacet
facet normal 0.0 1.0 0.0
  outer loop
    vertex -68.95349364998407 -157.68112227220672 9.0
    vertex -74.85349364998406 -157.68112227220672 12.518504542377638
    vertex -73.15349364998406 -157.68112227220672 11.537009084755276
  endloop
endfacet
facet normal 0.0 1.0 0.0
  outer loop
    vertex -74.85349364998406 -157.68112227220672 12.518504542377638
    vertex -77.35349364998406 -157.68112227220672 18.0
    vertex -74.85349364998406 -157.68112227220672 14.481495457622364
  endloop
endfacet
facet normal 0.0 1.0 0.0
  outer loop
    vertex -74.85349364998406 -157.68112227220672 14.481495457622364
    vertex -77.35349364998406 -157.68112227220672 18.0
    vertex -73.15349364998406 -157.68112227220672 15.462990915244724
  endloop
endfacet
facet normal 0.0 1.0 0.0
  outer loop
    vertex -68.95349364998407 -157.68112227220672 9.0
    vertex -71.45349364998407 -157.68112227220672 12.518504542377638
    vertex -68.95349364998407 -157.68112227220672 18.0
  endloop
endfacet
facet normal 0.0 1.0 0.0
  outer loop
    vertex -71.45349364998407 -157.68112227220672 12.518504542377638
    vertex -68.95349364998407 -157.68112227220672 9.0
    vertex -73.15349364998406 -157.68112227220672 11.537009084755276
  endloop
endfacet
facet normal 0.0 1.0 0.0
  outer loop
    vertex -68.95349364998407 -157.68112227220672 18.0
    vertex -71.45349364998407 -157.68112227220672 12.518504542377638
    vertex -71.45349364998407 -157.68112227220672 14.481495457622364
  endloop
endfacet
facet normal 0.0 1.0 0.0
  outer loop
    vertex -68.95349364998407 -157.68112227220672 18.0
    vertex -71.45349364998407 -157.68112227220672 14.481495457622364
    vertex -73.15349364998406 -157.68112227220672 15.462990915244724
  endloop
endfacet
facet normal 0.0 1.0 0.0
  outer loop
    vertex -68.95349364998407 -157.68112227220672 18.0
    vertex -73.15349364998406 -157.68112227220672 15.462990915244724
    vertex -77.35349364998406 -157.68112227220672 18.0
  endloop
endfacet
facet normal -0.49999999999999983 0.0 0.8660254037844389
  outer loop
    vertex -71.45349364998407 -161.68112227220678 12.518504542377638
    vertex -73.15349364998406 -157.68112227220672 11.537009084755276
    vertex -73.15349364998406 -161.68112227220678 11.537009084755276
  endloop
endfacet
facet normal -0.49999999999999983 0.0 0.8660254037844389
  outer loop
    vertex -73.15349364998406 -157.68112227220672 11.537009084755276
    vertex -71.45349364998407 -161.68112227220678 12.518504542377638
    vertex -71.45349364998407 -157.68112227220672 12.518504542377638
  endloop
endfacet
facet normal 0.49999999999999983 0.0 0.8660254037844389
  outer loop
    vertex -73.15349364998406 -161.68112227220678 11.537009084755276
    vertex -74.85349364998406 -157.68112227220672 12.518504542377638
    vertex -74.85349364998406 -161.68112227220678 12.518504542377638
  endloop
endfacet
facet normal 0.49999999999999983 0.0 0.8660254037844389
  outer loop
    vertex -74.85349364998406 -157.68112227220672 12.518504542377638
    vertex -73.15349364998406 -161.68112227220678 11.537009084755276
    vertex -73.15349364998406 -157.68112227220672 11.537009084755276
  endloop
endfacet
facet normal 1.0 0.0 0.0
  outer loop
    vertex -74.85349364998406 -157.68112227220672 12.518504542377638
    vertex -74.85349364998406 -161.68112227220678 14.481495457622364
    vertex -74.85349364998406 -161.68112227220678 12.518504542377638
  endloop
endfacet
facet normal 1.0 0.0 0.0
  outer loop
    vertex -74.85349364998406 -161.68112227220678 14.481495457622364
    vertex -74.85349364998406 -157.68112227220672 12.518504542377638
    vertex -74.85349364998406 -157.68112227220672 14.481495457622364
  endloop
endfacet
facet normal 0.4999999999999993 0.0 -0.8660254037844392
  outer loop
    vertex -73.15349364998406 -157.68112227220672 15.462990915244724
    vertex -74.85349364998406 -161.68112227220678 14.481495457622364
    vertex -74.85349364998406 -157.68112227220672 14.481495457622364
  endloop
endfacet
facet normal 0.4999999999999993 0.0 -0.8660254037844392
  outer loop
    vertex -74.85349364998406 -161.68112227220678 14.481495457622364
    vertex -73.15349364998406 -157.68112227220672 15.462990915244724
    vertex -73.15349364998406 -161.68112227220678 15.462990915244724
  endloop
endfacet
facet normal -0.4999999999999993 -0.0 -0.8660254037844392
  outer loop
    vertex -71.45349364998407 -157.68112227220672 14.481495457622364
    vertex -73.15349364998406 -161.68112227220678 15.462990915244724
    vertex -73.15349364998406 -157.68112227220672 15.462990915244724
  endloop
endfacet
facet normal -0.4999999999999993 -0.0 -0.8660254037844392
  outer loop
    vertex -73.15349364998406 -161.68112227220678 15.462990915244724
    vertex -71.45349364998407 -157.68112227220672 14.481495457622364
    vertex -71.45349364998407 -161.68112227220678 14.481495457622364
  endloop
endfacet
facet normal -1.0 -0.0 -0.0
  outer loop
    vertex -71.45349364998407 -157.68112227220672 14.481495457622364
    vertex -71.45349364998407 -161.68112227220678 12.518504542377638
    vertex -71.45349364998407 -161.68112227220678 14.481495457622364
  endloop
endfacet
facet normal -1.0 -0.0 -0.0
  outer loop
    vertex -71.45349364998407 -161.68112227220678 12.518504542377638
    vertex -71.45349364998407 -157.68112227220672 14.481495457622364
    vertex -71.45349364998407 -157.68112227220672 12.518504542377638
  endloop
endfacet
facet normal -0.49999999999999983 -6.635215253053887e-15 0.8660254037844389
  outer loop
    vertex -90.85349364998407 -161.68112227220666 12.518504542377634
    vertex -92.55349364998408 -157.68112227220672 11.537009084755274
    vertex -92.55349364998408 -161.68112227220666 11.537009084755274
  endloop
endfacet
facet normal -0.49999999999999983 -6.635215253053887e-15 0.8660254037844389
  outer loop
    vertex -92.55349364998408 -157.68112227220672 11.537009084755274
    vertex -90.85349364998407 -161.68112227220666 12.518504542377634
    vertex -90.85349364998407 -157.68112227220672 12.518504542377634
  endloop
endfacet
facet normal 0.5000000000000003 6.635215253053895e-15 0.8660254037844385
  outer loop
    vertex -92.55349364998408 -161.68112227220666 11.537009084755274
    vertex -94.25349364998407 -157.68112227220675 12.518504542377636
    vertex -94.25349364998407 -161.68112227220672 12.518504542377636
  endloop
endfacet
facet normal 0.5000000000000003 6.635215253053895e-15 0.8660254037844385
  outer loop
    vertex -94.25349364998407 -157.68112227220675 12.518504542377636
    vertex -92.55349364998408 -161.68112227220666 11.537009084755274
    vertex -92.55349364998408 -157.68112227220672 11.537009084755274
  endloop
endfacet
facet normal 1.0 1.327043050610778e-14 0.0
  outer loop
    vertex -94.25349364998407 -157.68112227220675 12.518504542377636
    vertex -94.25349364998407 -161.68112227220672 14.48149545762236
    vertex -94.25349364998407 -161.68112227220672 12.518504542377636
  endloop
endfacet
facet normal 1.0 1.327043050610778e-14 0.0
  outer loop
    vertex -94.25349364998407 -161.68112227220672 14.48149545762236
    vertex -94.25349364998407 -157.68112227220675 12.518504542377636
    vertex -94.25349364998407 -157.68112227220675 14.48149545762236
  endloop
endfacet
facet normal 0.5000000000000003 6.635215253053895e-15 -0.8660254037844385
  outer loop
    vertex -92.55349364998408 -157.68112227220672 15.462990915244724
    vertex -94.25349364998407 -161.68112227220672 14.48149545762236
    vertex -94.25349364998407 -157.68112227220675 14.48149545762236
  endloop
endfacet
facet normal 0.5000000000000003 6.635215253053895e-15 -0.8660254037844385
  outer loop
    vertex -94.25349364998407 -161.68112227220672 14.48149545762236
    vertex -92.55349364998408 -157.68112227220672 15.462990915244724
    vertex -92.55349364998408 -161.68112227220666 15.462990915244724
  endloop
endfacet
facet normal -0.5000000000000014 -6.635215253053909e-15 -0.8660254037844379
  outer loop
    vertex -90.85349364998407 -157.68112227220672 14.481495457622358
    vertex -92.55349364998408 -161.68112227220666 15.462990915244724
    vertex -92.55349364998408 -157.68112227220672 15.462990915244724
  endloop
endfacet
facet normal -0.5000000000000014 -6.635215253053909e-15 -0.8660254037844379
  outer loop
    vertex -92.55349364998408 -161.68112227220666 15.462990915244724
    vertex -90.85349364998407 -157.68112227220672 14.481495457622358
    vertex -90.85349364998407 -161.68112227220666 14.481495457622358
  endloop
endfacet
facet normal -1.0 -1.3270430506107779e-14 -0.0
  outer loop
    vertex -90.85349364998407 -157.68112227220672 14.481495457622358
    vertex -90.85349364998407 -161.68112227220666 12.518504542377634
    vertex -90.85349364998407 -161.68112227220666 14.481495457622358
  endloop
endfacet
facet normal -1.0 -1.3270430506107779e-14 -0.0
  outer loop
    vertex -90.85349364998407 -161.68112227220666 12.518504542377634
    vertex -90.85349364998407 -157.68112227220672 14.481495457622358
    vertex -90.85349364998407 -157.68112227220672 12.518504542377634
  endloop
endfacet
endsolid boardspacer
