solid boardspacer
facet normal -1.0 0.0 0.0
  outer loop
    vertex -129.89570697954503 -135.88106515466362 9.000000000000012
    vertex -129.89570697954503 -151.38106515466364 1.127986593019159e-14
    vertex -129.89570697954503 -151.38106515466364 9.000000000000012
  endloop
endfacet
facet normal -1.0 0.0 0.0
  outer loop
    vertex -129.89570697954503 -151.38106515466364 1.127986593019159e-14
    vertex -129.89570697954503 -135.88106515466362 9.000000000000012
    vertex -129.89570697954503 -135.88106515466362 1.127986593019159e-14
  endloop
endfacet
facet normal 0.0 0.0 1.0
  outer loop
    vertex -128.89570697954503 -146.88106515466362 9.000000000000012
    vertex -125.3772024371674 -145.08106515466363 9.000000000000009
    vertex -126.35869789478977 -143.38106515466364 9.000000000000009
  endloop
endfacet
facet normal 0.0 0.0 1.0
  outer loop
    vertex -125.3772024371674 -145.08106515466363 9.000000000000009
    vertex -128.89570697954503 -146.88106515466362 9.000000000000012
    vertex -119.89570697954503 -146.88106515466362 9.000000000000012
  endloop
endfacet
facet normal 0.0 0.0 1.0
  outer loop
    vertex -125.3772024371674 -145.08106515466363 9.000000000000009
    vertex -119.89570697954503 -146.88106515466362 9.000000000000012
    vertex -123.41421152192267 -145.08106515466363 9.000000000000009
  endloop
endfacet
facet normal 0.0 0.0 1.0
  outer loop
    vertex -123.41421152192267 -145.08106515466363 9.000000000000009
    vertex -119.89570697954503 -146.88106515466362 9.000000000000012
    vertex -122.4327160643003 -143.38106515466364 9.000000000000009
  endloop
endfacet
facet normal 0.0 0.0 1.0
  outer loop
    vertex -122.4327160643003 -143.38106515466364 9.000000000000009
    vertex -119.89570697954503 -146.88106515466362 9.000000000000012
    vertex -122.4327160643003 -141.38106515466364 9.000000000000009
  endloop
endfacet
facet normal 0.0 0.0 1.0
  outer loop
    vertex -118.89570697954503 -151.38106515466364 9.000000000000012
    vertex -119.89570697954503 -146.88106515466362 9.000000000000012
    vertex -119.89570697954503 -151.38106515466364 9.000000000000012
  endloop
endfacet
facet normal 0.0 0.0 1.0
  outer loop
    vertex -128.89570697954503 -151.38106515466364 9.000000000000012
    vertex -129.89570697954503 -135.88106515466362 9.000000000000012
    vertex -129.89570697954503 -151.38106515466364 9.000000000000012
  endloop
endfacet
facet normal 0.0 0.0 1.0
  outer loop
    vertex -129.89570697954503 -135.88106515466362 9.000000000000012
    vertex -128.89570697954503 -151.38106515466364 9.000000000000012
    vertex -128.89570697954503 -146.88106515466362 9.000000000000012
  endloop
endfacet
facet normal 0.0 0.0 1.0
  outer loop
    vertex -129.89570697954503 -135.88106515466362 9.000000000000012
    vertex -128.89570697954503 -146.88106515466362 9.000000000000012
    vertex -126.35869789478977 -141.38106515466364 9.000000000000009
  endloop
endfacet
facet normal 0.0 0.0 1.0
  outer loop
    vertex -129.89570697954503 -135.88106515466362 9.000000000000012
    vertex -126.35869789478977 -141.38106515466364 9.000000000000009
    vertex -125.3772024371674 -139.68106515466363 9.000000000000009
  endloop
endfacet
facet normal 0.0 0.0 1.0
  outer loop
    vertex -129.89570697954503 -135.88106515466362 9.000000000000012
    vertex -125.3772024371674 -139.68106515466363 9.000000000000009
    vertex -118.89570697954503 -135.88106515466362 9.000000000000012
  endloop
endfacet
facet normal 0.0 0.0 1.0
  outer loop
    vertex -126.35869789478977 -141.38106515466364 9.000000000000009
    vertex -128.89570697954503 -146.88106515466362 9.000000000000012
    vertex -126.35869789478977 -143.38106515466364 9.000000000000009
  endloop
endfacet
facet normal 0.0 0.0 1.0
  outer loop
    vertex -118.89570697954503 -135.88106515466362 9.000000000000012
    vertex -125.3772024371674 -139.68106515466363 9.000000000000009
    vertex -123.41421152192267 -139.68106515466363 9.000000000000009
  endloop
endfacet
facet normal 0.0 0.0 1.0
  outer loop
    vertex -118.89570697954503 -135.88106515466362 9.000000000000012
    vertex -123.41421152192267 -139.68106515466363 9.000000000000009
    vertex -122.4327160643003 -141.38106515466364 9.000000000000009
  endloop
endfacet
facet normal 0.0 0.0 1.0
  outer loop
    vertex -118.89570697954503 -135.88106515466362 9.000000000000012
    vertex -122.4327160643003 -141.38106515466364 9.000000000000009
    vertex -119.89570697954503 -146.88106515466362 9.000000000000012
  endloop
endfacet
facet normal 0.0 0.0 1.0
  outer loop
    vertex -118.89570697954503 -135.88106515466362 9.000000000000012
    vertex -119.89570697954503 -146.88106515466362 9.000000000000012
    vertex -118.89570697954503 -151.38106515466364 9.000000000000012
  endloop
endfacet
facet normal 1.0 0.0 0.0
  outer loop
    vertex -118.89570697954503 -135.88106515466362 1.127986593019159e-14
    vertex -118.89570697954503 -151.38106515466364 9.000000000000012
    vertex -118.89570697954503 -151.38106515466364 1.127986593019159e-14
  endloop
endfacet
facet normal 1.0 0.0 0.0
  outer loop
    vertex -118.89570697954503 -151.38106515466364 9.000000000000012
    vertex -118.89570697954503 -135.88106515466362 1.127986593019159e-14
    vertex -118.89570697954503 -135.88106515466362 9.000000000000012
  endloop
endfacet
facet normal 0.0 0.0 1.0
  outer loop
    vertex -119.89570697954503 -151.38106515466364 9.000000000000012
    vertex -128.89570697954503 -146.88106515466362 9.000000000000012
    vertex -128.89570697954503 -151.38106515466364 9.000000000000012
  endloop
endfacet
facet normal 0.0 0.0 1.0
  outer loop
    vertex -128.89570697954503 -146.88106515466362 9.000000000000012
    vertex -119.89570697954503 -151.38106515466364 9.000000000000012
    vertex -119.89570697954503 -146.88106515466362 9.000000000000012
  endloop
endfacet
facet normal 0.0 1.0 0.0
  outer loop
    vertex -129.89570697954503 -135.88106515466362 9.000000000000012
    vertex -128.595706979545 -135.88106515466362 1.2689849171465539e-14
    vertex -129.89570697954503 -135.88106515466362 1.127986593019159e-14
  endloop
endfacet
facet normal 0.0 1.0 0.0
  outer loop
    vertex -128.595706979545 -135.88106515466362 1.2689849171465539e-14
    vertex -118.89570697954503 -135.88106515466362 1.127986593019159e-14
    vertex -120.19570697954502 -135.88106515466362 1.127986593019159e-14
  endloop
endfacet
facet normal 0.0 1.0 0.0
  outer loop
    vertex -118.89570697954503 -135.88106515466362 1.127986593019159e-14
    vertex -128.595706979545 -135.88106515466362 1.2689849171465539e-14
    vertex -118.89570697954503 -135.88106515466362 9.000000000000012
  endloop
endfacet
facet normal 0.0 1.0 0.0
  outer loop
    vertex -118.89570697954503 -135.88106515466362 9.000000000000012
    vertex -128.595706979545 -135.88106515466362 1.2689849171465539e-14
    vertex -129.89570697954503 -135.88106515466362 9.000000000000012
  endloop
endfacet
facet normal 0.0 0.0 1.0
  outer loop
    vertex -129.895706979545 -156.38106515466364 9.000000000000012
    vertex -128.89570697954503 -151.38106515466364 9.000000000000012
    vertex -129.89570697954503 -151.38106515466364 9.000000000000012
  endloop
endfacet
facet normal 0.0 0.0 1.0
  outer loop
    vertex -128.89570697954503 -151.38106515466364 9.000000000000012
    vertex -129.895706979545 -156.38106515466364 9.000000000000012
    vertex -118.89570697954503 -156.38106515466364 9.000000000000012
  endloop
endfacet
facet normal 0.0 0.0 1.0
  outer loop
    vertex -128.89570697954503 -151.38106515466364 9.000000000000012
    vertex -118.89570697954503 -156.38106515466364 9.000000000000012
    vertex -119.89570697954503 -151.38106515466364 9.000000000000012
  endloop
endfacet
facet normal 0.0 0.0 1.0
  outer loop
    vertex -119.89570697954503 -151.38106515466364 9.000000000000012
    vertex -118.89570697954503 -156.38106515466364 9.000000000000012
    vertex -118.89570697954503 -151.38106515466364 9.000000000000012
  endloop
endfacet
facet normal 0.0 -1.0 0.0
  outer loop
    vertex -118.89570697954503 -156.38106515466364 -8.99999999999999
    vertex -124.39570697954504 -156.38106515466353 -6.462990915244713
    vertex -129.895706979545 -156.38106515466364 -8.99999999999999
  endloop
endfacet
facet normal 0.0 -1.0 0.0
  outer loop
    vertex -124.39570697954504 -156.38106515466353 -6.462990915244713
    vertex -118.89570697954503 -156.38106515466364 -8.99999999999999
    vertex -122.69570697954504 -156.38106515466353 -5.481495457622352
  endloop
endfacet
facet normal 0.0 -1.0 0.0
  outer loop
    vertex -122.69570697954504 -156.38106515466353 -5.481495457622352
    vertex -118.89570697954503 -156.38106515466364 -8.99999999999999
    vertex -118.89570697954503 -156.38106515466364 9.000000000000012
  endloop
endfacet
facet normal 0.0 -1.0 0.0
  outer loop
    vertex -122.69570697954504 -156.38106515466353 -5.481495457622352
    vertex -118.89570697954503 -156.38106515466364 9.000000000000012
    vertex -122.69570697954504 -156.38106515466353 -3.518504542377627
  endloop
endfacet
facet normal 0.0 -1.0 0.0
  outer loop
    vertex -122.69570697954504 -156.38106515466353 -3.518504542377627
    vertex -118.89570697954503 -156.38106515466364 9.000000000000012
    vertex -124.39570697954504 -156.38106515466353 -2.5370090847552644
  endloop
endfacet
facet normal 0.0 -1.0 0.0
  outer loop
    vertex -129.895706979545 -156.38106515466364 -8.99999999999999
    vertex -126.09570697954503 -156.38106515466353 -5.481495457622351
    vertex -129.895706979545 -156.38106515466364 9.000000000000012
  endloop
endfacet
facet normal 0.0 -1.0 0.0
  outer loop
    vertex -126.09570697954503 -156.38106515466353 -5.481495457622351
    vertex -129.895706979545 -156.38106515466364 -8.99999999999999
    vertex -124.39570697954504 -156.38106515466353 -6.462990915244713
  endloop
endfacet
facet normal 0.0 -1.0 0.0
  outer loop
    vertex -129.895706979545 -156.38106515466364 9.000000000000012
    vertex -126.09570697954503 -156.38106515466353 -5.481495457622351
    vertex -126.09570697954503 -156.38106515466353 -3.518504542377627
  endloop
endfacet
facet normal 0.0 -1.0 0.0
  outer loop
    vertex -129.895706979545 -156.38106515466364 9.000000000000012
    vertex -126.09570697954503 -156.38106515466353 -3.518504542377627
    vertex -124.39570697954504 -156.38106515466353 -2.5370090847552644
  endloop
endfacet
facet normal 0.0 -1.0 0.0
  outer loop
    vertex -129.895706979545 -156.38106515466364 9.000000000000012
    vertex -124.39570697954504 -156.38106515466353 -2.5370090847552644
    vertex -118.89570697954503 -156.38106515466364 9.000000000000012
  endloop
endfacet
facet normal 0.5000000000000001 0.0 0.8660254037844387
  outer loop
    vertex -124.39570697954504 -156.38106515466353 -6.462990915244713
    vertex -126.09570697954503 -151.38106515466364 -5.481495457622351
    vertex -126.09570697954503 -156.38106515466353 -5.481495457622351
  endloop
endfacet
facet normal 0.5000000000000001 0.0 0.8660254037844387
  outer loop
    vertex -126.09570697954503 -151.38106515466364 -5.481495457622351
    vertex -124.39570697954504 -156.38106515466353 -6.462990915244713
    vertex -124.39570697954504 -151.38106515466364 -6.462990915244713
  endloop
endfacet
facet normal 1.0 0.0 0.0
  outer loop
    vertex -126.09570697954503 -151.38106515466364 -5.481495457622351
    vertex -126.09570697954503 -156.38106515466353 -3.518504542377627
    vertex -126.09570697954503 -156.38106515466353 -5.481495457622351
  endloop
endfacet
facet normal 1.0 0.0 0.0
  outer loop
    vertex -126.09570697954503 -156.38106515466353 -3.518504542377627
    vertex -126.09570697954503 -151.38106515466364 -5.481495457622351
    vertex -126.09570697954503 -151.38106515466364 -3.518504542377627
  endloop
endfacet
facet normal 0.5000000000000001 0.0 -0.8660254037844387
  outer loop
    vertex -124.39570697954504 -151.38106515466364 -2.5370090847552644
    vertex -126.09570697954503 -156.38106515466353 -3.518504542377627
    vertex -126.09570697954503 -151.38106515466364 -3.518504542377627
  endloop
endfacet
facet normal 0.5000000000000001 0.0 -0.8660254037844387
  outer loop
    vertex -126.09570697954503 -156.38106515466353 -3.518504542377627
    vertex -124.39570697954504 -151.38106515466364 -2.5370090847552644
    vertex -124.39570697954504 -156.38106515466353 -2.5370090847552644
  endloop
endfacet
facet normal -0.5000000000000001 -0.0 -0.8660254037844387
  outer loop
    vertex -122.69570697954504 -151.38106515466364 -3.518504542377627
    vertex -124.39570697954504 -156.38106515466353 -2.5370090847552644
    vertex -124.39570697954504 -151.38106515466364 -2.5370090847552644
  endloop
endfacet
facet normal -0.5000000000000001 -0.0 -0.8660254037844387
  outer loop
    vertex -124.39570697954504 -156.38106515466353 -2.5370090847552644
    vertex -122.69570697954504 -151.38106515466364 -3.518504542377627
    vertex -122.69570697954504 -156.38106515466353 -3.518504542377627
  endloop
endfacet
facet normal -1.0 -0.0 -0.0
  outer loop
    vertex -122.69570697954504 -151.38106515466364 -3.518504542377627
    vertex -122.69570697954504 -156.38106515466353 -5.481495457622352
    vertex -122.69570697954504 -156.38106515466353 -3.518504542377627
  endloop
endfacet
facet normal -1.0 -0.0 -0.0
  outer loop
    vertex -122.69570697954504 -156.38106515466353 -5.481495457622352
    vertex -122.69570697954504 -151.38106515466364 -3.518504542377627
    vertex -122.69570697954504 -151.38106515466364 -5.481495457622352
  endloop
endfacet
facet normal -0.49999999999999983 0.0 0.8660254037844389
  outer loop
    vertex -122.69570697954504 -156.38106515466353 -5.481495457622352
    vertex -124.39570697954504 -151.38106515466364 -6.462990915244713
    vertex -124.39570697954504 -156.38106515466353 -6.462990915244713
  endloop
endfacet
facet normal -0.49999999999999983 0.0 0.8660254037844389
  outer loop
    vertex -124.39570697954504 -151.38106515466364 -6.462990915244713
    vertex -122.69570697954504 -156.38106515466353 -5.481495457622352
    vertex -122.69570697954504 -151.38106515466364 -5.481495457622352
  endloop
endfacet
facet normal 0.0 0.0 -1.0
  outer loop
    vertex -128.595706979545 -151.38106515466364 -8.999999999999988
    vertex -129.895706979545 -156.38106515466364 -8.99999999999999
    vertex -129.895706979545 -151.38106515466364 -8.99999999999999
  endloop
endfacet
facet normal 0.0 0.0 -1.0
  outer loop
    vertex -129.895706979545 -156.38106515466364 -8.99999999999999
    vertex -128.595706979545 -151.38106515466364 -8.999999999999988
    vertex -118.89570697954503 -156.38106515466364 -8.99999999999999
  endloop
endfacet
facet normal 0.0 0.0 -1.0
  outer loop
    vertex -118.89570697954503 -156.38106515466364 -8.99999999999999
    vertex -128.595706979545 -151.38106515466364 -8.999999999999988
    vertex -120.19570697954502 -151.38106515466364 -8.99999999999999
  endloop
endfacet
facet normal 0.0 0.0 -1.0
  outer loop
    vertex -118.89570697954503 -156.38106515466364 -8.99999999999999
    vertex -120.19570697954502 -151.38106515466364 -8.99999999999999
    vertex -118.89570697954503 -151.38106515466364 -8.99999999999999
  endloop
endfacet
facet normal 1.0 0.0 0.0
  outer loop
    vertex -118.89570697954503 -151.38106515466364 -8.99999999999999
    vertex -118.89570697954503 -156.38106515466364 9.000000000000012
    vertex -118.89570697954503 -156.38106515466364 -8.99999999999999
  endloop
endfacet
facet normal 1.0 0.0 0.0
  outer loop
    vertex -118.89570697954503 -156.38106515466364 9.000000000000012
    vertex -118.89570697954503 -151.38106515466364 -8.99999999999999
    vertex -118.89570697954503 -151.38106515466364 9.000000000000012
  endloop
endfacet
facet normal 1.0 0.0 0.0
  outer loop
    vertex -118.89570697954503 -151.38106515466364 9.000000000000012
    vertex -118.89570697954503 -151.38106515466364 -8.99999999999999
    vertex -118.89570697954503 -151.38106515466364 1.127986593019159e-14
  endloop
endfacet
facet normal -1.0 -1.6710912489172713e-15 -6.266592183439773e-16
  outer loop
    vertex -129.89570697954503 -151.38106515466364 9.000000000000012
    vertex -129.895706979545 -156.38106515466364 -8.99999999999999
    vertex -129.895706979545 -156.38106515466364 9.000000000000012
  endloop
endfacet
facet normal -1.0 -1.6710912489172713e-15 -6.266592183439773e-16
  outer loop
    vertex -129.895706979545 -156.38106515466364 -8.99999999999999
    vertex -129.89570697954503 -151.38106515466364 9.000000000000012
    vertex -129.895706979545 -151.38106515466364 -8.99999999999999
  endloop
endfacet
facet normal -1.0 -1.6710912489172713e-15 -6.266592183439773e-16
  outer loop
    vertex -129.895706979545 -151.38106515466364 -8.99999999999999
    vertex -129.89570697954503 -151.38106515466364 9.000000000000012
    vertex -129.89570697954503 -151.38106515466364 1.127986593019159e-14
  endloop
endfacet
facet normal 0.0 1.0 0.0
  outer loop
    vertex -125.3772024371674 -145.08106515466363 9.000000000000009
    vertex -123.41421152192267 -145.08106515466363 5.000000000000011
    vertex -125.3772024371674 -145.08106515466363 5.000000000000011
  endloop
endfacet
facet normal 0.0 1.0 0.0
  outer loop
    vertex -123.41421152192267 -145.08106515466363 5.000000000000011
    vertex -125.3772024371674 -145.08106515466363 9.000000000000009
    vertex -123.41421152192267 -145.08106515466363 9.000000000000009
  endloop
endfacet
facet normal 0.8660254037844372 0.5000000000000024 0.0
  outer loop
    vertex -126.35869789478977 -143.38106515466364 5.000000000000011
    vertex -125.3772024371674 -145.08106515466363 9.000000000000009
    vertex -125.3772024371674 -145.08106515466363 5.000000000000011
  endloop
endfacet
facet normal 0.8660254037844372 0.5000000000000024 0.0
  outer loop
    vertex -125.3772024371674 -145.08106515466363 9.000000000000009
    vertex -126.35869789478977 -143.38106515466364 5.000000000000011
    vertex -126.35869789478977 -143.38106515466364 9.000000000000009
  endloop
endfacet
facet normal 1.0 0.0 0.0
  outer loop
    vertex -126.35869789478977 -141.38106515466364 5.000000000000011
    vertex -126.35869789478977 -143.38106515466364 9.000000000000009
    vertex -126.35869789478977 -143.38106515466364 5.000000000000011
  endloop
endfacet
facet normal 1.0 0.0 0.0
  outer loop
    vertex -126.35869789478977 -143.38106515466364 9.000000000000009
    vertex -126.35869789478977 -141.38106515466364 5.000000000000011
    vertex -126.35869789478977 -141.38106515466364 9.000000000000009
  endloop
endfacet
facet normal 0.8660254037844372 -0.5000000000000024 0.0
  outer loop
    vertex -125.3772024371674 -139.68106515466363 5.000000000000011
    vertex -126.35869789478977 -141.38106515466364 9.000000000000009
    vertex -126.35869789478977 -141.38106515466364 5.000000000000011
  endloop
endfacet
facet normal 0.8660254037844372 -0.5000000000000024 0.0
  outer loop
    vertex -126.35869789478977 -141.38106515466364 9.000000000000009
    vertex -125.3772024371674 -139.68106515466363 5.000000000000011
    vertex -125.3772024371674 -139.68106515466363 9.000000000000009
  endloop
endfacet
facet normal 0.0 -1.0 0.0
  outer loop
    vertex -123.41421152192267 -139.68106515466363 9.000000000000009
    vertex -125.3772024371674 -139.68106515466363 5.000000000000011
    vertex -123.41421152192267 -139.68106515466363 5.000000000000011
  endloop
endfacet
facet normal 0.0 -1.0 0.0
  outer loop
    vertex -125.3772024371674 -139.68106515466363 5.000000000000011
    vertex -123.41421152192267 -139.68106515466363 9.000000000000009
    vertex -125.3772024371674 -139.68106515466363 9.000000000000009
  endloop
endfacet
facet normal -0.8660254037844372 -0.5000000000000024 -0.0
  outer loop
    vertex -123.41421152192267 -139.68106515466363 9.000000000000009
    vertex -122.4327160643003 -141.38106515466364 5.000000000000011
    vertex -122.4327160643003 -141.38106515466364 9.000000000000009
  endloop
endfacet
facet normal -0.8660254037844372 -0.5000000000000024 -0.0
  outer loop
    vertex -122.4327160643003 -141.38106515466364 5.000000000000011
    vertex -123.41421152192267 -139.68106515466363 9.000000000000009
    vertex -123.41421152192267 -139.68106515466363 5.000000000000011
  endloop
endfacet
facet normal -1.0 0.0 0.0
  outer loop
    vertex -122.4327160643003 -141.38106515466364 9.000000000000009
    vertex -122.4327160643003 -143.38106515466364 5.000000000000011
    vertex -122.4327160643003 -143.38106515466364 9.000000000000009
  endloop
endfacet
facet normal -1.0 0.0 0.0
  outer loop
    vertex -122.4327160643003 -143.38106515466364 5.000000000000011
    vertex -122.4327160643003 -141.38106515466364 9.000000000000009
    vertex -122.4327160643003 -141.38106515466364 5.000000000000011
  endloop
endfacet
facet normal -0.8660254037844372 0.5000000000000024 0.0
  outer loop
    vertex -122.4327160643003 -143.38106515466364 9.000000000000009
    vertex -123.41421152192267 -145.08106515466363 5.000000000000011
    vertex -123.41421152192267 -145.08106515466363 9.000000000000009
  endloop
endfacet
facet normal -0.8660254037844372 0.5000000000000024 0.0
  outer loop
    vertex -123.41421152192267 -145.08106515466363 5.000000000000011
    vertex -122.4327160643003 -143.38106515466364 9.000000000000009
    vertex -122.4327160643003 -143.38106515466364 5.000000000000011
  endloop
endfacet
facet normal 0.0 0.0 -1.0
  outer loop
    vertex -128.31462568490085 -141.15310665965941 5.000000000000011
    vertex -128.37570697954504 -141.55706515466363 5.000000000000011
    vertex -128.37570697954504 -141.38106515466364 5.000000000000011
  endloop
endfacet
facet normal 0.0 0.0 -1.0
  outer loop
    vertex -128.37570697954504 -141.55706515466363 5.000000000000011
    vertex -128.31462568490085 -141.15310665965941 5.000000000000011
    vertex -128.37570697954504 -143.38106515466364 5.000000000000011
  endloop
endfacet
facet normal 0.0 0.0 -1.0
  outer loop
    vertex -128.37570697954504 -143.38106515466364 5.000000000000011
    vertex -128.31462568490085 -141.15310665965941 5.000000000000011
    vertex -127.84248808660712 -145.37106515466363 5.000000000000011
  endloop
endfacet
facet normal 0.0 0.0 -1.0
  outer loop
    vertex -127.84248808660712 -145.37106515466363 5.000000000000011
    vertex -128.31462568490085 -141.15310665965941 5.000000000000011
    vertex -127.84248808660712 -139.39106515466364 5.000000000000011
  endloop
endfacet
facet normal 0.0 0.0 -1.0
  outer loop
    vertex -127.84248808660712 -145.37106515466363 5.000000000000011
    vertex -127.84248808660712 -139.39106515466364 5.000000000000011
    vertex -126.38570697954503 -137.93428404760155 5.000000000000011
  endloop
endfacet
facet normal 0.0 0.0 -1.0
  outer loop
    vertex -127.84248808660712 -145.37106515466363 5.000000000000011
    vertex -126.38570697954503 -137.93428404760155 5.000000000000011
    vertex -126.38570697954503 -146.8278462617257 5.000000000000011
  endloop
endfacet
facet normal 0.0 0.0 -1.0
  outer loop
    vertex -126.38570697954503 -146.8278462617257 5.000000000000011
    vertex -126.38570697954503 -137.93428404760155 5.000000000000011
    vertex -126.35869789478977 -141.38106515466364 5.000000000000011
  endloop
endfacet
facet normal 0.0 0.0 -1.0
  outer loop
    vertex -126.35869789478977 -141.38106515466364 5.000000000000011
    vertex -126.38570697954503 -137.93428404760155 5.000000000000011
    vertex -124.39570697954504 -137.40106515466363 5.000000000000011
  endloop
endfacet
facet normal 0.0 0.0 -1.0
  outer loop
    vertex -126.35869789478977 -141.38106515466364 5.000000000000011
    vertex -124.39570697954504 -137.40106515466363 5.000000000000011
    vertex -125.3772024371674 -139.68106515466363 5.000000000000011
  endloop
endfacet
facet normal 0.0 0.0 -1.0
  outer loop
    vertex -125.3772024371674 -139.68106515466363 5.000000000000011
    vertex -124.39570697954504 -137.40106515466363 5.000000000000011
    vertex -123.41421152192267 -139.68106515466363 5.000000000000011
  endloop
endfacet
facet normal 0.0 0.0 -1.0
  outer loop
    vertex -123.41421152192267 -139.68106515466363 5.000000000000011
    vertex -124.39570697954504 -137.40106515466363 5.000000000000011
    vertex -122.40570697954503 -137.93428404760155 5.000000000000011
  endloop
endfacet
facet normal 0.0 0.0 -1.0
  outer loop
    vertex -123.41421152192267 -139.68106515466363 5.000000000000011
    vertex -122.40570697954503 -137.93428404760155 5.000000000000011
    vertex -122.4327160643003 -141.38106515466364 5.000000000000011
  endloop
endfacet
facet normal 0.0 0.0 -1.0
  outer loop
    vertex -122.4327160643003 -141.38106515466364 5.000000000000011
    vertex -122.40570697954503 -137.93428404760155 5.000000000000011
    vertex -122.4327160643003 -143.38106515466364 5.000000000000011
  endloop
endfacet
facet normal 0.0 0.0 -1.0
  outer loop
    vertex -126.38570697954503 -146.8278462617257 5.000000000000011
    vertex -126.35869789478977 -143.38106515466364 5.000000000000011
    vertex -124.39570697954504 -147.36106515466363 5.000000000000011
  endloop
endfacet
facet normal 0.0 0.0 -1.0
  outer loop
    vertex -126.35869789478977 -143.38106515466364 5.000000000000011
    vertex -126.38570697954503 -146.8278462617257 5.000000000000011
    vertex -126.35869789478977 -141.38106515466364 5.000000000000011
  endloop
endfacet
facet normal 0.0 0.0 -1.0
  outer loop
    vertex -124.39570697954504 -147.36106515466363 5.000000000000011
    vertex -126.35869789478977 -143.38106515466364 5.000000000000011
    vertex -125.3772024371674 -145.08106515466363 5.000000000000011
  endloop
endfacet
facet normal 0.0 0.0 -1.0
  outer loop
    vertex -124.39570697954504 -147.36106515466363 5.000000000000011
    vertex -125.3772024371674 -145.08106515466363 5.000000000000011
    vertex -123.41421152192267 -145.08106515466363 5.000000000000011
  endloop
endfacet
facet normal 0.0 0.0 -1.0
  outer loop
    vertex -124.39570697954504 -147.36106515466363 5.000000000000011
    vertex -123.41421152192267 -145.08106515466363 5.000000000000011
    vertex -122.40570697954503 -146.8278462617257 5.000000000000011
  endloop
endfacet
facet normal 0.0 0.0 -1.0
  outer loop
    vertex -122.40570697954503 -146.8278462617257 5.000000000000011
    vertex -123.41421152192267 -145.08106515466363 5.000000000000011
    vertex -122.4327160643003 -143.38106515466364 5.000000000000011
  endloop
endfacet
facet normal 0.0 0.0 -1.0
  outer loop
    vertex -122.40570697954503 -146.8278462617257 5.000000000000011
    vertex -122.4327160643003 -143.38106515466364 5.000000000000011
    vertex -122.40570697954503 -137.93428404760155 5.000000000000011
  endloop
endfacet
facet normal 0.0 0.0 -1.0
  outer loop
    vertex -122.40570697954503 -146.8278462617257 5.000000000000011
    vertex -122.40570697954503 -137.93428404760155 5.000000000000011
    vertex -120.94892587248296 -139.39106515466364 5.000000000000011
  endloop
endfacet
facet normal 0.0 0.0 -1.0
  outer loop
    vertex -122.40570697954503 -146.8278462617257 5.000000000000011
    vertex -120.94892587248296 -139.39106515466364 5.000000000000011
    vertex -120.94892587248296 -145.37106515466363 5.000000000000011
  endloop
endfacet
facet normal 0.0 0.0 -1.0
  outer loop
    vertex -120.94892587248296 -145.37106515466363 5.000000000000011
    vertex -120.94892587248296 -139.39106515466364 5.000000000000011
    vertex -120.41570697954504 -141.38106515466364 5.000000000000011
  endloop
endfacet
facet normal 0.0 0.0 -1.0
  outer loop
    vertex -120.94892587248296 -145.37106515466363 5.000000000000011
    vertex -120.41570697954504 -141.38106515466364 5.000000000000011
    vertex -120.41570697954504 -143.38106515466364 5.000000000000011
  endloop
endfacet
facet normal 1.0 0.0 0.0
  outer loop
    vertex -128.37570697954504 -141.55706515466363 1.127986593019159e-14
    vertex -128.37570697954504 -143.38106515466364 5.000000000000011
    vertex -128.37570697954504 -143.38106515466364 1.127986593019159e-14
  endloop
endfacet
facet normal 1.0 0.0 0.0
  outer loop
    vertex -128.37570697954504 -143.38106515466364 5.000000000000011
    vertex -128.37570697954504 -141.55706515466363 1.127986593019159e-14
    vertex -128.37570697954504 -141.55706515466363 5.000000000000011
  endloop
endfacet
facet normal 1.0 0.0 0.0
  outer loop
    vertex -128.37570697954504 -141.38106515466364 1.127986593019159e-14
    vertex -128.37570697954504 -141.55706515466363 5.000000000000011
    vertex -128.37570697954504 -141.55706515466363 1.127986593019159e-14
  endloop
endfacet
facet normal 1.0 0.0 0.0
  outer loop
    vertex -128.37570697954504 -141.55706515466363 5.000000000000011
    vertex -128.37570697954504 -141.38106515466364 1.127986593019159e-14
    vertex -128.37570697954504 -141.38106515466364 5.000000000000011
  endloop
endfacet
facet normal 0.9659258262890803 -0.2588190451024765 0.0
  outer loop
    vertex -128.31462568490085 -141.15310665965941 1.127986593019159e-14
    vertex -128.37570697954504 -141.38106515466364 5.000000000000011
    vertex -128.37570697954504 -141.38106515466364 1.127986593019159e-14
  endloop
endfacet
facet normal 0.9659258262890803 -0.2588190451024765 0.0
  outer loop
    vertex -128.37570697954504 -141.38106515466364 5.000000000000011
    vertex -128.31462568490085 -141.15310665965941 1.127986593019159e-14
    vertex -128.31462568490085 -141.15310665965941 5.000000000000011
  endloop
endfacet
facet normal 0.9659258262890679 -0.2588190451025226 0.0
  outer loop
    vertex -127.84248808660712 -139.39106515466364 1.127986593019159e-14
    vertex -128.31462568490085 -141.15310665965941 5.000000000000011
    vertex -128.31462568490085 -141.15310665965941 1.127986593019159e-14
  endloop
endfacet
facet normal 0.9659258262890679 -0.2588190451025226 0.0
  outer loop
    vertex -128.31462568490085 -141.15310665965941 5.000000000000011
    vertex -127.84248808660712 -139.39106515466364 1.127986593019159e-14
    vertex -127.84248808660712 -139.39106515466364 5.000000000000011
  endloop
endfacet
facet normal 0.7071067811865476 -0.7071067811865476 0.0
  outer loop
    vertex -126.38570697954503 -137.93428404760155 1.127986593019159e-14
    vertex -127.84248808660712 -139.39106515466364 5.000000000000011
    vertex -127.84248808660712 -139.39106515466364 1.127986593019159e-14
  endloop
endfacet
facet normal 0.7071067811865476 -0.7071067811865476 0.0
  outer loop
    vertex -127.84248808660712 -139.39106515466364 5.000000000000011
    vertex -126.38570697954503 -137.93428404760155 1.127986593019159e-14
    vertex -126.38570697954503 -137.93428404760155 5.000000000000011
  endloop
endfacet
facet normal 0.25881904510251735 -0.9659258262890693 0.0
  outer loop
    vertex -124.39570697954504 -137.40106515466363 5.000000000000011
    vertex -126.38570697954503 -137.93428404760155 1.127986593019159e-14
    vertex -124.39570697954504 -137.40106515466363 1.127986593019159e-14
  endloop
endfacet
facet normal 0.25881904510251735 -0.9659258262890693 0.0
  outer loop
    vertex -126.38570697954503 -137.93428404760155 1.127986593019159e-14
    vertex -124.39570697954504 -137.40106515466363 5.000000000000011
    vertex -126.38570697954503 -137.93428404760155 5.000000000000011
  endloop
endfacet
facet normal -0.25881904510251735 -0.9659258262890693 -0.0
  outer loop
    vertex -122.40570697954503 -137.93428404760155 5.000000000000011
    vertex -124.39570697954504 -137.40106515466363 1.127986593019159e-14
    vertex -122.40570697954503 -137.93428404760155 1.127986593019159e-14
  endloop
endfacet
facet normal -0.25881904510251735 -0.9659258262890693 -0.0
  outer loop
    vertex -124.39570697954504 -137.40106515466363 1.127986593019159e-14
    vertex -122.40570697954503 -137.93428404760155 5.000000000000011
    vertex -124.39570697954504 -137.40106515466363 5.000000000000011
  endloop
endfacet
facet normal -0.7071067811865476 -0.7071067811865476 -0.0
  outer loop
    vertex -122.40570697954503 -137.93428404760155 5.000000000000011
    vertex -120.94892587248296 -139.39106515466364 1.127986593019159e-14
    vertex -120.94892587248296 -139.39106515466364 5.000000000000011
  endloop
endfacet
facet normal -0.7071067811865476 -0.7071067811865476 -0.0
  outer loop
    vertex -120.94892587248296 -139.39106515466364 1.127986593019159e-14
    vertex -122.40570697954503 -137.93428404760155 5.000000000000011
    vertex -122.40570697954503 -137.93428404760155 1.127986593019159e-14
  endloop
endfacet
facet normal -0.9659258262890693 -0.25881904510251735 -0.0
  outer loop
    vertex -120.94892587248296 -139.39106515466364 5.000000000000011
    vertex -120.41570697954504 -141.38106515466364 1.127986593019159e-14
    vertex -120.41570697954504 -141.38106515466364 5.000000000000011
  endloop
endfacet
facet normal -0.9659258262890693 -0.25881904510251735 -0.0
  outer loop
    vertex -120.41570697954504 -141.38106515466364 1.127986593019159e-14
    vertex -120.94892587248296 -139.39106515466364 5.000000000000011
    vertex -120.94892587248296 -139.39106515466364 1.127986593019159e-14
  endloop
endfacet
facet normal -1.0 -0.0 -0.0
  outer loop
    vertex -120.41570697954504 -141.38106515466364 5.000000000000011
    vertex -120.41570697954504 -143.38106515466364 1.127986593019159e-14
    vertex -120.41570697954504 -143.38106515466364 5.000000000000011
  endloop
endfacet
facet normal -1.0 -0.0 -0.0
  outer loop
    vertex -120.41570697954504 -143.38106515466364 1.127986593019159e-14
    vertex -120.41570697954504 -141.38106515466364 5.000000000000011
    vertex -120.41570697954504 -141.38106515466364 1.127986593019159e-14
  endloop
endfacet
facet normal -0.9659258262890693 0.25881904510251735 0.0
  outer loop
    vertex -120.41570697954504 -143.38106515466364 5.000000000000011
    vertex -120.94892587248296 -145.37106515466363 1.127986593019159e-14
    vertex -120.94892587248296 -145.37106515466363 5.000000000000011
  endloop
endfacet
facet normal -0.9659258262890693 0.25881904510251735 0.0
  outer loop
    vertex -120.94892587248296 -145.37106515466363 1.127986593019159e-14
    vertex -120.41570697954504 -143.38106515466364 5.000000000000011
    vertex -120.41570697954504 -143.38106515466364 1.127986593019159e-14
  endloop
endfacet
facet normal -0.7071067811865476 0.7071067811865476 0.0
  outer loop
    vertex -120.94892587248296 -145.37106515466363 5.000000000000011
    vertex -122.40570697954503 -146.8278462617257 1.127986593019159e-14
    vertex -122.40570697954503 -146.8278462617257 5.000000000000011
  endloop
endfacet
facet normal -0.7071067811865476 0.7071067811865476 0.0
  outer loop
    vertex -122.40570697954503 -146.8278462617257 1.127986593019159e-14
    vertex -120.94892587248296 -145.37106515466363 5.000000000000011
    vertex -120.94892587248296 -145.37106515466363 1.127986593019159e-14
  endloop
endfacet
facet normal -0.25881904510251735 0.9659258262890693 0.0
  outer loop
    vertex -124.39570697954504 -147.36106515466363 5.000000000000011
    vertex -122.40570697954503 -146.8278462617257 1.127986593019159e-14
    vertex -124.39570697954504 -147.36106515466363 1.127986593019159e-14
  endloop
endfacet
facet normal -0.25881904510251735 0.9659258262890693 0.0
  outer loop
    vertex -122.40570697954503 -146.8278462617257 1.127986593019159e-14
    vertex -124.39570697954504 -147.36106515466363 5.000000000000011
    vertex -122.40570697954503 -146.8278462617257 5.000000000000011
  endloop
endfacet
facet normal 0.25881904510251735 0.9659258262890693 0.0
  outer loop
    vertex -126.38570697954503 -146.8278462617257 5.000000000000011
    vertex -124.39570697954504 -147.36106515466363 1.127986593019159e-14
    vertex -126.38570697954503 -146.8278462617257 1.127986593019159e-14
  endloop
endfacet
facet normal 0.25881904510251735 0.9659258262890693 0.0
  outer loop
    vertex -124.39570697954504 -147.36106515466363 1.127986593019159e-14
    vertex -126.38570697954503 -146.8278462617257 5.000000000000011
    vertex -124.39570697954504 -147.36106515466363 5.000000000000011
  endloop
endfacet
facet normal 0.7071067811865476 0.7071067811865476 0.0
  outer loop
    vertex -127.84248808660712 -145.37106515466363 1.127986593019159e-14
    vertex -126.38570697954503 -146.8278462617257 5.000000000000011
    vertex -126.38570697954503 -146.8278462617257 1.127986593019159e-14
  endloop
endfacet
facet normal 0.7071067811865476 0.7071067811865476 0.0
  outer loop
    vertex -126.38570697954503 -146.8278462617257 5.000000000000011
    vertex -127.84248808660712 -145.37106515466363 1.127986593019159e-14
    vertex -127.84248808660712 -145.37106515466363 5.000000000000011
  endloop
endfacet
facet normal 0.9659258262890693 0.25881904510251735 0.0
  outer loop
    vertex -128.37570697954504 -143.38106515466364 1.127986593019159e-14
    vertex -127.84248808660712 -145.37106515466363 5.000000000000011
    vertex -127.84248808660712 -145.37106515466363 1.127986593019159e-14
  endloop
endfacet
facet normal 0.9659258262890693 0.25881904510251735 0.0
  outer loop
    vertex -127.84248808660712 -145.37106515466363 5.000000000000011
    vertex -128.37570697954504 -143.38106515466364 1.127986593019159e-14
    vertex -128.37570697954504 -143.38106515466364 5.000000000000011
  endloop
endfacet
facet normal -1.0 0.0 -2.506636873375909e-15
  outer loop
    vertex -129.89570697954503 -135.88106515466362 1.127986593019159e-14
    vertex -129.895706979545 -151.38106515466364 -8.99999999999999
    vertex -129.89570697954503 -151.38106515466364 1.127986593019159e-14
  endloop
endfacet
facet normal -4.683142623694432e-17 0.5021355173865033 -0.8647889466100898
  outer loop
    vertex -128.595706979545 -135.88106515466362 1.2689849171465539e-14
    vertex -129.895706979545 -151.38106515466364 -8.99999999999999
    vertex -129.89570697954503 -135.88106515466362 1.127986593019159e-14
  endloop
endfacet
facet normal -4.683142623694432e-17 0.5021355173865033 -0.8647889466100898
  outer loop
    vertex -129.895706979545 -151.38106515466364 -8.99999999999999
    vertex -128.595706979545 -135.88106515466362 1.2689849171465539e-14
    vertex -128.595706979545 -151.38106515466364 -8.999999999999988
  endloop
endfacet
facet normal 1.0 0.0 2.506636873375909e-15
  outer loop
    vertex -128.595706979545 -135.88106515466362 1.2689849171465539e-14
    vertex -128.595706979545 -151.38106515466364 1.2689849171465539e-14
    vertex -128.595706979545 -151.38106515466364 -8.999999999999988
  endloop
endfacet
facet normal 0.0 0.5021355173865033 -0.8647889466100898
  outer loop
    vertex -118.89570697954503 -135.88106515466362 1.127986593019159e-14
    vertex -120.19570697954502 -151.38106515466364 -8.99999999999999
    vertex -120.19570697954502 -135.88106515466362 1.127986593019159e-14
  endloop
endfacet
facet normal 0.0 0.5021355173865033 -0.8647889466100898
  outer loop
    vertex -120.19570697954502 -151.38106515466364 -8.99999999999999
    vertex -118.89570697954503 -135.88106515466362 1.127986593019159e-14
    vertex -118.89570697954503 -151.38106515466364 -8.99999999999999
  endloop
endfacet
facet normal 1.0 0.0 0.0
  outer loop
    vertex -118.89570697954503 -135.88106515466362 1.127986593019159e-14
    vertex -118.89570697954503 -151.38106515466364 1.127986593019159e-14
    vertex -118.89570697954503 -151.38106515466364 -8.99999999999999
  endloop
endfacet
facet normal -1.0 -0.0 -0.0
  outer loop
    vertex -120.19570697954502 -135.88106515466362 1.127986593019159e-14
    vertex -120.19570697954502 -151.38106515466364 -8.99999999999999
    vertex -120.19570697954502 -151.38106515466364 1.127986593019159e-14
  endloop
endfacet
facet normal 0.0 1.0 0.0
  outer loop
    vertex -128.595706979545 -151.38106515466364 -8.999999999999988
    vertex -126.09570697954503 -151.38106515466364 -5.481495457622351
    vertex -124.39570697954504 -151.38106515466364 -6.462990915244713
  endloop
endfacet
facet normal 0.0 1.0 0.0
  outer loop
    vertex -126.09570697954503 -151.38106515466364 -5.481495457622351
    vertex -128.595706979545 -151.38106515466364 -8.999999999999988
    vertex -128.595706979545 -151.38106515466364 1.2689849171465539e-14
  endloop
endfacet
facet normal 0.0 1.0 0.0
  outer loop
    vertex -126.09570697954503 -151.38106515466364 -5.481495457622351
    vertex -128.595706979545 -151.38106515466364 1.2689849171465539e-14
    vertex -126.09570697954503 -151.38106515466364 -3.518504542377627
  endloop
endfacet
facet normal 0.0 1.0 0.0
  outer loop
    vertex -126.09570697954503 -151.38106515466364 -3.518504542377627
    vertex -128.595706979545 -151.38106515466364 1.2689849171465539e-14
    vertex -124.39570697954504 -151.38106515466364 -2.5370090847552644
  endloop
endfacet
facet normal 0.0 1.0 0.0
  outer loop
    vertex -124.39570697954504 -151.38106515466364 -2.5370090847552644
    vertex -128.595706979545 -151.38106515466364 1.2689849171465539e-14
    vertex -120.19570697954502 -151.38106515466364 1.127986593019159e-14
  endloop
endfacet
facet normal 0.0 1.0 0.0
  outer loop
    vertex -120.19570697954502 -151.38106515466364 -8.99999999999999
    vertex -122.69570697954504 -151.38106515466364 -5.481495457622352
    vertex -120.19570697954502 -151.38106515466364 1.127986593019159e-14
  endloop
endfacet
facet normal 0.0 1.0 0.0
  outer loop
    vertex -122.69570697954504 -151.38106515466364 -5.481495457622352
    vertex -120.19570697954502 -151.38106515466364 -8.99999999999999
    vertex -128.595706979545 -151.38106515466364 -8.999999999999988
  endloop
endfacet
facet normal 0.0 1.0 0.0
  outer loop
    vertex -122.69570697954504 -151.38106515466364 -5.481495457622352
    vertex -128.595706979545 -151.38106515466364 -8.999999999999988
    vertex -124.39570697954504 -151.38106515466364 -6.462990915244713
  endloop
endfacet
facet normal 0.0 1.0 0.0
  outer loop
    vertex -120.19570697954502 -151.38106515466364 1.127986593019159e-14
    vertex -122.69570697954504 -151.38106515466364 -5.481495457622352
    vertex -122.69570697954504 -151.38106515466364 -3.518504542377627
  endloop
endfacet
facet normal 0.0 1.0 0.0
  outer loop
    vertex -120.19570697954502 -151.38106515466364 1.127986593019159e-14
    vertex -122.69570697954504 -151.38106515466364 -3.518504542377627
    vertex -124.39570697954504 -151.38106515466364 -2.5370090847552644
  endloop
endfacet
facet normal 0.0 0.0 -1.0
  outer loop
    vertex -128.595706979545 -135.88106515466362 1.2689849171465539e-14
    vertex -128.37570697954504 -141.38106515466364 1.127986593019159e-14
    vertex -128.595706979545 -151.38106515466364 1.2689849171465539e-14
  endloop
endfacet
facet normal 0.0 0.0 -1.0
  outer loop
    vertex -128.37570697954504 -141.38106515466364 1.127986593019159e-14
    vertex -128.595706979545 -135.88106515466362 1.2689849171465539e-14
    vertex -128.31462568490085 -141.15310665965941 1.127986593019159e-14
  endloop
endfacet
facet normal 0.0 0.0 -1.0
  outer loop
    vertex -128.31462568490085 -141.15310665965941 1.127986593019159e-14
    vertex -128.595706979545 -135.88106515466362 1.2689849171465539e-14
    vertex -127.84248808660712 -139.39106515466364 1.127986593019159e-14
  endloop
endfacet
facet normal 0.0 0.0 -1.0
  outer loop
    vertex -127.84248808660712 -139.39106515466364 1.127986593019159e-14
    vertex -128.595706979545 -135.88106515466362 1.2689849171465539e-14
    vertex -126.38570697954503 -137.93428404760155 1.127986593019159e-14
  endloop
endfacet
facet normal 0.0 0.0 -1.0
  outer loop
    vertex -126.38570697954503 -137.93428404760155 1.127986593019159e-14
    vertex -128.595706979545 -135.88106515466362 1.2689849171465539e-14
    vertex -120.19570697954502 -135.88106515466362 1.127986593019159e-14
  endloop
endfacet
facet normal 0.0 0.0 -1.0
  outer loop
    vertex -126.38570697954503 -137.93428404760155 1.127986593019159e-14
    vertex -120.19570697954502 -135.88106515466362 1.127986593019159e-14
    vertex -124.39570697954504 -137.40106515466363 1.127986593019159e-14
  endloop
endfacet
facet normal 0.0 0.0 -1.0
  outer loop
    vertex -124.39570697954504 -137.40106515466363 1.127986593019159e-14
    vertex -120.19570697954502 -135.88106515466362 1.127986593019159e-14
    vertex -122.40570697954503 -137.93428404760155 1.127986593019159e-14
  endloop
endfacet
facet normal 0.0 0.0 -1.0
  outer loop
    vertex -122.40570697954503 -137.93428404760155 1.127986593019159e-14
    vertex -120.19570697954502 -135.88106515466362 1.127986593019159e-14
    vertex -120.94892587248296 -139.39106515466364 1.127986593019159e-14
  endloop
endfacet
facet normal 0.0 0.0 -1.0
  outer loop
    vertex -120.94892587248296 -139.39106515466364 1.127986593019159e-14
    vertex -120.19570697954502 -135.88106515466362 1.127986593019159e-14
    vertex -120.41570697954504 -141.38106515466364 1.127986593019159e-14
  endloop
endfacet
facet normal 0.0 0.0 -1.0
  outer loop
    vertex -120.41570697954504 -141.38106515466364 1.127986593019159e-14
    vertex -120.19570697954502 -135.88106515466362 1.127986593019159e-14
    vertex -120.41570697954504 -143.38106515466364 1.127986593019159e-14
  endloop
endfacet
facet normal 0.0 0.0 -1.0
  outer loop
    vertex -128.595706979545 -151.38106515466364 1.2689849171465539e-14
    vertex -126.38570697954503 -146.8278462617257 1.127986593019159e-14
    vertex -120.19570697954502 -151.38106515466364 1.127986593019159e-14
  endloop
endfacet
facet normal 0.0 0.0 -1.0
  outer loop
    vertex -126.38570697954503 -146.8278462617257 1.127986593019159e-14
    vertex -128.595706979545 -151.38106515466364 1.2689849171465539e-14
    vertex -127.84248808660712 -145.37106515466363 1.127986593019159e-14
  endloop
endfacet
facet normal 0.0 0.0 -1.0
  outer loop
    vertex -127.84248808660712 -145.37106515466363 1.127986593019159e-14
    vertex -128.595706979545 -151.38106515466364 1.2689849171465539e-14
    vertex -128.37570697954504 -143.38106515466364 1.127986593019159e-14
  endloop
endfacet
facet normal 0.0 0.0 -1.0
  outer loop
    vertex -128.37570697954504 -143.38106515466364 1.127986593019159e-14
    vertex -128.595706979545 -151.38106515466364 1.2689849171465539e-14
    vertex -128.37570697954504 -141.38106515466364 1.127986593019159e-14
  endloop
endfacet
facet normal 0.0 0.0 -1.0
  outer loop
    vertex -128.37570697954504 -143.38106515466364 1.127986593019159e-14
    vertex -128.37570697954504 -141.38106515466364 1.127986593019159e-14
    vertex -128.37570697954504 -141.55706515466363 1.127986593019159e-14
  endloop
endfacet
facet normal 0.0 0.0 -1.0
  outer loop
    vertex -120.19570697954502 -151.38106515466364 1.127986593019159e-14
    vertex -126.38570697954503 -146.8278462617257 1.127986593019159e-14
    vertex -124.39570697954504 -147.36106515466363 1.127986593019159e-14
  endloop
endfacet
facet normal 0.0 0.0 -1.0
  outer loop
    vertex -120.19570697954502 -151.38106515466364 1.127986593019159e-14
    vertex -124.39570697954504 -147.36106515466363 1.127986593019159e-14
    vertex -122.40570697954503 -146.8278462617257 1.127986593019159e-14
  endloop
endfacet
facet normal 0.0 0.0 -1.0
  outer loop
    vertex -120.19570697954502 -151.38106515466364 1.127986593019159e-14
    vertex -122.40570697954503 -146.8278462617257 1.127986593019159e-14
    vertex -120.94892587248296 -145.37106515466363 1.127986593019159e-14
  endloop
endfacet
facet normal 0.0 0.0 -1.0
  outer loop
    vertex -120.19570697954502 -151.38106515466364 1.127986593019159e-14
    vertex -120.94892587248296 -145.37106515466363 1.127986593019159e-14
    vertex -120.41570697954504 -143.38106515466364 1.127986593019159e-14
  endloop
endfacet
facet normal 0.0 0.0 -1.0
  outer loop
    vertex -120.19570697954502 -151.38106515466364 1.127986593019159e-14
    vertex -120.41570697954504 -143.38106515466364 1.127986593019159e-14
    vertex -120.19570697954502 -135.88106515466362 1.127986593019159e-14
  endloop
endfacet
endsolid boardspacer
