solid boardspacer
facet normal -0.0 -1.0 -0.0
  outer loop
    vertex -164.59648663333996 -111.19227857761115 9.0
    vertex -165.59648663333996 -111.19227857761115 0.0
    vertex -164.59648663333996 -111.19227857761115 0.0
  endloop
endfacet
facet normal -0.0 -1.0 -0.0
  outer loop
    vertex -165.59648663333996 -111.19227857761115 0.0
    vertex -164.59648663333996 -111.19227857761115 9.0
    vertex -165.59648663333996 -111.19227857761115 9.0
  endloop
endfacet
facet normal 0.0 1.0 0.0
  outer loop
    vertex -165.59648663333996 -101.19227857761115 9.0
    vertex -154.59648663333996 -101.19227857761115 0.0
    vertex -165.59648663333996 -101.19227857761115 0.0
  endloop
endfacet
facet normal 0.0 1.0 0.0
  outer loop
    vertex -154.59648663333996 -101.19227857761115 0.0
    vertex -165.59648663333996 -101.19227857761115 9.0
    vertex -154.59648663333996 -101.19227857761115 9.0
  endloop
endfacet
facet normal -1.0 -0.0 -0.0
  outer loop
    vertex -164.59648663333996 -111.19227857761115 9.0
    vertex -164.59648663333996 -115.69227857761116 0.0
    vertex -164.59648663333996 -115.69227857761116 9.0
  endloop
endfacet
facet normal -1.0 -0.0 -0.0
  outer loop
    vertex -164.59648663333996 -115.69227857761116 0.0
    vertex -164.59648663333996 -111.19227857761115 9.0
    vertex -164.59648663333996 -111.19227857761115 0.0
  endloop
endfacet
facet normal 1.0 0.0 0.0
  outer loop
    vertex -155.59648663333996 -115.69227857761116 0.0
    vertex -155.59648663333996 -135.69227857761118 9.0
    vertex -155.59648663333996 -135.69227857761118 0.0
  endloop
endfacet
facet normal 1.0 0.0 0.0
  outer loop
    vertex -155.59648663333996 -135.69227857761118 9.0
    vertex -155.59648663333996 -115.69227857761116 0.0
    vertex -155.59648663333996 -115.69227857761116 9.0
  endloop
endfacet
facet normal -0.0 -1.0 -0.0
  outer loop
    vertex -154.59648663333996 -111.19227857761115 9.0
    vertex -155.59648663333996 -111.19227857761115 0.0
    vertex -154.59648663333996 -111.19227857761115 0.0
  endloop
endfacet
facet normal -0.0 -1.0 -0.0
  outer loop
    vertex -155.59648663333996 -111.19227857761115 0.0
    vertex -154.59648663333996 -111.19227857761115 9.0
    vertex -155.59648663333996 -111.19227857761115 9.0
  endloop
endfacet
facet normal -1.0 0.0 0.0
  outer loop
    vertex -164.59648663333996 -135.69227857761118 9.0
    vertex -164.59648663333996 -144.69227857761118 0.0
    vertex -164.59648663333996 -144.69227857761118 9.0
  endloop
endfacet
facet normal -1.0 0.0 0.0
  outer loop
    vertex -164.59648663333996 -144.69227857761118 0.0
    vertex -164.59648663333996 -135.69227857761118 9.0
    vertex -164.59648663333996 -135.69227857761118 0.0
  endloop
endfacet
facet normal 0.0 -1.0 0.0
  outer loop
    vertex -155.59648663333996 -144.69227857761118 9.0
    vertex -164.59648663333996 -144.69227857761118 0.0
    vertex -155.59648663333996 -144.69227857761118 0.0
  endloop
endfacet
facet normal 0.0 -1.0 0.0
  outer loop
    vertex -164.59648663333996 -144.69227857761118 0.0
    vertex -155.59648663333996 -144.69227857761118 9.0
    vertex -164.59648663333996 -144.69227857761118 9.0
  endloop
endfacet
facet normal 1.0 0.0 0.0
  outer loop
    vertex -154.59648663333996 -101.19227857761115 0.0
    vertex -154.59648663333996 -111.19227857761115 9.0
    vertex -154.59648663333996 -111.19227857761115 0.0
  endloop
endfacet
facet normal 1.0 0.0 0.0
  outer loop
    vertex -154.59648663333996 -111.19227857761115 9.0
    vertex -154.59648663333996 -101.19227857761115 0.0
    vertex -154.59648663333996 -101.19227857761115 9.0
  endloop
endfacet
facet normal 0.0 0.0 -1.0
  outer loop
    vertex -160.8578342456237 -110.59877954564763 0.0
    vertex -162.0594775485847 -140.19227857761115 0.0
    vertex -162.70908349070655 -109.69473384969737 0.0
  endloop
endfacet
facet normal 0.0 0.0 -1.0
  outer loop
    vertex -162.0594775485847 -140.19227857761115 0.0
    vertex -160.8578342456237 -110.59877954564763 0.0
    vertex -161.07798209096237 -138.49227857761116 0.0
  endloop
endfacet
facet normal 0.0 0.0 -1.0
  outer loop
    vertex -161.07798209096237 -138.49227857761116 0.0
    vertex -160.8578342456237 -110.59877954564763 0.0
    vertex -159.11499117571762 -138.49227857761116 0.0
  endloop
endfacet
facet normal 0.0 0.0 -1.0
  outer loop
    vertex -159.11499117571762 -138.49227857761116 0.0
    vertex -160.8578342456237 -110.59877954564763 0.0
    vertex -158.8025825226701 -110.4560814619811 0.0
  endloop
endfacet
facet normal 0.0 0.0 -1.0
  outer loop
    vertex -159.11499117571762 -138.49227857761116 0.0
    vertex -158.8025825226701 -110.4560814619811 0.0
    vertex -158.13349571809525 -140.19227857761115 0.0
  endloop
endfacet
facet normal 0.0 0.0 -1.0
  outer loop
    vertex -158.13349571809525 -140.19227857761115 0.0
    vertex -158.8025825226701 -110.4560814619811 0.0
    vertex -157.09403136125377 -109.30487543497773 0.0
  endloop
endfacet
facet normal 0.0 0.0 -1.0
  outer loop
    vertex -165.59648663333996 -101.19227857761115 0.0
    vertex -164.00298760137645 -105.93093096532742 0.0
    vertex -165.59648663333996 -111.19227857761115 0.0
  endloop
endfacet
facet normal 0.0 0.0 -1.0
  outer loop
    vertex -164.00298760137645 -105.93093096532742 0.0
    vertex -165.59648663333996 -101.19227857761115 0.0
    vertex -163.0989419054262 -104.07968172024458 0.0
  endloop
endfacet
facet normal 0.0 0.0 -1.0
  outer loop
    vertex -163.0989419054262 -104.07968172024458 0.0
    vertex -165.59648663333996 -101.19227857761115 0.0
    vertex -161.39039074400986 -102.92847569324121 0.0
  endloop
endfacet
facet normal 0.0 0.0 -1.0
  outer loop
    vertex -161.39039074400986 -102.92847569324121 0.0
    vertex -165.59648663333996 -101.19227857761115 0.0
    vertex -154.59648663333996 -101.19227857761115 0.0
  endloop
endfacet
facet normal 0.0 0.0 -1.0
  outer loop
    vertex -165.59648663333996 -111.19227857761115 0.0
    vertex -164.00298760137645 -105.93093096532742 0.0
    vertex -164.59648663333996 -111.19227857761115 0.0
  endloop
endfacet
facet normal 0.0 0.0 -1.0
  outer loop
    vertex -164.59648663333996 -111.19227857761115 0.0
    vertex -164.00298760137645 -105.93093096532742 0.0
    vertex -164.59648663333996 -115.69227857761116 0.0
  endloop
endfacet
facet normal 0.0 0.0 -1.0
  outer loop
    vertex -164.59648663333996 -115.69227857761116 0.0
    vertex -164.00298760137645 -105.93093096532742 0.0
    vertex -164.59648663333996 -135.69227857761118 0.0
  endloop
endfacet
facet normal 0.0 0.0 -1.0
  outer loop
    vertex -164.59648663333996 -135.69227857761118 0.0
    vertex -164.00298760137645 -105.93093096532742 0.0
    vertex -164.59648663333996 -144.69227857761118 0.0
  endloop
endfacet
facet normal 0.0 0.0 -1.0
  outer loop
    vertex -161.39039074400986 -102.92847569324121 0.0
    vertex -154.59648663333996 -101.19227857761115 0.0
    vertex -159.33513902105625 -102.78577760957471 0.0
  endloop
endfacet
facet normal 0.0 0.0 -1.0
  outer loop
    vertex -159.33513902105625 -102.78577760957471 0.0
    vertex -154.59648663333996 -101.19227857761115 0.0
    vertex -157.4838897759734 -103.68982330552494 0.0
  endloop
endfacet
facet normal 0.0 0.0 -1.0
  outer loop
    vertex -157.4838897759734 -103.68982330552494 0.0
    vertex -154.59648663333996 -101.19227857761115 0.0
    vertex -156.33268374897003 -105.39837446694128 0.0
  endloop
endfacet
facet normal 0.0 0.0 -1.0
  outer loop
    vertex -156.33268374897003 -105.39837446694128 0.0
    vertex -154.59648663333996 -101.19227857761115 0.0
    vertex -156.18998566530354 -107.45362618989489 0.0
  endloop
endfacet
facet normal 0.0 0.0 -1.0
  outer loop
    vertex -156.18998566530354 -107.45362618989489 0.0
    vertex -154.59648663333996 -101.19227857761115 0.0
    vertex -155.59648663333996 -111.19227857761115 0.0
  endloop
endfacet
facet normal 0.0 0.0 -1.0
  outer loop
    vertex -155.59648663333996 -111.19227857761115 0.0
    vertex -154.59648663333996 -101.19227857761115 0.0
    vertex -154.59648663333996 -111.19227857761115 0.0
  endloop
endfacet
facet normal 0.0 0.0 -1.0
  outer loop
    vertex -164.59648663333996 -144.69227857761118 0.0
    vertex -161.07798209096237 -141.89227857761117 0.0
    vertex -155.59648663333996 -144.69227857761118 0.0
  endloop
endfacet
facet normal 0.0 0.0 -1.0
  outer loop
    vertex -161.07798209096237 -141.89227857761117 0.0
    vertex -164.59648663333996 -144.69227857761118 0.0
    vertex -162.0594775485847 -140.19227857761115 0.0
  endloop
endfacet
facet normal 0.0 0.0 -1.0
  outer loop
    vertex -162.0594775485847 -140.19227857761115 0.0
    vertex -164.59648663333996 -144.69227857761118 0.0
    vertex -164.00298760137645 -105.93093096532742 0.0
  endloop
endfacet
facet normal 0.0 0.0 -1.0
  outer loop
    vertex -162.0594775485847 -140.19227857761115 0.0
    vertex -164.00298760137645 -105.93093096532742 0.0
    vertex -163.86028951770993 -107.98618268828103 0.0
  endloop
endfacet
facet normal 0.0 0.0 -1.0
  outer loop
    vertex -162.0594775485847 -140.19227857761115 0.0
    vertex -163.86028951770993 -107.98618268828103 0.0
    vertex -162.70908349070655 -109.69473384969737 0.0
  endloop
endfacet
facet normal 0.0 0.0 -1.0
  outer loop
    vertex -155.59648663333996 -144.69227857761118 0.0
    vertex -161.07798209096237 -141.89227857761117 0.0
    vertex -159.11499117571762 -141.89227857761117 0.0
  endloop
endfacet
facet normal 0.0 0.0 -1.0
  outer loop
    vertex -155.59648663333996 -144.69227857761118 0.0
    vertex -159.11499117571762 -141.89227857761117 0.0
    vertex -158.13349571809525 -140.19227857761115 0.0
  endloop
endfacet
facet normal 0.0 0.0 -1.0
  outer loop
    vertex -155.59648663333996 -144.69227857761118 0.0
    vertex -158.13349571809525 -140.19227857761115 0.0
    vertex -157.09403136125377 -109.30487543497773 0.0
  endloop
endfacet
facet normal 0.0 0.0 -1.0
  outer loop
    vertex -155.59648663333996 -144.69227857761118 0.0
    vertex -157.09403136125377 -109.30487543497773 0.0
    vertex -156.18998566530354 -107.45362618989489 0.0
  endloop
endfacet
facet normal 0.0 0.0 -1.0
  outer loop
    vertex -155.59648663333996 -144.69227857761118 0.0
    vertex -156.18998566530354 -107.45362618989489 0.0
    vertex -155.59648663333996 -111.19227857761115 0.0
  endloop
endfacet
facet normal 0.0 0.0 -1.0
  outer loop
    vertex -155.59648663333996 -144.69227857761118 0.0
    vertex -155.59648663333996 -111.19227857761115 0.0
    vertex -155.59648663333996 -115.69227857761116 0.0
  endloop
endfacet
facet normal 0.0 0.0 -1.0
  outer loop
    vertex -155.59648663333996 -144.69227857761118 0.0
    vertex -155.59648663333996 -115.69227857761116 0.0
    vertex -155.59648663333996 -135.69227857761118 0.0
  endloop
endfacet
facet normal 1.0 0.0 0.0
  outer loop
    vertex -155.59648663333996 -111.19227857761115 0.0
    vertex -155.59648663333996 -115.69227857761116 9.0
    vertex -155.59648663333996 -115.69227857761116 0.0
  endloop
endfacet
facet normal 1.0 0.0 0.0
  outer loop
    vertex -155.59648663333996 -115.69227857761116 9.0
    vertex -155.59648663333996 -111.19227857761115 0.0
    vertex -155.59648663333996 -111.19227857761115 9.0
  endloop
endfacet
facet normal -1.0 -0.0 -0.0
  outer loop
    vertex -165.59648663333996 -101.19227857761115 9.0
    vertex -165.59648663333996 -111.19227857761115 0.0
    vertex -165.59648663333996 -111.19227857761115 9.0
  endloop
endfacet
facet normal -1.0 -0.0 -0.0
  outer loop
    vertex -165.59648663333996 -111.19227857761115 0.0
    vertex -165.59648663333996 -101.19227857761115 9.0
    vertex -165.59648663333996 -101.19227857761115 0.0
  endloop
endfacet
facet normal 0.5587837351066269 -0.8293134132403063 0.0
  outer loop
    vertex -161.39039074400986 -102.92847569324121 5.0
    vertex -163.0989419054262 -104.07968172024458 0.0
    vertex -161.39039074400986 -102.92847569324121 0.0
  endloop
endfacet
facet normal 0.5587837351066269 -0.8293134132403063 0.0
  outer loop
    vertex -163.0989419054262 -104.07968172024458 0.0
    vertex -161.39039074400986 -102.92847569324121 5.0
    vertex -163.0989419054262 -104.07968172024458 5.0
  endloop
endfacet
facet normal -0.5587837351066269 0.8293134132403063 0.0
  outer loop
    vertex -158.8025825226701 -110.4560814619811 5.0
    vertex -157.09403136125377 -109.30487543497773 0.0
    vertex -158.8025825226701 -110.4560814619811 0.0
  endloop
endfacet
facet normal -0.5587837351066269 0.8293134132403063 0.0
  outer loop
    vertex -157.09403136125377 -109.30487543497773 0.0
    vertex -158.8025825226701 -110.4560814619811 5.0
    vertex -157.09403136125377 -109.30487543497773 5.0
  endloop
endfacet
facet normal 0.0 0.0 1.0
  outer loop
    vertex -164.59648663333996 -111.19227857761115 9.0
    vertex -161.07798209096237 -108.39227857761115 9.0
    vertex -162.0594775485847 -106.69227857761116 9.0
  endloop
endfacet
facet normal 0.0 0.0 1.0
  outer loop
    vertex -161.07798209096237 -108.39227857761115 9.0
    vertex -164.59648663333996 -111.19227857761115 9.0
    vertex -155.59648663333996 -111.19227857761115 9.0
  endloop
endfacet
facet normal 0.0 0.0 1.0
  outer loop
    vertex -161.07798209096237 -108.39227857761115 9.0
    vertex -155.59648663333996 -111.19227857761115 9.0
    vertex -159.11499117571762 -108.39227857761115 9.0
  endloop
endfacet
facet normal 0.0 0.0 1.0
  outer loop
    vertex -159.11499117571762 -108.39227857761115 9.0
    vertex -155.59648663333996 -111.19227857761115 9.0
    vertex -158.13349571809525 -106.69227857761116 9.0
  endloop
endfacet
facet normal 0.0 0.0 1.0
  outer loop
    vertex -164.59648663333996 -111.19227857761115 9.0
    vertex -165.59648663333996 -101.19227857761115 9.0
    vertex -165.59648663333996 -111.19227857761115 9.0
  endloop
endfacet
facet normal 0.0 0.0 1.0
  outer loop
    vertex -165.59648663333996 -101.19227857761115 9.0
    vertex -164.59648663333996 -111.19227857761115 9.0
    vertex -162.0594775485847 -106.69227857761116 9.0
  endloop
endfacet
facet normal 0.0 0.0 1.0
  outer loop
    vertex -165.59648663333996 -101.19227857761115 9.0
    vertex -162.0594775485847 -106.69227857761116 9.0
    vertex -161.07798209096237 -104.99227857761116 9.0
  endloop
endfacet
facet normal 0.0 0.0 1.0
  outer loop
    vertex -165.59648663333996 -101.19227857761115 9.0
    vertex -161.07798209096237 -104.99227857761116 9.0
    vertex -154.59648663333996 -101.19227857761115 9.0
  endloop
endfacet
facet normal 0.0 0.0 1.0
  outer loop
    vertex -154.59648663333996 -101.19227857761115 9.0
    vertex -161.07798209096237 -104.99227857761116 9.0
    vertex -159.11499117571762 -104.99227857761116 9.0
  endloop
endfacet
facet normal 0.0 0.0 1.0
  outer loop
    vertex -154.59648663333996 -101.19227857761115 9.0
    vertex -159.11499117571762 -104.99227857761116 9.0
    vertex -158.13349571809525 -106.69227857761116 9.0
  endloop
endfacet
facet normal 0.0 0.0 1.0
  outer loop
    vertex -154.59648663333996 -101.19227857761115 9.0
    vertex -158.13349571809525 -106.69227857761116 9.0
    vertex -155.59648663333996 -111.19227857761115 9.0
  endloop
endfacet
facet normal 0.0 0.0 1.0
  outer loop
    vertex -154.59648663333996 -101.19227857761115 9.0
    vertex -155.59648663333996 -111.19227857761115 9.0
    vertex -154.59648663333996 -111.19227857761115 9.0
  endloop
endfacet
facet normal -0.4388146160119678 -0.8985776164440497 -0.0
  outer loop
    vertex -157.4838897759734 -103.68982330552494 5.0
    vertex -159.33513902105625 -102.78577760957471 0.0
    vertex -157.4838897759734 -103.68982330552494 0.0
  endloop
endfacet
facet normal -0.4388146160119678 -0.8985776164440497 -0.0
  outer loop
    vertex -159.33513902105625 -102.78577760957471 0.0
    vertex -157.4838897759734 -103.68982330552494 5.0
    vertex -159.33513902105625 -102.78577760957471 5.0
  endloop
endfacet
facet normal 0.06926420320373679 -0.997598351118601 0.0
  outer loop
    vertex -159.33513902105625 -102.78577760957471 5.0
    vertex -161.39039074400986 -102.92847569324121 0.0
    vertex -159.33513902105625 -102.78577760957471 0.0
  endloop
endfacet
facet normal 0.06926420320373679 -0.997598351118601 0.0
  outer loop
    vertex -161.39039074400986 -102.92847569324121 0.0
    vertex -159.33513902105625 -102.78577760957471 5.0
    vertex -161.39039074400986 -102.92847569324121 5.0
  endloop
endfacet
facet normal 0.8985776164440497 -0.4388146160119678 0.0
  outer loop
    vertex -163.0989419054262 -104.07968172024458 0.0
    vertex -164.00298760137645 -105.93093096532742 5.0
    vertex -164.00298760137645 -105.93093096532742 0.0
  endloop
endfacet
facet normal 0.8985776164440497 -0.4388146160119678 0.0
  outer loop
    vertex -164.00298760137645 -105.93093096532742 5.0
    vertex -163.0989419054262 -104.07968172024458 0.0
    vertex -163.0989419054262 -104.07968172024458 5.0
  endloop
endfacet
facet normal 0.8293134132403063 0.5587837351066269 0.0
  outer loop
    vertex -163.86028951770993 -107.98618268828103 0.0
    vertex -162.70908349070655 -109.69473384969737 5.0
    vertex -162.70908349070655 -109.69473384969737 0.0
  endloop
endfacet
facet normal 0.8293134132403063 0.5587837351066269 0.0
  outer loop
    vertex -162.70908349070655 -109.69473384969737 5.0
    vertex -163.86028951770993 -107.98618268828103 0.0
    vertex -163.86028951770993 -107.98618268828103 5.0
  endloop
endfacet
facet normal -0.0692642032037477 0.9975983511186004 0.0
  outer loop
    vertex -160.8578342456237 -110.59877954564763 5.0
    vertex -158.8025825226701 -110.4560814619811 0.0
    vertex -160.8578342456237 -110.59877954564763 0.0
  endloop
endfacet
facet normal -0.0692642032037477 0.9975983511186004 0.0
  outer loop
    vertex -158.8025825226701 -110.4560814619811 0.0
    vertex -160.8578342456237 -110.59877954564763 5.0
    vertex -158.8025825226701 -110.4560814619811 5.0
  endloop
endfacet
facet normal -0.8293134132403063 -0.5587837351066269 -0.0
  outer loop
    vertex -157.4838897759734 -103.68982330552494 5.0
    vertex -156.33268374897003 -105.39837446694128 0.0
    vertex -156.33268374897003 -105.39837446694128 5.0
  endloop
endfacet
facet normal -0.8293134132403063 -0.5587837351066269 -0.0
  outer loop
    vertex -156.33268374897003 -105.39837446694128 0.0
    vertex -157.4838897759734 -103.68982330552494 5.0
    vertex -157.4838897759734 -103.68982330552494 0.0
  endloop
endfacet
facet normal 0.997598351118601 0.06926420320373679 0.0
  outer loop
    vertex -164.00298760137645 -105.93093096532742 0.0
    vertex -163.86028951770993 -107.98618268828103 5.0
    vertex -163.86028951770993 -107.98618268828103 0.0
  endloop
endfacet
facet normal 0.997598351118601 0.06926420320373679 0.0
  outer loop
    vertex -163.86028951770993 -107.98618268828103 5.0
    vertex -164.00298760137645 -105.93093096532742 0.0
    vertex -164.00298760137645 -105.93093096532742 5.0
  endloop
endfacet
facet normal 0.0 0.0 1.0
  outer loop
    vertex -155.59648663333996 -115.69227857761116 9.0
    vertex -164.59648663333996 -111.19227857761115 9.0
    vertex -164.59648663333996 -115.69227857761116 9.0
  endloop
endfacet
facet normal 0.0 0.0 1.0
  outer loop
    vertex -164.59648663333996 -111.19227857761115 9.0
    vertex -155.59648663333996 -115.69227857761116 9.0
    vertex -155.59648663333996 -111.19227857761115 9.0
  endloop
endfacet
facet normal 0.43881461601197663 0.8985776164440452 0.0
  outer loop
    vertex -162.70908349070655 -109.69473384969737 5.0
    vertex -160.8578342456237 -110.59877954564763 0.0
    vertex -162.70908349070655 -109.69473384969737 0.0
  endloop
endfacet
facet normal 0.43881461601197663 0.8985776164440452 0.0
  outer loop
    vertex -160.8578342456237 -110.59877954564763 0.0
    vertex -162.70908349070655 -109.69473384969737 5.0
    vertex -160.8578342456237 -110.59877954564763 5.0
  endloop
endfacet
facet normal -0.997598351118601 -0.06926420320373679 -0.0
  outer loop
    vertex -156.33268374897003 -105.39837446694128 5.0
    vertex -156.18998566530354 -107.45362618989489 0.0
    vertex -156.18998566530354 -107.45362618989489 5.0
  endloop
endfacet
facet normal -0.997598351118601 -0.06926420320373679 -0.0
  outer loop
    vertex -156.18998566530354 -107.45362618989489 0.0
    vertex -156.33268374897003 -105.39837446694128 5.0
    vertex -156.33268374897003 -105.39837446694128 0.0
  endloop
endfacet
facet normal -0.8985776164440497 0.4388146160119678 0.0
  outer loop
    vertex -156.18998566530354 -107.45362618989489 5.0
    vertex -157.09403136125377 -109.30487543497773 0.0
    vertex -157.09403136125377 -109.30487543497773 5.0
  endloop
endfacet
facet normal -0.8985776164440497 0.4388146160119678 0.0
  outer loop
    vertex -157.09403136125377 -109.30487543497773 0.0
    vertex -156.18998566530354 -107.45362618989489 5.0
    vertex -156.18998566530354 -107.45362618989489 0.0
  endloop
endfacet
facet normal -0.0 -1.0 -0.0
  outer loop
    vertex -159.11499117571762 -104.99227857761116 9.0
    vertex -161.07798209096237 -104.99227857761116 5.000000000000001
    vertex -159.11499117571762 -104.99227857761116 5.000000000000001
  endloop
endfacet
facet normal -0.0 -1.0 -0.0
  outer loop
    vertex -161.07798209096237 -104.99227857761116 5.000000000000001
    vertex -159.11499117571762 -104.99227857761116 9.0
    vertex -161.07798209096237 -104.99227857761116 9.0
  endloop
endfacet
facet normal 0.8660254037844372 -0.5000000000000024 0.0
  outer loop
    vertex -161.07798209096237 -104.99227857761116 5.000000000000001
    vertex -162.0594775485847 -106.69227857761116 9.0
    vertex -162.0594775485847 -106.69227857761116 5.000000000000001
  endloop
endfacet
facet normal 0.8660254037844372 -0.5000000000000024 0.0
  outer loop
    vertex -162.0594775485847 -106.69227857761116 9.0
    vertex -161.07798209096237 -104.99227857761116 5.000000000000001
    vertex -161.07798209096237 -104.99227857761116 9.0
  endloop
endfacet
facet normal -0.8660254037844372 -0.5000000000000024 -0.0
  outer loop
    vertex -159.11499117571762 -104.99227857761116 9.0
    vertex -158.13349571809525 -106.69227857761116 5.000000000000001
    vertex -158.13349571809525 -106.69227857761116 9.0
  endloop
endfacet
facet normal -0.8660254037844372 -0.5000000000000024 -0.0
  outer loop
    vertex -158.13349571809525 -106.69227857761116 5.000000000000001
    vertex -159.11499117571762 -104.99227857761116 9.0
    vertex -159.11499117571762 -104.99227857761116 5.000000000000001
  endloop
endfacet
facet normal -0.8660254037844372 -0.5000000000000027 0.0
  outer loop
    vertex -159.11499117571762 -138.49227857761116 9.0
    vertex -158.13349571809525 -140.19227857761115 0.0
    vertex -158.13349571809525 -140.19227857761115 9.0
  endloop
endfacet
facet normal -0.8660254037844372 -0.5000000000000027 0.0
  outer loop
    vertex -158.13349571809525 -140.19227857761115 0.0
    vertex -159.11499117571762 -138.49227857761116 9.0
    vertex -159.11499117571762 -138.49227857761116 0.0
  endloop
endfacet
facet normal 0.8660254037844372 -0.5000000000000027 0.0
  outer loop
    vertex -161.07798209096237 -138.49227857761116 0.0
    vertex -162.0594775485847 -140.19227857761115 9.0
    vertex -162.0594775485847 -140.19227857761115 0.0
  endloop
endfacet
facet normal 0.8660254037844372 -0.5000000000000027 0.0
  outer loop
    vertex -162.0594775485847 -140.19227857761115 9.0
    vertex -161.07798209096237 -138.49227857761116 0.0
    vertex -161.07798209096237 -138.49227857761116 9.0
  endloop
endfacet
facet normal 0.0 -1.0 0.0
  outer loop
    vertex -159.11499117571762 -138.49227857761116 9.0
    vertex -161.07798209096237 -138.49227857761116 0.0
    vertex -159.11499117571762 -138.49227857761116 0.0
  endloop
endfacet
facet normal 0.0 -1.0 0.0
  outer loop
    vertex -161.07798209096237 -138.49227857761116 0.0
    vertex -159.11499117571762 -138.49227857761116 9.0
    vertex -161.07798209096237 -138.49227857761116 9.0
  endloop
endfacet
facet normal -0.8660254037844372 0.5000000000000024 0.0
  outer loop
    vertex -158.13349571809525 -106.69227857761116 9.0
    vertex -159.11499117571762 -108.39227857761115 5.000000000000001
    vertex -159.11499117571762 -108.39227857761115 9.0
  endloop
endfacet
facet normal -0.8660254037844372 0.5000000000000024 0.0
  outer loop
    vertex -159.11499117571762 -108.39227857761115 5.000000000000001
    vertex -158.13349571809525 -106.69227857761116 9.0
    vertex -158.13349571809525 -106.69227857761116 5.000000000000001
  endloop
endfacet
facet normal 0.8660254037844372 0.5000000000000024 0.0
  outer loop
    vertex -162.0594775485847 -106.69227857761116 5.000000000000001
    vertex -161.07798209096237 -108.39227857761115 9.0
    vertex -161.07798209096237 -108.39227857761115 5.000000000000001
  endloop
endfacet
facet normal 0.8660254037844372 0.5000000000000024 0.0
  outer loop
    vertex -161.07798209096237 -108.39227857761115 9.0
    vertex -162.0594775485847 -106.69227857761116 5.000000000000001
    vertex -162.0594775485847 -106.69227857761116 9.0
  endloop
endfacet
facet normal 0.0 1.0 0.0
  outer loop
    vertex -161.07798209096237 -108.39227857761115 9.0
    vertex -159.11499117571762 -108.39227857761115 5.000000000000001
    vertex -161.07798209096237 -108.39227857761115 5.000000000000001
  endloop
endfacet
facet normal 0.0 1.0 0.0
  outer loop
    vertex -159.11499117571762 -108.39227857761115 5.000000000000001
    vertex -161.07798209096237 -108.39227857761115 9.0
    vertex -159.11499117571762 -108.39227857761115 9.0
  endloop
endfacet
facet normal -0.8660254037844372 0.5000000000000027 0.0
  outer loop
    vertex -158.13349571809525 -140.19227857761115 9.0
    vertex -159.11499117571762 -141.89227857761117 0.0
    vertex -159.11499117571762 -141.89227857761117 9.0
  endloop
endfacet
facet normal -0.8660254037844372 0.5000000000000027 0.0
  outer loop
    vertex -159.11499117571762 -141.89227857761117 0.0
    vertex -158.13349571809525 -140.19227857761115 9.0
    vertex -158.13349571809525 -140.19227857761115 0.0
  endloop
endfacet
facet normal 0.0 1.0 0.0
  outer loop
    vertex -161.07798209096237 -141.89227857761117 9.0
    vertex -159.11499117571762 -141.89227857761117 0.0
    vertex -161.07798209096237 -141.89227857761117 0.0
  endloop
endfacet
facet normal 0.0 1.0 0.0
  outer loop
    vertex -159.11499117571762 -141.89227857761117 0.0
    vertex -161.07798209096237 -141.89227857761117 9.0
    vertex -159.11499117571762 -141.89227857761117 9.0
  endloop
endfacet
facet normal 0.8660254037844372 0.5000000000000027 0.0
  outer loop
    vertex -162.0594775485847 -140.19227857761115 0.0
    vertex -161.07798209096237 -141.89227857761117 9.0
    vertex -161.07798209096237 -141.89227857761117 0.0
  endloop
endfacet
facet normal 0.8660254037844372 0.5000000000000027 0.0
  outer loop
    vertex -161.07798209096237 -141.89227857761117 9.0
    vertex -162.0594775485847 -140.19227857761115 0.0
    vertex -162.0594775485847 -140.19227857761115 9.0
  endloop
endfacet
facet normal 0.0 0.0 -1.0
  outer loop
    vertex -163.0989419054262 -104.07968172024458 5.0
    vertex -163.86028951770993 -107.98618268828103 5.0
    vertex -164.00298760137645 -105.93093096532742 5.0
  endloop
endfacet
facet normal 0.0 0.0 -1.0
  outer loop
    vertex -163.86028951770993 -107.98618268828103 5.0
    vertex -163.0989419054262 -104.07968172024458 5.0
    vertex -162.70908349070655 -109.69473384969737 5.0
  endloop
endfacet
facet normal 0.0 0.0 -1.0
  outer loop
    vertex -162.70908349070655 -109.69473384969737 5.0
    vertex -163.0989419054262 -104.07968172024458 5.0
    vertex -161.39039074400986 -102.92847569324121 5.0
  endloop
endfacet
facet normal 0.0 0.0 -1.0
  outer loop
    vertex -162.70908349070655 -109.69473384969737 5.0
    vertex -161.39039074400986 -102.92847569324121 5.0
    vertex -162.0594775485847 -106.69227857761116 5.000000000000001
  endloop
endfacet
facet normal 0.0 0.0 -1.0
  outer loop
    vertex -162.0594775485847 -106.69227857761116 5.000000000000001
    vertex -161.39039074400986 -102.92847569324121 5.0
    vertex -161.07798209096237 -104.99227857761116 5.000000000000001
  endloop
endfacet
facet normal 0.0 0.0 -1.0
  outer loop
    vertex -161.07798209096237 -104.99227857761116 5.000000000000001
    vertex -161.39039074400986 -102.92847569324121 5.0
    vertex -159.33513902105625 -102.78577760957471 5.0
  endloop
endfacet
facet normal 0.0 0.0 -1.0
  outer loop
    vertex -161.07798209096237 -104.99227857761116 5.000000000000001
    vertex -159.33513902105625 -102.78577760957471 5.0
    vertex -159.11499117571762 -104.99227857761116 5.000000000000001
  endloop
endfacet
facet normal 0.0 0.0 -1.0
  outer loop
    vertex -159.11499117571762 -104.99227857761116 5.000000000000001
    vertex -159.33513902105625 -102.78577760957471 5.0
    vertex -157.4838897759734 -103.68982330552494 5.0
  endloop
endfacet
facet normal 0.0 0.0 -1.0
  outer loop
    vertex -159.11499117571762 -104.99227857761116 5.000000000000001
    vertex -157.4838897759734 -103.68982330552494 5.0
    vertex -158.13349571809525 -106.69227857761116 5.000000000000001
  endloop
endfacet
facet normal 0.0 0.0 -1.0
  outer loop
    vertex -162.0594775485847 -106.69227857761116 5.000000000000001
    vertex -160.8578342456237 -110.59877954564763 5.0
    vertex -162.70908349070655 -109.69473384969737 5.0
  endloop
endfacet
facet normal 0.0 0.0 -1.0
  outer loop
    vertex -160.8578342456237 -110.59877954564763 5.0
    vertex -162.0594775485847 -106.69227857761116 5.000000000000001
    vertex -161.07798209096237 -108.39227857761115 5.000000000000001
  endloop
endfacet
facet normal 0.0 0.0 -1.0
  outer loop
    vertex -160.8578342456237 -110.59877954564763 5.0
    vertex -161.07798209096237 -108.39227857761115 5.000000000000001
    vertex -159.11499117571762 -108.39227857761115 5.000000000000001
  endloop
endfacet
facet normal 0.0 0.0 -1.0
  outer loop
    vertex -160.8578342456237 -110.59877954564763 5.0
    vertex -159.11499117571762 -108.39227857761115 5.000000000000001
    vertex -158.8025825226701 -110.4560814619811 5.0
  endloop
endfacet
facet normal 0.0 0.0 -1.0
  outer loop
    vertex -158.8025825226701 -110.4560814619811 5.0
    vertex -159.11499117571762 -108.39227857761115 5.000000000000001
    vertex -158.13349571809525 -106.69227857761116 5.000000000000001
  endloop
endfacet
facet normal 0.0 0.0 -1.0
  outer loop
    vertex -158.8025825226701 -110.4560814619811 5.0
    vertex -158.13349571809525 -106.69227857761116 5.000000000000001
    vertex -157.09403136125377 -109.30487543497773 5.0
  endloop
endfacet
facet normal 0.0 0.0 -1.0
  outer loop
    vertex -157.09403136125377 -109.30487543497773 5.0
    vertex -158.13349571809525 -106.69227857761116 5.000000000000001
    vertex -157.4838897759734 -103.68982330552494 5.0
  endloop
endfacet
facet normal 0.0 0.0 -1.0
  outer loop
    vertex -157.09403136125377 -109.30487543497773 5.0
    vertex -157.4838897759734 -103.68982330552494 5.0
    vertex -156.33268374897003 -105.39837446694128 5.0
  endloop
endfacet
facet normal 0.0 0.0 -1.0
  outer loop
    vertex -157.09403136125377 -109.30487543497773 5.0
    vertex -156.33268374897003 -105.39837446694128 5.0
    vertex -156.18998566530354 -107.45362618989489 5.0
  endloop
endfacet
facet normal 0.0 0.0 1.0
  outer loop
    vertex -164.59648663333996 -144.69227857761118 9.0
    vertex -162.0594775485847 -140.19227857761115 9.0
    vertex -164.59648663333996 -135.69227857761118 9.0
  endloop
endfacet
facet normal 0.0 0.0 1.0
  outer loop
    vertex -162.0594775485847 -140.19227857761115 9.0
    vertex -164.59648663333996 -144.69227857761118 9.0
    vertex -161.07798209096237 -141.89227857761117 9.0
  endloop
endfacet
facet normal 0.0 0.0 1.0
  outer loop
    vertex -161.07798209096237 -141.89227857761117 9.0
    vertex -164.59648663333996 -144.69227857761118 9.0
    vertex -155.59648663333996 -144.69227857761118 9.0
  endloop
endfacet
facet normal 0.0 0.0 1.0
  outer loop
    vertex -161.07798209096237 -141.89227857761117 9.0
    vertex -155.59648663333996 -144.69227857761118 9.0
    vertex -159.11499117571762 -141.89227857761117 9.0
  endloop
endfacet
facet normal 0.0 0.0 1.0
  outer loop
    vertex -159.11499117571762 -141.89227857761117 9.0
    vertex -155.59648663333996 -144.69227857761118 9.0
    vertex -158.13349571809525 -140.19227857761115 9.0
  endloop
endfacet
facet normal 0.0 0.0 1.0
  outer loop
    vertex -164.59648663333996 -135.69227857761118 9.0
    vertex -161.07798209096237 -138.49227857761116 9.0
    vertex -155.59648663333996 -135.69227857761118 9.0
  endloop
endfacet
facet normal 0.0 0.0 1.0
  outer loop
    vertex -161.07798209096237 -138.49227857761116 9.0
    vertex -164.59648663333996 -135.69227857761118 9.0
    vertex -162.0594775485847 -140.19227857761115 9.0
  endloop
endfacet
facet normal 0.0 0.0 1.0
  outer loop
    vertex -155.59648663333996 -135.69227857761118 9.0
    vertex -161.07798209096237 -138.49227857761116 9.0
    vertex -159.11499117571762 -138.49227857761116 9.0
  endloop
endfacet
facet normal 0.0 0.0 1.0
  outer loop
    vertex -155.59648663333996 -135.69227857761118 9.0
    vertex -159.11499117571762 -138.49227857761116 9.0
    vertex -158.13349571809525 -140.19227857761115 9.0
  endloop
endfacet
facet normal 0.0 0.0 1.0
  outer loop
    vertex -155.59648663333996 -135.69227857761118 9.0
    vertex -158.13349571809525 -140.19227857761115 9.0
    vertex -155.59648663333996 -144.69227857761118 9.0
  endloop
endfacet
facet normal 0.0 0.0 1.0
  outer loop
    vertex -155.59648663333996 -135.69227857761118 9.0
    vertex -164.59648663333996 -115.69227857761116 9.0
    vertex -164.59648663333996 -135.69227857761118 9.0
  endloop
endfacet
facet normal 0.0 0.0 1.0
  outer loop
    vertex -164.59648663333996 -115.69227857761116 9.0
    vertex -155.59648663333996 -135.69227857761118 9.0
    vertex -155.59648663333996 -115.69227857761116 9.0
  endloop
endfacet
facet normal -1.0 0.0 0.0
  outer loop
    vertex -164.59648663333996 -115.69227857761116 9.0
    vertex -164.59648663333996 -135.69227857761118 0.0
    vertex -164.59648663333996 -135.69227857761118 9.0
  endloop
endfacet
facet normal -1.0 0.0 0.0
  outer loop
    vertex -164.59648663333996 -135.69227857761118 0.0
    vertex -164.59648663333996 -115.69227857761116 9.0
    vertex -164.59648663333996 -115.69227857761116 0.0
  endloop
endfacet
facet normal 1.0 0.0 0.0
  outer loop
    vertex -155.59648663333996 -135.69227857761118 0.0
    vertex -155.59648663333996 -144.69227857761118 9.0
    vertex -155.59648663333996 -144.69227857761118 0.0
  endloop
endfacet
facet normal 1.0 0.0 0.0
  outer loop
    vertex -155.59648663333996 -144.69227857761118 9.0
    vertex -155.59648663333996 -135.69227857761118 0.0
    vertex -155.59648663333996 -135.69227857761118 9.0
  endloop
endfacet
endsolid boardspacer
