solid remote_shutter
facet normal 1.0 0.0 0.0
  outer loop
    vertex -54.42028807991686 -7.0798390599143435 4.481495457622362
    vertex -54.42028807991686 -10.079839059914338 2.518504542377636
    vertex -54.42028807991686 -7.0798390599143435 2.518504542377636
  endloop
endfacet
facet normal 1.0 0.0 0.0
  outer loop
    vertex -54.42028807991686 -10.079839059914338 2.518504542377636
    vertex -54.42028807991686 -7.0798390599143435 4.481495457622362
    vertex -54.42028807991686 -10.079839059914338 4.481495457622362
  endloop
endfacet
facet normal -0.49999999999999817 0.0 0.8660254037844397
  outer loop
    vertex 18.37971192008292 -10.079839059914342 1.537009084755279
    vertex 20.079711920082914 -7.079839059914336 2.518504542377636
    vertex 18.37971192008292 -7.079839059914336 1.537009084755279
  endloop
endfacet
facet normal -0.49999999999999817 0.0 0.8660254037844397
  outer loop
    vertex 20.079711920082914 -7.079839059914336 2.518504542377636
    vertex 18.37971192008292 -10.079839059914342 1.537009084755279
    vertex 20.079711920082914 -10.079839059914342 2.518504542377636
  endloop
endfacet
facet normal 0.5000000000000026 0.0 0.8660254037844372
  outer loop
    vertex 16.679711920082923 -10.079839059914338 2.5185045423776478
    vertex 18.37971192008292 -7.079839059914336 1.537009084755279
    vertex 16.679711920082923 -7.079839059914332 2.5185045423776478
  endloop
endfacet
facet normal 0.5000000000000026 0.0 0.8660254037844372
  outer loop
    vertex 18.37971192008292 -7.079839059914336 1.537009084755279
    vertex 16.679711920082923 -10.079839059914338 2.5185045423776478
    vertex 18.37971192008292 -10.079839059914342 1.537009084755279
  endloop
endfacet
facet normal 1.0 0.0 0.0
  outer loop
    vertex 16.679711920082923 -7.079839059914332 4.481495457622374
    vertex 16.679711920082923 -10.079839059914338 2.5185045423776478
    vertex 16.679711920082923 -7.079839059914332 2.5185045423776478
  endloop
endfacet
facet normal 1.0 0.0 0.0
  outer loop
    vertex 16.679711920082923 -10.079839059914338 2.5185045423776478
    vertex 16.679711920082923 -7.079839059914332 4.481495457622374
    vertex 16.679711920082923 -10.079839059914338 4.481495457622374
  endloop
endfacet
facet normal -0.4999999999999975 0.0 0.8660254037844402
  outer loop
    vertex -49.32028807991709 -7.079839059914344 1.537009084755279
    vertex -47.620288079917074 -10.079839059914347 2.5185045423776478
    vertex -47.620288079917074 -7.079839059914341 2.5185045423776478
  endloop
endfacet
facet normal -0.4999999999999975 0.0 0.8660254037844402
  outer loop
    vertex -47.620288079917074 -10.079839059914347 2.5185045423776478
    vertex -49.32028807991709 -7.079839059914344 1.537009084755279
    vertex -49.32028807991709 -10.07983905991435 1.537009084755279
  endloop
endfacet
facet normal 0.0 0.0 1.0
  outer loop
    vertex -52.720288079917 -10.07983905991434 1.537009084755279
    vertex -49.32028807991709 -7.079839059914344 1.537009084755279
    vertex -52.720288079917 -7.079839059914339 1.537009084755279
  endloop
endfacet
facet normal 0.0 0.0 1.0
  outer loop
    vertex -49.32028807991709 -7.079839059914344 1.537009084755279
    vertex -52.720288079917 -10.07983905991434 1.537009084755279
    vertex -49.32028807991709 -10.07983905991435 1.537009084755279
  endloop
endfacet
facet normal -0.5000000000000032 0.0 -0.8660254037844368
  outer loop
    vertex -47.62028807991712 -10.079839059914347 4.481495457622374
    vertex -49.32028807991709 -7.079839059914344 5.46299091524473
    vertex -47.62028807991712 -7.079839059914341 4.481495457622374
  endloop
endfacet
facet normal -0.5000000000000032 0.0 -0.8660254037844368
  outer loop
    vertex -49.32028807991709 -7.079839059914344 5.46299091524473
    vertex -47.62028807991712 -10.079839059914347 4.481495457622374
    vertex -49.32028807991709 -10.07983905991435 5.46299091524473
  endloop
endfacet
facet normal 0.5000000000000331 0.0 0.8660254037844197
  outer loop
    vertex -54.42028807991686 -7.0798390599143435 2.518504542377636
    vertex -52.720288079917 -10.07983905991434 1.537009084755279
    vertex -52.720288079917 -7.079839059914339 1.537009084755279
  endloop
endfacet
facet normal 0.5000000000000331 0.0 0.8660254037844197
  outer loop
    vertex -52.720288079917 -10.07983905991434 1.537009084755279
    vertex -54.42028807991686 -7.0798390599143435 2.518504542377636
    vertex -54.42028807991686 -10.079839059914338 2.518504542377636
  endloop
endfacet
facet normal -1.0 0.0 -2.298505987489062e-14
  outer loop
    vertex -47.62028807991712 -10.079839059914347 4.481495457622374
    vertex -47.620288079917074 -7.079839059914341 2.5185045423776478
    vertex -47.620288079917074 -10.079839059914347 2.5185045423776478
  endloop
endfacet
facet normal -1.0 0.0 -2.298505987489062e-14
  outer loop
    vertex -47.620288079917074 -7.079839059914341 2.5185045423776478
    vertex -47.62028807991712 -10.079839059914347 4.481495457622374
    vertex -47.62028807991712 -7.079839059914341 4.481495457622374
  endloop
endfacet
facet normal -1.0 0.0 0.0
  outer loop
    vertex 20.079711920082914 -10.079839059914342 3.500000000000005
    vertex 20.079711920082914 -7.079839059914336 2.518504542377636
    vertex 20.079711920082914 -10.079839059914342 2.518504542377636
  endloop
endfacet
facet normal -1.0 0.0 0.0
  outer loop
    vertex 20.079711920082914 -7.079839059914336 2.518504542377636
    vertex 20.079711920082914 -10.079839059914342 3.500000000000005
    vertex 20.079711920082914 -7.079839059914336 3.500000000000005
  endloop
endfacet
facet normal -1.0 0.0 0.0
  outer loop
    vertex 20.079711920082914 -7.079839059914336 3.500000000000005
    vertex 20.079711920082914 -10.079839059914342 3.500000000000005
    vertex 20.079711920082914 -10.079839059914342 4.500000000000003
  endloop
endfacet
facet normal -1.0 0.0 0.0
  outer loop
    vertex 20.079711920082914 -7.079839059914336 3.500000000000005
    vertex 20.079711920082914 -10.079839059914342 4.500000000000003
    vertex 20.079711920082914 -7.079839059914336 4.500000000000003
  endloop
endfacet
facet normal 0.0 0.0 -1.0
  outer loop
    vertex -49.32028807991709 -7.079839059914344 5.46299091524473
    vertex -52.720288079917 -10.07983905991434 5.46299091524473
    vertex -52.720288079917 -7.079839059914339 5.46299091524473
  endloop
endfacet
facet normal 0.0 0.0 -1.0
  outer loop
    vertex -52.720288079917 -10.07983905991434 5.46299091524473
    vertex -49.32028807991709 -7.079839059914344 5.46299091524473
    vertex -49.32028807991709 -10.07983905991435 5.46299091524473
  endloop
endfacet
facet normal 0.5000000000000374 0.0 -0.8660254037844173
  outer loop
    vertex -52.720288079917 -10.07983905991434 5.46299091524473
    vertex -54.42028807991686 -7.0798390599143435 4.481495457622362
    vertex -52.720288079917 -7.079839059914339 5.46299091524473
  endloop
endfacet
facet normal 0.5000000000000374 0.0 -0.8660254037844173
  outer loop
    vertex -54.42028807991686 -7.0798390599143435 4.481495457622362
    vertex -52.720288079917 -10.07983905991434 5.46299091524473
    vertex -54.42028807991686 -10.079839059914338 4.481495457622362
  endloop
endfacet
facet normal 0.0 -0.0 -1.0
  outer loop
    vertex 21.079711920082914 -7.079839059914338 0.0
    vertex -55.42028807991663 -10.079839059914292 1.1493377678155966e-13
    vertex -55.42028807991663 -7.079839059914298 1.1493377678155966e-13
  endloop
endfacet
facet normal 0.0 -0.0 -1.0
  outer loop
    vertex -55.42028807991663 -10.079839059914292 1.1493377678155966e-13
    vertex 21.079711920082914 -7.079839059914338 0.0
    vertex 21.079711920082914 -10.079839059914342 0.0
  endloop
endfacet
facet normal 1.0 -2.2204460492503126e-16 0.0
  outer loop
    vertex 21.079711920082914 -7.079839059914338 7.00000000000001
    vertex 21.079711920082914 -10.079839059914342 0.0
    vertex 21.079711920082914 -7.079839059914338 0.0
  endloop
endfacet
facet normal 1.0 -2.2204460492503126e-16 0.0
  outer loop
    vertex 21.079711920082914 -10.079839059914342 0.0
    vertex 21.079711920082914 -7.079839059914338 7.00000000000001
    vertex 21.079711920082914 -10.079839059914342 7.00000000000001
  endloop
endfacet
facet normal 0.0 0.0 1.0
  outer loop
    vertex -55.42028807991663 -10.079839059914292 7.00000000000012
    vertex 21.079711920082914 -7.079839059914338 7.00000000000001
    vertex -55.42028807991663 -7.079839059914298 7.00000000000012
  endloop
endfacet
facet normal 0.0 0.0 1.0
  outer loop
    vertex 21.079711920082914 -7.079839059914338 7.00000000000001
    vertex -55.42028807991663 -10.079839059914292 7.00000000000012
    vertex 21.079711920082914 -10.079839059914342 7.00000000000001
  endloop
endfacet
facet normal -1.0 2.2204460492503126e-16 -1.2085570639490972e-15
  outer loop
    vertex -55.42028807991663 -10.079839059914292 7.00000000000012
    vertex -55.42028807991663 -7.079839059914298 1.1493377678155966e-13
    vertex -55.42028807991663 -10.079839059914292 1.1493377678155966e-13
  endloop
endfacet
facet normal -1.0 2.2204460492503126e-16 -1.2085570639490972e-15
  outer loop
    vertex -55.42028807991663 -7.079839059914298 1.1493377678155966e-13
    vertex -55.42028807991663 -10.079839059914292 7.00000000000012
    vertex -55.42028807991663 -7.079839059914298 7.00000000000012
  endloop
endfacet
facet normal -0.49287990738463966 0.0 -0.8700973490917607
  outer loop
    vertex 20.079711920082914 -10.079839059914342 4.500000000000003
    vertex 18.37971192008292 -7.079839059914336 5.46299091524473
    vertex 20.079711920082914 -7.079839059914336 4.500000000000003
  endloop
endfacet
facet normal -0.49287990738463966 0.0 -0.8700973490917607
  outer loop
    vertex 18.37971192008292 -7.079839059914336 5.46299091524473
    vertex 20.079711920082914 -10.079839059914342 4.500000000000003
    vertex 18.37971192008292 -10.079839059914342 5.46299091524473
  endloop
endfacet
facet normal 0.49999999999999817 0.0 -0.8660254037844397
  outer loop
    vertex 18.37971192008292 -7.079839059914336 5.46299091524473
    vertex 16.679711920082923 -10.079839059914338 4.481495457622374
    vertex 16.679711920082923 -7.079839059914332 4.481495457622374
  endloop
endfacet
facet normal 0.49999999999999817 0.0 -0.8660254037844397
  outer loop
    vertex 16.679711920082923 -10.079839059914338 4.481495457622374
    vertex 18.37971192008292 -7.079839059914336 5.46299091524473
    vertex 18.37971192008292 -10.079839059914342 5.46299091524473
  endloop
endfacet
facet normal -6.450903718246863e-16 -1.0 -1.249659669264149e-31
  outer loop
    vertex -55.42028807991663 -10.079839059914292 1.1493377678155966e-13
    vertex -54.42028807991686 -10.079839059914338 2.518504542377636
    vertex -55.42028807991663 -10.079839059914292 7.00000000000012
  endloop
endfacet
facet normal -6.450903718246863e-16 -1.0 -1.249659669264149e-31
  outer loop
    vertex -54.42028807991686 -10.079839059914338 2.518504542377636
    vertex -55.42028807991663 -10.079839059914292 1.1493377678155966e-13
    vertex -52.720288079917 -10.07983905991434 1.537009084755279
  endloop
endfacet
facet normal -6.450903718246863e-16 -1.0 -1.249659669264149e-31
  outer loop
    vertex -52.720288079917 -10.07983905991434 1.537009084755279
    vertex -55.42028807991663 -10.079839059914292 1.1493377678155966e-13
    vertex 21.079711920082914 -10.079839059914342 0.0
  endloop
endfacet
facet normal -6.450903718246863e-16 -1.0 -1.249659669264149e-31
  outer loop
    vertex -52.720288079917 -10.07983905991434 1.537009084755279
    vertex 21.079711920082914 -10.079839059914342 0.0
    vertex -49.32028807991709 -10.07983905991435 1.537009084755279
  endloop
endfacet
facet normal -6.450903718246863e-16 -1.0 -1.249659669264149e-31
  outer loop
    vertex -49.32028807991709 -10.07983905991435 1.537009084755279
    vertex 21.079711920082914 -10.079839059914342 0.0
    vertex -47.620288079917074 -10.079839059914347 2.5185045423776478
  endloop
endfacet
facet normal -6.450903718246863e-16 -1.0 -1.249659669264149e-31
  outer loop
    vertex -47.620288079917074 -10.079839059914347 2.5185045423776478
    vertex 21.079711920082914 -10.079839059914342 0.0
    vertex 18.37971192008292 -10.079839059914342 1.537009084755279
  endloop
endfacet
facet normal -6.450903718246863e-16 -1.0 -1.249659669264149e-31
  outer loop
    vertex -47.620288079917074 -10.079839059914347 2.5185045423776478
    vertex 18.37971192008292 -10.079839059914342 1.537009084755279
    vertex 16.679711920082923 -10.079839059914338 2.5185045423776478
  endloop
endfacet
facet normal -6.450903718246863e-16 -1.0 -1.249659669264149e-31
  outer loop
    vertex 18.37971192008292 -10.079839059914342 1.537009084755279
    vertex 21.079711920082914 -10.079839059914342 0.0
    vertex 20.079711920082914 -10.079839059914342 2.518504542377636
  endloop
endfacet
facet normal -6.450903718246863e-16 -1.0 -1.249659669264149e-31
  outer loop
    vertex 20.079711920082914 -10.079839059914342 2.518504542377636
    vertex 21.079711920082914 -10.079839059914342 0.0
    vertex 20.079711920082914 -10.079839059914342 3.500000000000005
  endloop
endfacet
facet normal -6.450903718246863e-16 -1.0 -1.249659669264149e-31
  outer loop
    vertex 20.079711920082914 -10.079839059914342 3.500000000000005
    vertex 21.079711920082914 -10.079839059914342 0.0
    vertex 20.079711920082914 -10.079839059914342 4.500000000000003
  endloop
endfacet
facet normal -6.450903718246863e-16 -1.0 -1.249659669264149e-31
  outer loop
    vertex -55.42028807991663 -10.079839059914292 7.00000000000012
    vertex -52.720288079917 -10.07983905991434 5.46299091524473
    vertex 21.079711920082914 -10.079839059914342 7.00000000000001
  endloop
endfacet
facet normal -6.450903718246863e-16 -1.0 -1.249659669264149e-31
  outer loop
    vertex -52.720288079917 -10.07983905991434 5.46299091524473
    vertex -55.42028807991663 -10.079839059914292 7.00000000000012
    vertex -54.42028807991686 -10.079839059914338 4.481495457622362
  endloop
endfacet
facet normal -6.450903718246863e-16 -1.0 -1.249659669264149e-31
  outer loop
    vertex -54.42028807991686 -10.079839059914338 4.481495457622362
    vertex -55.42028807991663 -10.079839059914292 7.00000000000012
    vertex -54.42028807991686 -10.079839059914338 2.518504542377636
  endloop
endfacet
facet normal -6.450903718246863e-16 -1.0 -1.249659669264149e-31
  outer loop
    vertex 21.079711920082914 -10.079839059914342 7.00000000000001
    vertex -52.720288079917 -10.07983905991434 5.46299091524473
    vertex -49.32028807991709 -10.07983905991435 5.46299091524473
  endloop
endfacet
facet normal -6.450903718246863e-16 -1.0 -1.249659669264149e-31
  outer loop
    vertex 21.079711920082914 -10.079839059914342 7.00000000000001
    vertex -49.32028807991709 -10.07983905991435 5.46299091524473
    vertex -47.62028807991712 -10.079839059914347 4.481495457622374
  endloop
endfacet
facet normal -6.450903718246863e-16 -1.0 -1.249659669264149e-31
  outer loop
    vertex 21.079711920082914 -10.079839059914342 7.00000000000001
    vertex -47.62028807991712 -10.079839059914347 4.481495457622374
    vertex -47.620288079917074 -10.079839059914347 2.5185045423776478
  endloop
endfacet
facet normal -6.450903718246863e-16 -1.0 -1.249659669264149e-31
  outer loop
    vertex 21.079711920082914 -10.079839059914342 7.00000000000001
    vertex -47.620288079917074 -10.079839059914347 2.5185045423776478
    vertex 18.37971192008292 -10.079839059914342 5.46299091524473
  endloop
endfacet
facet normal -6.450903718246863e-16 -1.0 -1.249659669264149e-31
  outer loop
    vertex 18.37971192008292 -10.079839059914342 5.46299091524473
    vertex -47.620288079917074 -10.079839059914347 2.5185045423776478
    vertex 16.679711920082923 -10.079839059914338 4.481495457622374
  endloop
endfacet
facet normal -6.450903718246863e-16 -1.0 -1.249659669264149e-31
  outer loop
    vertex 16.679711920082923 -10.079839059914338 4.481495457622374
    vertex -47.620288079917074 -10.079839059914347 2.5185045423776478
    vertex 16.679711920082923 -10.079839059914338 2.5185045423776478
  endloop
endfacet
facet normal -6.450903718246863e-16 -1.0 -1.249659669264149e-31
  outer loop
    vertex 21.079711920082914 -10.079839059914342 7.00000000000001
    vertex 18.37971192008292 -10.079839059914342 5.46299091524473
    vertex 20.079711920082914 -10.079839059914342 4.500000000000003
  endloop
endfacet
facet normal -6.450903718246863e-16 -1.0 -1.249659669264149e-31
  outer loop
    vertex 21.079711920082914 -10.079839059914342 7.00000000000001
    vertex 20.079711920082914 -10.079839059914342 4.500000000000003
    vertex 21.079711920082914 -10.079839059914342 0.0
  endloop
endfacet
facet normal 5.160722974597489e-16 1.0 1.5677428041749247e-31
  outer loop
    vertex -55.42028807991663 -7.079839059914298 7.00000000000012
    vertex -54.42028807991686 -7.0798390599143435 4.481495457622362
    vertex -55.42028807991663 -7.079839059914298 1.1493377678155966e-13
  endloop
endfacet
facet normal 5.160722974597489e-16 1.0 1.5677428041749247e-31
  outer loop
    vertex -54.42028807991686 -7.0798390599143435 4.481495457622362
    vertex -55.42028807991663 -7.079839059914298 7.00000000000012
    vertex -52.720288079917 -7.079839059914339 5.46299091524473
  endloop
endfacet
facet normal 5.160722974597489e-16 1.0 1.5677428041749247e-31
  outer loop
    vertex -52.720288079917 -7.079839059914339 5.46299091524473
    vertex -55.42028807991663 -7.079839059914298 7.00000000000012
    vertex 21.079711920082914 -7.079839059914338 7.00000000000001
  endloop
endfacet
facet normal 5.160722974597489e-16 1.0 1.5677428041749247e-31
  outer loop
    vertex -52.720288079917 -7.079839059914339 5.46299091524473
    vertex 21.079711920082914 -7.079839059914338 7.00000000000001
    vertex -49.32028807991709 -7.079839059914344 5.46299091524473
  endloop
endfacet
facet normal 5.160722974597489e-16 1.0 1.5677428041749247e-31
  outer loop
    vertex -49.32028807991709 -7.079839059914344 5.46299091524473
    vertex 21.079711920082914 -7.079839059914338 7.00000000000001
    vertex -47.62028807991712 -7.079839059914341 4.481495457622374
  endloop
endfacet
facet normal 5.160722974597489e-16 1.0 1.5677428041749247e-31
  outer loop
    vertex -47.62028807991712 -7.079839059914341 4.481495457622374
    vertex 21.079711920082914 -7.079839059914338 7.00000000000001
    vertex -47.620288079917074 -7.079839059914341 2.5185045423776478
  endloop
endfacet
facet normal 5.160722974597489e-16 1.0 1.5677428041749247e-31
  outer loop
    vertex -47.620288079917074 -7.079839059914341 2.5185045423776478
    vertex 21.079711920082914 -7.079839059914338 7.00000000000001
    vertex 18.37971192008292 -7.079839059914336 5.46299091524473
  endloop
endfacet
facet normal 5.160722974597489e-16 1.0 1.5677428041749247e-31
  outer loop
    vertex -47.620288079917074 -7.079839059914341 2.5185045423776478
    vertex 18.37971192008292 -7.079839059914336 5.46299091524473
    vertex 16.679711920082923 -7.079839059914332 4.481495457622374
  endloop
endfacet
facet normal 5.160722974597489e-16 1.0 1.5677428041749247e-31
  outer loop
    vertex 18.37971192008292 -7.079839059914336 5.46299091524473
    vertex 21.079711920082914 -7.079839059914338 7.00000000000001
    vertex 20.079711920082914 -7.079839059914336 4.500000000000003
  endloop
endfacet
facet normal 5.160722974597489e-16 1.0 1.5677428041749247e-31
  outer loop
    vertex 20.079711920082914 -7.079839059914336 4.500000000000003
    vertex 21.079711920082914 -7.079839059914338 7.00000000000001
    vertex 20.079711920082914 -7.079839059914336 3.500000000000005
  endloop
endfacet
facet normal 5.160722974597489e-16 1.0 1.5677428041749247e-31
  outer loop
    vertex 20.079711920082914 -7.079839059914336 3.500000000000005
    vertex 21.079711920082914 -7.079839059914338 7.00000000000001
    vertex 20.079711920082914 -7.079839059914336 2.518504542377636
  endloop
endfacet
facet normal 5.160722974597489e-16 1.0 1.5677428041749247e-31
  outer loop
    vertex -55.42028807991663 -7.079839059914298 1.1493377678155966e-13
    vertex -52.720288079917 -7.079839059914339 1.537009084755279
    vertex 21.079711920082914 -7.079839059914338 0.0
  endloop
endfacet
facet normal 5.160722974597489e-16 1.0 1.5677428041749247e-31
  outer loop
    vertex -52.720288079917 -7.079839059914339 1.537009084755279
    vertex -55.42028807991663 -7.079839059914298 1.1493377678155966e-13
    vertex -54.42028807991686 -7.0798390599143435 2.518504542377636
  endloop
endfacet
facet normal 5.160722974597489e-16 1.0 1.5677428041749247e-31
  outer loop
    vertex -54.42028807991686 -7.0798390599143435 2.518504542377636
    vertex -55.42028807991663 -7.079839059914298 1.1493377678155966e-13
    vertex -54.42028807991686 -7.0798390599143435 4.481495457622362
  endloop
endfacet
facet normal 5.160722974597489e-16 1.0 1.5677428041749247e-31
  outer loop
    vertex 21.079711920082914 -7.079839059914338 0.0
    vertex -52.720288079917 -7.079839059914339 1.537009084755279
    vertex -49.32028807991709 -7.079839059914344 1.537009084755279
  endloop
endfacet
facet normal 5.160722974597489e-16 1.0 1.5677428041749247e-31
  outer loop
    vertex 21.079711920082914 -7.079839059914338 0.0
    vertex -49.32028807991709 -7.079839059914344 1.537009084755279
    vertex 18.37971192008292 -7.079839059914336 1.537009084755279
  endloop
endfacet
facet normal 5.160722974597489e-16 1.0 1.5677428041749247e-31
  outer loop
    vertex 21.079711920082914 -7.079839059914338 0.0
    vertex 18.37971192008292 -7.079839059914336 1.537009084755279
    vertex 20.079711920082914 -7.079839059914336 2.518504542377636
  endloop
endfacet
facet normal 5.160722974597489e-16 1.0 1.5677428041749247e-31
  outer loop
    vertex 21.079711920082914 -7.079839059914338 0.0
    vertex 20.079711920082914 -7.079839059914336 2.518504542377636
    vertex 21.079711920082914 -7.079839059914338 7.00000000000001
  endloop
endfacet
facet normal 5.160722974597489e-16 1.0 1.5677428041749247e-31
  outer loop
    vertex -47.620288079917074 -7.079839059914341 2.5185045423776478
    vertex 18.37971192008292 -7.079839059914336 1.537009084755279
    vertex -49.32028807991709 -7.079839059914344 1.537009084755279
  endloop
endfacet
facet normal 5.160722974597489e-16 1.0 1.5677428041749247e-31
  outer loop
    vertex 18.37971192008292 -7.079839059914336 1.537009084755279
    vertex -47.620288079917074 -7.079839059914341 2.5185045423776478
    vertex 16.679711920082923 -7.079839059914332 2.5185045423776478
  endloop
endfacet
facet normal 5.160722974597489e-16 1.0 1.5677428041749247e-31
  outer loop
    vertex 16.679711920082923 -7.079839059914332 2.5185045423776478
    vertex -47.620288079917074 -7.079839059914341 2.5185045423776478
    vertex 16.679711920082923 -7.079839059914332 4.481495457622374
  endloop
endfacet
endsolid remote_shutter
