solid remote_shutter
facet normal 1.0 0.0 0.0
  outer loop
    vertex -7.967871973459588 72.81444620422147 10.599999999999193
    vertex -7.967871973459322 12.814446204221527 11.300000000000002
    vertex -7.967871973459322 12.814446204221527 10.600000000000003
  endloop
endfacet
facet normal 1.0 0.0 0.0
  outer loop
    vertex -7.967871973459322 12.814446204221527 11.300000000000002
    vertex -7.967871973459588 72.81444620422147 10.599999999999193
    vertex -7.967871973459588 72.81444620422147 11.299999999999192
  endloop
endfacet
facet normal 0.0 0.0 1.0
  outer loop
    vertex -14.96787197345932 12.814446204221515 11.300000000000002
    vertex -7.967871973459588 72.81444620422147 11.299999999999192
    vertex -14.967871973459589 72.81444620422147 11.299999999999192
  endloop
endfacet
facet normal 0.0 0.0 1.0
  outer loop
    vertex -7.967871973459588 72.81444620422147 11.299999999999192
    vertex -14.96787197345932 12.814446204221515 11.300000000000002
    vertex -7.967871973459322 12.814446204221527 11.300000000000002
  endloop
endfacet
facet normal 3.759955310063863e-15 -1.0 -9.669517221174076e-32
  outer loop
    vertex -7.967871973459322 12.814446204221527 11.300000000000002
    vertex -12.967871973459323 12.814446204221527 10.600000000000003
    vertex -7.967871973459322 12.814446204221527 10.600000000000003
  endloop
endfacet
facet normal 3.759955310063863e-15 -1.0 -9.669517221174076e-32
  outer loop
    vertex -7.967871973459322 12.814446204221527 8.150000000000002
    vertex -14.96787197345932 12.814446204221515 8.150000000000002
    vertex -12.967871973459587 12.814446204221515 8.149999999999597
  endloop
endfacet
facet normal 3.759955310063863e-15 -1.0 -9.669517221174076e-32
  outer loop
    vertex -14.96787197345932 12.814446204221515 8.150000000000002
    vertex -7.967871973459322 12.814446204221527 8.150000000000002
    vertex -7.967871973459322 12.814446204221527 8.850000000000001
  endloop
endfacet
facet normal 3.759955310063863e-15 -1.0 -9.669517221174076e-32
  outer loop
    vertex -14.96787197345932 12.814446204221515 8.150000000000002
    vertex -7.967871973459322 12.814446204221527 8.850000000000001
    vertex -12.967871973459323 12.814446204221527 8.850000000000001
  endloop
endfacet
facet normal 3.759955310063863e-15 -1.0 -9.669517221174076e-32
  outer loop
    vertex -14.96787197345932 12.814446204221515 8.150000000000002
    vertex -12.967871973459323 12.814446204221527 8.850000000000001
    vertex -14.96787197345932 12.814446204221515 11.300000000000002
  endloop
endfacet
facet normal 3.759955310063863e-15 -1.0 -9.669517221174076e-32
  outer loop
    vertex -14.96787197345932 12.814446204221515 11.300000000000002
    vertex -12.967871973459323 12.814446204221527 8.850000000000001
    vertex -12.967871973459323 12.814446204221527 10.600000000000003
  endloop
endfacet
facet normal 3.759955310063863e-15 -1.0 -9.669517221174076e-32
  outer loop
    vertex -14.96787197345932 12.814446204221515 11.300000000000002
    vertex -12.967871973459323 12.814446204221527 10.600000000000003
    vertex -7.967871973459322 12.814446204221527 11.300000000000002
  endloop
endfacet
facet normal 0.0 0.0 -1.0
  outer loop
    vertex -7.967871973459588 72.81444620422147 10.599999999999193
    vertex -12.967871973459323 12.814446204221527 10.600000000000003
    vertex -12.967871973459587 72.81444620422151 10.599999999999193
  endloop
endfacet
facet normal 0.0 0.0 -1.0
  outer loop
    vertex -12.967871973459323 12.814446204221527 10.600000000000003
    vertex -7.967871973459588 72.81444620422147 10.599999999999193
    vertex -7.967871973459322 12.814446204221527 10.600000000000003
  endloop
endfacet
facet normal 2.111379453232276e-15 1.0 1.1594151847120233e-14
  outer loop
    vertex -14.967871973459589 72.81444620422147 11.299999999999192
    vertex -12.967871973459587 72.81444620422151 8.149999999999192
    vertex -14.967871973459589 72.81444620422151 8.149999999999192
  endloop
endfacet
facet normal 2.111379453232276e-15 1.0 1.1594151847120233e-14
  outer loop
    vertex -12.967871973459587 72.81444620422151 8.149999999999192
    vertex -14.967871973459589 72.81444620422147 11.299999999999192
    vertex -12.967871973459587 72.81444620422151 8.849999999999197
  endloop
endfacet
facet normal 2.111379453232276e-15 1.0 1.1594151847120233e-14
  outer loop
    vertex -12.967871973459587 72.81444620422151 8.849999999999197
    vertex -14.967871973459589 72.81444620422147 11.299999999999192
    vertex -12.967871973459587 72.81444620422151 10.599999999999193
  endloop
endfacet
facet normal 2.111379453232276e-15 1.0 1.1594151847120233e-14
  outer loop
    vertex -12.967871973459587 72.81444620422151 10.599999999999193
    vertex -14.967871973459589 72.81444620422147 11.299999999999192
    vertex -7.967871973459588 72.81444620422147 10.599999999999193
  endloop
endfacet
facet normal 2.111379453232276e-15 1.0 1.1594151847120233e-14
  outer loop
    vertex -7.967871973459588 72.81444620422147 10.599999999999193
    vertex -14.967871973459589 72.81444620422147 11.299999999999192
    vertex -7.967871973459588 72.81444620422147 11.299999999999192
  endloop
endfacet
facet normal 1.0 0.0 0.0
  outer loop
    vertex -12.967871973459587 72.81444620422151 8.849999999999197
    vertex -12.967871973459323 12.814446204221527 10.600000000000003
    vertex -12.967871973459323 12.814446204221527 8.850000000000001
  endloop
endfacet
facet normal 1.0 0.0 0.0
  outer loop
    vertex -12.967871973459323 12.814446204221527 10.600000000000003
    vertex -12.967871973459587 72.81444620422151 8.849999999999197
    vertex -12.967871973459587 72.81444620422151 10.599999999999193
  endloop
endfacet
facet normal 8.812395257962182e-17 0.0 1.0
  outer loop
    vertex -12.967871973459323 12.814446204221527 8.850000000000001
    vertex -7.967871973459588 72.81444620422151 8.849999999999197
    vertex -12.967871973459587 72.81444620422151 8.849999999999197
  endloop
endfacet
facet normal 8.812395257962182e-17 0.0 1.0
  outer loop
    vertex -7.967871973459588 72.81444620422151 8.849999999999197
    vertex -12.967871973459323 12.814446204221527 8.850000000000001
    vertex -7.967871973459322 12.814446204221527 8.850000000000001
  endloop
endfacet
facet normal -1.0 0.0 0.0
  outer loop
    vertex -14.967871973459589 72.81444620422147 11.299999999999192
    vertex -14.96787197345932 12.814446204221515 8.150000000000002
    vertex -14.96787197345932 12.814446204221515 11.300000000000002
  endloop
endfacet
facet normal -1.0 0.0 0.0
  outer loop
    vertex -14.96787197345932 12.814446204221515 8.150000000000002
    vertex -14.967871973459589 72.81444620422147 11.299999999999192
    vertex -14.967871973459589 72.81444620422151 8.149999999999192
  endloop
endfacet
facet normal 1.0 0.0 0.0
  outer loop
    vertex -7.967871973459588 72.81444620422151 8.149999999999192
    vertex -7.967871973459322 12.814446204221527 8.850000000000001
    vertex -7.967871973459322 12.814446204221527 8.150000000000002
  endloop
endfacet
facet normal 1.0 0.0 0.0
  outer loop
    vertex -7.967871973459322 12.814446204221527 8.850000000000001
    vertex -7.967871973459588 72.81444620422151 8.149999999999192
    vertex -7.967871973459588 72.81444620422151 8.849999999999197
  endloop
endfacet
facet normal 0.0 1.0 0.0
  outer loop
    vertex -12.967871973459587 72.81444620422151 8.849999999999197
    vertex -7.967871973459588 72.81444620422151 8.149999999999192
    vertex -12.967871973459587 72.81444620422151 8.149999999999192
  endloop
endfacet
facet normal 0.0 1.0 0.0
  outer loop
    vertex -7.967871973459588 72.81444620422151 8.149999999999192
    vertex -12.967871973459587 72.81444620422151 8.849999999999197
    vertex -7.967871973459588 72.81444620422151 8.849999999999197
  endloop
endfacet
facet normal 4.046651902456235e-14 -1.0116629756140491e-14 -1.0
  outer loop
    vertex -7.967871973459588 72.81444620422151 8.149999999999192
    vertex -12.967871973459587 12.814446204221515 8.149999999999597
    vertex -12.967871973459587 72.81444620422151 8.149999999999192
  endloop
endfacet
facet normal 4.046651902456235e-14 -1.0116629756140491e-14 -1.0
  outer loop
    vertex -12.967871973459587 12.814446204221515 8.149999999999597
    vertex -7.967871973459588 72.81444620422151 8.149999999999192
    vertex -7.967871973459322 12.814446204221527 8.150000000000002
  endloop
endfacet
facet normal -1.011662975614057e-13 -1.0116629756140805e-14 -1.0
  outer loop
    vertex -12.967871973459587 72.81444620422151 8.149999999999192
    vertex -14.96787197345932 12.814446204221515 8.150000000000002
    vertex -14.967871973459589 72.81444620422151 8.149999999999192
  endloop
endfacet
facet normal -1.011662975614057e-13 -1.0116629756140805e-14 -1.0
  outer loop
    vertex -14.96787197345932 12.814446204221515 8.150000000000002
    vertex -12.967871973459587 72.81444620422151 8.149999999999192
    vertex -12.967871973459587 12.814446204221515 8.149999999999597
  endloop
endfacet
facet normal 0.0 0.0 1.0
  outer loop
    vertex -12.967871973459324 17.81444620422151 11.300000000000013
    vertex -17.467871973459317 61.814446204221504 11.300000000000013
    vertex -17.46787197345932 17.81444620422151 11.300000000000013
  endloop
endfacet
facet normal 0.0 0.0 1.0
  outer loop
    vertex -17.467871973459317 61.814446204221504 11.300000000000013
    vertex -12.967871973459324 17.81444620422151 11.300000000000013
    vertex -12.967871973459319 61.814446204221504 11.300000000000013
  endloop
endfacet
facet normal 0.0 0.0 1.0
  outer loop
    vertex -12.967871973459319 66.8144462042215 11.300000000000013
    vertex -17.467871973459317 72.81444620422148 11.300000000000013
    vertex -17.467871973459317 66.8144462042215 11.300000000000013
  endloop
endfacet
facet normal 0.0 0.0 1.0
  outer loop
    vertex -17.467871973459317 72.81444620422148 11.300000000000013
    vertex -12.967871973459319 66.8144462042215 11.300000000000013
    vertex -12.967871973459319 72.81444620422148 11.300000000000013
  endloop
endfacet
facet normal 0.0 0.0 -1.0
  outer loop
    vertex -12.967871973459319 67.81444620422151 8.150000000000018
    vertex -17.467871973459317 17.814446204221525 8.150000000000018
    vertex -17.467871973459317 67.81444620422151 8.150000000000018
  endloop
endfacet
facet normal 0.0 0.0 -1.0
  outer loop
    vertex -17.467871973459317 17.814446204221525 8.150000000000018
    vertex -12.967871973459319 67.81444620422151 8.150000000000018
    vertex -12.967871973459319 17.814446204221525 8.150000000000018
  endloop
endfacet
facet normal 1.208736066329407e-31 4.511946372076639e-15 1.0
  outer loop
    vertex -12.967871973459324 12.814446204221515 11.300000000000036
    vertex -17.46787197345932 17.81444620422151 11.300000000000013
    vertex -17.46787197345932 12.814446204221515 11.300000000000036
  endloop
endfacet
facet normal 1.208736066329407e-31 4.511946372076639e-15 1.0
  outer loop
    vertex -17.46787197345932 17.81444620422151 11.300000000000013
    vertex -12.967871973459324 12.814446204221515 11.300000000000036
    vertex -12.967871973459324 17.81444620422151 11.300000000000013
  endloop
endfacet
facet normal 1.0 -5.2885964780960654e-17 -3.916418276275211e-17
  outer loop
    vertex -12.967871973459324 72.81444620422147 3.149999999999994
    vertex -12.967871973459319 67.81444620422151 8.150000000000018
    vertex -12.967871973459324 67.81444620422151 3.149999999999994
  endloop
endfacet
facet normal 1.0 -5.2885964780960654e-17 -3.916418276275211e-17
  outer loop
    vertex -12.967871973459324 17.814446204221515 3.15
    vertex -12.967871973459587 12.814446204221515 8.149999999999595
    vertex -12.967871973459324 12.814446204221515 3.15
  endloop
endfacet
facet normal 1.0 -5.2885964780960654e-17 -3.916418276275211e-17
  outer loop
    vertex -12.967871973459587 12.814446204221515 8.149999999999595
    vertex -12.967871973459324 17.814446204221515 3.15
    vertex -12.967871973459324 12.814446204221515 11.300000000000036
  endloop
endfacet
facet normal 1.0 -5.2885964780960654e-17 -3.916418276275211e-17
  outer loop
    vertex -12.967871973459324 12.814446204221515 11.300000000000036
    vertex -12.967871973459324 17.814446204221515 3.15
    vertex -12.967871973459324 17.81444620422151 11.300000000000013
  endloop
endfacet
facet normal 1.0 -5.2885964780960654e-17 -3.916418276275211e-17
  outer loop
    vertex -12.967871973459324 17.81444620422151 11.300000000000013
    vertex -12.967871973459324 17.814446204221515 3.15
    vertex -12.967871973459319 17.814446204221525 8.150000000000018
  endloop
endfacet
facet normal 1.0 -5.2885964780960654e-17 -3.916418276275211e-17
  outer loop
    vertex -12.967871973459324 17.81444620422151 11.300000000000013
    vertex -12.967871973459319 17.814446204221525 8.150000000000018
    vertex -12.967871973459319 61.814446204221504 11.300000000000013
  endloop
endfacet
facet normal 1.0 -5.2885964780960654e-17 -3.916418276275211e-17
  outer loop
    vertex -12.967871973459319 61.814446204221504 11.300000000000013
    vertex -12.967871973459319 17.814446204221525 8.150000000000018
    vertex -12.967871973459319 67.81444620422151 8.150000000000018
  endloop
endfacet
facet normal 1.0 -5.2885964780960654e-17 -3.916418276275211e-17
  outer loop
    vertex -12.967871973459319 61.814446204221504 11.300000000000013
    vertex -12.967871973459319 67.81444620422151 8.150000000000018
    vertex -12.967871973459319 66.8144462042215 11.300000000000013
  endloop
endfacet
facet normal 1.0 -5.2885964780960654e-17 -3.916418276275211e-17
  outer loop
    vertex -12.967871973459319 66.8144462042215 11.300000000000013
    vertex -12.967871973459319 67.81444620422151 8.150000000000018
    vertex -12.967871973459319 72.81444620422148 11.300000000000013
  endloop
endfacet
facet normal 1.0 -5.2885964780960654e-17 -3.916418276275211e-17
  outer loop
    vertex -12.967871973459319 72.81444620422148 11.300000000000013
    vertex -12.967871973459319 67.81444620422151 8.150000000000018
    vertex -12.967871973459319 72.81444620422147 8.150000000000018
  endloop
endfacet
facet normal 1.0 -5.2885964780960654e-17 -3.916418276275211e-17
  outer loop
    vertex -12.967871973459319 72.81444620422147 8.150000000000018
    vertex -12.967871973459319 67.81444620422151 8.150000000000018
    vertex -12.967871973459324 72.81444620422147 3.149999999999994
  endloop
endfacet
facet normal 0.0 0.0 -1.0
  outer loop
    vertex -12.967871973459324 17.814446204221515 3.15
    vertex -17.46787197345932 12.814446204221515 3.15
    vertex -17.46787197345932 17.814446204221515 3.15
  endloop
endfacet
facet normal 0.0 0.0 -1.0
  outer loop
    vertex -17.46787197345932 12.814446204221515 3.15
    vertex -12.967871973459324 17.814446204221515 3.15
    vertex -12.967871973459324 12.814446204221515 3.15
  endloop
endfacet
facet normal -1.3953079728280187e-32 1.0 -2.743741594971721e-16
  outer loop
    vertex -17.46787197345932 17.814446204221515 3.15
    vertex -15.217871973459221 17.814446204221493 3.7499999999998015
    vertex -12.967871973459324 17.814446204221515 3.15
  endloop
endfacet
facet normal -1.3953079728280187e-32 1.0 -2.743741594971721e-16
  outer loop
    vertex -15.217871973459221 17.814446204221493 3.7499999999998015
    vertex -17.46787197345932 17.814446204221515 3.15
    vertex -16.863320240649706 17.814446204221493 4.69999999999971
  endloop
endfacet
facet normal -1.3953079728280187e-32 1.0 -2.743741594971721e-16
  outer loop
    vertex -16.863320240649706 17.814446204221493 4.69999999999971
    vertex -17.46787197345932 17.814446204221515 3.15
    vertex -17.467871973459317 17.814446204221525 8.150000000000018
  endloop
endfacet
facet normal -1.3953079728280187e-32 1.0 -2.743741594971721e-16
  outer loop
    vertex -16.863320240649706 17.814446204221493 4.69999999999971
    vertex -17.467871973459317 17.814446204221525 8.150000000000018
    vertex -16.86332024064981 17.814446204221493 6.599999999999706
  endloop
endfacet
facet normal -1.3953079728280187e-32 1.0 -2.743741594971721e-16
  outer loop
    vertex -16.86332024064981 17.814446204221493 6.599999999999706
    vertex -17.467871973459317 17.814446204221525 8.150000000000018
    vertex -15.217871973459426 17.814446204221493 7.5499999999998
  endloop
endfacet
facet normal -1.3953079728280187e-32 1.0 -2.743741594971721e-16
  outer loop
    vertex -12.967871973459324 17.814446204221515 3.15
    vertex -13.57242370626884 17.814446204221493 4.69999999999989
    vertex -12.967871973459319 17.814446204221525 8.150000000000018
  endloop
endfacet
facet normal -1.3953079728280187e-32 1.0 -2.743741594971721e-16
  outer loop
    vertex -13.57242370626884 17.814446204221493 4.69999999999989
    vertex -12.967871973459324 17.814446204221515 3.15
    vertex -15.217871973459221 17.814446204221493 3.7499999999998015
  endloop
endfacet
facet normal -1.3953079728280187e-32 1.0 -2.743741594971721e-16
  outer loop
    vertex -12.967871973459319 17.814446204221525 8.150000000000018
    vertex -13.57242370626884 17.814446204221493 4.69999999999989
    vertex -13.572423706268891 17.814446204221493 5.649999999999798
  endloop
endfacet
facet normal -1.3953079728280187e-32 1.0 -2.743741594971721e-16
  outer loop
    vertex -12.967871973459319 17.814446204221525 8.150000000000018
    vertex -13.572423706268891 17.814446204221493 5.649999999999798
    vertex -13.572423706268943 17.814446204221493 6.599999999999886
  endloop
endfacet
facet normal -1.3953079728280187e-32 1.0 -2.743741594971721e-16
  outer loop
    vertex -12.967871973459319 17.814446204221525 8.150000000000018
    vertex -13.572423706268943 17.814446204221493 6.599999999999886
    vertex -15.217871973459426 17.814446204221493 7.5499999999998
  endloop
endfacet
facet normal -1.3953079728280187e-32 1.0 -2.743741594971721e-16
  outer loop
    vertex -12.967871973459319 17.814446204221525 8.150000000000018
    vertex -15.217871973459426 17.814446204221493 7.5499999999998
    vertex -17.467871973459317 17.814446204221525 8.150000000000018
  endloop
endfacet
facet normal 0.0 0.0 -1.0
  outer loop
    vertex -12.967871973459324 72.81444620422147 3.149999999999994
    vertex -17.46787197345932 67.81444620422151 3.149999999999994
    vertex -17.46787197345932 72.81444620422147 3.149999999999994
  endloop
endfacet
facet normal 0.0 0.0 -1.0
  outer loop
    vertex -17.46787197345932 67.81444620422151 3.149999999999994
    vertex -12.967871973459324 72.81444620422147 3.149999999999994
    vertex -12.967871973459324 67.81444620422151 3.149999999999994
  endloop
endfacet
facet normal 0.0 -1.0 0.0
  outer loop
    vertex -12.967871973459324 67.81444620422151 3.149999999999994
    vertex -15.217871973459307 67.81444620422154 3.7500000000000497
    vertex -17.46787197345932 67.81444620422151 3.149999999999994
  endloop
endfacet
facet normal 0.0 -1.0 0.0
  outer loop
    vertex -15.217871973459307 67.81444620422154 3.7500000000000497
    vertex -12.967871973459324 67.81444620422151 3.149999999999994
    vertex -13.572423706268872 67.81444620422154 4.700000000000042
  endloop
endfacet
facet normal 0.0 -1.0 0.0
  outer loop
    vertex -13.572423706268872 67.81444620422154 4.700000000000042
    vertex -12.967871973459324 67.81444620422151 3.149999999999994
    vertex -12.967871973459319 67.81444620422151 8.150000000000018
  endloop
endfacet
facet normal 0.0 -1.0 0.0
  outer loop
    vertex -13.572423706268872 67.81444620422154 4.700000000000042
    vertex -12.967871973459319 67.81444620422151 8.150000000000018
    vertex -13.572423706268866 67.81444620422157 6.6000000000000165
  endloop
endfacet
facet normal 0.0 -1.0 0.0
  outer loop
    vertex -13.572423706268866 67.81444620422157 6.6000000000000165
    vertex -12.967871973459319 67.81444620422151 8.150000000000018
    vertex -15.217871973459296 67.81444620422157 7.550000000000026
  endloop
endfacet
facet normal 0.0 -1.0 0.0
  outer loop
    vertex -17.46787197345932 67.81444620422151 3.149999999999994
    vertex -16.86332024064974 67.81444620422157 4.7000000000000535
    vertex -17.467871973459317 67.81444620422151 8.150000000000018
  endloop
endfacet
facet normal 0.0 -1.0 0.0
  outer loop
    vertex -16.86332024064974 67.81444620422157 4.7000000000000535
    vertex -17.46787197345932 67.81444620422151 3.149999999999994
    vertex -15.217871973459307 67.81444620422154 3.7500000000000497
  endloop
endfacet
facet normal 0.0 -1.0 0.0
  outer loop
    vertex -17.467871973459317 67.81444620422151 8.150000000000018
    vertex -16.86332024064974 67.81444620422157 4.7000000000000535
    vertex -16.863320240649735 67.81444620422157 5.650000000000046
  endloop
endfacet
facet normal 0.0 -1.0 0.0
  outer loop
    vertex -17.467871973459317 67.81444620422151 8.150000000000018
    vertex -16.863320240649735 67.81444620422157 5.650000000000046
    vertex -16.86332024064973 67.81444620422157 6.600000000000033
  endloop
endfacet
facet normal 0.0 -1.0 0.0
  outer loop
    vertex -17.467871973459317 67.81444620422151 8.150000000000018
    vertex -16.86332024064973 67.81444620422157 6.600000000000033
    vertex -15.217871973459296 67.81444620422157 7.550000000000026
  endloop
endfacet
facet normal 0.0 -1.0 0.0
  outer loop
    vertex -17.467871973459317 67.81444620422151 8.150000000000018
    vertex -15.217871973459296 67.81444620422157 7.550000000000026
    vertex -12.967871973459319 67.81444620422151 8.150000000000018
  endloop
endfacet
facet normal 0.0 0.0 1.0
  outer loop
    vertex -12.967871973459319 61.814446204221504 11.300000000000013
    vertex -17.467871973459317 66.8144462042215 11.300000000000013
    vertex -17.467871973459317 61.814446204221504 11.300000000000013
  endloop
endfacet
facet normal 0.0 0.0 1.0
  outer loop
    vertex -17.467871973459317 66.8144462042215 11.300000000000013
    vertex -12.967871973459319 61.814446204221504 11.300000000000013
    vertex -12.967871973459319 66.8144462042215 11.300000000000013
  endloop
endfacet
facet normal 1.984563231720522e-15 1.0 -2.7813926590981706e-15
  outer loop
    vertex -17.46787197345932 72.81444620422147 3.149999999999994
    vertex -15.21787197345933 72.81444620422147 3.7500000000000044
    vertex -12.967871973459324 72.81444620422147 3.149999999999994
  endloop
endfacet
facet normal 1.984563231720522e-15 1.0 -2.7813926590981706e-15
  outer loop
    vertex -15.21787197345933 72.81444620422147 3.7500000000000044
    vertex -17.46787197345932 72.81444620422147 3.149999999999994
    vertex -16.86332024064976 72.81444620422148 4.700000000000014
  endloop
endfacet
facet normal 1.984563231720522e-15 1.0 -2.7813926590981706e-15
  outer loop
    vertex -16.86332024064976 72.81444620422148 4.700000000000014
    vertex -17.46787197345932 72.81444620422147 3.149999999999994
    vertex -17.467871973459317 72.81444620422148 8.150000000000018
  endloop
endfacet
facet normal 1.984563231720522e-15 1.0 -2.7813926590981706e-15
  outer loop
    vertex -16.86332024064976 72.81444620422148 4.700000000000014
    vertex -17.467871973459317 72.81444620422148 8.150000000000018
    vertex -16.863320240649756 72.81444620422148 5.650000000000007
  endloop
endfacet
facet normal 1.984563231720522e-15 1.0 -2.7813926590981706e-15
  outer loop
    vertex -16.863320240649756 72.81444620422148 5.650000000000007
    vertex -17.467871973459317 72.81444620422148 8.150000000000018
    vertex -16.863320240649752 72.8144462042215 6.60000000000001
  endloop
endfacet
facet normal 1.984563231720522e-15 1.0 -2.7813926590981706e-15
  outer loop
    vertex -16.863320240649752 72.8144462042215 6.60000000000001
    vertex -17.467871973459317 72.81444620422148 8.150000000000018
    vertex -15.217871973459317 72.8144462042215 7.550000000000009
  endloop
endfacet
facet normal 1.984563231720522e-15 1.0 -2.7813926590981706e-15
  outer loop
    vertex -12.967871973459324 72.81444620422147 3.149999999999994
    vertex -13.572423706268895 72.81444620422147 4.700000000000003
    vertex -12.967871973459319 72.81444620422147 8.150000000000018
  endloop
endfacet
facet normal 1.984563231720522e-15 1.0 -2.7813926590981706e-15
  outer loop
    vertex -13.572423706268895 72.81444620422147 4.700000000000003
    vertex -12.967871973459324 72.81444620422147 3.149999999999994
    vertex -15.21787197345933 72.81444620422147 3.7500000000000044
  endloop
endfacet
facet normal 1.984563231720522e-15 1.0 -2.7813926590981706e-15
  outer loop
    vertex -12.967871973459319 72.81444620422147 8.150000000000018
    vertex -13.572423706268895 72.81444620422147 4.700000000000003
    vertex -13.572423706268887 72.81444620422148 6.599999999999999
  endloop
endfacet
facet normal 1.984563231720522e-15 1.0 -2.7813926590981706e-15
  outer loop
    vertex -12.967871973459319 72.81444620422147 8.150000000000018
    vertex -13.572423706268887 72.81444620422148 6.599999999999999
    vertex -15.217871973459317 72.8144462042215 7.550000000000009
  endloop
endfacet
facet normal 1.984563231720522e-15 1.0 -2.7813926590981706e-15
  outer loop
    vertex -12.967871973459319 72.81444620422147 8.150000000000018
    vertex -15.217871973459317 72.8144462042215 7.550000000000009
    vertex -17.467871973459317 72.81444620422148 8.150000000000018
  endloop
endfacet
facet normal 1.1279865930191589e-15 1.0 -1.7904549095542242e-15
  outer loop
    vertex -17.467871973459317 72.81444620422148 11.300000000000013
    vertex -12.967871973459319 72.81444620422147 8.150000000000018
    vertex -17.467871973459317 72.81444620422148 8.150000000000018
  endloop
endfacet
facet normal 1.1279865930191589e-15 1.0 -1.7904549095542242e-15
  outer loop
    vertex -12.967871973459319 72.81444620422147 8.150000000000018
    vertex -17.467871973459317 72.81444620422148 11.300000000000013
    vertex -12.967871973459319 72.81444620422148 11.300000000000013
  endloop
endfacet
facet normal -1.0 3.5521092763351065e-17 9.371140548158079e-17
  outer loop
    vertex -17.46787197345932 17.81444620422151 11.300000000000013
    vertex -17.46787197345932 12.814446204221515 8.149999999999595
    vertex -17.46787197345932 12.814446204221515 11.300000000000036
  endloop
endfacet
facet normal -1.0 3.5521092763351065e-17 9.371140548158079e-17
  outer loop
    vertex -17.46787197345932 12.814446204221515 8.149999999999595
    vertex -17.46787197345932 17.81444620422151 11.300000000000013
    vertex -17.46787197345932 12.814446204221515 3.15
  endloop
endfacet
facet normal -1.0 3.5521092763351065e-17 9.371140548158079e-17
  outer loop
    vertex -17.46787197345932 12.814446204221515 3.15
    vertex -17.46787197345932 17.81444620422151 11.300000000000013
    vertex -17.46787197345932 17.814446204221515 3.15
  endloop
endfacet
facet normal -1.0 3.5521092763351065e-17 9.371140548158079e-17
  outer loop
    vertex -17.46787197345932 17.814446204221515 3.15
    vertex -17.46787197345932 17.81444620422151 11.300000000000013
    vertex -17.467871973459317 17.814446204221525 8.150000000000018
  endloop
endfacet
facet normal -1.0 3.5521092763351065e-17 9.371140548158079e-17
  outer loop
    vertex -17.467871973459317 17.814446204221525 8.150000000000018
    vertex -17.46787197345932 17.81444620422151 11.300000000000013
    vertex -17.467871973459317 61.814446204221504 11.300000000000013
  endloop
endfacet
facet normal -1.0 3.5521092763351065e-17 9.371140548158079e-17
  outer loop
    vertex -17.467871973459317 17.814446204221525 8.150000000000018
    vertex -17.467871973459317 61.814446204221504 11.300000000000013
    vertex -17.467871973459317 67.81444620422151 8.150000000000018
  endloop
endfacet
facet normal -1.0 3.5521092763351065e-17 9.371140548158079e-17
  outer loop
    vertex -17.467871973459317 67.81444620422151 8.150000000000018
    vertex -17.467871973459317 61.814446204221504 11.300000000000013
    vertex -17.467871973459317 66.8144462042215 11.300000000000013
  endloop
endfacet
facet normal -1.0 3.5521092763351065e-17 9.371140548158079e-17
  outer loop
    vertex -17.467871973459317 67.81444620422151 8.150000000000018
    vertex -17.467871973459317 66.8144462042215 11.300000000000013
    vertex -17.467871973459317 72.81444620422148 11.300000000000013
  endloop
endfacet
facet normal -1.0 3.5521092763351065e-17 9.371140548158079e-17
  outer loop
    vertex -17.467871973459317 67.81444620422151 8.150000000000018
    vertex -17.467871973459317 72.81444620422148 11.300000000000013
    vertex -17.46787197345932 67.81444620422151 3.149999999999994
  endloop
endfacet
facet normal -1.0 3.5521092763351065e-17 9.371140548158079e-17
  outer loop
    vertex -17.46787197345932 67.81444620422151 3.149999999999994
    vertex -17.467871973459317 72.81444620422148 11.300000000000013
    vertex -17.46787197345932 72.81444620422147 3.149999999999994
  endloop
endfacet
facet normal -1.0 3.5521092763351065e-17 9.371140548158079e-17
  outer loop
    vertex -17.46787197345932 72.81444620422147 3.149999999999994
    vertex -17.467871973459317 72.81444620422148 11.300000000000013
    vertex -17.467871973459317 72.81444620422148 8.150000000000018
  endloop
endfacet
facet normal 0.0 -1.0 0.0
  outer loop
    vertex -12.967871973459324 12.814446204221515 11.300000000000036
    vertex -17.46787197345932 12.814446204221515 8.149999999999595
    vertex -12.967871973459587 12.814446204221515 8.149999999999595
  endloop
endfacet
facet normal 0.0 -1.0 0.0
  outer loop
    vertex -17.46787197345932 12.814446204221515 8.149999999999595
    vertex -12.967871973459324 12.814446204221515 11.300000000000036
    vertex -17.46787197345932 12.814446204221515 11.300000000000036
  endloop
endfacet
facet normal -0.49999999999999717 6.552758297666184e-15 0.8660254037844403
  outer loop
    vertex -15.217871973459307 67.81444620422154 3.7500000000000497
    vertex -13.572423706268895 72.81444620422147 4.700000000000003
    vertex -15.21787197345933 72.81444620422147 3.7500000000000044
  endloop
endfacet
facet normal -0.49999999999999717 6.552758297666184e-15 0.8660254037844403
  outer loop
    vertex -13.572423706268895 72.81444620422147 4.700000000000003
    vertex -15.217871973459307 67.81444620422154 3.7500000000000497
    vertex -13.572423706268872 67.81444620422154 4.700000000000042
  endloop
endfacet
facet normal 0.5000000000000029 3.730031646363826e-15 0.8660254037844369
  outer loop
    vertex -16.86332024064974 67.81444620422157 4.7000000000000535
    vertex -15.21787197345933 72.81444620422147 3.7500000000000044
    vertex -16.86332024064976 72.81444620422148 4.700000000000014
  endloop
endfacet
facet normal 0.5000000000000029 3.730031646363826e-15 0.8660254037844369
  outer loop
    vertex -15.21787197345933 72.81444620422147 3.7500000000000044
    vertex -16.86332024064974 67.81444620422157 4.7000000000000535
    vertex -15.217871973459307 67.81444620422154 3.7500000000000497
  endloop
endfacet
facet normal 1.0 -2.8227266513023555e-15 -2.9683857711030686e-15
  outer loop
    vertex -16.86332024064976 72.81444620422148 4.700000000000014
    vertex -16.863320240649735 67.81444620422157 5.650000000000046
    vertex -16.86332024064974 67.81444620422157 4.7000000000000535
  endloop
endfacet
facet normal 1.0 -2.8227266513023555e-15 -2.9683857711030686e-15
  outer loop
    vertex -16.863320240649735 67.81444620422157 5.650000000000046
    vertex -16.86332024064976 72.81444620422148 4.700000000000014
    vertex -16.863320240649756 72.81444620422148 5.650000000000007
  endloop
endfacet
facet normal 1.0 -2.822726651302356e-15 -2.968385771103e-15
  outer loop
    vertex -16.863320240649756 72.81444620422148 5.650000000000007
    vertex -16.86332024064973 67.81444620422157 6.600000000000033
    vertex -16.863320240649735 67.81444620422157 5.650000000000046
  endloop
endfacet
facet normal 1.0 -2.822726651302356e-15 -2.968385771103e-15
  outer loop
    vertex -16.86332024064973 67.81444620422157 6.600000000000033
    vertex -16.863320240649756 72.81444620422148 5.650000000000007
    vertex -16.863320240649752 72.8144462042215 6.60000000000001
  endloop
endfacet
facet normal 0.49999999999999717 -6.552758297666184e-15 -0.8660254037844403
  outer loop
    vertex -15.217871973459317 72.8144462042215 7.550000000000009
    vertex -16.86332024064973 67.81444620422157 6.600000000000033
    vertex -16.863320240649752 72.8144462042215 6.60000000000001
  endloop
endfacet
facet normal 0.49999999999999717 -6.552758297666184e-15 -0.8660254037844403
  outer loop
    vertex -16.86332024064973 67.81444620422157 6.600000000000033
    vertex -15.217871973459317 72.8144462042215 7.550000000000009
    vertex -15.217871973459296 67.81444620422157 7.550000000000026
  endloop
endfacet
facet normal -0.5000000000000034 -3.730031646363823e-15 -0.8660254037844366
  outer loop
    vertex -13.572423706268887 72.81444620422148 6.599999999999999
    vertex -15.217871973459296 67.81444620422157 7.550000000000026
    vertex -15.217871973459317 72.8144462042215 7.550000000000009
  endloop
endfacet
facet normal -0.5000000000000034 -3.730031646363823e-15 -0.8660254037844366
  outer loop
    vertex -15.217871973459296 67.81444620422157 7.550000000000026
    vertex -13.572423706268887 72.81444620422148 6.599999999999999
    vertex -13.572423706268866 67.81444620422157 6.6000000000000165
  endloop
endfacet
facet normal -1.0 2.822726651302356e-15 2.9683857711030363e-15
  outer loop
    vertex -13.572423706268866 67.81444620422157 6.6000000000000165
    vertex -13.572423706268895 72.81444620422147 4.700000000000003
    vertex -13.572423706268872 67.81444620422154 4.700000000000042
  endloop
endfacet
facet normal -1.0 2.822726651302356e-15 2.9683857711030363e-15
  outer loop
    vertex -13.572423706268895 72.81444620422147 4.700000000000003
    vertex -13.572423706268866 67.81444620422157 6.6000000000000165
    vertex -13.572423706268887 72.81444620422148 6.599999999999999
  endloop
endfacet
facet normal 0.0 -1.0 0.0
  outer loop
    vertex -12.967871973459324 12.814446204221515 3.15
    vertex -15.217871973459221 12.814446204221515 3.7499999999998015
    vertex -17.46787197345932 12.814446204221515 3.15
  endloop
endfacet
facet normal 0.0 -1.0 0.0
  outer loop
    vertex -15.217871973459221 12.814446204221515 3.7499999999998015
    vertex -12.967871973459324 12.814446204221515 3.15
    vertex -13.57242370626884 12.814446204221515 4.69999999999989
  endloop
endfacet
facet normal 0.0 -1.0 0.0
  outer loop
    vertex -13.57242370626884 12.814446204221515 4.69999999999989
    vertex -12.967871973459324 12.814446204221515 3.15
    vertex -12.967871973459587 12.814446204221515 8.149999999999595
  endloop
endfacet
facet normal 0.0 -1.0 0.0
  outer loop
    vertex -13.57242370626884 12.814446204221515 4.69999999999989
    vertex -12.967871973459587 12.814446204221515 8.149999999999595
    vertex -13.572423706268891 12.814446204221515 5.649999999999798
  endloop
endfacet
facet normal 0.0 -1.0 0.0
  outer loop
    vertex -13.572423706268891 12.814446204221515 5.649999999999798
    vertex -12.967871973459587 12.814446204221515 8.149999999999595
    vertex -13.572423706268943 12.814446204221515 6.599999999999886
  endloop
endfacet
facet normal 0.0 -1.0 0.0
  outer loop
    vertex -13.572423706268943 12.814446204221515 6.599999999999886
    vertex -12.967871973459587 12.814446204221515 8.149999999999595
    vertex -15.217871973459426 12.814446204221515 7.5499999999998
  endloop
endfacet
facet normal 0.0 -1.0 0.0
  outer loop
    vertex -17.46787197345932 12.814446204221515 3.15
    vertex -16.863320240649706 12.814446204221515 4.69999999999971
    vertex -17.46787197345932 12.814446204221515 8.149999999999595
  endloop
endfacet
facet normal 0.0 -1.0 0.0
  outer loop
    vertex -16.863320240649706 12.814446204221515 4.69999999999971
    vertex -17.46787197345932 12.814446204221515 3.15
    vertex -15.217871973459221 12.814446204221515 3.7499999999998015
  endloop
endfacet
facet normal 0.0 -1.0 0.0
  outer loop
    vertex -17.46787197345932 12.814446204221515 8.149999999999595
    vertex -16.863320240649706 12.814446204221515 4.69999999999971
    vertex -16.86332024064981 12.814446204221515 6.599999999999706
  endloop
endfacet
facet normal 0.0 -1.0 0.0
  outer loop
    vertex -17.46787197345932 12.814446204221515 8.149999999999595
    vertex -16.86332024064981 12.814446204221515 6.599999999999706
    vertex -15.217871973459426 12.814446204221515 7.5499999999998
  endloop
endfacet
facet normal 0.0 -1.0 0.0
  outer loop
    vertex -17.46787197345932 12.814446204221515 8.149999999999595
    vertex -15.217871973459426 12.814446204221515 7.5499999999998
    vertex -12.967871973459587 12.814446204221515 8.149999999999595
  endloop
endfacet
facet normal -1.0 -0.0 -5.343094387985987e-14
  outer loop
    vertex -13.572423706268891 17.814446204221493 5.649999999999798
    vertex -13.57242370626884 12.814446204221515 4.69999999999989
    vertex -13.572423706268891 12.814446204221515 5.649999999999798
  endloop
endfacet
facet normal -1.0 -0.0 -5.343094387985987e-14
  outer loop
    vertex -13.57242370626884 12.814446204221515 4.69999999999989
    vertex -13.572423706268891 17.814446204221493 5.649999999999798
    vertex -13.57242370626884 17.814446204221493 4.69999999999989
  endloop
endfacet
facet normal -1.0 -0.0 -5.343094387984996e-14
  outer loop
    vertex -13.572423706268943 17.814446204221493 6.599999999999886
    vertex -13.572423706268891 12.814446204221515 5.649999999999798
    vertex -13.572423706268943 12.814446204221515 6.599999999999886
  endloop
endfacet
facet normal -1.0 -0.0 -5.343094387984996e-14
  outer loop
    vertex -13.572423706268891 12.814446204221515 5.649999999999798
    vertex -13.572423706268943 17.814446204221493 6.599999999999886
    vertex -13.572423706268891 17.814446204221493 5.649999999999798
  endloop
endfacet
facet normal -0.499999999999954 -0.0 -0.8660254037844652
  outer loop
    vertex -13.572423706268943 17.814446204221493 6.599999999999886
    vertex -15.217871973459426 12.814446204221515 7.5499999999998
    vertex -15.217871973459426 17.814446204221493 7.5499999999998
  endloop
endfacet
facet normal -0.499999999999954 -0.0 -0.8660254037844652
  outer loop
    vertex -15.217871973459426 12.814446204221515 7.5499999999998
    vertex -13.572423706268943 17.814446204221493 6.599999999999886
    vertex -13.572423706268943 12.814446204221515 6.599999999999886
  endloop
endfacet
facet normal 0.5000000000000465 0.0 -0.8660254037844117
  outer loop
    vertex -15.217871973459426 17.814446204221493 7.5499999999998
    vertex -16.86332024064981 12.814446204221515 6.599999999999706
    vertex -16.86332024064981 17.814446204221493 6.599999999999706
  endloop
endfacet
facet normal 0.5000000000000465 0.0 -0.8660254037844117
  outer loop
    vertex -16.86332024064981 12.814446204221515 6.599999999999706
    vertex -15.217871973459426 17.814446204221493 7.5499999999998
    vertex -15.217871973459426 12.814446204221515 7.5499999999998
  endloop
endfacet
facet normal 1.0 0.0 5.491513676540644e-14
  outer loop
    vertex -16.863320240649706 17.814446204221493 4.69999999999971
    vertex -16.86332024064981 12.814446204221515 6.599999999999706
    vertex -16.863320240649706 12.814446204221515 4.69999999999971
  endloop
endfacet
facet normal 1.0 0.0 5.491513676540644e-14
  outer loop
    vertex -16.86332024064981 12.814446204221515 6.599999999999706
    vertex -16.863320240649706 17.814446204221493 4.69999999999971
    vertex -16.86332024064981 17.814446204221493 6.599999999999706
  endloop
endfacet
facet normal 0.4999999999999534 0.0 0.8660254037844656
  outer loop
    vertex -15.217871973459221 12.814446204221515 3.7499999999998015
    vertex -16.863320240649706 17.814446204221493 4.69999999999971
    vertex -16.863320240649706 12.814446204221515 4.69999999999971
  endloop
endfacet
facet normal 0.4999999999999534 0.0 0.8660254037844656
  outer loop
    vertex -16.863320240649706 17.814446204221493 4.69999999999971
    vertex -15.217871973459221 12.814446204221515 3.7499999999998015
    vertex -15.217871973459221 17.814446204221493 3.7499999999998015
  endloop
endfacet
facet normal -0.5000000000000466 0.0 0.8660254037844117
  outer loop
    vertex -13.57242370626884 12.814446204221515 4.69999999999989
    vertex -15.217871973459221 17.814446204221493 3.7499999999998015
    vertex -15.217871973459221 12.814446204221515 3.7499999999998015
  endloop
endfacet
facet normal -0.5000000000000466 0.0 0.8660254037844117
  outer loop
    vertex -15.217871973459221 17.814446204221493 3.7499999999998015
    vertex -13.57242370626884 12.814446204221515 4.69999999999989
    vertex -13.57242370626884 17.814446204221493 4.69999999999989
  endloop
endfacet
endsolid remote_shutter
