solid boardspacer
facet normal 1.0 -2.2204460492503126e-16 1.4365662421806637e-15
  outer loop
    vertex -277.606012943885 33.08211756960653 4.481495457622362
    vertex -277.606012943885 30.082117569606535 2.518504542377636
    vertex -277.606012943885 33.08211756960653 2.518504542377636
  endloop
endfacet
facet normal 1.0 -2.2204460492503126e-16 1.4365662421806637e-15
  outer loop
    vertex -277.606012943885 30.082117569606535 2.518504542377636
    vertex -277.606012943885 33.08211756960653 4.481495457622362
    vertex -277.606012943885 30.082117569606535 4.481495457622362
  endloop
endfacet
facet normal -0.4999999999999982 1.1102230246251523e-16 0.8660254037844397
  outer loop
    vertex -112.606012943885 30.082117569606496 1.537009084755279
    vertex -110.906012943885 33.082117569606496 2.518504542377636
    vertex -112.606012943885 33.082117569606496 1.537009084755279
  endloop
endfacet
facet normal -0.4999999999999982 1.1102230246251523e-16 0.8660254037844397
  outer loop
    vertex -110.906012943885 33.082117569606496 2.518504542377636
    vertex -112.606012943885 30.082117569606496 1.537009084755279
    vertex -110.906012943885 30.082117569606496 2.518504542377636
  endloop
endfacet
facet normal 0.5000000000000026 -1.110223024625162e-16 0.8660254037844374
  outer loop
    vertex -114.306012943885 30.0821175696065 2.5185045423776478
    vertex -112.606012943885 33.082117569606496 1.537009084755279
    vertex -114.306012943885 33.08211756960651 2.5185045423776478
  endloop
endfacet
facet normal 0.5000000000000026 -1.110223024625162e-16 0.8660254037844374
  outer loop
    vertex -112.606012943885 33.082117569606496 1.537009084755279
    vertex -114.306012943885 30.0821175696065 2.5185045423776478
    vertex -112.606012943885 30.082117569606496 1.537009084755279
  endloop
endfacet
facet normal 1.0 -2.2204460492503126e-16 0.0
  outer loop
    vertex -114.306012943885 33.08211756960651 4.481495457622374
    vertex -114.306012943885 30.0821175696065 2.5185045423776478
    vertex -114.306012943885 33.08211756960651 2.5185045423776478
  endloop
endfacet
facet normal 1.0 -2.2204460492503126e-16 0.0
  outer loop
    vertex -114.306012943885 30.0821175696065 2.5185045423776478
    vertex -114.306012943885 33.08211756960651 4.481495457622374
    vertex -114.306012943885 30.0821175696065 4.481495457622374
  endloop
endfacet
facet normal -0.5000000000000012 1.110223024625159e-16 0.8660254037844379
  outer loop
    vertex -272.506012943885 30.08211756960654 1.537009084755279
    vertex -270.806012943885 33.08211756960654 2.5185045423776478
    vertex -272.506012943885 33.08211756960654 1.537009084755279
  endloop
endfacet
facet normal -0.5000000000000012 1.110223024625159e-16 0.8660254037844379
  outer loop
    vertex -270.806012943885 33.08211756960654 2.5185045423776478
    vertex -272.506012943885 30.08211756960654 1.537009084755279
    vertex -270.806012943885 30.08211756960654 2.5185045423776478
  endloop
endfacet
facet normal 0.0 0.0 1.0
  outer loop
    vertex -275.906012943885 33.08211756960653 1.537009084755279
    vertex -272.506012943885 30.08211756960654 1.537009084755279
    vertex -272.506012943885 33.08211756960654 1.537009084755279
  endloop
endfacet
facet normal 0.0 0.0 1.0
  outer loop
    vertex -272.506012943885 30.08211756960654 1.537009084755279
    vertex -275.906012943885 33.08211756960653 1.537009084755279
    vertex -275.906012943885 30.082117569606535 1.537009084755279
  endloop
endfacet
facet normal -0.49999999999999695 1.1102230246251495e-16 -0.8660254037844405
  outer loop
    vertex -270.80601294388504 30.08211756960654 4.481495457622374
    vertex -272.506012943885 33.08211756960654 5.46299091524473
    vertex -270.80601294388504 33.08211756960654 4.481495457622374
  endloop
endfacet
facet normal -0.49999999999999695 1.1102230246251495e-16 -0.8660254037844405
  outer loop
    vertex -272.506012943885 33.08211756960654 5.46299091524473
    vertex -270.80601294388504 30.08211756960654 4.481495457622374
    vertex -272.506012943885 30.08211756960654 5.46299091524473
  endloop
endfacet
facet normal 0.49999999999999695 -1.1102230246251495e-16 0.8660254037844405
  outer loop
    vertex -277.606012943885 30.082117569606535 2.518504542377636
    vertex -275.906012943885 33.08211756960653 1.537009084755279
    vertex -277.606012943885 33.08211756960653 2.518504542377636
  endloop
endfacet
facet normal 0.49999999999999695 -1.1102230246251495e-16 0.8660254037844405
  outer loop
    vertex -275.906012943885 33.08211756960653 1.537009084755279
    vertex -277.606012943885 30.082117569606535 2.518504542377636
    vertex -275.906012943885 30.082117569606535 1.537009084755279
  endloop
endfacet
facet normal -1.0 2.2204460492503126e-16 -2.8731324843613273e-15
  outer loop
    vertex -270.80601294388504 30.08211756960654 4.481495457622374
    vertex -270.806012943885 33.08211756960654 2.5185045423776478
    vertex -270.806012943885 30.08211756960654 2.5185045423776478
  endloop
endfacet
facet normal -1.0 2.2204460492503126e-16 -2.8731324843613273e-15
  outer loop
    vertex -270.806012943885 33.08211756960654 2.5185045423776478
    vertex -270.80601294388504 30.08211756960654 4.481495457622374
    vertex -270.80601294388504 33.08211756960654 4.481495457622374
  endloop
endfacet
facet normal -1.0 2.2204460492503126e-16 0.0
  outer loop
    vertex -110.906012943885 30.082117569606496 3.500000000000005
    vertex -110.906012943885 33.082117569606496 2.518504542377636
    vertex -110.906012943885 30.082117569606496 2.518504542377636
  endloop
endfacet
facet normal -1.0 2.2204460492503126e-16 0.0
  outer loop
    vertex -110.906012943885 33.082117569606496 2.518504542377636
    vertex -110.906012943885 30.082117569606496 3.500000000000005
    vertex -110.906012943885 33.082117569606496 3.500000000000005
  endloop
endfacet
facet normal -1.0 2.2204460492503126e-16 0.0
  outer loop
    vertex -110.906012943885 33.082117569606496 3.500000000000005
    vertex -110.906012943885 30.082117569606496 3.500000000000005
    vertex -110.906012943885 30.082117569606496 4.500000000000003
  endloop
endfacet
facet normal -1.0 2.2204460492503126e-16 0.0
  outer loop
    vertex -110.906012943885 33.082117569606496 3.500000000000005
    vertex -110.906012943885 30.082117569606496 4.500000000000003
    vertex -110.906012943885 33.082117569606496 4.500000000000003
  endloop
endfacet
facet normal 0.0 -0.0 -1.0
  outer loop
    vertex -272.506012943885 30.08211756960654 5.46299091524473
    vertex -275.906012943885 33.08211756960653 5.46299091524473
    vertex -272.506012943885 33.08211756960654 5.46299091524473
  endloop
endfacet
facet normal 0.0 -0.0 -1.0
  outer loop
    vertex -275.906012943885 33.08211756960653 5.46299091524473
    vertex -272.506012943885 30.08211756960654 5.46299091524473
    vertex -275.906012943885 30.082117569606535 5.46299091524473
  endloop
endfacet
facet normal 0.5000000000000019 -1.1102230246251605e-16 -0.8660254037844376
  outer loop
    vertex -275.906012943885 30.082117569606535 5.46299091524473
    vertex -277.606012943885 33.08211756960653 4.481495457622362
    vertex -275.906012943885 33.08211756960653 5.46299091524473
  endloop
endfacet
facet normal 0.5000000000000019 -1.1102230246251605e-16 -0.8660254037844376
  outer loop
    vertex -277.606012943885 33.08211756960653 4.481495457622362
    vertex -275.906012943885 30.082117569606535 5.46299091524473
    vertex -277.606012943885 30.082117569606535 4.481495457622362
  endloop
endfacet
facet normal 0.0 0.0 -1.0
  outer loop
    vertex -161.906012943885 42.08211756960652 0.0
    vertex -163.70601294388499 38.563613027228875 -2.8199664825478975e-15
    vertex -168.90601294388497 42.08211756960651 0.0
  endloop
endfacet
facet normal 0.0 0.0 -1.0
  outer loop
    vertex -163.70601294388499 38.563613027228875 -2.8199664825478975e-15
    vertex -161.906012943885 42.08211756960652 0.0
    vertex -161.906012943885 33.08211756960651 0.0
  endloop
endfacet
facet normal 0.0 0.0 -1.0
  outer loop
    vertex -168.90601294388497 42.08211756960651 0.0
    vertex -163.70601294388499 38.563613027228875 -2.8199664825478975e-15
    vertex -165.406012943885 39.54510848485123 -2.8199664825478975e-15
  endloop
endfacet
facet normal 0.0 0.0 -1.0
  outer loop
    vertex -163.70601294388499 38.563613027228875 -2.8199664825478975e-15
    vertex -161.906012943885 33.08211756960651 0.0
    vertex -163.70601294388499 36.600622111984144 -2.8199664825478975e-15
  endloop
endfacet
facet normal 0.0 0.0 -1.0
  outer loop
    vertex -163.70601294388499 36.600622111984144 -2.8199664825478975e-15
    vertex -161.906012943885 33.08211756960651 0.0
    vertex -165.406012943885 35.61912665436178 -2.8199664825478975e-15
  endloop
endfacet
facet normal 0.0 0.0 -1.0
  outer loop
    vertex -217.90601294388497 42.08211756960652 0.0
    vertex -219.70601294388496 38.5636130272289 2.8199664825478975e-15
    vertex -221.40601294388497 39.54510848485127 2.8199664825478975e-15
  endloop
endfacet
facet normal 0.0 0.0 -1.0
  outer loop
    vertex -219.70601294388496 38.5636130272289 2.8199664825478975e-15
    vertex -217.90601294388497 42.08211756960652 0.0
    vertex -217.90601294388497 33.082117569606524 0.0
  endloop
endfacet
facet normal 0.0 0.0 -1.0
  outer loop
    vertex -219.70601294388496 38.5636130272289 2.8199664825478975e-15
    vertex -217.90601294388497 33.082117569606524 0.0
    vertex -219.70601294388496 36.600622111984144 2.8199664825478975e-15
  endloop
endfacet
facet normal 0.0 0.0 -1.0
  outer loop
    vertex -219.70601294388496 36.600622111984144 2.8199664825478975e-15
    vertex -217.90601294388497 33.082117569606524 0.0
    vertex -221.40601294388497 35.61912665436177 2.8199664825478975e-15
  endloop
endfacet
facet normal 0.0 0.0 -1.0
  outer loop
    vertex -168.90601294388497 42.08211756960651 0.0
    vertex -167.106012943885 38.56361302722887 -2.8199664825478975e-15
    vertex -168.90601294388497 33.08211756960651 0.0
  endloop
endfacet
facet normal 0.0 0.0 -1.0
  outer loop
    vertex -167.106012943885 38.56361302722887 -2.8199664825478975e-15
    vertex -168.90601294388497 42.08211756960651 0.0
    vertex -165.406012943885 39.54510848485123 -2.8199664825478975e-15
  endloop
endfacet
facet normal 0.0 0.0 -1.0
  outer loop
    vertex -168.90601294388497 33.08211756960651 0.0
    vertex -167.106012943885 38.56361302722887 -2.8199664825478975e-15
    vertex -167.106012943885 36.600622111984144 -2.8199664825478975e-15
  endloop
endfacet
facet normal 0.0 0.0 -1.0
  outer loop
    vertex -168.90601294388497 33.08211756960651 0.0
    vertex -167.106012943885 36.600622111984144 -2.8199664825478975e-15
    vertex -165.406012943885 35.61912665436178 -2.8199664825478975e-15
  endloop
endfacet
facet normal 0.0 0.0 -1.0
  outer loop
    vertex -168.90601294388497 33.08211756960651 0.0
    vertex -165.406012943885 35.61912665436178 -2.8199664825478975e-15
    vertex -161.906012943885 33.08211756960651 0.0
  endloop
endfacet
facet normal 0.0 0.0 -1.0
  outer loop
    vertex -168.90601294388497 33.08211756960651 0.0
    vertex -161.906012943885 33.08211756960651 0.0
    vertex -109.906012943885 33.082117569606496 0.0
  endloop
endfacet
facet normal 0.0 0.0 -1.0
  outer loop
    vertex -168.90601294388497 33.08211756960651 0.0
    vertex -109.906012943885 33.082117569606496 0.0
    vertex -109.906012943885 30.082117569606496 0.0
  endloop
endfacet
facet normal 0.0 0.0 -1.0
  outer loop
    vertex -168.90601294388497 33.08211756960651 0.0
    vertex -109.906012943885 30.082117569606496 0.0
    vertex -217.90601294388497 33.082117569606524 0.0
  endloop
endfacet
facet normal 0.0 0.0 -1.0
  outer loop
    vertex -217.90601294388497 33.082117569606524 0.0
    vertex -109.906012943885 30.082117569606496 0.0
    vertex -224.906012943885 33.082117569606524 0.0
  endloop
endfacet
facet normal 0.0 0.0 -1.0
  outer loop
    vertex -224.906012943885 33.082117569606524 0.0
    vertex -109.906012943885 30.082117569606496 0.0
    vertex -278.606012943885 33.08211756960653 0.0
  endloop
endfacet
facet normal 0.0 0.0 -1.0
  outer loop
    vertex -278.606012943885 33.08211756960653 0.0
    vertex -109.906012943885 30.082117569606496 0.0
    vertex -278.606012943885 30.082117569606535 0.0
  endloop
endfacet
facet normal 0.0 0.0 -1.0
  outer loop
    vertex -224.906012943885 42.082117569606524 0.0
    vertex -223.106012943885 38.5636130272289 2.8199664825478975e-15
    vertex -224.906012943885 33.082117569606524 0.0
  endloop
endfacet
facet normal 0.0 0.0 -1.0
  outer loop
    vertex -223.106012943885 38.5636130272289 2.8199664825478975e-15
    vertex -224.906012943885 42.082117569606524 0.0
    vertex -217.90601294388497 42.08211756960652 0.0
  endloop
endfacet
facet normal 0.0 0.0 -1.0
  outer loop
    vertex -223.106012943885 38.5636130272289 2.8199664825478975e-15
    vertex -217.90601294388497 42.08211756960652 0.0
    vertex -221.40601294388497 39.54510848485127 2.8199664825478975e-15
  endloop
endfacet
facet normal 0.0 0.0 -1.0
  outer loop
    vertex -224.906012943885 33.082117569606524 0.0
    vertex -223.106012943885 38.5636130272289 2.8199664825478975e-15
    vertex -223.106012943885 36.600622111984144 2.8199664825478975e-15
  endloop
endfacet
facet normal 0.0 0.0 -1.0
  outer loop
    vertex -224.906012943885 33.082117569606524 0.0
    vertex -223.106012943885 36.600622111984144 2.8199664825478975e-15
    vertex -221.40601294388497 35.61912665436177 2.8199664825478975e-15
  endloop
endfacet
facet normal 0.0 0.0 -1.0
  outer loop
    vertex -224.906012943885 33.082117569606524 0.0
    vertex -221.40601294388497 35.61912665436177 2.8199664825478975e-15
    vertex -217.90601294388497 33.082117569606524 0.0
  endloop
endfacet
facet normal 1.0 -2.2204460492503126e-16 0.0
  outer loop
    vertex -109.906012943885 33.082117569606496 7.00000000000001
    vertex -109.906012943885 30.082117569606496 0.0
    vertex -109.906012943885 33.082117569606496 0.0
  endloop
endfacet
facet normal 1.0 -2.2204460492503126e-16 0.0
  outer loop
    vertex -109.906012943885 30.082117569606496 0.0
    vertex -109.906012943885 33.082117569606496 7.00000000000001
    vertex -109.906012943885 30.082117569606496 7.00000000000001
  endloop
endfacet
facet normal 0.0 0.0 1.0
  outer loop
    vertex -276.90601294388506 30.082117569606535 7.00000000000001
    vertex -109.906012943885 33.082117569606496 7.00000000000001
    vertex -276.906012943885 33.08211756960653 7.00000000000001
  endloop
endfacet
facet normal 0.0 0.0 1.0
  outer loop
    vertex -109.906012943885 33.082117569606496 7.00000000000001
    vertex -276.90601294388506 30.082117569606535 7.00000000000001
    vertex -109.906012943885 30.082117569606496 7.00000000000001
  endloop
endfacet
facet normal -2.2204460492503126e-16 -1.0 0.0
  outer loop
    vertex -278.606012943885 30.082117569606535 0.0
    vertex -277.606012943885 30.082117569606535 2.518504542377636
    vertex -278.606012943885 30.082117569606535 7.00000000000001
  endloop
endfacet
facet normal -2.2204460492503126e-16 -1.0 0.0
  outer loop
    vertex -277.606012943885 30.082117569606535 2.518504542377636
    vertex -278.606012943885 30.082117569606535 0.0
    vertex -275.906012943885 30.082117569606535 1.537009084755279
  endloop
endfacet
facet normal -2.2204460492503126e-16 -1.0 0.0
  outer loop
    vertex -275.906012943885 30.082117569606535 1.537009084755279
    vertex -278.606012943885 30.082117569606535 0.0
    vertex -109.906012943885 30.082117569606496 0.0
  endloop
endfacet
facet normal -2.2204460492503126e-16 -1.0 0.0
  outer loop
    vertex -275.906012943885 30.082117569606535 1.537009084755279
    vertex -109.906012943885 30.082117569606496 0.0
    vertex -272.506012943885 30.08211756960654 1.537009084755279
  endloop
endfacet
facet normal -2.2204460492503126e-16 -1.0 0.0
  outer loop
    vertex -272.506012943885 30.08211756960654 1.537009084755279
    vertex -109.906012943885 30.082117569606496 0.0
    vertex -270.806012943885 30.08211756960654 2.5185045423776478
  endloop
endfacet
facet normal -2.2204460492503126e-16 -1.0 0.0
  outer loop
    vertex -270.806012943885 30.08211756960654 2.5185045423776478
    vertex -109.906012943885 30.082117569606496 0.0
    vertex -112.606012943885 30.082117569606496 1.537009084755279
  endloop
endfacet
facet normal -2.2204460492503126e-16 -1.0 0.0
  outer loop
    vertex -270.806012943885 30.08211756960654 2.5185045423776478
    vertex -112.606012943885 30.082117569606496 1.537009084755279
    vertex -114.306012943885 30.0821175696065 2.5185045423776478
  endloop
endfacet
facet normal -2.2204460492503126e-16 -1.0 0.0
  outer loop
    vertex -112.606012943885 30.082117569606496 1.537009084755279
    vertex -109.906012943885 30.082117569606496 0.0
    vertex -110.906012943885 30.082117569606496 2.518504542377636
  endloop
endfacet
facet normal -2.2204460492503126e-16 -1.0 0.0
  outer loop
    vertex -110.906012943885 30.082117569606496 2.518504542377636
    vertex -109.906012943885 30.082117569606496 0.0
    vertex -110.906012943885 30.082117569606496 3.500000000000005
  endloop
endfacet
facet normal -2.2204460492503126e-16 -1.0 0.0
  outer loop
    vertex -110.906012943885 30.082117569606496 3.500000000000005
    vertex -109.906012943885 30.082117569606496 0.0
    vertex -110.906012943885 30.082117569606496 4.500000000000003
  endloop
endfacet
facet normal -2.2204460492503126e-16 -1.0 0.0
  outer loop
    vertex -278.606012943885 30.082117569606535 7.00000000000001
    vertex -277.606012943885 30.082117569606535 4.481495457622362
    vertex -276.90601294388506 30.082117569606535 7.00000000000001
  endloop
endfacet
facet normal -2.2204460492503126e-16 -1.0 0.0
  outer loop
    vertex -277.606012943885 30.082117569606535 4.481495457622362
    vertex -278.606012943885 30.082117569606535 7.00000000000001
    vertex -277.606012943885 30.082117569606535 2.518504542377636
  endloop
endfacet
facet normal -2.2204460492503126e-16 -1.0 0.0
  outer loop
    vertex -276.90601294388506 30.082117569606535 7.00000000000001
    vertex -277.606012943885 30.082117569606535 4.481495457622362
    vertex -275.906012943885 30.082117569606535 5.46299091524473
  endloop
endfacet
facet normal -2.2204460492503126e-16 -1.0 0.0
  outer loop
    vertex -276.90601294388506 30.082117569606535 7.00000000000001
    vertex -275.906012943885 30.082117569606535 5.46299091524473
    vertex -109.906012943885 30.082117569606496 7.00000000000001
  endloop
endfacet
facet normal -2.2204460492503126e-16 -1.0 0.0
  outer loop
    vertex -109.906012943885 30.082117569606496 7.00000000000001
    vertex -275.906012943885 30.082117569606535 5.46299091524473
    vertex -272.506012943885 30.08211756960654 5.46299091524473
  endloop
endfacet
facet normal -2.2204460492503126e-16 -1.0 0.0
  outer loop
    vertex -109.906012943885 30.082117569606496 7.00000000000001
    vertex -272.506012943885 30.08211756960654 5.46299091524473
    vertex -270.80601294388504 30.08211756960654 4.481495457622374
  endloop
endfacet
facet normal -2.2204460492503126e-16 -1.0 0.0
  outer loop
    vertex -109.906012943885 30.082117569606496 7.00000000000001
    vertex -270.80601294388504 30.08211756960654 4.481495457622374
    vertex -270.806012943885 30.08211756960654 2.5185045423776478
  endloop
endfacet
facet normal -2.2204460492503126e-16 -1.0 0.0
  outer loop
    vertex -109.906012943885 30.082117569606496 7.00000000000001
    vertex -270.806012943885 30.08211756960654 2.5185045423776478
    vertex -112.606012943885 30.082117569606496 5.46299091524473
  endloop
endfacet
facet normal -2.2204460492503126e-16 -1.0 0.0
  outer loop
    vertex -112.606012943885 30.082117569606496 5.46299091524473
    vertex -270.806012943885 30.08211756960654 2.5185045423776478
    vertex -114.306012943885 30.0821175696065 4.481495457622374
  endloop
endfacet
facet normal -2.2204460492503126e-16 -1.0 0.0
  outer loop
    vertex -114.306012943885 30.0821175696065 4.481495457622374
    vertex -270.806012943885 30.08211756960654 2.5185045423776478
    vertex -114.306012943885 30.0821175696065 2.5185045423776478
  endloop
endfacet
facet normal -2.2204460492503126e-16 -1.0 0.0
  outer loop
    vertex -109.906012943885 30.082117569606496 7.00000000000001
    vertex -112.606012943885 30.082117569606496 5.46299091524473
    vertex -110.906012943885 30.082117569606496 4.500000000000003
  endloop
endfacet
facet normal -2.2204460492503126e-16 -1.0 0.0
  outer loop
    vertex -109.906012943885 30.082117569606496 7.00000000000001
    vertex -110.906012943885 30.082117569606496 4.500000000000003
    vertex -109.906012943885 30.082117569606496 0.0
  endloop
endfacet
facet normal 0.0 0.0 1.0
  outer loop
    vertex -278.606012943885 30.082117569606535 7.00000000000001
    vertex -276.906012943885 33.08211756960653 7.00000000000001
    vertex -278.606012943885 33.08211756960653 7.00000000000001
  endloop
endfacet
facet normal 0.0 0.0 1.0
  outer loop
    vertex -276.906012943885 33.08211756960653 7.00000000000001
    vertex -278.606012943885 30.082117569606535 7.00000000000001
    vertex -276.90601294388506 30.082117569606535 7.00000000000001
  endloop
endfacet
facet normal -0.4928799073846396 1.094413243107083e-16 -0.8700973490917606
  outer loop
    vertex -110.906012943885 30.082117569606496 4.500000000000003
    vertex -112.606012943885 33.082117569606496 5.46299091524473
    vertex -110.906012943885 33.082117569606496 4.500000000000003
  endloop
endfacet
facet normal -0.4928799073846396 1.094413243107083e-16 -0.8700973490917606
  outer loop
    vertex -112.606012943885 33.082117569606496 5.46299091524473
    vertex -110.906012943885 30.082117569606496 4.500000000000003
    vertex -112.606012943885 30.082117569606496 5.46299091524473
  endloop
endfacet
facet normal 0.4999999999999982 -1.1102230246251523e-16 -0.8660254037844397
  outer loop
    vertex -112.606012943885 33.082117569606496 5.46299091524473
    vertex -114.306012943885 30.0821175696065 4.481495457622374
    vertex -114.306012943885 33.08211756960651 4.481495457622374
  endloop
endfacet
facet normal 0.4999999999999982 -1.1102230246251523e-16 -0.8660254037844397
  outer loop
    vertex -114.306012943885 30.0821175696065 4.481495457622374
    vertex -112.606012943885 33.082117569606496 5.46299091524473
    vertex -112.606012943885 30.082117569606496 5.46299091524473
  endloop
endfacet
facet normal -1.0 2.2204460492503126e-16 -1.2085570639490972e-15
  outer loop
    vertex -278.606012943885 30.082117569606535 7.00000000000001
    vertex -278.606012943885 33.08211756960653 0.0
    vertex -278.606012943885 30.082117569606535 0.0
  endloop
endfacet
facet normal -1.0 2.2204460492503126e-16 -1.2085570639490972e-15
  outer loop
    vertex -278.606012943885 33.08211756960653 0.0
    vertex -278.606012943885 30.082117569606535 7.00000000000001
    vertex -278.606012943885 33.08211756960653 7.00000000000001
  endloop
endfacet
facet normal 2.2712159048675335e-16 1.0 2.1755182594870668e-16
  outer loop
    vertex -278.606012943885 33.08211756960653 7.00000000000001
    vertex -277.606012943885 33.08211756960653 4.481495457622362
    vertex -278.606012943885 33.08211756960653 0.0
  endloop
endfacet
facet normal 2.2712159048675335e-16 1.0 2.1755182594870668e-16
  outer loop
    vertex -277.606012943885 33.08211756960653 4.481495457622362
    vertex -278.606012943885 33.08211756960653 7.00000000000001
    vertex -276.906012943885 33.08211756960653 7.00000000000001
  endloop
endfacet
facet normal 2.2712159048675335e-16 1.0 2.1755182594870668e-16
  outer loop
    vertex -277.606012943885 33.08211756960653 4.481495457622362
    vertex -276.906012943885 33.08211756960653 7.00000000000001
    vertex -275.906012943885 33.08211756960653 5.46299091524473
  endloop
endfacet
facet normal 2.2712159048675335e-16 1.0 2.1755182594870668e-16
  outer loop
    vertex -275.906012943885 33.08211756960653 5.46299091524473
    vertex -276.906012943885 33.08211756960653 7.00000000000001
    vertex -109.906012943885 33.082117569606496 7.00000000000001
  endloop
endfacet
facet normal 2.2712159048675335e-16 1.0 2.1755182594870668e-16
  outer loop
    vertex -275.906012943885 33.08211756960653 5.46299091524473
    vertex -109.906012943885 33.082117569606496 7.00000000000001
    vertex -272.506012943885 33.08211756960654 5.46299091524473
  endloop
endfacet
facet normal 2.2712159048675335e-16 1.0 2.1755182594870668e-16
  outer loop
    vertex -272.506012943885 33.08211756960654 5.46299091524473
    vertex -109.906012943885 33.082117569606496 7.00000000000001
    vertex -270.80601294388504 33.08211756960654 4.481495457622374
  endloop
endfacet
facet normal 2.2712159048675335e-16 1.0 2.1755182594870668e-16
  outer loop
    vertex -270.80601294388504 33.08211756960654 4.481495457622374
    vertex -109.906012943885 33.082117569606496 7.00000000000001
    vertex -270.806012943885 33.08211756960654 2.5185045423776478
  endloop
endfacet
facet normal 2.2712159048675335e-16 1.0 2.1755182594870668e-16
  outer loop
    vertex -270.806012943885 33.08211756960654 2.5185045423776478
    vertex -109.906012943885 33.082117569606496 7.00000000000001
    vertex -224.906012943885 33.082117569606524 2.0000000000000053
  endloop
endfacet
facet normal 2.2712159048675335e-16 1.0 2.1755182594870668e-16
  outer loop
    vertex -224.906012943885 33.082117569606524 2.0000000000000053
    vertex -109.906012943885 33.082117569606496 7.00000000000001
    vertex -217.90601294388497 33.082117569606524 2.0000000000000053
  endloop
endfacet
facet normal 2.2712159048675335e-16 1.0 2.1755182594870668e-16
  outer loop
    vertex -217.90601294388497 33.082117569606524 2.0000000000000053
    vertex -109.906012943885 33.082117569606496 7.00000000000001
    vertex -217.90601294388497 33.082117569606524 0.0
  endloop
endfacet
facet normal 2.2712159048675335e-16 1.0 2.1755182594870668e-16
  outer loop
    vertex -217.90601294388497 33.082117569606524 0.0
    vertex -109.906012943885 33.082117569606496 7.00000000000001
    vertex -168.90601294388497 33.08211756960651 2.0000000000000053
  endloop
endfacet
facet normal 2.2712159048675335e-16 1.0 2.1755182594870668e-16
  outer loop
    vertex -168.90601294388497 33.08211756960651 2.0000000000000053
    vertex -109.906012943885 33.082117569606496 7.00000000000001
    vertex -161.906012943885 33.08211756960651 2.0000000000000053
  endloop
endfacet
facet normal 2.2712159048675335e-16 1.0 2.1755182594870668e-16
  outer loop
    vertex -161.906012943885 33.08211756960651 2.0000000000000053
    vertex -109.906012943885 33.082117569606496 7.00000000000001
    vertex -161.906012943885 33.08211756960651 0.0
  endloop
endfacet
facet normal 2.2712159048675335e-16 1.0 2.1755182594870668e-16
  outer loop
    vertex -161.906012943885 33.08211756960651 0.0
    vertex -109.906012943885 33.082117569606496 7.00000000000001
    vertex -112.606012943885 33.082117569606496 5.46299091524473
  endloop
endfacet
facet normal 2.2712159048675335e-16 1.0 2.1755182594870668e-16
  outer loop
    vertex -161.906012943885 33.08211756960651 0.0
    vertex -112.606012943885 33.082117569606496 5.46299091524473
    vertex -114.306012943885 33.08211756960651 4.481495457622374
  endloop
endfacet
facet normal 2.2712159048675335e-16 1.0 2.1755182594870668e-16
  outer loop
    vertex -112.606012943885 33.082117569606496 5.46299091524473
    vertex -109.906012943885 33.082117569606496 7.00000000000001
    vertex -110.906012943885 33.082117569606496 4.500000000000003
  endloop
endfacet
facet normal 2.2712159048675335e-16 1.0 2.1755182594870668e-16
  outer loop
    vertex -110.906012943885 33.082117569606496 4.500000000000003
    vertex -109.906012943885 33.082117569606496 7.00000000000001
    vertex -110.906012943885 33.082117569606496 3.500000000000005
  endloop
endfacet
facet normal 2.2712159048675335e-16 1.0 2.1755182594870668e-16
  outer loop
    vertex -110.906012943885 33.082117569606496 3.500000000000005
    vertex -109.906012943885 33.082117569606496 7.00000000000001
    vertex -110.906012943885 33.082117569606496 2.518504542377636
  endloop
endfacet
facet normal 2.2712159048675335e-16 1.0 2.1755182594870668e-16
  outer loop
    vertex -161.906012943885 33.08211756960651 0.0
    vertex -112.606012943885 33.082117569606496 1.537009084755279
    vertex -109.906012943885 33.082117569606496 0.0
  endloop
endfacet
facet normal 2.2712159048675335e-16 1.0 2.1755182594870668e-16
  outer loop
    vertex -112.606012943885 33.082117569606496 1.537009084755279
    vertex -161.906012943885 33.08211756960651 0.0
    vertex -114.306012943885 33.08211756960651 2.5185045423776478
  endloop
endfacet
facet normal 2.2712159048675335e-16 1.0 2.1755182594870668e-16
  outer loop
    vertex -114.306012943885 33.08211756960651 2.5185045423776478
    vertex -161.906012943885 33.08211756960651 0.0
    vertex -114.306012943885 33.08211756960651 4.481495457622374
  endloop
endfacet
facet normal 2.2712159048675335e-16 1.0 2.1755182594870668e-16
  outer loop
    vertex -109.906012943885 33.082117569606496 0.0
    vertex -112.606012943885 33.082117569606496 1.537009084755279
    vertex -110.906012943885 33.082117569606496 2.518504542377636
  endloop
endfacet
facet normal 2.2712159048675335e-16 1.0 2.1755182594870668e-16
  outer loop
    vertex -109.906012943885 33.082117569606496 0.0
    vertex -110.906012943885 33.082117569606496 2.518504542377636
    vertex -109.906012943885 33.082117569606496 7.00000000000001
  endloop
endfacet
facet normal 2.2712159048675335e-16 1.0 2.1755182594870668e-16
  outer loop
    vertex -168.90601294388497 33.08211756960651 0.0
    vertex -217.90601294388497 33.082117569606524 0.0
    vertex -168.90601294388497 33.08211756960651 2.0000000000000053
  endloop
endfacet
facet normal 2.2712159048675335e-16 1.0 2.1755182594870668e-16
  outer loop
    vertex -278.606012943885 33.08211756960653 0.0
    vertex -275.906012943885 33.08211756960653 1.537009084755279
    vertex -224.906012943885 33.082117569606524 0.0
  endloop
endfacet
facet normal 2.2712159048675335e-16 1.0 2.1755182594870668e-16
  outer loop
    vertex -275.906012943885 33.08211756960653 1.537009084755279
    vertex -278.606012943885 33.08211756960653 0.0
    vertex -277.606012943885 33.08211756960653 2.518504542377636
  endloop
endfacet
facet normal 2.2712159048675335e-16 1.0 2.1755182594870668e-16
  outer loop
    vertex -277.606012943885 33.08211756960653 2.518504542377636
    vertex -278.606012943885 33.08211756960653 0.0
    vertex -277.606012943885 33.08211756960653 4.481495457622362
  endloop
endfacet
facet normal 2.2712159048675335e-16 1.0 2.1755182594870668e-16
  outer loop
    vertex -224.906012943885 33.082117569606524 0.0
    vertex -275.906012943885 33.08211756960653 1.537009084755279
    vertex -272.506012943885 33.08211756960654 1.537009084755279
  endloop
endfacet
facet normal 2.2712159048675335e-16 1.0 2.1755182594870668e-16
  outer loop
    vertex -224.906012943885 33.082117569606524 0.0
    vertex -272.506012943885 33.08211756960654 1.537009084755279
    vertex -270.806012943885 33.08211756960654 2.5185045423776478
  endloop
endfacet
facet normal 2.2712159048675335e-16 1.0 2.1755182594870668e-16
  outer loop
    vertex -224.906012943885 33.082117569606524 0.0
    vertex -270.806012943885 33.08211756960654 2.5185045423776478
    vertex -224.906012943885 33.082117569606524 2.0000000000000053
  endloop
endfacet
facet normal 0.0 1.0 0.0
  outer loop
    vertex -161.906012943885 42.08211756960652 2.0000000000000053
    vertex -168.90601294388497 42.08211756960651 0.0
    vertex -168.90601294388497 42.08211756960651 2.0000000000000053
  endloop
endfacet
facet normal 0.0 1.0 0.0
  outer loop
    vertex -168.90601294388497 42.08211756960651 0.0
    vertex -161.906012943885 42.08211756960652 2.0000000000000053
    vertex -161.906012943885 42.08211756960652 0.0
  endloop
endfacet
facet normal -1.0 0.0 0.0
  outer loop
    vertex -168.90601294388497 33.08211756960651 2.0000000000000053
    vertex -168.90601294388497 42.08211756960651 0.0
    vertex -168.90601294388497 33.08211756960651 0.0
  endloop
endfacet
facet normal -1.0 0.0 0.0
  outer loop
    vertex -168.90601294388497 42.08211756960651 0.0
    vertex -168.90601294388497 33.08211756960651 2.0000000000000053
    vertex -168.90601294388497 42.08211756960651 2.0000000000000053
  endloop
endfacet
facet normal 0.0 0.0 1.0
  outer loop
    vertex -168.90601294388497 42.08211756960651 2.0000000000000053
    vertex -167.106012943885 38.56361302722887 2.0000000000000053
    vertex -165.406012943885 39.54510848485123 2.0000000000000053
  endloop
endfacet
facet normal 0.0 0.0 1.0
  outer loop
    vertex -167.106012943885 38.56361302722887 2.0000000000000053
    vertex -168.90601294388497 42.08211756960651 2.0000000000000053
    vertex -168.90601294388497 33.08211756960651 2.0000000000000053
  endloop
endfacet
facet normal 0.0 0.0 1.0
  outer loop
    vertex -167.106012943885 38.56361302722887 2.0000000000000053
    vertex -168.90601294388497 33.08211756960651 2.0000000000000053
    vertex -167.106012943885 36.600622111984144 2.0000000000000053
  endloop
endfacet
facet normal 0.0 0.0 1.0
  outer loop
    vertex -167.106012943885 36.600622111984144 2.0000000000000053
    vertex -168.90601294388497 33.08211756960651 2.0000000000000053
    vertex -165.406012943885 35.61912665436178 2.0000000000000053
  endloop
endfacet
facet normal 0.0 0.0 1.0
  outer loop
    vertex -165.406012943885 35.61912665436178 2.0000000000000053
    vertex -168.90601294388497 33.08211756960651 2.0000000000000053
    vertex -161.906012943885 33.08211756960651 2.0000000000000053
  endloop
endfacet
facet normal 0.0 0.0 1.0
  outer loop
    vertex -161.906012943885 42.08211756960652 2.0000000000000053
    vertex -163.70601294388499 38.563613027228875 2.0000000000000053
    vertex -161.906012943885 33.08211756960651 2.0000000000000053
  endloop
endfacet
facet normal 0.0 0.0 1.0
  outer loop
    vertex -163.70601294388499 38.563613027228875 2.0000000000000053
    vertex -161.906012943885 42.08211756960652 2.0000000000000053
    vertex -168.90601294388497 42.08211756960651 2.0000000000000053
  endloop
endfacet
facet normal 0.0 0.0 1.0
  outer loop
    vertex -163.70601294388499 38.563613027228875 2.0000000000000053
    vertex -168.90601294388497 42.08211756960651 2.0000000000000053
    vertex -165.406012943885 39.54510848485123 2.0000000000000053
  endloop
endfacet
facet normal 0.0 0.0 1.0
  outer loop
    vertex -161.906012943885 33.08211756960651 2.0000000000000053
    vertex -163.70601294388499 38.563613027228875 2.0000000000000053
    vertex -163.70601294388499 36.600622111984144 2.0000000000000053
  endloop
endfacet
facet normal 0.0 0.0 1.0
  outer loop
    vertex -161.906012943885 33.08211756960651 2.0000000000000053
    vertex -163.70601294388499 36.600622111984144 2.0000000000000053
    vertex -165.406012943885 35.61912665436178 2.0000000000000053
  endloop
endfacet
facet normal 1.0 0.0 0.0
  outer loop
    vertex -161.906012943885 42.08211756960652 2.0000000000000053
    vertex -161.906012943885 33.08211756960651 0.0
    vertex -161.906012943885 42.08211756960652 0.0
  endloop
endfacet
facet normal 1.0 0.0 0.0
  outer loop
    vertex -161.906012943885 33.08211756960651 0.0
    vertex -161.906012943885 42.08211756960652 2.0000000000000053
    vertex -161.906012943885 33.08211756960651 2.0000000000000053
  endloop
endfacet
facet normal 0.0 1.0 0.0
  outer loop
    vertex -217.90601294388497 42.08211756960652 2.0000000000000053
    vertex -224.906012943885 42.082117569606524 0.0
    vertex -224.906012943885 42.082117569606524 2.0000000000000053
  endloop
endfacet
facet normal 0.0 1.0 0.0
  outer loop
    vertex -224.906012943885 42.082117569606524 0.0
    vertex -217.90601294388497 42.08211756960652 2.0000000000000053
    vertex -217.90601294388497 42.08211756960652 0.0
  endloop
endfacet
facet normal -1.0 0.0 0.0
  outer loop
    vertex -224.906012943885 33.082117569606524 2.0000000000000053
    vertex -224.906012943885 42.082117569606524 0.0
    vertex -224.906012943885 33.082117569606524 0.0
  endloop
endfacet
facet normal -1.0 0.0 0.0
  outer loop
    vertex -224.906012943885 42.082117569606524 0.0
    vertex -224.906012943885 33.082117569606524 2.0000000000000053
    vertex -224.906012943885 42.082117569606524 2.0000000000000053
  endloop
endfacet
facet normal 1.0 0.0 0.0
  outer loop
    vertex -217.90601294388497 42.08211756960652 2.0000000000000053
    vertex -217.90601294388497 33.082117569606524 0.0
    vertex -217.90601294388497 42.08211756960652 0.0
  endloop
endfacet
facet normal 1.0 0.0 0.0
  outer loop
    vertex -217.90601294388497 33.082117569606524 0.0
    vertex -217.90601294388497 42.08211756960652 2.0000000000000053
    vertex -217.90601294388497 33.082117569606524 2.0000000000000053
  endloop
endfacet
facet normal 0.0 0.0 1.0
  outer loop
    vertex -224.906012943885 42.082117569606524 2.0000000000000053
    vertex -223.106012943885 38.5636130272289 2.0000000000000053
    vertex -217.90601294388497 42.08211756960652 2.0000000000000053
  endloop
endfacet
facet normal 0.0 0.0 1.0
  outer loop
    vertex -223.106012943885 38.5636130272289 2.0000000000000053
    vertex -224.906012943885 42.082117569606524 2.0000000000000053
    vertex -224.906012943885 33.082117569606524 2.0000000000000053
  endloop
endfacet
facet normal 0.0 0.0 1.0
  outer loop
    vertex -217.90601294388497 42.08211756960652 2.0000000000000053
    vertex -223.106012943885 38.5636130272289 2.0000000000000053
    vertex -221.40601294388497 39.54510848485127 2.0000000000000053
  endloop
endfacet
facet normal 0.0 0.0 1.0
  outer loop
    vertex -223.106012943885 38.5636130272289 2.0000000000000053
    vertex -224.906012943885 33.082117569606524 2.0000000000000053
    vertex -223.106012943885 36.600622111984144 2.0000000000000053
  endloop
endfacet
facet normal 0.0 0.0 1.0
  outer loop
    vertex -223.106012943885 36.600622111984144 2.0000000000000053
    vertex -224.906012943885 33.082117569606524 2.0000000000000053
    vertex -221.40601294388497 35.61912665436177 2.0000000000000053
  endloop
endfacet
facet normal 0.0 0.0 1.0
  outer loop
    vertex -217.90601294388497 42.08211756960652 2.0000000000000053
    vertex -219.70601294388496 38.5636130272289 2.0000000000000053
    vertex -217.90601294388497 33.082117569606524 2.0000000000000053
  endloop
endfacet
facet normal 0.0 0.0 1.0
  outer loop
    vertex -219.70601294388496 38.5636130272289 2.0000000000000053
    vertex -217.90601294388497 42.08211756960652 2.0000000000000053
    vertex -221.40601294388497 39.54510848485127 2.0000000000000053
  endloop
endfacet
facet normal 0.0 0.0 1.0
  outer loop
    vertex -217.90601294388497 33.082117569606524 2.0000000000000053
    vertex -219.70601294388496 38.5636130272289 2.0000000000000053
    vertex -219.70601294388496 36.600622111984144 2.0000000000000053
  endloop
endfacet
facet normal 0.0 0.0 1.0
  outer loop
    vertex -217.90601294388497 33.082117569606524 2.0000000000000053
    vertex -219.70601294388496 36.600622111984144 2.0000000000000053
    vertex -221.40601294388497 35.61912665436177 2.0000000000000053
  endloop
endfacet
facet normal 0.0 0.0 1.0
  outer loop
    vertex -217.90601294388497 33.082117569606524 2.0000000000000053
    vertex -221.40601294388497 35.61912665436177 2.0000000000000053
    vertex -224.906012943885 33.082117569606524 2.0000000000000053
  endloop
endfacet
facet normal -0.4999999999999997 -0.8660254037844388 0.0
  outer loop
    vertex -219.70601294388496 38.5636130272289 2.8199664825478975e-15
    vertex -221.40601294388497 39.54510848485127 2.0000000000000053
    vertex -221.40601294388497 39.54510848485127 2.8199664825478975e-15
  endloop
endfacet
facet normal -0.4999999999999997 -0.8660254037844388 0.0
  outer loop
    vertex -221.40601294388497 39.54510848485127 2.0000000000000053
    vertex -219.70601294388496 38.5636130272289 2.8199664825478975e-15
    vertex -219.70601294388496 38.5636130272289 2.0000000000000053
  endloop
endfacet
facet normal 0.4999999999999997 -0.8660254037844388 0.0
  outer loop
    vertex -221.40601294388497 39.54510848485127 2.8199664825478975e-15
    vertex -223.106012943885 38.5636130272289 2.0000000000000053
    vertex -223.106012943885 38.5636130272289 2.8199664825478975e-15
  endloop
endfacet
facet normal 0.4999999999999997 -0.8660254037844388 0.0
  outer loop
    vertex -223.106012943885 38.5636130272289 2.0000000000000053
    vertex -221.40601294388497 39.54510848485127 2.8199664825478975e-15
    vertex -221.40601294388497 39.54510848485127 2.0000000000000053
  endloop
endfacet
facet normal 1.0 0.0 0.0
  outer loop
    vertex -223.106012943885 38.5636130272289 2.0000000000000053
    vertex -223.106012943885 36.600622111984144 2.8199664825478975e-15
    vertex -223.106012943885 38.5636130272289 2.8199664825478975e-15
  endloop
endfacet
facet normal 1.0 0.0 0.0
  outer loop
    vertex -223.106012943885 36.600622111984144 2.8199664825478975e-15
    vertex -223.106012943885 38.5636130272289 2.0000000000000053
    vertex -223.106012943885 36.600622111984144 2.0000000000000053
  endloop
endfacet
facet normal 0.4999999999999997 0.8660254037844388 0.0
  outer loop
    vertex -221.40601294388497 35.61912665436177 2.0000000000000053
    vertex -223.106012943885 36.600622111984144 2.8199664825478975e-15
    vertex -223.106012943885 36.600622111984144 2.0000000000000053
  endloop
endfacet
facet normal 0.4999999999999997 0.8660254037844388 0.0
  outer loop
    vertex -223.106012943885 36.600622111984144 2.8199664825478975e-15
    vertex -221.40601294388497 35.61912665436177 2.0000000000000053
    vertex -221.40601294388497 35.61912665436177 2.8199664825478975e-15
  endloop
endfacet
facet normal -0.4999999999999997 0.8660254037844388 0.0
  outer loop
    vertex -219.70601294388496 36.600622111984144 2.0000000000000053
    vertex -221.40601294388497 35.61912665436177 2.8199664825478975e-15
    vertex -221.40601294388497 35.61912665436177 2.0000000000000053
  endloop
endfacet
facet normal -0.4999999999999997 0.8660254037844388 0.0
  outer loop
    vertex -221.40601294388497 35.61912665436177 2.8199664825478975e-15
    vertex -219.70601294388496 36.600622111984144 2.0000000000000053
    vertex -219.70601294388496 36.600622111984144 2.8199664825478975e-15
  endloop
endfacet
facet normal -1.0 0.0 0.0
  outer loop
    vertex -219.70601294388496 36.600622111984144 2.0000000000000053
    vertex -219.70601294388496 38.5636130272289 2.8199664825478975e-15
    vertex -219.70601294388496 36.600622111984144 2.8199664825478975e-15
  endloop
endfacet
facet normal -1.0 0.0 0.0
  outer loop
    vertex -219.70601294388496 38.5636130272289 2.8199664825478975e-15
    vertex -219.70601294388496 36.600622111984144 2.0000000000000053
    vertex -219.70601294388496 38.5636130272289 2.0000000000000053
  endloop
endfacet
facet normal 1.0 0.0 0.0
  outer loop
    vertex -167.106012943885 38.56361302722887 2.0000000000000053
    vertex -167.106012943885 36.600622111984144 -2.8199664825478975e-15
    vertex -167.106012943885 38.56361302722887 -2.8199664825478975e-15
  endloop
endfacet
facet normal 1.0 0.0 0.0
  outer loop
    vertex -167.106012943885 36.600622111984144 -2.8199664825478975e-15
    vertex -167.106012943885 38.56361302722887 2.0000000000000053
    vertex -167.106012943885 36.600622111984144 2.0000000000000053
  endloop
endfacet
facet normal 0.5000000000000004 0.8660254037844385 0.0
  outer loop
    vertex -165.406012943885 35.61912665436178 2.0000000000000053
    vertex -167.106012943885 36.600622111984144 -2.8199664825478975e-15
    vertex -167.106012943885 36.600622111984144 2.0000000000000053
  endloop
endfacet
facet normal 0.5000000000000004 0.8660254037844385 0.0
  outer loop
    vertex -167.106012943885 36.600622111984144 -2.8199664825478975e-15
    vertex -165.406012943885 35.61912665436178 2.0000000000000053
    vertex -165.406012943885 35.61912665436178 -2.8199664825478975e-15
  endloop
endfacet
facet normal -0.5000000000000026 0.8660254037844372 0.0
  outer loop
    vertex -163.70601294388499 36.600622111984144 2.0000000000000053
    vertex -165.406012943885 35.61912665436178 -2.8199664825478975e-15
    vertex -165.406012943885 35.61912665436178 2.0000000000000053
  endloop
endfacet
facet normal -0.5000000000000026 0.8660254037844372 0.0
  outer loop
    vertex -165.406012943885 35.61912665436178 -2.8199664825478975e-15
    vertex -163.70601294388499 36.600622111984144 2.0000000000000053
    vertex -163.70601294388499 36.600622111984144 -2.8199664825478975e-15
  endloop
endfacet
facet normal -1.0 0.0 0.0
  outer loop
    vertex -163.70601294388499 36.600622111984144 2.0000000000000053
    vertex -163.70601294388499 38.563613027228875 -2.8199664825478975e-15
    vertex -163.70601294388499 36.600622111984144 -2.8199664825478975e-15
  endloop
endfacet
facet normal -1.0 0.0 0.0
  outer loop
    vertex -163.70601294388499 38.563613027228875 -2.8199664825478975e-15
    vertex -163.70601294388499 36.600622111984144 2.0000000000000053
    vertex -163.70601294388499 38.563613027228875 2.0000000000000053
  endloop
endfacet
facet normal -0.49999999999999817 -0.8660254037844397 0.0
  outer loop
    vertex -163.70601294388499 38.563613027228875 -2.8199664825478975e-15
    vertex -165.406012943885 39.54510848485123 2.0000000000000053
    vertex -165.406012943885 39.54510848485123 -2.8199664825478975e-15
  endloop
endfacet
facet normal -0.49999999999999817 -0.8660254037844397 0.0
  outer loop
    vertex -165.406012943885 39.54510848485123 2.0000000000000053
    vertex -163.70601294388499 38.563613027228875 -2.8199664825478975e-15
    vertex -163.70601294388499 38.563613027228875 2.0000000000000053
  endloop
endfacet
facet normal 0.5000000000000004 -0.8660254037844385 0.0
  outer loop
    vertex -165.406012943885 39.54510848485123 -2.8199664825478975e-15
    vertex -167.106012943885 38.56361302722887 2.0000000000000053
    vertex -167.106012943885 38.56361302722887 -2.8199664825478975e-15
  endloop
endfacet
facet normal 0.5000000000000004 -0.8660254037844385 0.0
  outer loop
    vertex -167.106012943885 38.56361302722887 2.0000000000000053
    vertex -165.406012943885 39.54510848485123 -2.8199664825478975e-15
    vertex -165.406012943885 39.54510848485123 2.0000000000000053
  endloop
endfacet
endsolid boardspacer
