solid FINAL_RC1
facet normal -4.063756329632206e-14 0.3090169943750835 -0.9510565162951095
  outer loop
    vertex 815.9559394608146 248.87569379277033 -406.1832939792843
    vertex 795.6559394608146 250.58027102441577 -405.6294432629714
    vertex 815.9559394608146 250.58027102441844 -405.6294432629714
  endloop
endfacet
facet normal -4.063756329632206e-14 0.3090169943750835 -0.9510565162951095
  outer loop
    vertex 795.6559394608146 250.58027102441577 -405.6294432629714
    vertex 815.9559394608146 248.87569379277033 -406.1832939792843
    vertex 795.6559394608149 248.87569379276763 -406.1832939792843
  endloop
endfacet
facet normal -1.3095263880211137e-13 0.9957927485223523 0.09163406566500958
  outer loop
    vertex 795.6559394608137 257.42268024944565 -407.0524747469796
    vertex 815.9559394608137 257.5773139744781 -408.7328884767885
    vertex 795.6559394608137 257.5773139744755 -408.7328884767885
  endloop
endfacet
facet normal -1.3095263880211137e-13 0.9957927485223523 0.09163406566500958
  outer loop
    vertex 815.9559394608137 257.5773139744781 -408.7328884767885
    vertex 795.6559394608137 257.42268024944565 -407.0524747469796
    vertex 815.9559394608137 257.4226802494484 -407.0524747469796
  endloop
endfacet
facet normal 1.3095263880211137e-13 -0.9957927485223524 -0.09163406566500835
  outer loop
    vertex 815.9559394608154 243.58322807435954 -408.32599804915424
    vertex 795.6559394608155 243.73786179938662 -410.0064117789632
    vertex 815.9559394608156 243.7378617993893 -410.0064117789632
  endloop
endfacet
facet normal 1.3095263880211137e-13 -0.9957927485223524 -0.09163406566500835
  outer loop
    vertex 795.6559394608155 243.73786179938662 -410.0064117789632
    vertex 815.9559394608154 243.58322807435954 -408.32599804915424
    vertex 795.6559394608155 243.58322807435678 -408.32599804915424
  endloop
endfacet
facet normal -1.0601036542024693e-13 0.8061262004290164 -0.5917436514081732
  outer loop
    vertex 795.6559394608138 256.68129916119824 -411.9612730481141
    vertex 815.9559394608137 255.68272374696033 -413.3216219130458
    vertex 795.655939460814 255.68272374695766 -413.3216219130458
  endloop
endfacet
facet normal -1.0601036542024693e-13 0.8061262004290164 -0.5917436514081732
  outer loop
    vertex 815.9559394608137 255.68272374696033 -413.3216219130458
    vertex 795.6559394608138 256.68129916119824 -411.9612730481141
    vertex 815.955939460814 256.68129916120097 -411.9612730481141
  endloop
endfacet
facet normal 1.3150591726684997e-13 -1.0 -1.4643841694805822e-13
  outer loop
    vertex 815.9559394608143 253.3383349216746 -407.6332939792837
    vertex 795.6559394608142 253.3383349216722 -409.4255925466583
    vertex 815.9559394608143 253.33833492167486 -409.4255925466583
  endloop
endfacet
facet normal 1.3150591726684997e-13 -1.0 -1.4643841694805822e-13
  outer loop
    vertex 795.6559394608142 253.3383349216722 -409.4255925466583
    vertex 815.9559394608143 253.3383349216746 -407.6332939792837
    vertex 795.6559394608142 253.33833492167193 -407.6332939792837
  endloop
endfacet
facet normal -1.0 -1.3150591726684997e-13 -1.9267138749117992e-26
  outer loop
    vertex 795.6559394608145 252.87123206993815 -415.1439347391093
    vertex 795.6559394608142 253.3383349216722 -409.4255925466583
    vertex 795.6559394608141 254.38761232714384 -414.4034667736958
  endloop
endfacet
facet normal -1.0 -1.3150591726684997e-13 -1.9267138749117992e-26
  outer loop
    vertex 795.6559394608142 253.3383349216722 -409.4255925466583
    vertex 795.6559394608145 252.87123206993815 -415.1439347391093
    vertex 795.6559394608145 252.28484825606466 -410.8755925466584
  endloop
endfacet
facet normal -1.0 -1.3150591726684997e-13 -1.9267138749117992e-26
  outer loop
    vertex 795.6559394608145 252.28484825606466 -410.8755925466584
    vertex 795.6559394608145 252.87123206993815 -415.1439347391093
    vertex 795.6559394608146 251.22170948407117 -415.49999250262783
  endloop
endfacet
facet normal -1.0 -1.3150591726684997e-13 -1.9267138749117992e-26
  outer loop
    vertex 795.6559394608145 252.28484825606466 -410.8755925466584
    vertex 795.6559394608146 251.22170948407117 -415.49999250262783
    vertex 795.6559394608146 250.5802710244166 -411.42944326297135
  endloop
endfacet
facet normal -1.0 -1.3150591726684997e-13 -1.9267138749117992e-26
  outer loop
    vertex 795.6559394608146 250.5802710244166 -411.42944326297135
    vertex 795.6559394608146 251.22170948407117 -415.49999250262783
    vertex 795.6559394608149 249.5349088264631 -415.4509472812532
  endloop
endfacet
facet normal -1.0 -1.3150591726684997e-13 -1.9267138749117992e-26
  outer loop
    vertex 795.6559394608146 250.5802710244166 -411.42944326297135
    vertex 795.6559394608149 249.5349088264631 -415.4509472812532
    vertex 795.6559394608149 248.87569379276832 -410.875592546659
  endloop
endfacet
facet normal -1.0 -1.3150591726684997e-13 -1.9267138749117992e-26
  outer loop
    vertex 795.6559394608149 248.87569379276832 -410.875592546659
    vertex 795.6559394608149 249.5349088264631 -415.4509472812532
    vertex 795.6559394608149 247.90886082006293 -414.9996494049794
  endloop
endfacet
facet normal -1.0 -1.3150591726684997e-13 -1.9267138749117992e-26
  outer loop
    vertex 795.6559394608149 248.87569379276832 -410.875592546659
    vertex 795.6559394608149 247.90886082006293 -414.9996494049794
    vertex 795.6559394608149 247.82220712716034 -409.4255925466591
  endloop
endfacet
facet normal -1.0 -1.3150591726684997e-13 -1.9267138749117992e-26
  outer loop
    vertex 795.6559394608149 247.82220712716034 -409.4255925466591
    vertex 795.6559394608149 247.90886082006293 -414.9996494049794
    vertex 795.6559394608151 246.43806546455892 -414.1723266659744
  endloop
endfacet
facet normal -1.0 -1.3150591726684997e-13 -1.9267138749117992e-26
  outer loop
    vertex 795.6559394608149 247.82220712716034 -409.4255925466591
    vertex 795.6559394608151 246.43806546455892 -414.1723266659744
    vertex 795.6559394608149 247.82220712716006 -407.6332939792845
  endloop
endfacet
facet normal -1.0 -1.3150591726684997e-13 -1.9267138749117992e-26
  outer loop
    vertex 795.6559394608149 247.82220712716006 -407.6332939792845
    vertex 795.6559394608151 246.43806546455892 -414.1723266659744
    vertex 795.6559394608153 246.77292972168843 -402.6554197522469
  endloop
endfacet
facet normal -1.0 -1.3150591726684997e-13 -1.9267138749117992e-26
  outer loop
    vertex 795.6559394608153 246.77292972168843 -402.6554197522469
    vertex 795.6559394608151 246.43806546455892 -414.1723266659744
    vertex 795.6559394608154 245.4778183018747 -403.7372646128969
  endloop
endfacet
facet normal -1.0 -1.3150591726684997e-13 -1.9267138749117992e-26
  outer loop
    vertex 795.6559394608154 245.4778183018747 -403.7372646128969
    vertex 795.6559394608151 246.43806546455892 -414.1723266659744
    vertex 795.6559394608154 245.20800003988919 -413.01706005463365
  endloop
endfacet
facet normal -1.0 -1.3150591726684997e-13 -1.9267138749117992e-26
  outer loop
    vertex 795.6559394608154 245.4778183018747 -403.7372646128969
    vertex 795.6559394608154 245.20800003988919 -413.01706005463365
    vertex 795.6559394608154 244.47924288763403 -405.09761347782865
  endloop
endfacet
facet normal -1.0 -1.3150591726684997e-13 -1.9267138749117992e-26
  outer loop
    vertex 795.6559394608154 244.47924288763403 -405.09761347782865
    vertex 795.6559394608154 245.20800003988919 -413.01706005463365
    vertex 795.6559394608154 244.2901514774296 -411.60098946718483
  endloop
endfacet
facet normal -1.0 -1.3150591726684997e-13 -1.9267138749117992e-26
  outer loop
    vertex 795.6559394608154 244.47924288763403 -405.09761347782865
    vertex 795.6559394608154 244.2901514774296 -411.60098946718483
    vertex 795.6559394608155 243.83523705236817 -406.65740781567916
  endloop
endfacet
facet normal -1.0 -1.3150591726684997e-13 -1.9267138749117992e-26
  outer loop
    vertex 795.6559394608155 243.83523705236817 -406.65740781567916
    vertex 795.6559394608154 244.2901514774296 -411.60098946718483
    vertex 795.6559394608155 243.73786179938662 -410.0064117789632
  endloop
endfacet
facet normal -1.0 -1.3150591726684997e-13 -1.9267138749117992e-26
  outer loop
    vertex 795.6559394608155 243.83523705236817 -406.65740781567916
    vertex 795.6559394608155 243.73786179938662 -410.0064117789632
    vertex 795.6559394608155 243.58322807435678 -408.32599804915424
  endloop
endfacet
facet normal -1.0 -1.3150591726684997e-13 -1.9267138749117992e-26
  outer loop
    vertex 795.6559394608137 257.32530499646407 -410.40147871026363
    vertex 795.6559394608137 257.42268024944565 -407.0524747469796
    vertex 795.6559394608137 257.5773139744755 -408.7328884767885
  endloop
endfacet
facet normal -1.0 -1.3150591726684997e-13 -1.9267138749117992e-26
  outer loop
    vertex 795.6559394608137 257.42268024944565 -407.0524747469796
    vertex 795.6559394608137 257.32530499646407 -410.40147871026363
    vertex 795.6559394608138 256.87039057140265 -405.45789705875796
  endloop
endfacet
facet normal -1.0 -1.3150591726684997e-13 -1.9267138749117992e-26
  outer loop
    vertex 795.6559394608138 256.87039057140265 -405.45789705875796
    vertex 795.6559394608137 257.32530499646407 -410.40147871026363
    vertex 795.6559394608138 256.68129916119824 -411.9612730481141
  endloop
endfacet
facet normal -1.0 -1.3150591726684997e-13 -1.9267138749117992e-26
  outer loop
    vertex 795.6559394608138 256.87039057140265 -405.45789705875796
    vertex 795.6559394608138 256.68129916119824 -411.9612730481141
    vertex 795.6559394608139 255.95254200894317 -404.0418264713091
  endloop
endfacet
facet normal -1.0 -1.3150591726684997e-13 -1.9267138749117992e-26
  outer loop
    vertex 795.6559394608139 255.95254200894317 -404.0418264713091
    vertex 795.6559394608138 256.68129916119824 -411.9612730481141
    vertex 795.655939460814 255.68272374695766 -413.3216219130458
  endloop
endfacet
facet normal -1.0 -1.3150591726684997e-13 -1.9267138749117992e-26
  outer loop
    vertex 795.6559394608139 255.95254200894317 -404.0418264713091
    vertex 795.655939460814 255.68272374695766 -413.3216219130458
    vertex 795.6559394608141 254.72247658427338 -402.8865598599683
  endloop
endfacet
facet normal -1.0 -1.3150591726684997e-13 -1.9267138749117992e-26
  outer loop
    vertex 795.6559394608141 254.72247658427338 -402.8865598599683
    vertex 795.655939460814 255.68272374695766 -413.3216219130458
    vertex 795.6559394608141 254.38761232714384 -414.4034667736958
  endloop
endfacet
facet normal -1.0 -1.3150591726684997e-13 -1.9267138749117992e-26
  outer loop
    vertex 795.6559394608141 254.72247658427338 -402.8865598599683
    vertex 795.6559394608141 254.38761232714384 -414.4034667736958
    vertex 795.6559394608142 253.2516812287693 -402.0592371209634
  endloop
endfacet
facet normal -1.0 -1.3150591726684997e-13 -1.9267138749117992e-26
  outer loop
    vertex 795.6559394608142 253.2516812287693 -402.0592371209634
    vertex 795.6559394608141 254.38761232714384 -414.4034667736958
    vertex 795.6559394608142 253.33833492167193 -407.6332939792837
  endloop
endfacet
facet normal -1.0 -1.3150591726684997e-13 -1.9267138749117992e-26
  outer loop
    vertex 795.6559394608142 253.33833492167193 -407.6332939792837
    vertex 795.6559394608141 254.38761232714384 -414.4034667736958
    vertex 795.6559394608142 253.3383349216722 -409.4255925466583
  endloop
endfacet
facet normal -1.0 -1.3150591726684997e-13 -1.9267138749117992e-26
  outer loop
    vertex 795.6559394608142 253.2516812287693 -402.0592371209634
    vertex 795.6559394608142 253.33833492167193 -407.6332939792837
    vertex 795.6559394608145 252.284848256064 -406.1832939792838
  endloop
endfacet
facet normal -1.0 -1.3150591726684997e-13 -1.9267138749117992e-26
  outer loop
    vertex 795.6559394608142 253.2516812287693 -402.0592371209634
    vertex 795.6559394608145 252.284848256064 -406.1832939792838
    vertex 795.6559394608146 251.6256332223693 -401.6079392446896
  endloop
endfacet
facet normal -1.0 -1.3150591726684997e-13 -1.9267138749117992e-26
  outer loop
    vertex 795.6559394608146 251.6256332223693 -401.6079392446896
    vertex 795.6559394608145 252.284848256064 -406.1832939792838
    vertex 795.6559394608146 250.58027102441577 -405.6294432629714
  endloop
endfacet
facet normal -1.0 -1.3150591726684997e-13 -1.9267138749117992e-26
  outer loop
    vertex 795.6559394608146 251.6256332223693 -401.6079392446896
    vertex 795.6559394608146 250.58027102441577 -405.6294432629714
    vertex 795.6559394608147 249.93883256476113 -401.5588940233149
  endloop
endfacet
facet normal -1.0 -1.3150591726684997e-13 -1.9267138749117992e-26
  outer loop
    vertex 795.6559394608147 249.93883256476113 -401.5588940233149
    vertex 795.6559394608146 250.58027102441577 -405.6294432629714
    vertex 795.6559394608149 248.87569379276763 -406.1832939792843
  endloop
endfacet
facet normal -1.0 -1.3150591726684997e-13 -1.9267138749117992e-26
  outer loop
    vertex 795.6559394608147 249.93883256476113 -401.5588940233149
    vertex 795.6559394608149 248.87569379276763 -406.1832939792843
    vertex 795.6559394608149 248.28930997889427 -401.91495178683346
  endloop
endfacet
facet normal -1.0 -1.3150591726684997e-13 -1.9267138749117992e-26
  outer loop
    vertex 795.6559394608149 248.28930997889427 -401.91495178683346
    vertex 795.6559394608149 248.87569379276763 -406.1832939792843
    vertex 795.6559394608149 247.82220712716006 -407.6332939792845
  endloop
endfacet
facet normal -1.0 -1.3150591726684997e-13 -1.9267138749117992e-26
  outer loop
    vertex 795.6559394608149 248.28930997889427 -401.91495178683346
    vertex 795.6559394608149 247.82220712716006 -407.6332939792845
    vertex 795.6559394608153 246.77292972168843 -402.6554197522469
  endloop
endfacet
facet normal 8.430688036136594e-14 -0.6410881130946098 0.7674672835038592
  outer loop
    vertex 795.6559394608153 246.77292972168843 -402.6554197522469
    vertex 815.9559394608154 245.4778183018774 -403.7372646128969
    vertex 815.9559394608152 246.77292972169107 -402.6554197522469
  endloop
endfacet
facet normal 8.430688036136594e-14 -0.6410881130946098 0.7674672835038592
  outer loop
    vertex 815.9559394608154 245.4778183018774 -403.7372646128969
    vertex 795.6559394608153 246.77292972168843 -402.6554197522469
    vertex 795.6559394608154 245.4778183018747 -403.7372646128969
  endloop
endfacet
facet normal -1.0639052192974837e-13 0.8090169943748684 0.5877852522925822
  outer loop
    vertex 795.6559394608149 247.82220712716034 -409.4255925466591
    vertex 815.9559394608146 248.87569379277096 -410.875592546659
    vertex 795.6559394608149 248.87569379276832 -410.875592546659
  endloop
endfacet
facet normal -1.0639052192974837e-13 0.8090169943748684 0.5877852522925822
  outer loop
    vertex 815.9559394608146 248.87569379277096 -410.875592546659
    vertex 795.6559394608149 247.82220712716034 -409.4255925466591
    vertex 815.9559394608151 247.82220712716298 -409.4255925466591
  endloop
endfacet
facet normal 1.2426353840333123e-13 -0.9449273537339851 -0.32728014936028205
  outer loop
    vertex 815.9559394608156 243.7378617993893 -410.0064117789632
    vertex 795.6559394608154 244.2901514774296 -411.60098946718483
    vertex 815.9559394608156 244.29015147743226 -411.60098946718483
  endloop
endfacet
facet normal 1.2426353840333123e-13 -0.9449273537339851 -0.32728014936028205
  outer loop
    vertex 795.6559394608154 244.2901514774296 -411.60098946718483
    vertex 815.9559394608156 243.7378617993893 -410.0064117789632
    vertex 795.6559394608155 243.73786179938662 -410.0064117789632
  endloop
endfacet
facet normal 1.0601036542024693e-13 -0.8061262004290164 0.5917436514081732
  outer loop
    vertex 815.9559394608154 245.4778183018774 -403.7372646128969
    vertex 795.6559394608154 244.47924288763403 -405.09761347782865
    vertex 815.9559394608156 244.47924288763667 -405.09761347782865
  endloop
endfacet
facet normal 1.0601036542024693e-13 -0.8061262004290164 0.5917436514081732
  outer loop
    vertex 795.6559394608154 244.47924288763403 -405.09761347782865
    vertex 815.9559394608154 245.4778183018774 -403.7372646128969
    vertex 795.6559394608154 245.4778183018747 -403.7372646128969
  endloop
endfacet
facet normal -5.77037858589233e-14 0.43879231488761755 -0.8985885067123696
  outer loop
    vertex 795.6559394608145 252.87123206993815 -415.1439347391093
    vertex 815.955939460814 254.3876123271465 -414.4034667736958
    vertex 815.9559394608142 252.8712320699408 -415.1439347391093
  endloop
endfacet
facet normal -5.77037858589233e-14 0.43879231488761755 -0.8985885067123696
  outer loop
    vertex 815.955939460814 254.3876123271465 -414.4034667736958
    vertex 795.6559394608145 252.87123206993815 -415.1439347391093
    vertex 795.6559394608141 254.38761232714384 -414.4034667736958
  endloop
endfacet
facet normal 2.774715706709e-14 -0.210995502284545 0.9774870321470729
  outer loop
    vertex 795.6559394608147 249.93883256476113 -401.5588940233149
    vertex 815.9559394608151 248.2893099788969 -401.91495178683346
    vertex 815.9559394608149 249.93883256476383 -401.5588940233149
  endloop
endfacet
facet normal 2.774715706709e-14 -0.210995502284545 0.9774870321470729
  outer loop
    vertex 815.9559394608151 248.2893099788969 -401.91495178683346
    vertex 795.6559394608147 249.93883256476113 -401.5588940233149
    vertex 795.6559394608149 248.28930997889427 -401.91495178683346
  endloop
endfacet
facet normal 4.063756329632205e-14 -0.3090169943748049 -0.9510565162951998
  outer loop
    vertex 795.6559394608146 250.58027102441577 -405.6294432629714
    vertex 815.9559394608145 252.2848482560667 -406.1832939792838
    vertex 815.9559394608146 250.58027102441844 -405.6294432629714
  endloop
endfacet
facet normal 4.063756329632205e-14 -0.3090169943748049 -0.9510565162951998
  outer loop
    vertex 815.9559394608145 252.2848482560667 -406.1832939792838
    vertex 795.6559394608146 250.58027102441577 -405.6294432629714
    vertex 795.6559394608145 252.284848256064 -406.1832939792838
  endloop
endfacet
facet normal -1.3150591726684997e-13 1.0 1.4643841694805822e-13
  outer loop
    vertex 795.6559394608149 247.82220712716006 -407.6332939792845
    vertex 815.9559394608151 247.82220712716298 -409.4255925466591
    vertex 795.6559394608149 247.82220712716034 -409.4255925466591
  endloop
endfacet
facet normal -1.3150591726684997e-13 1.0 1.4643841694805822e-13
  outer loop
    vertex 815.9559394608151 247.82220712716298 -409.4255925466591
    vertex 795.6559394608149 247.82220712716006 -407.6332939792845
    vertex 815.9559394608151 247.82220712716273 -407.6332939792845
  endloop
endfacet
facet normal -8.430688036136697e-14 0.6410881130946178 -0.7674672835038526
  outer loop
    vertex 795.6559394608141 254.38761232714384 -414.4034667736958
    vertex 815.9559394608137 255.68272374696033 -413.3216219130458
    vertex 815.955939460814 254.3876123271465 -414.4034667736958
  endloop
endfacet
facet normal -8.430688036136697e-14 0.6410881130946178 -0.7674672835038526
  outer loop
    vertex 815.9559394608137 255.68272374696033 -413.3216219130458
    vertex 795.6559394608141 254.38761232714384 -414.4034667736958
    vertex 795.655939460814 255.68272374695766 -413.3216219130458
  endloop
endfacet
facet normal -1.2155291337290247e-13 0.9243151631440002 -0.3816300291933022
  outer loop
    vertex 795.6559394608137 257.32530499646407 -410.40147871026363
    vertex 815.955939460814 256.68129916120097 -411.9612730481141
    vertex 795.6559394608138 256.68129916119824 -411.9612730481141
  endloop
endfacet
facet normal -1.2155291337290247e-13 0.9243151631440002 -0.3816300291933022
  outer loop
    vertex 815.955939460814 256.68129916120097 -411.9612730481141
    vertex 795.6559394608137 257.32530499646407 -410.40147871026363
    vertex 815.9559394608137 257.32530499646674 -410.40147871026363
  endloop
endfacet
facet normal 3.51691055217648e-14 -0.2674336353274628 -0.96357628172114
  outer loop
    vertex 795.6559394608149 247.90886082006293 -414.9996494049794
    vertex 815.9559394608149 249.53490882646577 -415.4509472812532
    vertex 815.9559394608151 247.9088608200656 -414.9996494049794
  endloop
endfacet
facet normal 3.51691055217648e-14 -0.2674336353274628 -0.96357628172114
  outer loop
    vertex 815.9559394608149 249.53490882646577 -415.4509472812532
    vertex 795.6559394608149 247.90886082006293 -414.9996494049794
    vertex 795.6559394608149 249.5349088264631 -415.4509472812532
  endloop
endfacet
facet normal 1.0 1.3150591726684997e-13 1.9267138749117992e-26
  outer loop
    vertex 815.9559394608137 257.4226802494484 -407.0524747469796
    vertex 815.9559394608137 257.32530499646674 -410.40147871026363
    vertex 815.9559394608137 257.5773139744781 -408.7328884767885
  endloop
endfacet
facet normal 1.0 1.3150591726684997e-13 1.9267138749117992e-26
  outer loop
    vertex 815.9559394608137 257.32530499646674 -410.40147871026363
    vertex 815.9559394608137 257.4226802494484 -407.0524747469796
    vertex 815.955939460814 256.8703905714053 -405.45789705875796
  endloop
endfacet
facet normal 1.0 1.3150591726684997e-13 1.9267138749117992e-26
  outer loop
    vertex 815.9559394608137 257.32530499646674 -410.40147871026363
    vertex 815.955939460814 256.8703905714053 -405.45789705875796
    vertex 815.955939460814 256.68129916120097 -411.9612730481141
  endloop
endfacet
facet normal 1.0 1.3150591726684997e-13 1.9267138749117992e-26
  outer loop
    vertex 815.955939460814 256.68129916120097 -411.9612730481141
    vertex 815.955939460814 256.8703905714053 -405.45789705875796
    vertex 815.955939460814 255.95254200894587 -404.0418264713091
  endloop
endfacet
facet normal 1.0 1.3150591726684997e-13 1.9267138749117992e-26
  outer loop
    vertex 815.955939460814 256.68129916120097 -411.9612730481141
    vertex 815.955939460814 255.95254200894587 -404.0418264713091
    vertex 815.9559394608137 255.68272374696033 -413.3216219130458
  endloop
endfacet
facet normal 1.0 1.3150591726684997e-13 1.9267138749117992e-26
  outer loop
    vertex 815.9559394608137 255.68272374696033 -413.3216219130458
    vertex 815.955939460814 255.95254200894587 -404.0418264713091
    vertex 815.9559394608142 254.72247658427605 -402.8865598599683
  endloop
endfacet
facet normal 1.0 1.3150591726684997e-13 1.9267138749117992e-26
  outer loop
    vertex 815.9559394608137 255.68272374696033 -413.3216219130458
    vertex 815.9559394608142 254.72247658427605 -402.8865598599683
    vertex 815.955939460814 254.3876123271465 -414.4034667736958
  endloop
endfacet
facet normal 1.0 1.3150591726684997e-13 1.9267138749117992e-26
  outer loop
    vertex 815.955939460814 254.3876123271465 -414.4034667736958
    vertex 815.9559394608142 254.72247658427605 -402.8865598599683
    vertex 815.9559394608143 253.251681228772 -402.0592371209634
  endloop
endfacet
facet normal 1.0 1.3150591726684997e-13 1.9267138749117992e-26
  outer loop
    vertex 815.955939460814 254.3876123271465 -414.4034667736958
    vertex 815.9559394608143 253.251681228772 -402.0592371209634
    vertex 815.9559394608143 253.3383349216746 -407.6332939792837
  endloop
endfacet
facet normal 1.0 1.3150591726684997e-13 1.9267138749117992e-26
  outer loop
    vertex 815.9559394608143 253.3383349216746 -407.6332939792837
    vertex 815.9559394608143 253.251681228772 -402.0592371209634
    vertex 815.9559394608145 252.2848482560667 -406.1832939792838
  endloop
endfacet
facet normal 1.0 1.3150591726684997e-13 1.9267138749117992e-26
  outer loop
    vertex 815.9559394608145 252.2848482560667 -406.1832939792838
    vertex 815.9559394608143 253.251681228772 -402.0592371209634
    vertex 815.9559394608143 251.62563322237196 -401.6079392446896
  endloop
endfacet
facet normal 1.0 1.3150591726684997e-13 1.9267138749117992e-26
  outer loop
    vertex 815.9559394608145 252.2848482560667 -406.1832939792838
    vertex 815.9559394608143 251.62563322237196 -401.6079392446896
    vertex 815.9559394608146 250.58027102441844 -405.6294432629714
  endloop
endfacet
facet normal 1.0 1.3150591726684997e-13 1.9267138749117992e-26
  outer loop
    vertex 815.9559394608146 250.58027102441844 -405.6294432629714
    vertex 815.9559394608143 251.62563322237196 -401.6079392446896
    vertex 815.9559394608149 249.93883256476383 -401.5588940233149
  endloop
endfacet
facet normal 1.0 1.3150591726684997e-13 1.9267138749117992e-26
  outer loop
    vertex 815.9559394608146 250.58027102441844 -405.6294432629714
    vertex 815.9559394608149 249.93883256476383 -401.5588940233149
    vertex 815.9559394608146 248.87569379277033 -406.1832939792843
  endloop
endfacet
facet normal 1.0 1.3150591726684997e-13 1.9267138749117992e-26
  outer loop
    vertex 815.9559394608146 248.87569379277033 -406.1832939792843
    vertex 815.9559394608149 249.93883256476383 -401.5588940233149
    vertex 815.9559394608151 248.2893099788969 -401.91495178683346
  endloop
endfacet
facet normal 1.0 1.3150591726684997e-13 1.9267138749117992e-26
  outer loop
    vertex 815.9559394608146 248.87569379277033 -406.1832939792843
    vertex 815.9559394608151 248.2893099788969 -401.91495178683346
    vertex 815.9559394608151 247.82220712716273 -407.6332939792845
  endloop
endfacet
facet normal 1.0 1.3150591726684997e-13 1.9267138749117992e-26
  outer loop
    vertex 815.9559394608151 247.82220712716273 -407.6332939792845
    vertex 815.9559394608151 248.2893099788969 -401.91495178683346
    vertex 815.9559394608152 246.77292972169107 -402.6554197522469
  endloop
endfacet
facet normal 1.0 1.3150591726684997e-13 1.9267138749117992e-26
  outer loop
    vertex 815.9559394608151 247.82220712716273 -407.6332939792845
    vertex 815.9559394608152 246.77292972169107 -402.6554197522469
    vertex 815.9559394608151 247.82220712716298 -409.4255925466591
  endloop
endfacet
facet normal 1.0 1.3150591726684997e-13 1.9267138749117992e-26
  outer loop
    vertex 815.955939460814 254.3876123271465 -414.4034667736958
    vertex 815.9559394608143 253.33833492167486 -409.4255925466583
    vertex 815.9559394608142 252.8712320699408 -415.1439347391093
  endloop
endfacet
facet normal 1.0 1.3150591726684997e-13 1.9267138749117992e-26
  outer loop
    vertex 815.9559394608143 253.33833492167486 -409.4255925466583
    vertex 815.955939460814 254.3876123271465 -414.4034667736958
    vertex 815.9559394608143 253.3383349216746 -407.6332939792837
  endloop
endfacet
facet normal 1.0 1.3150591726684997e-13 1.9267138749117992e-26
  outer loop
    vertex 815.9559394608142 252.8712320699408 -415.1439347391093
    vertex 815.9559394608143 253.33833492167486 -409.4255925466583
    vertex 815.9559394608145 252.28484825606733 -410.8755925466584
  endloop
endfacet
facet normal 1.0 1.3150591726684997e-13 1.9267138749117992e-26
  outer loop
    vertex 815.9559394608142 252.8712320699408 -415.1439347391093
    vertex 815.9559394608145 252.28484825606733 -410.8755925466584
    vertex 815.9559394608146 251.22170948407384 -415.49999250262783
  endloop
endfacet
facet normal 1.0 1.3150591726684997e-13 1.9267138749117992e-26
  outer loop
    vertex 815.9559394608146 251.22170948407384 -415.49999250262783
    vertex 815.9559394608145 252.28484825606733 -410.8755925466584
    vertex 815.9559394608146 250.5802710244193 -411.42944326297135
  endloop
endfacet
facet normal 1.0 1.3150591726684997e-13 1.9267138749117992e-26
  outer loop
    vertex 815.9559394608146 251.22170948407384 -415.49999250262783
    vertex 815.9559394608146 250.5802710244193 -411.42944326297135
    vertex 815.9559394608149 249.53490882646577 -415.4509472812532
  endloop
endfacet
facet normal 1.0 1.3150591726684997e-13 1.9267138749117992e-26
  outer loop
    vertex 815.9559394608149 249.53490882646577 -415.4509472812532
    vertex 815.9559394608146 250.5802710244193 -411.42944326297135
    vertex 815.9559394608146 248.87569379277096 -410.875592546659
  endloop
endfacet
facet normal 1.0 1.3150591726684997e-13 1.9267138749117992e-26
  outer loop
    vertex 815.9559394608149 249.53490882646577 -415.4509472812532
    vertex 815.9559394608146 248.87569379277096 -410.875592546659
    vertex 815.9559394608151 247.9088608200656 -414.9996494049794
  endloop
endfacet
facet normal 1.0 1.3150591726684997e-13 1.9267138749117992e-26
  outer loop
    vertex 815.9559394608151 247.9088608200656 -414.9996494049794
    vertex 815.9559394608146 248.87569379277096 -410.875592546659
    vertex 815.9559394608151 247.82220712716298 -409.4255925466591
  endloop
endfacet
facet normal 1.0 1.3150591726684997e-13 1.9267138749117992e-26
  outer loop
    vertex 815.9559394608151 247.9088608200656 -414.9996494049794
    vertex 815.9559394608151 247.82220712716298 -409.4255925466591
    vertex 815.9559394608152 246.43806546456162 -414.1723266659744
  endloop
endfacet
facet normal 1.0 1.3150591726684997e-13 1.9267138749117992e-26
  outer loop
    vertex 815.9559394608152 246.43806546456162 -414.1723266659744
    vertex 815.9559394608151 247.82220712716298 -409.4255925466591
    vertex 815.9559394608152 246.77292972169107 -402.6554197522469
  endloop
endfacet
facet normal 1.0 1.3150591726684997e-13 1.9267138749117992e-26
  outer loop
    vertex 815.9559394608152 246.43806546456162 -414.1723266659744
    vertex 815.9559394608152 246.77292972169107 -402.6554197522469
    vertex 815.9559394608154 245.4778183018774 -403.7372646128969
  endloop
endfacet
facet normal 1.0 1.3150591726684997e-13 1.9267138749117992e-26
  outer loop
    vertex 815.9559394608152 246.43806546456162 -414.1723266659744
    vertex 815.9559394608154 245.4778183018774 -403.7372646128969
    vertex 815.9559394608154 245.20800003989186 -413.01706005463365
  endloop
endfacet
facet normal 1.0 1.3150591726684997e-13 1.9267138749117992e-26
  outer loop
    vertex 815.9559394608154 245.20800003989186 -413.01706005463365
    vertex 815.9559394608154 245.4778183018774 -403.7372646128969
    vertex 815.9559394608156 244.47924288763667 -405.09761347782865
  endloop
endfacet
facet normal 1.0 1.3150591726684997e-13 1.9267138749117992e-26
  outer loop
    vertex 815.9559394608154 245.20800003989186 -413.01706005463365
    vertex 815.9559394608156 244.47924288763667 -405.09761347782865
    vertex 815.9559394608156 244.29015147743226 -411.60098946718483
  endloop
endfacet
facet normal 1.0 1.3150591726684997e-13 1.9267138749117992e-26
  outer loop
    vertex 815.9559394608156 244.29015147743226 -411.60098946718483
    vertex 815.9559394608156 244.47924288763667 -405.09761347782865
    vertex 815.9559394608156 243.83523705237084 -406.65740781567916
  endloop
endfacet
facet normal 1.0 1.3150591726684997e-13 1.9267138749117992e-26
  outer loop
    vertex 815.9559394608156 244.29015147743226 -411.60098946718483
    vertex 815.9559394608156 243.83523705237084 -406.65740781567916
    vertex 815.9559394608156 243.7378617993893 -410.0064117789632
  endloop
endfacet
facet normal 1.0 1.3150591726684997e-13 1.9267138749117992e-26
  outer loop
    vertex 815.9559394608156 243.7378617993893 -410.0064117789632
    vertex 815.9559394608156 243.83523705237084 -406.65740781567916
    vertex 815.9559394608154 243.58322807435954 -408.32599804915424
  endloop
endfacet
facet normal 1.3003124782718719e-13 -0.9887862883259654 0.14933745685045294
  outer loop
    vertex 815.9559394608156 243.83523705237084 -406.65740781567916
    vertex 795.6559394608155 243.58322807435678 -408.32599804915424
    vertex 815.9559394608154 243.58322807435954 -408.32599804915424
  endloop
endfacet
facet normal 1.3003124782718719e-13 -0.9887862883259654 0.14933745685045294
  outer loop
    vertex 795.6559394608155 243.58322807435678 -408.32599804915424
    vertex 815.9559394608156 243.83523705237084 -406.65740781567916
    vertex 795.6559394608155 243.83523705236817 -406.65740781567916
  endloop
endfacet
facet normal 1.1035269283213446e-13 -0.8391462158177859 -0.5439059003896629
  outer loop
    vertex 815.9559394608156 244.29015147743226 -411.60098946718483
    vertex 795.6559394608154 245.20800003988919 -413.01706005463365
    vertex 815.9559394608154 245.20800003989186 -413.01706005463365
  endloop
endfacet
facet normal 1.1035269283213446e-13 -0.8391462158177859 -0.5439059003896629
  outer loop
    vertex 795.6559394608154 245.20800003988919 -413.01706005463365
    vertex 815.9559394608156 244.29015147743226 -411.60098946718483
    vertex 795.6559394608154 244.2901514774296 -411.60098946718483
  endloop
endfacet
facet normal 9.002854986925005e-14 -0.684596950010632 -0.7289218175059244
  outer loop
    vertex 795.6559394608154 245.20800003988919 -413.01706005463365
    vertex 815.9559394608152 246.43806546456162 -414.1723266659744
    vertex 815.9559394608154 245.20800003989186 -413.01706005463365
  endloop
endfacet
facet normal 9.002854986925005e-14 -0.684596950010632 -0.7289218175059244
  outer loop
    vertex 815.9559394608152 246.43806546456162 -414.1723266659744
    vertex 795.6559394608154 245.20800003988919 -413.01706005463365
    vertex 795.6559394608151 246.43806546455892 -414.1723266659744
  endloop
endfacet
facet normal -1.242635384033314e-13 0.9449273537339864 0.32728014936027794
  outer loop
    vertex 795.6559394608138 256.87039057140265 -405.45789705875796
    vertex 815.9559394608137 257.4226802494484 -407.0524747469796
    vertex 795.6559394608137 257.42268024944565 -407.0524747469796
  endloop
endfacet
facet normal -1.242635384033314e-13 0.9449273537339864 0.32728014936027794
  outer loop
    vertex 815.9559394608137 257.4226802494484 -407.0524747469796
    vertex 795.6559394608138 256.87039057140265 -405.45789705875796
    vertex 815.955939460814 256.8703905714053 -405.45789705875796
  endloop
endfacet
facet normal -1.3003124782718719e-13 0.9887862883259654 -0.14933745685045294
  outer loop
    vertex 795.6559394608137 257.5773139744755 -408.7328884767885
    vertex 815.9559394608137 257.32530499646674 -410.40147871026363
    vertex 795.6559394608137 257.32530499646407 -410.40147871026363
  endloop
endfacet
facet normal -1.3003124782718719e-13 0.9887862883259654 -0.14933745685045294
  outer loop
    vertex 815.9559394608137 257.32530499646674 -410.40147871026363
    vertex 795.6559394608137 257.5773139744755 -408.7328884767885
    vertex 815.9559394608137 257.5773139744781 -408.7328884767885
  endloop
endfacet
facet normal -6.447227482843035e-14 0.4902613978775366 0.8715754481117306
  outer loop
    vertex 795.6559394608141 254.72247658427338 -402.8865598599683
    vertex 815.9559394608143 253.251681228772 -402.0592371209634
    vertex 815.9559394608142 254.72247658427605 -402.8865598599683
  endloop
endfacet
facet normal -6.447227482843035e-14 0.4902613978775366 0.8715754481117306
  outer loop
    vertex 815.9559394608143 253.251681228772 -402.0592371209634
    vertex 795.6559394608141 254.72247658427338 -402.8865598599683
    vertex 795.6559394608142 253.2516812287693 -402.0592371209634
  endloop
endfacet
facet normal -3.51691055217648e-14 0.2674336353274628 0.96357628172114
  outer loop
    vertex 795.6559394608142 253.2516812287693 -402.0592371209634
    vertex 815.9559394608143 251.62563322237196 -401.6079392446896
    vertex 815.9559394608143 253.251681228772 -402.0592371209634
  endloop
endfacet
facet normal -3.51691055217648e-14 0.2674336353274628 0.96357628172114
  outer loop
    vertex 815.9559394608143 251.62563322237196 -401.6079392446896
    vertex 795.6559394608142 253.2516812287693 -402.0592371209634
    vertex 795.6559394608146 251.6256332223693 -401.6079392446896
  endloop
endfacet
facet normal 1.0639052192974839e-13 -0.8090169943750405 0.5877852522923452
  outer loop
    vertex 815.9559394608143 253.33833492167486 -409.4255925466583
    vertex 795.6559394608145 252.28484825606466 -410.8755925466584
    vertex 815.9559394608145 252.28484825606733 -410.8755925466584
  endloop
endfacet
facet normal 1.0639052192974839e-13 -0.8090169943750405 0.5877852522923452
  outer loop
    vertex 795.6559394608145 252.28484825606466 -410.8755925466584
    vertex 815.9559394608143 253.33833492167486 -409.4255925466583
    vertex 795.6559394608142 253.3383349216722 -409.4255925466583
  endloop
endfacet
facet normal -1.1035269283213446e-13 0.8391462158177859 0.5439059003896629
  outer loop
    vertex 795.6559394608139 255.95254200894317 -404.0418264713091
    vertex 815.955939460814 256.8703905714053 -405.45789705875796
    vertex 795.6559394608138 256.87039057140265 -405.45789705875796
  endloop
endfacet
facet normal -1.1035269283213446e-13 0.8391462158177859 0.5439059003896629
  outer loop
    vertex 815.955939460814 256.8703905714053 -405.45789705875796
    vertex 795.6559394608139 255.95254200894317 -404.0418264713091
    vertex 815.955939460814 255.95254200894587 -404.0418264713091
  endloop
endfacet
facet normal -1.0639052192974839e-13 0.8090169943750405 -0.5877852522923452
  outer loop
    vertex 795.6559394608149 248.87569379276763 -406.1832939792843
    vertex 815.9559394608151 247.82220712716273 -407.6332939792845
    vertex 795.6559394608149 247.82220712716006 -407.6332939792845
  endloop
endfacet
facet normal -1.0639052192974839e-13 0.8090169943750405 -0.5877852522923452
  outer loop
    vertex 815.9559394608151 247.82220712716273 -407.6332939792845
    vertex 795.6559394608149 248.87569379276763 -406.1832939792843
    vertex 815.9559394608146 248.87569379277033 -406.1832939792843
  endloop
endfacet
facet normal 1.2155291337290247e-13 -0.9243151631440002 0.3816300291933022
  outer loop
    vertex 815.9559394608156 244.47924288763667 -405.09761347782865
    vertex 795.6559394608155 243.83523705236817 -406.65740781567916
    vertex 815.9559394608156 243.83523705237084 -406.65740781567916
  endloop
endfacet
facet normal 1.2155291337290247e-13 -0.9243151631440002 0.3816300291933022
  outer loop
    vertex 795.6559394608155 243.83523705236817 -406.65740781567916
    vertex 815.9559394608156 244.47924288763667 -405.09761347782865
    vertex 795.6559394608154 244.47924288763403 -405.09761347782865
  endloop
endfacet
facet normal -2.774715706709e-14 0.210995502284545 -0.9774870321470729
  outer loop
    vertex 795.6559394608146 251.22170948407117 -415.49999250262783
    vertex 815.9559394608142 252.8712320699408 -415.1439347391093
    vertex 815.9559394608146 251.22170948407384 -415.49999250262783
  endloop
endfacet
facet normal -2.774715706709e-14 0.210995502284545 -0.9774870321470729
  outer loop
    vertex 815.9559394608142 252.8712320699408 -415.1439347391093
    vertex 795.6559394608146 251.22170948407117 -415.49999250262783
    vertex 795.6559394608145 252.87123206993815 -415.1439347391093
  endloop
endfacet
facet normal 3.8220356366724475e-15 -0.02906360197387596 -0.9995775642941893
  outer loop
    vertex 795.6559394608149 249.5349088264631 -415.4509472812532
    vertex 815.9559394608146 251.22170948407384 -415.49999250262783
    vertex 815.9559394608149 249.53490882646577 -415.4509472812532
  endloop
endfacet
facet normal 3.8220356366724475e-15 -0.02906360197387596 -0.9995775642941893
  outer loop
    vertex 815.9559394608146 251.22170948407384 -415.49999250262783
    vertex 795.6559394608149 249.5349088264631 -415.4509472812532
    vertex 795.6559394608146 251.22170948407117 -415.49999250262783
  endloop
endfacet
facet normal -9.002854986925005e-14 0.684596950010632 0.7289218175059244
  outer loop
    vertex 795.6559394608139 255.95254200894317 -404.0418264713091
    vertex 815.9559394608142 254.72247658427605 -402.8865598599683
    vertex 815.955939460814 255.95254200894587 -404.0418264713091
  endloop
endfacet
facet normal -9.002854986925005e-14 0.684596950010632 0.7289218175059244
  outer loop
    vertex 815.9559394608142 254.72247658427605 -402.8865598599683
    vertex 795.6559394608139 255.95254200894317 -404.0418264713091
    vertex 795.6559394608141 254.72247658427338 -402.8865598599683
  endloop
endfacet
facet normal 1.0639052192974837e-13 -0.8090169943748684 -0.5877852522925822
  outer loop
    vertex 815.9559394608145 252.2848482560667 -406.1832939792838
    vertex 795.6559394608142 253.33833492167193 -407.6332939792837
    vertex 815.9559394608143 253.3383349216746 -407.6332939792837
  endloop
endfacet
facet normal 1.0639052192974837e-13 -0.8090169943748684 -0.5877852522925822
  outer loop
    vertex 795.6559394608142 253.33833492167193 -407.6332939792837
    vertex 815.9559394608145 252.2848482560667 -406.1832939792838
    vertex 795.6559394608145 252.284848256064 -406.1832939792838
  endloop
endfacet
facet normal 4.063756329632206e-14 -0.3090169943750835 0.9510565162951095
  outer loop
    vertex 795.6559394608145 252.28484825606466 -410.8755925466584
    vertex 815.9559394608146 250.5802710244193 -411.42944326297135
    vertex 815.9559394608145 252.28484825606733 -410.8755925466584
  endloop
endfacet
facet normal 4.063756329632206e-14 -0.3090169943750835 0.9510565162951095
  outer loop
    vertex 815.9559394608146 250.5802710244193 -411.42944326297135
    vertex 795.6559394608145 252.28484825606466 -410.8755925466584
    vertex 795.6559394608146 250.5802710244166 -411.42944326297135
  endloop
endfacet
facet normal 6.447227482843035e-14 -0.4902613978775366 -0.8715754481117306
  outer loop
    vertex 795.6559394608151 246.43806546455892 -414.1723266659744
    vertex 815.9559394608151 247.9088608200656 -414.9996494049794
    vertex 815.9559394608152 246.43806546456162 -414.1723266659744
  endloop
endfacet
facet normal 6.447227482843035e-14 -0.4902613978775366 -0.8715754481117306
  outer loop
    vertex 815.9559394608151 247.9088608200656 -414.9996494049794
    vertex 795.6559394608151 246.43806546455892 -414.1723266659744
    vertex 795.6559394608149 247.90886082006293 -414.9996494049794
  endloop
endfacet
facet normal 5.770378585892472e-14 -0.4387923148876283 0.8985885067123642
  outer loop
    vertex 795.6559394608149 248.28930997889427 -401.91495178683346
    vertex 815.9559394608152 246.77292972169107 -402.6554197522469
    vertex 815.9559394608151 248.2893099788969 -401.91495178683346
  endloop
endfacet
facet normal 5.770378585892472e-14 -0.4387923148876283 0.8985885067123642
  outer loop
    vertex 815.9559394608152 246.77292972169107 -402.6554197522469
    vertex 795.6559394608149 248.28930997889427 -401.91495178683346
    vertex 795.6559394608153 246.77292972168843 -402.6554197522469
  endloop
endfacet
facet normal -4.063756329632205e-14 0.3090169943748049 0.9510565162951998
  outer loop
    vertex 795.6559394608146 250.5802710244166 -411.42944326297135
    vertex 815.9559394608146 248.87569379277096 -410.875592546659
    vertex 815.9559394608146 250.5802710244193 -411.42944326297135
  endloop
endfacet
facet normal -4.063756329632205e-14 0.3090169943748049 0.9510565162951998
  outer loop
    vertex 815.9559394608146 248.87569379277096 -410.875592546659
    vertex 795.6559394608146 250.5802710244166 -411.42944326297135
    vertex 795.6559394608149 248.87569379276832 -410.875592546659
  endloop
endfacet
facet normal -3.8220356366724475e-15 0.02906360197387596 0.9995775642941893
  outer loop
    vertex 815.9559394608143 251.62563322237196 -401.6079392446896
    vertex 795.6559394608147 249.93883256476113 -401.5588940233149
    vertex 815.9559394608149 249.93883256476383 -401.5588940233149
  endloop
endfacet
facet normal -3.8220356366724475e-15 0.02906360197387596 0.9995775642941893
  outer loop
    vertex 795.6559394608147 249.93883256476113 -401.5588940233149
    vertex 815.9559394608143 251.62563322237196 -401.6079392446896
    vertex 795.6559394608146 251.6256332223693 -401.6079392446896
  endloop
endfacet
endsolid FINAL_RC1
