solid FINAL_RC1
facet normal 1.5541949087981474e-15 -0.9510565162951548 -0.30901699437494423
  outer loop
    vertex 782.9165584498758 351.36520687221235 -394.7830943555649
    vertex 808.716558449876 351.91905758852505 -396.487671587213
    vertex 808.716558449876 351.36520687221235 -394.78309435556486
  endloop
endfacet
facet normal 1.5541949087981474e-15 -0.9510565162951548 -0.30901699437494423
  outer loop
    vertex 808.716558449876 351.91905758852505 -396.487671587213
    vertex 782.9165584498758 351.36520687221235 -394.7830943555649
    vertex 782.9165584498759 351.91905758852505 -396.48767158721313
  endloop
endfacet
facet normal 5.00832008641484e-15 0.09163406566486375 -0.9957927485223658
  outer loop
    vertex 782.916558449876 350.49602610451575 -403.33008081224284
    vertex 808.716558449876 348.81561237470686 -403.48471453727234
    vertex 782.916558449876 348.81561237470686 -403.4847145372724
  endloop
endfacet
facet normal 5.00832008641484e-15 0.09163406566486375 -0.9957927485223658
  outer loop
    vertex 808.716558449876 348.81561237470686 -403.48471453727234
    vertex 782.916558449876 350.49602610451575 -403.33008081224284
    vertex 808.716558449876 350.49602610451575 -403.3300808122427
  endloop
endfacet
facet normal -5.00832008641484e-15 -0.09163406566486253 0.9957927485223659
  outer loop
    vertex 808.7165584498758 349.2225028023432 -389.49062863715375
    vertex 782.9165584498758 347.5420890725342 -389.6452623621834
    vertex 808.7165584498758 347.5420890725342 -389.6452623621833
  endloop
endfacet
facet normal -5.00832008641484e-15 -0.09163406566486253 0.9957927485223659
  outer loop
    vertex 782.9165584498758 347.5420890725342 -389.6452623621834
    vertex 808.7165584498758 349.2225028023432 -389.49062863715375
    vertex 782.9165584498758 349.2225028023432 -389.4906286371538
  endloop
endfacet
facet normal 4.054395904955522e-15 -0.5917436514082912 -0.8061262004289297
  outer loop
    vertex 782.916558449876 345.5872278033814 -402.58869972399475
    vertex 808.716558449876 344.22687893844983 -401.5901243097538
    vertex 782.916558449876 344.22687893844983 -401.5901243097539
  endloop
endfacet
facet normal 4.054395904955522e-15 -0.5917436514082912 -0.8061262004289297
  outer loop
    vertex 808.716558449876 344.22687893844983 -401.5901243097538
    vertex 782.916558449876 345.5872278033814 -402.58869972399475
    vertex 808.716558449876 345.5872278033814 -402.58869972399464
  endloop
endfacet
facet normal -5.029480375154943e-15 0.0 1.0
  outer loop
    vertex 808.716558449876 349.91520687221237 -399.245735484469
    vertex 782.916558449876 348.12290830483767 -399.24573548446904
    vertex 808.716558449876 348.12290830483767 -399.245735484469
  endloop
endfacet
facet normal -5.029480375154943e-15 0.0 1.0
  outer loop
    vertex 782.916558449876 348.12290830483767 -399.24573548446904
    vertex 808.716558449876 349.91520687221237 -399.245735484469
    vertex 782.916558449876 349.91520687221237 -399.24573548446904
  endloop
endfacet
facet normal -1.0 0.0 -5.029480375154943e-15
  outer loop
    vertex 782.916558449876 342.40456611238676 -398.77863263273406
    vertex 782.916558449876 348.12290830483767 -399.24573548446904
    vertex 782.916558449876 343.1450340778 -400.29501288994
  endloop
endfacet
facet normal -1.0 0.0 -5.029480375154943e-15
  outer loop
    vertex 782.916558449876 348.12290830483767 -399.24573548446904
    vertex 782.916558449876 342.40456611238676 -398.77863263273406
    vertex 782.916558449876 346.6729083048376 -398.1922488188613
  endloop
endfacet
facet normal -1.0 0.0 -5.029480375154943e-15
  outer loop
    vertex 782.916558449876 346.6729083048376 -398.1922488188613
    vertex 782.916558449876 342.40456611238676 -398.77863263273406
    vertex 782.9165584498759 342.04850834886844 -397.12911004686714
  endloop
endfacet
facet normal -1.0 0.0 -5.029480375154943e-15
  outer loop
    vertex 782.916558449876 346.6729083048376 -398.1922488188613
    vertex 782.9165584498759 342.04850834886844 -397.12911004686714
    vertex 782.9165584498759 346.119057588525 -396.48767158721313
  endloop
endfacet
facet normal -1.0 0.0 -5.029480375154943e-15
  outer loop
    vertex 782.9165584498759 346.119057588525 -396.48767158721313
    vertex 782.9165584498759 342.04850834886844 -397.12911004686714
    vertex 782.9165584498759 342.0975535702434 -395.442309389259
  endloop
endfacet
facet normal -1.0 0.0 -5.029480375154943e-15
  outer loop
    vertex 782.9165584498759 346.119057588525 -396.48767158721313
    vertex 782.9165584498759 342.0975535702434 -395.442309389259
    vertex 782.9165584498758 346.6729083048376 -394.7830943555649
  endloop
endfacet
facet normal -1.0 0.0 -5.029480375154943e-15
  outer loop
    vertex 782.9165584498758 346.6729083048376 -394.7830943555649
    vertex 782.9165584498759 342.0975535702434 -395.442309389259
    vertex 782.9165584498758 342.5488514465174 -393.81626138285895
  endloop
endfacet
facet normal -1.0 0.0 -5.029480375154943e-15
  outer loop
    vertex 782.9165584498758 346.6729083048376 -394.7830943555649
    vertex 782.9165584498758 342.5488514465174 -393.81626138285895
    vertex 782.9165584498758 348.12290830483767 -393.72960768995716
  endloop
endfacet
facet normal -1.0 0.0 -5.029480375154943e-15
  outer loop
    vertex 782.9165584498758 348.12290830483767 -393.72960768995716
    vertex 782.9165584498758 342.5488514465174 -393.81626138285895
    vertex 782.9165584498758 343.37617418552253 -392.34546602735503
  endloop
endfacet
facet normal -1.0 0.0 -5.029480375154943e-15
  outer loop
    vertex 782.9165584498758 348.12290830483767 -393.72960768995716
    vertex 782.9165584498758 343.37617418552253 -392.34546602735503
    vertex 782.9165584498758 349.91520687221237 -393.72960768995716
  endloop
endfacet
facet normal -1.0 0.0 -5.029480375154943e-15
  outer loop
    vertex 782.9165584498758 349.91520687221237 -393.72960768995716
    vertex 782.9165584498758 343.37617418552253 -392.34546602735503
    vertex 782.9165584498758 354.89308109925 -392.6803302844863
  endloop
endfacet
facet normal -1.0 0.0 -5.029480375154943e-15
  outer loop
    vertex 782.9165584498758 354.89308109925 -392.6803302844863
    vertex 782.9165584498758 343.37617418552253 -392.34546602735503
    vertex 782.9165584498758 353.8112362386002 -391.38521886467237
  endloop
endfacet
facet normal -1.0 0.0 -5.029480375154943e-15
  outer loop
    vertex 782.9165584498758 353.8112362386002 -391.38521886467237
    vertex 782.9165584498758 343.37617418552253 -392.34546602735503
    vertex 782.9165584498758 344.53144079686354 -391.11540060268544
  endloop
endfacet
facet normal -1.0 0.0 -5.029480375154943e-15
  outer loop
    vertex 782.9165584498758 353.8112362386002 -391.38521886467237
    vertex 782.9165584498758 344.53144079686354 -391.11540060268544
    vertex 782.9165584498758 352.45088737366865 -390.3866434504315
  endloop
endfacet
facet normal -1.0 0.0 -5.029480375154943e-15
  outer loop
    vertex 782.9165584498758 352.45088737366865 -390.3866434504315
    vertex 782.9165584498758 344.53144079686354 -391.11540060268544
    vertex 782.9165584498758 345.9475113843126 -390.1975520402261
  endloop
endfacet
facet normal -1.0 0.0 -5.029480375154943e-15
  outer loop
    vertex 782.9165584498758 352.45088737366865 -390.3866434504315
    vertex 782.9165584498758 345.9475113843126 -390.1975520402261
    vertex 782.9165584498758 350.89109303581824 -389.74263761516545
  endloop
endfacet
facet normal -1.0 0.0 -5.029480375154943e-15
  outer loop
    vertex 782.9165584498758 350.89109303581824 -389.74263761516545
    vertex 782.9165584498758 345.9475113843126 -390.1975520402261
    vertex 782.9165584498758 347.5420890725342 -389.6452623621834
  endloop
endfacet
facet normal -1.0 0.0 -5.029480375154943e-15
  outer loop
    vertex 782.9165584498758 350.89109303581824 -389.74263761516545
    vertex 782.9165584498758 347.5420890725342 -389.6452623621834
    vertex 782.9165584498758 349.2225028023432 -389.4906286371538
  endloop
endfacet
facet normal -1.0 0.0 -5.029480375154943e-15
  outer loop
    vertex 782.916558449876 347.1470221412318 -403.2327055592608
    vertex 782.916558449876 350.49602610451575 -403.33008081224284
    vertex 782.916558449876 348.81561237470686 -403.4847145372724
  endloop
endfacet
facet normal -1.0 0.0 -5.029480375154943e-15
  outer loop
    vertex 782.916558449876 350.49602610451575 -403.33008081224284
    vertex 782.916558449876 347.1470221412318 -403.2327055592608
    vertex 782.916558449876 352.09060379273745 -402.77779113420013
  endloop
endfacet
facet normal -1.0 0.0 -5.029480375154943e-15
  outer loop
    vertex 782.916558449876 352.09060379273745 -402.77779113420013
    vertex 782.916558449876 347.1470221412318 -403.2327055592608
    vertex 782.916558449876 345.5872278033814 -402.58869972399475
  endloop
endfacet
facet normal -1.0 0.0 -5.029480375154943e-15
  outer loop
    vertex 782.916558449876 352.09060379273745 -402.77779113420013
    vertex 782.916558449876 345.5872278033814 -402.58869972399475
    vertex 782.916558449876 353.5066743801865 -401.85994257174076
  endloop
endfacet
facet normal -1.0 0.0 -5.029480375154943e-15
  outer loop
    vertex 782.916558449876 353.5066743801865 -401.85994257174076
    vertex 782.916558449876 345.5872278033814 -402.58869972399475
    vertex 782.916558449876 344.22687893844983 -401.5901243097539
  endloop
endfacet
facet normal -1.0 0.0 -5.029480375154943e-15
  outer loop
    vertex 782.916558449876 353.5066743801865 -401.85994257174076
    vertex 782.916558449876 344.22687893844983 -401.5901243097539
    vertex 782.916558449876 354.6619409915275 -400.62987714707117
  endloop
endfacet
facet normal -1.0 0.0 -5.029480375154943e-15
  outer loop
    vertex 782.916558449876 354.6619409915275 -400.62987714707117
    vertex 782.916558449876 344.22687893844983 -401.5901243097539
    vertex 782.916558449876 343.1450340778 -400.29501288994
  endloop
endfacet
facet normal -1.0 0.0 -5.029480375154943e-15
  outer loop
    vertex 782.916558449876 354.6619409915275 -400.62987714707117
    vertex 782.916558449876 343.1450340778 -400.29501288994
    vertex 782.916558449876 355.4892637305326 -399.15908179156725
  endloop
endfacet
facet normal -1.0 0.0 -5.029480375154943e-15
  outer loop
    vertex 782.916558449876 355.4892637305326 -399.15908179156725
    vertex 782.916558449876 343.1450340778 -400.29501288994
    vertex 782.916558449876 349.91520687221237 -399.24573548446904
  endloop
endfacet
facet normal -1.0 0.0 -5.029480375154943e-15
  outer loop
    vertex 782.916558449876 349.91520687221237 -399.24573548446904
    vertex 782.916558449876 343.1450340778 -400.29501288994
    vertex 782.916558449876 348.12290830483767 -399.24573548446904
  endloop
endfacet
facet normal -1.0 0.0 -5.029480375154943e-15
  outer loop
    vertex 782.916558449876 355.4892637305326 -399.15908179156725
    vertex 782.916558449876 349.91520687221237 -399.24573548446904
    vertex 782.916558449876 351.36520687221235 -398.1922488188613
  endloop
endfacet
facet normal -1.0 0.0 -5.029480375154943e-15
  outer loop
    vertex 782.916558449876 355.4892637305326 -399.15908179156725
    vertex 782.916558449876 351.36520687221235 -398.1922488188613
    vertex 782.916558449876 355.9405616068066 -397.5330337851672
  endloop
endfacet
facet normal -1.0 0.0 -5.029480375154943e-15
  outer loop
    vertex 782.916558449876 355.9405616068066 -397.5330337851672
    vertex 782.916558449876 351.36520687221235 -398.1922488188613
    vertex 782.9165584498759 351.91905758852505 -396.48767158721313
  endloop
endfacet
facet normal -1.0 0.0 -5.029480375154943e-15
  outer loop
    vertex 782.916558449876 355.9405616068066 -397.5330337851672
    vertex 782.9165584498759 351.91905758852505 -396.48767158721313
    vertex 782.9165584498759 355.9896068281816 -395.8462331275591
  endloop
endfacet
facet normal -1.0 0.0 -5.029480375154943e-15
  outer loop
    vertex 782.9165584498759 355.9896068281816 -395.8462331275591
    vertex 782.9165584498759 351.91905758852505 -396.48767158721313
    vertex 782.9165584498758 351.36520687221235 -394.7830943555649
  endloop
endfacet
facet normal -1.0 0.0 -5.029480375154943e-15
  outer loop
    vertex 782.9165584498759 355.9896068281816 -395.8462331275591
    vertex 782.9165584498758 351.36520687221235 -394.7830943555649
    vertex 782.9165584498758 355.63354906466327 -394.19671054169214
  endloop
endfacet
facet normal -1.0 0.0 -5.029480375154943e-15
  outer loop
    vertex 782.9165584498758 355.63354906466327 -394.19671054169214
    vertex 782.9165584498758 351.36520687221235 -394.7830943555649
    vertex 782.9165584498758 349.91520687221237 -393.72960768995716
  endloop
endfacet
facet normal -1.0 0.0 -5.029480375154943e-15
  outer loop
    vertex 782.9165584498758 355.63354906466327 -394.19671054169214
    vertex 782.9165584498758 349.91520687221237 -393.72960768995716
    vertex 782.9165584498758 354.89308109925 -392.6803302844863
  endloop
endfacet
facet normal -3.2243400835538876e-15 0.7674672835039531 0.6410881130944974
  outer loop
    vertex 782.9165584498758 354.89308109925 -392.6803302844863
    vertex 808.7165584498758 353.8112362386002 -391.38521886467225
    vertex 808.7165584498758 354.89308109925 -392.68033028448616
  endloop
endfacet
facet normal -3.2243400835538876e-15 0.7674672835039531 0.6410881130944974
  outer loop
    vertex 808.7165584498758 353.8112362386002 -391.38521886467225
    vertex 782.9165584498758 354.89308109925 -392.6803302844863
    vertex 782.9165584498758 353.8112362386002 -391.38521886467237
  endloop
endfacet
facet normal 4.06893509637567e-15 0.5877852522924637 -0.8090169943749544
  outer loop
    vertex 782.9165584498758 348.12290830483767 -393.72960768995716
    vertex 808.716558449876 346.6729083048376 -394.78309435556486
    vertex 782.9165584498758 346.6729083048376 -394.7830943555649
  endloop
endfacet
facet normal 4.06893509637567e-15 0.5877852522924637 -0.8090169943749544
  outer loop
    vertex 808.716558449876 346.6729083048376 -394.78309435556486
    vertex 782.9165584498758 348.12290830483767 -393.72960768995716
    vertex 808.7165584498758 348.12290830483767 -393.7296076899571
  endloop
endfacet
facet normal -4.752493581552412e-15 -0.32728014936014366 0.944927353734033
  outer loop
    vertex 808.7165584498758 347.5420890725342 -389.6452623621833
    vertex 782.9165584498758 345.9475113843126 -390.1975520402261
    vertex 808.7165584498758 345.9475113843126 -390.197552040226
  endloop
endfacet
facet normal -4.752493581552412e-15 -0.32728014936014366 0.944927353734033
  outer loop
    vertex 782.9165584498758 345.9475113843126 -390.1975520402261
    vertex 808.7165584498758 347.5420890725342 -389.6452623621833
    vertex 782.9165584498758 347.5420890725342 -389.6452623621834
  endloop
endfacet
facet normal -4.054395904955522e-15 0.5917436514082912 0.8061262004289297
  outer loop
    vertex 808.7165584498758 353.8112362386002 -391.38521886467225
    vertex 782.9165584498758 352.45088737366865 -390.3866434504315
    vertex 808.7165584498758 352.45088737366865 -390.3866434504314
  endloop
endfacet
facet normal -4.054395904955522e-15 0.5917436514082912 0.8061262004289297
  outer loop
    vertex 782.9165584498758 352.45088737366865 -390.3866434504315
    vertex 808.7165584498758 353.8112362386002 -391.38521886467225
    vertex 782.9165584498758 353.8112362386002 -391.38521886467237
  endloop
endfacet
facet normal 2.206897336495419e-15 -0.8985885067124338 -0.438792314887486
  outer loop
    vertex 782.916558449876 342.40456611238676 -398.77863263273406
    vertex 808.716558449876 343.1450340778 -400.29501288993987
    vertex 808.716558449876 342.40456611238676 -398.778632632734
  endloop
endfacet
facet normal 2.206897336495419e-15 -0.8985885067124338 -0.438792314887486
  outer loop
    vertex 808.716558449876 343.1450340778 -400.29501288993987
    vertex 782.916558449876 342.40456611238676 -398.77863263273406
    vertex 782.916558449876 343.1450340778 -400.29501288994
  endloop
endfacet
facet normal -1.061197737985359e-15 0.9774870321471038 0.21099550228440186
  outer loop
    vertex 782.9165584498759 355.9896068281816 -395.8462331275591
    vertex 808.7165584498758 355.63354906466327 -394.196710541692
    vertex 808.716558449876 355.9896068281816 -395.846233127559
  endloop
endfacet
facet normal -1.061197737985359e-15 0.9774870321471038 0.21099550228440186
  outer loop
    vertex 808.7165584498758 355.63354906466327 -394.196710541692
    vertex 782.9165584498759 355.9896068281816 -395.8462331275591
    vertex 782.9165584498758 355.63354906466327 -394.19671054169214
  endloop
endfacet
facet normal -1.5541949087981474e-15 -0.9510565162951548 0.30901699437494423
  outer loop
    vertex 782.9165584498759 351.91905758852505 -396.48767158721313
    vertex 808.716558449876 351.36520687221235 -398.19224881886123
    vertex 808.716558449876 351.91905758852505 -396.487671587213
  endloop
endfacet
facet normal -1.5541949087981474e-15 -0.9510565162951548 0.30901699437494423
  outer loop
    vertex 808.716558449876 351.36520687221235 -398.19224881886123
    vertex 782.9165584498759 351.91905758852505 -396.48767158721313
    vertex 782.916558449876 351.36520687221235 -398.1922488188613
  endloop
endfacet
facet normal 5.029480375154943e-15 0.0 -1.0
  outer loop
    vertex 782.9165584498758 349.91520687221237 -393.72960768995716
    vertex 808.7165584498758 348.12290830483767 -393.7296076899571
    vertex 782.9165584498758 348.12290830483767 -393.72960768995716
  endloop
endfacet
facet normal 5.029480375154943e-15 0.0 -1.0
  outer loop
    vertex 808.7165584498758 348.12290830483767 -393.7296076899571
    vertex 782.9165584498758 349.91520687221237 -393.72960768995716
    vertex 808.7165584498758 349.91520687221237 -393.7296076899571
  endloop
endfacet
facet normal 3.224340083553927e-15 -0.7674672835039463 -0.6410881130945053
  outer loop
    vertex 782.916558449876 343.1450340778 -400.29501288994
    vertex 808.716558449876 344.22687893844983 -401.5901243097538
    vertex 808.716558449876 343.1450340778 -400.29501288993987
  endloop
endfacet
facet normal 3.224340083553927e-15 -0.7674672835039463 -0.6410881130945053
  outer loop
    vertex 808.716558449876 344.22687893844983 -401.5901243097538
    vertex 782.916558449876 343.1450340778 -400.29501288994
    vertex 782.916558449876 344.22687893844983 -401.5901243097539
  endloop
endfacet
facet normal 4.6488249734906065e-15 -0.3816300291934374 -0.9243151631439441
  outer loop
    vertex 782.916558449876 347.1470221412318 -403.2327055592608
    vertex 808.716558449876 345.5872278033814 -402.58869972399464
    vertex 782.916558449876 345.5872278033814 -402.58869972399475
  endloop
endfacet
facet normal 4.6488249734906065e-15 -0.3816300291934374 -0.9243151631439441
  outer loop
    vertex 808.716558449876 345.5872278033814 -402.58869972399464
    vertex 782.916558449876 347.1470221412318 -403.2327055592608
    vertex 808.716558449876 347.1470221412318 -403.2327055592607
  endloop
endfacet
facet normal -1.3450522205365278e-15 -0.963576281721101 0.26743363532760395
  outer loop
    vertex 808.7165584498758 342.5488514465174 -393.8162613828589
    vertex 782.9165584498759 342.0975535702434 -395.442309389259
    vertex 808.716558449876 342.0975535702434 -395.4423093892589
  endloop
endfacet
facet normal -1.3450522205365278e-15 -0.963576281721101 0.26743363532760395
  outer loop
    vertex 782.9165584498759 342.0975535702434 -395.442309389259
    vertex 808.7165584498758 342.5488514465174 -393.8162613828589
    vertex 782.9165584498758 342.5488514465174 -393.81626138285895
  endloop
endfacet
facet normal 1.0 0.0 5.029480375154943e-15
  outer loop
    vertex 808.716558449876 350.49602610451575 -403.3300808122427
    vertex 808.716558449876 347.1470221412318 -403.2327055592607
    vertex 808.716558449876 348.81561237470686 -403.48471453727234
  endloop
endfacet
facet normal 1.0 0.0 5.029480375154943e-15
  outer loop
    vertex 808.716558449876 347.1470221412318 -403.2327055592607
    vertex 808.716558449876 350.49602610451575 -403.3300808122427
    vertex 808.716558449876 352.09060379273745 -402.7777911342
  endloop
endfacet
facet normal 1.0 0.0 5.029480375154943e-15
  outer loop
    vertex 808.716558449876 347.1470221412318 -403.2327055592607
    vertex 808.716558449876 352.09060379273745 -402.7777911342
    vertex 808.716558449876 345.5872278033814 -402.58869972399464
  endloop
endfacet
facet normal 1.0 0.0 5.029480375154943e-15
  outer loop
    vertex 808.716558449876 345.5872278033814 -402.58869972399464
    vertex 808.716558449876 352.09060379273745 -402.7777911342
    vertex 808.716558449876 353.5066743801865 -401.8599425717407
  endloop
endfacet
facet normal 1.0 0.0 5.029480375154943e-15
  outer loop
    vertex 808.716558449876 345.5872278033814 -402.58869972399464
    vertex 808.716558449876 353.5066743801865 -401.8599425717407
    vertex 808.716558449876 344.22687893844983 -401.5901243097538
  endloop
endfacet
facet normal 1.0 0.0 5.029480375154943e-15
  outer loop
    vertex 808.716558449876 344.22687893844983 -401.5901243097538
    vertex 808.716558449876 353.5066743801865 -401.8599425717407
    vertex 808.716558449876 354.6619409915275 -400.62987714707106
  endloop
endfacet
facet normal 1.0 0.0 5.029480375154943e-15
  outer loop
    vertex 808.716558449876 344.22687893844983 -401.5901243097538
    vertex 808.716558449876 354.6619409915275 -400.62987714707106
    vertex 808.716558449876 343.1450340778 -400.29501288993987
  endloop
endfacet
facet normal 1.0 0.0 5.029480375154943e-15
  outer loop
    vertex 808.716558449876 343.1450340778 -400.29501288993987
    vertex 808.716558449876 354.6619409915275 -400.62987714707106
    vertex 808.716558449876 355.4892637305326 -399.15908179156713
  endloop
endfacet
facet normal 1.0 0.0 5.029480375154943e-15
  outer loop
    vertex 808.716558449876 343.1450340778 -400.29501288993987
    vertex 808.716558449876 355.4892637305326 -399.15908179156713
    vertex 808.716558449876 349.91520687221237 -399.245735484469
  endloop
endfacet
facet normal 1.0 0.0 5.029480375154943e-15
  outer loop
    vertex 808.716558449876 349.91520687221237 -399.245735484469
    vertex 808.716558449876 355.4892637305326 -399.15908179156713
    vertex 808.716558449876 351.36520687221235 -398.19224881886123
  endloop
endfacet
facet normal 1.0 0.0 5.029480375154943e-15
  outer loop
    vertex 808.716558449876 351.36520687221235 -398.19224881886123
    vertex 808.716558449876 355.4892637305326 -399.15908179156713
    vertex 808.716558449876 355.9405616068066 -397.53303378516716
  endloop
endfacet
facet normal 1.0 0.0 5.029480375154943e-15
  outer loop
    vertex 808.716558449876 351.36520687221235 -398.19224881886123
    vertex 808.716558449876 355.9405616068066 -397.53303378516716
    vertex 808.716558449876 351.91905758852505 -396.487671587213
  endloop
endfacet
facet normal 1.0 0.0 5.029480375154943e-15
  outer loop
    vertex 808.716558449876 351.91905758852505 -396.487671587213
    vertex 808.716558449876 355.9405616068066 -397.53303378516716
    vertex 808.716558449876 355.9896068281816 -395.846233127559
  endloop
endfacet
facet normal 1.0 0.0 5.029480375154943e-15
  outer loop
    vertex 808.716558449876 351.91905758852505 -396.487671587213
    vertex 808.716558449876 355.9896068281816 -395.846233127559
    vertex 808.716558449876 351.36520687221235 -394.78309435556486
  endloop
endfacet
facet normal 1.0 0.0 5.029480375154943e-15
  outer loop
    vertex 808.716558449876 351.36520687221235 -394.78309435556486
    vertex 808.716558449876 355.9896068281816 -395.846233127559
    vertex 808.7165584498758 355.63354906466327 -394.196710541692
  endloop
endfacet
facet normal 1.0 0.0 5.029480375154943e-15
  outer loop
    vertex 808.716558449876 351.36520687221235 -394.78309435556486
    vertex 808.7165584498758 355.63354906466327 -394.196710541692
    vertex 808.7165584498758 349.91520687221237 -393.7296076899571
  endloop
endfacet
facet normal 1.0 0.0 5.029480375154943e-15
  outer loop
    vertex 808.7165584498758 349.91520687221237 -393.7296076899571
    vertex 808.7165584498758 355.63354906466327 -394.196710541692
    vertex 808.7165584498758 354.89308109925 -392.68033028448616
  endloop
endfacet
facet normal 1.0 0.0 5.029480375154943e-15
  outer loop
    vertex 808.7165584498758 349.91520687221237 -393.7296076899571
    vertex 808.7165584498758 354.89308109925 -392.68033028448616
    vertex 808.7165584498758 348.12290830483767 -393.7296076899571
  endloop
endfacet
facet normal 1.0 0.0 5.029480375154943e-15
  outer loop
    vertex 808.716558449876 343.1450340778 -400.29501288993987
    vertex 808.716558449876 348.12290830483767 -399.245735484469
    vertex 808.716558449876 342.40456611238676 -398.778632632734
  endloop
endfacet
facet normal 1.0 0.0 5.029480375154943e-15
  outer loop
    vertex 808.716558449876 348.12290830483767 -399.245735484469
    vertex 808.716558449876 343.1450340778 -400.29501288993987
    vertex 808.716558449876 349.91520687221237 -399.245735484469
  endloop
endfacet
facet normal 1.0 0.0 5.029480375154943e-15
  outer loop
    vertex 808.716558449876 342.40456611238676 -398.778632632734
    vertex 808.716558449876 348.12290830483767 -399.245735484469
    vertex 808.716558449876 346.6729083048376 -398.19224881886123
  endloop
endfacet
facet normal 1.0 0.0 5.029480375154943e-15
  outer loop
    vertex 808.716558449876 342.40456611238676 -398.778632632734
    vertex 808.716558449876 346.6729083048376 -398.19224881886123
    vertex 808.716558449876 342.04850834886844 -397.129110046867
  endloop
endfacet
facet normal 1.0 0.0 5.029480375154943e-15
  outer loop
    vertex 808.716558449876 342.04850834886844 -397.129110046867
    vertex 808.716558449876 346.6729083048376 -398.19224881886123
    vertex 808.716558449876 346.119057588525 -396.487671587213
  endloop
endfacet
facet normal 1.0 0.0 5.029480375154943e-15
  outer loop
    vertex 808.716558449876 342.04850834886844 -397.129110046867
    vertex 808.716558449876 346.119057588525 -396.487671587213
    vertex 808.716558449876 342.0975535702434 -395.4423093892589
  endloop
endfacet
facet normal 1.0 0.0 5.029480375154943e-15
  outer loop
    vertex 808.716558449876 342.0975535702434 -395.4423093892589
    vertex 808.716558449876 346.119057588525 -396.487671587213
    vertex 808.716558449876 346.6729083048376 -394.78309435556486
  endloop
endfacet
facet normal 1.0 0.0 5.029480375154943e-15
  outer loop
    vertex 808.716558449876 342.0975535702434 -395.4423093892589
    vertex 808.716558449876 346.6729083048376 -394.78309435556486
    vertex 808.7165584498758 342.5488514465174 -393.8162613828589
  endloop
endfacet
facet normal 1.0 0.0 5.029480375154943e-15
  outer loop
    vertex 808.7165584498758 342.5488514465174 -393.8162613828589
    vertex 808.716558449876 346.6729083048376 -394.78309435556486
    vertex 808.7165584498758 348.12290830483767 -393.7296076899571
  endloop
endfacet
facet normal 1.0 0.0 5.029480375154943e-15
  outer loop
    vertex 808.7165584498758 342.5488514465174 -393.8162613828589
    vertex 808.7165584498758 348.12290830483767 -393.7296076899571
    vertex 808.7165584498758 343.37617418552253 -392.345466027355
  endloop
endfacet
facet normal 1.0 0.0 5.029480375154943e-15
  outer loop
    vertex 808.7165584498758 343.37617418552253 -392.345466027355
    vertex 808.7165584498758 348.12290830483767 -393.7296076899571
    vertex 808.7165584498758 354.89308109925 -392.68033028448616
  endloop
endfacet
facet normal 1.0 0.0 5.029480375154943e-15
  outer loop
    vertex 808.7165584498758 343.37617418552253 -392.345466027355
    vertex 808.7165584498758 354.89308109925 -392.68033028448616
    vertex 808.7165584498758 353.8112362386002 -391.38521886467225
  endloop
endfacet
facet normal 1.0 0.0 5.029480375154943e-15
  outer loop
    vertex 808.7165584498758 343.37617418552253 -392.345466027355
    vertex 808.7165584498758 353.8112362386002 -391.38521886467225
    vertex 808.7165584498758 344.53144079686354 -391.1154006026854
  endloop
endfacet
facet normal 1.0 0.0 5.029480375154943e-15
  outer loop
    vertex 808.7165584498758 344.53144079686354 -391.1154006026854
    vertex 808.7165584498758 353.8112362386002 -391.38521886467225
    vertex 808.7165584498758 352.45088737366865 -390.3866434504314
  endloop
endfacet
facet normal 1.0 0.0 5.029480375154943e-15
  outer loop
    vertex 808.7165584498758 344.53144079686354 -391.1154006026854
    vertex 808.7165584498758 352.45088737366865 -390.3866434504314
    vertex 808.7165584498758 345.9475113843126 -390.197552040226
  endloop
endfacet
facet normal 1.0 0.0 5.029480375154943e-15
  outer loop
    vertex 808.7165584498758 345.9475113843126 -390.197552040226
    vertex 808.7165584498758 352.45088737366865 -390.3866434504314
    vertex 808.7165584498758 350.89109303581824 -389.74263761516534
  endloop
endfacet
facet normal 1.0 0.0 5.029480375154943e-15
  outer loop
    vertex 808.7165584498758 345.9475113843126 -390.197552040226
    vertex 808.7165584498758 350.89109303581824 -389.74263761516534
    vertex 808.7165584498758 347.5420890725342 -389.6452623621833
  endloop
endfacet
facet normal 1.0 0.0 5.029480375154943e-15
  outer loop
    vertex 808.7165584498758 347.5420890725342 -389.6452623621833
    vertex 808.7165584498758 350.89109303581824 -389.74263761516534
    vertex 808.7165584498758 349.2225028023432 -389.49062863715375
  endloop
endfacet
facet normal -4.9730812323576304e-15 0.14933745685059774 0.9887862883259435
  outer loop
    vertex 808.7165584498758 350.89109303581824 -389.74263761516534
    vertex 782.9165584498758 349.2225028023432 -389.4906286371538
    vertex 808.7165584498758 349.2225028023432 -389.49062863715375
  endloop
endfacet
facet normal -4.9730812323576304e-15 0.14933745685059774 0.9887862883259435
  outer loop
    vertex 782.9165584498758 349.2225028023432 -389.4906286371538
    vertex 808.7165584498758 350.89109303581824 -389.74263761516534
    vertex 782.9165584498758 350.89109303581824 -389.74263761516545
  endloop
endfacet
facet normal -4.2204694243414895e-15 -0.54390590038954 0.8391462158178655
  outer loop
    vertex 808.7165584498758 345.9475113843126 -390.197552040226
    vertex 782.9165584498758 344.53144079686354 -391.11540060268544
    vertex 808.7165584498758 344.53144079686354 -391.1154006026854
  endloop
endfacet
facet normal -4.2204694243414895e-15 -0.54390590038954 0.8391462158178655
  outer loop
    vertex 782.9165584498758 344.53144079686354 -391.11540060268544
    vertex 808.7165584498758 345.9475113843126 -390.197552040226
    vertex 782.9165584498758 345.9475113843126 -390.1975520402261
  endloop
endfacet
facet normal -3.44316692496994e-15 -0.7289218175058242 0.6845969500107387
  outer loop
    vertex 782.9165584498758 344.53144079686354 -391.11540060268544
    vertex 808.7165584498758 343.37617418552253 -392.345466027355
    vertex 808.7165584498758 344.53144079686354 -391.1154006026854
  endloop
endfacet
facet normal -3.44316692496994e-15 -0.7289218175058242 0.6845969500107387
  outer loop
    vertex 808.7165584498758 343.37617418552253 -392.345466027355
    vertex 782.9165584498758 344.53144079686354 -391.11540060268544
    vertex 782.9165584498758 343.37617418552253 -392.34546602735503
  endloop
endfacet
facet normal 4.7524935815524185e-15 0.32728014936013955 -0.9449273537340344
  outer loop
    vertex 782.916558449876 352.09060379273745 -402.77779113420013
    vertex 808.716558449876 350.49602610451575 -403.3300808122427
    vertex 782.916558449876 350.49602610451575 -403.33008081224284
  endloop
endfacet
facet normal 4.7524935815524185e-15 0.32728014936013955 -0.9449273537340344
  outer loop
    vertex 808.716558449876 350.49602610451575 -403.3300808122427
    vertex 782.916558449876 352.09060379273745 -402.77779113420013
    vertex 808.716558449876 352.09060379273745 -402.7777911342
  endloop
endfacet
facet normal 4.9730812323576304e-15 -0.14933745685059774 -0.9887862883259435
  outer loop
    vertex 782.916558449876 348.81561237470686 -403.4847145372724
    vertex 808.716558449876 347.1470221412318 -403.2327055592607
    vertex 782.916558449876 347.1470221412318 -403.2327055592608
  endloop
endfacet
facet normal 4.9730812323576304e-15 -0.14933745685059774 -0.9887862883259435
  outer loop
    vertex 808.716558449876 347.1470221412318 -403.2327055592607
    vertex 782.916558449876 348.81561237470686 -403.4847145372724
    vertex 808.716558449876 348.81561237470686 -403.48471453727234
  endloop
endfacet
facet normal 2.4657600793217414e-15 0.8715754481116588 -0.4902613978776642
  outer loop
    vertex 782.916558449876 354.6619409915275 -400.62987714707117
    vertex 808.716558449876 355.4892637305326 -399.15908179156713
    vertex 808.716558449876 354.6619409915275 -400.62987714707106
  endloop
endfacet
facet normal 2.4657600793217414e-15 0.8715754481116588 -0.4902613978776642
  outer loop
    vertex 808.716558449876 355.4892637305326 -399.15908179156713
    vertex 782.916558449876 354.6619409915275 -400.62987714707117
    vertex 782.916558449876 355.4892637305326 -399.15908179156725
  endloop
endfacet
facet normal 1.3450522205365278e-15 0.963576281721101 -0.26743363532760395
  outer loop
    vertex 782.916558449876 355.4892637305326 -399.15908179156725
    vertex 808.716558449876 355.9405616068066 -397.53303378516716
    vertex 808.716558449876 355.4892637305326 -399.15908179156713
  endloop
endfacet
facet normal 1.3450522205365278e-15 0.963576281721101 -0.26743363532760395
  outer loop
    vertex 808.716558449876 355.9405616068066 -397.53303378516716
    vertex 782.916558449876 355.4892637305326 -399.15908179156725
    vertex 782.916558449876 355.9405616068066 -397.5330337851672
  endloop
endfacet
facet normal -4.06893509637567e-15 0.5877852522924637 0.8090169943749544
  outer loop
    vertex 808.716558449876 348.12290830483767 -399.245735484469
    vertex 782.916558449876 346.6729083048376 -398.1922488188613
    vertex 808.716558449876 346.6729083048376 -398.19224881886123
  endloop
endfacet
facet normal -4.06893509637567e-15 0.5877852522924637 0.8090169943749544
  outer loop
    vertex 782.916558449876 346.6729083048376 -398.1922488188613
    vertex 808.716558449876 348.12290830483767 -399.245735484469
    vertex 782.916558449876 348.12290830483767 -399.24573548446904
  endloop
endfacet
facet normal 4.2204694243414895e-15 0.54390590038954 -0.8391462158178655
  outer loop
    vertex 782.916558449876 353.5066743801865 -401.85994257174076
    vertex 808.716558449876 352.09060379273745 -402.7777911342
    vertex 782.916558449876 352.09060379273745 -402.77779113420013
  endloop
endfacet
facet normal 4.2204694243414895e-15 0.54390590038954 -0.8391462158178655
  outer loop
    vertex 808.716558449876 352.09060379273745 -402.7777911342
    vertex 782.916558449876 353.5066743801865 -401.85994257174076
    vertex 808.716558449876 353.5066743801865 -401.8599425717407
  endloop
endfacet
facet normal 4.06893509637567e-15 -0.5877852522924637 -0.8090169943749544
  outer loop
    vertex 782.9165584498758 351.36520687221235 -394.7830943555649
    vertex 808.7165584498758 349.91520687221237 -393.7296076899571
    vertex 782.9165584498758 349.91520687221237 -393.72960768995716
  endloop
endfacet
facet normal 4.06893509637567e-15 -0.5877852522924637 -0.8090169943749544
  outer loop
    vertex 808.7165584498758 349.91520687221237 -393.7296076899571
    vertex 782.9165584498758 351.36520687221235 -394.7830943555649
    vertex 808.716558449876 351.36520687221235 -394.78309435556486
  endloop
endfacet
facet normal -4.6488249734906065e-15 0.3816300291934374 0.9243151631439441
  outer loop
    vertex 808.7165584498758 352.45088737366865 -390.3866434504314
    vertex 782.9165584498758 350.89109303581824 -389.74263761516545
    vertex 808.7165584498758 350.89109303581824 -389.74263761516534
  endloop
endfacet
facet normal -4.6488249734906065e-15 0.3816300291934374 0.9243151631439441
  outer loop
    vertex 782.9165584498758 350.89109303581824 -389.74263761516545
    vertex 808.7165584498758 352.45088737366865 -390.3866434504314
    vertex 782.9165584498758 352.45088737366865 -390.3866434504315
  endloop
endfacet
facet normal 1.061197737985359e-15 -0.9774870321471038 -0.21099550228440186
  outer loop
    vertex 782.9165584498759 342.04850834886844 -397.12911004686714
    vertex 808.716558449876 342.40456611238676 -398.778632632734
    vertex 808.716558449876 342.04850834886844 -397.129110046867
  endloop
endfacet
facet normal 1.061197737985359e-15 -0.9774870321471038 -0.21099550228440186
  outer loop
    vertex 808.716558449876 342.40456611238676 -398.778632632734
    vertex 782.9165584498759 342.04850834886844 -397.12911004686714
    vertex 782.916558449876 342.40456611238676 -398.77863263273406
  endloop
endfacet
facet normal -1.461748157596598e-16 -0.9995775642941851 0.029063601974022336
  outer loop
    vertex 782.9165584498759 342.0975535702434 -395.442309389259
    vertex 808.716558449876 342.04850834886844 -397.129110046867
    vertex 808.716558449876 342.0975535702434 -395.4423093892589
  endloop
endfacet
facet normal -1.461748157596598e-16 -0.9995775642941851 0.029063601974022336
  outer loop
    vertex 808.716558449876 342.04850834886844 -397.129110046867
    vertex 782.9165584498759 342.0975535702434 -395.442309389259
    vertex 782.9165584498759 342.04850834886844 -397.12911004686714
  endloop
endfacet
facet normal 3.44316692496994e-15 0.7289218175058242 -0.6845969500107387
  outer loop
    vertex 782.916558449876 353.5066743801865 -401.85994257174076
    vertex 808.716558449876 354.6619409915275 -400.62987714707106
    vertex 808.716558449876 353.5066743801865 -401.8599425717407
  endloop
endfacet
facet normal 3.44316692496994e-15 0.7289218175058242 -0.6845969500107387
  outer loop
    vertex 808.716558449876 354.6619409915275 -400.62987714707106
    vertex 782.916558449876 353.5066743801865 -401.85994257174076
    vertex 782.916558449876 354.6619409915275 -400.62987714707117
  endloop
endfacet
facet normal -4.06893509637567e-15 -0.5877852522924637 0.8090169943749544
  outer loop
    vertex 808.716558449876 351.36520687221235 -398.19224881886123
    vertex 782.916558449876 349.91520687221237 -399.24573548446904
    vertex 808.716558449876 349.91520687221237 -399.245735484469
  endloop
endfacet
facet normal -4.06893509637567e-15 -0.5877852522924637 0.8090169943749544
  outer loop
    vertex 782.916558449876 349.91520687221237 -399.24573548446904
    vertex 808.716558449876 351.36520687221235 -398.19224881886123
    vertex 782.916558449876 351.36520687221235 -398.1922488188613
  endloop
endfacet
facet normal -1.5541949087981474e-15 0.9510565162951548 0.30901699437494423
  outer loop
    vertex 782.916558449876 346.6729083048376 -398.1922488188613
    vertex 808.716558449876 346.119057588525 -396.487671587213
    vertex 808.716558449876 346.6729083048376 -398.19224881886123
  endloop
endfacet
facet normal -1.5541949087981474e-15 0.9510565162951548 0.30901699437494423
  outer loop
    vertex 808.716558449876 346.119057588525 -396.487671587213
    vertex 782.916558449876 346.6729083048376 -398.1922488188613
    vertex 782.9165584498759 346.119057588525 -396.48767158721313
  endloop
endfacet
facet normal -2.4657600793217414e-15 -0.8715754481116588 0.4902613978776642
  outer loop
    vertex 782.9165584498758 343.37617418552253 -392.34546602735503
    vertex 808.7165584498758 342.5488514465174 -393.8162613828589
    vertex 808.7165584498758 343.37617418552253 -392.345466027355
  endloop
endfacet
facet normal -2.4657600793217414e-15 -0.8715754481116588 0.4902613978776642
  outer loop
    vertex 808.7165584498758 342.5488514465174 -393.8162613828589
    vertex 782.9165584498758 343.37617418552253 -392.34546602735503
    vertex 782.9165584498758 342.5488514465174 -393.81626138285895
  endloop
endfacet
facet normal -2.2068973364954733e-15 0.8985885067124285 0.43879231488749676
  outer loop
    vertex 782.9165584498758 355.63354906466327 -394.19671054169214
    vertex 808.7165584498758 354.89308109925 -392.68033028448616
    vertex 808.7165584498758 355.63354906466327 -394.196710541692
  endloop
endfacet
facet normal -2.2068973364954733e-15 0.8985885067124285 0.43879231488749676
  outer loop
    vertex 808.7165584498758 354.89308109925 -392.68033028448616
    vertex 782.9165584498758 355.63354906466327 -394.19671054169214
    vertex 782.9165584498758 354.89308109925 -392.6803302844863
  endloop
endfacet
facet normal 1.5541949087981474e-15 0.9510565162951548 -0.30901699437494423
  outer loop
    vertex 782.9165584498759 346.119057588525 -396.48767158721313
    vertex 808.716558449876 346.6729083048376 -394.78309435556486
    vertex 808.716558449876 346.119057588525 -396.487671587213
  endloop
endfacet
facet normal 1.5541949087981474e-15 0.9510565162951548 -0.30901699437494423
  outer loop
    vertex 808.716558449876 346.6729083048376 -394.78309435556486
    vertex 782.9165584498759 346.119057588525 -396.48767158721313
    vertex 782.9165584498758 346.6729083048376 -394.7830943555649
  endloop
endfacet
facet normal 1.461748157596598e-16 0.9995775642941851 -0.029063601974022336
  outer loop
    vertex 782.916558449876 355.9405616068066 -397.5330337851672
    vertex 808.716558449876 355.9896068281816 -395.846233127559
    vertex 808.716558449876 355.9405616068066 -397.53303378516716
  endloop
endfacet
facet normal 1.461748157596598e-16 0.9995775642941851 -0.029063601974022336
  outer loop
    vertex 808.716558449876 355.9896068281816 -395.846233127559
    vertex 782.916558449876 355.9405616068066 -397.5330337851672
    vertex 782.9165584498759 355.9896068281816 -395.8462331275591
  endloop
endfacet
endsolid FINAL_RC1
