solid FINAL_RC1
facet normal -0.9957927485223657 0.09163406566486375 0.0
  outer loop
    vertex -348.2355606762204 232.4399281202637 29.99999999999999
    vertex -348.39019440125 230.75951439045477 -15.000000000000007
    vertex -348.39019440125 230.75951439045477 29.99999999999999
  endloop
endfacet
facet normal -0.9957927485223657 0.09163406566486375 0.0
  outer loop
    vertex -348.39019440125 230.75951439045477 -15.000000000000007
    vertex -348.2355606762204 232.4399281202637 29.99999999999999
    vertex -348.2355606762204 232.4399281202637 -15.000000000000007
  endloop
endfacet
facet normal 0.0 0.0 -1.0
  outer loop
    vertex -348.2355606762204 232.4399281202637 -15.000000000000007
    vertex -348.1381854232384 229.09092415697967 -15.000000000000007
    vertex -348.39019440125 230.75951439045477 -15.000000000000007
  endloop
endfacet
facet normal 0.0 0.0 -1.0
  outer loop
    vertex -348.1381854232384 229.09092415697967 -15.000000000000007
    vertex -348.2355606762204 232.4399281202637 -15.000000000000007
    vertex -347.6832709981777 234.0345058084853 -15.000000000000007
  endloop
endfacet
facet normal 0.0 0.0 -1.0
  outer loop
    vertex -348.1381854232384 229.09092415697967 -15.000000000000007
    vertex -347.6832709981777 234.0345058084853 -15.000000000000007
    vertex -347.4941795879723 227.5311298191293 -15.000000000000007
  endloop
endfacet
facet normal 0.0 0.0 -1.0
  outer loop
    vertex -347.4941795879723 227.5311298191293 -15.000000000000007
    vertex -347.6832709981777 234.0345058084853 -15.000000000000007
    vertex -346.7654224357184 235.45057639593432 -15.000000000000007
  endloop
endfacet
facet normal 0.0 0.0 -1.0
  outer loop
    vertex -347.4941795879723 227.5311298191293 -15.000000000000007
    vertex -346.7654224357184 235.45057639593432 -15.000000000000007
    vertex -346.49560417373146 226.17078095419765 -15.000000000000007
  endloop
endfacet
facet normal 0.0 0.0 -1.0
  outer loop
    vertex -346.49560417373146 226.17078095419765 -15.000000000000007
    vertex -346.7654224357184 235.45057639593432 -15.000000000000007
    vertex -345.53535701104875 236.6058430072753 -15.000000000000007
  endloop
endfacet
facet normal 0.0 0.0 -1.0
  outer loop
    vertex -346.49560417373146 226.17078095419765 -15.000000000000007
    vertex -345.53535701104875 236.6058430072753 -15.000000000000007
    vertex -345.20049275391756 225.0889360935479 -15.000000000000007
  endloop
endfacet
facet normal 0.0 0.0 -1.0
  outer loop
    vertex -345.20049275391756 225.0889360935479 -15.000000000000007
    vertex -345.53535701104875 236.6058430072753 -15.000000000000007
    vertex -344.0645616555448 237.43316574628042 -15.000000000000007
  endloop
endfacet
facet normal 0.0 0.0 -1.0
  outer loop
    vertex -345.20049275391756 225.0889360935479 -15.000000000000007
    vertex -344.0645616555448 237.43316574628042 -15.000000000000007
    vertex -344.15121534844667 231.8591088879602 -15.000000000000007
  endloop
endfacet
facet normal 0.0 0.0 -1.0
  outer loop
    vertex -344.15121534844667 231.8591088879602 -15.000000000000007
    vertex -344.0645616555448 237.43316574628042 -15.000000000000007
    vertex -343.0977286828389 233.3091088879602 -15.000000000000007
  endloop
endfacet
facet normal 0.0 0.0 -1.0
  outer loop
    vertex -343.0977286828389 233.3091088879602 -15.000000000000007
    vertex -344.0645616555448 237.43316574628042 -15.000000000000007
    vertex -342.43851364914485 237.8844636225545 -15.000000000000007
  endloop
endfacet
facet normal 0.0 0.0 -1.0
  outer loop
    vertex -343.0977286828389 233.3091088879602 -15.000000000000007
    vertex -342.43851364914485 237.8844636225545 -15.000000000000007
    vertex -341.3931514511907 233.86295960427287 -15.000000000000007
  endloop
endfacet
facet normal 0.0 0.0 -1.0
  outer loop
    vertex -341.3931514511907 233.86295960427287 -15.000000000000007
    vertex -342.43851364914485 237.8844636225545 -15.000000000000007
    vertex -340.7517129915367 237.93350884392942 -15.000000000000007
  endloop
endfacet
facet normal 0.0 0.0 -1.0
  outer loop
    vertex -341.3931514511907 233.86295960427287 -15.000000000000007
    vertex -340.7517129915367 237.93350884392942 -15.000000000000007
    vertex -339.68857421954255 233.3091088879602 -15.000000000000007
  endloop
endfacet
facet normal 0.0 0.0 -1.0
  outer loop
    vertex -339.68857421954255 233.3091088879602 -15.000000000000007
    vertex -340.7517129915367 237.93350884392942 -15.000000000000007
    vertex -339.1021904056697 237.57745108041112 -15.000000000000007
  endloop
endfacet
facet normal 0.0 0.0 -1.0
  outer loop
    vertex -339.68857421954255 233.3091088879602 -15.000000000000007
    vertex -339.1021904056697 237.57745108041112 -15.000000000000007
    vertex -338.6350875539348 231.8591088879602 -15.000000000000007
  endloop
endfacet
facet normal 0.0 0.0 -1.0
  outer loop
    vertex -338.6350875539348 231.8591088879602 -15.000000000000007
    vertex -339.1021904056697 237.57745108041112 -15.000000000000007
    vertex -337.58581014846385 236.83698311499785 -15.000000000000007
  endloop
endfacet
facet normal 0.0 0.0 -1.0
  outer loop
    vertex -338.6350875539348 231.8591088879602 -15.000000000000007
    vertex -337.58581014846385 236.83698311499785 -15.000000000000007
    vertex -338.6350875539348 230.06681032058552 -15.000000000000007
  endloop
endfacet
facet normal 0.0 0.0 -1.0
  outer loop
    vertex -345.20049275391756 225.0889360935479 -15.000000000000007
    vertex -344.15121534844667 230.06681032058552 -15.000000000000007
    vertex -343.6841124967117 224.3484681281347 -15.000000000000007
  endloop
endfacet
facet normal 0.0 0.0 -1.0
  outer loop
    vertex -344.15121534844667 230.06681032058552 -15.000000000000007
    vertex -345.20049275391756 225.0889360935479 -15.000000000000007
    vertex -344.15121534844667 231.8591088879602 -15.000000000000007
  endloop
endfacet
facet normal 0.0 0.0 -1.0
  outer loop
    vertex -343.6841124967117 224.3484681281347 -15.000000000000007
    vertex -344.15121534844667 230.06681032058552 -15.000000000000007
    vertex -343.0977286828389 228.61681032058556 -15.000000000000007
  endloop
endfacet
facet normal 0.0 0.0 -1.0
  outer loop
    vertex -343.6841124967117 224.3484681281347 -15.000000000000007
    vertex -343.0977286828389 228.61681032058556 -15.000000000000007
    vertex -342.0345899108447 223.99241036461632 -15.000000000000007
  endloop
endfacet
facet normal 0.0 0.0 -1.0
  outer loop
    vertex -342.0345899108447 223.99241036461632 -15.000000000000007
    vertex -343.0977286828389 228.61681032058556 -15.000000000000007
    vertex -341.3931514511907 228.06295960427283 -15.000000000000007
  endloop
endfacet
facet normal 0.0 0.0 -1.0
  outer loop
    vertex -342.0345899108447 223.99241036461632 -15.000000000000007
    vertex -341.3931514511907 228.06295960427283 -15.000000000000007
    vertex -340.3477892532366 224.04145558599132 -15.000000000000007
  endloop
endfacet
facet normal 0.0 0.0 -1.0
  outer loop
    vertex -340.3477892532366 224.04145558599132 -15.000000000000007
    vertex -341.3931514511907 228.06295960427283 -15.000000000000007
    vertex -339.68857421954255 228.61681032058556 -15.000000000000007
  endloop
endfacet
facet normal 0.0 0.0 -1.0
  outer loop
    vertex -340.3477892532366 224.04145558599132 -15.000000000000007
    vertex -339.68857421954255 228.61681032058556 -15.000000000000007
    vertex -338.7217412468366 224.4927534622653 -15.000000000000007
  endloop
endfacet
facet normal 0.0 0.0 -1.0
  outer loop
    vertex -338.7217412468366 224.4927534622653 -15.000000000000007
    vertex -339.68857421954255 228.61681032058556 -15.000000000000007
    vertex -338.6350875539348 230.06681032058552 -15.000000000000007
  endloop
endfacet
facet normal 0.0 0.0 -1.0
  outer loop
    vertex -338.7217412468366 224.4927534622653 -15.000000000000007
    vertex -338.6350875539348 230.06681032058552 -15.000000000000007
    vertex -337.25094589133266 225.3200762012704 -15.000000000000007
  endloop
endfacet
facet normal 0.0 0.0 -1.0
  outer loop
    vertex -337.25094589133266 225.3200762012704 -15.000000000000007
    vertex -338.6350875539348 230.06681032058552 -15.000000000000007
    vertex -337.58581014846385 236.83698311499785 -15.000000000000007
  endloop
endfacet
facet normal 0.0 0.0 -1.0
  outer loop
    vertex -337.25094589133266 225.3200762012704 -15.000000000000007
    vertex -337.58581014846385 236.83698311499785 -15.000000000000007
    vertex -336.29069872864994 235.75513825434803 -15.000000000000007
  endloop
endfacet
facet normal 0.0 0.0 -1.0
  outer loop
    vertex -337.25094589133266 225.3200762012704 -15.000000000000007
    vertex -336.29069872864994 235.75513825434803 -15.000000000000007
    vertex -336.0208804666631 226.47534281261136 -15.000000000000007
  endloop
endfacet
facet normal 0.0 0.0 -1.0
  outer loop
    vertex -336.0208804666631 226.47534281261136 -15.000000000000007
    vertex -336.29069872864994 235.75513825434803 -15.000000000000007
    vertex -335.2921233144091 234.39478938941647 -15.000000000000007
  endloop
endfacet
facet normal 0.0 0.0 -1.0
  outer loop
    vertex -336.0208804666631 226.47534281261136 -15.000000000000007
    vertex -335.2921233144091 234.39478938941647 -15.000000000000007
    vertex -335.1030319042037 227.89141340006037 -15.000000000000007
  endloop
endfacet
facet normal 0.0 0.0 -1.0
  outer loop
    vertex -335.1030319042037 227.89141340006037 -15.000000000000007
    vertex -335.2921233144091 234.39478938941647 -15.000000000000007
    vertex -334.648117479143 232.83499505156612 -15.000000000000007
  endloop
endfacet
facet normal 0.0 0.0 -1.0
  outer loop
    vertex -335.1030319042037 227.89141340006037 -15.000000000000007
    vertex -334.648117479143 232.83499505156612 -15.000000000000007
    vertex -334.550742226161 229.48599108828208 -15.000000000000007
  endloop
endfacet
facet normal 0.0 0.0 -1.0
  outer loop
    vertex -334.550742226161 229.48599108828208 -15.000000000000007
    vertex -334.648117479143 232.83499505156612 -15.000000000000007
    vertex -334.39610850113144 231.16640481809102 -15.000000000000007
  endloop
endfacet
facet normal -0.43879231488747517 -0.898588506712439 0.0
  outer loop
    vertex -343.6841124967117 224.3484681281347 29.99999999999999
    vertex -345.20049275391756 225.0889360935479 -15.000000000000007
    vertex -343.6841124967117 224.3484681281347 -15.000000000000007
  endloop
endfacet
facet normal -0.43879231488747517 -0.898588506712439 0.0
  outer loop
    vertex -345.20049275391756 225.0889360935479 -15.000000000000007
    vertex -343.6841124967117 224.3484681281347 29.99999999999999
    vertex -345.20049275391756 225.0889360935479 29.99999999999999
  endloop
endfacet
facet normal 0.9887862883259438 0.1493374568505958 0.0
  outer loop
    vertex -334.648117479143 232.83499505156612 -15.000000000000007
    vertex -334.39610850113144 231.16640481809102 29.99999999999999
    vertex -334.39610850113144 231.16640481809102 -15.000000000000007
  endloop
endfacet
facet normal 0.9887862883259438 0.1493374568505958 0.0
  outer loop
    vertex -334.39610850113144 231.16640481809102 29.99999999999999
    vertex -334.648117479143 232.83499505156612 -15.000000000000007
    vertex -334.648117479143 232.83499505156612 29.99999999999999
  endloop
endfacet
facet normal 0.8391462158178615 -0.5439059003895462 0.0
  outer loop
    vertex -335.1030319042037 227.89141340006037 -15.000000000000007
    vertex -336.0208804666631 226.47534281261136 29.99999999999999
    vertex -336.0208804666631 226.47534281261136 -15.000000000000007
  endloop
endfacet
facet normal 0.8391462158178615 -0.5439059003895462 0.0
  outer loop
    vertex -336.0208804666631 226.47534281261136 29.99999999999999
    vertex -335.1030319042037 227.89141340006037 -15.000000000000007
    vertex -335.1030319042037 227.89141340006037 29.99999999999999
  endloop
endfacet
facet normal -0.9449273537340301 0.3272801493601519 0.0
  outer loop
    vertex -347.6832709981777 234.0345058084853 29.99999999999999
    vertex -348.2355606762204 232.4399281202637 -15.000000000000007
    vertex -348.2355606762204 232.4399281202637 29.99999999999999
  endloop
endfacet
facet normal -0.9449273537340301 0.3272801493601519 0.0
  outer loop
    vertex -348.2355606762204 232.4399281202637 -15.000000000000007
    vertex -347.6832709981777 234.0345058084853 29.99999999999999
    vertex -347.6832709981777 234.0345058084853 -15.000000000000007
  endloop
endfacet
facet normal -0.9887862883259438 -0.1493374568505958 0.0
  outer loop
    vertex -348.39019440125 230.75951439045477 29.99999999999999
    vertex -348.1381854232384 229.09092415697967 -15.000000000000007
    vertex -348.1381854232384 229.09092415697967 29.99999999999999
  endloop
endfacet
facet normal -0.9887862883259438 -0.1493374568505958 0.0
  outer loop
    vertex -348.1381854232384 229.09092415697967 -15.000000000000007
    vertex -348.39019440125 230.75951439045477 29.99999999999999
    vertex -348.39019440125 230.75951439045477 -15.000000000000007
  endloop
endfacet
facet normal -0.49026139787767437 0.8715754481116531 0.0
  outer loop
    vertex -345.53535701104875 236.6058430072753 29.99999999999999
    vertex -344.0645616555448 237.43316574628042 -15.000000000000007
    vertex -345.53535701104875 236.6058430072753 -15.000000000000007
  endloop
endfacet
facet normal -0.49026139787767437 0.8715754481116531 0.0
  outer loop
    vertex -344.0645616555448 237.43316574628042 -15.000000000000007
    vertex -345.53535701104875 236.6058430072753 29.99999999999999
    vertex -344.0645616555448 237.43316574628042 29.99999999999999
  endloop
endfacet
facet normal -0.2674336353276287 0.963576281721094 0.0
  outer loop
    vertex -344.0645616555448 237.43316574628042 29.99999999999999
    vertex -342.43851364914485 237.8844636225545 -15.000000000000007
    vertex -344.0645616555448 237.43316574628042 -15.000000000000007
  endloop
endfacet
facet normal -0.2674336353276287 0.963576281721094 0.0
  outer loop
    vertex -342.43851364914485 237.8844636225545 -15.000000000000007
    vertex -344.0645616555448 237.43316574628042 29.99999999999999
    vertex -342.43851364914485 237.8844636225545 29.99999999999999
  endloop
endfacet
facet normal 0.8090169943749412 0.5877852522924816 0.0
  outer loop
    vertex -344.15121534844667 230.06681032058552 -15.000000000000007
    vertex -343.0977286828389 228.61681032058556 29.99999999999999
    vertex -343.0977286828389 228.61681032058556 -15.000000000000007
  endloop
endfacet
facet normal 0.8090169943749412 0.5877852522924816 0.0
  outer loop
    vertex -343.0977286828389 228.61681032058556 29.99999999999999
    vertex -344.15121534844667 230.06681032058552 -15.000000000000007
    vertex -344.15121534844667 230.06681032058552 29.99999999999999
  endloop
endfacet
facet normal -0.8391462158178615 0.5439059003895462 0.0
  outer loop
    vertex -346.7654224357184 235.45057639593432 29.99999999999999
    vertex -347.6832709981777 234.0345058084853 -15.000000000000007
    vertex -347.6832709981777 234.0345058084853 29.99999999999999
  endloop
endfacet
facet normal -0.8391462158178615 0.5439059003895462 0.0
  outer loop
    vertex -347.6832709981777 234.0345058084853 -15.000000000000007
    vertex -346.7654224357184 235.45057639593432 29.99999999999999
    vertex -346.7654224357184 235.45057639593432 -15.000000000000007
  endloop
endfacet
facet normal -0.8090169943749587 -0.5877852522924576 0.0
  outer loop
    vertex -339.68857421954255 233.3091088879602 29.99999999999999
    vertex -338.6350875539348 231.8591088879602 -15.000000000000007
    vertex -338.6350875539348 231.8591088879602 29.99999999999999
  endloop
endfacet
facet normal -0.8090169943749587 -0.5877852522924576 0.0
  outer loop
    vertex -338.6350875539348 231.8591088879602 -15.000000000000007
    vertex -339.68857421954255 233.3091088879602 29.99999999999999
    vertex -339.68857421954255 233.3091088879602 -15.000000000000007
  endloop
endfacet
facet normal 0.6845969500107245 -0.7289218175058376 0.0
  outer loop
    vertex -336.0208804666631 226.47534281261136 29.99999999999999
    vertex -337.25094589133266 225.3200762012704 -15.000000000000007
    vertex -336.0208804666631 226.47534281261136 -15.000000000000007
  endloop
endfacet
facet normal 0.6845969500107245 -0.7289218175058376 0.0
  outer loop
    vertex -337.25094589133266 225.3200762012704 -15.000000000000007
    vertex -336.0208804666631 226.47534281261136 29.99999999999999
    vertex -337.25094589133266 225.3200762012704 29.99999999999999
  endloop
endfacet
facet normal 0.9243151631439402 0.3816300291934468 0.0
  outer loop
    vertex -335.2921233144091 234.39478938941647 -15.000000000000007
    vertex -334.648117479143 232.83499505156612 29.99999999999999
    vertex -334.648117479143 232.83499505156612 -15.000000000000007
  endloop
endfacet
facet normal 0.9243151631439402 0.3816300291934468 0.0
  outer loop
    vertex -334.648117479143 232.83499505156612 29.99999999999999
    vertex -335.2921233144091 234.39478938941647 -15.000000000000007
    vertex -335.2921233144091 234.39478938941647 29.99999999999999
  endloop
endfacet
facet normal -0.21099550228442743 -0.9774870321470982 0.0
  outer loop
    vertex -342.0345899108447 223.99241036461632 29.99999999999999
    vertex -343.6841124967117 224.3484681281347 -15.000000000000007
    vertex -342.0345899108447 223.99241036461632 -15.000000000000007
  endloop
endfacet
facet normal -0.21099550228442743 -0.9774870321470982 0.0
  outer loop
    vertex -343.6841124967117 224.3484681281347 -15.000000000000007
    vertex -342.0345899108447 223.99241036461632 29.99999999999999
    vertex -343.6841124967117 224.3484681281347 29.99999999999999
  endloop
endfacet
facet normal 0.0 0.0 1.0
  outer loop
    vertex -343.6841124967117 224.3484681281347 29.99999999999999
    vertex -344.15121534844667 230.06681032058552 29.99999999999999
    vertex -345.20049275391756 225.0889360935479 29.99999999999999
  endloop
endfacet
facet normal 0.0 0.0 1.0
  outer loop
    vertex -344.15121534844667 230.06681032058552 29.99999999999999
    vertex -343.6841124967117 224.3484681281347 29.99999999999999
    vertex -343.0977286828389 228.61681032058556 29.99999999999999
  endloop
endfacet
facet normal 0.0 0.0 1.0
  outer loop
    vertex -343.0977286828389 228.61681032058556 29.99999999999999
    vertex -343.6841124967117 224.3484681281347 29.99999999999999
    vertex -342.0345899108447 223.99241036461632 29.99999999999999
  endloop
endfacet
facet normal 0.0 0.0 1.0
  outer loop
    vertex -343.0977286828389 228.61681032058556 29.99999999999999
    vertex -342.0345899108447 223.99241036461632 29.99999999999999
    vertex -341.3931514511907 228.06295960427283 29.99999999999999
  endloop
endfacet
facet normal 0.0 0.0 1.0
  outer loop
    vertex -341.3931514511907 228.06295960427283 29.99999999999999
    vertex -342.0345899108447 223.99241036461632 29.99999999999999
    vertex -340.3477892532366 224.04145558599132 29.99999999999999
  endloop
endfacet
facet normal 0.0 0.0 1.0
  outer loop
    vertex -341.3931514511907 228.06295960427283 29.99999999999999
    vertex -340.3477892532366 224.04145558599132 29.99999999999999
    vertex -339.68857421954255 228.61681032058556 29.99999999999999
  endloop
endfacet
facet normal 0.0 0.0 1.0
  outer loop
    vertex -339.68857421954255 228.61681032058556 29.99999999999999
    vertex -340.3477892532366 224.04145558599132 29.99999999999999
    vertex -338.7217412468366 224.4927534622653 29.99999999999999
  endloop
endfacet
facet normal 0.0 0.0 1.0
  outer loop
    vertex -339.68857421954255 228.61681032058556 29.99999999999999
    vertex -338.7217412468366 224.4927534622653 29.99999999999999
    vertex -338.6350875539348 230.06681032058552 29.99999999999999
  endloop
endfacet
facet normal 0.0 0.0 1.0
  outer loop
    vertex -338.6350875539348 230.06681032058552 29.99999999999999
    vertex -338.7217412468366 224.4927534622653 29.99999999999999
    vertex -337.25094589133266 225.3200762012704 29.99999999999999
  endloop
endfacet
facet normal 0.0 0.0 1.0
  outer loop
    vertex -338.6350875539348 230.06681032058552 29.99999999999999
    vertex -337.25094589133266 225.3200762012704 29.99999999999999
    vertex -338.6350875539348 231.8591088879602 29.99999999999999
  endloop
endfacet
facet normal 0.0 0.0 1.0
  outer loop
    vertex -338.6350875539348 231.8591088879602 29.99999999999999
    vertex -337.25094589133266 225.3200762012704 29.99999999999999
    vertex -337.58581014846385 236.83698311499785 29.99999999999999
  endloop
endfacet
facet normal 0.0 0.0 1.0
  outer loop
    vertex -337.58581014846385 236.83698311499785 29.99999999999999
    vertex -337.25094589133266 225.3200762012704 29.99999999999999
    vertex -336.29069872864994 235.75513825434803 29.99999999999999
  endloop
endfacet
facet normal 0.0 0.0 1.0
  outer loop
    vertex -336.29069872864994 235.75513825434803 29.99999999999999
    vertex -337.25094589133266 225.3200762012704 29.99999999999999
    vertex -336.0208804666631 226.47534281261136 29.99999999999999
  endloop
endfacet
facet normal 0.0 0.0 1.0
  outer loop
    vertex -336.29069872864994 235.75513825434803 29.99999999999999
    vertex -336.0208804666631 226.47534281261136 29.99999999999999
    vertex -335.2921233144091 234.39478938941647 29.99999999999999
  endloop
endfacet
facet normal 0.0 0.0 1.0
  outer loop
    vertex -335.2921233144091 234.39478938941647 29.99999999999999
    vertex -336.0208804666631 226.47534281261136 29.99999999999999
    vertex -335.1030319042037 227.89141340006037 29.99999999999999
  endloop
endfacet
facet normal 0.0 0.0 1.0
  outer loop
    vertex -335.2921233144091 234.39478938941647 29.99999999999999
    vertex -335.1030319042037 227.89141340006037 29.99999999999999
    vertex -334.648117479143 232.83499505156612 29.99999999999999
  endloop
endfacet
facet normal 0.0 0.0 1.0
  outer loop
    vertex -334.648117479143 232.83499505156612 29.99999999999999
    vertex -335.1030319042037 227.89141340006037 29.99999999999999
    vertex -334.550742226161 229.48599108828208 29.99999999999999
  endloop
endfacet
facet normal 0.0 0.0 1.0
  outer loop
    vertex -334.648117479143 232.83499505156612 29.99999999999999
    vertex -334.550742226161 229.48599108828208 29.99999999999999
    vertex -334.39610850113144 231.16640481809102 29.99999999999999
  endloop
endfacet
facet normal 0.0 0.0 1.0
  outer loop
    vertex -348.1381854232384 229.09092415697967 29.99999999999999
    vertex -348.2355606762204 232.4399281202637 29.99999999999999
    vertex -348.39019440125 230.75951439045477 29.99999999999999
  endloop
endfacet
facet normal 0.0 0.0 1.0
  outer loop
    vertex -348.2355606762204 232.4399281202637 29.99999999999999
    vertex -348.1381854232384 229.09092415697967 29.99999999999999
    vertex -347.6832709981777 234.0345058084853 29.99999999999999
  endloop
endfacet
facet normal 0.0 0.0 1.0
  outer loop
    vertex -347.6832709981777 234.0345058084853 29.99999999999999
    vertex -348.1381854232384 229.09092415697967 29.99999999999999
    vertex -347.4941795879723 227.5311298191293 29.99999999999999
  endloop
endfacet
facet normal 0.0 0.0 1.0
  outer loop
    vertex -347.6832709981777 234.0345058084853 29.99999999999999
    vertex -347.4941795879723 227.5311298191293 29.99999999999999
    vertex -346.7654224357184 235.45057639593432 29.99999999999999
  endloop
endfacet
facet normal 0.0 0.0 1.0
  outer loop
    vertex -346.7654224357184 235.45057639593432 29.99999999999999
    vertex -347.4941795879723 227.5311298191293 29.99999999999999
    vertex -346.49560417373146 226.17078095419765 29.99999999999999
  endloop
endfacet
facet normal 0.0 0.0 1.0
  outer loop
    vertex -346.7654224357184 235.45057639593432 29.99999999999999
    vertex -346.49560417373146 226.17078095419765 29.99999999999999
    vertex -345.53535701104875 236.6058430072753 29.99999999999999
  endloop
endfacet
facet normal 0.0 0.0 1.0
  outer loop
    vertex -345.53535701104875 236.6058430072753 29.99999999999999
    vertex -346.49560417373146 226.17078095419765 29.99999999999999
    vertex -345.20049275391756 225.0889360935479 29.99999999999999
  endloop
endfacet
facet normal 0.0 0.0 1.0
  outer loop
    vertex -345.53535701104875 236.6058430072753 29.99999999999999
    vertex -345.20049275391756 225.0889360935479 29.99999999999999
    vertex -344.0645616555448 237.43316574628042 29.99999999999999
  endloop
endfacet
facet normal 0.0 0.0 1.0
  outer loop
    vertex -344.0645616555448 237.43316574628042 29.99999999999999
    vertex -345.20049275391756 225.0889360935479 29.99999999999999
    vertex -344.15121534844667 231.8591088879602 29.99999999999999
  endloop
endfacet
facet normal 0.0 0.0 1.0
  outer loop
    vertex -344.15121534844667 231.8591088879602 29.99999999999999
    vertex -345.20049275391756 225.0889360935479 29.99999999999999
    vertex -344.15121534844667 230.06681032058552 29.99999999999999
  endloop
endfacet
facet normal 0.0 0.0 1.0
  outer loop
    vertex -344.0645616555448 237.43316574628042 29.99999999999999
    vertex -344.15121534844667 231.8591088879602 29.99999999999999
    vertex -343.0977286828389 233.3091088879602 29.99999999999999
  endloop
endfacet
facet normal 0.0 0.0 1.0
  outer loop
    vertex -344.0645616555448 237.43316574628042 29.99999999999999
    vertex -343.0977286828389 233.3091088879602 29.99999999999999
    vertex -342.43851364914485 237.8844636225545 29.99999999999999
  endloop
endfacet
facet normal 0.0 0.0 1.0
  outer loop
    vertex -342.43851364914485 237.8844636225545 29.99999999999999
    vertex -343.0977286828389 233.3091088879602 29.99999999999999
    vertex -341.3931514511907 233.86295960427287 29.99999999999999
  endloop
endfacet
facet normal 0.0 0.0 1.0
  outer loop
    vertex -342.43851364914485 237.8844636225545 29.99999999999999
    vertex -341.3931514511907 233.86295960427287 29.99999999999999
    vertex -340.7517129915367 237.93350884392942 29.99999999999999
  endloop
endfacet
facet normal 0.0 0.0 1.0
  outer loop
    vertex -340.7517129915367 237.93350884392942 29.99999999999999
    vertex -341.3931514511907 233.86295960427287 29.99999999999999
    vertex -339.68857421954255 233.3091088879602 29.99999999999999
  endloop
endfacet
facet normal 0.0 0.0 1.0
  outer loop
    vertex -340.7517129915367 237.93350884392942 29.99999999999999
    vertex -339.68857421954255 233.3091088879602 29.99999999999999
    vertex -339.1021904056697 237.57745108041112 29.99999999999999
  endloop
endfacet
facet normal 0.0 0.0 1.0
  outer loop
    vertex -339.1021904056697 237.57745108041112 29.99999999999999
    vertex -339.68857421954255 233.3091088879602 29.99999999999999
    vertex -338.6350875539348 231.8591088879602 29.99999999999999
  endloop
endfacet
facet normal 0.0 0.0 1.0
  outer loop
    vertex -339.1021904056697 237.57745108041112 29.99999999999999
    vertex -338.6350875539348 231.8591088879602 29.99999999999999
    vertex -337.58581014846385 236.83698311499785 29.99999999999999
  endloop
endfacet
facet normal -0.30901699437494423 -0.9510565162951546 0.0
  outer loop
    vertex -339.68857421954255 233.3091088879602 29.99999999999999
    vertex -341.3931514511907 233.86295960427287 -15.000000000000007
    vertex -339.68857421954255 233.3091088879602 -15.000000000000007
  endloop
endfacet
facet normal -0.30901699437494423 -0.9510565162951546 0.0
  outer loop
    vertex -341.3931514511907 233.86295960427287 -15.000000000000007
    vertex -339.68857421954255 233.3091088879602 29.99999999999999
    vertex -341.3931514511907 233.86295960427287 29.99999999999999
  endloop
endfacet
facet normal 0.9957927485223657 -0.09163406566486375 0.0
  outer loop
    vertex -334.39610850113144 231.16640481809102 -15.000000000000007
    vertex -334.550742226161 229.48599108828208 29.99999999999999
    vertex -334.550742226161 229.48599108828208 -15.000000000000007
  endloop
endfacet
facet normal 0.9957927485223657 -0.09163406566486375 0.0
  outer loop
    vertex -334.550742226161 229.48599108828208 29.99999999999999
    vertex -334.39610850113144 231.16640481809102 -15.000000000000007
    vertex -334.39610850113144 231.16640481809102 29.99999999999999
  endloop
endfacet
facet normal 0.6410881130944974 0.7674672835039529 0.0
  outer loop
    vertex -337.58581014846385 236.83698311499785 29.99999999999999
    vertex -336.29069872864994 235.75513825434803 -15.000000000000007
    vertex -337.58581014846385 236.83698311499785 -15.000000000000007
  endloop
endfacet
facet normal 0.6410881130944974 0.7674672835039529 0.0
  outer loop
    vertex -336.29069872864994 235.75513825434803 -15.000000000000007
    vertex -337.58581014846385 236.83698311499785 29.99999999999999
    vertex -336.29069872864994 235.75513825434803 29.99999999999999
  endloop
endfacet
facet normal 0.9449273537340357 -0.32728014936013533 0.0
  outer loop
    vertex -334.550742226161 229.48599108828208 -15.000000000000007
    vertex -335.1030319042037 227.89141340006037 29.99999999999999
    vertex -335.1030319042037 227.89141340006037 -15.000000000000007
  endloop
endfacet
facet normal 0.9449273537340357 -0.32728014936013533 0.0
  outer loop
    vertex -335.1030319042037 227.89141340006037 29.99999999999999
    vertex -334.550742226161 229.48599108828208 -15.000000000000007
    vertex -334.550742226161 229.48599108828208 29.99999999999999
  endloop
endfacet
facet normal -0.8061262004289483 -0.5917436514082656 0.0
  outer loop
    vertex -347.4941795879723 227.5311298191293 29.99999999999999
    vertex -346.49560417373146 226.17078095419765 -15.000000000000007
    vertex -346.49560417373146 226.17078095419765 29.99999999999999
  endloop
endfacet
facet normal -0.8061262004289483 -0.5917436514082656 0.0
  outer loop
    vertex -346.49560417373146 226.17078095419765 -15.000000000000007
    vertex -347.4941795879723 227.5311298191293 29.99999999999999
    vertex -347.4941795879723 227.5311298191293 -15.000000000000007
  endloop
endfacet
facet normal 0.21099550228437633 0.9774870321471092 0.0
  outer loop
    vertex -340.7517129915367 237.93350884392942 29.99999999999999
    vertex -339.1021904056697 237.57745108041112 -15.000000000000007
    vertex -340.7517129915367 237.93350884392942 -15.000000000000007
  endloop
endfacet
facet normal 0.21099550228437633 0.9774870321471092 0.0
  outer loop
    vertex -339.1021904056697 237.57745108041112 -15.000000000000007
    vertex -340.7517129915367 237.93350884392942 29.99999999999999
    vertex -339.1021904056697 237.57745108041112 29.99999999999999
  endloop
endfacet
facet normal 0.8061262004289296 0.5917436514082912 0.0
  outer loop
    vertex -336.29069872864994 235.75513825434803 -15.000000000000007
    vertex -335.2921233144091 234.39478938941647 29.99999999999999
    vertex -335.2921233144091 234.39478938941647 -15.000000000000007
  endloop
endfacet
facet normal 0.8061262004289296 0.5917436514082912 0.0
  outer loop
    vertex -335.2921233144091 234.39478938941647 29.99999999999999
    vertex -336.29069872864994 235.75513825434803 -15.000000000000007
    vertex -336.29069872864994 235.75513825434803 29.99999999999999
  endloop
endfacet
facet normal 0.30901699437494423 -0.9510565162951546 0.0
  outer loop
    vertex -341.3931514511907 233.86295960427287 29.99999999999999
    vertex -343.0977286828389 233.3091088879602 -15.000000000000007
    vertex -341.3931514511907 233.86295960427287 -15.000000000000007
  endloop
endfacet
facet normal 0.30901699437494423 -0.9510565162951546 0.0
  outer loop
    vertex -343.0977286828389 233.3091088879602 -15.000000000000007
    vertex -341.3931514511907 233.86295960427287 29.99999999999999
    vertex -343.0977286828389 233.3091088879602 29.99999999999999
  endloop
endfacet
facet normal 1.0 0.0 0.0
  outer loop
    vertex -344.15121534844667 231.8591088879602 -15.000000000000007
    vertex -344.15121534844667 230.06681032058552 29.99999999999999
    vertex -344.15121534844667 230.06681032058552 -15.000000000000007
  endloop
endfacet
facet normal 1.0 0.0 0.0
  outer loop
    vertex -344.15121534844667 230.06681032058552 29.99999999999999
    vertex -344.15121534844667 231.8591088879602 -15.000000000000007
    vertex -344.15121534844667 231.8591088879602 29.99999999999999
  endloop
endfacet
facet normal -1.0 0.0 0.0
  outer loop
    vertex -338.6350875539348 231.8591088879602 29.99999999999999
    vertex -338.6350875539348 230.06681032058552 -15.000000000000007
    vertex -338.6350875539348 230.06681032058552 29.99999999999999
  endloop
endfacet
facet normal -1.0 0.0 0.0
  outer loop
    vertex -338.6350875539348 230.06681032058552 -15.000000000000007
    vertex -338.6350875539348 231.8591088879602 29.99999999999999
    vertex -338.6350875539348 231.8591088879602 -15.000000000000007
  endloop
endfacet
facet normal -0.8090169943749412 0.5877852522924816 0.0
  outer loop
    vertex -338.6350875539348 230.06681032058552 29.99999999999999
    vertex -339.68857421954255 228.61681032058556 -15.000000000000007
    vertex -339.68857421954255 228.61681032058556 29.99999999999999
  endloop
endfacet
facet normal -0.8090169943749412 0.5877852522924816 0.0
  outer loop
    vertex -339.68857421954255 228.61681032058556 -15.000000000000007
    vertex -338.6350875539348 230.06681032058552 29.99999999999999
    vertex -338.6350875539348 230.06681032058552 -15.000000000000007
  endloop
endfacet
facet normal -0.9243151631439402 -0.3816300291934468 0.0
  outer loop
    vertex -348.1381854232384 229.09092415697967 29.99999999999999
    vertex -347.4941795879723 227.5311298191293 -15.000000000000007
    vertex -347.4941795879723 227.5311298191293 29.99999999999999
  endloop
endfacet
facet normal -0.9243151631439402 -0.3816300291934468 0.0
  outer loop
    vertex -347.4941795879723 227.5311298191293 -15.000000000000007
    vertex -348.1381854232384 229.09092415697967 29.99999999999999
    vertex -348.1381854232384 229.09092415697967 -15.000000000000007
  endloop
endfacet
facet normal -0.6410881130944817 -0.7674672835039661 0.0
  outer loop
    vertex -345.20049275391756 225.0889360935479 29.99999999999999
    vertex -346.49560417373146 226.17078095419765 -15.000000000000007
    vertex -345.20049275391756 225.0889360935479 -15.000000000000007
  endloop
endfacet
facet normal -0.6410881130944817 -0.7674672835039661 0.0
  outer loop
    vertex -346.49560417373146 226.17078095419765 -15.000000000000007
    vertex -345.20049275391756 225.0889360935479 29.99999999999999
    vertex -346.49560417373146 226.17078095419765 29.99999999999999
  endloop
endfacet
facet normal 0.2674336353275791 -0.9635762817211077 0.0
  outer loop
    vertex -338.7217412468366 224.4927534622653 29.99999999999999
    vertex -340.3477892532366 224.04145558599132 -15.000000000000007
    vertex -338.7217412468366 224.4927534622653 -15.000000000000007
  endloop
endfacet
facet normal 0.2674336353275791 -0.9635762817211077 0.0
  outer loop
    vertex -340.3477892532366 224.04145558599132 -15.000000000000007
    vertex -338.7217412468366 224.4927534622653 29.99999999999999
    vertex -340.3477892532366 224.04145558599132 29.99999999999999
  endloop
endfacet
facet normal -0.6845969500107387 0.7289218175058242 0.0
  outer loop
    vertex -346.7654224357184 235.45057639593432 29.99999999999999
    vertex -345.53535701104875 236.6058430072753 -15.000000000000007
    vertex -346.7654224357184 235.45057639593432 -15.000000000000007
  endloop
endfacet
facet normal -0.6845969500107387 0.7289218175058242 0.0
  outer loop
    vertex -345.53535701104875 236.6058430072753 -15.000000000000007
    vertex -346.7654224357184 235.45057639593432 29.99999999999999
    vertex -345.53535701104875 236.6058430072753 29.99999999999999
  endloop
endfacet
facet normal 0.8090169943749587 -0.5877852522924576 0.0
  outer loop
    vertex -343.0977286828389 233.3091088879602 -15.000000000000007
    vertex -344.15121534844667 231.8591088879602 29.99999999999999
    vertex -344.15121534844667 231.8591088879602 -15.000000000000007
  endloop
endfacet
facet normal 0.8090169943749587 -0.5877852522924576 0.0
  outer loop
    vertex -344.15121534844667 231.8591088879602 29.99999999999999
    vertex -343.0977286828389 233.3091088879602 -15.000000000000007
    vertex -343.0977286828389 233.3091088879602 29.99999999999999
  endloop
endfacet
facet normal 0.30901699437498975 0.95105651629514 0.0
  outer loop
    vertex -343.0977286828389 228.61681032058556 29.99999999999999
    vertex -341.3931514511907 228.06295960427283 -15.000000000000007
    vertex -343.0977286828389 228.61681032058556 -15.000000000000007
  endloop
endfacet
facet normal 0.30901699437498975 0.95105651629514 0.0
  outer loop
    vertex -341.3931514511907 228.06295960427283 -15.000000000000007
    vertex -343.0977286828389 228.61681032058556 29.99999999999999
    vertex -341.3931514511907 228.06295960427283 29.99999999999999
  endloop
endfacet
facet normal 0.029063601974049055 -0.9995775642941843 0.0
  outer loop
    vertex -340.3477892532366 224.04145558599132 29.99999999999999
    vertex -342.0345899108447 223.99241036461632 -15.000000000000007
    vertex -340.3477892532366 224.04145558599132 -15.000000000000007
  endloop
endfacet
facet normal 0.029063601974049055 -0.9995775642941843 0.0
  outer loop
    vertex -342.0345899108447 223.99241036461632 -15.000000000000007
    vertex -340.3477892532366 224.04145558599132 29.99999999999999
    vertex -342.0345899108447 223.99241036461632 29.99999999999999
  endloop
endfacet
facet normal 0.43879231488751835 0.898588506712418 0.0
  outer loop
    vertex -339.1021904056697 237.57745108041112 29.99999999999999
    vertex -337.58581014846385 236.83698311499785 -15.000000000000007
    vertex -339.1021904056697 237.57745108041112 -15.000000000000007
  endloop
endfacet
facet normal 0.43879231488751835 0.898588506712418 0.0
  outer loop
    vertex -337.58581014846385 236.83698311499785 -15.000000000000007
    vertex -339.1021904056697 237.57745108041112 29.99999999999999
    vertex -337.58581014846385 236.83698311499785 29.99999999999999
  endloop
endfacet
facet normal 0.49026139787767437 -0.8715754481116531 0.0
  outer loop
    vertex -337.25094589133266 225.3200762012704 29.99999999999999
    vertex -338.7217412468366 224.4927534622653 -15.000000000000007
    vertex -337.25094589133266 225.3200762012704 -15.000000000000007
  endloop
endfacet
facet normal 0.49026139787767437 -0.8715754481116531 0.0
  outer loop
    vertex -338.7217412468366 224.4927534622653 -15.000000000000007
    vertex -337.25094589133266 225.3200762012704 29.99999999999999
    vertex -338.7217412468366 224.4927534622653 29.99999999999999
  endloop
endfacet
facet normal -0.30901699437498975 0.95105651629514 0.0
  outer loop
    vertex -341.3931514511907 228.06295960427283 29.99999999999999
    vertex -339.68857421954255 228.61681032058556 -15.000000000000007
    vertex -341.3931514511907 228.06295960427283 -15.000000000000007
  endloop
endfacet
facet normal -0.30901699437498975 0.95105651629514 0.0
  outer loop
    vertex -339.68857421954255 228.61681032058556 -15.000000000000007
    vertex -341.3931514511907 228.06295960427283 29.99999999999999
    vertex -339.68857421954255 228.61681032058556 29.99999999999999
  endloop
endfacet
facet normal -0.02906360197399563 0.9995775642941859 0.0
  outer loop
    vertex -342.43851364914485 237.8844636225545 29.99999999999999
    vertex -340.7517129915367 237.93350884392942 -15.000000000000007
    vertex -342.43851364914485 237.8844636225545 -15.000000000000007
  endloop
endfacet
facet normal -0.02906360197399563 0.9995775642941859 0.0
  outer loop
    vertex -340.7517129915367 237.93350884392942 -15.000000000000007
    vertex -342.43851364914485 237.8844636225545 29.99999999999999
    vertex -340.7517129915367 237.93350884392942 29.99999999999999
  endloop
endfacet
endsolid FINAL_RC1
