solid FINAL_RC1
facet normal -0.30901699437494423 -0.9510565162951548 -0.0
  outer loop
    vertex -41.14107738621128 -180.22406691590126 31.0
    vertex -42.84565461785946 -179.67021619958862 0.0
    vertex -41.14107738621128 -180.22406691590126 0.0
  endloop
endfacet
facet normal -0.30901699437494423 -0.9510565162951548 -0.0
  outer loop
    vertex -42.84565461785946 -179.67021619958862 0.0
    vertex -41.14107738621128 -180.22406691590126 31.0
    vertex -42.84565461785946 -179.67021619958862 31.0
  endloop
endfacet
facet normal -0.9957927485223658 0.09163406566486375 0.0
  outer loop
    vertex -49.68806384288918 -181.09324768359784 31.0
    vertex -49.84269756791875 -182.77366141340676 0.0
    vertex -49.84269756791875 -182.77366141340676 31.0
  endloop
endfacet
facet normal -0.9957927485223658 0.09163406566486375 0.0
  outer loop
    vertex -49.84269756791875 -182.77366141340676 0.0
    vertex -49.68806384288918 -181.09324768359784 31.0
    vertex -49.68806384288918 -181.09324768359784 0.0
  endloop
endfacet
facet normal 0.9957927485223659 -0.09163406566486253 0.0
  outer loop
    vertex -35.848611667800164 -182.36677098577047 0.0
    vertex -36.00324539282974 -184.04718471557942 31.0
    vertex -36.00324539282974 -184.04718471557942 0.0
  endloop
endfacet
facet normal 0.9957927485223659 -0.09163406566486253 0.0
  outer loop
    vertex -36.00324539282974 -184.04718471557942 31.0
    vertex -35.848611667800164 -182.36677098577047 0.0
    vertex -35.848611667800164 -182.36677098577047 31.0
  endloop
endfacet
facet normal -0.8061262004289297 -0.5917436514082912 -0.0
  outer loop
    vertex -48.946682754641074 -186.00204598473223 31.0
    vertex -47.94810734040023 -187.3623948496638 0.0
    vertex -47.94810734040023 -187.3623948496638 31.0
  endloop
endfacet
facet normal -0.8061262004289297 -0.5917436514082912 -0.0
  outer loop
    vertex -47.94810734040023 -187.3623948496638 0.0
    vertex -48.946682754641074 -186.00204598473223 31.0
    vertex -48.946682754641074 -186.00204598473223 0.0
  endloop
endfacet
facet normal 1.0 0.0 0.0
  outer loop
    vertex -45.603718515115396 -181.67406691590128 0.0
    vertex -45.603718515115396 -183.46636548327595 31.0
    vertex -45.603718515115396 -183.46636548327595 0.0
  endloop
endfacet
facet normal 1.0 0.0 0.0
  outer loop
    vertex -45.603718515115396 -183.46636548327595 31.0
    vertex -45.603718515115396 -181.67406691590128 0.0
    vertex -45.603718515115396 -181.67406691590128 31.0
  endloop
endfacet
facet normal 0.0 0.0 1.0
  outer loop
    vertex -45.13661566338043 -189.18470767572686 31.0
    vertex -45.603718515115396 -183.46636548327595 31.0
    vertex -46.652995920586314 -188.44423971031364 31.0
  endloop
endfacet
facet normal 0.0 0.0 1.0
  outer loop
    vertex -45.603718515115396 -183.46636548327595 31.0
    vertex -45.13661566338043 -189.18470767572686 31.0
    vertex -44.55023184950764 -184.91636548327597 31.0
  endloop
endfacet
facet normal 0.0 0.0 1.0
  outer loop
    vertex -44.55023184950764 -184.91636548327597 31.0
    vertex -45.13661566338043 -189.18470767572686 31.0
    vertex -43.48709307751348 -189.54076543924518 31.0
  endloop
endfacet
facet normal 0.0 0.0 1.0
  outer loop
    vertex -44.55023184950764 -184.91636548327597 31.0
    vertex -43.48709307751348 -189.54076543924518 31.0
    vertex -42.84565461785946 -185.4702161995886 31.0
  endloop
endfacet
facet normal 0.0 0.0 1.0
  outer loop
    vertex -42.84565461785946 -185.4702161995886 31.0
    vertex -43.48709307751348 -189.54076543924518 31.0
    vertex -41.80029241990534 -189.49172021787024 31.0
  endloop
endfacet
facet normal 0.0 0.0 1.0
  outer loop
    vertex -42.84565461785946 -185.4702161995886 31.0
    vertex -41.80029241990534 -189.49172021787024 31.0
    vertex -41.14107738621128 -184.91636548327597 31.0
  endloop
endfacet
facet normal 0.0 0.0 1.0
  outer loop
    vertex -41.14107738621128 -184.91636548327597 31.0
    vertex -41.80029241990534 -189.49172021787024 31.0
    vertex -40.17424441350532 -189.04042234159618 31.0
  endloop
endfacet
facet normal 0.0 0.0 1.0
  outer loop
    vertex -41.14107738621128 -184.91636548327597 31.0
    vertex -40.17424441350532 -189.04042234159618 31.0
    vertex -40.08759072060352 -183.46636548327595 31.0
  endloop
endfacet
facet normal 0.0 0.0 1.0
  outer loop
    vertex -40.08759072060352 -183.46636548327595 31.0
    vertex -40.17424441350532 -189.04042234159618 31.0
    vertex -38.7034490580014 -188.21309960259111 31.0
  endloop
endfacet
facet normal 0.0 0.0 1.0
  outer loop
    vertex -40.08759072060352 -183.46636548327595 31.0
    vertex -38.7034490580014 -188.21309960259111 31.0
    vertex -40.08759072060352 -181.67406691590128 31.0
  endloop
endfacet
facet normal 0.0 0.0 1.0
  outer loop
    vertex -40.08759072060352 -181.67406691590128 31.0
    vertex -38.7034490580014 -188.21309960259111 31.0
    vertex -39.038313315132605 -176.6961926888636 31.0
  endloop
endfacet
facet normal 0.0 0.0 1.0
  outer loop
    vertex -39.038313315132605 -176.6961926888636 31.0
    vertex -38.7034490580014 -188.21309960259111 31.0
    vertex -37.74320189531869 -177.77803754951344 31.0
  endloop
endfacet
facet normal 0.0 0.0 1.0
  outer loop
    vertex -37.74320189531869 -177.77803754951344 31.0
    vertex -38.7034490580014 -188.21309960259111 31.0
    vertex -37.47338363333179 -187.0578329912501 31.0
  endloop
endfacet
facet normal 0.0 0.0 1.0
  outer loop
    vertex -37.74320189531869 -177.77803754951344 31.0
    vertex -37.47338363333179 -187.0578329912501 31.0
    vertex -36.744626481077844 -179.138386414445 31.0
  endloop
endfacet
facet normal 0.0 0.0 1.0
  outer loop
    vertex -36.744626481077844 -179.138386414445 31.0
    vertex -37.47338363333179 -187.0578329912501 31.0
    vertex -36.555535070872466 -185.64176240380107 31.0
  endloop
endfacet
facet normal 0.0 0.0 1.0
  outer loop
    vertex -36.744626481077844 -179.138386414445 31.0
    vertex -36.555535070872466 -185.64176240380107 31.0
    vertex -36.10062064581178 -180.69818075229537 31.0
  endloop
endfacet
facet normal 0.0 0.0 1.0
  outer loop
    vertex -36.10062064581178 -180.69818075229537 31.0
    vertex -36.555535070872466 -185.64176240380107 31.0
    vertex -36.00324539282974 -184.04718471557942 31.0
  endloop
endfacet
facet normal 0.0 0.0 1.0
  outer loop
    vertex -36.10062064581178 -180.69818075229537 31.0
    vertex -36.00324539282974 -184.04718471557942 31.0
    vertex -35.848611667800164 -182.36677098577047 31.0
  endloop
endfacet
facet normal 0.0 0.0 1.0
  outer loop
    vertex -49.59068858990714 -184.44225164688186 31.0
    vertex -49.68806384288918 -181.09324768359784 31.0
    vertex -49.84269756791875 -182.77366141340676 31.0
  endloop
endfacet
facet normal 0.0 0.0 1.0
  outer loop
    vertex -49.68806384288918 -181.09324768359784 31.0
    vertex -49.59068858990714 -184.44225164688186 31.0
    vertex -49.13577416484645 -179.49866999537616 31.0
  endloop
endfacet
facet normal 0.0 0.0 1.0
  outer loop
    vertex -49.13577416484645 -179.49866999537616 31.0
    vertex -49.59068858990714 -184.44225164688186 31.0
    vertex -48.946682754641074 -186.00204598473223 31.0
  endloop
endfacet
facet normal 0.0 0.0 1.0
  outer loop
    vertex -49.13577416484645 -179.49866999537616 31.0
    vertex -48.946682754641074 -186.00204598473223 31.0
    vertex -48.217925602387126 -178.08259940792712 31.0
  endloop
endfacet
facet normal 0.0 0.0 1.0
  outer loop
    vertex -48.217925602387126 -178.08259940792712 31.0
    vertex -48.946682754641074 -186.00204598473223 31.0
    vertex -47.94810734040023 -187.3623948496638 31.0
  endloop
endfacet
facet normal 0.0 0.0 1.0
  outer loop
    vertex -48.217925602387126 -178.08259940792712 31.0
    vertex -47.94810734040023 -187.3623948496638 31.0
    vertex -46.98786017771752 -176.92733279658611 31.0
  endloop
endfacet
facet normal 0.0 0.0 1.0
  outer loop
    vertex -46.98786017771752 -176.92733279658611 31.0
    vertex -47.94810734040023 -187.3623948496638 31.0
    vertex -46.652995920586314 -188.44423971031364 31.0
  endloop
endfacet
facet normal 0.0 0.0 1.0
  outer loop
    vertex -46.98786017771752 -176.92733279658611 31.0
    vertex -46.652995920586314 -188.44423971031364 31.0
    vertex -45.5170648222136 -176.10001005758102 31.0
  endloop
endfacet
facet normal 0.0 0.0 1.0
  outer loop
    vertex -45.5170648222136 -176.10001005758102 31.0
    vertex -46.652995920586314 -188.44423971031364 31.0
    vertex -45.603718515115396 -181.67406691590128 31.0
  endloop
endfacet
facet normal 0.0 0.0 1.0
  outer loop
    vertex -45.603718515115396 -181.67406691590128 31.0
    vertex -46.652995920586314 -188.44423971031364 31.0
    vertex -45.603718515115396 -183.46636548327595 31.0
  endloop
endfacet
facet normal 0.0 0.0 1.0
  outer loop
    vertex -45.5170648222136 -176.10001005758102 31.0
    vertex -45.603718515115396 -181.67406691590128 31.0
    vertex -44.55023184950764 -180.22406691590126 31.0
  endloop
endfacet
facet normal 0.0 0.0 1.0
  outer loop
    vertex -45.5170648222136 -176.10001005758102 31.0
    vertex -44.55023184950764 -180.22406691590126 31.0
    vertex -43.89101681581357 -175.648712181307 31.0
  endloop
endfacet
facet normal 0.0 0.0 1.0
  outer loop
    vertex -43.89101681581357 -175.648712181307 31.0
    vertex -44.55023184950764 -180.22406691590126 31.0
    vertex -42.84565461785946 -179.67021619958862 31.0
  endloop
endfacet
facet normal 0.0 0.0 1.0
  outer loop
    vertex -43.89101681581357 -175.648712181307 31.0
    vertex -42.84565461785946 -179.67021619958862 31.0
    vertex -42.20421615820544 -175.59966695993205 31.0
  endloop
endfacet
facet normal 0.0 0.0 1.0
  outer loop
    vertex -42.20421615820544 -175.59966695993205 31.0
    vertex -42.84565461785946 -179.67021619958862 31.0
    vertex -41.14107738621128 -180.22406691590126 31.0
  endloop
endfacet
facet normal 0.0 0.0 1.0
  outer loop
    vertex -42.20421615820544 -175.59966695993205 31.0
    vertex -41.14107738621128 -180.22406691590126 31.0
    vertex -40.554693572338486 -175.95572472345037 31.0
  endloop
endfacet
facet normal 0.0 0.0 1.0
  outer loop
    vertex -40.554693572338486 -175.95572472345037 31.0
    vertex -41.14107738621128 -180.22406691590126 31.0
    vertex -40.08759072060352 -181.67406691590128 31.0
  endloop
endfacet
facet normal 0.0 0.0 1.0
  outer loop
    vertex -40.554693572338486 -175.95572472345037 31.0
    vertex -40.08759072060352 -181.67406691590128 31.0
    vertex -39.038313315132605 -176.6961926888636 31.0
  endloop
endfacet
facet normal 0.6410881130944974 0.7674672835039531 0.0
  outer loop
    vertex -39.038313315132605 -176.6961926888636 31.0
    vertex -37.74320189531869 -177.77803754951344 0.0
    vertex -39.038313315132605 -176.6961926888636 0.0
  endloop
endfacet
facet normal 0.6410881130944974 0.7674672835039531 0.0
  outer loop
    vertex -37.74320189531869 -177.77803754951344 0.0
    vertex -39.038313315132605 -176.6961926888636 31.0
    vertex -37.74320189531869 -177.77803754951344 31.0
  endloop
endfacet
facet normal -0.8090169943749544 0.5877852522924637 0.0
  outer loop
    vertex -40.08759072060352 -183.46636548327595 31.0
    vertex -41.14107738621128 -184.91636548327597 0.0
    vertex -41.14107738621128 -184.91636548327597 31.0
  endloop
endfacet
facet normal -0.8090169943749544 0.5877852522924637 0.0
  outer loop
    vertex -41.14107738621128 -184.91636548327597 0.0
    vertex -40.08759072060352 -183.46636548327595 31.0
    vertex -40.08759072060352 -183.46636548327595 0.0
  endloop
endfacet
facet normal 0.9449273537340328 -0.3272801493601436 0.0
  outer loop
    vertex -36.00324539282974 -184.04718471557942 0.0
    vertex -36.555535070872466 -185.64176240380107 31.0
    vertex -36.555535070872466 -185.64176240380107 0.0
  endloop
endfacet
facet normal 0.9449273537340328 -0.3272801493601436 0.0
  outer loop
    vertex -36.555535070872466 -185.64176240380107 31.0
    vertex -36.00324539282974 -184.04718471557942 0.0
    vertex -36.00324539282974 -184.04718471557942 31.0
  endloop
endfacet
facet normal 0.8061262004289297 0.5917436514082912 0.0
  outer loop
    vertex -37.74320189531869 -177.77803754951344 0.0
    vertex -36.744626481077844 -179.138386414445 31.0
    vertex -36.744626481077844 -179.138386414445 0.0
  endloop
endfacet
facet normal 0.8061262004289297 0.5917436514082912 0.0
  outer loop
    vertex -36.744626481077844 -179.138386414445 31.0
    vertex -37.74320189531869 -177.77803754951344 0.0
    vertex -37.74320189531869 -177.77803754951344 31.0
  endloop
endfacet
facet normal -0.4387923148874859 -0.8985885067124336 -0.0
  outer loop
    vertex -45.13661566338043 -189.18470767572686 31.0
    vertex -46.652995920586314 -188.44423971031364 0.0
    vertex -45.13661566338043 -189.18470767572686 0.0
  endloop
endfacet
facet normal -0.4387923148874859 -0.8985885067124336 -0.0
  outer loop
    vertex -46.652995920586314 -188.44423971031364 0.0
    vertex -45.13661566338043 -189.18470767572686 31.0
    vertex -46.652995920586314 -188.44423971031364 31.0
  endloop
endfacet
facet normal 0.21099550228440186 0.9774870321471038 0.0
  outer loop
    vertex -42.20421615820544 -175.59966695993205 31.0
    vertex -40.554693572338486 -175.95572472345037 0.0
    vertex -42.20421615820544 -175.59966695993205 0.0
  endloop
endfacet
facet normal 0.21099550228440186 0.9774870321471038 0.0
  outer loop
    vertex -40.554693572338486 -175.95572472345037 0.0
    vertex -42.20421615820544 -175.59966695993205 31.0
    vertex -40.554693572338486 -175.95572472345037 31.0
  endloop
endfacet
facet normal 0.30901699437494423 -0.9510565162951548 0.0
  outer loop
    vertex -42.84565461785946 -179.67021619958862 31.0
    vertex -44.55023184950764 -180.22406691590126 0.0
    vertex -42.84565461785946 -179.67021619958862 0.0
  endloop
endfacet
facet normal 0.30901699437494423 -0.9510565162951548 0.0
  outer loop
    vertex -44.55023184950764 -180.22406691590126 0.0
    vertex -42.84565461785946 -179.67021619958862 31.0
    vertex -44.55023184950764 -180.22406691590126 31.0
  endloop
endfacet
facet normal -1.0 0.0 0.0
  outer loop
    vertex -40.08759072060352 -181.67406691590128 31.0
    vertex -40.08759072060352 -183.46636548327595 0.0
    vertex -40.08759072060352 -183.46636548327595 31.0
  endloop
endfacet
facet normal -1.0 0.0 0.0
  outer loop
    vertex -40.08759072060352 -183.46636548327595 0.0
    vertex -40.08759072060352 -181.67406691590128 31.0
    vertex -40.08759072060352 -181.67406691590128 0.0
  endloop
endfacet
facet normal -0.6410881130945053 -0.7674672835039463 -0.0
  outer loop
    vertex -46.652995920586314 -188.44423971031364 31.0
    vertex -47.94810734040023 -187.3623948496638 0.0
    vertex -46.652995920586314 -188.44423971031364 0.0
  endloop
endfacet
facet normal -0.6410881130945053 -0.7674672835039463 -0.0
  outer loop
    vertex -47.94810734040023 -187.3623948496638 0.0
    vertex -46.652995920586314 -188.44423971031364 31.0
    vertex -47.94810734040023 -187.3623948496638 31.0
  endloop
endfacet
facet normal -0.9243151631439441 -0.3816300291934374 -0.0
  outer loop
    vertex -49.59068858990714 -184.44225164688186 31.0
    vertex -48.946682754641074 -186.00204598473223 0.0
    vertex -48.946682754641074 -186.00204598473223 31.0
  endloop
endfacet
facet normal -0.9243151631439441 -0.3816300291934374 -0.0
  outer loop
    vertex -48.946682754641074 -186.00204598473223 0.0
    vertex -49.59068858990714 -184.44225164688186 31.0
    vertex -49.59068858990714 -184.44225164688186 0.0
  endloop
endfacet
facet normal 0.2674336353276039 -0.9635762817211008 0.0
  outer loop
    vertex -40.17424441350532 -189.04042234159618 31.0
    vertex -41.80029241990534 -189.49172021787024 0.0
    vertex -40.17424441350532 -189.04042234159618 0.0
  endloop
endfacet
facet normal 0.2674336353276039 -0.9635762817211008 0.0
  outer loop
    vertex -41.80029241990534 -189.49172021787024 0.0
    vertex -40.17424441350532 -189.04042234159618 31.0
    vertex -41.80029241990534 -189.49172021787024 31.0
  endloop
endfacet
facet normal 0.0 0.0 -1.0
  outer loop
    vertex -49.68806384288918 -181.09324768359784 0.0
    vertex -49.59068858990714 -184.44225164688186 0.0
    vertex -49.84269756791875 -182.77366141340676 0.0
  endloop
endfacet
facet normal 0.0 0.0 -1.0
  outer loop
    vertex -49.59068858990714 -184.44225164688186 0.0
    vertex -49.68806384288918 -181.09324768359784 0.0
    vertex -49.13577416484645 -179.49866999537616 0.0
  endloop
endfacet
facet normal 0.0 0.0 -1.0
  outer loop
    vertex -49.59068858990714 -184.44225164688186 0.0
    vertex -49.13577416484645 -179.49866999537616 0.0
    vertex -48.946682754641074 -186.00204598473223 0.0
  endloop
endfacet
facet normal 0.0 0.0 -1.0
  outer loop
    vertex -48.946682754641074 -186.00204598473223 0.0
    vertex -49.13577416484645 -179.49866999537616 0.0
    vertex -48.217925602387126 -178.08259940792712 0.0
  endloop
endfacet
facet normal 0.0 0.0 -1.0
  outer loop
    vertex -48.946682754641074 -186.00204598473223 0.0
    vertex -48.217925602387126 -178.08259940792712 0.0
    vertex -47.94810734040023 -187.3623948496638 0.0
  endloop
endfacet
facet normal 0.0 0.0 -1.0
  outer loop
    vertex -47.94810734040023 -187.3623948496638 0.0
    vertex -48.217925602387126 -178.08259940792712 0.0
    vertex -46.98786017771752 -176.92733279658611 0.0
  endloop
endfacet
facet normal 0.0 0.0 -1.0
  outer loop
    vertex -47.94810734040023 -187.3623948496638 0.0
    vertex -46.98786017771752 -176.92733279658611 0.0
    vertex -46.652995920586314 -188.44423971031364 0.0
  endloop
endfacet
facet normal 0.0 0.0 -1.0
  outer loop
    vertex -46.652995920586314 -188.44423971031364 0.0
    vertex -46.98786017771752 -176.92733279658611 0.0
    vertex -45.5170648222136 -176.10001005758102 0.0
  endloop
endfacet
facet normal 0.0 0.0 -1.0
  outer loop
    vertex -46.652995920586314 -188.44423971031364 0.0
    vertex -45.5170648222136 -176.10001005758102 0.0
    vertex -45.603718515115396 -181.67406691590128 0.0
  endloop
endfacet
facet normal 0.0 0.0 -1.0
  outer loop
    vertex -45.603718515115396 -181.67406691590128 0.0
    vertex -45.5170648222136 -176.10001005758102 0.0
    vertex -44.55023184950764 -180.22406691590126 0.0
  endloop
endfacet
facet normal 0.0 0.0 -1.0
  outer loop
    vertex -44.55023184950764 -180.22406691590126 0.0
    vertex -45.5170648222136 -176.10001005758102 0.0
    vertex -43.89101681581357 -175.648712181307 0.0
  endloop
endfacet
facet normal 0.0 0.0 -1.0
  outer loop
    vertex -44.55023184950764 -180.22406691590126 0.0
    vertex -43.89101681581357 -175.648712181307 0.0
    vertex -42.84565461785946 -179.67021619958862 0.0
  endloop
endfacet
facet normal 0.0 0.0 -1.0
  outer loop
    vertex -42.84565461785946 -179.67021619958862 0.0
    vertex -43.89101681581357 -175.648712181307 0.0
    vertex -42.20421615820544 -175.59966695993205 0.0
  endloop
endfacet
facet normal 0.0 0.0 -1.0
  outer loop
    vertex -42.84565461785946 -179.67021619958862 0.0
    vertex -42.20421615820544 -175.59966695993205 0.0
    vertex -41.14107738621128 -180.22406691590126 0.0
  endloop
endfacet
facet normal 0.0 0.0 -1.0
  outer loop
    vertex -41.14107738621128 -180.22406691590126 0.0
    vertex -42.20421615820544 -175.59966695993205 0.0
    vertex -40.554693572338486 -175.95572472345037 0.0
  endloop
endfacet
facet normal 0.0 0.0 -1.0
  outer loop
    vertex -41.14107738621128 -180.22406691590126 0.0
    vertex -40.554693572338486 -175.95572472345037 0.0
    vertex -40.08759072060352 -181.67406691590128 0.0
  endloop
endfacet
facet normal 0.0 0.0 -1.0
  outer loop
    vertex -40.08759072060352 -181.67406691590128 0.0
    vertex -40.554693572338486 -175.95572472345037 0.0
    vertex -39.038313315132605 -176.6961926888636 0.0
  endloop
endfacet
facet normal 0.0 0.0 -1.0
  outer loop
    vertex -40.08759072060352 -181.67406691590128 0.0
    vertex -39.038313315132605 -176.6961926888636 0.0
    vertex -40.08759072060352 -183.46636548327595 0.0
  endloop
endfacet
facet normal 0.0 0.0 -1.0
  outer loop
    vertex -46.652995920586314 -188.44423971031364 0.0
    vertex -45.603718515115396 -183.46636548327595 0.0
    vertex -45.13661566338043 -189.18470767572686 0.0
  endloop
endfacet
facet normal 0.0 0.0 -1.0
  outer loop
    vertex -45.603718515115396 -183.46636548327595 0.0
    vertex -46.652995920586314 -188.44423971031364 0.0
    vertex -45.603718515115396 -181.67406691590128 0.0
  endloop
endfacet
facet normal 0.0 0.0 -1.0
  outer loop
    vertex -45.13661566338043 -189.18470767572686 0.0
    vertex -45.603718515115396 -183.46636548327595 0.0
    vertex -44.55023184950764 -184.91636548327597 0.0
  endloop
endfacet
facet normal 0.0 0.0 -1.0
  outer loop
    vertex -45.13661566338043 -189.18470767572686 0.0
    vertex -44.55023184950764 -184.91636548327597 0.0
    vertex -43.48709307751348 -189.54076543924518 0.0
  endloop
endfacet
facet normal 0.0 0.0 -1.0
  outer loop
    vertex -43.48709307751348 -189.54076543924518 0.0
    vertex -44.55023184950764 -184.91636548327597 0.0
    vertex -42.84565461785946 -185.4702161995886 0.0
  endloop
endfacet
facet normal 0.0 0.0 -1.0
  outer loop
    vertex -43.48709307751348 -189.54076543924518 0.0
    vertex -42.84565461785946 -185.4702161995886 0.0
    vertex -41.80029241990534 -189.49172021787024 0.0
  endloop
endfacet
facet normal 0.0 0.0 -1.0
  outer loop
    vertex -41.80029241990534 -189.49172021787024 0.0
    vertex -42.84565461785946 -185.4702161995886 0.0
    vertex -41.14107738621128 -184.91636548327597 0.0
  endloop
endfacet
facet normal 0.0 0.0 -1.0
  outer loop
    vertex -41.80029241990534 -189.49172021787024 0.0
    vertex -41.14107738621128 -184.91636548327597 0.0
    vertex -40.17424441350532 -189.04042234159618 0.0
  endloop
endfacet
facet normal 0.0 0.0 -1.0
  outer loop
    vertex -40.17424441350532 -189.04042234159618 0.0
    vertex -41.14107738621128 -184.91636548327597 0.0
    vertex -40.08759072060352 -183.46636548327595 0.0
  endloop
endfacet
facet normal 0.0 0.0 -1.0
  outer loop
    vertex -40.17424441350532 -189.04042234159618 0.0
    vertex -40.08759072060352 -183.46636548327595 0.0
    vertex -38.7034490580014 -188.21309960259111 0.0
  endloop
endfacet
facet normal 0.0 0.0 -1.0
  outer loop
    vertex -38.7034490580014 -188.21309960259111 0.0
    vertex -40.08759072060352 -183.46636548327595 0.0
    vertex -39.038313315132605 -176.6961926888636 0.0
  endloop
endfacet
facet normal 0.0 0.0 -1.0
  outer loop
    vertex -38.7034490580014 -188.21309960259111 0.0
    vertex -39.038313315132605 -176.6961926888636 0.0
    vertex -37.74320189531869 -177.77803754951344 0.0
  endloop
endfacet
facet normal 0.0 0.0 -1.0
  outer loop
    vertex -38.7034490580014 -188.21309960259111 0.0
    vertex -37.74320189531869 -177.77803754951344 0.0
    vertex -37.47338363333179 -187.0578329912501 0.0
  endloop
endfacet
facet normal 0.0 0.0 -1.0
  outer loop
    vertex -37.47338363333179 -187.0578329912501 0.0
    vertex -37.74320189531869 -177.77803754951344 0.0
    vertex -36.744626481077844 -179.138386414445 0.0
  endloop
endfacet
facet normal 0.0 0.0 -1.0
  outer loop
    vertex -37.47338363333179 -187.0578329912501 0.0
    vertex -36.744626481077844 -179.138386414445 0.0
    vertex -36.555535070872466 -185.64176240380107 0.0
  endloop
endfacet
facet normal 0.0 0.0 -1.0
  outer loop
    vertex -36.555535070872466 -185.64176240380107 0.0
    vertex -36.744626481077844 -179.138386414445 0.0
    vertex -36.10062064581178 -180.69818075229537 0.0
  endloop
endfacet
facet normal 0.0 0.0 -1.0
  outer loop
    vertex -36.555535070872466 -185.64176240380107 0.0
    vertex -36.10062064581178 -180.69818075229537 0.0
    vertex -36.00324539282974 -184.04718471557942 0.0
  endloop
endfacet
facet normal 0.0 0.0 -1.0
  outer loop
    vertex -36.00324539282974 -184.04718471557942 0.0
    vertex -36.10062064581178 -180.69818075229537 0.0
    vertex -35.848611667800164 -182.36677098577047 0.0
  endloop
endfacet
facet normal 0.9887862883259435 0.14933745685059774 0.0
  outer loop
    vertex -36.10062064581178 -180.69818075229537 0.0
    vertex -35.848611667800164 -182.36677098577047 31.0
    vertex -35.848611667800164 -182.36677098577047 0.0
  endloop
endfacet
facet normal 0.9887862883259435 0.14933745685059774 0.0
  outer loop
    vertex -35.848611667800164 -182.36677098577047 31.0
    vertex -36.10062064581178 -180.69818075229537 0.0
    vertex -36.10062064581178 -180.69818075229537 31.0
  endloop
endfacet
facet normal 0.8391462158178655 -0.54390590038954 0.0
  outer loop
    vertex -36.555535070872466 -185.64176240380107 0.0
    vertex -37.47338363333179 -187.0578329912501 31.0
    vertex -37.47338363333179 -187.0578329912501 0.0
  endloop
endfacet
facet normal 0.8391462158178655 -0.54390590038954 0.0
  outer loop
    vertex -37.47338363333179 -187.0578329912501 31.0
    vertex -36.555535070872466 -185.64176240380107 0.0
    vertex -36.555535070872466 -185.64176240380107 31.0
  endloop
endfacet
facet normal 0.6845969500107387 -0.7289218175058242 0.0
  outer loop
    vertex -37.47338363333179 -187.0578329912501 31.0
    vertex -38.7034490580014 -188.21309960259111 0.0
    vertex -37.47338363333179 -187.0578329912501 0.0
  endloop
endfacet
facet normal 0.6845969500107387 -0.7289218175058242 0.0
  outer loop
    vertex -38.7034490580014 -188.21309960259111 0.0
    vertex -37.47338363333179 -187.0578329912501 31.0
    vertex -38.7034490580014 -188.21309960259111 31.0
  endloop
endfacet
facet normal -0.9449273537340344 0.32728014936013955 0.0
  outer loop
    vertex -49.13577416484645 -179.49866999537616 31.0
    vertex -49.68806384288918 -181.09324768359784 0.0
    vertex -49.68806384288918 -181.09324768359784 31.0
  endloop
endfacet
facet normal -0.9449273537340344 0.32728014936013955 0.0
  outer loop
    vertex -49.68806384288918 -181.09324768359784 0.0
    vertex -49.13577416484645 -179.49866999537616 31.0
    vertex -49.13577416484645 -179.49866999537616 0.0
  endloop
endfacet
facet normal -0.9887862883259435 -0.14933745685059774 -0.0
  outer loop
    vertex -49.84269756791875 -182.77366141340676 31.0
    vertex -49.59068858990714 -184.44225164688186 0.0
    vertex -49.59068858990714 -184.44225164688186 31.0
  endloop
endfacet
facet normal -0.9887862883259435 -0.14933745685059774 -0.0
  outer loop
    vertex -49.59068858990714 -184.44225164688186 0.0
    vertex -49.84269756791875 -182.77366141340676 31.0
    vertex -49.84269756791875 -182.77366141340676 0.0
  endloop
endfacet
facet normal -0.4902613978776642 0.8715754481116588 0.0
  outer loop
    vertex -46.98786017771752 -176.92733279658611 31.0
    vertex -45.5170648222136 -176.10001005758102 0.0
    vertex -46.98786017771752 -176.92733279658611 0.0
  endloop
endfacet
facet normal -0.4902613978776642 0.8715754481116588 0.0
  outer loop
    vertex -45.5170648222136 -176.10001005758102 0.0
    vertex -46.98786017771752 -176.92733279658611 31.0
    vertex -45.5170648222136 -176.10001005758102 31.0
  endloop
endfacet
facet normal -0.2674336353276039 0.9635762817211008 0.0
  outer loop
    vertex -45.5170648222136 -176.10001005758102 31.0
    vertex -43.89101681581357 -175.648712181307 0.0
    vertex -45.5170648222136 -176.10001005758102 0.0
  endloop
endfacet
facet normal -0.2674336353276039 0.9635762817211008 0.0
  outer loop
    vertex -43.89101681581357 -175.648712181307 0.0
    vertex -45.5170648222136 -176.10001005758102 31.0
    vertex -43.89101681581357 -175.648712181307 31.0
  endloop
endfacet
facet normal 0.8090169943749544 0.5877852522924637 0.0
  outer loop
    vertex -45.603718515115396 -183.46636548327595 0.0
    vertex -44.55023184950764 -184.91636548327597 31.0
    vertex -44.55023184950764 -184.91636548327597 0.0
  endloop
endfacet
facet normal 0.8090169943749544 0.5877852522924637 0.0
  outer loop
    vertex -44.55023184950764 -184.91636548327597 31.0
    vertex -45.603718515115396 -183.46636548327595 0.0
    vertex -45.603718515115396 -183.46636548327595 31.0
  endloop
endfacet
facet normal -0.8391462158178655 0.54390590038954 0.0
  outer loop
    vertex -48.217925602387126 -178.08259940792712 31.0
    vertex -49.13577416484645 -179.49866999537616 0.0
    vertex -49.13577416484645 -179.49866999537616 31.0
  endloop
endfacet
facet normal -0.8391462158178655 0.54390590038954 0.0
  outer loop
    vertex -49.13577416484645 -179.49866999537616 0.0
    vertex -48.217925602387126 -178.08259940792712 31.0
    vertex -48.217925602387126 -178.08259940792712 0.0
  endloop
endfacet
facet normal -0.8090169943749544 -0.5877852522924637 -0.0
  outer loop
    vertex -41.14107738621128 -180.22406691590126 31.0
    vertex -40.08759072060352 -181.67406691590128 0.0
    vertex -40.08759072060352 -181.67406691590128 31.0
  endloop
endfacet
facet normal -0.8090169943749544 -0.5877852522924637 -0.0
  outer loop
    vertex -40.08759072060352 -181.67406691590128 0.0
    vertex -41.14107738621128 -180.22406691590126 31.0
    vertex -41.14107738621128 -180.22406691590126 0.0
  endloop
endfacet
facet normal 0.9243151631439441 0.3816300291934374 0.0
  outer loop
    vertex -36.744626481077844 -179.138386414445 0.0
    vertex -36.10062064581178 -180.69818075229537 31.0
    vertex -36.10062064581178 -180.69818075229537 0.0
  endloop
endfacet
facet normal 0.9243151631439441 0.3816300291934374 0.0
  outer loop
    vertex -36.10062064581178 -180.69818075229537 31.0
    vertex -36.744626481077844 -179.138386414445 0.0
    vertex -36.744626481077844 -179.138386414445 31.0
  endloop
endfacet
facet normal -0.21099550228440186 -0.9774870321471038 -0.0
  outer loop
    vertex -43.48709307751348 -189.54076543924518 31.0
    vertex -45.13661566338043 -189.18470767572686 0.0
    vertex -43.48709307751348 -189.54076543924518 0.0
  endloop
endfacet
facet normal -0.21099550228440186 -0.9774870321471038 -0.0
  outer loop
    vertex -45.13661566338043 -189.18470767572686 0.0
    vertex -43.48709307751348 -189.54076543924518 31.0
    vertex -45.13661566338043 -189.18470767572686 31.0
  endloop
endfacet
facet normal 0.029063601974022336 -0.9995775642941851 0.0
  outer loop
    vertex -41.80029241990534 -189.49172021787024 31.0
    vertex -43.48709307751348 -189.54076543924518 0.0
    vertex -41.80029241990534 -189.49172021787024 0.0
  endloop
endfacet
facet normal 0.029063601974022336 -0.9995775642941851 0.0
  outer loop
    vertex -43.48709307751348 -189.54076543924518 0.0
    vertex -41.80029241990534 -189.49172021787024 31.0
    vertex -43.48709307751348 -189.54076543924518 31.0
  endloop
endfacet
facet normal -0.6845969500107387 0.7289218175058242 0.0
  outer loop
    vertex -48.217925602387126 -178.08259940792712 31.0
    vertex -46.98786017771752 -176.92733279658611 0.0
    vertex -48.217925602387126 -178.08259940792712 0.0
  endloop
endfacet
facet normal -0.6845969500107387 0.7289218175058242 0.0
  outer loop
    vertex -46.98786017771752 -176.92733279658611 0.0
    vertex -48.217925602387126 -178.08259940792712 31.0
    vertex -46.98786017771752 -176.92733279658611 31.0
  endloop
endfacet
facet normal 0.8090169943749544 -0.5877852522924637 0.0
  outer loop
    vertex -44.55023184950764 -180.22406691590126 0.0
    vertex -45.603718515115396 -181.67406691590128 31.0
    vertex -45.603718515115396 -181.67406691590128 0.0
  endloop
endfacet
facet normal 0.8090169943749544 -0.5877852522924637 0.0
  outer loop
    vertex -45.603718515115396 -181.67406691590128 31.0
    vertex -44.55023184950764 -180.22406691590126 0.0
    vertex -44.55023184950764 -180.22406691590126 31.0
  endloop
endfacet
facet normal 0.30901699437494423 0.9510565162951548 0.0
  outer loop
    vertex -44.55023184950764 -184.91636548327597 31.0
    vertex -42.84565461785946 -185.4702161995886 0.0
    vertex -44.55023184950764 -184.91636548327597 0.0
  endloop
endfacet
facet normal 0.30901699437494423 0.9510565162951548 0.0
  outer loop
    vertex -42.84565461785946 -185.4702161995886 0.0
    vertex -44.55023184950764 -184.91636548327597 31.0
    vertex -42.84565461785946 -185.4702161995886 31.0
  endloop
endfacet
facet normal 0.4902613978776642 -0.8715754481116588 0.0
  outer loop
    vertex -38.7034490580014 -188.21309960259111 31.0
    vertex -40.17424441350532 -189.04042234159618 0.0
    vertex -38.7034490580014 -188.21309960259111 0.0
  endloop
endfacet
facet normal 0.4902613978776642 -0.8715754481116588 0.0
  outer loop
    vertex -40.17424441350532 -189.04042234159618 0.0
    vertex -38.7034490580014 -188.21309960259111 31.0
    vertex -40.17424441350532 -189.04042234159618 31.0
  endloop
endfacet
facet normal 0.43879231488749676 0.8985885067124285 0.0
  outer loop
    vertex -40.554693572338486 -175.95572472345037 31.0
    vertex -39.038313315132605 -176.6961926888636 0.0
    vertex -40.554693572338486 -175.95572472345037 0.0
  endloop
endfacet
facet normal 0.43879231488749676 0.8985885067124285 0.0
  outer loop
    vertex -39.038313315132605 -176.6961926888636 0.0
    vertex -40.554693572338486 -175.95572472345037 31.0
    vertex -39.038313315132605 -176.6961926888636 31.0
  endloop
endfacet
facet normal -0.30901699437494423 0.9510565162951548 0.0
  outer loop
    vertex -42.84565461785946 -185.4702161995886 31.0
    vertex -41.14107738621128 -184.91636548327597 0.0
    vertex -42.84565461785946 -185.4702161995886 0.0
  endloop
endfacet
facet normal -0.30901699437494423 0.9510565162951548 0.0
  outer loop
    vertex -41.14107738621128 -184.91636548327597 0.0
    vertex -42.84565461785946 -185.4702161995886 31.0
    vertex -41.14107738621128 -184.91636548327597 31.0
  endloop
endfacet
facet normal -0.029063601974022336 0.9995775642941851 0.0
  outer loop
    vertex -43.89101681581357 -175.648712181307 31.0
    vertex -42.20421615820544 -175.59966695993205 0.0
    vertex -43.89101681581357 -175.648712181307 0.0
  endloop
endfacet
facet normal -0.029063601974022336 0.9995775642941851 0.0
  outer loop
    vertex -42.20421615820544 -175.59966695993205 0.0
    vertex -43.89101681581357 -175.648712181307 31.0
    vertex -42.20421615820544 -175.59966695993205 31.0
  endloop
endfacet
endsolid FINAL_RC1
