solid FINAL_RC1
facet normal -0.30901699437494423 -0.9510565162951548 -0.0
  outer loop
    vertex -323.6569992492183 159.8139076313422 10.000000000000002
    vertex -325.36157648086646 160.36775834765487 -20.0
    vertex -323.6569992492183 159.8139076313422 -20.0
  endloop
endfacet
facet normal -0.30901699437494423 -0.9510565162951548 -0.0
  outer loop
    vertex -325.36157648086646 160.36775834765487 -20.0
    vertex -323.6569992492183 159.8139076313422 10.000000000000002
    vertex -325.36157648086646 160.36775834765487 10.000000000000002
  endloop
endfacet
facet normal -0.9957927485223658 0.09163406566486375 0.0
  outer loop
    vertex -332.2039857058962 158.94472686364566 10.000000000000002
    vertex -332.3586194309258 157.2643131338367 -20.0
    vertex -332.3586194309258 157.2643131338367 10.000000000000002
  endloop
endfacet
facet normal -0.9957927485223658 0.09163406566486375 0.0
  outer loop
    vertex -332.3586194309258 157.2643131338367 -20.0
    vertex -332.2039857058962 158.94472686364566 10.000000000000002
    vertex -332.2039857058962 158.94472686364566 -20.0
  endloop
endfacet
facet normal 0.9957927485223659 -0.09163406566486253 0.0
  outer loop
    vertex -318.3645335308072 157.67120356147302 -20.0
    vertex -318.51916725583675 155.99078983166405 10.000000000000002
    vertex -318.51916725583675 155.99078983166405 -20.0
  endloop
endfacet
facet normal 0.9957927485223659 -0.09163406566486253 0.0
  outer loop
    vertex -318.51916725583675 155.99078983166405 10.000000000000002
    vertex -318.3645335308072 157.67120356147302 -20.0
    vertex -318.3645335308072 157.67120356147302 10.000000000000002
  endloop
endfacet
facet normal -0.8061262004289297 -0.5917436514082912 -0.0
  outer loop
    vertex -331.4626046176481 154.03592856251123 10.000000000000002
    vertex -330.4640292034073 152.67557969757968 -20.0
    vertex -330.4640292034073 152.67557969757968 10.000000000000002
  endloop
endfacet
facet normal -0.8061262004289297 -0.5917436514082912 -0.0
  outer loop
    vertex -330.4640292034073 152.67557969757968 -20.0
    vertex -331.4626046176481 154.03592856251123 10.000000000000002
    vertex -331.4626046176481 154.03592856251123 -20.0
  endloop
endfacet
facet normal 1.0 0.0 0.0
  outer loop
    vertex -328.1196403781224 158.36390763134222 -20.0
    vertex -328.1196403781224 156.57160906396754 10.000000000000002
    vertex -328.1196403781224 156.57160906396754 -20.0
  endloop
endfacet
facet normal 1.0 0.0 0.0
  outer loop
    vertex -328.1196403781224 156.57160906396754 10.000000000000002
    vertex -328.1196403781224 158.36390763134222 -20.0
    vertex -328.1196403781224 158.36390763134222 10.000000000000002
  endloop
endfacet
facet normal 0.0 0.0 1.0
  outer loop
    vertex -327.65253752638745 150.85326687151664 10.000000000000002
    vertex -328.1196403781224 156.57160906396754 10.000000000000002
    vertex -329.1689177835933 151.59373483692983 10.000000000000002
  endloop
endfacet
facet normal 0.0 0.0 1.0
  outer loop
    vertex -328.1196403781224 156.57160906396754 10.000000000000002
    vertex -327.65253752638745 150.85326687151664 10.000000000000002
    vertex -327.0661537125147 155.12160906396753 10.000000000000002
  endloop
endfacet
facet normal 0.0 0.0 1.0
  outer loop
    vertex -327.0661537125147 155.12160906396753 10.000000000000002
    vertex -327.65253752638745 150.85326687151664 10.000000000000002
    vertex -326.0030149405205 150.4972091079983 10.000000000000002
  endloop
endfacet
facet normal 0.0 0.0 1.0
  outer loop
    vertex -327.0661537125147 155.12160906396753 10.000000000000002
    vertex -326.0030149405205 150.4972091079983 10.000000000000002
    vertex -325.36157648086646 154.56775834765486 10.000000000000002
  endloop
endfacet
facet normal 0.0 0.0 1.0
  outer loop
    vertex -325.36157648086646 154.56775834765486 10.000000000000002
    vertex -326.0030149405205 150.4972091079983 10.000000000000002
    vertex -324.31621428291237 150.54625432937326 10.000000000000002
  endloop
endfacet
facet normal 0.0 0.0 1.0
  outer loop
    vertex -325.36157648086646 154.56775834765486 10.000000000000002
    vertex -324.31621428291237 150.54625432937326 10.000000000000002
    vertex -323.6569992492183 155.12160906396753 10.000000000000002
  endloop
endfacet
facet normal 0.0 0.0 1.0
  outer loop
    vertex -323.6569992492183 155.12160906396753 10.000000000000002
    vertex -324.31621428291237 150.54625432937326 10.000000000000002
    vertex -322.69016627651234 150.99755220564728 10.000000000000002
  endloop
endfacet
facet normal 0.0 0.0 1.0
  outer loop
    vertex -323.6569992492183 155.12160906396753 10.000000000000002
    vertex -322.69016627651234 150.99755220564728 10.000000000000002
    vertex -322.60351258361055 156.57160906396754 10.000000000000002
  endloop
endfacet
facet normal 0.0 0.0 1.0
  outer loop
    vertex -322.60351258361055 156.57160906396754 10.000000000000002
    vertex -322.69016627651234 150.99755220564728 10.000000000000002
    vertex -321.2193709210084 151.82487494465238 10.000000000000002
  endloop
endfacet
facet normal 0.0 0.0 1.0
  outer loop
    vertex -322.60351258361055 156.57160906396754 10.000000000000002
    vertex -321.2193709210084 151.82487494465238 10.000000000000002
    vertex -322.60351258361055 158.36390763134222 10.000000000000002
  endloop
endfacet
facet normal 0.0 0.0 1.0
  outer loop
    vertex -322.60351258361055 158.36390763134222 10.000000000000002
    vertex -321.2193709210084 151.82487494465238 10.000000000000002
    vertex -321.5542351781396 163.34178185837987 10.000000000000002
  endloop
endfacet
facet normal 0.0 0.0 1.0
  outer loop
    vertex -321.5542351781396 163.34178185837987 10.000000000000002
    vertex -321.2193709210084 151.82487494465238 10.000000000000002
    vertex -320.2591237583257 162.25993699773005 10.000000000000002
  endloop
endfacet
facet normal 0.0 0.0 1.0
  outer loop
    vertex -320.2591237583257 162.25993699773005 10.000000000000002
    vertex -321.2193709210084 151.82487494465238 10.000000000000002
    vertex -319.98930549633883 152.98014155599338 10.000000000000002
  endloop
endfacet
facet normal 0.0 0.0 1.0
  outer loop
    vertex -320.2591237583257 162.25993699773005 10.000000000000002
    vertex -319.98930549633883 152.98014155599338 10.000000000000002
    vertex -319.26054834408484 160.8995881327985 10.000000000000002
  endloop
endfacet
facet normal 0.0 0.0 1.0
  outer loop
    vertex -319.26054834408484 160.8995881327985 10.000000000000002
    vertex -319.98930549633883 152.98014155599338 10.000000000000002
    vertex -319.0714569338795 154.3962121434424 10.000000000000002
  endloop
endfacet
facet normal 0.0 0.0 1.0
  outer loop
    vertex -319.26054834408484 160.8995881327985 10.000000000000002
    vertex -319.0714569338795 154.3962121434424 10.000000000000002
    vertex -318.6165425088188 159.3397937949481 10.000000000000002
  endloop
endfacet
facet normal 0.0 0.0 1.0
  outer loop
    vertex -318.6165425088188 159.3397937949481 10.000000000000002
    vertex -319.0714569338795 154.3962121434424 10.000000000000002
    vertex -318.51916725583675 155.99078983166405 10.000000000000002
  endloop
endfacet
facet normal 0.0 0.0 1.0
  outer loop
    vertex -318.6165425088188 159.3397937949481 10.000000000000002
    vertex -318.51916725583675 155.99078983166405 10.000000000000002
    vertex -318.3645335308072 157.67120356147302 10.000000000000002
  endloop
endfacet
facet normal 0.0 0.0 1.0
  outer loop
    vertex -332.10661045291414 155.59572290036164 10.000000000000002
    vertex -332.2039857058962 158.94472686364566 10.000000000000002
    vertex -332.3586194309258 157.2643131338367 10.000000000000002
  endloop
endfacet
facet normal 0.0 0.0 1.0
  outer loop
    vertex -332.2039857058962 158.94472686364566 10.000000000000002
    vertex -332.10661045291414 155.59572290036164 10.000000000000002
    vertex -331.65169602785346 160.53930455186733 10.000000000000002
  endloop
endfacet
facet normal 0.0 0.0 1.0
  outer loop
    vertex -331.65169602785346 160.53930455186733 10.000000000000002
    vertex -332.10661045291414 155.59572290036164 10.000000000000002
    vertex -331.4626046176481 154.03592856251123 10.000000000000002
  endloop
endfacet
facet normal 0.0 0.0 1.0
  outer loop
    vertex -331.65169602785346 160.53930455186733 10.000000000000002
    vertex -331.4626046176481 154.03592856251123 10.000000000000002
    vertex -330.73384746539415 161.95537513931637 10.000000000000002
  endloop
endfacet
facet normal 0.0 0.0 1.0
  outer loop
    vertex -330.73384746539415 161.95537513931637 10.000000000000002
    vertex -331.4626046176481 154.03592856251123 10.000000000000002
    vertex -330.4640292034073 152.67557969757968 10.000000000000002
  endloop
endfacet
facet normal 0.0 0.0 1.0
  outer loop
    vertex -330.73384746539415 161.95537513931637 10.000000000000002
    vertex -330.4640292034073 152.67557969757968 10.000000000000002
    vertex -329.50378204072456 163.11064175065735 10.000000000000002
  endloop
endfacet
facet normal 0.0 0.0 1.0
  outer loop
    vertex -329.50378204072456 163.11064175065735 10.000000000000002
    vertex -330.4640292034073 152.67557969757968 10.000000000000002
    vertex -329.1689177835933 151.59373483692983 10.000000000000002
  endloop
endfacet
facet normal 0.0 0.0 1.0
  outer loop
    vertex -329.50378204072456 163.11064175065735 10.000000000000002
    vertex -329.1689177835933 151.59373483692983 10.000000000000002
    vertex -328.03298668522064 163.93796448966245 10.000000000000002
  endloop
endfacet
facet normal 0.0 0.0 1.0
  outer loop
    vertex -328.03298668522064 163.93796448966245 10.000000000000002
    vertex -329.1689177835933 151.59373483692983 10.000000000000002
    vertex -328.1196403781224 158.36390763134222 10.000000000000002
  endloop
endfacet
facet normal 0.0 0.0 1.0
  outer loop
    vertex -328.1196403781224 158.36390763134222 10.000000000000002
    vertex -329.1689177835933 151.59373483692983 10.000000000000002
    vertex -328.1196403781224 156.57160906396754 10.000000000000002
  endloop
endfacet
facet normal 0.0 0.0 1.0
  outer loop
    vertex -328.03298668522064 163.93796448966245 10.000000000000002
    vertex -328.1196403781224 158.36390763134222 10.000000000000002
    vertex -327.0661537125147 159.8139076313422 10.000000000000002
  endloop
endfacet
facet normal 0.0 0.0 1.0
  outer loop
    vertex -328.03298668522064 163.93796448966245 10.000000000000002
    vertex -327.0661537125147 159.8139076313422 10.000000000000002
    vertex -326.4069386788206 164.38926236593647 10.000000000000002
  endloop
endfacet
facet normal 0.0 0.0 1.0
  outer loop
    vertex -326.4069386788206 164.38926236593647 10.000000000000002
    vertex -327.0661537125147 159.8139076313422 10.000000000000002
    vertex -325.36157648086646 160.36775834765487 10.000000000000002
  endloop
endfacet
facet normal 0.0 0.0 1.0
  outer loop
    vertex -326.4069386788206 164.38926236593647 10.000000000000002
    vertex -325.36157648086646 160.36775834765487 10.000000000000002
    vertex -324.72013802121245 164.43830758731144 10.000000000000002
  endloop
endfacet
facet normal 0.0 0.0 1.0
  outer loop
    vertex -324.72013802121245 164.43830758731144 10.000000000000002
    vertex -325.36157648086646 160.36775834765487 10.000000000000002
    vertex -323.6569992492183 159.8139076313422 10.000000000000002
  endloop
endfacet
facet normal 0.0 0.0 1.0
  outer loop
    vertex -324.72013802121245 164.43830758731144 10.000000000000002
    vertex -323.6569992492183 159.8139076313422 10.000000000000002
    vertex -323.07061543534553 164.08224982379312 10.000000000000002
  endloop
endfacet
facet normal 0.0 0.0 1.0
  outer loop
    vertex -323.07061543534553 164.08224982379312 10.000000000000002
    vertex -323.6569992492183 159.8139076313422 10.000000000000002
    vertex -322.60351258361055 158.36390763134222 10.000000000000002
  endloop
endfacet
facet normal 0.0 0.0 1.0
  outer loop
    vertex -323.07061543534553 164.08224982379312 10.000000000000002
    vertex -322.60351258361055 158.36390763134222 10.000000000000002
    vertex -321.5542351781396 163.34178185837987 10.000000000000002
  endloop
endfacet
facet normal 0.6410881130944974 0.7674672835039531 0.0
  outer loop
    vertex -321.5542351781396 163.34178185837987 10.000000000000002
    vertex -320.2591237583257 162.25993699773005 -20.0
    vertex -321.5542351781396 163.34178185837987 -20.0
  endloop
endfacet
facet normal 0.6410881130944974 0.7674672835039531 0.0
  outer loop
    vertex -320.2591237583257 162.25993699773005 -20.0
    vertex -321.5542351781396 163.34178185837987 10.000000000000002
    vertex -320.2591237583257 162.25993699773005 10.000000000000002
  endloop
endfacet
facet normal -0.8090169943749544 0.5877852522924637 0.0
  outer loop
    vertex -322.60351258361055 156.57160906396754 10.000000000000002
    vertex -323.6569992492183 155.12160906396753 -20.0
    vertex -323.6569992492183 155.12160906396753 10.000000000000002
  endloop
endfacet
facet normal -0.8090169943749544 0.5877852522924637 0.0
  outer loop
    vertex -323.6569992492183 155.12160906396753 -20.0
    vertex -322.60351258361055 156.57160906396754 10.000000000000002
    vertex -322.60351258361055 156.57160906396754 -20.0
  endloop
endfacet
facet normal 0.9449273537340328 -0.3272801493601436 0.0
  outer loop
    vertex -318.51916725583675 155.99078983166405 -20.0
    vertex -319.0714569338795 154.3962121434424 10.000000000000002
    vertex -319.0714569338795 154.3962121434424 -20.0
  endloop
endfacet
facet normal 0.9449273537340328 -0.3272801493601436 0.0
  outer loop
    vertex -319.0714569338795 154.3962121434424 10.000000000000002
    vertex -318.51916725583675 155.99078983166405 -20.0
    vertex -318.51916725583675 155.99078983166405 10.000000000000002
  endloop
endfacet
facet normal 0.8061262004289297 0.5917436514082912 0.0
  outer loop
    vertex -320.2591237583257 162.25993699773005 -20.0
    vertex -319.26054834408484 160.8995881327985 10.000000000000002
    vertex -319.26054834408484 160.8995881327985 -20.0
  endloop
endfacet
facet normal 0.8061262004289297 0.5917436514082912 0.0
  outer loop
    vertex -319.26054834408484 160.8995881327985 10.000000000000002
    vertex -320.2591237583257 162.25993699773005 -20.0
    vertex -320.2591237583257 162.25993699773005 10.000000000000002
  endloop
endfacet
facet normal -0.4387923148874859 -0.8985885067124336 -0.0
  outer loop
    vertex -327.65253752638745 150.85326687151664 10.000000000000002
    vertex -329.1689177835933 151.59373483692983 -20.0
    vertex -327.65253752638745 150.85326687151664 -20.0
  endloop
endfacet
facet normal -0.4387923148874859 -0.8985885067124336 -0.0
  outer loop
    vertex -329.1689177835933 151.59373483692983 -20.0
    vertex -327.65253752638745 150.85326687151664 10.000000000000002
    vertex -329.1689177835933 151.59373483692983 10.000000000000002
  endloop
endfacet
facet normal 0.21099550228440186 0.9774870321471038 0.0
  outer loop
    vertex -324.72013802121245 164.43830758731144 10.000000000000002
    vertex -323.07061543534553 164.08224982379312 -20.0
    vertex -324.72013802121245 164.43830758731144 -20.0
  endloop
endfacet
facet normal 0.21099550228440186 0.9774870321471038 0.0
  outer loop
    vertex -323.07061543534553 164.08224982379312 -20.0
    vertex -324.72013802121245 164.43830758731144 10.000000000000002
    vertex -323.07061543534553 164.08224982379312 10.000000000000002
  endloop
endfacet
facet normal 0.30901699437494423 -0.9510565162951548 0.0
  outer loop
    vertex -325.36157648086646 160.36775834765487 10.000000000000002
    vertex -327.0661537125147 159.8139076313422 -20.0
    vertex -325.36157648086646 160.36775834765487 -20.0
  endloop
endfacet
facet normal 0.30901699437494423 -0.9510565162951548 0.0
  outer loop
    vertex -327.0661537125147 159.8139076313422 -20.0
    vertex -325.36157648086646 160.36775834765487 10.000000000000002
    vertex -327.0661537125147 159.8139076313422 10.000000000000002
  endloop
endfacet
facet normal -1.0 0.0 0.0
  outer loop
    vertex -322.60351258361055 158.36390763134222 10.000000000000002
    vertex -322.60351258361055 156.57160906396754 -20.0
    vertex -322.60351258361055 156.57160906396754 10.000000000000002
  endloop
endfacet
facet normal -1.0 0.0 0.0
  outer loop
    vertex -322.60351258361055 156.57160906396754 -20.0
    vertex -322.60351258361055 158.36390763134222 10.000000000000002
    vertex -322.60351258361055 158.36390763134222 -20.0
  endloop
endfacet
facet normal -0.6410881130945053 -0.7674672835039463 -0.0
  outer loop
    vertex -329.1689177835933 151.59373483692983 10.000000000000002
    vertex -330.4640292034073 152.67557969757968 -20.0
    vertex -329.1689177835933 151.59373483692983 -20.0
  endloop
endfacet
facet normal -0.6410881130945053 -0.7674672835039463 -0.0
  outer loop
    vertex -330.4640292034073 152.67557969757968 -20.0
    vertex -329.1689177835933 151.59373483692983 10.000000000000002
    vertex -330.4640292034073 152.67557969757968 10.000000000000002
  endloop
endfacet
facet normal -0.9243151631439441 -0.3816300291934374 -0.0
  outer loop
    vertex -332.10661045291414 155.59572290036164 10.000000000000002
    vertex -331.4626046176481 154.03592856251123 -20.0
    vertex -331.4626046176481 154.03592856251123 10.000000000000002
  endloop
endfacet
facet normal -0.9243151631439441 -0.3816300291934374 -0.0
  outer loop
    vertex -331.4626046176481 154.03592856251123 -20.0
    vertex -332.10661045291414 155.59572290036164 10.000000000000002
    vertex -332.10661045291414 155.59572290036164 -20.0
  endloop
endfacet
facet normal 0.2674336353276039 -0.9635762817211008 0.0
  outer loop
    vertex -322.69016627651234 150.99755220564728 10.000000000000002
    vertex -324.31621428291237 150.54625432937326 -20.0
    vertex -322.69016627651234 150.99755220564728 -20.0
  endloop
endfacet
facet normal 0.2674336353276039 -0.9635762817211008 0.0
  outer loop
    vertex -324.31621428291237 150.54625432937326 -20.0
    vertex -322.69016627651234 150.99755220564728 10.000000000000002
    vertex -324.31621428291237 150.54625432937326 10.000000000000002
  endloop
endfacet
facet normal 0.0 0.0 -1.0
  outer loop
    vertex -332.2039857058962 158.94472686364566 -20.0
    vertex -332.10661045291414 155.59572290036164 -20.0
    vertex -332.3586194309258 157.2643131338367 -20.0
  endloop
endfacet
facet normal 0.0 0.0 -1.0
  outer loop
    vertex -332.10661045291414 155.59572290036164 -20.0
    vertex -332.2039857058962 158.94472686364566 -20.0
    vertex -331.65169602785346 160.53930455186733 -20.0
  endloop
endfacet
facet normal 0.0 0.0 -1.0
  outer loop
    vertex -332.10661045291414 155.59572290036164 -20.0
    vertex -331.65169602785346 160.53930455186733 -20.0
    vertex -331.4626046176481 154.03592856251123 -20.0
  endloop
endfacet
facet normal 0.0 0.0 -1.0
  outer loop
    vertex -331.4626046176481 154.03592856251123 -20.0
    vertex -331.65169602785346 160.53930455186733 -20.0
    vertex -330.73384746539415 161.95537513931637 -20.0
  endloop
endfacet
facet normal 0.0 0.0 -1.0
  outer loop
    vertex -331.4626046176481 154.03592856251123 -20.0
    vertex -330.73384746539415 161.95537513931637 -20.0
    vertex -330.4640292034073 152.67557969757968 -20.0
  endloop
endfacet
facet normal 0.0 0.0 -1.0
  outer loop
    vertex -330.4640292034073 152.67557969757968 -20.0
    vertex -330.73384746539415 161.95537513931637 -20.0
    vertex -329.50378204072456 163.11064175065735 -20.0
  endloop
endfacet
facet normal 0.0 0.0 -1.0
  outer loop
    vertex -330.4640292034073 152.67557969757968 -20.0
    vertex -329.50378204072456 163.11064175065735 -20.0
    vertex -329.1689177835933 151.59373483692983 -20.0
  endloop
endfacet
facet normal 0.0 0.0 -1.0
  outer loop
    vertex -329.1689177835933 151.59373483692983 -20.0
    vertex -329.50378204072456 163.11064175065735 -20.0
    vertex -328.03298668522064 163.93796448966245 -20.0
  endloop
endfacet
facet normal 0.0 0.0 -1.0
  outer loop
    vertex -329.1689177835933 151.59373483692983 -20.0
    vertex -328.03298668522064 163.93796448966245 -20.0
    vertex -328.1196403781224 158.36390763134222 -20.0
  endloop
endfacet
facet normal 0.0 0.0 -1.0
  outer loop
    vertex -328.1196403781224 158.36390763134222 -20.0
    vertex -328.03298668522064 163.93796448966245 -20.0
    vertex -327.0661537125147 159.8139076313422 -20.0
  endloop
endfacet
facet normal 0.0 0.0 -1.0
  outer loop
    vertex -327.0661537125147 159.8139076313422 -20.0
    vertex -328.03298668522064 163.93796448966245 -20.0
    vertex -326.4069386788206 164.38926236593647 -20.0
  endloop
endfacet
facet normal 0.0 0.0 -1.0
  outer loop
    vertex -327.0661537125147 159.8139076313422 -20.0
    vertex -326.4069386788206 164.38926236593647 -20.0
    vertex -325.36157648086646 160.36775834765487 -20.0
  endloop
endfacet
facet normal 0.0 0.0 -1.0
  outer loop
    vertex -325.36157648086646 160.36775834765487 -20.0
    vertex -326.4069386788206 164.38926236593647 -20.0
    vertex -324.72013802121245 164.43830758731144 -20.0
  endloop
endfacet
facet normal 0.0 0.0 -1.0
  outer loop
    vertex -325.36157648086646 160.36775834765487 -20.0
    vertex -324.72013802121245 164.43830758731144 -20.0
    vertex -323.6569992492183 159.8139076313422 -20.0
  endloop
endfacet
facet normal 0.0 0.0 -1.0
  outer loop
    vertex -323.6569992492183 159.8139076313422 -20.0
    vertex -324.72013802121245 164.43830758731144 -20.0
    vertex -323.07061543534553 164.08224982379312 -20.0
  endloop
endfacet
facet normal 0.0 0.0 -1.0
  outer loop
    vertex -323.6569992492183 159.8139076313422 -20.0
    vertex -323.07061543534553 164.08224982379312 -20.0
    vertex -322.60351258361055 158.36390763134222 -20.0
  endloop
endfacet
facet normal 0.0 0.0 -1.0
  outer loop
    vertex -322.60351258361055 158.36390763134222 -20.0
    vertex -323.07061543534553 164.08224982379312 -20.0
    vertex -321.5542351781396 163.34178185837987 -20.0
  endloop
endfacet
facet normal 0.0 0.0 -1.0
  outer loop
    vertex -322.60351258361055 158.36390763134222 -20.0
    vertex -321.5542351781396 163.34178185837987 -20.0
    vertex -322.60351258361055 156.57160906396754 -20.0
  endloop
endfacet
facet normal 0.0 0.0 -1.0
  outer loop
    vertex -329.1689177835933 151.59373483692983 -20.0
    vertex -328.1196403781224 156.57160906396754 -20.0
    vertex -327.65253752638745 150.85326687151664 -20.0
  endloop
endfacet
facet normal 0.0 0.0 -1.0
  outer loop
    vertex -328.1196403781224 156.57160906396754 -20.0
    vertex -329.1689177835933 151.59373483692983 -20.0
    vertex -328.1196403781224 158.36390763134222 -20.0
  endloop
endfacet
facet normal 0.0 0.0 -1.0
  outer loop
    vertex -327.65253752638745 150.85326687151664 -20.0
    vertex -328.1196403781224 156.57160906396754 -20.0
    vertex -327.0661537125147 155.12160906396753 -20.0
  endloop
endfacet
facet normal 0.0 0.0 -1.0
  outer loop
    vertex -327.65253752638745 150.85326687151664 -20.0
    vertex -327.0661537125147 155.12160906396753 -20.0
    vertex -326.0030149405205 150.4972091079983 -20.0
  endloop
endfacet
facet normal 0.0 0.0 -1.0
  outer loop
    vertex -326.0030149405205 150.4972091079983 -20.0
    vertex -327.0661537125147 155.12160906396753 -20.0
    vertex -325.36157648086646 154.56775834765486 -20.0
  endloop
endfacet
facet normal 0.0 0.0 -1.0
  outer loop
    vertex -326.0030149405205 150.4972091079983 -20.0
    vertex -325.36157648086646 154.56775834765486 -20.0
    vertex -324.31621428291237 150.54625432937326 -20.0
  endloop
endfacet
facet normal 0.0 0.0 -1.0
  outer loop
    vertex -324.31621428291237 150.54625432937326 -20.0
    vertex -325.36157648086646 154.56775834765486 -20.0
    vertex -323.6569992492183 155.12160906396753 -20.0
  endloop
endfacet
facet normal 0.0 0.0 -1.0
  outer loop
    vertex -324.31621428291237 150.54625432937326 -20.0
    vertex -323.6569992492183 155.12160906396753 -20.0
    vertex -322.69016627651234 150.99755220564728 -20.0
  endloop
endfacet
facet normal 0.0 0.0 -1.0
  outer loop
    vertex -322.69016627651234 150.99755220564728 -20.0
    vertex -323.6569992492183 155.12160906396753 -20.0
    vertex -322.60351258361055 156.57160906396754 -20.0
  endloop
endfacet
facet normal 0.0 0.0 -1.0
  outer loop
    vertex -322.69016627651234 150.99755220564728 -20.0
    vertex -322.60351258361055 156.57160906396754 -20.0
    vertex -321.2193709210084 151.82487494465238 -20.0
  endloop
endfacet
facet normal 0.0 0.0 -1.0
  outer loop
    vertex -321.2193709210084 151.82487494465238 -20.0
    vertex -322.60351258361055 156.57160906396754 -20.0
    vertex -321.5542351781396 163.34178185837987 -20.0
  endloop
endfacet
facet normal 0.0 0.0 -1.0
  outer loop
    vertex -321.2193709210084 151.82487494465238 -20.0
    vertex -321.5542351781396 163.34178185837987 -20.0
    vertex -320.2591237583257 162.25993699773005 -20.0
  endloop
endfacet
facet normal 0.0 0.0 -1.0
  outer loop
    vertex -321.2193709210084 151.82487494465238 -20.0
    vertex -320.2591237583257 162.25993699773005 -20.0
    vertex -319.98930549633883 152.98014155599338 -20.0
  endloop
endfacet
facet normal 0.0 0.0 -1.0
  outer loop
    vertex -319.98930549633883 152.98014155599338 -20.0
    vertex -320.2591237583257 162.25993699773005 -20.0
    vertex -319.26054834408484 160.8995881327985 -20.0
  endloop
endfacet
facet normal 0.0 0.0 -1.0
  outer loop
    vertex -319.98930549633883 152.98014155599338 -20.0
    vertex -319.26054834408484 160.8995881327985 -20.0
    vertex -319.0714569338795 154.3962121434424 -20.0
  endloop
endfacet
facet normal 0.0 0.0 -1.0
  outer loop
    vertex -319.0714569338795 154.3962121434424 -20.0
    vertex -319.26054834408484 160.8995881327985 -20.0
    vertex -318.6165425088188 159.3397937949481 -20.0
  endloop
endfacet
facet normal 0.0 0.0 -1.0
  outer loop
    vertex -319.0714569338795 154.3962121434424 -20.0
    vertex -318.6165425088188 159.3397937949481 -20.0
    vertex -318.51916725583675 155.99078983166405 -20.0
  endloop
endfacet
facet normal 0.0 0.0 -1.0
  outer loop
    vertex -318.51916725583675 155.99078983166405 -20.0
    vertex -318.6165425088188 159.3397937949481 -20.0
    vertex -318.3645335308072 157.67120356147302 -20.0
  endloop
endfacet
facet normal 0.9887862883259435 0.14933745685059774 0.0
  outer loop
    vertex -318.6165425088188 159.3397937949481 -20.0
    vertex -318.3645335308072 157.67120356147302 10.000000000000002
    vertex -318.3645335308072 157.67120356147302 -20.0
  endloop
endfacet
facet normal 0.9887862883259435 0.14933745685059774 0.0
  outer loop
    vertex -318.3645335308072 157.67120356147302 10.000000000000002
    vertex -318.6165425088188 159.3397937949481 -20.0
    vertex -318.6165425088188 159.3397937949481 10.000000000000002
  endloop
endfacet
facet normal 0.8391462158178655 -0.54390590038954 0.0
  outer loop
    vertex -319.0714569338795 154.3962121434424 -20.0
    vertex -319.98930549633883 152.98014155599338 10.000000000000002
    vertex -319.98930549633883 152.98014155599338 -20.0
  endloop
endfacet
facet normal 0.8391462158178655 -0.54390590038954 0.0
  outer loop
    vertex -319.98930549633883 152.98014155599338 10.000000000000002
    vertex -319.0714569338795 154.3962121434424 -20.0
    vertex -319.0714569338795 154.3962121434424 10.000000000000002
  endloop
endfacet
facet normal 0.6845969500107387 -0.7289218175058242 0.0
  outer loop
    vertex -319.98930549633883 152.98014155599338 10.000000000000002
    vertex -321.2193709210084 151.82487494465238 -20.0
    vertex -319.98930549633883 152.98014155599338 -20.0
  endloop
endfacet
facet normal 0.6845969500107387 -0.7289218175058242 0.0
  outer loop
    vertex -321.2193709210084 151.82487494465238 -20.0
    vertex -319.98930549633883 152.98014155599338 10.000000000000002
    vertex -321.2193709210084 151.82487494465238 10.000000000000002
  endloop
endfacet
facet normal -0.9449273537340344 0.32728014936013955 0.0
  outer loop
    vertex -331.65169602785346 160.53930455186733 10.000000000000002
    vertex -332.2039857058962 158.94472686364566 -20.0
    vertex -332.2039857058962 158.94472686364566 10.000000000000002
  endloop
endfacet
facet normal -0.9449273537340344 0.32728014936013955 0.0
  outer loop
    vertex -332.2039857058962 158.94472686364566 -20.0
    vertex -331.65169602785346 160.53930455186733 10.000000000000002
    vertex -331.65169602785346 160.53930455186733 -20.0
  endloop
endfacet
facet normal -0.9887862883259435 -0.14933745685059774 -0.0
  outer loop
    vertex -332.3586194309258 157.2643131338367 10.000000000000002
    vertex -332.10661045291414 155.59572290036164 -20.0
    vertex -332.10661045291414 155.59572290036164 10.000000000000002
  endloop
endfacet
facet normal -0.9887862883259435 -0.14933745685059774 -0.0
  outer loop
    vertex -332.10661045291414 155.59572290036164 -20.0
    vertex -332.3586194309258 157.2643131338367 10.000000000000002
    vertex -332.3586194309258 157.2643131338367 -20.0
  endloop
endfacet
facet normal -0.4902613978776642 0.8715754481116588 0.0
  outer loop
    vertex -329.50378204072456 163.11064175065735 10.000000000000002
    vertex -328.03298668522064 163.93796448966245 -20.0
    vertex -329.50378204072456 163.11064175065735 -20.0
  endloop
endfacet
facet normal -0.4902613978776642 0.8715754481116588 0.0
  outer loop
    vertex -328.03298668522064 163.93796448966245 -20.0
    vertex -329.50378204072456 163.11064175065735 10.000000000000002
    vertex -328.03298668522064 163.93796448966245 10.000000000000002
  endloop
endfacet
facet normal -0.2674336353276039 0.9635762817211008 0.0
  outer loop
    vertex -328.03298668522064 163.93796448966245 10.000000000000002
    vertex -326.4069386788206 164.38926236593647 -20.0
    vertex -328.03298668522064 163.93796448966245 -20.0
  endloop
endfacet
facet normal -0.2674336353276039 0.9635762817211008 0.0
  outer loop
    vertex -326.4069386788206 164.38926236593647 -20.0
    vertex -328.03298668522064 163.93796448966245 10.000000000000002
    vertex -326.4069386788206 164.38926236593647 10.000000000000002
  endloop
endfacet
facet normal 0.8090169943749544 0.5877852522924637 0.0
  outer loop
    vertex -328.1196403781224 156.57160906396754 -20.0
    vertex -327.0661537125147 155.12160906396753 10.000000000000002
    vertex -327.0661537125147 155.12160906396753 -20.0
  endloop
endfacet
facet normal 0.8090169943749544 0.5877852522924637 0.0
  outer loop
    vertex -327.0661537125147 155.12160906396753 10.000000000000002
    vertex -328.1196403781224 156.57160906396754 -20.0
    vertex -328.1196403781224 156.57160906396754 10.000000000000002
  endloop
endfacet
facet normal -0.8391462158178655 0.54390590038954 0.0
  outer loop
    vertex -330.73384746539415 161.95537513931637 10.000000000000002
    vertex -331.65169602785346 160.53930455186733 -20.0
    vertex -331.65169602785346 160.53930455186733 10.000000000000002
  endloop
endfacet
facet normal -0.8391462158178655 0.54390590038954 0.0
  outer loop
    vertex -331.65169602785346 160.53930455186733 -20.0
    vertex -330.73384746539415 161.95537513931637 10.000000000000002
    vertex -330.73384746539415 161.95537513931637 -20.0
  endloop
endfacet
facet normal -0.8090169943749544 -0.5877852522924637 -0.0
  outer loop
    vertex -323.6569992492183 159.8139076313422 10.000000000000002
    vertex -322.60351258361055 158.36390763134222 -20.0
    vertex -322.60351258361055 158.36390763134222 10.000000000000002
  endloop
endfacet
facet normal -0.8090169943749544 -0.5877852522924637 -0.0
  outer loop
    vertex -322.60351258361055 158.36390763134222 -20.0
    vertex -323.6569992492183 159.8139076313422 10.000000000000002
    vertex -323.6569992492183 159.8139076313422 -20.0
  endloop
endfacet
facet normal 0.9243151631439441 0.3816300291934374 0.0
  outer loop
    vertex -319.26054834408484 160.8995881327985 -20.0
    vertex -318.6165425088188 159.3397937949481 10.000000000000002
    vertex -318.6165425088188 159.3397937949481 -20.0
  endloop
endfacet
facet normal 0.9243151631439441 0.3816300291934374 0.0
  outer loop
    vertex -318.6165425088188 159.3397937949481 10.000000000000002
    vertex -319.26054834408484 160.8995881327985 -20.0
    vertex -319.26054834408484 160.8995881327985 10.000000000000002
  endloop
endfacet
facet normal -0.21099550228440186 -0.9774870321471038 -0.0
  outer loop
    vertex -326.0030149405205 150.4972091079983 10.000000000000002
    vertex -327.65253752638745 150.85326687151664 -20.0
    vertex -326.0030149405205 150.4972091079983 -20.0
  endloop
endfacet
facet normal -0.21099550228440186 -0.9774870321471038 -0.0
  outer loop
    vertex -327.65253752638745 150.85326687151664 -20.0
    vertex -326.0030149405205 150.4972091079983 10.000000000000002
    vertex -327.65253752638745 150.85326687151664 10.000000000000002
  endloop
endfacet
facet normal 0.029063601974022336 -0.9995775642941851 0.0
  outer loop
    vertex -324.31621428291237 150.54625432937326 10.000000000000002
    vertex -326.0030149405205 150.4972091079983 -20.0
    vertex -324.31621428291237 150.54625432937326 -20.0
  endloop
endfacet
facet normal 0.029063601974022336 -0.9995775642941851 0.0
  outer loop
    vertex -326.0030149405205 150.4972091079983 -20.0
    vertex -324.31621428291237 150.54625432937326 10.000000000000002
    vertex -326.0030149405205 150.4972091079983 10.000000000000002
  endloop
endfacet
facet normal -0.6845969500107387 0.7289218175058242 0.0
  outer loop
    vertex -330.73384746539415 161.95537513931637 10.000000000000002
    vertex -329.50378204072456 163.11064175065735 -20.0
    vertex -330.73384746539415 161.95537513931637 -20.0
  endloop
endfacet
facet normal -0.6845969500107387 0.7289218175058242 0.0
  outer loop
    vertex -329.50378204072456 163.11064175065735 -20.0
    vertex -330.73384746539415 161.95537513931637 10.000000000000002
    vertex -329.50378204072456 163.11064175065735 10.000000000000002
  endloop
endfacet
facet normal 0.8090169943749544 -0.5877852522924637 0.0
  outer loop
    vertex -327.0661537125147 159.8139076313422 -20.0
    vertex -328.1196403781224 158.36390763134222 10.000000000000002
    vertex -328.1196403781224 158.36390763134222 -20.0
  endloop
endfacet
facet normal 0.8090169943749544 -0.5877852522924637 0.0
  outer loop
    vertex -328.1196403781224 158.36390763134222 10.000000000000002
    vertex -327.0661537125147 159.8139076313422 -20.0
    vertex -327.0661537125147 159.8139076313422 10.000000000000002
  endloop
endfacet
facet normal 0.30901699437494423 0.9510565162951548 0.0
  outer loop
    vertex -327.0661537125147 155.12160906396753 10.000000000000002
    vertex -325.36157648086646 154.56775834765486 -20.0
    vertex -327.0661537125147 155.12160906396753 -20.0
  endloop
endfacet
facet normal 0.30901699437494423 0.9510565162951548 0.0
  outer loop
    vertex -325.36157648086646 154.56775834765486 -20.0
    vertex -327.0661537125147 155.12160906396753 10.000000000000002
    vertex -325.36157648086646 154.56775834765486 10.000000000000002
  endloop
endfacet
facet normal 0.4902613978776642 -0.8715754481116588 0.0
  outer loop
    vertex -321.2193709210084 151.82487494465238 10.000000000000002
    vertex -322.69016627651234 150.99755220564728 -20.0
    vertex -321.2193709210084 151.82487494465238 -20.0
  endloop
endfacet
facet normal 0.4902613978776642 -0.8715754481116588 0.0
  outer loop
    vertex -322.69016627651234 150.99755220564728 -20.0
    vertex -321.2193709210084 151.82487494465238 10.000000000000002
    vertex -322.69016627651234 150.99755220564728 10.000000000000002
  endloop
endfacet
facet normal 0.43879231488749676 0.8985885067124285 0.0
  outer loop
    vertex -323.07061543534553 164.08224982379312 10.000000000000002
    vertex -321.5542351781396 163.34178185837987 -20.0
    vertex -323.07061543534553 164.08224982379312 -20.0
  endloop
endfacet
facet normal 0.43879231488749676 0.8985885067124285 0.0
  outer loop
    vertex -321.5542351781396 163.34178185837987 -20.0
    vertex -323.07061543534553 164.08224982379312 10.000000000000002
    vertex -321.5542351781396 163.34178185837987 10.000000000000002
  endloop
endfacet
facet normal -0.30901699437494423 0.9510565162951548 0.0
  outer loop
    vertex -325.36157648086646 154.56775834765486 10.000000000000002
    vertex -323.6569992492183 155.12160906396753 -20.0
    vertex -325.36157648086646 154.56775834765486 -20.0
  endloop
endfacet
facet normal -0.30901699437494423 0.9510565162951548 0.0
  outer loop
    vertex -323.6569992492183 155.12160906396753 -20.0
    vertex -325.36157648086646 154.56775834765486 10.000000000000002
    vertex -323.6569992492183 155.12160906396753 10.000000000000002
  endloop
endfacet
facet normal -0.029063601974022336 0.9995775642941851 0.0
  outer loop
    vertex -326.4069386788206 164.38926236593647 10.000000000000002
    vertex -324.72013802121245 164.43830758731144 -20.0
    vertex -326.4069386788206 164.38926236593647 -20.0
  endloop
endfacet
facet normal -0.029063601974022336 0.9995775642941851 0.0
  outer loop
    vertex -324.72013802121245 164.43830758731144 -20.0
    vertex -326.4069386788206 164.38926236593647 10.000000000000002
    vertex -324.72013802121245 164.43830758731144 10.000000000000002
  endloop
endfacet
endsolid FINAL_RC1
