solid FINAL_RC1
facet normal -0.30901699437494423 -0.9510565162951548 -0.0
  outer loop
    vertex -64.98224209218745 -181.9081076011461 25.5
    vertex -66.68681932383564 -181.35425688483343 0.0
    vertex -64.98224209218745 -181.9081076011461 0.0
  endloop
endfacet
facet normal -0.30901699437494423 -0.9510565162951548 -0.0
  outer loop
    vertex -66.68681932383564 -181.35425688483343 0.0
    vertex -64.98224209218745 -181.9081076011461 25.5
    vertex -66.68681932383564 -181.35425688483343 25.5
  endloop
endfacet
facet normal -0.9957927485223658 0.09163406566486375 0.0
  outer loop
    vertex -73.52922854886536 -182.77728836884265 25.5
    vertex -73.68386227389493 -184.4577020986516 0.0
    vertex -73.68386227389493 -184.4577020986516 25.5
  endloop
endfacet
facet normal -0.9957927485223658 0.09163406566486375 0.0
  outer loop
    vertex -73.68386227389493 -184.4577020986516 0.0
    vertex -73.52922854886536 -182.77728836884265 25.5
    vertex -73.52922854886536 -182.77728836884265 0.0
  endloop
endfacet
facet normal 0.9957927485223659 -0.09163406566486253 0.0
  outer loop
    vertex -59.68977637377635 -184.05081167101528 0.0
    vertex -59.844410098805916 -185.73122540082426 25.5
    vertex -59.844410098805916 -185.73122540082426 0.0
  endloop
endfacet
facet normal 0.9957927485223659 -0.09163406566486253 0.0
  outer loop
    vertex -59.844410098805916 -185.73122540082426 25.5
    vertex -59.68977637377635 -184.05081167101528 0.0
    vertex -59.68977637377635 -184.05081167101528 25.5
  endloop
endfacet
facet normal -0.8061262004289297 -0.5917436514082912 -0.0
  outer loop
    vertex -72.78784746061726 -187.68608666997707 25.5
    vertex -71.78927204637641 -189.04643553490862 0.0
    vertex -71.78927204637641 -189.04643553490862 25.5
  endloop
endfacet
facet normal -0.8061262004289297 -0.5917436514082912 -0.0
  outer loop
    vertex -71.78927204637641 -189.04643553490862 0.0
    vertex -72.78784746061726 -187.68608666997707 25.5
    vertex -72.78784746061726 -187.68608666997707 0.0
  endloop
endfacet
facet normal 1.0 0.0 0.0
  outer loop
    vertex -69.44488322109157 -183.3581076011461 0.0
    vertex -69.44488322109157 -185.15040616852076 25.5
    vertex -69.44488322109157 -185.15040616852076 0.0
  endloop
endfacet
facet normal 1.0 0.0 0.0
  outer loop
    vertex -69.44488322109157 -185.15040616852076 25.5
    vertex -69.44488322109157 -183.3581076011461 0.0
    vertex -69.44488322109157 -183.3581076011461 25.5
  endloop
endfacet
facet normal 0.0 0.0 1.0
  outer loop
    vertex -68.97778036935661 -190.86874836097167 25.5
    vertex -69.44488322109157 -185.15040616852076 25.5
    vertex -70.49416062656249 -190.12828039555848 25.5
  endloop
endfacet
facet normal 0.0 0.0 1.0
  outer loop
    vertex -69.44488322109157 -185.15040616852076 25.5
    vertex -68.97778036935661 -190.86874836097167 25.5
    vertex -68.39139655548382 -186.60040616852078 25.5
  endloop
endfacet
facet normal 0.0 0.0 1.0
  outer loop
    vertex -68.39139655548382 -186.60040616852078 25.5
    vertex -68.97778036935661 -190.86874836097167 25.5
    vertex -67.32825778348965 -191.22480612449002 25.5
  endloop
endfacet
facet normal 0.0 0.0 1.0
  outer loop
    vertex -68.39139655548382 -186.60040616852078 25.5
    vertex -67.32825778348965 -191.22480612449002 25.5
    vertex -66.68681932383564 -187.15425688483344 25.5
  endloop
endfacet
facet normal 0.0 0.0 1.0
  outer loop
    vertex -66.68681932383564 -187.15425688483344 25.5
    vertex -67.32825778348965 -191.22480612449002 25.5
    vertex -65.64145712588152 -191.17576090311505 25.5
  endloop
endfacet
facet normal 0.0 0.0 1.0
  outer loop
    vertex -66.68681932383564 -187.15425688483344 25.5
    vertex -65.64145712588152 -191.17576090311505 25.5
    vertex -64.98224209218745 -186.60040616852078 25.5
  endloop
endfacet
facet normal 0.0 0.0 1.0
  outer loop
    vertex -64.98224209218745 -186.60040616852078 25.5
    vertex -65.64145712588152 -191.17576090311505 25.5
    vertex -64.0154091194815 -190.72446302684102 25.5
  endloop
endfacet
facet normal 0.0 0.0 1.0
  outer loop
    vertex -64.98224209218745 -186.60040616852078 25.5
    vertex -64.0154091194815 -190.72446302684102 25.5
    vertex -63.9287554265797 -185.15040616852076 25.5
  endloop
endfacet
facet normal 0.0 0.0 1.0
  outer loop
    vertex -63.9287554265797 -185.15040616852076 25.5
    vertex -64.0154091194815 -190.72446302684102 25.5
    vertex -62.54461376397757 -189.89714028783592 25.5
  endloop
endfacet
facet normal 0.0 0.0 1.0
  outer loop
    vertex -63.9287554265797 -185.15040616852076 25.5
    vertex -62.54461376397757 -189.89714028783592 25.5
    vertex -63.9287554265797 -183.3581076011461 25.5
  endloop
endfacet
facet normal 0.0 0.0 1.0
  outer loop
    vertex -63.9287554265797 -183.3581076011461 25.5
    vertex -62.54461376397757 -189.89714028783592 25.5
    vertex -62.87947802110878 -178.38023337410843 25.5
  endloop
endfacet
facet normal 0.0 0.0 1.0
  outer loop
    vertex -62.87947802110878 -178.38023337410843 25.5
    vertex -62.54461376397757 -189.89714028783592 25.5
    vertex -61.58436660129487 -179.46207823475825 25.5
  endloop
endfacet
facet normal 0.0 0.0 1.0
  outer loop
    vertex -61.58436660129487 -179.46207823475825 25.5
    vertex -62.54461376397757 -189.89714028783592 25.5
    vertex -61.31454833930797 -188.74187367649492 25.5
  endloop
endfacet
facet normal 0.0 0.0 1.0
  outer loop
    vertex -61.58436660129487 -179.46207823475825 25.5
    vertex -61.31454833930797 -188.74187367649492 25.5
    vertex -60.58579118705402 -180.8224270996898 25.5
  endloop
endfacet
facet normal 0.0 0.0 1.0
  outer loop
    vertex -60.58579118705402 -180.8224270996898 25.5
    vertex -61.31454833930797 -188.74187367649492 25.5
    vertex -60.39669977684864 -187.3258030890459 25.5
  endloop
endfacet
facet normal 0.0 0.0 1.0
  outer loop
    vertex -60.58579118705402 -180.8224270996898 25.5
    vertex -60.39669977684864 -187.3258030890459 25.5
    vertex -59.941785351787956 -182.3822214375402 25.5
  endloop
endfacet
facet normal 0.0 0.0 1.0
  outer loop
    vertex -59.941785351787956 -182.3822214375402 25.5
    vertex -60.39669977684864 -187.3258030890459 25.5
    vertex -59.844410098805916 -185.73122540082426 25.5
  endloop
endfacet
facet normal 0.0 0.0 1.0
  outer loop
    vertex -59.941785351787956 -182.3822214375402 25.5
    vertex -59.844410098805916 -185.73122540082426 25.5
    vertex -59.68977637377635 -184.05081167101528 25.5
  endloop
endfacet
facet normal 0.0 0.0 1.0
  outer loop
    vertex -73.43185329588331 -186.12629233212667 25.5
    vertex -73.52922854886536 -182.77728836884265 25.5
    vertex -73.68386227389493 -184.4577020986516 25.5
  endloop
endfacet
facet normal 0.0 0.0 1.0
  outer loop
    vertex -73.52922854886536 -182.77728836884265 25.5
    vertex -73.43185329588331 -186.12629233212667 25.5
    vertex -72.97693887082262 -181.18271068062097 25.5
  endloop
endfacet
facet normal 0.0 0.0 1.0
  outer loop
    vertex -72.97693887082262 -181.18271068062097 25.5
    vertex -73.43185329588331 -186.12629233212667 25.5
    vertex -72.78784746061726 -187.68608666997707 25.5
  endloop
endfacet
facet normal 0.0 0.0 1.0
  outer loop
    vertex -72.97693887082262 -181.18271068062097 25.5
    vertex -72.78784746061726 -187.68608666997707 25.5
    vertex -72.0590903083633 -179.76664009317193 25.5
  endloop
endfacet
facet normal 0.0 0.0 1.0
  outer loop
    vertex -72.0590903083633 -179.76664009317193 25.5
    vertex -72.78784746061726 -187.68608666997707 25.5
    vertex -71.78927204637641 -189.04643553490862 25.5
  endloop
endfacet
facet normal 0.0 0.0 1.0
  outer loop
    vertex -72.0590903083633 -179.76664009317193 25.5
    vertex -71.78927204637641 -189.04643553490862 25.5
    vertex -70.8290248836937 -178.61137348183095 25.5
  endloop
endfacet
facet normal 0.0 0.0 1.0
  outer loop
    vertex -70.8290248836937 -178.61137348183095 25.5
    vertex -71.78927204637641 -189.04643553490862 25.5
    vertex -70.49416062656249 -190.12828039555848 25.5
  endloop
endfacet
facet normal 0.0 0.0 1.0
  outer loop
    vertex -70.8290248836937 -178.61137348183095 25.5
    vertex -70.49416062656249 -190.12828039555848 25.5
    vertex -69.35822952818978 -177.78405074282585 25.5
  endloop
endfacet
facet normal 0.0 0.0 1.0
  outer loop
    vertex -69.35822952818978 -177.78405074282585 25.5
    vertex -70.49416062656249 -190.12828039555848 25.5
    vertex -69.44488322109157 -183.3581076011461 25.5
  endloop
endfacet
facet normal 0.0 0.0 1.0
  outer loop
    vertex -69.44488322109157 -183.3581076011461 25.5
    vertex -70.49416062656249 -190.12828039555848 25.5
    vertex -69.44488322109157 -185.15040616852076 25.5
  endloop
endfacet
facet normal 0.0 0.0 1.0
  outer loop
    vertex -69.35822952818978 -177.78405074282585 25.5
    vertex -69.44488322109157 -183.3581076011461 25.5
    vertex -68.39139655548382 -181.9081076011461 25.5
  endloop
endfacet
facet normal 0.0 0.0 1.0
  outer loop
    vertex -69.35822952818978 -177.78405074282585 25.5
    vertex -68.39139655548382 -181.9081076011461 25.5
    vertex -67.73218152178976 -177.33275286655183 25.5
  endloop
endfacet
facet normal 0.0 0.0 1.0
  outer loop
    vertex -67.73218152178976 -177.33275286655183 25.5
    vertex -68.39139655548382 -181.9081076011461 25.5
    vertex -66.68681932383564 -181.35425688483343 25.5
  endloop
endfacet
facet normal 0.0 0.0 1.0
  outer loop
    vertex -67.73218152178976 -177.33275286655183 25.5
    vertex -66.68681932383564 -181.35425688483343 25.5
    vertex -66.04538086418162 -177.28370764517686 25.5
  endloop
endfacet
facet normal 0.0 0.0 1.0
  outer loop
    vertex -66.04538086418162 -177.28370764517686 25.5
    vertex -66.68681932383564 -181.35425688483343 25.5
    vertex -64.98224209218745 -181.9081076011461 25.5
  endloop
endfacet
facet normal 0.0 0.0 1.0
  outer loop
    vertex -66.04538086418162 -177.28370764517686 25.5
    vertex -64.98224209218745 -181.9081076011461 25.5
    vertex -64.39585827831466 -177.63976540869518 25.5
  endloop
endfacet
facet normal 0.0 0.0 1.0
  outer loop
    vertex -64.39585827831466 -177.63976540869518 25.5
    vertex -64.98224209218745 -181.9081076011461 25.5
    vertex -63.9287554265797 -183.3581076011461 25.5
  endloop
endfacet
facet normal 0.0 0.0 1.0
  outer loop
    vertex -64.39585827831466 -177.63976540869518 25.5
    vertex -63.9287554265797 -183.3581076011461 25.5
    vertex -62.87947802110878 -178.38023337410843 25.5
  endloop
endfacet
facet normal 0.6410881130944974 0.7674672835039531 0.0
  outer loop
    vertex -62.87947802110878 -178.38023337410843 25.5
    vertex -61.58436660129487 -179.46207823475825 0.0
    vertex -62.87947802110878 -178.38023337410843 0.0
  endloop
endfacet
facet normal 0.6410881130944974 0.7674672835039531 0.0
  outer loop
    vertex -61.58436660129487 -179.46207823475825 0.0
    vertex -62.87947802110878 -178.38023337410843 25.5
    vertex -61.58436660129487 -179.46207823475825 25.5
  endloop
endfacet
facet normal -0.8090169943749544 0.5877852522924637 0.0
  outer loop
    vertex -63.9287554265797 -185.15040616852076 25.5
    vertex -64.98224209218745 -186.60040616852078 0.0
    vertex -64.98224209218745 -186.60040616852078 25.5
  endloop
endfacet
facet normal -0.8090169943749544 0.5877852522924637 0.0
  outer loop
    vertex -64.98224209218745 -186.60040616852078 0.0
    vertex -63.9287554265797 -185.15040616852076 25.5
    vertex -63.9287554265797 -185.15040616852076 0.0
  endloop
endfacet
facet normal 0.944927353734033 -0.32728014936014366 0.0
  outer loop
    vertex -59.844410098805916 -185.73122540082426 0.0
    vertex -60.39669977684864 -187.3258030890459 25.5
    vertex -60.39669977684864 -187.3258030890459 0.0
  endloop
endfacet
facet normal 0.944927353734033 -0.32728014936014366 0.0
  outer loop
    vertex -60.39669977684864 -187.3258030890459 25.5
    vertex -59.844410098805916 -185.73122540082426 0.0
    vertex -59.844410098805916 -185.73122540082426 25.5
  endloop
endfacet
facet normal 0.8061262004289297 0.5917436514082912 0.0
  outer loop
    vertex -61.58436660129487 -179.46207823475825 0.0
    vertex -60.58579118705402 -180.8224270996898 25.5
    vertex -60.58579118705402 -180.8224270996898 0.0
  endloop
endfacet
facet normal 0.8061262004289297 0.5917436514082912 0.0
  outer loop
    vertex -60.58579118705402 -180.8224270996898 25.5
    vertex -61.58436660129487 -179.46207823475825 0.0
    vertex -61.58436660129487 -179.46207823475825 25.5
  endloop
endfacet
facet normal -0.438792314887486 -0.8985885067124338 -0.0
  outer loop
    vertex -68.97778036935661 -190.86874836097167 25.5
    vertex -70.49416062656249 -190.12828039555848 0.0
    vertex -68.97778036935661 -190.86874836097167 0.0
  endloop
endfacet
facet normal -0.438792314887486 -0.8985885067124338 -0.0
  outer loop
    vertex -70.49416062656249 -190.12828039555848 0.0
    vertex -68.97778036935661 -190.86874836097167 25.5
    vertex -70.49416062656249 -190.12828039555848 25.5
  endloop
endfacet
facet normal 0.21099550228440186 0.9774870321471038 0.0
  outer loop
    vertex -66.04538086418162 -177.28370764517686 25.5
    vertex -64.39585827831466 -177.63976540869518 0.0
    vertex -66.04538086418162 -177.28370764517686 0.0
  endloop
endfacet
facet normal 0.21099550228440186 0.9774870321471038 0.0
  outer loop
    vertex -64.39585827831466 -177.63976540869518 0.0
    vertex -66.04538086418162 -177.28370764517686 25.5
    vertex -64.39585827831466 -177.63976540869518 25.5
  endloop
endfacet
facet normal 0.30901699437494423 -0.9510565162951548 0.0
  outer loop
    vertex -66.68681932383564 -181.35425688483343 25.5
    vertex -68.39139655548382 -181.9081076011461 0.0
    vertex -66.68681932383564 -181.35425688483343 0.0
  endloop
endfacet
facet normal 0.30901699437494423 -0.9510565162951548 0.0
  outer loop
    vertex -68.39139655548382 -181.9081076011461 0.0
    vertex -66.68681932383564 -181.35425688483343 25.5
    vertex -68.39139655548382 -181.9081076011461 25.5
  endloop
endfacet
facet normal -1.0 0.0 0.0
  outer loop
    vertex -63.9287554265797 -183.3581076011461 25.5
    vertex -63.9287554265797 -185.15040616852076 0.0
    vertex -63.9287554265797 -185.15040616852076 25.5
  endloop
endfacet
facet normal -1.0 0.0 0.0
  outer loop
    vertex -63.9287554265797 -185.15040616852076 0.0
    vertex -63.9287554265797 -183.3581076011461 25.5
    vertex -63.9287554265797 -183.3581076011461 0.0
  endloop
endfacet
facet normal -0.6410881130945053 -0.7674672835039463 -0.0
  outer loop
    vertex -70.49416062656249 -190.12828039555848 25.5
    vertex -71.78927204637641 -189.04643553490862 0.0
    vertex -70.49416062656249 -190.12828039555848 0.0
  endloop
endfacet
facet normal -0.6410881130945053 -0.7674672835039463 -0.0
  outer loop
    vertex -71.78927204637641 -189.04643553490862 0.0
    vertex -70.49416062656249 -190.12828039555848 25.5
    vertex -71.78927204637641 -189.04643553490862 25.5
  endloop
endfacet
facet normal -0.9243151631439441 -0.3816300291934374 -0.0
  outer loop
    vertex -73.43185329588331 -186.12629233212667 25.5
    vertex -72.78784746061726 -187.68608666997707 0.0
    vertex -72.78784746061726 -187.68608666997707 25.5
  endloop
endfacet
facet normal -0.9243151631439441 -0.3816300291934374 -0.0
  outer loop
    vertex -72.78784746061726 -187.68608666997707 0.0
    vertex -73.43185329588331 -186.12629233212667 25.5
    vertex -73.43185329588331 -186.12629233212667 0.0
  endloop
endfacet
facet normal 0.26743363532760395 -0.963576281721101 0.0
  outer loop
    vertex -64.0154091194815 -190.72446302684102 25.5
    vertex -65.64145712588152 -191.17576090311505 0.0
    vertex -64.0154091194815 -190.72446302684102 0.0
  endloop
endfacet
facet normal 0.26743363532760395 -0.963576281721101 0.0
  outer loop
    vertex -65.64145712588152 -191.17576090311505 0.0
    vertex -64.0154091194815 -190.72446302684102 25.5
    vertex -65.64145712588152 -191.17576090311505 25.5
  endloop
endfacet
facet normal 0.0 0.0 -1.0
  outer loop
    vertex -73.52922854886536 -182.77728836884265 0.0
    vertex -73.43185329588331 -186.12629233212667 0.0
    vertex -73.68386227389493 -184.4577020986516 0.0
  endloop
endfacet
facet normal 0.0 0.0 -1.0
  outer loop
    vertex -73.43185329588331 -186.12629233212667 0.0
    vertex -73.52922854886536 -182.77728836884265 0.0
    vertex -72.97693887082262 -181.18271068062097 0.0
  endloop
endfacet
facet normal 0.0 0.0 -1.0
  outer loop
    vertex -73.43185329588331 -186.12629233212667 0.0
    vertex -72.97693887082262 -181.18271068062097 0.0
    vertex -72.78784746061726 -187.68608666997707 0.0
  endloop
endfacet
facet normal 0.0 0.0 -1.0
  outer loop
    vertex -72.78784746061726 -187.68608666997707 0.0
    vertex -72.97693887082262 -181.18271068062097 0.0
    vertex -72.0590903083633 -179.76664009317193 0.0
  endloop
endfacet
facet normal 0.0 0.0 -1.0
  outer loop
    vertex -72.78784746061726 -187.68608666997707 0.0
    vertex -72.0590903083633 -179.76664009317193 0.0
    vertex -71.78927204637641 -189.04643553490862 0.0
  endloop
endfacet
facet normal 0.0 0.0 -1.0
  outer loop
    vertex -71.78927204637641 -189.04643553490862 0.0
    vertex -72.0590903083633 -179.76664009317193 0.0
    vertex -70.8290248836937 -178.61137348183095 0.0
  endloop
endfacet
facet normal 0.0 0.0 -1.0
  outer loop
    vertex -71.78927204637641 -189.04643553490862 0.0
    vertex -70.8290248836937 -178.61137348183095 0.0
    vertex -70.49416062656249 -190.12828039555848 0.0
  endloop
endfacet
facet normal 0.0 0.0 -1.0
  outer loop
    vertex -70.49416062656249 -190.12828039555848 0.0
    vertex -70.8290248836937 -178.61137348183095 0.0
    vertex -69.35822952818978 -177.78405074282585 0.0
  endloop
endfacet
facet normal 0.0 0.0 -1.0
  outer loop
    vertex -70.49416062656249 -190.12828039555848 0.0
    vertex -69.35822952818978 -177.78405074282585 0.0
    vertex -69.44488322109157 -183.3581076011461 0.0
  endloop
endfacet
facet normal 0.0 0.0 -1.0
  outer loop
    vertex -69.44488322109157 -183.3581076011461 0.0
    vertex -69.35822952818978 -177.78405074282585 0.0
    vertex -68.39139655548382 -181.9081076011461 0.0
  endloop
endfacet
facet normal 0.0 0.0 -1.0
  outer loop
    vertex -68.39139655548382 -181.9081076011461 0.0
    vertex -69.35822952818978 -177.78405074282585 0.0
    vertex -67.73218152178976 -177.33275286655183 0.0
  endloop
endfacet
facet normal 0.0 0.0 -1.0
  outer loop
    vertex -68.39139655548382 -181.9081076011461 0.0
    vertex -67.73218152178976 -177.33275286655183 0.0
    vertex -66.68681932383564 -181.35425688483343 0.0
  endloop
endfacet
facet normal 0.0 0.0 -1.0
  outer loop
    vertex -66.68681932383564 -181.35425688483343 0.0
    vertex -67.73218152178976 -177.33275286655183 0.0
    vertex -66.04538086418162 -177.28370764517686 0.0
  endloop
endfacet
facet normal 0.0 0.0 -1.0
  outer loop
    vertex -66.68681932383564 -181.35425688483343 0.0
    vertex -66.04538086418162 -177.28370764517686 0.0
    vertex -64.98224209218745 -181.9081076011461 0.0
  endloop
endfacet
facet normal 0.0 0.0 -1.0
  outer loop
    vertex -64.98224209218745 -181.9081076011461 0.0
    vertex -66.04538086418162 -177.28370764517686 0.0
    vertex -64.39585827831466 -177.63976540869518 0.0
  endloop
endfacet
facet normal 0.0 0.0 -1.0
  outer loop
    vertex -64.98224209218745 -181.9081076011461 0.0
    vertex -64.39585827831466 -177.63976540869518 0.0
    vertex -63.9287554265797 -183.3581076011461 0.0
  endloop
endfacet
facet normal 0.0 0.0 -1.0
  outer loop
    vertex -63.9287554265797 -183.3581076011461 0.0
    vertex -64.39585827831466 -177.63976540869518 0.0
    vertex -62.87947802110878 -178.38023337410843 0.0
  endloop
endfacet
facet normal 0.0 0.0 -1.0
  outer loop
    vertex -63.9287554265797 -183.3581076011461 0.0
    vertex -62.87947802110878 -178.38023337410843 0.0
    vertex -63.9287554265797 -185.15040616852076 0.0
  endloop
endfacet
facet normal 0.0 0.0 -1.0
  outer loop
    vertex -70.49416062656249 -190.12828039555848 0.0
    vertex -69.44488322109157 -185.15040616852076 0.0
    vertex -68.97778036935661 -190.86874836097167 0.0
  endloop
endfacet
facet normal 0.0 0.0 -1.0
  outer loop
    vertex -69.44488322109157 -185.15040616852076 0.0
    vertex -70.49416062656249 -190.12828039555848 0.0
    vertex -69.44488322109157 -183.3581076011461 0.0
  endloop
endfacet
facet normal 0.0 0.0 -1.0
  outer loop
    vertex -68.97778036935661 -190.86874836097167 0.0
    vertex -69.44488322109157 -185.15040616852076 0.0
    vertex -68.39139655548382 -186.60040616852078 0.0
  endloop
endfacet
facet normal 0.0 0.0 -1.0
  outer loop
    vertex -68.97778036935661 -190.86874836097167 0.0
    vertex -68.39139655548382 -186.60040616852078 0.0
    vertex -67.32825778348965 -191.22480612449002 0.0
  endloop
endfacet
facet normal 0.0 0.0 -1.0
  outer loop
    vertex -67.32825778348965 -191.22480612449002 0.0
    vertex -68.39139655548382 -186.60040616852078 0.0
    vertex -66.68681932383564 -187.15425688483344 0.0
  endloop
endfacet
facet normal 0.0 0.0 -1.0
  outer loop
    vertex -67.32825778348965 -191.22480612449002 0.0
    vertex -66.68681932383564 -187.15425688483344 0.0
    vertex -65.64145712588152 -191.17576090311505 0.0
  endloop
endfacet
facet normal 0.0 0.0 -1.0
  outer loop
    vertex -65.64145712588152 -191.17576090311505 0.0
    vertex -66.68681932383564 -187.15425688483344 0.0
    vertex -64.98224209218745 -186.60040616852078 0.0
  endloop
endfacet
facet normal 0.0 0.0 -1.0
  outer loop
    vertex -65.64145712588152 -191.17576090311505 0.0
    vertex -64.98224209218745 -186.60040616852078 0.0
    vertex -64.0154091194815 -190.72446302684102 0.0
  endloop
endfacet
facet normal 0.0 0.0 -1.0
  outer loop
    vertex -64.0154091194815 -190.72446302684102 0.0
    vertex -64.98224209218745 -186.60040616852078 0.0
    vertex -63.9287554265797 -185.15040616852076 0.0
  endloop
endfacet
facet normal 0.0 0.0 -1.0
  outer loop
    vertex -64.0154091194815 -190.72446302684102 0.0
    vertex -63.9287554265797 -185.15040616852076 0.0
    vertex -62.54461376397757 -189.89714028783592 0.0
  endloop
endfacet
facet normal 0.0 0.0 -1.0
  outer loop
    vertex -62.54461376397757 -189.89714028783592 0.0
    vertex -63.9287554265797 -185.15040616852076 0.0
    vertex -62.87947802110878 -178.38023337410843 0.0
  endloop
endfacet
facet normal 0.0 0.0 -1.0
  outer loop
    vertex -62.54461376397757 -189.89714028783592 0.0
    vertex -62.87947802110878 -178.38023337410843 0.0
    vertex -61.58436660129487 -179.46207823475825 0.0
  endloop
endfacet
facet normal 0.0 0.0 -1.0
  outer loop
    vertex -62.54461376397757 -189.89714028783592 0.0
    vertex -61.58436660129487 -179.46207823475825 0.0
    vertex -61.31454833930797 -188.74187367649492 0.0
  endloop
endfacet
facet normal 0.0 0.0 -1.0
  outer loop
    vertex -61.31454833930797 -188.74187367649492 0.0
    vertex -61.58436660129487 -179.46207823475825 0.0
    vertex -60.58579118705402 -180.8224270996898 0.0
  endloop
endfacet
facet normal 0.0 0.0 -1.0
  outer loop
    vertex -61.31454833930797 -188.74187367649492 0.0
    vertex -60.58579118705402 -180.8224270996898 0.0
    vertex -60.39669977684864 -187.3258030890459 0.0
  endloop
endfacet
facet normal 0.0 0.0 -1.0
  outer loop
    vertex -60.39669977684864 -187.3258030890459 0.0
    vertex -60.58579118705402 -180.8224270996898 0.0
    vertex -59.941785351787956 -182.3822214375402 0.0
  endloop
endfacet
facet normal 0.0 0.0 -1.0
  outer loop
    vertex -60.39669977684864 -187.3258030890459 0.0
    vertex -59.941785351787956 -182.3822214375402 0.0
    vertex -59.844410098805916 -185.73122540082426 0.0
  endloop
endfacet
facet normal 0.0 0.0 -1.0
  outer loop
    vertex -59.844410098805916 -185.73122540082426 0.0
    vertex -59.941785351787956 -182.3822214375402 0.0
    vertex -59.68977637377635 -184.05081167101528 0.0
  endloop
endfacet
facet normal 0.9887862883259435 0.14933745685059774 0.0
  outer loop
    vertex -59.941785351787956 -182.3822214375402 0.0
    vertex -59.68977637377635 -184.05081167101528 25.5
    vertex -59.68977637377635 -184.05081167101528 0.0
  endloop
endfacet
facet normal 0.9887862883259435 0.14933745685059774 0.0
  outer loop
    vertex -59.68977637377635 -184.05081167101528 25.5
    vertex -59.941785351787956 -182.3822214375402 0.0
    vertex -59.941785351787956 -182.3822214375402 25.5
  endloop
endfacet
facet normal 0.8391462158178655 -0.54390590038954 0.0
  outer loop
    vertex -60.39669977684864 -187.3258030890459 0.0
    vertex -61.31454833930797 -188.74187367649492 25.5
    vertex -61.31454833930797 -188.74187367649492 0.0
  endloop
endfacet
facet normal 0.8391462158178655 -0.54390590038954 0.0
  outer loop
    vertex -61.31454833930797 -188.74187367649492 25.5
    vertex -60.39669977684864 -187.3258030890459 0.0
    vertex -60.39669977684864 -187.3258030890459 25.5
  endloop
endfacet
facet normal 0.6845969500107387 -0.7289218175058242 0.0
  outer loop
    vertex -61.31454833930797 -188.74187367649492 25.5
    vertex -62.54461376397757 -189.89714028783592 0.0
    vertex -61.31454833930797 -188.74187367649492 0.0
  endloop
endfacet
facet normal 0.6845969500107387 -0.7289218175058242 0.0
  outer loop
    vertex -62.54461376397757 -189.89714028783592 0.0
    vertex -61.31454833930797 -188.74187367649492 25.5
    vertex -62.54461376397757 -189.89714028783592 25.5
  endloop
endfacet
facet normal -0.9449273537340344 0.32728014936013955 0.0
  outer loop
    vertex -72.97693887082262 -181.18271068062097 25.5
    vertex -73.52922854886536 -182.77728836884265 0.0
    vertex -73.52922854886536 -182.77728836884265 25.5
  endloop
endfacet
facet normal -0.9449273537340344 0.32728014936013955 0.0
  outer loop
    vertex -73.52922854886536 -182.77728836884265 0.0
    vertex -72.97693887082262 -181.18271068062097 25.5
    vertex -72.97693887082262 -181.18271068062097 0.0
  endloop
endfacet
facet normal -0.9887862883259435 -0.14933745685059774 -0.0
  outer loop
    vertex -73.68386227389493 -184.4577020986516 25.5
    vertex -73.43185329588331 -186.12629233212667 0.0
    vertex -73.43185329588331 -186.12629233212667 25.5
  endloop
endfacet
facet normal -0.9887862883259435 -0.14933745685059774 -0.0
  outer loop
    vertex -73.43185329588331 -186.12629233212667 0.0
    vertex -73.68386227389493 -184.4577020986516 25.5
    vertex -73.68386227389493 -184.4577020986516 0.0
  endloop
endfacet
facet normal -0.4902613978776642 0.8715754481116588 0.0
  outer loop
    vertex -70.8290248836937 -178.61137348183095 25.5
    vertex -69.35822952818978 -177.78405074282585 0.0
    vertex -70.8290248836937 -178.61137348183095 0.0
  endloop
endfacet
facet normal -0.4902613978776642 0.8715754481116588 0.0
  outer loop
    vertex -69.35822952818978 -177.78405074282585 0.0
    vertex -70.8290248836937 -178.61137348183095 25.5
    vertex -69.35822952818978 -177.78405074282585 25.5
  endloop
endfacet
facet normal -0.26743363532760395 0.963576281721101 0.0
  outer loop
    vertex -69.35822952818978 -177.78405074282585 25.5
    vertex -67.73218152178976 -177.33275286655183 0.0
    vertex -69.35822952818978 -177.78405074282585 0.0
  endloop
endfacet
facet normal -0.26743363532760395 0.963576281721101 0.0
  outer loop
    vertex -67.73218152178976 -177.33275286655183 0.0
    vertex -69.35822952818978 -177.78405074282585 25.5
    vertex -67.73218152178976 -177.33275286655183 25.5
  endloop
endfacet
facet normal 0.8090169943749544 0.5877852522924637 0.0
  outer loop
    vertex -69.44488322109157 -185.15040616852076 0.0
    vertex -68.39139655548382 -186.60040616852078 25.5
    vertex -68.39139655548382 -186.60040616852078 0.0
  endloop
endfacet
facet normal 0.8090169943749544 0.5877852522924637 0.0
  outer loop
    vertex -68.39139655548382 -186.60040616852078 25.5
    vertex -69.44488322109157 -185.15040616852076 0.0
    vertex -69.44488322109157 -185.15040616852076 25.5
  endloop
endfacet
facet normal -0.8391462158178655 0.54390590038954 0.0
  outer loop
    vertex -72.0590903083633 -179.76664009317193 25.5
    vertex -72.97693887082262 -181.18271068062097 0.0
    vertex -72.97693887082262 -181.18271068062097 25.5
  endloop
endfacet
facet normal -0.8391462158178655 0.54390590038954 0.0
  outer loop
    vertex -72.97693887082262 -181.18271068062097 0.0
    vertex -72.0590903083633 -179.76664009317193 25.5
    vertex -72.0590903083633 -179.76664009317193 0.0
  endloop
endfacet
facet normal -0.8090169943749544 -0.5877852522924637 -0.0
  outer loop
    vertex -64.98224209218745 -181.9081076011461 25.5
    vertex -63.9287554265797 -183.3581076011461 0.0
    vertex -63.9287554265797 -183.3581076011461 25.5
  endloop
endfacet
facet normal -0.8090169943749544 -0.5877852522924637 -0.0
  outer loop
    vertex -63.9287554265797 -183.3581076011461 0.0
    vertex -64.98224209218745 -181.9081076011461 25.5
    vertex -64.98224209218745 -181.9081076011461 0.0
  endloop
endfacet
facet normal 0.9243151631439441 0.3816300291934374 0.0
  outer loop
    vertex -60.58579118705402 -180.8224270996898 0.0
    vertex -59.941785351787956 -182.3822214375402 25.5
    vertex -59.941785351787956 -182.3822214375402 0.0
  endloop
endfacet
facet normal 0.9243151631439441 0.3816300291934374 0.0
  outer loop
    vertex -59.941785351787956 -182.3822214375402 25.5
    vertex -60.58579118705402 -180.8224270996898 0.0
    vertex -60.58579118705402 -180.8224270996898 25.5
  endloop
endfacet
facet normal -0.21099550228440186 -0.9774870321471038 -0.0
  outer loop
    vertex -67.32825778348965 -191.22480612449002 25.5
    vertex -68.97778036935661 -190.86874836097167 0.0
    vertex -67.32825778348965 -191.22480612449002 0.0
  endloop
endfacet
facet normal -0.21099550228440186 -0.9774870321471038 -0.0
  outer loop
    vertex -68.97778036935661 -190.86874836097167 0.0
    vertex -67.32825778348965 -191.22480612449002 25.5
    vertex -68.97778036935661 -190.86874836097167 25.5
  endloop
endfacet
facet normal 0.029063601974022336 -0.9995775642941851 0.0
  outer loop
    vertex -65.64145712588152 -191.17576090311505 25.5
    vertex -67.32825778348965 -191.22480612449002 0.0
    vertex -65.64145712588152 -191.17576090311505 0.0
  endloop
endfacet
facet normal 0.029063601974022336 -0.9995775642941851 0.0
  outer loop
    vertex -67.32825778348965 -191.22480612449002 0.0
    vertex -65.64145712588152 -191.17576090311505 25.5
    vertex -67.32825778348965 -191.22480612449002 25.5
  endloop
endfacet
facet normal -0.6845969500107387 0.7289218175058242 0.0
  outer loop
    vertex -72.0590903083633 -179.76664009317193 25.5
    vertex -70.8290248836937 -178.61137348183095 0.0
    vertex -72.0590903083633 -179.76664009317193 0.0
  endloop
endfacet
facet normal -0.6845969500107387 0.7289218175058242 0.0
  outer loop
    vertex -70.8290248836937 -178.61137348183095 0.0
    vertex -72.0590903083633 -179.76664009317193 25.5
    vertex -70.8290248836937 -178.61137348183095 25.5
  endloop
endfacet
facet normal 0.8090169943749544 -0.5877852522924637 0.0
  outer loop
    vertex -68.39139655548382 -181.9081076011461 0.0
    vertex -69.44488322109157 -183.3581076011461 25.5
    vertex -69.44488322109157 -183.3581076011461 0.0
  endloop
endfacet
facet normal 0.8090169943749544 -0.5877852522924637 0.0
  outer loop
    vertex -69.44488322109157 -183.3581076011461 25.5
    vertex -68.39139655548382 -181.9081076011461 0.0
    vertex -68.39139655548382 -181.9081076011461 25.5
  endloop
endfacet
facet normal 0.30901699437494423 0.9510565162951548 0.0
  outer loop
    vertex -68.39139655548382 -186.60040616852078 25.5
    vertex -66.68681932383564 -187.15425688483344 0.0
    vertex -68.39139655548382 -186.60040616852078 0.0
  endloop
endfacet
facet normal 0.30901699437494423 0.9510565162951548 0.0
  outer loop
    vertex -66.68681932383564 -187.15425688483344 0.0
    vertex -68.39139655548382 -186.60040616852078 25.5
    vertex -66.68681932383564 -187.15425688483344 25.5
  endloop
endfacet
facet normal 0.4902613978776642 -0.8715754481116588 0.0
  outer loop
    vertex -62.54461376397757 -189.89714028783592 25.5
    vertex -64.0154091194815 -190.72446302684102 0.0
    vertex -62.54461376397757 -189.89714028783592 0.0
  endloop
endfacet
facet normal 0.4902613978776642 -0.8715754481116588 0.0
  outer loop
    vertex -64.0154091194815 -190.72446302684102 0.0
    vertex -62.54461376397757 -189.89714028783592 25.5
    vertex -64.0154091194815 -190.72446302684102 25.5
  endloop
endfacet
facet normal 0.43879231488749676 0.8985885067124285 0.0
  outer loop
    vertex -64.39585827831466 -177.63976540869518 25.5
    vertex -62.87947802110878 -178.38023337410843 0.0
    vertex -64.39585827831466 -177.63976540869518 0.0
  endloop
endfacet
facet normal 0.43879231488749676 0.8985885067124285 0.0
  outer loop
    vertex -62.87947802110878 -178.38023337410843 0.0
    vertex -64.39585827831466 -177.63976540869518 25.5
    vertex -62.87947802110878 -178.38023337410843 25.5
  endloop
endfacet
facet normal -0.30901699437494423 0.9510565162951548 0.0
  outer loop
    vertex -66.68681932383564 -187.15425688483344 25.5
    vertex -64.98224209218745 -186.60040616852078 0.0
    vertex -66.68681932383564 -187.15425688483344 0.0
  endloop
endfacet
facet normal -0.30901699437494423 0.9510565162951548 0.0
  outer loop
    vertex -64.98224209218745 -186.60040616852078 0.0
    vertex -66.68681932383564 -187.15425688483344 25.5
    vertex -64.98224209218745 -186.60040616852078 25.5
  endloop
endfacet
facet normal -0.029063601974022336 0.9995775642941851 0.0
  outer loop
    vertex -67.73218152178976 -177.33275286655183 25.5
    vertex -66.04538086418162 -177.28370764517686 0.0
    vertex -67.73218152178976 -177.33275286655183 0.0
  endloop
endfacet
facet normal -0.029063601974022336 0.9995775642941851 0.0
  outer loop
    vertex -66.04538086418162 -177.28370764517686 0.0
    vertex -67.73218152178976 -177.33275286655183 25.5
    vertex -66.04538086418162 -177.28370764517686 25.5
  endloop
endfacet
endsolid FINAL_RC1
