solid limit_switch
facet normal 9.96454587472772e-15 -1.0 1.0623816276625118e-31
  outer loop
    vertex 102.97749436277745 52.188997383840636 9.200000759580394
    vertex 100.7134943627775 52.188997383840615 13.500000761315567
    vertex 100.7134943627775 52.188997383840615 9.20000075958039
  endloop
endfacet
facet normal 9.96454587472772e-15 -1.0 1.0623816276625118e-31
  outer loop
    vertex 100.7134943627775 52.188997383840615 13.500000761315567
    vertex 102.97749436277745 52.188997383840636 9.200000759580394
    vertex 102.97749436277745 52.188997383840636 13.500000761315565
  endloop
endfacet
facet normal 4.329870268274092e-15 -1.490127826644152e-08 1.0
  outer loop
    vertex 100.7134943627775 55.02833721625823 13.50000080362536
    vertex 102.97749436277745 52.188997383840636 13.500000761315565
    vertex 102.97749436277745 55.02833721625825 13.50000080362536
  endloop
endfacet
facet normal 4.329870268274092e-15 -1.490127826644152e-08 1.0
  outer loop
    vertex 102.97749436277745 52.188997383840636 13.500000761315565
    vertex 100.7134943627775 55.02833721625823 13.50000080362536
    vertex 100.7134943627775 52.188997383840615 13.500000761315567
  endloop
endfacet
facet normal -3.1690971278477685e-14 1.0 1.4901198898901935e-08
  outer loop
    vertex 100.71349436277734 57.688997428759244 10.839340670419094
    vertex 102.97749436277728 57.6889974531874 9.200000841537262
    vertex 100.71349436277731 57.68899745318737 9.200000841537257
  endloop
endfacet
facet normal -3.1690971278477685e-14 1.0 1.4901198898901935e-08
  outer loop
    vertex 102.97749436277728 57.6889974531874 9.200000841537262
    vertex 100.71349436277734 57.688997428759244 10.839340670419094
    vertex 102.97749436277728 57.688997428759265 10.839340670419098
  endloop
endfacet
facet normal -1.9347220065043493e-14 0.7071067706497159 0.7071067917233789
  outer loop
    vertex 100.71349436277734 57.688997428759244 10.839340670419094
    vertex 102.97749436277745 55.02833721625825 13.50000080362536
    vertex 102.97749436277728 57.688997428759265 10.839340670419098
  endloop
endfacet
facet normal -1.9347220065043493e-14 0.7071067706497159 0.7071067917233789
  outer loop
    vertex 102.97749436277745 55.02833721625825 13.50000080362536
    vertex 100.71349436277734 57.688997428759244 10.839340670419094
    vertex 100.7134943627775 55.02833721625823 13.50000080362536
  endloop
endfacet
facet normal 1.868350949506235e-15 1.4017929467194468e-07 -0.9999999999999902
  outer loop
    vertex 102.97749436277745 55.075623938954145 9.200000475196406
    vertex 100.71349436277731 57.68899745318737 9.200000841537257
    vertex 102.97749436277728 57.6889974531874 9.200000841537262
  endloop
endfacet
facet normal 1.868350949506235e-15 1.4017929467194468e-07 -0.9999999999999902
  outer loop
    vertex 100.71349436277731 57.68899745318737 9.200000841537257
    vertex 102.97749436277745 55.075623938954145 9.200000475196406
    vertex 100.7134943627775 55.075623938954124 9.2000004751964
  endloop
endfacet
facet normal -1.0 -2.951219747823749e-14 4.734258625170658e-15
  outer loop
    vertex 100.7134943627775 52.188997383840615 9.20000075958039
    vertex 100.71349436277731 57.68899745318737 9.200000841537257
    vertex 100.7134943627775 55.075623938954124 9.2000004751964
  endloop
endfacet
facet normal -1.0 -2.951219747823749e-14 4.734258625170658e-15
  outer loop
    vertex 100.71349436277731 57.68899745318737 9.200000841537257
    vertex 100.7134943627775 52.188997383840615 9.20000075958039
    vertex 100.7134943627775 52.188997383840615 13.500000761315567
  endloop
endfacet
facet normal -1.0 -2.951219747823749e-14 4.734258625170658e-15
  outer loop
    vertex 100.71349436277731 57.68899745318737 9.200000841537257
    vertex 100.7134943627775 52.188997383840615 13.500000761315567
    vertex 100.71349436277734 57.688997428759244 10.839340670419094
  endloop
endfacet
facet normal -1.0 -2.951219747823749e-14 4.734258625170658e-15
  outer loop
    vertex 100.71349436277734 57.688997428759244 10.839340670419094
    vertex 100.7134943627775 52.188997383840615 13.500000761315567
    vertex 100.7134943627775 55.02833721625823 13.50000080362536
  endloop
endfacet
facet normal 1.0 3.135790443561043e-14 -4.084134363186725e-15
  outer loop
    vertex 102.97749436277728 57.6889974531874 9.200000841537262
    vertex 102.97749436277745 52.188997383840636 9.200000759580394
    vertex 102.97749436277745 55.075623938954145 9.200000475196406
  endloop
endfacet
facet normal 1.0 3.135790443561043e-14 -4.084134363186725e-15
  outer loop
    vertex 102.97749436277745 52.188997383840636 9.200000759580394
    vertex 102.97749436277728 57.6889974531874 9.200000841537262
    vertex 102.97749436277745 52.188997383840636 13.500000761315565
  endloop
endfacet
facet normal 1.0 3.135790443561043e-14 -4.084134363186725e-15
  outer loop
    vertex 102.97749436277745 52.188997383840636 13.500000761315565
    vertex 102.97749436277728 57.6889974531874 9.200000841537262
    vertex 102.97749436277728 57.688997428759265 10.839340670419098
  endloop
endfacet
facet normal 1.0 3.135790443561043e-14 -4.084134363186725e-15
  outer loop
    vertex 102.97749436277745 52.188997383840636 13.500000761315565
    vertex 102.97749436277728 57.688997428759265 10.839340670419098
    vertex 102.97749436277745 55.02833721625825 13.50000080362536
  endloop
endfacet
facet normal -1.2455682343406864e-14 1.0 -4.073284524415351e-14
  outer loop
    vertex 102.97749436277745 55.075623938954145 9.200000475196406
    vertex 100.71349436277751 55.075623938954045 7.400000300723542
    vertex 100.7134943627775 55.075623938954124 9.2000004751964
  endloop
endfacet
facet normal -1.2455682343406864e-14 1.0 -4.073284524415351e-14
  outer loop
    vertex 100.71349436277751 55.075623938954045 7.400000300723542
    vertex 102.97749436277745 55.075623938954145 9.200000475196406
    vertex 102.97749436277752 55.07562393895408 7.400000300723837
  endloop
endfacet
facet normal 9.964545874730931e-15 -1.0 -5.0132716312058765e-14
  outer loop
    vertex 100.7134943627777 52.18899738384071 7.399999999999926
    vertex 102.97749436277745 52.188997383840636 9.200000759580394
    vertex 100.7134943627775 52.188997383840615 9.20000075958039
  endloop
endfacet
facet normal 9.964545874730931e-15 -1.0 -5.0132716312058765e-14
  outer loop
    vertex 102.97749436277745 52.188997383840636 9.200000759580394
    vertex 100.7134943627777 52.18899738384071 7.399999999999926
    vertex 102.9774943627777 52.18899738384073 7.400000000000221
  endloop
endfacet
facet normal 4.993227724109908e-14 1.0417822024736239e-07 -0.9999999999999947
  outer loop
    vertex 102.9774943627777 52.18899738384073 7.400000000000221
    vertex 100.71349436277751 55.075623938954045 7.400000300723542
    vertex 102.97749436277752 55.07562393895408 7.400000300723837
  endloop
endfacet
facet normal 4.993227724109908e-14 1.0417822024736239e-07 -0.9999999999999947
  outer loop
    vertex 100.71349436277751 55.075623938954045 7.400000300723542
    vertex 102.9774943627777 52.18899738384073 7.400000000000221
    vertex 100.7134943627777 52.18899738384071 7.399999999999926
  endloop
endfacet
facet normal -1.0 -3.1594099537226824e-14 -6.2665913723211e-14
  outer loop
    vertex 100.7134943627775 52.188997383840615 9.20000075958039
    vertex 100.71349436277751 55.075623938954045 7.400000300723542
    vertex 100.7134943627777 52.18899738384071 7.399999999999926
  endloop
endfacet
facet normal -1.0 -3.1594099537226824e-14 -6.2665913723211e-14
  outer loop
    vertex 100.71349436277751 55.075623938954045 7.400000300723542
    vertex 100.7134943627775 52.188997383840615 9.20000075958039
    vertex 100.7134943627775 55.075623938954124 9.2000004751964
  endloop
endfacet
facet normal 1.0 3.126103255889574e-14 8.773227595328396e-14
  outer loop
    vertex 102.97749436277752 55.07562393895408 7.400000300723837
    vertex 102.97749436277745 52.188997383840636 9.200000759580394
    vertex 102.9774943627777 52.18899738384073 7.400000000000221
  endloop
endfacet
facet normal 1.0 3.126103255889574e-14 8.773227595328396e-14
  outer loop
    vertex 102.97749436277745 52.188997383840636 9.200000759580394
    vertex 102.97749436277752 55.07562393895408 7.400000300723837
    vertex 102.97749436277745 55.075623938954145 9.200000475196406
  endloop
endfacet
facet normal 6.250689563777358e-08 0.9999999999999928 1.0417817054452543e-07
  outer loop
    vertex 100.71349417525713 12.188997290080284 9.200000603312967
    vertex 102.96348621357762 12.188996701474109 13.500000839448415
    vertex 102.9634866615442 12.188997149440214 9.200000837713306
  endloop
endfacet
facet normal 6.250689563777358e-08 0.9999999999999928 1.0417817054452543e-07
  outer loop
    vertex 102.96348621357762 12.188996701474109 13.500000839448415
    vertex 100.71349417525713 12.188997290080284 9.200000603312967
    vertex 100.71349372729053 12.188996842114179 13.500000605048095
  endloop
endfacet
facet normal -1.0417827357807332e-07 -8.927688553678194e-08 0.9999999999999906
  outer loop
    vertex 102.96348603609918 9.349656869056513 13.50000058596098
    vertex 100.71349372729053 12.188996842114179 13.500000605048095
    vertex 100.71349354981213 9.34965700969658 13.50000035156066
  endloop
endfacet
facet normal -1.0417827357807332e-07 -8.927688553678194e-08 0.9999999999999906
  outer loop
    vertex 100.71349372729053 12.188996842114179 13.500000605048095
    vertex 102.96348603609918 9.349656869056513 13.50000058596098
    vertex 102.96348621357762 12.188996701474109 13.500000839448415
  endloop
endfacet
facet normal -6.250690286096478e-08 -0.9999999999999941 -8.927697141618301e-08
  outer loop
    vertex 102.96348614697257 6.6889969337382 10.839340175572048
    vertex 100.71349383146917 6.688997220733556 9.200000112289887
    vertex 102.9634863177562 6.6889970800934835 9.200000346690228
  endloop
endfacet
facet normal -6.250690286096478e-08 -0.9999999999999941 -8.927697141618301e-08
  outer loop
    vertex 100.71349383146917 6.688997220733556 9.200000112289887
    vertex 102.96348614697257 6.6889969337382 10.839340175572048
    vertex 100.71349366068556 6.6889970743782685 10.839339941171707
  endloop
endfacet
facet normal -1.1786421858332741e-07 -0.7071068443147981 0.7071067180582815
  outer loop
    vertex 102.96348614697257 6.6889969337382 10.839340175572048
    vertex 100.71349354981213 9.34965700969658 13.50000035156066
    vertex 100.71349366068556 6.6889970743782685 10.839339941171707
  endloop
endfacet
facet normal -1.1786421858332741e-07 -0.7071068443147981 0.7071067180582815
  outer loop
    vertex 100.71349354981213 9.34965700969658 13.50000035156066
    vertex 102.96348614697257 6.6889969337382 10.839340175572048
    vertex 102.96348603609918 9.349656869056513 13.50000058596098
  endloop
endfacet
facet normal 1.0417827497806543e-07 -3.6001131034595206e-08 -0.999999999999994
  outer loop
    vertex 100.71349399482295 9.302370734966823 9.2000000182055
    vertex 102.9634863177562 6.6889970800934835 9.200000346690228
    vertex 100.71349383146917 6.688997220733556 9.200000112289887
  endloop
endfacet
facet normal 1.0417827497806543e-07 -3.6001131034595206e-08 -0.999999999999994
  outer loop
    vertex 102.9634863177562 6.6889970800934835 9.200000346690228
    vertex 100.71349399482295 9.302370734966823 9.2000000182055
    vertex 102.96348648111004 9.302370594326753 9.200000252605843
  endloop
endfacet
facet normal 0.9999999999999927 -6.25069193424354e-08 1.0417827234472994e-07
  outer loop
    vertex 102.9634866615442 12.188997149440214 9.200000837713306
    vertex 102.9634863177562 6.6889970800934835 9.200000346690228
    vertex 102.96348648111004 9.302370594326753 9.200000252605843
  endloop
endfacet
facet normal 0.9999999999999927 -6.25069193424354e-08 1.0417827234472994e-07
  outer loop
    vertex 102.9634863177562 6.6889970800934835 9.200000346690228
    vertex 102.9634866615442 12.188997149440214 9.200000837713306
    vertex 102.96348621357762 12.188996701474109 13.500000839448415
  endloop
endfacet
facet normal 0.9999999999999927 -6.25069193424354e-08 1.0417827234472994e-07
  outer loop
    vertex 102.9634863177562 6.6889970800934835 9.200000346690228
    vertex 102.96348621357762 12.188996701474109 13.500000839448415
    vertex 102.96348614697257 6.6889969337382 10.839340175572048
  endloop
endfacet
facet normal 0.9999999999999927 -6.25069193424354e-08 1.0417827234472994e-07
  outer loop
    vertex 102.96348614697257 6.6889969337382 10.839340175572048
    vertex 102.96348621357762 12.188996701474109 13.500000839448415
    vertex 102.96348603609918 9.349656869056513 13.50000058596098
  endloop
endfacet
facet normal -0.9999999999999927 6.250691225855112e-08 -1.0417821373550078e-07
  outer loop
    vertex 100.7134941823439 9.302370922487693 7.399999843732824
    vertex 100.71349417525713 12.188997290080284 9.200000603312967
    vertex 100.71349436277791 12.18899747760106 7.39999984373268
  endloop
endfacet
facet normal -0.9999999999999927 6.250691225855112e-08 -1.0417821373550078e-07
  outer loop
    vertex 100.71349417525713 12.188997290080284 9.200000603312967
    vertex 100.7134941823439 9.302370922487693 7.399999843732824
    vertex 100.71349399482295 9.302370734966823 9.2000000182055
  endloop
endfacet
facet normal -0.9999999999999927 6.250691216168497e-08 -1.0417826799765113e-07
  outer loop
    vertex 100.71349383146917 6.688997220733556 9.200000112289887
    vertex 100.71349417525713 12.188997290080284 9.200000603312967
    vertex 100.71349399482295 9.302370734966823 9.2000000182055
  endloop
endfacet
facet normal -0.9999999999999927 6.250691216168497e-08 -1.0417826799765113e-07
  outer loop
    vertex 100.71349417525713 12.188997290080284 9.200000603312967
    vertex 100.71349383146917 6.688997220733556 9.200000112289887
    vertex 100.71349372729053 12.188996842114179 13.500000605048095
  endloop
endfacet
facet normal -0.9999999999999927 6.250691216168497e-08 -1.0417826799765113e-07
  outer loop
    vertex 100.71349372729053 12.188996842114179 13.500000605048095
    vertex 100.71349383146917 6.688997220733556 9.200000112289887
    vertex 100.71349366068556 6.6889970743782685 10.839339941171707
  endloop
endfacet
facet normal -0.9999999999999927 6.250691216168497e-08 -1.0417826799765113e-07
  outer loop
    vertex 100.71349372729053 12.188996842114179 13.500000605048095
    vertex 100.71349366068556 6.6889970743782685 10.839339941171707
    vertex 100.71349354981213 9.34965700969658 13.50000035156066
  endloop
endfacet
facet normal -6.250691608576306e-08 -0.9999999999999928 -1.0417823309927435e-07
  outer loop
    vertex 102.96348648111004 9.302370594326753 9.200000252605843
    vertex 100.7134941823439 9.302370922487693 7.399999843732824
    vertex 102.96348674285635 9.302370781847538 7.399999989474368
  endloop
endfacet
facet normal -6.250691608576306e-08 -0.9999999999999928 -1.0417823309927435e-07
  outer loop
    vertex 100.7134941823439 9.302370922487693 7.399999843732824
    vertex 102.96348648111004 9.302370594326753 9.200000252605843
    vertex 100.71349399482295 9.302370734966823 9.2000000182055
  endloop
endfacet
facet normal 6.250691827908563e-08 0.9999999999999928 1.0417814244416538e-07
  outer loop
    vertex 100.71349436277791 12.18899747760106 7.39999984373268
    vertex 102.9634866615442 12.188997149440214 9.200000837713306
    vertex 102.96348692329039 12.18899733696089 7.399999989474227
  endloop
endfacet
facet normal 6.250691827908563e-08 0.9999999999999928 1.0417814244416538e-07
  outer loop
    vertex 102.9634866615442 12.188997149440214 9.200000837713306
    vertex 100.71349436277791 12.18899747760106 7.39999984373268
    vertex 100.71349417525713 12.188997290080284 9.200000603312967
  endloop
endfacet
facet normal 1.0417821373549745e-07 -5.6444135457171316e-14 -0.9999999999999946
  outer loop
    vertex 100.7134941823439 9.302370922487693 7.399999843732824
    vertex 102.96348692329039 12.18899733696089 7.399999989474227
    vertex 102.96348674285635 9.302370781847538 7.399999989474368
  endloop
endfacet
facet normal 1.0417821373549745e-07 -5.6444135457171316e-14 -0.9999999999999946
  outer loop
    vertex 102.96348692329039 12.18899733696089 7.399999989474227
    vertex 100.7134941823439 9.302370922487693 7.399999843732824
    vertex 100.71349436277791 12.18899747760106 7.39999984373268
  endloop
endfacet
facet normal 0.9999999999999876 -6.250691484332093e-08 1.454145345000463e-07
  outer loop
    vertex 102.9634866615442 12.188997149440214 9.200000837713306
    vertex 102.96348674285635 9.302370781847538 7.399999989474368
    vertex 102.96348692329039 12.18899733696089 7.399999989474227
  endloop
endfacet
facet normal 0.9999999999999876 -6.250691484332093e-08 1.454145345000463e-07
  outer loop
    vertex 102.96348674285635 9.302370781847538 7.399999989474368
    vertex 102.9634866615442 12.188997149440214 9.200000837713306
    vertex 102.96348648111004 9.302370594326753 9.200000252605843
  endloop
endfacet
facet normal 0.0 0.0 1.0
  outer loop
    vertex 102.97749436277786 42.18899738384064 7.4
    vertex 94.51349436277783 62.18899738384063 7.4
    vertex 94.51349436277783 42.18899738384064 7.4
  endloop
endfacet
facet normal 0.0 0.0 1.0
  outer loop
    vertex 94.51349436277783 62.18899738384063 7.4
    vertex 102.97749436277786 42.18899738384064 7.4
    vertex 102.97749436277786 62.18899738384062 7.4
  endloop
endfacet
facet normal -1.0 0.0 0.0
  outer loop
    vertex 94.51349436277783 22.18899738384064 7.4
    vertex 94.51349436277783 2.1889973838406402 0.0
    vertex 94.51349436277783 2.1889973838406402 7.4
  endloop
endfacet
facet normal -1.0 0.0 0.0
  outer loop
    vertex 94.51349436277783 2.1889973838406402 0.0
    vertex 94.51349436277783 22.18899738384064 7.4
    vertex 94.51349436277783 22.18899738384064 0.0
  endloop
endfacet
facet normal -1.0 0.0 0.0
  outer loop
    vertex 94.51349436277783 22.18899738384064 0.0
    vertex 94.51349436277783 22.18899738384064 7.4
    vertex 94.51349436277783 22.18899738384064 0.9999999999999999
  endloop
endfacet
facet normal 0.0 0.0 1.0
  outer loop
    vertex 102.9634943627778 2.188997383840639 7.4
    vertex 94.51349436277783 22.18899738384064 7.4
    vertex 94.51349436277783 2.1889973838406402 7.4
  endloop
endfacet
facet normal 0.0 0.0 1.0
  outer loop
    vertex 94.51349436277783 22.18899738384064 7.4
    vertex 102.9634943627778 2.188997383840639 7.4
    vertex 102.9634943627778 22.18899738384064 7.4
  endloop
endfacet
facet normal -1.0428628432403162e-16 -1.0 -7.143431838149101e-17
  outer loop
    vertex 102.96101024836467 2.1889973838406402 0.006375974160083807
    vertex 94.51349436277783 2.1889973838406402 7.4
    vertex 94.51349436277783 2.1889973838406402 0.0
  endloop
endfacet
facet normal -1.0428628432403162e-16 -1.0 -7.143431838149101e-17
  outer loop
    vertex 94.51349436277783 2.1889973838406402 7.4
    vertex 102.96101024836467 2.1889973838406402 0.006375974160083807
    vertex 102.9634943627778 2.188997383840639 7.4
  endloop
endfacet
facet normal -1.0 0.0 0.0
  outer loop
    vertex 94.51349436277783 62.18899738384063 7.4
    vertex 94.51349436277783 42.18899738384064 0.9999999999999999
    vertex 94.51349436277783 42.18899738384064 7.4
  endloop
endfacet
facet normal -1.0 0.0 0.0
  outer loop
    vertex 94.51349436277783 42.18899738384064 0.9999999999999999
    vertex 94.51349436277783 62.18899738384063 7.4
    vertex 94.51349436277783 42.18899738384064 0.0
  endloop
endfacet
facet normal -1.0 0.0 0.0
  outer loop
    vertex 94.51349436277783 42.18899738384064 0.0
    vertex 94.51349436277783 62.18899738384063 7.4
    vertex 94.51349436277783 62.18899738384063 0.0
  endloop
endfacet
facet normal 1.334004207267833e-15 1.0 -1.44110276643885e-18
  outer loop
    vertex 94.51349436277783 62.18899738384063 7.4
    vertex 102.96349436277787 62.18899738384062 1.0375745987427644e-16
    vertex 94.51349436277783 62.18899738384063 0.0
  endloop
endfacet
facet normal 1.334004207267833e-15 1.0 -1.44110276643885e-18
  outer loop
    vertex 102.96349436277787 62.18899738384062 1.0375745987427644e-16
    vertex 94.51349436277783 62.18899738384063 7.4
    vertex 102.97749436277786 62.18899738384062 7.4
  endloop
endfacet
facet normal 1.1353929730999869e-17 3.9083768236636605e-19 -1.0
  outer loop
    vertex 102.96349436277787 62.18899738384062 1.0375745987427644e-16
    vertex 94.51349436277783 42.18899738384064 0.0
    vertex 94.51349436277783 62.18899738384063 0.0
  endloop
endfacet
facet normal 1.1353929730999869e-17 3.9083768236636605e-19 -1.0
  outer loop
    vertex 94.51349436277783 42.18899738384064 0.0
    vertex 102.96349436277787 62.18899738384062 1.0375745987427644e-16
    vertex 102.96349436277787 42.18899738384064 8.81239525796218e-17
  endloop
endfacet
facet normal -5.724840075673351e-08 0.9999999999999971 5.1765943022973314e-08
  outer loop
    vertex 94.51349436277783 22.18899738384064 7.4
    vertex 102.96349436277787 22.18899810946412 0.9999999999999999
    vertex 94.51349436277783 22.18899738384064 0.9999999999999999
  endloop
endfacet
facet normal -5.724840075673351e-08 0.9999999999999971 5.1765943022973314e-08
  outer loop
    vertex 102.96349436277787 22.18899810946412 0.9999999999999999
    vertex 94.51349436277783 22.18899738384064 7.4
    vertex 102.9634943627778 22.18899738384064 7.4
  endloop
endfacet
facet normal 0.9999981002652699 -2.8961143684300155e-05 -0.0019490066965920897
  outer loop
    vertex 102.96349436277787 62.18899738384062 1.0375745987427644e-16
    vertex 102.96349436277787 42.18899738384064 0.9999999999999999
    vertex 102.96349436277787 42.18899738384064 8.81239525796218e-17
  endloop
endfacet
facet normal 0.9999981002652699 -2.8961143684300155e-05 -0.0019490066965920897
  outer loop
    vertex 102.96349436277787 42.18899738384064 0.9999999999999999
    vertex 102.96349436277787 62.18899738384062 1.0375745987427644e-16
    vertex 102.97749436277786 42.18899738384064 7.4
  endloop
endfacet
facet normal 0.9999981002652699 -2.8961143684300155e-05 -0.0019490066965920897
  outer loop
    vertex 102.97749436277786 42.18899738384064 7.4
    vertex 102.96349436277787 62.18899738384062 1.0375745987427644e-16
    vertex 102.97749436277786 62.18899738384062 7.4
  endloop
endfacet
facet normal 0.00037727653641562005 -0.00015942277058383984 -0.9999999161233942
  outer loop
    vertex 102.96349436277787 22.18899810946412 0.0
    vertex 94.51349436277783 2.1889973838406402 0.0
    vertex 94.51349436277783 22.18899738384064 0.0
  endloop
endfacet
facet normal 0.00037727653641562005 -0.00015942277058383984 -0.9999999161233942
  outer loop
    vertex 94.51349436277783 2.1889973838406402 0.0
    vertex 102.96349436277787 22.18899810946412 0.0
    vertex 102.96101024836467 2.1889973838406402 0.006375974160083807
  endloop
endfacet
facet normal 0.9999999857335593 -6.906429482122921e-05 -0.00015415253690263675
  outer loop
    vertex 102.96101024836467 2.1889973838406402 0.006375974160083807
    vertex 102.9634943627778 22.18899738384064 7.4
    vertex 102.9634943627778 2.188997383840639 7.4
  endloop
endfacet
facet normal 0.9999999857335593 -6.906429482122921e-05 -0.00015415253690263675
  outer loop
    vertex 102.9634943627778 22.18899738384064 7.4
    vertex 102.96101024836467 2.1889973838406402 0.006375974160083807
    vertex 102.96349436277787 22.18899810946412 0.0
  endloop
endfacet
facet normal 0.9999999857335593 -6.906429482122921e-05 -0.00015415253690263675
  outer loop
    vertex 102.9634943627778 22.18899738384064 7.4
    vertex 102.96349436277787 22.18899810946412 0.0
    vertex 102.96349436277787 22.18899810946412 0.9999999999999999
  endloop
endfacet
facet normal 0.0 -1.0 0.0
  outer loop
    vertex 102.97749436277786 42.18899738384064 7.4
    vertex 94.51349436277783 42.18899738384064 0.9999999999999999
    vertex 102.96349436277787 42.18899738384064 0.9999999999999999
  endloop
endfacet
facet normal 0.0 -1.0 0.0
  outer loop
    vertex 94.51349436277783 42.18899738384064 0.9999999999999999
    vertex 102.97749436277786 42.18899738384064 7.4
    vertex 94.51349436277783 42.18899738384064 7.4
  endloop
endfacet
facet normal 8.193144721487026e-18 7.438823172768358e-18 1.0
  outer loop
    vertex 102.96349436277787 22.18899810946412 0.9999999999999999
    vertex 94.51349436277783 42.18899738384064 0.9999999999999999
    vertex 94.51349436277783 22.18899738384064 0.9999999999999999
  endloop
endfacet
facet normal 8.193144721487026e-18 7.438823172768358e-18 1.0
  outer loop
    vertex 94.51349436277783 42.18899738384064 0.9999999999999999
    vertex 102.96349436277787 22.18899810946412 0.9999999999999999
    vertex 101.46349436277784 27.005984681948412 0.9999999999999999
  endloop
endfacet
facet normal 8.193144721487026e-18 7.438823172768358e-18 1.0
  outer loop
    vertex 101.46349436277784 27.005984681948412 0.9999999999999999
    vertex 102.96349436277787 22.18899810946412 0.9999999999999999
    vertex 102.21349436277785 26.572971980056188 0.9999999999999999
  endloop
endfacet
facet normal 8.193144721487026e-18 7.438823172768358e-18 1.0
  outer loop
    vertex 102.21349436277785 26.572971980056188 0.9999999999999999
    vertex 102.96349436277787 22.18899810946412 0.9999999999999999
    vertex 102.96349436277787 27.005984681948416 0.9999999999999999
  endloop
endfacet
facet normal 8.193144721487026e-18 7.438823172768358e-18 1.0
  outer loop
    vertex 102.21349436277785 28.305022787625088 0.9999999999999999
    vertex 101.46349436277784 36.50598468194842 0.9999999999999998
    vertex 101.46349436277784 27.87201008573286 0.9999999999999999
  endloop
endfacet
facet normal 8.193144721487026e-18 7.438823172768358e-18 1.0
  outer loop
    vertex 101.46349436277784 36.50598468194842 0.9999999999999998
    vertex 102.21349436277785 28.305022787625088 0.9999999999999999
    vertex 102.21349436277785 36.072971980056195 0.9999999999999998
  endloop
endfacet
facet normal 8.193144721487026e-18 7.438823172768358e-18 1.0
  outer loop
    vertex 102.21349436277785 36.072971980056195 0.9999999999999998
    vertex 102.21349436277785 28.305022787625088 0.9999999999999999
    vertex 102.96349436277787 27.872010085732867 0.9999999999999999
  endloop
endfacet
facet normal 8.193144721487026e-18 7.438823172768358e-18 1.0
  outer loop
    vertex 102.21349436277785 36.072971980056195 0.9999999999999998
    vertex 102.96349436277787 27.872010085732867 0.9999999999999999
    vertex 102.96349436277787 36.50598468194842 0.9999999999999998
  endloop
endfacet
facet normal 8.193144721487026e-18 7.438823172768358e-18 1.0
  outer loop
    vertex 94.51349436277783 42.18899738384064 0.9999999999999999
    vertex 101.46349436277784 37.37201008573287 0.9999999999999998
    vertex 102.96349436277787 42.18899738384064 0.9999999999999999
  endloop
endfacet
facet normal 8.193144721487026e-18 7.438823172768358e-18 1.0
  outer loop
    vertex 101.46349436277784 37.37201008573287 0.9999999999999998
    vertex 94.51349436277783 42.18899738384064 0.9999999999999999
    vertex 101.46349436277784 27.005984681948412 0.9999999999999999
  endloop
endfacet
facet normal 8.193144721487026e-18 7.438823172768358e-18 1.0
  outer loop
    vertex 101.46349436277784 37.37201008573287 0.9999999999999998
    vertex 101.46349436277784 27.005984681948412 0.9999999999999999
    vertex 101.46349436277784 27.87201008573286 0.9999999999999999
  endloop
endfacet
facet normal 8.193144721487026e-18 7.438823172768358e-18 1.0
  outer loop
    vertex 101.46349436277784 37.37201008573287 0.9999999999999998
    vertex 101.46349436277784 27.87201008573286 0.9999999999999999
    vertex 101.46349436277784 36.50598468194842 0.9999999999999998
  endloop
endfacet
facet normal 8.193144721487026e-18 7.438823172768358e-18 1.0
  outer loop
    vertex 102.96349436277787 42.18899738384064 0.9999999999999999
    vertex 101.46349436277784 37.37201008573287 0.9999999999999998
    vertex 102.21349436277785 37.80502278762509 0.9999999999999998
  endloop
endfacet
facet normal 8.193144721487026e-18 7.438823172768358e-18 1.0
  outer loop
    vertex 102.96349436277787 42.18899738384064 0.9999999999999999
    vertex 102.21349436277785 37.80502278762509 0.9999999999999998
    vertex 102.96349436277787 37.372010085732875 0.9999999999999998
  endloop
endfacet
facet normal 1.0 0.0 0.0
  outer loop
    vertex 102.96349436277787 42.18899738384064 8.81239525796218e-17
    vertex 102.96349436277787 22.18899810946412 0.9999999999999999
    vertex 102.96349436277787 22.18899810946412 0.0
  endloop
endfacet
facet normal 1.0 0.0 0.0
  outer loop
    vertex 102.96349436277787 22.18899810946412 0.9999999999999999
    vertex 102.96349436277787 42.18899738384064 8.81239525796218e-17
    vertex 102.96349436277787 27.005984681948416 0.9999999999999999
  endloop
endfacet
facet normal 1.0 0.0 0.0
  outer loop
    vertex 102.96349436277787 27.005984681948416 0.9999999999999999
    vertex 102.96349436277787 42.18899738384064 8.81239525796218e-17
    vertex 102.96349436277787 27.872010085732867 0.9999999999999999
  endloop
endfacet
facet normal 1.0 0.0 0.0
  outer loop
    vertex 102.96349436277787 27.005984681948416 0.9999999999999999
    vertex 102.96349436277787 27.872010085732867 0.9999999999999999
    vertex 102.96349436277787 27.005984681948416 3.0
  endloop
endfacet
facet normal 1.0 0.0 0.0
  outer loop
    vertex 102.96349436277787 27.872010085732867 0.9999999999999999
    vertex 102.96349436277787 42.18899738384064 8.81239525796218e-17
    vertex 102.96349436277787 36.50598468194842 0.9999999999999998
  endloop
endfacet
facet normal 1.0 0.0 0.0
  outer loop
    vertex 102.96349436277787 36.50598468194842 0.9999999999999998
    vertex 102.96349436277787 42.18899738384064 8.81239525796218e-17
    vertex 102.96349436277787 37.372010085732875 0.9999999999999998
  endloop
endfacet
facet normal 1.0 0.0 0.0
  outer loop
    vertex 102.96349436277787 36.50598468194842 0.9999999999999998
    vertex 102.96349436277787 37.372010085732875 0.9999999999999998
    vertex 102.96349436277787 36.50598468194842 2.9999999999999996
  endloop
endfacet
facet normal 1.0 0.0 0.0
  outer loop
    vertex 102.96349436277787 37.372010085732875 0.9999999999999998
    vertex 102.96349436277787 42.18899738384064 8.81239525796218e-17
    vertex 102.96349436277787 42.18899738384064 0.9999999999999999
  endloop
endfacet
facet normal 1.0 0.0 0.0
  outer loop
    vertex 102.96349436277787 37.372010085732875 2.9999999999999996
    vertex 102.96349436277787 36.50598468194842 2.9999999999999996
    vertex 102.96349436277787 37.372010085732875 0.9999999999999998
  endloop
endfacet
facet normal 1.0 0.0 0.0
  outer loop
    vertex 102.96349436277787 27.872010085732867 3.0
    vertex 102.96349436277787 27.005984681948416 3.0
    vertex 102.96349436277787 27.872010085732867 0.9999999999999999
  endloop
endfacet
facet normal -1.0 0.0 0.0
  outer loop
    vertex 94.51349436277783 42.18899738384064 0.9999999999999999
    vertex 94.51349436277783 22.18899738384064 0.0
    vertex 94.51349436277783 22.18899738384064 0.9999999999999999
  endloop
endfacet
facet normal -1.0 0.0 0.0
  outer loop
    vertex 94.51349436277783 22.18899738384064 0.0
    vertex 94.51349436277783 42.18899738384064 0.9999999999999999
    vertex 94.51349436277783 42.18899738384064 0.0
  endloop
endfacet
facet normal 5.214434969290021e-18 2.2030988144905427e-18 -1.0
  outer loop
    vertex 102.96349436277787 42.18899738384064 8.81239525796218e-17
    vertex 94.51349436277783 22.18899738384064 0.0
    vertex 94.51349436277783 42.18899738384064 0.0
  endloop
endfacet
facet normal 5.214434969290021e-18 2.2030988144905427e-18 -1.0
  outer loop
    vertex 94.51349436277783 22.18899738384064 0.0
    vertex 102.96349436277787 42.18899738384064 8.81239525796218e-17
    vertex 102.96349436277787 22.18899810946412 0.0
  endloop
endfacet
facet normal 0.0 0.0 1.0
  outer loop
    vertex 102.21349436277785 26.572971980056188 3.0
    vertex 101.46349436277784 27.87201008573286 3.0
    vertex 101.46349436277784 27.005984681948412 3.0
  endloop
endfacet
facet normal 0.0 0.0 1.0
  outer loop
    vertex 101.46349436277784 27.87201008573286 3.0
    vertex 102.21349436277785 26.572971980056188 3.0
    vertex 102.21349436277785 28.305022787625088 3.0
  endloop
endfacet
facet normal 0.0 0.0 1.0
  outer loop
    vertex 102.21349436277785 28.305022787625088 3.0
    vertex 102.21349436277785 26.572971980056188 3.0
    vertex 102.96349436277787 27.005984681948416 3.0
  endloop
endfacet
facet normal 0.0 0.0 1.0
  outer loop
    vertex 102.21349436277785 28.305022787625088 3.0
    vertex 102.96349436277787 27.005984681948416 3.0
    vertex 102.96349436277787 27.872010085732867 3.0
  endloop
endfacet
facet normal 0.4999999999999978 0.86602540378444 0.0
  outer loop
    vertex 102.21349436277785 28.305022787625088 3.0
    vertex 102.96349436277787 27.872010085732867 0.9999999999999999
    vertex 102.21349436277785 28.305022787625088 0.9999999999999999
  endloop
endfacet
facet normal 0.4999999999999978 0.86602540378444 0.0
  outer loop
    vertex 102.96349436277787 27.872010085732867 0.9999999999999999
    vertex 102.21349436277785 28.305022787625088 3.0
    vertex 102.96349436277787 27.872010085732867 3.0
  endloop
endfacet
facet normal -0.5000000000000027 0.8660254037844373 0.0
  outer loop
    vertex 101.46349436277784 27.87201008573286 3.0
    vertex 102.21349436277785 28.305022787625088 0.9999999999999999
    vertex 101.46349436277784 27.87201008573286 0.9999999999999999
  endloop
endfacet
facet normal -0.5000000000000027 0.8660254037844373 0.0
  outer loop
    vertex 102.21349436277785 28.305022787625088 0.9999999999999999
    vertex 101.46349436277784 27.87201008573286 3.0
    vertex 102.21349436277785 28.305022787625088 3.0
  endloop
endfacet
facet normal -1.0 -0.0 -0.0
  outer loop
    vertex 101.46349436277784 27.87201008573286 3.0
    vertex 101.46349436277784 27.005984681948412 0.9999999999999999
    vertex 101.46349436277784 27.005984681948412 3.0
  endloop
endfacet
facet normal -1.0 -0.0 -0.0
  outer loop
    vertex 101.46349436277784 27.005984681948412 0.9999999999999999
    vertex 101.46349436277784 27.87201008573286 3.0
    vertex 101.46349436277784 27.87201008573286 0.9999999999999999
  endloop
endfacet
facet normal -0.4999999999999978 -0.86602540378444 -0.0
  outer loop
    vertex 102.21349436277785 26.572971980056188 3.0
    vertex 101.46349436277784 27.005984681948412 0.9999999999999999
    vertex 102.21349436277785 26.572971980056188 0.9999999999999999
  endloop
endfacet
facet normal -0.4999999999999978 -0.86602540378444 -0.0
  outer loop
    vertex 101.46349436277784 27.005984681948412 0.9999999999999999
    vertex 102.21349436277785 26.572971980056188 3.0
    vertex 101.46349436277784 27.005984681948412 3.0
  endloop
endfacet
facet normal 0.5000000000000027 -0.8660254037844373 0.0
  outer loop
    vertex 102.96349436277787 27.005984681948416 3.0
    vertex 102.21349436277785 26.572971980056188 0.9999999999999999
    vertex 102.96349436277787 27.005984681948416 0.9999999999999999
  endloop
endfacet
facet normal 0.5000000000000027 -0.8660254037844373 0.0
  outer loop
    vertex 102.21349436277785 26.572971980056188 0.9999999999999999
    vertex 102.96349436277787 27.005984681948416 3.0
    vertex 102.21349436277785 26.572971980056188 3.0
  endloop
endfacet
facet normal 0.0 0.0 1.0
  outer loop
    vertex 102.21349436277785 36.072971980056195 2.9999999999999996
    vertex 101.46349436277784 37.37201008573287 2.9999999999999996
    vertex 101.46349436277784 36.50598468194842 2.9999999999999996
  endloop
endfacet
facet normal 0.0 0.0 1.0
  outer loop
    vertex 101.46349436277784 37.37201008573287 2.9999999999999996
    vertex 102.21349436277785 36.072971980056195 2.9999999999999996
    vertex 102.21349436277785 37.80502278762509 2.9999999999999996
  endloop
endfacet
facet normal 0.0 0.0 1.0
  outer loop
    vertex 102.21349436277785 37.80502278762509 2.9999999999999996
    vertex 102.21349436277785 36.072971980056195 2.9999999999999996
    vertex 102.96349436277787 36.50598468194842 2.9999999999999996
  endloop
endfacet
facet normal 0.0 0.0 1.0
  outer loop
    vertex 102.21349436277785 37.80502278762509 2.9999999999999996
    vertex 102.96349436277787 36.50598468194842 2.9999999999999996
    vertex 102.96349436277787 37.372010085732875 2.9999999999999996
  endloop
endfacet
facet normal 0.4999999999999978 0.86602540378444 0.0
  outer loop
    vertex 102.21349436277785 37.80502278762509 2.9999999999999996
    vertex 102.96349436277787 37.372010085732875 0.9999999999999998
    vertex 102.21349436277785 37.80502278762509 0.9999999999999998
  endloop
endfacet
facet normal 0.4999999999999978 0.86602540378444 0.0
  outer loop
    vertex 102.96349436277787 37.372010085732875 0.9999999999999998
    vertex 102.21349436277785 37.80502278762509 2.9999999999999996
    vertex 102.96349436277787 37.372010085732875 2.9999999999999996
  endloop
endfacet
facet normal -0.5000000000000027 0.8660254037844373 0.0
  outer loop
    vertex 101.46349436277784 37.37201008573287 2.9999999999999996
    vertex 102.21349436277785 37.80502278762509 0.9999999999999998
    vertex 101.46349436277784 37.37201008573287 0.9999999999999998
  endloop
endfacet
facet normal -0.5000000000000027 0.8660254037844373 0.0
  outer loop
    vertex 102.21349436277785 37.80502278762509 0.9999999999999998
    vertex 101.46349436277784 37.37201008573287 2.9999999999999996
    vertex 102.21349436277785 37.80502278762509 2.9999999999999996
  endloop
endfacet
facet normal -1.0 -0.0 -0.0
  outer loop
    vertex 101.46349436277784 37.37201008573287 2.9999999999999996
    vertex 101.46349436277784 36.50598468194842 0.9999999999999998
    vertex 101.46349436277784 36.50598468194842 2.9999999999999996
  endloop
endfacet
facet normal -1.0 -0.0 -0.0
  outer loop
    vertex 101.46349436277784 36.50598468194842 0.9999999999999998
    vertex 101.46349436277784 37.37201008573287 2.9999999999999996
    vertex 101.46349436277784 37.37201008573287 0.9999999999999998
  endloop
endfacet
facet normal -0.4999999999999978 -0.86602540378444 -0.0
  outer loop
    vertex 102.21349436277785 36.072971980056195 2.9999999999999996
    vertex 101.46349436277784 36.50598468194842 0.9999999999999998
    vertex 102.21349436277785 36.072971980056195 0.9999999999999998
  endloop
endfacet
facet normal -0.4999999999999978 -0.86602540378444 -0.0
  outer loop
    vertex 101.46349436277784 36.50598468194842 0.9999999999999998
    vertex 102.21349436277785 36.072971980056195 2.9999999999999996
    vertex 101.46349436277784 36.50598468194842 2.9999999999999996
  endloop
endfacet
facet normal 0.5000000000000027 -0.8660254037844373 0.0
  outer loop
    vertex 102.96349436277787 36.50598468194842 2.9999999999999996
    vertex 102.21349436277785 36.072971980056195 0.9999999999999998
    vertex 102.96349436277787 36.50598468194842 0.9999999999999998
  endloop
endfacet
facet normal 0.5000000000000027 -0.8660254037844373 0.0
  outer loop
    vertex 102.21349436277785 36.072971980056195 0.9999999999999998
    vertex 102.96349436277787 36.50598468194842 2.9999999999999996
    vertex 102.21349436277785 36.072971980056195 2.9999999999999996
  endloop
endfacet
endsolid limit_switch
