solid XBeltClamp
facet normal -1.1279735464421604e-15 -1.0 1.4099832412739491e-15
  outer loop
    vertex 33.08593341388725 43.91800229883774 0.0
    vertex 30.05093341388725 43.918002298837735 2.328570970696032
    vertex 23.085817750031122 43.91800229883774 0.0
  endloop
endfacet
facet normal -1.1279735464421604e-15 -1.0 1.4099832412739491e-15
  outer loop
    vertex 30.05093341388725 43.918002298837735 2.328570970696032
    vertex 33.08593341388725 43.91800229883774 0.0
    vertex 31.01593341388725 43.918002298837735 3.999999999999998
  endloop
endfacet
facet normal -1.1279735464421604e-15 -1.0 1.4099832412739491e-15
  outer loop
    vertex 31.01593341388725 43.918002298837735 3.999999999999998
    vertex 33.08593341388725 43.91800229883774 0.0
    vertex 33.08593341388725 43.91800229883774 7.9999999999999964
  endloop
endfacet
facet normal -1.1279735464421604e-15 -1.0 1.4099832412739491e-15
  outer loop
    vertex 31.01593341388725 43.918002298837735 3.999999999999998
    vertex 33.08593341388725 43.91800229883774 7.9999999999999964
    vertex 30.05093341388725 43.91800229883774 5.671429029303963
  endloop
endfacet
facet normal -1.1279735464421604e-15 -1.0 1.4099832412739491e-15
  outer loop
    vertex 30.05093341388725 43.91800229883774 5.671429029303963
    vertex 33.08593341388725 43.91800229883774 7.9999999999999964
    vertex 28.120933413887254 43.91800229883774 5.671429029303964
  endloop
endfacet
facet normal -1.1279735464421604e-15 -1.0 1.4099832412739491e-15
  outer loop
    vertex 23.085817750031122 43.91800229883774 0.0
    vertex 28.120933413887254 43.91800229883774 2.3285709706960325
    vertex 23.085817750031122 43.91800229883776 7.9999999999999964
  endloop
endfacet
facet normal -1.1279735464421604e-15 -1.0 1.4099832412739491e-15
  outer loop
    vertex 28.120933413887254 43.91800229883774 2.3285709706960325
    vertex 23.085817750031122 43.91800229883774 0.0
    vertex 30.05093341388725 43.918002298837735 2.328570970696032
  endloop
endfacet
facet normal -1.1279735464421604e-15 -1.0 1.4099832412739491e-15
  outer loop
    vertex 23.085817750031122 43.91800229883776 7.9999999999999964
    vertex 28.120933413887254 43.91800229883774 2.3285709706960325
    vertex 27.155933413887254 43.91800229883774 3.999999999999998
  endloop
endfacet
facet normal -1.1279735464421604e-15 -1.0 1.4099832412739491e-15
  outer loop
    vertex 23.085817750031122 43.91800229883776 7.9999999999999964
    vertex 27.155933413887254 43.91800229883774 3.999999999999998
    vertex 28.120933413887254 43.91800229883774 5.671429029303964
  endloop
endfacet
facet normal -1.1279735464421604e-15 -1.0 1.4099832412739491e-15
  outer loop
    vertex 23.085817750031122 43.91800229883776 7.9999999999999964
    vertex 28.120933413887254 43.91800229883774 5.671429029303964
    vertex 33.08593341388725 43.91800229883774 7.9999999999999964
  endloop
endfacet
facet normal 0.8660254037844387 -2.325869154006788e-15 -0.4999999999999998
  outer loop
    vertex 27.155933413887258 46.91800229883774 3.9999999999999942
    vertex 28.120933413887254 43.91800229883774 5.671429029303964
    vertex 27.155933413887254 43.91800229883774 3.999999999999998
  endloop
endfacet
facet normal 0.8660254037844387 -2.325869154006788e-15 -0.4999999999999998
  outer loop
    vertex 28.120933413887254 43.91800229883774 5.671429029303964
    vertex 27.155933413887258 46.91800229883774 3.9999999999999942
    vertex 28.120933413887258 46.91800229883774 5.671429029303961
  endloop
endfacet
facet normal 0.8660254037844386 -1.162934577003393e-15 0.5
  outer loop
    vertex 28.120933413887258 46.91800229883774 2.328570970696029
    vertex 27.155933413887254 43.91800229883774 3.999999999999998
    vertex 28.120933413887254 43.91800229883774 2.3285709706960325
  endloop
endfacet
facet normal 0.8660254037844386 -1.162934577003393e-15 0.5
  outer loop
    vertex 27.155933413887254 43.91800229883774 3.999999999999998
    vertex 28.120933413887258 46.91800229883774 2.328570970696029
    vertex 27.155933413887258 46.91800229883774 3.9999999999999942
  endloop
endfacet
facet normal -0.8660254037844386 2.3258691540067873e-15 0.4999999999999999
  outer loop
    vertex 31.015933413887257 46.918002298837735 3.9999999999999942
    vertex 30.05093341388725 43.918002298837735 2.328570970696032
    vertex 31.01593341388725 43.918002298837735 3.999999999999998
  endloop
endfacet
facet normal -0.8660254037844386 2.3258691540067873e-15 0.4999999999999999
  outer loop
    vertex 30.05093341388725 43.918002298837735 2.328570970696032
    vertex 31.015933413887257 46.918002298837735 3.9999999999999942
    vertex 30.050933413887257 46.918002298837735 2.3285709706960285
  endloop
endfacet
facet normal -0.8660254037844386 1.1629345770033928e-15 -0.5000000000000001
  outer loop
    vertex 30.05093341388725 43.91800229883774 5.671429029303963
    vertex 31.015933413887257 46.918002298837735 3.9999999999999942
    vertex 31.01593341388725 43.918002298837735 3.999999999999998
  endloop
endfacet
facet normal -0.8660254037844386 1.1629345770033928e-15 -0.5000000000000001
  outer loop
    vertex 31.015933413887257 46.918002298837735 3.9999999999999942
    vertex 30.05093341388725 43.91800229883774 5.671429029303963
    vertex 30.050933413887257 46.91800229883774 5.671429029303959
  endloop
endfacet
facet normal 1.8264031622719895e-16 1.162934577003394e-15 1.0
  outer loop
    vertex 30.05093341388725 43.918002298837735 2.328570970696032
    vertex 28.120933413887258 46.91800229883774 2.328570970696029
    vertex 28.120933413887254 43.91800229883774 2.3285709706960325
  endloop
endfacet
facet normal 1.8264031622719895e-16 1.162934577003394e-15 1.0
  outer loop
    vertex 28.120933413887258 46.91800229883774 2.328570970696029
    vertex 30.05093341388725 43.918002298837735 2.328570970696032
    vertex 30.050933413887257 46.918002298837735 2.3285709706960285
  endloop
endfacet
facet normal -7.305612649087822e-16 -1.162934577003393e-15 -1.0
  outer loop
    vertex 28.120933413887258 46.91800229883774 5.671429029303961
    vertex 30.05093341388725 43.91800229883774 5.671429029303963
    vertex 28.120933413887254 43.91800229883774 5.671429029303964
  endloop
endfacet
facet normal -7.305612649087822e-16 -1.162934577003393e-15 -1.0
  outer loop
    vertex 30.05093341388725 43.91800229883774 5.671429029303963
    vertex 28.120933413887258 46.91800229883774 5.671429029303961
    vertex 30.050933413887257 46.91800229883774 5.671429029303959
  endloop
endfacet
facet normal 2.4171141278981992e-15 1.0 -1.3955214924040733e-15
  outer loop
    vertex 27.335933413887254 46.91800229883774 0.9689110867544598
    vertex 28.120933413887258 46.91800229883774 2.328570970696029
    vertex 30.050933413887257 46.918002298837735 2.3285709706960285
  endloop
endfacet
facet normal 2.4171141278981992e-15 1.0 -1.3955214924040733e-15
  outer loop
    vertex 28.120933413887258 46.91800229883774 2.328570970696029
    vertex 27.335933413887254 46.91800229883774 0.9689110867544598
    vertex 25.585933413887254 46.91800229883775 3.9999999999999942
  endloop
endfacet
facet normal 2.4171141278981992e-15 1.0 -1.3955214924040733e-15
  outer loop
    vertex 28.120933413887258 46.91800229883774 2.328570970696029
    vertex 25.585933413887254 46.91800229883775 3.9999999999999942
    vertex 27.155933413887258 46.91800229883774 3.9999999999999942
  endloop
endfacet
facet normal 2.4171141278981992e-15 1.0 -1.3955214924040733e-15
  outer loop
    vertex 27.155933413887258 46.91800229883774 3.9999999999999942
    vertex 25.585933413887254 46.91800229883775 3.9999999999999942
    vertex 27.33593341388726 46.91800229883775 7.031088913245529
  endloop
endfacet
facet normal 2.4171141278981992e-15 1.0 -1.3955214924040733e-15
  outer loop
    vertex 27.155933413887258 46.91800229883774 3.9999999999999942
    vertex 27.33593341388726 46.91800229883775 7.031088913245529
    vertex 28.120933413887258 46.91800229883774 5.671429029303961
  endloop
endfacet
facet normal 2.4171141278981992e-15 1.0 -1.3955214924040733e-15
  outer loop
    vertex 30.835933413887254 46.91800229883773 0.9689110867544591
    vertex 30.050933413887257 46.918002298837735 2.3285709706960285
    vertex 32.585933413887254 46.91800229883773 3.9999999999999933
  endloop
endfacet
facet normal 2.4171141278981992e-15 1.0 -1.3955214924040733e-15
  outer loop
    vertex 30.050933413887257 46.918002298837735 2.3285709706960285
    vertex 30.835933413887254 46.91800229883773 0.9689110867544591
    vertex 27.335933413887254 46.91800229883774 0.9689110867544598
  endloop
endfacet
facet normal 2.4171141278981992e-15 1.0 -1.3955214924040733e-15
  outer loop
    vertex 32.585933413887254 46.91800229883773 3.9999999999999933
    vertex 30.050933413887257 46.918002298837735 2.3285709706960285
    vertex 31.015933413887257 46.918002298837735 3.9999999999999942
  endloop
endfacet
facet normal 2.4171141278981992e-15 1.0 -1.3955214924040733e-15
  outer loop
    vertex 32.585933413887254 46.91800229883773 3.9999999999999933
    vertex 31.015933413887257 46.918002298837735 3.9999999999999942
    vertex 30.835933413887254 46.91800229883774 7.031088913245529
  endloop
endfacet
facet normal 2.4171141278981992e-15 1.0 -1.3955214924040733e-15
  outer loop
    vertex 30.835933413887254 46.91800229883774 7.031088913245529
    vertex 31.015933413887257 46.918002298837735 3.9999999999999942
    vertex 30.050933413887257 46.91800229883774 5.671429029303959
  endloop
endfacet
facet normal 2.4171141278981992e-15 1.0 -1.3955214924040733e-15
  outer loop
    vertex 30.835933413887254 46.91800229883774 7.031088913245529
    vertex 30.050933413887257 46.91800229883774 5.671429029303959
    vertex 28.120933413887258 46.91800229883774 5.671429029303961
  endloop
endfacet
facet normal 2.4171141278981992e-15 1.0 -1.3955214924040733e-15
  outer loop
    vertex 30.835933413887254 46.91800229883774 7.031088913245529
    vertex 28.120933413887258 46.91800229883774 5.671429029303961
    vertex 27.33593341388726 46.91800229883775 7.031088913245529
  endloop
endfacet
facet normal 4.604026910282279e-16 1.0 -1.0742729457325327e-15
  outer loop
    vertex 16.085817750031126 46.91800229883776 -1.6365876907644059e-15
    vertex 23.085817750031122 46.91800229883776 1.9999999999999967
    vertex 23.085817750031122 46.91800229883774 -3.222818837197598e-15
  endloop
endfacet
facet normal 4.604026910282279e-16 1.0 -1.0742729457325327e-15
  outer loop
    vertex 23.085817750031122 46.91800229883776 1.9999999999999967
    vertex 16.085817750031126 46.91800229883776 -1.6365876907644059e-15
    vertex 16.085817750031126 46.91800229883776 7.9999999999999964
  endloop
endfacet
facet normal 4.604026910282279e-16 1.0 -1.0742729457325327e-15
  outer loop
    vertex 23.085817750031122 46.91800229883776 1.9999999999999967
    vertex 16.085817750031126 46.91800229883776 7.9999999999999964
    vertex 23.085817750031122 46.91800229883776 2.9999999999999964
  endloop
endfacet
facet normal 4.604026910282279e-16 1.0 -1.0742729457325327e-15
  outer loop
    vertex 23.085817750031122 46.91800229883776 2.9999999999999964
    vertex 16.085817750031126 46.91800229883776 7.9999999999999964
    vertex 23.085817750031122 46.91800229883776 3.999999999999996
  endloop
endfacet
facet normal 4.604026910282279e-16 1.0 -1.0742729457325327e-15
  outer loop
    vertex 23.085817750031122 46.91800229883776 3.999999999999996
    vertex 16.085817750031126 46.91800229883776 7.9999999999999964
    vertex 23.085817750031122 46.91800229883776 4.9999999999999964
  endloop
endfacet
facet normal 4.604026910282279e-16 1.0 -1.0742729457325327e-15
  outer loop
    vertex 23.085817750031122 46.91800229883776 4.9999999999999964
    vertex 16.085817750031126 46.91800229883776 7.9999999999999964
    vertex 23.085817750031122 46.91800229883776 5.9999999999999964
  endloop
endfacet
facet normal 4.604026910282279e-16 1.0 -1.0742729457325327e-15
  outer loop
    vertex 23.085817750031122 46.91800229883776 5.9999999999999964
    vertex 16.085817750031126 46.91800229883776 7.9999999999999964
    vertex 23.085817750031122 46.91800229883776 7.999999999999994
  endloop
endfacet
facet normal 4.028523546496997e-16 9.399888275159657e-16 1.0
  outer loop
    vertex 23.085817750031122 43.91800229883776 7.9999999999999964
    vertex 16.085817750031126 46.91800229883776 7.9999999999999964
    vertex 16.085817750031126 43.91800229883776 7.999999999999999
  endloop
endfacet
facet normal 4.028523546496997e-16 9.399888275159657e-16 1.0
  outer loop
    vertex 16.085817750031126 46.91800229883776 7.9999999999999964
    vertex 23.085817750031122 43.91800229883776 7.9999999999999964
    vertex 23.085817750031122 46.91800229883776 7.999999999999994
  endloop
endfacet
facet normal -2.2660444949045957e-16 -1.0742729457325326e-15 -1.0
  outer loop
    vertex 23.085817750031122 46.91800229883774 -3.222818837197598e-15
    vertex 16.085817750031126 43.91800229883776 1.5862311464331924e-15
    vertex 16.085817750031126 46.91800229883776 -1.6365876907644059e-15
  endloop
endfacet
facet normal -2.2660444949045957e-16 -1.0742729457325326e-15 -1.0
  outer loop
    vertex 16.085817750031126 43.91800229883776 1.5862311464331924e-15
    vertex 23.085817750031122 46.91800229883774 -3.222818837197598e-15
    vertex 23.085817750031122 43.91800229883774 0.0
  endloop
endfacet
facet normal -2.1775551089616994e-17 -1.1468589555793251e-15 -1.0
  outer loop
    vertex 33.085933413887254 46.91800229883773 -3.658334896278335e-15
    vertex 23.085817750031122 43.91800229883774 0.0
    vertex 23.085817750031122 46.91800229883774 -3.222818837197598e-15
  endloop
endfacet
facet normal -2.1775551089616994e-17 -1.1468589555793251e-15 -1.0
  outer loop
    vertex 23.085817750031122 43.91800229883774 0.0
    vertex 33.085933413887254 46.91800229883773 -3.658334896278335e-15
    vertex 33.08593341388725 43.91800229883774 0.0
  endloop
endfacet
facet normal 1.0 -1.933668936757989e-15 0.0
  outer loop
    vertex 33.085933413887254 46.91800229883773 -3.658334896278335e-15
    vertex 33.08593341388725 43.91800229883774 7.9999999999999964
    vertex 33.08593341388725 43.91800229883774 0.0
  endloop
endfacet
facet normal 1.0 -1.933668936757989e-15 0.0
  outer loop
    vertex 33.08593341388725 43.91800229883774 7.9999999999999964
    vertex 33.085933413887254 46.91800229883773 -3.658334896278335e-15
    vertex 33.085933413887254 46.91800229883773 7.999999999999992
  endloop
endfacet
facet normal -1.1279735464421549e-15 1.0 1.6991723904641588e-32
  outer loop
    vertex 6.085702086174955 46.918002298837756 1.5862311464331924e-15
    vertex 8.335702086174953 46.918002298837756 0.9689110867544669
    vertex 11.835702086174951 46.918002298837756 0.9689110867544644
  endloop
endfacet
facet normal -1.1279735464421549e-15 1.0 1.6991723904641588e-32
  outer loop
    vertex 8.335702086174953 46.918002298837756 0.9689110867544669
    vertex 6.085702086174955 46.918002298837756 1.5862311464331924e-15
    vertex 6.585702086174955 46.918002298837756 4.000000000000001
  endloop
endfacet
facet normal -1.1279735464421549e-15 1.0 1.6991723904641588e-32
  outer loop
    vertex 6.585702086174955 46.918002298837756 4.000000000000001
    vertex 6.085702086174955 46.918002298837756 1.5862311464331924e-15
    vertex 6.085702086174955 46.918002298837756 7.999999999999999
  endloop
endfacet
facet normal -1.1279735464421549e-15 1.0 1.6991723904641588e-32
  outer loop
    vertex 6.585702086174955 46.918002298837756 4.000000000000001
    vertex 6.085702086174955 46.918002298837756 7.999999999999999
    vertex 8.335702086174956 46.918002298837756 7.031088913245536
  endloop
endfacet
facet normal -1.1279735464421549e-15 1.0 1.6991723904641588e-32
  outer loop
    vertex 8.335702086174956 46.918002298837756 7.031088913245536
    vertex 6.085702086174955 46.918002298837756 7.999999999999999
    vertex 11.835702086174953 46.918002298837756 7.031088913245536
  endloop
endfacet
facet normal -1.1279735464421549e-15 1.0 1.6991723904641588e-32
  outer loop
    vertex 11.835702086174953 46.918002298837756 7.031088913245536
    vertex 6.085702086174955 46.918002298837756 7.999999999999999
    vertex 16.085817750031126 46.91800229883776 7.9999999999999964
  endloop
endfacet
facet normal -1.1279735464421549e-15 1.0 1.6991723904641588e-32
  outer loop
    vertex 16.085817750031126 46.91800229883776 -1.6365876907644059e-15
    vertex 11.835702086174951 46.918002298837756 0.9689110867544644
    vertex 16.085817750031126 46.91800229883776 7.9999999999999964
  endloop
endfacet
facet normal -1.1279735464421549e-15 1.0 1.6991723904641588e-32
  outer loop
    vertex 11.835702086174951 46.918002298837756 0.9689110867544644
    vertex 16.085817750031126 46.91800229883776 -1.6365876907644059e-15
    vertex 6.085702086174955 46.918002298837756 1.5862311464331924e-15
  endloop
endfacet
facet normal -1.1279735464421549e-15 1.0 1.6991723904641588e-32
  outer loop
    vertex 16.085817750031126 46.91800229883776 7.9999999999999964
    vertex 11.835702086174951 46.918002298837756 0.9689110867544644
    vertex 13.585702086174955 46.918002298837756 4.0
  endloop
endfacet
facet normal -1.1279735464421549e-15 1.0 1.6991723904641588e-32
  outer loop
    vertex 16.085817750031126 46.91800229883776 7.9999999999999964
    vertex 13.585702086174955 46.918002298837756 4.0
    vertex 11.835702086174953 46.918002298837756 7.031088913245536
  endloop
endfacet
facet normal -1.0 -5.639867732210771e-16 0.0
  outer loop
    vertex 6.085702086174955 46.918002298837756 7.999999999999999
    vertex 6.085702086174955 43.918002298837756 1.5862311464331924e-15
    vertex 6.085702086174955 43.918002298837756 7.999999999999999
  endloop
endfacet
facet normal -1.0 -5.639867732210771e-16 0.0
  outer loop
    vertex 6.085702086174955 43.918002298837756 1.5862311464331924e-15
    vertex 6.085702086174955 46.918002298837756 7.999999999999999
    vertex 6.085702086174955 46.918002298837756 1.5862311464331924e-15
  endloop
endfacet
facet normal 1.40996693305269e-16 4.699944137579837e-16 1.0
  outer loop
    vertex 16.085817750031126 43.91800229883776 7.999999999999999
    vertex 6.085702086174955 46.918002298837756 7.999999999999999
    vertex 6.085702086174955 43.918002298837756 7.999999999999999
  endloop
endfacet
facet normal 1.40996693305269e-16 4.699944137579837e-16 1.0
  outer loop
    vertex 6.085702086174955 46.918002298837756 7.999999999999999
    vertex 16.085817750031126 43.91800229883776 7.999999999999999
    vertex 16.085817750031126 46.91800229883776 7.9999999999999964
  endloop
endfacet
facet normal -1.611390780631646e-16 -5.371364728662674e-16 -1.0
  outer loop
    vertex 16.085817750031126 46.91800229883776 -1.6365876907644059e-15
    vertex 6.085702086174955 43.918002298837756 1.5862311464331924e-15
    vertex 6.085702086174955 46.918002298837756 1.5862311464331924e-15
  endloop
endfacet
facet normal -1.611390780631646e-16 -5.371364728662674e-16 -1.0
  outer loop
    vertex 6.085702086174955 43.918002298837756 1.5862311464331924e-15
    vertex 16.085817750031126 46.91800229883776 -1.6365876907644059e-15
    vertex 16.085817750031126 43.91800229883776 1.5862311464331924e-15
  endloop
endfacet
facet normal 3.6256292564212274e-15 1.0 -1.2194449654261184e-15
  outer loop
    vertex 23.085817750031122 46.91800229883774 -3.222818837197598e-15
    vertex 27.335933413887254 46.91800229883774 0.9689110867544598
    vertex 30.835933413887254 46.91800229883773 0.9689110867544591
  endloop
endfacet
facet normal 3.6256292564212274e-15 1.0 -1.2194449654261184e-15
  outer loop
    vertex 27.335933413887254 46.91800229883774 0.9689110867544598
    vertex 23.085817750031122 46.91800229883774 -3.222818837197598e-15
    vertex 23.085817750031122 46.91800229883776 1.9999999999999967
  endloop
endfacet
facet normal 3.6256292564212274e-15 1.0 -1.2194449654261184e-15
  outer loop
    vertex 27.335933413887254 46.91800229883774 0.9689110867544598
    vertex 23.085817750031122 46.91800229883776 1.9999999999999967
    vertex 25.585933413887254 46.91800229883775 3.9999999999999942
  endloop
endfacet
facet normal 3.6256292564212274e-15 1.0 -1.2194449654261184e-15
  outer loop
    vertex 25.585933413887254 46.91800229883775 3.9999999999999942
    vertex 23.085817750031122 46.91800229883776 1.9999999999999967
    vertex 23.085817750031122 46.91800229883776 2.9999999999999964
  endloop
endfacet
facet normal 3.6256292564212274e-15 1.0 -1.2194449654261184e-15
  outer loop
    vertex 25.585933413887254 46.91800229883775 3.9999999999999942
    vertex 23.085817750031122 46.91800229883776 2.9999999999999964
    vertex 23.085817750031122 46.91800229883776 3.999999999999996
  endloop
endfacet
facet normal 3.6256292564212274e-15 1.0 -1.2194449654261184e-15
  outer loop
    vertex 25.585933413887254 46.91800229883775 3.9999999999999942
    vertex 23.085817750031122 46.91800229883776 3.999999999999996
    vertex 27.33593341388726 46.91800229883775 7.031088913245529
  endloop
endfacet
facet normal 3.6256292564212274e-15 1.0 -1.2194449654261184e-15
  outer loop
    vertex 27.33593341388726 46.91800229883775 7.031088913245529
    vertex 23.085817750031122 46.91800229883776 3.999999999999996
    vertex 23.085817750031122 46.91800229883776 4.9999999999999964
  endloop
endfacet
facet normal 3.6256292564212274e-15 1.0 -1.2194449654261184e-15
  outer loop
    vertex 27.33593341388726 46.91800229883775 7.031088913245529
    vertex 23.085817750031122 46.91800229883776 4.9999999999999964
    vertex 23.085817750031122 46.91800229883776 5.9999999999999964
  endloop
endfacet
facet normal 3.6256292564212274e-15 1.0 -1.2194449654261184e-15
  outer loop
    vertex 27.33593341388726 46.91800229883775 7.031088913245529
    vertex 23.085817750031122 46.91800229883776 5.9999999999999964
    vertex 23.085817750031122 46.91800229883776 7.999999999999994
  endloop
endfacet
facet normal 3.6256292564212274e-15 1.0 -1.2194449654261184e-15
  outer loop
    vertex 27.33593341388726 46.91800229883775 7.031088913245529
    vertex 23.085817750031122 46.91800229883776 7.999999999999994
    vertex 30.835933413887254 46.91800229883774 7.031088913245529
  endloop
endfacet
facet normal 3.6256292564212274e-15 1.0 -1.2194449654261184e-15
  outer loop
    vertex 30.835933413887254 46.91800229883774 7.031088913245529
    vertex 23.085817750031122 46.91800229883776 7.999999999999994
    vertex 33.085933413887254 46.91800229883773 7.999999999999992
  endloop
endfacet
facet normal 3.6256292564212274e-15 1.0 -1.2194449654261184e-15
  outer loop
    vertex 33.085933413887254 46.91800229883773 -3.658334896278335e-15
    vertex 32.585933413887254 46.91800229883773 3.9999999999999933
    vertex 33.085933413887254 46.91800229883773 7.999999999999992
  endloop
endfacet
facet normal 3.6256292564212274e-15 1.0 -1.2194449654261184e-15
  outer loop
    vertex 32.585933413887254 46.91800229883773 3.9999999999999933
    vertex 33.085933413887254 46.91800229883773 -3.658334896278335e-15
    vertex 30.835933413887254 46.91800229883773 0.9689110867544591
  endloop
endfacet
facet normal 3.6256292564212274e-15 1.0 -1.2194449654261184e-15
  outer loop
    vertex 30.835933413887254 46.91800229883773 0.9689110867544591
    vertex 33.085933413887254 46.91800229883773 -3.658334896278335e-15
    vertex 23.085817750031122 46.91800229883774 -3.222818837197598e-15
  endloop
endfacet
facet normal 3.6256292564212274e-15 1.0 -1.2194449654261184e-15
  outer loop
    vertex 33.085933413887254 46.91800229883773 7.999999999999992
    vertex 32.585933413887254 46.91800229883773 3.9999999999999933
    vertex 30.835933413887254 46.91800229883774 7.031088913245529
  endloop
endfacet
facet normal 7.049834665263867e-17 1.1749860343949598e-15 1.0
  outer loop
    vertex 33.08593341388725 43.91800229883774 7.9999999999999964
    vertex 23.085817750031122 46.91800229883776 7.999999999999994
    vertex 23.085817750031122 43.91800229883776 7.9999999999999964
  endloop
endfacet
facet normal 7.049834665263867e-17 1.1749860343949598e-15 1.0
  outer loop
    vertex 23.085817750031122 46.91800229883776 7.999999999999994
    vertex 33.08593341388725 43.91800229883774 7.9999999999999964
    vertex 33.085933413887254 46.91800229883773 7.999999999999992
  endloop
endfacet
facet normal 5.639867732210771e-16 -1.0 -1.2452852680578366e-31
  outer loop
    vertex 16.085817750031126 43.91800229883776 1.5862311464331924e-15
    vertex 11.050702086174953 43.918002298837756 2.328570970696034
    vertex 6.085702086174955 43.918002298837756 1.5862311464331924e-15
  endloop
endfacet
facet normal 5.639867732210771e-16 -1.0 -1.2452852680578366e-31
  outer loop
    vertex 11.050702086174953 43.918002298837756 2.328570970696034
    vertex 16.085817750031126 43.91800229883776 1.5862311464331924e-15
    vertex 16.085817750031126 43.91800229883776 7.999999999999999
  endloop
endfacet
facet normal 5.639867732210771e-16 -1.0 -1.2452852680578366e-31
  outer loop
    vertex 11.050702086174953 43.918002298837756 2.328570970696034
    vertex 16.085817750031126 43.91800229883776 7.999999999999999
    vertex 12.015702086174954 43.918002298837756 4.0
  endloop
endfacet
facet normal 5.639867732210771e-16 -1.0 -1.2452852680578366e-31
  outer loop
    vertex 12.015702086174954 43.918002298837756 4.0
    vertex 16.085817750031126 43.91800229883776 7.999999999999999
    vertex 11.050702086174955 43.918002298837756 5.671429029303966
  endloop
endfacet
facet normal 5.639867732210771e-16 -1.0 -1.2452852680578366e-31
  outer loop
    vertex 11.050702086174955 43.918002298837756 5.671429029303966
    vertex 16.085817750031126 43.91800229883776 7.999999999999999
    vertex 9.120702086174957 43.918002298837756 5.671429029303968
  endloop
endfacet
facet normal 5.639867732210771e-16 -1.0 -1.2452852680578366e-31
  outer loop
    vertex 6.085702086174955 43.918002298837756 1.5862311464331924e-15
    vertex 8.155702086174953 43.918002298837756 4.0
    vertex 6.085702086174955 43.918002298837756 7.999999999999999
  endloop
endfacet
facet normal 5.639867732210771e-16 -1.0 -1.2452852680578366e-31
  outer loop
    vertex 8.155702086174953 43.918002298837756 4.0
    vertex 6.085702086174955 43.918002298837756 1.5862311464331924e-15
    vertex 9.120702086174953 43.918002298837756 2.328570970696034
  endloop
endfacet
facet normal 5.639867732210771e-16 -1.0 -1.2452852680578366e-31
  outer loop
    vertex 9.120702086174953 43.918002298837756 2.328570970696034
    vertex 6.085702086174955 43.918002298837756 1.5862311464331924e-15
    vertex 11.050702086174953 43.918002298837756 2.328570970696034
  endloop
endfacet
facet normal 5.639867732210771e-16 -1.0 -1.2452852680578366e-31
  outer loop
    vertex 6.085702086174955 43.918002298837756 7.999999999999999
    vertex 8.155702086174953 43.918002298837756 4.0
    vertex 9.120702086174957 43.918002298837756 5.671429029303968
  endloop
endfacet
facet normal 5.639867732210771e-16 -1.0 -1.2452852680578366e-31
  outer loop
    vertex 6.085702086174955 43.918002298837756 7.999999999999999
    vertex 9.120702086174957 43.918002298837756 5.671429029303968
    vertex 16.085817750031126 43.91800229883776 7.999999999999999
  endloop
endfacet
facet normal -1.6114094185987986e-15 -1.0 1.2194449654261177e-15
  outer loop
    vertex 23.085817750031122 43.91800229883776 7.9999999999999964
    vertex 16.085817750031126 43.91800229883776 1.5862311464331924e-15
    vertex 23.085817750031122 43.91800229883774 0.0
  endloop
endfacet
facet normal -1.6114094185987986e-15 -1.0 1.2194449654261177e-15
  outer loop
    vertex 16.085817750031126 43.91800229883776 1.5862311464331924e-15
    vertex 23.085817750031122 43.91800229883776 7.9999999999999964
    vertex 16.085817750031126 43.91800229883776 7.999999999999999
  endloop
endfacet
facet normal 0.8660254037844387 0.0 0.4999999999999998
  outer loop
    vertex 9.120702086174953 46.918002298837756 2.328570970696034
    vertex 8.155702086174953 43.918002298837756 4.0
    vertex 9.120702086174953 43.918002298837756 2.328570970696034
  endloop
endfacet
facet normal 0.8660254037844387 0.0 0.4999999999999998
  outer loop
    vertex 8.155702086174953 43.918002298837756 4.0
    vertex 9.120702086174953 46.918002298837756 2.328570970696034
    vertex 8.155702086174953 46.918002298837756 4.0
  endloop
endfacet
facet normal -0.8660254037844385 0.0 0.5000000000000003
  outer loop
    vertex 12.015702086174954 46.918002298837756 4.0
    vertex 11.050702086174953 43.918002298837756 2.328570970696034
    vertex 12.015702086174954 43.918002298837756 4.0
  endloop
endfacet
facet normal -0.8660254037844385 0.0 0.5000000000000003
  outer loop
    vertex 11.050702086174953 43.918002298837756 2.328570970696034
    vertex 12.015702086174954 46.918002298837756 4.0
    vertex 11.050702086174953 46.918002298837756 2.328570970696034
  endloop
endfacet
facet normal -0.8660254037844386 0.0 -0.4999999999999999
  outer loop
    vertex 11.050702086174955 46.918002298837756 5.671429029303966
    vertex 12.015702086174954 43.918002298837756 4.0
    vertex 11.050702086174955 43.918002298837756 5.671429029303966
  endloop
endfacet
facet normal -0.8660254037844386 0.0 -0.4999999999999999
  outer loop
    vertex 12.015702086174954 43.918002298837756 4.0
    vertex 11.050702086174955 46.918002298837756 5.671429029303966
    vertex 12.015702086174954 46.918002298837756 4.0
  endloop
endfacet
facet normal 0.0 1.0 0.0
  outer loop
    vertex 6.585702086174955 46.918002298837756 4.000000000000001
    vertex 9.120702086174953 46.918002298837756 2.328570970696034
    vertex 8.335702086174953 46.918002298837756 0.9689110867544669
  endloop
endfacet
facet normal 0.0 1.0 0.0
  outer loop
    vertex 9.120702086174953 46.918002298837756 2.328570970696034
    vertex 6.585702086174955 46.918002298837756 4.000000000000001
    vertex 8.155702086174953 46.918002298837756 4.0
  endloop
endfacet
facet normal 0.0 1.0 0.0
  outer loop
    vertex 8.155702086174953 46.918002298837756 4.0
    vertex 6.585702086174955 46.918002298837756 4.000000000000001
    vertex 9.120702086174957 46.918002298837756 5.671429029303968
  endloop
endfacet
facet normal 0.0 1.0 0.0
  outer loop
    vertex 9.120702086174957 46.918002298837756 5.671429029303968
    vertex 6.585702086174955 46.918002298837756 4.000000000000001
    vertex 8.335702086174956 46.918002298837756 7.031088913245536
  endloop
endfacet
facet normal 0.0 1.0 0.0
  outer loop
    vertex 11.835702086174951 46.918002298837756 0.9689110867544644
    vertex 11.050702086174953 46.918002298837756 2.328570970696034
    vertex 13.585702086174955 46.918002298837756 4.0
  endloop
endfacet
facet normal 0.0 1.0 0.0
  outer loop
    vertex 11.050702086174953 46.918002298837756 2.328570970696034
    vertex 11.835702086174951 46.918002298837756 0.9689110867544644
    vertex 8.335702086174953 46.918002298837756 0.9689110867544669
  endloop
endfacet
facet normal 0.0 1.0 0.0
  outer loop
    vertex 11.050702086174953 46.918002298837756 2.328570970696034
    vertex 8.335702086174953 46.918002298837756 0.9689110867544669
    vertex 9.120702086174953 46.918002298837756 2.328570970696034
  endloop
endfacet
facet normal 0.0 1.0 0.0
  outer loop
    vertex 13.585702086174955 46.918002298837756 4.0
    vertex 11.050702086174953 46.918002298837756 2.328570970696034
    vertex 12.015702086174954 46.918002298837756 4.0
  endloop
endfacet
facet normal 0.0 1.0 0.0
  outer loop
    vertex 13.585702086174955 46.918002298837756 4.0
    vertex 12.015702086174954 46.918002298837756 4.0
    vertex 11.050702086174955 46.918002298837756 5.671429029303966
  endloop
endfacet
facet normal 0.0 1.0 0.0
  outer loop
    vertex 13.585702086174955 46.918002298837756 4.0
    vertex 11.050702086174955 46.918002298837756 5.671429029303966
    vertex 11.835702086174953 46.918002298837756 7.031088913245536
  endloop
endfacet
facet normal 0.0 1.0 0.0
  outer loop
    vertex 11.835702086174953 46.918002298837756 7.031088913245536
    vertex 11.050702086174955 46.918002298837756 5.671429029303966
    vertex 9.120702086174957 46.918002298837756 5.671429029303968
  endloop
endfacet
facet normal 0.0 1.0 0.0
  outer loop
    vertex 11.835702086174953 46.918002298837756 7.031088913245536
    vertex 9.120702086174957 46.918002298837756 5.671429029303968
    vertex 8.335702086174956 46.918002298837756 7.031088913245536
  endloop
endfacet
facet normal -7.305612649087822e-16 0.0 -1.0
  outer loop
    vertex 11.050702086174955 46.918002298837756 5.671429029303966
    vertex 9.120702086174957 43.918002298837756 5.671429029303968
    vertex 9.120702086174957 46.918002298837756 5.671429029303968
  endloop
endfacet
facet normal -7.305612649087822e-16 0.0 -1.0
  outer loop
    vertex 9.120702086174957 43.918002298837756 5.671429029303968
    vertex 11.050702086174955 46.918002298837756 5.671429029303966
    vertex 11.050702086174955 43.918002298837756 5.671429029303966
  endloop
endfacet
facet normal 0.0 0.0 1.0
  outer loop
    vertex 11.050702086174953 43.918002298837756 2.328570970696034
    vertex 9.120702086174953 46.918002298837756 2.328570970696034
    vertex 9.120702086174953 43.918002298837756 2.328570970696034
  endloop
endfacet
facet normal 0.0 0.0 1.0
  outer loop
    vertex 9.120702086174953 46.918002298837756 2.328570970696034
    vertex 11.050702086174953 43.918002298837756 2.328570970696034
    vertex 11.050702086174953 46.918002298837756 2.328570970696034
  endloop
endfacet
facet normal 0.8660254037844382 0.0 -0.5000000000000007
  outer loop
    vertex 8.155702086174953 46.918002298837756 4.0
    vertex 9.120702086174957 43.918002298837756 5.671429029303968
    vertex 8.155702086174953 43.918002298837756 4.0
  endloop
endfacet
facet normal 0.8660254037844382 0.0 -0.5000000000000007
  outer loop
    vertex 9.120702086174957 43.918002298837756 5.671429029303968
    vertex 8.155702086174953 46.918002298837756 4.0
    vertex 9.120702086174957 46.918002298837756 5.671429029303968
  endloop
endfacet
endsolid XBeltClamp
