solid XBeltClamp
facet normal 1.237369929735047e-14 1.0 -7.687364625114377e-46
  outer loop
    vertex 19.08908065260568 21.41184243522839 9.076999999999993
    vertex 20.91228091941787 21.41184243522837 1.076999999999991
    vertex 19.08908065260568 21.41184243522839 1.076999999999991
  endloop
endfacet
facet normal 1.237369929735047e-14 1.0 -7.687364625114377e-46
  outer loop
    vertex 20.91228091941787 21.41184243522837 1.076999999999991
    vertex 19.08908065260568 21.41184243522839 9.076999999999993
    vertex 20.91228091941787 21.41184243522837 9.076999999999993
  endloop
endfacet
facet normal 0.5877852522924658 0.8090169943749528 3.6517127554607404e-32
  outer loop
    vertex 17.614080652605683 22.483492664036277 9.076999999999993
    vertex 19.08908065260568 21.41184243522839 1.076999999999991
    vertex 17.614080652605683 22.483492664036277 1.076999999999991
  endloop
endfacet
facet normal 0.5877852522924658 0.8090169943749528 3.6517127554607404e-32
  outer loop
    vertex 19.08908065260568 21.41184243522839 1.076999999999991
    vertex 17.614080652605683 22.483492664036277 9.076999999999993
    vertex 19.08908065260568 21.41184243522839 9.076999999999993
  endloop
endfacet
facet normal -1.2373699297350472e-14 -1.0 -6.212664814604268e-32
  outer loop
    vertex 20.912280919417874 27.023075881369774 9.076999999999993
    vertex 19.089080652605684 27.023075881369795 1.076999999999991
    vertex 20.912280919417874 27.023075881369774 1.076999999999991
  endloop
endfacet
facet normal -1.2373699297350472e-14 -1.0 -6.212664814604268e-32
  outer loop
    vertex 19.089080652605684 27.023075881369795 1.076999999999991
    vertex 20.912280919417874 27.023075881369774 9.076999999999993
    vertex 19.089080652605684 27.023075881369795 9.076999999999993
  endloop
endfacet
facet normal 0.5877852522924724 -0.8090169943749479 0.0
  outer loop
    vertex 19.089080652605684 27.023075881369795 9.076999999999993
    vertex 17.614080652605683 25.951425652561888 1.076999999999991
    vertex 19.089080652605684 27.023075881369795 1.076999999999991
  endloop
endfacet
facet normal 0.5877852522924724 -0.8090169943749479 0.0
  outer loop
    vertex 17.614080652605683 25.951425652561888 1.076999999999991
    vertex 19.089080652605684 27.023075881369795 9.076999999999993
    vertex 17.614080652605683 25.951425652561888 9.076999999999993
  endloop
endfacet
facet normal -1.0 0.0 0.0
  outer loop
    vertex 23.500680786011802 30.80787811708574 3.0769999999999893
    vertex 23.500680786011802 30.10787811708574 2.076999999999991
    vertex 23.500680786011802 30.10787811708574 3.0769999999999906
  endloop
endfacet
facet normal -1.0 0.0 0.0
  outer loop
    vertex 23.500680786011802 30.10787811708574 2.076999999999991
    vertex 23.500680786011802 30.80787811708574 3.0769999999999893
    vertex 23.500680786011802 30.807878117085714 1.0769999999999895
  endloop
endfacet
facet normal -1.0 0.0 0.0
  outer loop
    vertex 23.500680786011802 30.10787811708574 2.076999999999991
    vertex 23.500680786011802 29.447878117085736 1.076999999999991
    vertex 23.500680786011802 29.447878117085736 2.076999999999991
  endloop
endfacet
facet normal -1.0 0.0 0.0
  outer loop
    vertex 23.500680786011802 29.447878117085736 1.076999999999991
    vertex 23.500680786011802 30.10787811708574 2.076999999999991
    vertex 23.500680786011802 30.807878117085714 1.0769999999999895
  endloop
endfacet
facet normal 0.9510565162951542 0.3090169943749458 -2.0789021750979635e-18
  outer loop
    vertex 17.050680786011778 24.217459158299082 1.076999999999991
    vertex 17.614080652605683 22.483492664036277 9.076999999999993
    vertex 17.614080652605683 22.483492664036277 1.076999999999991
  endloop
endfacet
facet normal 0.9510565162951542 0.3090169943749458 -2.0789021750979635e-18
  outer loop
    vertex 17.614080652605683 22.483492664036277 9.076999999999993
    vertex 17.050680786011778 24.217459158299082 1.076999999999991
    vertex 17.050680786011778 24.217459158299082 9.076999999999993
  endloop
endfacet
facet normal 0.9510565162951542 -0.3090169943749457 -2.078902175097964e-18
  outer loop
    vertex 17.614080652605683 25.951425652561888 1.076999999999991
    vertex 17.050680786011778 24.217459158299082 9.076999999999993
    vertex 17.050680786011778 24.217459158299082 1.076999999999991
  endloop
endfacet
facet normal 0.9510565162951542 -0.3090169943749457 -2.078902175097964e-18
  outer loop
    vertex 17.050680786011778 24.217459158299082 9.076999999999993
    vertex 17.614080652605683 25.951425652561888 1.076999999999991
    vertex 17.614080652605683 25.951425652561888 9.076999999999993
  endloop
endfacet
facet normal -0.5877852522924655 -0.809016994374953 -5.477569133191106e-32
  outer loop
    vertex 22.387280919417872 25.951425652561888 9.076999999999993
    vertex 20.912280919417874 27.023075881369774 1.076999999999991
    vertex 22.387280919417872 25.951425652561888 1.076999999999991
  endloop
endfacet
facet normal -0.5877852522924655 -0.809016994374953 -5.477569133191106e-32
  outer loop
    vertex 20.912280919417874 27.023075881369774 1.076999999999991
    vertex 22.387280919417872 25.951425652561888 9.076999999999993
    vertex 20.912280919417874 27.023075881369774 9.076999999999993
  endloop
endfacet
facet normal -0.9510565162951542 -0.3090169943749457 0.0
  outer loop
    vertex 22.387280919417872 25.951425652561888 9.076999999999993
    vertex 22.950680786011777 24.217459158299082 1.076999999999991
    vertex 22.950680786011777 24.217459158299082 9.076999999999993
  endloop
endfacet
facet normal -0.9510565162951542 -0.3090169943749457 0.0
  outer loop
    vertex 22.950680786011777 24.217459158299082 1.076999999999991
    vertex 22.387280919417872 25.951425652561888 9.076999999999993
    vertex 22.387280919417872 25.951425652561888 1.076999999999991
  endloop
endfacet
facet normal -0.9510565162951542 0.3090169943749457 0.0
  outer loop
    vertex 22.950680786011777 24.217459158299082 9.076999999999993
    vertex 22.387280919417872 22.483492664036277 1.076999999999991
    vertex 22.387280919417872 22.483492664036277 9.076999999999993
  endloop
endfacet
facet normal -0.9510565162951542 0.3090169943749457 0.0
  outer loop
    vertex 22.387280919417872 22.483492664036277 1.076999999999991
    vertex 22.950680786011777 24.217459158299082 9.076999999999993
    vertex 22.950680786011777 24.217459158299082 1.076999999999991
  endloop
endfacet
facet normal 0.0 1.0 0.0
  outer loop
    vertex 16.500680786011802 30.10787811708574 3.0769999999999906
    vertex 23.500680786011802 30.10787811708574 2.076999999999991
    vertex 16.500680786011802 30.10787811708574 2.076999999999991
  endloop
endfacet
facet normal 0.0 1.0 0.0
  outer loop
    vertex 23.500680786011802 30.10787811708574 2.076999999999991
    vertex 16.500680786011802 30.10787811708574 3.0769999999999906
    vertex 23.500680786011802 30.10787811708574 3.0769999999999906
  endloop
endfacet
facet normal 0.0 1.0 0.0
  outer loop
    vertex 16.500680786011802 30.10787811708574 9.07699999999999
    vertex 23.500680786011802 30.10787811708574 8.076999999999991
    vertex 16.500680786011802 30.10787811708574 8.076999999999991
  endloop
endfacet
facet normal 0.0 1.0 0.0
  outer loop
    vertex 23.500680786011802 30.10787811708574 8.076999999999991
    vertex 16.500680786011802 30.10787811708574 9.07699999999999
    vertex 23.500680786011802 30.10787811708574 9.07699999999999
  endloop
endfacet
facet normal 0.0 1.0 0.0
  outer loop
    vertex 16.500680786011802 29.447878117085736 6.07699999999999
    vertex 23.500680786011802 29.447878117085736 5.076999999999991
    vertex 16.500680786011802 29.447878117085736 5.076999999999991
  endloop
endfacet
facet normal 0.0 1.0 0.0
  outer loop
    vertex 23.500680786011802 29.447878117085736 5.076999999999991
    vertex 16.500680786011802 29.447878117085736 6.07699999999999
    vertex 23.500680786011802 29.447878117085736 6.07699999999999
  endloop
endfacet
facet normal -0.0 -0.0 -1.0
  outer loop
    vertex 23.500680786011802 30.10787811708574 8.076999999999991
    vertex 16.500680786011802 29.447878117085736 8.076999999999991
    vertex 16.500680786011802 30.10787811708574 8.076999999999991
  endloop
endfacet
facet normal -0.0 -0.0 -1.0
  outer loop
    vertex 16.500680786011802 29.447878117085736 8.076999999999991
    vertex 23.500680786011802 30.10787811708574 8.076999999999991
    vertex 23.500680786011802 29.447878117085736 8.076999999999991
  endloop
endfacet
facet normal 1.0 0.0 0.0
  outer loop
    vertex 16.500680786011802 30.10787811708574 7.07699999999999
    vertex 16.500680786011802 29.447878117085736 8.076999999999991
    vertex 16.500680786011802 29.447878117085736 7.07699999999999
  endloop
endfacet
facet normal 1.0 0.0 0.0
  outer loop
    vertex 16.500680786011802 29.447878117085736 8.076999999999991
    vertex 16.500680786011802 30.10787811708574 7.07699999999999
    vertex 16.500680786011802 30.10787811708574 8.076999999999991
  endloop
endfacet
facet normal 1.0 0.0 0.0
  outer loop
    vertex 16.500680786011802 30.10787811708574 8.076999999999991
    vertex 16.500680786011802 30.10787811708574 7.07699999999999
    vertex 16.500680786011802 30.80787811708574 7.07699999999999
  endloop
endfacet
facet normal 1.0 0.0 0.0
  outer loop
    vertex 16.500680786011802 30.10787811708574 8.076999999999991
    vertex 16.500680786011802 30.80787811708574 7.07699999999999
    vertex 16.500680786011802 30.10787811708574 9.07699999999999
  endloop
endfacet
facet normal 1.0 0.0 0.0
  outer loop
    vertex 16.500680786011802 30.10787811708574 9.07699999999999
    vertex 16.500680786011802 30.80787811708574 7.07699999999999
    vertex 16.500680786011802 30.80787811708574 9.07699999999999
  endloop
endfacet
facet normal 0.0 0.0 -1.0
  outer loop
    vertex 23.486680786011796 30.10787811708574 4.076999999999991
    vertex 16.500680786011802 29.447878117085736 4.076999999999991
    vertex 16.500680786011802 30.10787811708574 4.076999999999991
  endloop
endfacet
facet normal 0.0 0.0 -1.0
  outer loop
    vertex 16.500680786011802 29.447878117085736 4.076999999999991
    vertex 23.486680786011796 30.10787811708574 4.076999999999991
    vertex 23.486680786011796 29.447878117085736 4.076999999999991
  endloop
endfacet
facet normal 0.0 0.0 1.0
  outer loop
    vertex 23.486680786011796 29.447878117085736 3.0769999999999906
    vertex 16.500680786011802 30.10787811708574 3.0769999999999906
    vertex 16.500680786011802 29.447878117085736 3.0769999999999906
  endloop
endfacet
facet normal 0.0 0.0 1.0
  outer loop
    vertex 16.500680786011802 30.10787811708574 3.0769999999999906
    vertex 23.486680786011796 29.447878117085736 3.0769999999999906
    vertex 23.500680786011802 30.10787811708574 3.0769999999999906
  endloop
endfacet
facet normal 0.0 0.0 1.0
  outer loop
    vertex 23.500680786011802 29.447878117085736 7.07699999999999
    vertex 16.500680786011802 30.10787811708574 7.07699999999999
    vertex 16.500680786011802 29.447878117085736 7.07699999999999
  endloop
endfacet
facet normal 0.0 0.0 1.0
  outer loop
    vertex 16.500680786011802 30.10787811708574 7.07699999999999
    vertex 23.500680786011802 29.447878117085736 7.07699999999999
    vertex 23.500680786011802 30.10787811708574 7.07699999999999
  endloop
endfacet
facet normal 0.0 1.0 0.0
  outer loop
    vertex 6.50056512215563 30.80787811708573 1.076999999999991
    vertex 8.750565122155631 30.80787811708573 2.0459110867544563
    vertex 16.500680786011802 30.80787811708574 1.076999999999991
  endloop
endfacet
facet normal 0.0 1.0 0.0
  outer loop
    vertex 8.750565122155631 30.80787811708573 2.0459110867544563
    vertex 6.50056512215563 30.80787811708573 1.076999999999991
    vertex 7.0005651221556295 30.80787811708573 5.076999999999991
  endloop
endfacet
facet normal 0.0 1.0 0.0
  outer loop
    vertex 7.0005651221556295 30.80787811708573 5.076999999999991
    vertex 6.50056512215563 30.80787811708573 1.076999999999991
    vertex 6.50056512215563 30.80787811708573 9.07699999999999
  endloop
endfacet
facet normal 0.0 1.0 0.0
  outer loop
    vertex 16.500680786011802 30.80787811708574 1.076999999999991
    vertex 8.750565122155631 30.80787811708573 2.0459110867544563
    vertex 12.250565122155626 30.80787811708573 2.045911086754454
  endloop
endfacet
facet normal 0.0 1.0 0.0
  outer loop
    vertex 7.0005651221556295 30.80787811708573 5.076999999999991
    vertex 6.50056512215563 30.80787811708573 9.07699999999999
    vertex 8.750565122155631 30.80787811708573 8.108088913245526
  endloop
endfacet
facet normal 0.0 1.0 0.0
  outer loop
    vertex 8.750565122155631 30.80787811708573 8.108088913245526
    vertex 6.50056512215563 30.80787811708573 9.07699999999999
    vertex 12.250565122155631 30.80787811708573 8.108088913245526
  endloop
endfacet
facet normal 0.0 1.0 0.0
  outer loop
    vertex 12.250565122155626 30.80787811708573 2.045911086754454
    vertex 16.500680786011802 30.80787811708574 3.0769999999999906
    vertex 16.500680786011802 30.80787811708574 1.076999999999991
  endloop
endfacet
facet normal 0.0 1.0 0.0
  outer loop
    vertex 16.500680786011802 30.80787811708574 3.0769999999999906
    vertex 12.250565122155626 30.80787811708573 2.045911086754454
    vertex 14.000565122155631 30.80787811708573 5.076999999999989
  endloop
endfacet
facet normal 0.0 1.0 0.0
  outer loop
    vertex 16.500680786011802 30.80787811708574 3.0769999999999906
    vertex 14.000565122155631 30.80787811708573 5.076999999999989
    vertex 16.500680786011802 30.80787811708574 4.076999999999991
  endloop
endfacet
facet normal 0.0 1.0 0.0
  outer loop
    vertex 16.500680786011802 30.80787811708574 4.076999999999991
    vertex 14.000565122155631 30.80787811708573 5.076999999999989
    vertex 16.500680786011802 30.80787811708574 5.076999999999991
  endloop
endfacet
facet normal 0.0 1.0 0.0
  outer loop
    vertex 16.500680786011802 30.80787811708574 5.076999999999991
    vertex 14.000565122155631 30.80787811708573 5.076999999999989
    vertex 12.250565122155631 30.80787811708573 8.108088913245526
  endloop
endfacet
facet normal 0.0 1.0 0.0
  outer loop
    vertex 16.500680786011802 30.80787811708574 5.076999999999991
    vertex 12.250565122155631 30.80787811708573 8.108088913245526
    vertex 16.500680786011802 30.80787811708574 6.07699999999999
  endloop
endfacet
facet normal 0.0 1.0 0.0
  outer loop
    vertex 16.500680786011802 30.80787811708574 6.07699999999999
    vertex 12.250565122155631 30.80787811708573 8.108088913245526
    vertex 16.500680786011802 30.80787811708574 7.07699999999999
  endloop
endfacet
facet normal 0.0 1.0 0.0
  outer loop
    vertex 16.500680786011802 30.80787811708574 7.07699999999999
    vertex 12.250565122155631 30.80787811708573 8.108088913245526
    vertex 16.500680786011802 30.80787811708574 9.07699999999999
  endloop
endfacet
facet normal 0.0 1.0 0.0
  outer loop
    vertex 16.500680786011802 30.80787811708574 9.07699999999999
    vertex 12.250565122155631 30.80787811708573 8.108088913245526
    vertex 6.50056512215563 30.80787811708573 9.07699999999999
  endloop
endfacet
facet normal 0.0 0.0 1.0
  outer loop
    vertex 23.500680786011802 29.447878117085736 5.076999999999991
    vertex 16.500680786011802 30.10787811708574 5.076999999999991
    vertex 16.500680786011802 29.447878117085736 5.076999999999991
  endloop
endfacet
facet normal 0.0 0.0 1.0
  outer loop
    vertex 16.500680786011802 30.10787811708574 5.076999999999991
    vertex 23.500680786011802 29.447878117085736 5.076999999999991
    vertex 23.500680786011802 30.10787811708574 5.076999999999991
  endloop
endfacet
facet normal 0.0 1.0 0.0
  outer loop
    vertex 16.500680786011802 29.447878117085736 8.076999999999991
    vertex 23.500680786011802 29.447878117085736 7.07699999999999
    vertex 16.500680786011802 29.447878117085736 7.07699999999999
  endloop
endfacet
facet normal 0.0 1.0 0.0
  outer loop
    vertex 23.500680786011802 29.447878117085736 7.07699999999999
    vertex 16.500680786011802 29.447878117085736 8.076999999999991
    vertex 23.500680786011802 29.447878117085736 8.076999999999991
  endloop
endfacet
facet normal -0.0 -0.0 -1.0
  outer loop
    vertex 23.500680786011802 30.10787811708574 2.076999999999991
    vertex 16.500680786011802 29.447878117085736 2.076999999999991
    vertex 16.500680786011802 30.10787811708574 2.076999999999991
  endloop
endfacet
facet normal -0.0 -0.0 -1.0
  outer loop
    vertex 16.500680786011802 29.447878117085736 2.076999999999991
    vertex 23.500680786011802 30.10787811708574 2.076999999999991
    vertex 23.500680786011802 29.447878117085736 2.076999999999991
  endloop
endfacet
facet normal 0.0 1.0 0.0
  outer loop
    vertex 16.500680786011802 30.10787811708574 7.07699999999999
    vertex 23.500680786011802 30.10787811708574 6.07699999999999
    vertex 16.5136807860118 30.10787811708574 6.07699999999999
  endloop
endfacet
facet normal 0.0 1.0 0.0
  outer loop
    vertex 23.500680786011802 30.10787811708574 6.07699999999999
    vertex 16.500680786011802 30.10787811708574 7.07699999999999
    vertex 23.500680786011802 30.10787811708574 7.07699999999999
  endloop
endfacet
facet normal 0.0 1.0 0.0
  outer loop
    vertex 16.500680786011802 30.10787811708574 5.076999999999991
    vertex 23.486680786011796 30.10787811708574 4.076999999999991
    vertex 16.500680786011802 30.10787811708574 4.076999999999991
  endloop
endfacet
facet normal 0.0 1.0 0.0
  outer loop
    vertex 23.486680786011796 30.10787811708574 4.076999999999991
    vertex 16.500680786011802 30.10787811708574 5.076999999999991
    vertex 23.500680786011802 30.10787811708574 5.076999999999991
  endloop
endfacet
facet normal 0.0 1.0 0.0
  outer loop
    vertex 16.500680786011802 29.447878117085736 4.076999999999991
    vertex 23.486680786011796 29.447878117085736 3.0769999999999906
    vertex 16.500680786011802 29.447878117085736 3.0769999999999906
  endloop
endfacet
facet normal 0.0 1.0 0.0
  outer loop
    vertex 23.486680786011796 29.447878117085736 3.0769999999999906
    vertex 16.500680786011802 29.447878117085736 4.076999999999991
    vertex 23.486680786011796 29.447878117085736 4.076999999999991
  endloop
endfacet
facet normal 0.0 0.0 -1.0
  outer loop
    vertex 16.5136807860118 30.10787811708574 6.07699999999999
    vertex 23.500680786011802 29.447878117085736 6.07699999999999
    vertex 16.500680786011802 29.447878117085736 6.07699999999999
  endloop
endfacet
facet normal 0.0 0.0 -1.0
  outer loop
    vertex 23.500680786011802 29.447878117085736 6.07699999999999
    vertex 16.5136807860118 30.10787811708574 6.07699999999999
    vertex 23.500680786011802 30.10787811708574 6.07699999999999
  endloop
endfacet
facet normal 0.0 1.0 0.0
  outer loop
    vertex 16.500680786011802 29.447878117085736 2.076999999999991
    vertex 23.500680786011802 29.447878117085736 1.076999999999991
    vertex 16.500680786011802 29.447878117085736 1.076999999999991
  endloop
endfacet
facet normal 0.0 1.0 0.0
  outer loop
    vertex 23.500680786011802 29.447878117085736 1.076999999999991
    vertex 16.500680786011802 29.447878117085736 2.076999999999991
    vertex 23.500680786011802 29.447878117085736 2.076999999999991
  endloop
endfacet
facet normal 6.161823477111701e-17 -1.316246095868386e-16 1.0
  outer loop
    vertex 6.50056512215563 16.807459158299093 9.076999999999986
    vertex 15.858513774812048 21.207998666561622 9.076999999999993
    vertex 6.50056512215563 30.80787811708573 9.07699999999999
  endloop
endfacet
facet normal 6.161823477111701e-17 -1.316246095868386e-16 1.0
  outer loop
    vertex 15.858513774812048 21.207998666561622 9.076999999999993
    vertex 6.50056512215563 16.807459158299093 9.076999999999986
    vertex 16.991220294274317 20.07529214709935 9.076999999999993
  endloop
endfacet
facet normal 6.161823477111701e-17 -1.316246095868386e-16 1.0
  outer loop
    vertex 16.991220294274317 20.07529214709935 9.076999999999993
    vertex 6.50056512215563 16.807459158299093 9.076999999999986
    vertex 18.418513774812048 19.3480497948679 9.076999999999993
  endloop
endfacet
facet normal 6.161823477111701e-17 -1.316246095868386e-16 1.0
  outer loop
    vertex 18.418513774812048 19.3480497948679 9.076999999999993
    vertex 6.50056512215563 16.807459158299093 9.076999999999986
    vertex 33.50079644986792 16.807459158299093 9.076999999999986
  endloop
endfacet
facet normal 6.161823477111701e-17 -1.316246095868386e-16 1.0
  outer loop
    vertex 6.50056512215563 30.80787811708573 9.07699999999999
    vertex 15.858513774812048 21.207998666561622 9.076999999999993
    vertex 15.131271422580593 22.63529214709935 9.076999999999993
  endloop
endfacet
facet normal 6.161823477111701e-17 -1.316246095868386e-16 1.0
  outer loop
    vertex 6.50056512215563 30.80787811708573 9.07699999999999
    vertex 15.131271422580593 22.63529214709935 9.076999999999993
    vertex 14.88068078601178 24.217459158299082 9.076999999999993
  endloop
endfacet
facet normal 6.161823477111701e-17 -1.316246095868386e-16 1.0
  outer loop
    vertex 18.418513774812048 19.3480497948679 9.076999999999993
    vertex 33.50079644986792 16.807459158299093 9.076999999999986
    vertex 20.000680786011777 19.09745915829908 9.076999999999993
  endloop
endfacet
facet normal 6.161823477111701e-17 -1.316246095868386e-16 1.0
  outer loop
    vertex 20.000680786011777 19.09745915829908 9.076999999999993
    vertex 33.50079644986792 16.807459158299093 9.076999999999986
    vertex 21.582847797211507 19.3480497948679 9.076999999999993
  endloop
endfacet
facet normal 6.161823477111701e-17 -1.316246095868386e-16 1.0
  outer loop
    vertex 21.582847797211507 19.3480497948679 9.076999999999993
    vertex 33.50079644986792 16.807459158299093 9.076999999999986
    vertex 23.010141277749234 20.07529214709935 9.076999999999993
  endloop
endfacet
facet normal 6.161823477111701e-17 -1.316246095868386e-16 1.0
  outer loop
    vertex 23.010141277749234 20.07529214709935 9.076999999999993
    vertex 33.50079644986792 16.807459158299093 9.076999999999986
    vertex 24.14284779721151 21.207998666561622 9.076999999999993
  endloop
endfacet
facet normal 6.161823477111701e-17 -1.316246095868386e-16 1.0
  outer loop
    vertex 24.14284779721151 21.207998666561622 9.076999999999993
    vertex 33.50079644986792 16.807459158299093 9.076999999999986
    vertex 24.870090149442955 22.63529214709935 9.076999999999993
  endloop
endfacet
facet normal 6.161823477111701e-17 -1.316246095868386e-16 1.0
  outer loop
    vertex 24.870090149442955 22.63529214709935 9.076999999999993
    vertex 33.50079644986792 16.807459158299093 9.076999999999986
    vertex 25.120680786011775 24.217459158299082 9.076999999999993
  endloop
endfacet
facet normal 6.161823477111701e-17 -1.316246095868386e-16 1.0
  outer loop
    vertex 16.991220294274314 28.359626169498814 9.076999999999993
    vertex 16.500680786011802 30.10787811708574 9.07699999999999
    vertex 15.858513774812048 27.226919650036542 9.076999999999993
  endloop
endfacet
facet normal 6.161823477111701e-17 -1.316246095868386e-16 1.0
  outer loop
    vertex 16.500680786011802 30.10787811708574 9.07699999999999
    vertex 16.991220294274314 28.359626169498814 9.076999999999993
    vertex 18.418513774812048 29.086868521730263 9.076999999999993
  endloop
endfacet
facet normal 6.161823477111701e-17 -1.316246095868386e-16 1.0
  outer loop
    vertex 16.500680786011802 30.10787811708574 9.07699999999999
    vertex 18.418513774812048 29.086868521730263 9.076999999999993
    vertex 23.500680786011802 30.10787811708574 9.07699999999999
  endloop
endfacet
facet normal 6.161823477111701e-17 -1.316246095868386e-16 1.0
  outer loop
    vertex 23.500680786011802 30.10787811708574 9.07699999999999
    vertex 18.418513774812048 29.086868521730263 9.076999999999993
    vertex 20.000680786011774 29.337459158299083 9.076999999999993
  endloop
endfacet
facet normal 6.161823477111701e-17 -1.316246095868386e-16 1.0
  outer loop
    vertex 23.500680786011802 30.10787811708574 9.07699999999999
    vertex 20.000680786011774 29.337459158299083 9.076999999999993
    vertex 21.582847797211507 29.086868521730263 9.076999999999993
  endloop
endfacet
facet normal 6.161823477111701e-17 -1.316246095868386e-16 1.0
  outer loop
    vertex 23.500680786011802 30.10787811708574 9.07699999999999
    vertex 21.582847797211507 29.086868521730263 9.076999999999993
    vertex 23.010141277749234 28.359626169498814 9.076999999999993
  endloop
endfacet
facet normal 6.161823477111701e-17 -1.316246095868386e-16 1.0
  outer loop
    vertex 23.500680786011802 30.10787811708574 9.07699999999999
    vertex 23.010141277749234 28.359626169498814 9.076999999999993
    vertex 24.14284779721151 27.226919650036542 9.076999999999993
  endloop
endfacet
facet normal 6.161823477111701e-17 -1.316246095868386e-16 1.0
  outer loop
    vertex 23.500680786011802 30.10787811708574 9.07699999999999
    vertex 24.14284779721151 27.226919650036542 9.076999999999993
    vertex 23.500680786011802 30.80787811708574 9.076999999999986
  endloop
endfacet
facet normal 6.161823477111701e-17 -1.316246095868386e-16 1.0
  outer loop
    vertex 23.500680786011802 30.80787811708574 9.076999999999986
    vertex 24.14284779721151 27.226919650036542 9.076999999999993
    vertex 33.50079644986792 30.807878117085714 9.076999999999986
  endloop
endfacet
facet normal 6.161823477111701e-17 -1.316246095868386e-16 1.0
  outer loop
    vertex 33.50079644986792 30.807878117085714 9.076999999999986
    vertex 24.14284779721151 27.226919650036542 9.076999999999993
    vertex 24.870090149442955 25.799626169498815 9.076999999999993
  endloop
endfacet
facet normal 6.161823477111701e-17 -1.316246095868386e-16 1.0
  outer loop
    vertex 33.50079644986792 30.807878117085714 9.076999999999986
    vertex 24.870090149442955 25.799626169498815 9.076999999999993
    vertex 25.120680786011775 24.217459158299082 9.076999999999993
  endloop
endfacet
facet normal 6.161823477111701e-17 -1.316246095868386e-16 1.0
  outer loop
    vertex 33.50079644986792 30.807878117085714 9.076999999999986
    vertex 25.120680786011775 24.217459158299082 9.076999999999993
    vertex 33.50079644986792 16.807459158299093 9.076999999999986
  endloop
endfacet
facet normal 6.161823477111701e-17 -1.316246095868386e-16 1.0
  outer loop
    vertex 6.50056512215563 30.80787811708573 9.07699999999999
    vertex 15.131271422580593 25.799626169498815 9.076999999999993
    vertex 16.500680786011802 30.80787811708574 9.07699999999999
  endloop
endfacet
facet normal 6.161823477111701e-17 -1.316246095868386e-16 1.0
  outer loop
    vertex 15.131271422580593 25.799626169498815 9.076999999999993
    vertex 6.50056512215563 30.80787811708573 9.07699999999999
    vertex 14.88068078601178 24.217459158299082 9.076999999999993
  endloop
endfacet
facet normal 6.161823477111701e-17 -1.316246095868386e-16 1.0
  outer loop
    vertex 16.500680786011802 30.80787811708574 9.07699999999999
    vertex 15.131271422580593 25.799626169498815 9.076999999999993
    vertex 15.858513774812048 27.226919650036542 9.076999999999993
  endloop
endfacet
facet normal 6.161823477111701e-17 -1.316246095868386e-16 1.0
  outer loop
    vertex 16.500680786011802 30.80787811708574 9.07699999999999
    vertex 15.858513774812048 27.226919650036542 9.076999999999993
    vertex 16.500680786011802 30.10787811708574 9.07699999999999
  endloop
endfacet
facet normal -1.0 2.3498900265337273e-16 -3.621758985779593e-33
  outer loop
    vertex 6.50056512215563 30.80787811708573 9.07699999999999
    vertex 6.50056512215563 16.807459158299093 1.076999999999991
    vertex 6.50056512215563 16.807459158299093 9.076999999999986
  endloop
endfacet
facet normal -1.0 2.3498900265337273e-16 -3.621758985779593e-33
  outer loop
    vertex 6.50056512215563 16.807459158299093 1.076999999999991
    vertex 6.50056512215563 30.80787811708573 9.07699999999999
    vertex 6.50056512215563 30.80787811708573 1.076999999999991
  endloop
endfacet
facet normal 1.107239014855992e-16 -1.0 -3.439452434476504e-48
  outer loop
    vertex 27.75079644986791 16.807459158299093 2.045911086754469
    vertex 14.000565122155631 16.807459158299093 5.076999999999989
    vertex 12.250565122155631 16.807459158299093 2.045911086754456
  endloop
endfacet
facet normal 1.107239014855992e-16 -1.0 -3.439452434476504e-48
  outer loop
    vertex 14.000565122155631 16.807459158299093 5.076999999999989
    vertex 27.75079644986791 16.807459158299093 2.045911086754469
    vertex 26.000796449867902 16.807459158299093 5.0770000000000035
  endloop
endfacet
facet normal 1.107239014855992e-16 -1.0 -3.439452434476504e-48
  outer loop
    vertex 14.000565122155631 16.807459158299093 5.076999999999989
    vertex 26.000796449867902 16.807459158299093 5.0770000000000035
    vertex 12.250565122155626 16.807459158299093 8.108088913245526
  endloop
endfacet
facet normal 1.107239014855992e-16 -1.0 -3.439452434476504e-48
  outer loop
    vertex 12.250565122155626 16.807459158299093 8.108088913245526
    vertex 26.000796449867902 16.807459158299093 5.0770000000000035
    vertex 27.7507964498679 16.807459158299093 8.10808891324554
  endloop
endfacet
facet normal 1.107239014855992e-16 -1.0 -3.439452434476504e-48
  outer loop
    vertex 12.250565122155626 16.807459158299093 8.108088913245526
    vertex 27.7507964498679 16.807459158299093 8.10808891324554
    vertex 8.750565122155631 16.807459158299093 8.108088913245526
  endloop
endfacet
facet normal 1.107239014855992e-16 -1.0 -3.439452434476504e-48
  outer loop
    vertex 33.50079644986792 16.807459158299093 1.076999999999991
    vertex 31.250796449867902 16.807459158299093 2.0459110867544696
    vertex 6.50056512215563 16.807459158299093 1.076999999999991
  endloop
endfacet
facet normal 1.107239014855992e-16 -1.0 -3.439452434476504e-48
  outer loop
    vertex 31.250796449867902 16.807459158299093 2.0459110867544696
    vertex 33.50079644986792 16.807459158299093 1.076999999999991
    vertex 33.0007964498679 16.807459158299093 5.0770000000000035
  endloop
endfacet
facet normal 1.107239014855992e-16 -1.0 -3.439452434476504e-48
  outer loop
    vertex 33.0007964498679 16.807459158299093 5.0770000000000035
    vertex 33.50079644986792 16.807459158299093 1.076999999999991
    vertex 33.50079644986792 16.807459158299093 9.076999999999986
  endloop
endfacet
facet normal 1.107239014855992e-16 -1.0 -3.439452434476504e-48
  outer loop
    vertex 6.50056512215563 16.807459158299093 1.076999999999991
    vertex 31.250796449867902 16.807459158299093 2.0459110867544696
    vertex 12.250565122155631 16.807459158299093 2.045911086754456
  endloop
endfacet
facet normal 1.107239014855992e-16 -1.0 -3.439452434476504e-48
  outer loop
    vertex 6.50056512215563 16.807459158299093 1.076999999999991
    vertex 12.250565122155631 16.807459158299093 2.045911086754456
    vertex 8.750565122155631 16.807459158299093 2.045911086754455
  endloop
endfacet
facet normal 1.107239014855992e-16 -1.0 -3.439452434476504e-48
  outer loop
    vertex 12.250565122155631 16.807459158299093 2.045911086754456
    vertex 31.250796449867902 16.807459158299093 2.0459110867544696
    vertex 27.75079644986791 16.807459158299093 2.045911086754469
  endloop
endfacet
facet normal 1.107239014855992e-16 -1.0 -3.439452434476504e-48
  outer loop
    vertex 33.0007964498679 16.807459158299093 5.0770000000000035
    vertex 33.50079644986792 16.807459158299093 9.076999999999986
    vertex 31.250796449867902 16.807459158299093 8.10808891324554
  endloop
endfacet
facet normal 1.107239014855992e-16 -1.0 -3.439452434476504e-48
  outer loop
    vertex 31.250796449867902 16.807459158299093 8.10808891324554
    vertex 33.50079644986792 16.807459158299093 9.076999999999986
    vertex 27.7507964498679 16.807459158299093 8.10808891324554
  endloop
endfacet
facet normal 1.107239014855992e-16 -1.0 -3.439452434476504e-48
  outer loop
    vertex 6.50056512215563 16.807459158299093 1.076999999999991
    vertex 7.0005651221556295 16.807459158299093 5.076999999999989
    vertex 6.50056512215563 16.807459158299093 9.076999999999986
  endloop
endfacet
facet normal 1.107239014855992e-16 -1.0 -3.439452434476504e-48
  outer loop
    vertex 7.0005651221556295 16.807459158299093 5.076999999999989
    vertex 6.50056512215563 16.807459158299093 1.076999999999991
    vertex 8.750565122155631 16.807459158299093 2.045911086754455
  endloop
endfacet
facet normal 1.107239014855992e-16 -1.0 -3.439452434476504e-48
  outer loop
    vertex 6.50056512215563 16.807459158299093 9.076999999999986
    vertex 7.0005651221556295 16.807459158299093 5.076999999999989
    vertex 8.750565122155631 16.807459158299093 8.108088913245526
  endloop
endfacet
facet normal 1.107239014855992e-16 -1.0 -3.439452434476504e-48
  outer loop
    vertex 6.50056512215563 16.807459158299093 9.076999999999986
    vertex 8.750565122155631 16.807459158299093 8.108088913245526
    vertex 27.7507964498679 16.807459158299093 8.10808891324554
  endloop
endfacet
facet normal 1.107239014855992e-16 -1.0 -3.439452434476504e-48
  outer loop
    vertex 6.50056512215563 16.807459158299093 9.076999999999986
    vertex 27.7507964498679 16.807459158299093 8.10808891324554
    vertex 33.50079644986792 16.807459158299093 9.076999999999986
  endloop
endfacet
facet normal 2.2089785159187095e-15 1.0 -1.1261254528572594e-15
  outer loop
    vertex 23.500680786011802 30.807878117085714 1.0769999999999895
    vertex 27.75079644986793 30.807878117085714 2.0459110867544528
    vertex 33.50079644986792 30.807878117085714 1.0769999999999895
  endloop
endfacet
facet normal 2.2089785159187095e-15 1.0 -1.1261254528572594e-15
  outer loop
    vertex 27.75079644986793 30.807878117085714 2.0459110867544528
    vertex 23.500680786011802 30.807878117085714 1.0769999999999895
    vertex 23.500680786011802 30.80787811708574 3.0769999999999893
  endloop
endfacet
facet normal 2.2089785159187095e-15 1.0 -1.1261254528572594e-15
  outer loop
    vertex 33.50079644986792 30.807878117085714 1.0769999999999895
    vertex 27.75079644986793 30.807878117085714 2.0459110867544528
    vertex 31.250796449867927 30.807878117085703 2.0459110867544523
  endloop
endfacet
facet normal 2.2089785159187095e-15 1.0 -1.1261254528572594e-15
  outer loop
    vertex 27.75079644986793 30.807878117085714 2.0459110867544528
    vertex 23.500680786011802 30.80787811708574 3.0769999999999893
    vertex 26.000796449867924 30.807878117085714 5.076999999999987
  endloop
endfacet
facet normal 2.2089785159187095e-15 1.0 -1.1261254528572594e-15
  outer loop
    vertex 26.000796449867924 30.807878117085714 5.076999999999987
    vertex 23.500680786011802 30.80787811708574 3.0769999999999893
    vertex 23.500680786011802 30.80787811708574 4.076999999999988
  endloop
endfacet
facet normal 2.2089785159187095e-15 1.0 -1.1261254528572594e-15
  outer loop
    vertex 26.000796449867924 30.807878117085714 5.076999999999987
    vertex 23.500680786011802 30.80787811708574 4.076999999999988
    vertex 23.500680786011802 30.80787811708574 5.076999999999989
  endloop
endfacet
facet normal 2.2089785159187095e-15 1.0 -1.1261254528572594e-15
  outer loop
    vertex 26.000796449867924 30.807878117085714 5.076999999999987
    vertex 23.500680786011802 30.80787811708574 5.076999999999989
    vertex 27.75079644986793 30.807878117085714 8.108088913245522
  endloop
endfacet
facet normal 2.2089785159187095e-15 1.0 -1.1261254528572594e-15
  outer loop
    vertex 27.75079644986793 30.807878117085714 8.108088913245522
    vertex 23.500680786011802 30.80787811708574 5.076999999999989
    vertex 23.500680786011802 30.80787811708574 6.076999999999989
  endloop
endfacet
facet normal 2.2089785159187095e-15 1.0 -1.1261254528572594e-15
  outer loop
    vertex 27.75079644986793 30.807878117085714 8.108088913245522
    vertex 23.500680786011802 30.80787811708574 6.076999999999989
    vertex 23.500680786011802 30.80787811708574 7.076999999999988
  endloop
endfacet
facet normal 2.2089785159187095e-15 1.0 -1.1261254528572594e-15
  outer loop
    vertex 27.75079644986793 30.807878117085714 8.108088913245522
    vertex 23.500680786011802 30.80787811708574 7.076999999999988
    vertex 23.500680786011802 30.80787811708574 9.076999999999986
  endloop
endfacet
facet normal 2.2089785159187095e-15 1.0 -1.1261254528572594e-15
  outer loop
    vertex 27.75079644986793 30.807878117085714 8.108088913245522
    vertex 23.500680786011802 30.80787811708574 9.076999999999986
    vertex 31.250796449867927 30.807878117085714 8.108088913245522
  endloop
endfacet
facet normal 2.2089785159187095e-15 1.0 -1.1261254528572594e-15
  outer loop
    vertex 33.50079644986792 30.807878117085714 1.0769999999999895
    vertex 33.00079644986792 30.807878117085703 5.076999999999987
    vertex 33.50079644986792 30.807878117085714 9.076999999999986
  endloop
endfacet
facet normal 2.2089785159187095e-15 1.0 -1.1261254528572594e-15
  outer loop
    vertex 33.00079644986792 30.807878117085703 5.076999999999987
    vertex 33.50079644986792 30.807878117085714 1.0769999999999895
    vertex 31.250796449867927 30.807878117085703 2.0459110867544523
  endloop
endfacet
facet normal 2.2089785159187095e-15 1.0 -1.1261254528572594e-15
  outer loop
    vertex 33.50079644986792 30.807878117085714 9.076999999999986
    vertex 33.00079644986792 30.807878117085703 5.076999999999987
    vertex 31.250796449867927 30.807878117085714 8.108088913245522
  endloop
endfacet
facet normal 2.2089785159187095e-15 1.0 -1.1261254528572594e-15
  outer loop
    vertex 33.50079644986792 30.807878117085714 9.076999999999986
    vertex 31.250796449867927 30.807878117085714 8.108088913245522
    vertex 23.500680786011802 30.80787811708574 9.076999999999986
  endloop
endfacet
facet normal -1.0 0.0 0.0
  outer loop
    vertex 23.500680786011802 30.80787811708574 7.076999999999988
    vertex 23.500680786011802 30.10787811708574 6.07699999999999
    vertex 23.500680786011802 30.10787811708574 7.07699999999999
  endloop
endfacet
facet normal -1.0 0.0 0.0
  outer loop
    vertex 23.500680786011802 30.10787811708574 6.07699999999999
    vertex 23.500680786011802 30.80787811708574 7.076999999999988
    vertex 23.500680786011802 30.80787811708574 6.076999999999989
  endloop
endfacet
facet normal -1.0 0.0 0.0
  outer loop
    vertex 23.500680786011802 30.80787811708574 9.076999999999986
    vertex 23.500680786011802 30.10787811708574 8.076999999999991
    vertex 23.500680786011802 30.10787811708574 9.07699999999999
  endloop
endfacet
facet normal -1.0 0.0 0.0
  outer loop
    vertex 23.500680786011802 30.10787811708574 8.076999999999991
    vertex 23.500680786011802 30.80787811708574 9.076999999999986
    vertex 23.500680786011802 30.10787811708574 7.07699999999999
  endloop
endfacet
facet normal -1.0 0.0 0.0
  outer loop
    vertex 23.500680786011802 30.10787811708574 7.07699999999999
    vertex 23.500680786011802 30.80787811708574 9.076999999999986
    vertex 23.500680786011802 30.80787811708574 7.076999999999988
  endloop
endfacet
facet normal -1.0 0.0 0.0
  outer loop
    vertex 23.500680786011802 30.10787811708574 8.076999999999991
    vertex 23.500680786011802 29.447878117085736 7.07699999999999
    vertex 23.500680786011802 29.447878117085736 8.076999999999991
  endloop
endfacet
facet normal -1.0 0.0 0.0
  outer loop
    vertex 23.500680786011802 29.447878117085736 7.07699999999999
    vertex 23.500680786011802 30.10787811708574 8.076999999999991
    vertex 23.500680786011802 30.10787811708574 7.07699999999999
  endloop
endfacet
facet normal -1.0 0.0 0.0
  outer loop
    vertex 23.500680786011802 30.10787811708574 6.07699999999999
    vertex 23.500680786011802 29.447878117085736 5.076999999999991
    vertex 23.500680786011802 29.447878117085736 6.07699999999999
  endloop
endfacet
facet normal -1.0 0.0 0.0
  outer loop
    vertex 23.500680786011802 29.447878117085736 5.076999999999991
    vertex 23.500680786011802 30.10787811708574 6.07699999999999
    vertex 23.500680786011802 30.10787811708574 5.076999999999991
  endloop
endfacet
facet normal -1.0 0.0 0.0
  outer loop
    vertex 23.500680786011802 30.10787811708574 5.076999999999991
    vertex 23.500680786011802 30.10787811708574 6.07699999999999
    vertex 23.500680786011802 30.80787811708574 6.076999999999989
  endloop
endfacet
facet normal -1.0 0.0 0.0
  outer loop
    vertex 23.500680786011802 30.10787811708574 5.076999999999991
    vertex 23.500680786011802 30.80787811708574 6.076999999999989
    vertex 23.500680786011802 30.80787811708574 5.076999999999989
  endloop
endfacet
facet normal -0.9999255083243415 0.009999255083245123 0.006999478558271559
  outer loop
    vertex 23.500680786011802 30.80787811708574 5.076999999999989
    vertex 23.486680786011796 30.10787811708574 4.076999999999991
    vertex 23.500680786011802 30.10787811708574 5.076999999999991
  endloop
endfacet
facet normal -0.9999255083243415 0.009999255083245123 0.006999478558271559
  outer loop
    vertex 23.486680786011796 30.10787811708574 4.076999999999991
    vertex 23.500680786011802 30.80787811708574 5.076999999999989
    vertex 23.500680786011802 30.80787811708574 4.076999999999988
  endloop
endfacet
facet normal -0.9999361633382211 0.010290493234701756 -0.004666368762245814
  outer loop
    vertex 23.486680786011796 30.10787811708574 4.076999999999991
    vertex 23.486680786011796 29.447878117085736 3.0769999999999906
    vertex 23.486680786011796 29.447878117085736 4.076999999999991
  endloop
endfacet
facet normal -0.9999361633382211 0.010290493234701756 -0.004666368762245814
  outer loop
    vertex 23.486680786011796 29.447878117085736 3.0769999999999906
    vertex 23.486680786011796 30.10787811708574 4.076999999999991
    vertex 23.500680786011802 30.10787811708574 3.0769999999999906
  endloop
endfacet
facet normal -0.9999361633382211 0.010290493234701756 -0.004666368762245814
  outer loop
    vertex 23.500680786011802 30.10787811708574 3.0769999999999906
    vertex 23.486680786011796 30.10787811708574 4.076999999999991
    vertex 23.500680786011802 30.80787811708574 4.076999999999988
  endloop
endfacet
facet normal -0.9999361633382211 0.010290493234701756 -0.004666368762245814
  outer loop
    vertex 23.500680786011802 30.10787811708574 3.0769999999999906
    vertex 23.500680786011802 30.80787811708574 4.076999999999988
    vertex 23.500680786011802 30.80787811708574 3.0769999999999893
  endloop
endfacet
facet normal 1.0 0.0 0.0
  outer loop
    vertex 16.500680786011802 30.10787811708574 3.0769999999999906
    vertex 16.500680786011802 29.447878117085736 4.076999999999991
    vertex 16.500680786011802 29.447878117085736 3.0769999999999906
  endloop
endfacet
facet normal 1.0 0.0 0.0
  outer loop
    vertex 16.500680786011802 29.447878117085736 4.076999999999991
    vertex 16.500680786011802 30.10787811708574 3.0769999999999906
    vertex 16.500680786011802 30.10787811708574 4.076999999999991
  endloop
endfacet
facet normal 1.0 0.0 0.0
  outer loop
    vertex 16.500680786011802 30.10787811708574 4.076999999999991
    vertex 16.500680786011802 30.10787811708574 3.0769999999999906
    vertex 16.500680786011802 30.80787811708574 3.0769999999999906
  endloop
endfacet
facet normal 1.0 0.0 0.0
  outer loop
    vertex 16.500680786011802 30.10787811708574 4.076999999999991
    vertex 16.500680786011802 30.80787811708574 3.0769999999999906
    vertex 16.500680786011802 30.80787811708574 4.076999999999991
  endloop
endfacet
facet normal 1.0 0.0 0.0
  outer loop
    vertex 16.500680786011802 30.80787811708574 1.076999999999991
    vertex 16.500680786011802 29.447878117085736 2.076999999999991
    vertex 16.500680786011802 29.447878117085736 1.076999999999991
  endloop
endfacet
facet normal 1.0 0.0 0.0
  outer loop
    vertex 16.500680786011802 29.447878117085736 2.076999999999991
    vertex 16.500680786011802 30.80787811708574 1.076999999999991
    vertex 16.500680786011802 30.10787811708574 2.076999999999991
  endloop
endfacet
facet normal 1.0 0.0 0.0
  outer loop
    vertex 16.500680786011802 30.10787811708574 2.076999999999991
    vertex 16.500680786011802 30.80787811708574 1.076999999999991
    vertex 16.500680786011802 30.10787811708574 3.0769999999999906
  endloop
endfacet
facet normal 1.0 0.0 0.0
  outer loop
    vertex 16.500680786011802 30.10787811708574 3.0769999999999906
    vertex 16.500680786011802 30.80787811708574 1.076999999999991
    vertex 16.500680786011802 30.80787811708574 3.0769999999999906
  endloop
endfacet
facet normal 0.9999906068548382 9.368606146663813e-05 -0.004333292629704083
  outer loop
    vertex 16.500680786011802 30.10787811708574 5.076999999999991
    vertex 16.500680786011802 29.447878117085736 6.07699999999999
    vertex 16.500680786011802 29.447878117085736 5.076999999999991
  endloop
endfacet
facet normal 0.9999906068548382 9.368606146663813e-05 -0.004333292629704083
  outer loop
    vertex 16.500680786011802 29.447878117085736 6.07699999999999
    vertex 16.500680786011802 30.10787811708574 5.076999999999991
    vertex 16.5136807860118 30.10787811708574 6.07699999999999
  endloop
endfacet
facet normal 0.9999906068548382 9.368606146663813e-05 -0.004333292629704083
  outer loop
    vertex 16.5136807860118 30.10787811708574 6.07699999999999
    vertex 16.500680786011802 30.10787811708574 5.076999999999991
    vertex 16.500680786011802 30.80787811708574 5.076999999999991
  endloop
endfacet
facet normal 0.9999906068548382 9.368606146663813e-05 -0.004333292629704083
  outer loop
    vertex 16.5136807860118 30.10787811708574 6.07699999999999
    vertex 16.500680786011802 30.80787811708574 5.076999999999991
    vertex 16.500680786011802 30.80787811708574 6.07699999999999
  endloop
endfacet
facet normal 1.0 0.0 0.0
  outer loop
    vertex 16.500680786011802 30.80787811708574 4.076999999999991
    vertex 16.500680786011802 30.10787811708574 5.076999999999991
    vertex 16.500680786011802 30.10787811708574 4.076999999999991
  endloop
endfacet
facet normal 1.0 0.0 0.0
  outer loop
    vertex 16.500680786011802 30.10787811708574 5.076999999999991
    vertex 16.500680786011802 30.80787811708574 4.076999999999991
    vertex 16.500680786011802 30.80787811708574 5.076999999999991
  endloop
endfacet
facet normal 0.999935768944075 0.009285117854480253 0.006499582498136168
  outer loop
    vertex 16.500680786011802 30.80787811708574 6.07699999999999
    vertex 16.500680786011802 30.10787811708574 7.07699999999999
    vertex 16.5136807860118 30.10787811708574 6.07699999999999
  endloop
endfacet
facet normal 0.999935768944075 0.009285117854480253 0.006499582498136168
  outer loop
    vertex 16.500680786011802 30.10787811708574 7.07699999999999
    vertex 16.500680786011802 30.80787811708574 6.07699999999999
    vertex 16.500680786011802 30.80787811708574 7.07699999999999
  endloop
endfacet
facet normal 1.0 0.0 0.0
  outer loop
    vertex 33.50079644986792 30.807878117085714 1.0769999999999895
    vertex 33.50079644986792 16.807459158299093 9.076999999999986
    vertex 33.50079644986792 16.807459158299093 1.076999999999991
  endloop
endfacet
facet normal 1.0 0.0 0.0
  outer loop
    vertex 33.50079644986792 16.807459158299093 9.076999999999986
    vertex 33.50079644986792 30.807878117085714 1.0769999999999895
    vertex 33.50079644986792 30.807878117085714 9.076999999999986
  endloop
endfacet
facet normal 0.0 0.0 1.0
  outer loop
    vertex 18.418513774812048 19.3480497948679 9.076999999999993
    vertex 17.050680786011778 24.217459158299082 9.076999999999993
    vertex 16.991220294274317 20.07529214709935 9.076999999999993
  endloop
endfacet
facet normal 0.0 0.0 1.0
  outer loop
    vertex 17.050680786011778 24.217459158299082 9.076999999999993
    vertex 18.418513774812048 19.3480497948679 9.076999999999993
    vertex 17.614080652605683 22.483492664036277 9.076999999999993
  endloop
endfacet
facet normal 0.0 0.0 1.0
  outer loop
    vertex 17.614080652605683 22.483492664036277 9.076999999999993
    vertex 18.418513774812048 19.3480497948679 9.076999999999993
    vertex 19.08908065260568 21.41184243522839 9.076999999999993
  endloop
endfacet
facet normal 0.0 0.0 1.0
  outer loop
    vertex 19.08908065260568 21.41184243522839 9.076999999999993
    vertex 18.418513774812048 19.3480497948679 9.076999999999993
    vertex 20.000680786011777 19.09745915829908 9.076999999999993
  endloop
endfacet
facet normal 0.0 0.0 1.0
  outer loop
    vertex 19.08908065260568 21.41184243522839 9.076999999999993
    vertex 20.000680786011777 19.09745915829908 9.076999999999993
    vertex 20.91228091941787 21.41184243522837 9.076999999999993
  endloop
endfacet
facet normal 0.0 0.0 1.0
  outer loop
    vertex 20.91228091941787 21.41184243522837 9.076999999999993
    vertex 20.000680786011777 19.09745915829908 9.076999999999993
    vertex 21.582847797211507 19.3480497948679 9.076999999999993
  endloop
endfacet
facet normal 0.0 0.0 1.0
  outer loop
    vertex 20.91228091941787 21.41184243522837 9.076999999999993
    vertex 21.582847797211507 19.3480497948679 9.076999999999993
    vertex 22.387280919417872 22.483492664036277 9.076999999999993
  endloop
endfacet
facet normal 0.0 0.0 1.0
  outer loop
    vertex 22.387280919417872 22.483492664036277 9.076999999999993
    vertex 21.582847797211507 19.3480497948679 9.076999999999993
    vertex 23.010141277749234 20.07529214709935 9.076999999999993
  endloop
endfacet
facet normal 0.0 0.0 1.0
  outer loop
    vertex 22.387280919417872 22.483492664036277 9.076999999999993
    vertex 23.010141277749234 20.07529214709935 9.076999999999993
    vertex 22.950680786011777 24.217459158299082 9.076999999999993
  endloop
endfacet
facet normal 0.0 0.0 1.0
  outer loop
    vertex 15.131271422580593 22.63529214709935 9.076999999999993
    vertex 15.131271422580593 25.799626169498815 9.076999999999993
    vertex 14.88068078601178 24.217459158299082 9.076999999999993
  endloop
endfacet
facet normal 0.0 0.0 1.0
  outer loop
    vertex 15.131271422580593 25.799626169498815 9.076999999999993
    vertex 15.131271422580593 22.63529214709935 9.076999999999993
    vertex 15.858513774812048 21.207998666561622 9.076999999999993
  endloop
endfacet
facet normal 0.0 0.0 1.0
  outer loop
    vertex 15.131271422580593 25.799626169498815 9.076999999999993
    vertex 15.858513774812048 21.207998666561622 9.076999999999993
    vertex 15.858513774812048 27.226919650036542 9.076999999999993
  endloop
endfacet
facet normal 0.0 0.0 1.0
  outer loop
    vertex 15.858513774812048 27.226919650036542 9.076999999999993
    vertex 15.858513774812048 21.207998666561622 9.076999999999993
    vertex 16.991220294274317 20.07529214709935 9.076999999999993
  endloop
endfacet
facet normal 0.0 0.0 1.0
  outer loop
    vertex 15.858513774812048 27.226919650036542 9.076999999999993
    vertex 16.991220294274317 20.07529214709935 9.076999999999993
    vertex 16.991220294274314 28.359626169498814 9.076999999999993
  endloop
endfacet
facet normal 0.0 0.0 1.0
  outer loop
    vertex 16.991220294274314 28.359626169498814 9.076999999999993
    vertex 16.991220294274317 20.07529214709935 9.076999999999993
    vertex 17.050680786011778 24.217459158299082 9.076999999999993
  endloop
endfacet
facet normal 0.0 0.0 1.0
  outer loop
    vertex 16.991220294274314 28.359626169498814 9.076999999999993
    vertex 17.050680786011778 24.217459158299082 9.076999999999993
    vertex 18.418513774812048 29.086868521730263 9.076999999999993
  endloop
endfacet
facet normal 0.0 0.0 1.0
  outer loop
    vertex 18.418513774812048 29.086868521730263 9.076999999999993
    vertex 17.050680786011778 24.217459158299082 9.076999999999993
    vertex 17.614080652605683 25.951425652561888 9.076999999999993
  endloop
endfacet
facet normal 0.0 0.0 1.0
  outer loop
    vertex 18.418513774812048 29.086868521730263 9.076999999999993
    vertex 17.614080652605683 25.951425652561888 9.076999999999993
    vertex 19.089080652605684 27.023075881369795 9.076999999999993
  endloop
endfacet
facet normal 0.0 0.0 1.0
  outer loop
    vertex 18.418513774812048 29.086868521730263 9.076999999999993
    vertex 19.089080652605684 27.023075881369795 9.076999999999993
    vertex 20.000680786011774 29.337459158299083 9.076999999999993
  endloop
endfacet
facet normal 0.0 0.0 1.0
  outer loop
    vertex 20.000680786011774 29.337459158299083 9.076999999999993
    vertex 19.089080652605684 27.023075881369795 9.076999999999993
    vertex 20.912280919417874 27.023075881369774 9.076999999999993
  endloop
endfacet
facet normal 0.0 0.0 1.0
  outer loop
    vertex 20.000680786011774 29.337459158299083 9.076999999999993
    vertex 20.912280919417874 27.023075881369774 9.076999999999993
    vertex 21.582847797211507 29.086868521730263 9.076999999999993
  endloop
endfacet
facet normal 0.0 0.0 1.0
  outer loop
    vertex 21.582847797211507 29.086868521730263 9.076999999999993
    vertex 20.912280919417874 27.023075881369774 9.076999999999993
    vertex 22.387280919417872 25.951425652561888 9.076999999999993
  endloop
endfacet
facet normal 0.0 0.0 1.0
  outer loop
    vertex 21.582847797211507 29.086868521730263 9.076999999999993
    vertex 22.387280919417872 25.951425652561888 9.076999999999993
    vertex 23.010141277749234 28.359626169498814 9.076999999999993
  endloop
endfacet
facet normal 0.0 0.0 1.0
  outer loop
    vertex 23.010141277749234 28.359626169498814 9.076999999999993
    vertex 22.387280919417872 25.951425652561888 9.076999999999993
    vertex 22.950680786011777 24.217459158299082 9.076999999999993
  endloop
endfacet
facet normal 0.0 0.0 1.0
  outer loop
    vertex 23.010141277749234 28.359626169498814 9.076999999999993
    vertex 22.950680786011777 24.217459158299082 9.076999999999993
    vertex 23.010141277749234 20.07529214709935 9.076999999999993
  endloop
endfacet
facet normal 0.0 0.0 1.0
  outer loop
    vertex 23.010141277749234 28.359626169498814 9.076999999999993
    vertex 23.010141277749234 20.07529214709935 9.076999999999993
    vertex 24.14284779721151 21.207998666561622 9.076999999999993
  endloop
endfacet
facet normal 0.0 0.0 1.0
  outer loop
    vertex 23.010141277749234 28.359626169498814 9.076999999999993
    vertex 24.14284779721151 21.207998666561622 9.076999999999993
    vertex 24.14284779721151 27.226919650036542 9.076999999999993
  endloop
endfacet
facet normal 0.0 0.0 1.0
  outer loop
    vertex 24.14284779721151 27.226919650036542 9.076999999999993
    vertex 24.14284779721151 21.207998666561622 9.076999999999993
    vertex 24.870090149442955 22.63529214709935 9.076999999999993
  endloop
endfacet
facet normal 0.0 0.0 1.0
  outer loop
    vertex 24.14284779721151 27.226919650036542 9.076999999999993
    vertex 24.870090149442955 22.63529214709935 9.076999999999993
    vertex 24.870090149442955 25.799626169498815 9.076999999999993
  endloop
endfacet
facet normal 0.0 0.0 1.0
  outer loop
    vertex 24.870090149442955 25.799626169498815 9.076999999999993
    vertex 24.870090149442955 22.63529214709935 9.076999999999993
    vertex 25.120680786011775 24.217459158299082 9.076999999999993
  endloop
endfacet
facet normal 0.0 1.0 0.0
  outer loop
    vertex 7.0005651221556295 30.80787811708573 5.076999999999991
    vertex 9.53556512215563 30.80787811708573 3.405570970696023
    vertex 8.750565122155631 30.80787811708573 2.0459110867544563
  endloop
endfacet
facet normal 0.0 1.0 0.0
  outer loop
    vertex 9.53556512215563 30.80787811708573 3.405570970696023
    vertex 7.0005651221556295 30.80787811708573 5.076999999999991
    vertex 8.57056512215563 30.80787811708573 5.076999999999989
  endloop
endfacet
facet normal 0.0 1.0 0.0
  outer loop
    vertex 8.57056512215563 30.80787811708573 5.076999999999989
    vertex 7.0005651221556295 30.80787811708573 5.076999999999991
    vertex 9.535565122155635 30.80787811708573 6.748429029303957
  endloop
endfacet
facet normal 0.0 1.0 0.0
  outer loop
    vertex 9.535565122155635 30.80787811708573 6.748429029303957
    vertex 7.0005651221556295 30.80787811708573 5.076999999999991
    vertex 8.750565122155631 30.80787811708573 8.108088913245526
  endloop
endfacet
facet normal 0.0 1.0 0.0
  outer loop
    vertex 12.250565122155626 30.80787811708573 2.045911086754454
    vertex 11.465565122155628 30.80787811708573 3.405570970696023
    vertex 14.000565122155631 30.80787811708573 5.076999999999989
  endloop
endfacet
facet normal 0.0 1.0 0.0
  outer loop
    vertex 11.465565122155628 30.80787811708573 3.405570970696023
    vertex 12.250565122155626 30.80787811708573 2.045911086754454
    vertex 8.750565122155631 30.80787811708573 2.0459110867544563
  endloop
endfacet
facet normal 0.0 1.0 0.0
  outer loop
    vertex 11.465565122155628 30.80787811708573 3.405570970696023
    vertex 8.750565122155631 30.80787811708573 2.0459110867544563
    vertex 9.53556512215563 30.80787811708573 3.405570970696023
  endloop
endfacet
facet normal 0.0 1.0 0.0
  outer loop
    vertex 14.000565122155631 30.80787811708573 5.076999999999989
    vertex 11.465565122155628 30.80787811708573 3.405570970696023
    vertex 12.430565122155633 30.80787811708573 5.076999999999989
  endloop
endfacet
facet normal 0.0 1.0 0.0
  outer loop
    vertex 14.000565122155631 30.80787811708573 5.076999999999989
    vertex 12.430565122155633 30.80787811708573 5.076999999999989
    vertex 11.465565122155635 30.80787811708573 6.748429029303956
  endloop
endfacet
facet normal 0.0 1.0 0.0
  outer loop
    vertex 14.000565122155631 30.80787811708573 5.076999999999989
    vertex 11.465565122155635 30.80787811708573 6.748429029303956
    vertex 12.250565122155631 30.80787811708573 8.108088913245526
  endloop
endfacet
facet normal 0.0 1.0 0.0
  outer loop
    vertex 12.250565122155631 30.80787811708573 8.108088913245526
    vertex 11.465565122155635 30.80787811708573 6.748429029303956
    vertex 9.535565122155635 30.80787811708573 6.748429029303957
  endloop
endfacet
facet normal 0.0 1.0 0.0
  outer loop
    vertex 12.250565122155631 30.80787811708573 8.108088913245526
    vertex 9.535565122155635 30.80787811708573 6.748429029303957
    vertex 8.750565122155631 30.80787811708573 8.108088913245526
  endloop
endfacet
facet normal 0.8660254037844386 0.0 0.4999999999999999
  outer loop
    vertex 9.53556512215563 30.80787811708573 3.405570970696023
    vertex 8.57056512215563 26.807459158299096 5.076999999999989
    vertex 9.53556512215563 26.807459158299096 3.405570970696023
  endloop
endfacet
facet normal 0.8660254037844386 0.0 0.4999999999999999
  outer loop
    vertex 8.57056512215563 26.807459158299096 5.076999999999989
    vertex 9.53556512215563 30.80787811708573 3.405570970696023
    vertex 8.57056512215563 30.80787811708573 5.076999999999989
  endloop
endfacet
facet normal 0.8660254037844384 0.0 -0.5000000000000003
  outer loop
    vertex 8.57056512215563 30.80787811708573 5.076999999999989
    vertex 9.535565122155635 26.807459158299096 6.748429029303957
    vertex 8.57056512215563 26.807459158299096 5.076999999999989
  endloop
endfacet
facet normal 0.8660254037844384 0.0 -0.5000000000000003
  outer loop
    vertex 9.535565122155635 26.807459158299096 6.748429029303957
    vertex 8.57056512215563 30.80787811708573 5.076999999999989
    vertex 9.535565122155635 30.80787811708573 6.748429029303957
  endloop
endfacet
facet normal -7.305612649087821e-16 0.0 -1.0
  outer loop
    vertex 11.465565122155635 30.80787811708573 6.748429029303956
    vertex 9.535565122155635 26.807459158299096 6.748429029303957
    vertex 9.535565122155635 30.80787811708573 6.748429029303957
  endloop
endfacet
facet normal -7.305612649087821e-16 0.0 -1.0
  outer loop
    vertex 9.535565122155635 26.807459158299096 6.748429029303957
    vertex 11.465565122155635 30.80787811708573 6.748429029303956
    vertex 11.465565122155635 26.807459158299096 6.748429029303956
  endloop
endfacet
facet normal -0.8660254037844387 0.0 -0.4999999999999998
  outer loop
    vertex 11.465565122155635 30.80787811708573 6.748429029303956
    vertex 12.430565122155633 26.807459158299096 5.076999999999989
    vertex 11.465565122155635 26.807459158299096 6.748429029303956
  endloop
endfacet
facet normal -0.8660254037844387 0.0 -0.4999999999999998
  outer loop
    vertex 12.430565122155633 26.807459158299096 5.076999999999989
    vertex 11.465565122155635 30.80787811708573 6.748429029303956
    vertex 12.430565122155633 30.80787811708573 5.076999999999989
  endloop
endfacet
facet normal -0.8660254037844386 0.0 0.5000000000000001
  outer loop
    vertex 12.430565122155633 30.80787811708573 5.076999999999989
    vertex 11.465565122155628 26.807459158299096 3.405570970696023
    vertex 12.430565122155633 26.807459158299096 5.076999999999989
  endloop
endfacet
facet normal -0.8660254037844386 0.0 0.5000000000000001
  outer loop
    vertex 11.465565122155628 26.807459158299096 3.405570970696023
    vertex 12.430565122155633 30.80787811708573 5.076999999999989
    vertex 11.465565122155628 30.80787811708573 3.405570970696023
  endloop
endfacet
facet normal 0.0 0.0 1.0
  outer loop
    vertex 11.465565122155628 26.807459158299096 3.405570970696023
    vertex 9.53556512215563 30.80787811708573 3.405570970696023
    vertex 9.53556512215563 26.807459158299096 3.405570970696023
  endloop
endfacet
facet normal 0.0 0.0 1.0
  outer loop
    vertex 9.53556512215563 30.80787811708573 3.405570970696023
    vertex 11.465565122155628 26.807459158299096 3.405570970696023
    vertex 11.465565122155628 30.80787811708573 3.405570970696023
  endloop
endfacet
facet normal 2.0142617732484986e-15 1.0 -1.1629345770033944e-15
  outer loop
    vertex 27.75079644986793 30.807878117085714 2.0459110867544528
    vertex 28.53579644986793 30.807878117085714 3.4055709706960218
    vertex 30.465796449867927 30.807878117085703 3.4055709706960218
  endloop
endfacet
facet normal 2.0142617732484986e-15 1.0 -1.1629345770033944e-15
  outer loop
    vertex 28.53579644986793 30.807878117085714 3.4055709706960218
    vertex 27.75079644986793 30.807878117085714 2.0459110867544528
    vertex 26.000796449867924 30.807878117085714 5.076999999999987
  endloop
endfacet
facet normal 2.0142617732484986e-15 1.0 -1.1629345770033944e-15
  outer loop
    vertex 28.53579644986793 30.807878117085714 3.4055709706960218
    vertex 26.000796449867924 30.807878117085714 5.076999999999987
    vertex 27.57079644986793 30.807878117085714 5.076999999999987
  endloop
endfacet
facet normal 2.0142617732484986e-15 1.0 -1.1629345770033944e-15
  outer loop
    vertex 27.57079644986793 30.807878117085714 5.076999999999987
    vertex 26.000796449867924 30.807878117085714 5.076999999999987
    vertex 27.75079644986793 30.807878117085714 8.108088913245522
  endloop
endfacet
facet normal 2.0142617732484986e-15 1.0 -1.1629345770033944e-15
  outer loop
    vertex 27.57079644986793 30.807878117085714 5.076999999999987
    vertex 27.75079644986793 30.807878117085714 8.108088913245522
    vertex 28.53579644986793 30.807878117085714 6.748429029303953
  endloop
endfacet
facet normal 2.0142617732484986e-15 1.0 -1.1629345770033944e-15
  outer loop
    vertex 31.250796449867927 30.807878117085703 2.0459110867544523
    vertex 30.465796449867927 30.807878117085703 3.4055709706960218
    vertex 33.00079644986792 30.807878117085703 5.076999999999987
  endloop
endfacet
facet normal 2.0142617732484986e-15 1.0 -1.1629345770033944e-15
  outer loop
    vertex 30.465796449867927 30.807878117085703 3.4055709706960218
    vertex 31.250796449867927 30.807878117085703 2.0459110867544523
    vertex 27.75079644986793 30.807878117085714 2.0459110867544528
  endloop
endfacet
facet normal 2.0142617732484986e-15 1.0 -1.1629345770033944e-15
  outer loop
    vertex 33.00079644986792 30.807878117085703 5.076999999999987
    vertex 30.465796449867927 30.807878117085703 3.4055709706960218
    vertex 31.430796449867927 30.807878117085703 5.076999999999987
  endloop
endfacet
facet normal 2.0142617732484986e-15 1.0 -1.1629345770033944e-15
  outer loop
    vertex 33.00079644986792 30.807878117085703 5.076999999999987
    vertex 31.430796449867927 30.807878117085703 5.076999999999987
    vertex 31.250796449867927 30.807878117085714 8.108088913245522
  endloop
endfacet
facet normal 2.0142617732484986e-15 1.0 -1.1629345770033944e-15
  outer loop
    vertex 31.250796449867927 30.807878117085714 8.108088913245522
    vertex 31.430796449867927 30.807878117085703 5.076999999999987
    vertex 30.465796449867927 30.807878117085714 6.748429029303952
  endloop
endfacet
facet normal 2.0142617732484986e-15 1.0 -1.1629345770033944e-15
  outer loop
    vertex 31.250796449867927 30.807878117085714 8.108088913245522
    vertex 30.465796449867927 30.807878117085714 6.748429029303952
    vertex 28.53579644986793 30.807878117085714 6.748429029303953
  endloop
endfacet
facet normal 2.0142617732484986e-15 1.0 -1.1629345770033944e-15
  outer loop
    vertex 31.250796449867927 30.807878117085714 8.108088913245522
    vertex 28.53579644986793 30.807878117085714 6.748429029303953
    vertex 27.75079644986793 30.807878117085714 8.108088913245522
  endloop
endfacet
facet normal -0.8660254037844386 1.2653692288637966e-15 -0.5000000000000001
  outer loop
    vertex 30.465796449867927 30.807878117085714 6.748429029303952
    vertex 31.430796449867906 26.807459158299086 5.077000000000003
    vertex 30.465796449867906 26.807459158299086 6.748429029303967
  endloop
endfacet
facet normal -0.8660254037844386 1.2653692288637966e-15 -0.5000000000000001
  outer loop
    vertex 31.430796449867906 26.807459158299086 5.077000000000003
    vertex 30.465796449867927 30.807878117085714 6.748429029303952
    vertex 31.430796449867927 30.807878117085703 5.076999999999987
  endloop
endfacet
facet normal -0.8660254037844386 2.5307384577275927e-15 0.4999999999999999
  outer loop
    vertex 31.430796449867927 30.807878117085703 5.076999999999987
    vertex 30.465796449867906 26.807459158299086 3.4055709706960395
    vertex 31.430796449867906 26.807459158299086 5.077000000000003
  endloop
endfacet
facet normal -0.8660254037844386 2.5307384577275927e-15 0.4999999999999999
  outer loop
    vertex 30.465796449867906 26.807459158299086 3.4055709706960395
    vertex 31.430796449867927 30.807878117085703 5.076999999999987
    vertex 30.465796449867927 30.807878117085703 3.4055709706960218
  endloop
endfacet
facet normal 1.826403162271983e-16 1.2653692288637964e-15 1.0
  outer loop
    vertex 30.465796449867906 26.807459158299086 3.4055709706960395
    vertex 28.53579644986793 30.807878117085714 3.4055709706960218
    vertex 28.535796449867906 26.807459158299086 3.40557097069604
  endloop
endfacet
facet normal 1.826403162271983e-16 1.2653692288637964e-15 1.0
  outer loop
    vertex 28.53579644986793 30.807878117085714 3.4055709706960218
    vertex 30.465796449867906 26.807459158299086 3.4055709706960395
    vertex 30.465796449867927 30.807878117085703 3.4055709706960218
  endloop
endfacet
facet normal 0.8660254037844386 -1.2653692288637964e-15 0.5
  outer loop
    vertex 28.53579644986793 30.807878117085714 3.4055709706960218
    vertex 27.570796449867906 26.807459158299096 5.077000000000003
    vertex 28.535796449867906 26.807459158299086 3.40557097069604
  endloop
endfacet
facet normal 0.8660254037844386 -1.2653692288637964e-15 0.5
  outer loop
    vertex 27.570796449867906 26.807459158299096 5.077000000000003
    vertex 28.53579644986793 30.807878117085714 3.4055709706960218
    vertex 27.57079644986793 30.807878117085714 5.076999999999987
  endloop
endfacet
facet normal 0.8660254037844387 -2.5307384577275927e-15 -0.4999999999999998
  outer loop
    vertex 27.57079644986793 30.807878117085714 5.076999999999987
    vertex 28.535796449867906 26.807459158299096 6.748429029303969
    vertex 27.570796449867906 26.807459158299096 5.077000000000003
  endloop
endfacet
facet normal 0.8660254037844387 -2.5307384577275927e-15 -0.4999999999999998
  outer loop
    vertex 28.535796449867906 26.807459158299096 6.748429029303969
    vertex 27.57079644986793 30.807878117085714 5.076999999999987
    vertex 28.53579644986793 30.807878117085714 6.748429029303953
  endloop
endfacet
facet normal -7.30561264908785e-16 -1.265369228863795e-15 -1.0
  outer loop
    vertex 28.53579644986793 30.807878117085714 6.748429029303953
    vertex 30.465796449867906 26.807459158299086 6.748429029303967
    vertex 28.535796449867906 26.807459158299096 6.748429029303969
  endloop
endfacet
facet normal -7.30561264908785e-16 -1.265369228863795e-15 -1.0
  outer loop
    vertex 30.465796449867906 26.807459158299086 6.748429029303967
    vertex 28.53579644986793 30.807878117085714 6.748429029303953
    vertex 30.465796449867927 30.807878117085714 6.748429029303952
  endloop
endfacet
facet normal 0.0 -1.0 0.0
  outer loop
    vertex 33.0007964498679 26.807459158299086 5.0770000000000035
    vertex 30.465796449867906 26.807459158299086 3.4055709706960395
    vertex 31.250796449867902 26.807459158299086 2.0459110867544696
  endloop
endfacet
facet normal 0.0 -1.0 0.0
  outer loop
    vertex 30.465796449867906 26.807459158299086 3.4055709706960395
    vertex 33.0007964498679 26.807459158299086 5.0770000000000035
    vertex 31.430796449867906 26.807459158299086 5.077000000000003
  endloop
endfacet
facet normal 0.0 -1.0 0.0
  outer loop
    vertex 31.430796449867906 26.807459158299086 5.077000000000003
    vertex 33.0007964498679 26.807459158299086 5.0770000000000035
    vertex 30.465796449867906 26.807459158299086 6.748429029303967
  endloop
endfacet
facet normal 0.0 -1.0 0.0
  outer loop
    vertex 30.465796449867906 26.807459158299086 6.748429029303967
    vertex 33.0007964498679 26.807459158299086 5.0770000000000035
    vertex 31.250796449867902 26.807459158299086 8.10808891324554
  endloop
endfacet
facet normal 0.0 -1.0 0.0
  outer loop
    vertex 30.465796449867906 26.807459158299086 6.748429029303967
    vertex 31.250796449867902 26.807459158299086 8.10808891324554
    vertex 28.535796449867906 26.807459158299096 6.748429029303969
  endloop
endfacet
facet normal 0.0 -1.0 0.0
  outer loop
    vertex 27.75079644986791 26.807459158299086 2.045911086754469
    vertex 28.535796449867906 26.807459158299086 3.40557097069604
    vertex 26.000796449867902 26.807459158299086 5.0770000000000035
  endloop
endfacet
facet normal 0.0 -1.0 0.0
  outer loop
    vertex 28.535796449867906 26.807459158299086 3.40557097069604
    vertex 27.75079644986791 26.807459158299086 2.045911086754469
    vertex 31.250796449867902 26.807459158299086 2.0459110867544696
  endloop
endfacet
facet normal 0.0 -1.0 0.0
  outer loop
    vertex 28.535796449867906 26.807459158299086 3.40557097069604
    vertex 31.250796449867902 26.807459158299086 2.0459110867544696
    vertex 30.465796449867906 26.807459158299086 3.4055709706960395
  endloop
endfacet
facet normal 0.0 -1.0 0.0
  outer loop
    vertex 26.000796449867902 26.807459158299086 5.0770000000000035
    vertex 28.535796449867906 26.807459158299086 3.40557097069604
    vertex 27.570796449867906 26.807459158299096 5.077000000000003
  endloop
endfacet
facet normal 0.0 -1.0 0.0
  outer loop
    vertex 26.000796449867902 26.807459158299086 5.0770000000000035
    vertex 27.570796449867906 26.807459158299096 5.077000000000003
    vertex 28.535796449867906 26.807459158299096 6.748429029303969
  endloop
endfacet
facet normal 0.0 -1.0 0.0
  outer loop
    vertex 26.000796449867902 26.807459158299086 5.0770000000000035
    vertex 28.535796449867906 26.807459158299096 6.748429029303969
    vertex 27.7507964498679 26.807459158299086 8.10808891324554
  endloop
endfacet
facet normal 0.0 -1.0 0.0
  outer loop
    vertex 27.7507964498679 26.807459158299086 8.10808891324554
    vertex 28.535796449867906 26.807459158299096 6.748429029303969
    vertex 31.250796449867902 26.807459158299086 8.10808891324554
  endloop
endfacet
facet normal -0.8660254037844387 0.0 0.5000000000000001
  outer loop
    vertex 33.0007964498679 26.807459158299086 5.0770000000000035
    vertex 31.250796449867902 16.807459158299093 2.0459110867544696
    vertex 33.0007964498679 16.807459158299093 5.0770000000000035
  endloop
endfacet
facet normal -0.8660254037844387 0.0 0.5000000000000001
  outer loop
    vertex 31.250796449867902 16.807459158299093 2.0459110867544696
    vertex 33.0007964498679 26.807459158299086 5.0770000000000035
    vertex 31.250796449867902 26.807459158299086 2.0459110867544696
  endloop
endfacet
facet normal -0.8660254037844384 -0.0 -0.5000000000000004
  outer loop
    vertex 31.250796449867902 26.807459158299086 8.10808891324554
    vertex 33.0007964498679 16.807459158299093 5.0770000000000035
    vertex 31.250796449867902 16.807459158299093 8.10808891324554
  endloop
endfacet
facet normal -0.8660254037844384 -0.0 -0.5000000000000004
  outer loop
    vertex 33.0007964498679 16.807459158299093 5.0770000000000035
    vertex 31.250796449867902 26.807459158299086 8.10808891324554
    vertex 33.0007964498679 26.807459158299086 5.0770000000000035
  endloop
endfacet
facet normal 4.028523546496997e-16 0.0 -1.0
  outer loop
    vertex 31.250796449867902 26.807459158299086 8.10808891324554
    vertex 27.7507964498679 16.807459158299093 8.10808891324554
    vertex 27.7507964498679 26.807459158299086 8.10808891324554
  endloop
endfacet
facet normal 4.028523546496997e-16 0.0 -1.0
  outer loop
    vertex 27.7507964498679 16.807459158299093 8.10808891324554
    vertex 31.250796449867902 26.807459158299086 8.10808891324554
    vertex 31.250796449867902 16.807459158299093 8.10808891324554
  endloop
endfacet
facet normal 0.8660254037844392 0.0 -0.4999999999999994
  outer loop
    vertex 26.000796449867902 26.807459158299086 5.0770000000000035
    vertex 27.7507964498679 16.807459158299093 8.10808891324554
    vertex 26.000796449867902 16.807459158299093 5.0770000000000035
  endloop
endfacet
facet normal 0.8660254037844392 0.0 -0.4999999999999994
  outer loop
    vertex 27.7507964498679 16.807459158299093 8.10808891324554
    vertex 26.000796449867902 26.807459158299086 5.0770000000000035
    vertex 27.7507964498679 26.807459158299086 8.10808891324554
  endloop
endfacet
facet normal 0.8660254037844387 0.0 0.5000000000000001
  outer loop
    vertex 27.75079644986791 26.807459158299086 2.045911086754469
    vertex 26.000796449867902 16.807459158299093 5.0770000000000035
    vertex 27.75079644986791 16.807459158299093 2.045911086754469
  endloop
endfacet
facet normal 0.8660254037844387 0.0 0.5000000000000001
  outer loop
    vertex 26.000796449867902 16.807459158299093 5.0770000000000035
    vertex 27.75079644986791 26.807459158299086 2.045911086754469
    vertex 26.000796449867902 26.807459158299086 5.0770000000000035
  endloop
endfacet
facet normal -2.0142617732484985e-16 0.0 1.0
  outer loop
    vertex 31.250796449867902 16.807459158299093 2.0459110867544696
    vertex 27.75079644986791 26.807459158299086 2.045911086754469
    vertex 27.75079644986791 16.807459158299093 2.045911086754469
  endloop
endfacet
facet normal -2.0142617732484985e-16 0.0 1.0
  outer loop
    vertex 27.75079644986791 26.807459158299086 2.045911086754469
    vertex 31.250796449867902 16.807459158299093 2.0459110867544696
    vertex 31.250796449867902 26.807459158299086 2.0459110867544696
  endloop
endfacet
facet normal 0.0 -1.0 0.0
  outer loop
    vertex 14.000565122155631 26.807459158299096 5.076999999999989
    vertex 11.465565122155628 26.807459158299096 3.405570970696023
    vertex 12.250565122155631 26.807459158299096 2.045911086754456
  endloop
endfacet
facet normal 0.0 -1.0 0.0
  outer loop
    vertex 11.465565122155628 26.807459158299096 3.405570970696023
    vertex 14.000565122155631 26.807459158299096 5.076999999999989
    vertex 12.430565122155633 26.807459158299096 5.076999999999989
  endloop
endfacet
facet normal 0.0 -1.0 0.0
  outer loop
    vertex 12.430565122155633 26.807459158299096 5.076999999999989
    vertex 14.000565122155631 26.807459158299096 5.076999999999989
    vertex 12.250565122155626 26.807459158299096 8.108088913245526
  endloop
endfacet
facet normal 0.0 -1.0 0.0
  outer loop
    vertex 12.430565122155633 26.807459158299096 5.076999999999989
    vertex 12.250565122155626 26.807459158299096 8.108088913245526
    vertex 11.465565122155635 26.807459158299096 6.748429029303956
  endloop
endfacet
facet normal 0.0 -1.0 0.0
  outer loop
    vertex 11.465565122155635 26.807459158299096 6.748429029303956
    vertex 12.250565122155626 26.807459158299096 8.108088913245526
    vertex 9.535565122155635 26.807459158299096 6.748429029303957
  endloop
endfacet
facet normal 0.0 -1.0 0.0
  outer loop
    vertex 8.750565122155631 26.807459158299096 2.045911086754455
    vertex 9.53556512215563 26.807459158299096 3.405570970696023
    vertex 7.0005651221556295 26.807459158299096 5.076999999999989
  endloop
endfacet
facet normal 0.0 -1.0 0.0
  outer loop
    vertex 9.53556512215563 26.807459158299096 3.405570970696023
    vertex 8.750565122155631 26.807459158299096 2.045911086754455
    vertex 12.250565122155631 26.807459158299096 2.045911086754456
  endloop
endfacet
facet normal 0.0 -1.0 0.0
  outer loop
    vertex 9.53556512215563 26.807459158299096 3.405570970696023
    vertex 12.250565122155631 26.807459158299096 2.045911086754456
    vertex 11.465565122155628 26.807459158299096 3.405570970696023
  endloop
endfacet
facet normal 0.0 -1.0 0.0
  outer loop
    vertex 7.0005651221556295 26.807459158299096 5.076999999999989
    vertex 9.53556512215563 26.807459158299096 3.405570970696023
    vertex 8.57056512215563 26.807459158299096 5.076999999999989
  endloop
endfacet
facet normal 0.0 -1.0 0.0
  outer loop
    vertex 7.0005651221556295 26.807459158299096 5.076999999999989
    vertex 8.57056512215563 26.807459158299096 5.076999999999989
    vertex 8.750565122155631 26.807459158299096 8.108088913245526
  endloop
endfacet
facet normal 0.0 -1.0 0.0
  outer loop
    vertex 8.750565122155631 26.807459158299096 8.108088913245526
    vertex 8.57056512215563 26.807459158299096 5.076999999999989
    vertex 9.535565122155635 26.807459158299096 6.748429029303957
  endloop
endfacet
facet normal 0.0 -1.0 0.0
  outer loop
    vertex 8.750565122155631 26.807459158299096 8.108088913245526
    vertex 9.535565122155635 26.807459158299096 6.748429029303957
    vertex 12.250565122155626 26.807459158299096 8.108088913245526
  endloop
endfacet
facet normal 0.8660254037844385 0.0 0.5000000000000002
  outer loop
    vertex 8.750565122155631 26.807459158299096 2.045911086754455
    vertex 7.0005651221556295 16.807459158299093 5.076999999999989
    vertex 8.750565122155631 16.807459158299093 2.045911086754455
  endloop
endfacet
facet normal 0.8660254037844385 0.0 0.5000000000000002
  outer loop
    vertex 7.0005651221556295 16.807459158299093 5.076999999999989
    vertex 8.750565122155631 26.807459158299096 2.045911086754455
    vertex 7.0005651221556295 26.807459158299096 5.076999999999989
  endloop
endfacet
facet normal -2.0142617732484985e-16 0.0 1.0
  outer loop
    vertex 12.250565122155631 16.807459158299093 2.045911086754456
    vertex 8.750565122155631 26.807459158299096 2.045911086754455
    vertex 8.750565122155631 16.807459158299093 2.045911086754455
  endloop
endfacet
facet normal -2.0142617732484985e-16 0.0 1.0
  outer loop
    vertex 8.750565122155631 26.807459158299096 2.045911086754455
    vertex 12.250565122155631 16.807459158299093 2.045911086754456
    vertex 12.250565122155631 26.807459158299096 2.045911086754456
  endloop
endfacet
facet normal -0.8660254037844387 0.0 0.5000000000000001
  outer loop
    vertex 14.000565122155631 26.807459158299096 5.076999999999989
    vertex 12.250565122155631 16.807459158299093 2.045911086754456
    vertex 14.000565122155631 16.807459158299093 5.076999999999989
  endloop
endfacet
facet normal -0.8660254037844387 0.0 0.5000000000000001
  outer loop
    vertex 12.250565122155631 16.807459158299093 2.045911086754456
    vertex 14.000565122155631 26.807459158299096 5.076999999999989
    vertex 12.250565122155631 26.807459158299096 2.045911086754456
  endloop
endfacet
facet normal -0.8660254037844384 -0.0 -0.5000000000000004
  outer loop
    vertex 12.250565122155626 26.807459158299096 8.108088913245526
    vertex 14.000565122155631 16.807459158299093 5.076999999999989
    vertex 12.250565122155626 16.807459158299093 8.108088913245526
  endloop
endfacet
facet normal -0.8660254037844384 -0.0 -0.5000000000000004
  outer loop
    vertex 14.000565122155631 16.807459158299093 5.076999999999989
    vertex 12.250565122155626 26.807459158299096 8.108088913245526
    vertex 14.000565122155631 26.807459158299096 5.076999999999989
  endloop
endfacet
facet normal 4.028523546496999e-16 0.0 -1.0
  outer loop
    vertex 12.250565122155626 26.807459158299096 8.108088913245526
    vertex 8.750565122155631 16.807459158299093 8.108088913245526
    vertex 8.750565122155631 26.807459158299096 8.108088913245526
  endloop
endfacet
facet normal 4.028523546496999e-16 0.0 -1.0
  outer loop
    vertex 8.750565122155631 16.807459158299093 8.108088913245526
    vertex 12.250565122155626 26.807459158299096 8.108088913245526
    vertex 12.250565122155626 16.807459158299093 8.108088913245526
  endloop
endfacet
facet normal 0.8660254037844389 0.0 -0.49999999999999967
  outer loop
    vertex 7.0005651221556295 26.807459158299096 5.076999999999989
    vertex 8.750565122155631 16.807459158299093 8.108088913245526
    vertex 7.0005651221556295 16.807459158299093 5.076999999999989
  endloop
endfacet
facet normal 0.8660254037844389 0.0 -0.49999999999999967
  outer loop
    vertex 8.750565122155631 16.807459158299093 8.108088913245526
    vertex 7.0005651221556295 26.807459158299096 5.076999999999989
    vertex 8.750565122155631 26.807459158299096 8.108088913245526
  endloop
endfacet
facet normal -0.5877852522924721 0.8090169943749482 1.8258563777303896e-32
  outer loop
    vertex 20.91228091941787 21.41184243522837 9.076999999999993
    vertex 22.387280919417872 22.483492664036277 1.076999999999991
    vertex 20.91228091941787 21.41184243522837 1.076999999999991
  endloop
endfacet
facet normal -0.5877852522924721 0.8090169943749482 1.8258563777303896e-32
  outer loop
    vertex 22.387280919417872 22.483492664036277 1.076999999999991
    vertex 20.91228091941787 21.41184243522837 9.076999999999993
    vertex 22.387280919417872 22.483492664036277 9.076999999999993
  endloop
endfacet
facet normal -3.466025705875335e-17 -4.386147581658181e-17 -1.0
  outer loop
    vertex 16.500680786011802 29.447878117085736 1.076999999999991
    vertex 17.614080652605683 25.951425652561888 1.076999999999991
    vertex 17.050680786011778 24.217459158299082 1.076999999999991
  endloop
endfacet
facet normal -3.466025705875335e-17 -4.386147581658181e-17 -1.0
  outer loop
    vertex 17.614080652605683 25.951425652561888 1.076999999999991
    vertex 16.500680786011802 29.447878117085736 1.076999999999991
    vertex 19.089080652605684 27.023075881369795 1.076999999999991
  endloop
endfacet
facet normal -3.466025705875335e-17 -4.386147581658181e-17 -1.0
  outer loop
    vertex 19.089080652605684 27.023075881369795 1.076999999999991
    vertex 16.500680786011802 29.447878117085736 1.076999999999991
    vertex 23.500680786011802 29.447878117085736 1.076999999999991
  endloop
endfacet
facet normal -3.466025705875335e-17 -4.386147581658181e-17 -1.0
  outer loop
    vertex 19.089080652605684 27.023075881369795 1.076999999999991
    vertex 23.500680786011802 29.447878117085736 1.076999999999991
    vertex 20.912280919417874 27.023075881369774 1.076999999999991
  endloop
endfacet
facet normal -3.466025705875335e-17 -4.386147581658181e-17 -1.0
  outer loop
    vertex 20.912280919417874 27.023075881369774 1.076999999999991
    vertex 23.500680786011802 29.447878117085736 1.076999999999991
    vertex 22.387280919417872 25.951425652561888 1.076999999999991
  endloop
endfacet
facet normal -3.466025705875335e-17 -4.386147581658181e-17 -1.0
  outer loop
    vertex 22.387280919417872 25.951425652561888 1.076999999999991
    vertex 23.500680786011802 29.447878117085736 1.076999999999991
    vertex 22.950680786011777 24.217459158299082 1.076999999999991
  endloop
endfacet
facet normal -3.466025705875335e-17 -4.386147581658181e-17 -1.0
  outer loop
    vertex 33.50079644986792 30.807878117085714 1.0769999999999895
    vertex 23.500680786011802 29.447878117085736 1.076999999999991
    vertex 23.500680786011802 30.807878117085714 1.0769999999999895
  endloop
endfacet
facet normal -3.466025705875335e-17 -4.386147581658181e-17 -1.0
  outer loop
    vertex 16.500680786011802 30.80787811708574 1.076999999999991
    vertex 6.50056512215563 16.807459158299093 1.076999999999991
    vertex 6.50056512215563 30.80787811708573 1.076999999999991
  endloop
endfacet
facet normal -3.466025705875335e-17 -4.386147581658181e-17 -1.0
  outer loop
    vertex 6.50056512215563 16.807459158299093 1.076999999999991
    vertex 16.500680786011802 30.80787811708574 1.076999999999991
    vertex 16.500680786011802 29.447878117085736 1.076999999999991
  endloop
endfacet
facet normal -3.466025705875335e-17 -4.386147581658181e-17 -1.0
  outer loop
    vertex 6.50056512215563 16.807459158299093 1.076999999999991
    vertex 16.500680786011802 29.447878117085736 1.076999999999991
    vertex 17.050680786011778 24.217459158299082 1.076999999999991
  endloop
endfacet
facet normal -3.466025705875335e-17 -4.386147581658181e-17 -1.0
  outer loop
    vertex 6.50056512215563 16.807459158299093 1.076999999999991
    vertex 17.050680786011778 24.217459158299082 1.076999999999991
    vertex 17.614080652605683 22.483492664036277 1.076999999999991
  endloop
endfacet
facet normal -3.466025705875335e-17 -4.386147581658181e-17 -1.0
  outer loop
    vertex 6.50056512215563 16.807459158299093 1.076999999999991
    vertex 17.614080652605683 22.483492664036277 1.076999999999991
    vertex 19.08908065260568 21.41184243522839 1.076999999999991
  endloop
endfacet
facet normal -3.466025705875335e-17 -4.386147581658181e-17 -1.0
  outer loop
    vertex 6.50056512215563 16.807459158299093 1.076999999999991
    vertex 19.08908065260568 21.41184243522839 1.076999999999991
    vertex 33.50079644986792 16.807459158299093 1.076999999999991
  endloop
endfacet
facet normal -3.466025705875335e-17 -4.386147581658181e-17 -1.0
  outer loop
    vertex 33.50079644986792 16.807459158299093 1.076999999999991
    vertex 19.08908065260568 21.41184243522839 1.076999999999991
    vertex 20.91228091941787 21.41184243522837 1.076999999999991
  endloop
endfacet
facet normal -3.466025705875335e-17 -4.386147581658181e-17 -1.0
  outer loop
    vertex 33.50079644986792 16.807459158299093 1.076999999999991
    vertex 20.91228091941787 21.41184243522837 1.076999999999991
    vertex 22.387280919417872 22.483492664036277 1.076999999999991
  endloop
endfacet
facet normal -3.466025705875335e-17 -4.386147581658181e-17 -1.0
  outer loop
    vertex 33.50079644986792 16.807459158299093 1.076999999999991
    vertex 22.387280919417872 22.483492664036277 1.076999999999991
    vertex 22.950680786011777 24.217459158299082 1.076999999999991
  endloop
endfacet
facet normal -3.466025705875335e-17 -4.386147581658181e-17 -1.0
  outer loop
    vertex 33.50079644986792 16.807459158299093 1.076999999999991
    vertex 22.950680786011777 24.217459158299082 1.076999999999991
    vertex 23.500680786011802 29.447878117085736 1.076999999999991
  endloop
endfacet
facet normal -3.466025705875335e-17 -4.386147581658181e-17 -1.0
  outer loop
    vertex 33.50079644986792 16.807459158299093 1.076999999999991
    vertex 23.500680786011802 29.447878117085736 1.076999999999991
    vertex 33.50079644986792 30.807878117085714 1.0769999999999895
  endloop
endfacet
facet normal 0.0 -1.0 0.0
  outer loop
    vertex 6.50056512215563 16.807459158299093 9.076999999999988
    vertex 1.7774306683886625 16.807459158299093 1.076999999999991
    vertex 6.50056512215563 16.807459158299093 1.076999999999991
  endloop
endfacet
facet normal 0.0 -1.0 0.0
  outer loop
    vertex 1.7774306683886625 16.807459158299093 1.076999999999991
    vertex 6.50056512215563 16.807459158299093 9.076999999999988
    vertex 1.7774306683886625 16.807459158299093 9.076999999999988
  endloop
endfacet
facet normal -0.0 -0.0 -1.0
  outer loop
    vertex 3.378559894343608 22.25240074269945 1.076999999999991
    vertex 6.50056512215563 16.807459158299093 1.076999999999991
    vertex 1.7774306683886625 16.807459158299093 1.076999999999991
  endloop
endfacet
facet normal -0.0 -0.0 -1.0
  outer loop
    vertex 6.50056512215563 16.807459158299093 1.076999999999991
    vertex 3.378559894343608 22.25240074269945 1.076999999999991
    vertex 5.347460501240443 28.256941758554163 1.076999999999991
  endloop
endfacet
facet normal -0.0 -0.0 -1.0
  outer loop
    vertex 6.50056512215563 16.807459158299093 1.076999999999991
    vertex 5.347460501240443 28.256941758554163 1.076999999999991
    vertex 6.272016426580474 30.80787811708573 1.076999999999991
  endloop
endfacet
facet normal -0.0 -0.0 -1.0
  outer loop
    vertex 6.50056512215563 16.807459158299093 1.076999999999991
    vertex 6.272016426580474 30.80787811708573 1.076999999999991
    vertex 6.50056512215563 30.80787811708573 1.076999999999991
  endloop
endfacet
facet normal -0.9593809624631765 0.282113751637933 0.0
  outer loop
    vertex 3.378559894343608 22.25240074269945 9.076999999999988
    vertex 1.7774306683886625 16.807459158299093 1.076999999999991
    vertex 1.7774306683886625 16.807459158299093 9.076999999999988
  endloop
endfacet
facet normal -0.9593809624631765 0.282113751637933 0.0
  outer loop
    vertex 1.7774306683886625 16.807459158299093 1.076999999999991
    vertex 3.378559894343608 22.25240074269945 9.076999999999988
    vertex 3.378559894343608 22.25240074269945 1.076999999999991
  endloop
endfacet
facet normal 0.0 0.0 1.0
  outer loop
    vertex 6.50056512215563 16.807459158299093 9.076999999999988
    vertex 3.378559894343608 22.25240074269945 9.076999999999988
    vertex 1.7774306683886625 16.807459158299093 9.076999999999988
  endloop
endfacet
facet normal 0.0 0.0 1.0
  outer loop
    vertex 3.378559894343608 22.25240074269945 9.076999999999988
    vertex 6.50056512215563 16.807459158299093 9.076999999999988
    vertex 5.347460501240443 28.256941758554163 9.076999999999988
  endloop
endfacet
facet normal 0.0 0.0 1.0
  outer loop
    vertex 5.347460501240443 28.256941758554163 9.076999999999988
    vertex 6.50056512215563 16.807459158299093 9.076999999999988
    vertex 6.272016426580474 30.80787811708573 9.076999999999988
  endloop
endfacet
facet normal 0.0 0.0 1.0
  outer loop
    vertex 6.272016426580474 30.80787811708573 9.076999999999988
    vertex 6.50056512215563 16.807459158299093 9.076999999999988
    vertex 6.50056512215563 30.80787811708573 9.076999999999988
  endloop
endfacet
facet normal 0.0 1.0 0.0
  outer loop
    vertex 6.272016426580474 30.80787811708573 9.076999999999988
    vertex 6.50056512215563 30.80787811708573 1.076999999999991
    vertex 6.272016426580474 30.80787811708573 1.076999999999991
  endloop
endfacet
facet normal 0.0 1.0 0.0
  outer loop
    vertex 6.50056512215563 30.80787811708573 1.076999999999991
    vertex 6.272016426580474 30.80787811708573 9.076999999999988
    vertex 6.50056512215563 30.80787811708573 9.076999999999988
  endloop
endfacet
facet normal 1.0 0.0 0.0
  outer loop
    vertex 6.50056512215563 30.80787811708573 1.076999999999991
    vertex 6.50056512215563 16.807459158299093 9.076999999999988
    vertex 6.50056512215563 16.807459158299093 1.076999999999991
  endloop
endfacet
facet normal 1.0 0.0 0.0
  outer loop
    vertex 6.50056512215563 16.807459158299093 9.076999999999988
    vertex 6.50056512215563 30.80787811708573 1.076999999999991
    vertex 6.50056512215563 30.80787811708573 9.076999999999988
  endloop
endfacet
facet normal -0.9502202346936809 0.311579051893233 0.0
  outer loop
    vertex 5.347460501240443 28.256941758554163 9.076999999999988
    vertex 3.378559894343608 22.25240074269945 1.076999999999991
    vertex 3.378559894343608 22.25240074269945 9.076999999999988
  endloop
endfacet
facet normal -0.9502202346936809 0.311579051893233 0.0
  outer loop
    vertex 3.378559894343608 22.25240074269945 1.076999999999991
    vertex 5.347460501240443 28.256941758554163 9.076999999999988
    vertex 5.347460501240443 28.256941758554163 1.076999999999991
  endloop
endfacet
facet normal -0.9401547805239133 0.3407476906129113 0.0
  outer loop
    vertex 6.272016426580474 30.80787811708573 9.076999999999988
    vertex 5.347460501240443 28.256941758554163 1.076999999999991
    vertex 5.347460501240443 28.256941758554163 9.076999999999988
  endloop
endfacet
facet normal -0.9401547805239133 0.3407476906129113 0.0
  outer loop
    vertex 5.347460501240443 28.256941758554163 1.076999999999991
    vertex 6.272016426580474 30.80787811708573 9.076999999999988
    vertex 6.272016426580474 30.80787811708573 1.076999999999991
  endloop
endfacet
facet normal 0.0 -1.0 -0.0
  outer loop
    vertex 33.50079644986792 16.807459158299093 9.076999999999986
    vertex 38.223930903634894 16.807459158299093 1.0769999999999942
    vertex 38.22393090363489 16.807459158299093 9.076999999999991
  endloop
endfacet
facet normal 0.0 -1.0 -0.0
  outer loop
    vertex 38.223930903634894 16.807459158299093 1.0769999999999942
    vertex 33.50079644986792 16.807459158299093 9.076999999999986
    vertex 33.50079644986793 16.807459158299093 1.0769999999999884
  endloop
endfacet
facet normal -7.528699885739343e-16 0.0 1.0
  outer loop
    vertex 36.622801677679945 22.25240074269945 9.076999999999988
    vertex 33.50079644986792 16.807459158299093 9.076999999999986
    vertex 38.22393090363489 16.807459158299093 9.076999999999991
  endloop
endfacet
facet normal -7.528699885739343e-16 0.0 1.0
  outer loop
    vertex 33.50079644986792 16.807459158299093 9.076999999999986
    vertex 36.622801677679945 22.25240074269945 9.076999999999988
    vertex 34.653901070783114 28.256941758554163 9.076999999999986
  endloop
endfacet
facet normal -7.528699885739343e-16 0.0 1.0
  outer loop
    vertex 33.50079644986792 16.807459158299093 9.076999999999986
    vertex 34.653901070783114 28.256941758554163 9.076999999999986
    vertex 33.72934514544308 30.80787811708573 9.076999999999988
  endloop
endfacet
facet normal -7.528699885739343e-16 0.0 1.0
  outer loop
    vertex 33.50079644986792 16.807459158299093 9.076999999999986
    vertex 33.72934514544308 30.80787811708573 9.076999999999988
    vertex 33.50079644986792 30.80787811708573 9.076999999999986
  endloop
endfacet
facet normal 0.9593809624631765 0.282113751637933 7.222891342477017e-16
  outer loop
    vertex 36.622801677679945 22.25240074269945 1.0769999999999926
    vertex 38.22393090363489 16.807459158299093 9.076999999999991
    vertex 38.223930903634894 16.807459158299093 1.0769999999999942
  endloop
endfacet
facet normal 0.9593809624631765 0.282113751637933 7.222891342477017e-16
  outer loop
    vertex 38.22393090363489 16.807459158299093 9.076999999999991
    vertex 36.622801677679945 22.25240074269945 1.0769999999999926
    vertex 36.622801677679945 22.25240074269945 9.076999999999988
  endloop
endfacet
facet normal 7.528699885739343e-16 0.0 -1.0
  outer loop
    vertex 33.50079644986793 16.807459158299093 1.0769999999999884
    vertex 36.622801677679945 22.25240074269945 1.0769999999999926
    vertex 38.223930903634894 16.807459158299093 1.0769999999999942
  endloop
endfacet
facet normal 7.528699885739343e-16 0.0 -1.0
  outer loop
    vertex 36.622801677679945 22.25240074269945 1.0769999999999926
    vertex 33.50079644986793 16.807459158299093 1.0769999999999884
    vertex 34.653901070783114 28.256941758554163 1.0769999999999913
  endloop
endfacet
facet normal 7.528699885739343e-16 0.0 -1.0
  outer loop
    vertex 34.653901070783114 28.256941758554163 1.0769999999999913
    vertex 33.50079644986793 16.807459158299093 1.0769999999999884
    vertex 33.729345145443084 30.80787811708573 1.0769999999999913
  endloop
endfacet
facet normal 7.528699885739343e-16 0.0 -1.0
  outer loop
    vertex 33.729345145443084 30.80787811708573 1.0769999999999913
    vertex 33.50079644986793 16.807459158299093 1.0769999999999884
    vertex 33.50079644986793 30.80787811708573 1.0769999999999884
  endloop
endfacet
facet normal 0.0 1.0 0.0
  outer loop
    vertex 33.729345145443084 30.80787811708573 1.0769999999999913
    vertex 33.50079644986792 30.80787811708573 9.076999999999986
    vertex 33.72934514544308 30.80787811708573 9.076999999999988
  endloop
endfacet
facet normal 0.0 1.0 0.0
  outer loop
    vertex 33.50079644986792 30.80787811708573 9.076999999999986
    vertex 33.729345145443084 30.80787811708573 1.0769999999999913
    vertex 33.50079644986793 30.80787811708573 1.0769999999999884
  endloop
endfacet
facet normal -1.0 0.0 -7.528699885739343e-16
  outer loop
    vertex 33.50079644986792 30.80787811708573 9.076999999999986
    vertex 33.50079644986793 16.807459158299093 1.0769999999999884
    vertex 33.50079644986792 16.807459158299093 9.076999999999986
  endloop
endfacet
facet normal -1.0 0.0 -7.528699885739343e-16
  outer loop
    vertex 33.50079644986793 16.807459158299093 1.0769999999999884
    vertex 33.50079644986792 30.80787811708573 9.076999999999986
    vertex 33.50079644986793 30.80787811708573 1.0769999999999884
  endloop
endfacet
facet normal 0.9502202346936809 0.311579051893233 7.153922972365527e-16
  outer loop
    vertex 34.653901070783114 28.256941758554163 1.0769999999999913
    vertex 36.622801677679945 22.25240074269945 9.076999999999988
    vertex 36.622801677679945 22.25240074269945 1.0769999999999926
  endloop
endfacet
facet normal 0.9502202346936809 0.311579051893233 7.153922972365527e-16
  outer loop
    vertex 36.622801677679945 22.25240074269945 9.076999999999988
    vertex 34.653901070783114 28.256941758554163 1.0769999999999913
    vertex 34.653901070783114 28.256941758554163 9.076999999999986
  endloop
endfacet
facet normal 0.9401547805239133 0.3407476906129113 7.078143188707684e-16
  outer loop
    vertex 33.729345145443084 30.80787811708573 1.0769999999999913
    vertex 34.653901070783114 28.256941758554163 9.076999999999986
    vertex 34.653901070783114 28.256941758554163 1.0769999999999913
  endloop
endfacet
facet normal 0.9401547805239133 0.3407476906129113 7.078143188707684e-16
  outer loop
    vertex 34.653901070783114 28.256941758554163 9.076999999999986
    vertex 33.729345145443084 30.80787811708573 1.0769999999999913
    vertex 33.72934514544308 30.80787811708573 9.076999999999988
  endloop
endfacet
endsolid XBeltClamp
